<?xml version="1.0" encoding="UTF-8" standalone="no"?>
<svg xmlns:rdf="http://www.w3.org/1999/02/22-rdf-syntax-ns#" xmlns="http://www.w3.org/2000/svg" enable-background="new 0 0 595.276 841.89" xml:space="preserve" height="546.4" viewBox="0 0 546.0863 546.39794" width="546.09" version="1.1" y="0px" x="0px" xmlns:cc="http://creativecommons.org/ns#" xmlns:dc="http://purl.org/dc/elements/1.1/"><g fill-rule="evenodd" transform="translate(-20.354 -18.658)" clip-rule="evenodd" fill="#fff"><path d="m498.07 115.33v149.26c0 25.43 2.452 45.355-6.885 67.777-1.21 2.906-2.818 5.643-4.356 8.228-4.554 7.653-10.386 14.449-17.156 20.175-30.096 25.454-68.338 28.359-101.13 6.502-1.3-0.867-2.524-1.578-3.733-2.559-3.676-2.984-7.184-5.837-10.399-9.315l-2.421-2.612c-9.102-9.409-16.337-25.076-18.409-37.798-0.267-1.638-0.574-3.247-0.777-5.095-1.478-13.492 0.432-23.813-8.749-35.293-19.784-24.737-61.923-15.946-67.772 15.815-2.595 14.089 1.901 45.645-2.861 59.638-5.248 15.42-16.257 26.468-31.818 30.681-3.937 1.066-6.299 1.305-11.279 1.305l0.003-84.313c0.186-36.166-44.258-48.054-65.125-26.949-13.169 13.319-11.218 26.809-11.218 45.408v197.56c2.577 1.726 5.041 3.544 7.79 5.213 5.559 3.375 10.551 7.042 16.263 10.162l26.561 13.288c1.569 0.756 2.839 1.143 4.453 1.839 1.577 0.681 3.055 1.437 4.693 2.018 17.499 6.21 33.419 11.461 51.759 14.515l23.238 3.187c4.01 0.52 8.54 0.34 12.167 0.836 3.444 0.472 9.566 0.115 13.308 0.115 34.841 0 67.921-6.189 99.712-18.993l18.296-8.129c7.485-3.49 14.37-7.601 21.54-11.597l12.108-7.606c6.257-4.146 13.387-9.184 18.962-14.174l17.61-15.527c1.21-1.212 1.911-1.894 3.231-3.061l3.266-3.446c6.64-6.744 12.807-13.715 18.721-21.127 5.789-7.257 11.259-15.242 16.415-23.014 0.945-1.424 1.548-2.676 2.573-4.138 0.912-1.302 1.691-2.756 2.543-4.168 17.988-29.816 28.778-63.388 34.434-97.693 0.519-3.147 1.27-8.117 1.523-11.48 1.38-18.316 1.198-20.224 1.293-38.561 0.019-3.69-0.421-8.864-0.775-12.228-0.455-4.326-0.699-8.433-1.199-12.223-1.513-11.475-3.157-22.316-6.241-33.188l-2.087-7.956c-0.346-1.197-0.516-1.667-1.443-2.354 0.859-2.307-3.295-12.405-4.25-15.047-5.437-15.044-11.152-27.507-18.952-41.45-2.448-4.376-4.776-8.288-7.425-12.289-6.33-9.559-15.915-23.839-23.594-31.773-0.933-0.964-1.353-1.92-2.407-2.626v4.253h-0.001zm-468.95 108.32c0.095-4.915 7.211-24.72 9.409-30.175 4.481-11.122 12.782-29.807 19.028-39.696 8.016-12.693 18.51-29.409 28.715-40.075l5.536-6.209c0.056-0.067 0.135-0.162 0.191-0.228s0.136-0.161 0.192-0.227l17.311-17.084c0.488-0.417 0.435-0.361 0.888-0.791 6.089-5.791 10.593-8.931 17.816-14.901l9.532-6.827c0.892-0.581 0.957-0.785 1.873-1.483 3.645-2.772 7.817-5.204 11.742-7.553 8.354-4.998 16.783-9.805 25.659-13.77 1.688-0.754 2.963-1.279 4.648-2.063 20.548-9.555 42.184-15.585 64.493-19.817l11.606-1.816c4.256-0.894 20.247-2.16 23.861-2.145 12.647 0.052 25.4-0.74 37.947 1.081 2.333 0.339 3.7 0.494 6.094 0.617 5.39 0.277 11.513 1.819 16.772 2.523l11.101 2.321c10.396 2.289 20.299 5.352 30.342 8.667 12.381 4.087 24.781 9.65 36.245 15.768 8.523 4.548 16.743 9.325 24.759 14.669 1.162 0.774 7.158 4.738 7.552 5.452 0.959 1.741 0.335 113.77 0.335 129.7 0 9.036 0.419 16.613 0.419 25.587-0.911-0.243-1.667-0.738-2.584-1.191-6.046-2.992-12.806-5.426-19.664-6.342l-13.345-1.338c-12.855-1.471-29.857 3.603-41.726 9.57-1.739 0.874-3.047 1.462-4.757 2.374-2.233 1.19-7.44 4.082-8.106 6.575l2.871 3.001c6.612 7.216 11.569 16.003 15.17 25.097 0.664 1.678 1.462 3.962 1.994 5.557 0.656 1.97 1.318 3.807 1.776 5.774 0.901-0.66 1.059-1.237 1.986-2.209 0.773-0.811 1.311-1.293 2.102-2.092 10.873-10.999 30.725-11.972 44.155-5.352 3.693 1.82 6.848 4.145 9.746 7.032 8.718 8.681 13.293 24.39 9.28 37.593-1.964 6.461-4.624 10.856-8.698 15.63-4.001 4.687-9.299 7.674-15.125 10.043-4.182 1.7-9.049 2.722-13.665 2.722-7.812 0-15.799-2.916-21.992-7.398-17.975-13.01-14.417-26.235-16.946-44.714-2.354-17.195-10.526-32.111-22.36-43.913l-8.669-7.69c-1.155-0.779-1.293-1.04-2.353-1.841-10.17-7.69-24.714-13.821-37.923-15.348l-15.608-0.78c-8.497 0.011-19.485 2.936-26.764 6.373-4.55 2.149-9.286 4.223-13.375 7.178-0.947 0.684-1.437 1.05-2.465 1.729-6.067 4.004-10.918 9.652-13.169 11.159-1.188-0.795-1.981-1.765-3.037-2.835l-5.193-4.455c-5.119-4.421-11.139-8.329-17.367-11.157-16.282-7.393-36.156-10.796-55.268-5.372-6.962 1.976-13.34 4.407-19.479 7.786-0.745 0.41-1.19 0.593-1.914 1.022-5.095 3.021-9.66 6.379-14.163 10.165-1.193 1.004-1.752 1.569-2.81 2.643-0.889 0.902-1.858 2.18-2.831 2.204-0.567 1.393-0.002 0.415-0.945 1.586-6.117 7.595-6.235 6.71-12.085 17.26-1.684 3.036-3.58 7.434-4.81 11.129-4.872 14.635-4.39 26.281-4.39 42.588v157.3c-1.897-1.29-8.147-9.19-9.51-11.03-9.393-12.7-11.92-15.49-20.846-30.33-6.189-10.29-12.622-22.63-17.026-33.73-8.686-21.88-14.121-39.23-17.859-63.51-5.123-33.28-4.065-75.594 5.009-108.32l0.689-1.662z"/><path d="m209.95 404.8h-1.941v21.35c0 2.503-0.102 6.231-2.4 9.296-1.43 1.89-4.035 3.779-7.917 3.779-6.793 0-10.981-5.618-10.981-11.083 0-4.035 2.094-7.61 5.312-9.296 1.737-0.919 3.728-1.175 5.669-1.175 1.226 0 2.452 0.204 3.626 0.613 1.941 0.715 3.78 2.196 4.648 3.013v-2.247c-1.226-1.124-2.707-2.043-4.239-2.554-1.379-0.46-2.809-0.664-4.29-0.664-2.145 0-4.342 0.358-6.282 1.328-3.984 2.043-6.384 6.283-6.384 11.083 0 6.282 4.75 12.82 12.973 12.82 4.801 0 7.764-2.298 9.296-4.24 2.758-3.371 2.911-7.406 2.911-10.675v-21.348h-0.001zm286.94 25.436v3.88h-0.004v4.601c0 4.442-0.358 13.325-12.464 13.325-1.533 0-3.576-0.204-6.692-1.328l0.613-1.838c2.197 0.919 4.648 1.327 6.283 1.327 9.603 0 10.318-6.637 10.318-11.487v-1.387c-2.013 2.787-5.096 3.469-6.789 3.632h-1.941c-8.581-0.613-8.734-8.785-8.734-10.726v-13.892h1.941v13.689c0 1.277 0.153 3.933 1.124 5.669 1.175 2.043 3.678 3.524 6.64 3.524 3.013 0 5.465-1.481 6.64-3.626 0.956-1.709 1.118-4.112 1.124-5.502v-0.065-13.689h1.941v13.893zm-280.25-13.893v24.21h1.941v-24.21h-1.941zm-0.562-6.844c0 0.919 0.613 1.532 1.532 1.532s1.532-0.613 1.532-1.532-0.613-1.532-1.532-1.532-1.532 0.613-1.532 1.532zm13.841 41.474c3.115 1.124 5.159 1.328 6.691 1.328 12.105 0 12.462-8.887 12.462-13.331v-8.223c0-3.218-0.408-7.508-2.962-10.726-1.941-2.401-5.108-4.189-9.194-4.189-2.043 0-4.137 0.409-5.976 1.328-3.882 1.941-6.998 6.333-6.998 11.594 0 2.247 0.613 4.495 1.788 6.384 2.094 3.422 6.231 5.925 11.186 5.925 2.962 0 5.721-0.919 8.172-3.167v-2.247c-1.43 1.43-4.239 3.575-8.274 3.575-3.524 0-7.202-1.788-9.194-4.75-1.124-1.686-1.737-3.677-1.737-5.721 0-4.086 2.196-8.121 5.772-9.96 1.583-0.817 3.371-1.124 5.159-1.124 4.444 0 6.844 2.35 7.866 3.729 2.299 3.013 2.452 7.202 2.452 9.347v8.223c0 4.852-0.715 11.492-10.317 11.492-1.634 0-4.086-0.409-6.283-1.328l-0.613 1.841zm25.845-34.63v24.21h1.941v-24.21h-1.941zm-0.562-6.844c0 0.919 0.613 1.532 1.532 1.532s1.532-0.613 1.532-1.532-0.613-1.532-1.532-1.532-1.532 0.613-1.532 1.532zm11.134 0.204h-1.941v22.78c0 3.575 0.562 8.07 7.049 8.07h3.473v-1.839h-3.473c-1.634 0-3.218-0.153-4.29-1.839-0.868-1.379-0.817-3.065-0.817-4.495v-14.199h8.581v-1.839h-8.581v-6.639h-0.001zm34.834 30.85v-11.186c0-9.398-6.078-13.535-12.156-13.535-8.07 0-12.973 6.589-12.973 12.922 0 7.712 6.487 12.309 12.973 12.309 3.524 0 6.231-1.43 8.172-3.167v-2.247c-2.503 2.35-5.005 3.575-8.274 3.575-6.333 0-10.93-4.648-10.93-10.471 0-5.72 4.393-11.083 10.93-11.083 5.363 0 10.317 3.729 10.317 12.105v10.777h1.941v0.001zm7.764-35.753v35.753h1.941v-35.753h-1.941zm57.307 35.753v-11.186c0-9.398-6.078-13.535-12.156-13.535-8.07 0-12.973 6.589-12.973 12.922 0 7.712 6.487 12.309 12.973 12.309 3.524 0 6.231-1.43 8.172-3.167v-2.247c-2.503 2.35-5.005 3.575-8.274 3.575-6.333 0-10.93-4.648-10.93-10.471 0-5.72 4.392-11.083 10.93-11.083 5.363 0 10.317 3.729 10.317 12.105v10.777h1.941v0.001zm10.777 10.42c3.116 1.124 5.159 1.328 6.691 1.328 12.105 0 12.463-8.887 12.463-13.331v-8.223c0-3.218-0.408-7.508-2.962-10.726-1.941-2.401-5.108-4.189-9.194-4.189-2.043 0-4.137 0.409-5.976 1.328-3.882 1.941-6.998 6.333-6.998 11.594 0 2.247 0.613 4.495 1.788 6.384 2.094 3.422 6.231 5.925 11.186 5.925 2.962 0 5.721-0.919 8.172-3.167v-2.247c-1.43 1.43-4.239 3.575-8.274 3.575-3.524 0-7.202-1.788-9.194-4.75-1.124-1.686-1.737-3.677-1.737-5.721 0-4.086 2.196-8.121 5.772-9.96 1.583-0.817 3.371-1.124 5.159-1.124 4.444 0 6.844 2.35 7.866 3.729 2.299 3.013 2.452 7.202 2.452 9.347v8.223c0 4.852-0.715 11.492-10.317 11.492-1.634 0-4.086-0.409-6.282-1.328l-0.615 1.841zm47.092-29.216c-2.298-3.677-6.078-5.925-10.573-5.925-7.151 0-12.565 5.312-12.565 12.667 0 7.457 5.721 12.565 12.718 12.565 7.406 0 12.054-5.772 12.411-12.105h-2.043c-0.255 5.567-4.495 10.266-10.624 10.266-6.231 0-10.522-4.903-10.522-10.624 0-4.648 2.401-8.019 5.516-9.704 1.532-0.817 3.269-1.226 5.005-1.226 2.35 0 5.67 0.817 7.968 3.677l-15.578 10.675 1.073 1.481 17.214-11.747zm6.793 18.796h1.941v-13.689c0-3.524 0.715-6.691 4.137-8.376 1.124-0.562 2.401-0.817 3.626-0.817 1.226 0 2.503 0.255 3.626 0.817 3.422 1.685 4.137 4.852 4.137 8.376v13.689h1.941v-13.893c0-3.729-0.715-7.559-5.21-9.807-1.379-0.715-2.962-1.022-4.495-1.022-1.532 0-3.116 0.307-4.495 1.022-4.495 2.247-5.21 6.078-5.21 9.807v13.893h0.002zm40.452-24.21h-3.422c-2.758 0-7.763 0.562-10.828 5.567-1.226 1.992-1.788 4.342-1.788 6.691 0 2.298 0.562 4.597 1.788 6.538 1.532 2.401 4.648 5.414 10.828 5.414h3.422v-1.839h-3.116c-2.145 0-6.844-0.306-9.5-4.648-1.021-1.634-1.481-3.524-1.481-5.465 0-1.992 0.46-3.984 1.481-5.669 1.022-1.685 3.575-4.75 8.581-4.75h4.035v-1.839z" display="none"/></g></svg>
