<?xml version="1.0" standalone="no"?>
<!DOCTYPE svg PUBLIC "-//W3C//DTD SVG 1.1//EN" "http://www.w3.org/Graphics/SVG/1.1/DTD/svg11.dtd" >
<svg>
<metadata>
Created by FontForge 20120731 at Wed Dec 14 10:06:51 2016
 By www-data
(c) 2007 Adobe Systems Incorporated. All Rights Reserved.
</metadata>
<defs>
<font id="ArnoPro-BoldItalicCaption" horiz-adv-x="536" >
  <font-face 
    font-family="Arno Pro Caption"
    font-weight="700"
    font-style="italic"
    font-variant="small-caps"
    font-stretch="normal"
    units-per-em="1000"
    panose-1="2 2 8 2 5 5 6 9 4 3"
    ascent="669"
    descent="-331"
    x-height="427"
    cap-height="609"
    bbox="-197 -367 1705 940"
    underline-thickness="50"
    underline-position="-100"
    slope="-11"
    unicode-range="U+0020-FB06"
  />
<missing-glyph horiz-adv-x="500" 
d="M-30 0v700h500v-700h-500zM220 395l170 255h-340zM250 350l170 -255v510zM50 50h340l-170 255zM20 605v-510l170 255z" />
    <glyph glyph-name="f_f" unicode="ff" horiz-adv-x="582" 
d="M37 353q0 5 3 11q6 14 18.5 30t19.5 19h39q5 1 5 4q20 95 111 165q79 60 138 60q26 2 42.5 -5.5t16.5 -20.5q0 -14 -21 -38t-43 -39q-9 -6 -17 -2q-34 32 -48 32q-17 0 -27 -33q-14 -45 -23 -115q-2 -8 7 -8h147q5 1 5 4q28 124 122 193q27 21 67 38.5t66 17.5
q26 2 43 -5t17 -20q0 -11 -19.5 -34t-38.5 -38q-3 -3 -10 -3l-7 1q-30 29 -55 29q-18 0 -30 -31q-5 -13 -8.5 -31.5t-6 -34t-6 -40.5t-5.5 -38q-2 -8 7 -8q58 0 95 6q1 -3 -4 -20t-8 -21q-26 -21 -72 -24q-3 0 -11 -0.5t-11 -0.5q-6 0 -6 -7q-6 -37 -20 -137t-25 -157
q-24 -121 -107.5 -191.5t-165.5 -70.5q-51 0 -73 27q-19 24 -17 57q-46 -58 -98 -86t-95 -28q-31 0 -49.5 13.5t-17.5 33.5q-2 34 21 73q3 7 14 12q56 -58 103 -58q13 0 19.5 12t14.5 47q24 138 74 450q0 7 -5 7q-11 0 -33 1.5t-32 1.5zM247 353q-6 0 -6 -7
q-51 -320 -54 -336q-11 -61 -30 -92q50 -60 110 -60q25 0 40.5 20t26.5 75q14 74 38 232l23 158q0 7 -5 7z" />
    <glyph glyph-name="f_f_i" unicode="ffi" horiz-adv-x="841" 
d="M208 -210q-48 0 -70 27q-19 24 -17 57q-46 -58 -98 -86t-95 -28q-31 0 -49.5 13.5t-17.5 33.5q-2 34 21 73q3 7 14 12q56 -58 103 -58q13 0 19.5 12t14.5 47q24 138 74 450q0 7 -5 7l-68 3q-5 7 -3 11q5 13 22 29t25 20h39q4 0 5 4q9 42 40 88t73 77q28 21 67 40t64 20
q65 4 65 -27q0 -14 -20.5 -38t-41.5 -39q-12 -9 -20 -1q-3 2 -7.5 7t-6.5 6.5t-5.5 5t-5.5 4.5t-5 3t-5 2.5t-5 1t-6 0.5q-22 0 -31 -32q-11 -34 -21 -114q-2 -8 7 -8h137q5 1 5 4q26 117 124 189q30 23 76.5 41.5t92.5 18.5q78 0 104 -36q4 -6 0 -24q-5 -21 -24 -41.5
t-39 -30.5q-6 -3 -14.5 -3.5t-9.5 1.5q-45 71 -91 71q-42 0 -63 -60q-20 -60 -28 -122q-2 -8 7 -8l125 2q71 1 128 15q5 1 9 -5.5t2 -10.5q-19 -43 -33 -121q-25 -142 -29 -180q-1 -20 10 -20q18 0 54 34q5 0 6 -3q1 -7 -1.5 -25t-5.5 -23q-32 -40 -81.5 -66t-86.5 -26
q-44 0 -29 101q2 14 50 262q0 11 -5 10q-45 -8 -116 -5q-3 -3 -3 -6q-6 -37 -20 -137t-25 -157q-24 -121 -109 -191.5t-167 -70.5zM267 -142q25 0 40.5 20t26.5 75q14 74 38 232l23 158q0 7 -5 7l-143 3q-6 0 -6 -7q-51 -320 -54 -336q-11 -61 -30 -92q50 -60 110 -60z" />
    <glyph glyph-name="f_f_l" unicode="ffl" horiz-adv-x="850" 
d="M371 641q26 2 42.5 -5.5t16.5 -20.5q0 -14 -21 -37.5t-43 -38.5q-3 -3 -10 -3l-7 1q-3 2 -7.5 7t-6.5 6.5t-5.5 5t-5.5 4.5t-5 3t-5 2.5t-5 1t-6 0.5q-19 0 -29 -33q-14 -47 -23 -113q-2 -8 7 -8h147q5 1 5 4q26 119 125 192q68 52 155 53q62 0 88 -19q31 4 66 23
q5 1 11 -5t5 -9q-17 -41 -36 -138q-68 -346 -71 -392q-3 -27 13 -27q15 0 62 39q4 -4 4 -13q0 -30 -9 -43q-37 -41 -88 -67.5t-85 -26.5q-19 0 -28 27t-4 69q8 60 44.5 252.5t39.5 207.5q5 22 -8 35q-27 27 -62 27q-38 0 -60 -48q-20 -44 -33 -133q-2 -8 7 -8q59 0 90 5
q1 -3 -4 -20t-8 -21q-24 -20 -68 -23q-7 -1 -21 -1q-6 0 -6 -7q-6 -37 -20 -137t-25 -157q-24 -121 -107.5 -191.5t-165.5 -70.5q-51 0 -73 27q-19 24 -17 57q-46 -58 -98 -86t-95 -28q-31 0 -49.5 13.5t-17.5 33.5q-2 42 20 80q3 7 14 12q63 -65 104 -65q13 0 19.5 12
t14.5 47q24 138 74 450q0 7 -5 7q-11 0 -33 1.5t-32 1.5q0 5 3 11q6 14 18.5 30t19.5 19h39q5 1 5 4q24 100 111 165q77 59 138 59zM247 353q-6 0 -6 -7q-51 -320 -54 -336q-11 -61 -30 -92q50 -60 110 -60q25 0 40.5 20t26.5 75q14 74 38 232l23 158q0 7 -5 7z" />
    <glyph glyph-name="longs_t" unicode="&#x17f;t" horiz-adv-x="589" 
d="M399 662q67 0 95 -19q27 -17 34 -39t-2 -71l-22 -112q-1 -3 1.5 -5.5t4.5 -2.5q91 0 109 6q2 -9 -5 -26q-16 -23 -51 -35q-10 -2 -67 -8q-3 0 -6 -6q-33 -153 -38 -219q-3 -37 19 -37q37 0 94 65q7 -3 7 -10q0 -25 -13 -53q-26 -37 -81.5 -71.5t-105.5 -34.5
q-29 0 -43.5 25.5t-12.5 70.5q2 54 47 263q0 6 -3 6q-34 0 -66 4q0 2 -0.5 6t-0.5 6q4 7 22 26t22 21q5 1 33 1q5 0 7 5q18 67 27 118q5 31 -5 44q-20 23 -51 23q-41 0 -63 -49q-28 -63 -54 -242q-5 -30 -21.5 -144t-27.5 -172q-13 -65 -63 -122t-103.5 -85.5t-89.5 -28.5
q-31 0 -49.5 13.5t-17.5 33.5q-2 34 21 73q3 7 14 12q56 -58 103 -58q13 0 19.5 12t14.5 47q14 83 35.5 217.5t28.5 177.5q20 115 58 196t106 129q69 49 140 49z" />
    <glyph glyph-name="R_A" unicode="RA" horiz-adv-x="1225" 
d="M86 562q-2 5 1 25.5t5 22.5q20 0 81.5 -2t79.5 -2q152 2 185 2q77 0 124 -39.5t47 -103.5q0 -61 -42.5 -102.5t-106.5 -64.5q-7 -2 -3 -8q18 -32 60 -95.5t74 -100.5q15 -18 48 -24q10 -2 17 11q69 114 237 441q4 7 38 86q20 -2 56 -2q28 0 50 2q3 -25 9 -64
q3 -17 33 -177t43 -214q16 -68 30.5 -83.5t74.5 -24.5q2 -6 -0.5 -25.5t-6.5 -22.5q-12 0 -80 1.5t-81 1.5l-76 -2t-74 -1q-2 6 -1 25t5 23q42 4 58 12q11 10 11 21q0 38 -18 117q-2 7 -9 7q-21 2 -90 2q-51 0 -65 -1q-4 0 -10 -8q-38 -72 -68 -132q-2 -4 -1.5 -6.5
t1.5 -4.5t3 -1q6 -2 9 -2q5 -9 0.5 -25t-12.5 -25q-19 -4 -115 -4q-72 2 -107 13t-64 49q-23 31 -107 183q-10 21 -23 23l-22 2q-1 0 -4 -3t-3 -5q-8 -46 -24 -158q-5 -35 22 -43q12 -4 64 -13q4 -6 0 -23.5t-10 -23.5q-24 0 -80.5 2t-81.5 2q-116 0 -168 -4q-2 8 -0.5 24.5
t5.5 22.5q53 8 64 11q29 5 37 46q14 68 38 218.5t28 193.5q4 32 -20 38q-18 6 -65 12zM459 447q0 49 -26 77.5t-73 28.5q-21 0 -29 -3q-7 -4 -9 -10q-23 -129 -36 -219q-2 -8 6 -8q69 0 103 15q64 31 64 119zM917 456q-16 -35 -49 -101l-39 -78q-2 -7 3 -9q12 -1 57 -1
q51 0 58 1q5 0 5 5q-15 116 -31 183h-4z" />
    <glyph glyph-name="K_A" unicode="KA" horiz-adv-x="1243" 
d="M457 563q-1 8 2.5 23.5t6.5 22.5q24 0 64.5 -1.5t57.5 -1.5l151 3q2 -6 -1.5 -23.5t-7.5 -23.5q-48 -6 -78 -19.5t-62 -44.5t-91.5 -90t-71.5 -70l-1 -7q43 -76 134 -191q49 -61 84 -70q7 -7 13 3q61 97 145.5 243.5t115.5 205.5q9 14 40 86q20 -2 56 -2q28 0 50 2
q1 -22 8 -64q51 -300 71 -391q14 -67 28 -83t74 -25q2 -6 -1 -25.5t-7 -22.5q-12 0 -80 1.5t-81 1.5l-76 -2t-74 -1q-2 6 -0.5 25t5.5 23q46 5 58 12q12 11 12 21q0 35 -15 117q-2 7 -9 7q-21 2 -104 2q-47 0 -61 -1q-4 0 -10 -8q-55 -99 -73 -136q-6 -9 1 -11q6 -3 21 -3
q4 -6 1 -24.5t-8 -23.5q-31 -4 -128 -1t-115 12q-41 21 -63 50q-67 86 -135 202q-8 16 -15 24q0 12 7 19q61 32 183 164q40 44 40 65q0 16 -17 21q-20 7 -44 10zM89 563q-1 7 1.5 24t6.5 22q22 0 66.5 -1.5t88.5 -1.5q26 0 81 1.5t82 1.5q2 -6 0 -23.5t-6 -23.5
q-48 -8 -58 -11q-14 -5 -21 -14.5t-11 -30.5q-47 -265 -64 -402q-4 -43 22 -48q9 -3 32.5 -6t33.5 -5q2 -5 -2.5 -24.5t-8.5 -23.5q-21 0 -81 1.5t-88 1.5q-159 -3 -162 -3q-2 6 0 24.5t6 23.5q11 2 30.5 5t26.5 5q20 5 29 17t15 43q48 275 62 393q4 35 -21 42q-15 6 -60 13
zM941 456q-17 -34 -51 -99t-41 -80q-2 -7 3 -9q12 -1 61 -1q51 0 58 1q5 0 5 5q-10 78 -31 183h-4z" />
    <glyph glyph-name="T_T" unicode="TT" horiz-adv-x="1132" 
d="M119 420q-8 -1 -26.5 5t-23.5 14q24 57 53 176q3 9 9 7q53 -16 95 -16h802q72 0 122 12q8 -8 7 -14q-22 -57 -47 -179q-7 -5 -28 -5t-24 5q-5 58 -10 80q-2 16 -12.5 24.5t-20.5 8.5q-55 2 -86 0q-9 -4 -9 -11q-56 -339 -65 -430q-3 -29 19 -38q11 -5 84 -14
q3 -7 -0.5 -25t-8.5 -23q-29 0 -93 1.5t-93 1.5t-93 -1.5t-92 -1.5q-2 8 1.5 25t7.5 23q58 8 68 11q23 4 32 16t15 41q33 163 72 419q0 8 -5 8h-308q-9 -4 -9 -11q-56 -336 -65 -432q-3 -29 19 -38q11 -5 84 -14q3 -7 -0.5 -25t-8.5 -23q-29 0 -92.5 1.5t-93.5 1.5
q-29 0 -93 -1.5t-92 -1.5q-2 8 1.5 25t7.5 23q58 8 68 11q23 4 32 16t15 41q31 157 72 421q0 8 -5 8q-25 3 -69 0q-36 -2 -59 -36q-22 -31 -54 -86z" />
    <glyph glyph-name="T_h" unicode="Th" horiz-adv-x="1068" 
d="M965 427q35 0 44.5 -37.5t-1.5 -81.5q-35 -183 -36 -193q0 -19 10 -19q15 0 56 32q4 -6 4 -14q-1 -17 -6 -38q-26 -33 -76 -62t-95 -29q-19 0 -26.5 22.5t-1.5 55.5q4 29 42 220q5 14 2.5 29.5t-12.5 15.5q-17 0 -49 -30t-60 -80q-30 -54 -43 -110q-9 -41 0 -78
q-8 -10 -59.5 -29t-65.5 -19q-11 0 -14 15q-3 14 5 59q5 28 37 208t47 280q-27 -4 -62 -4h-135q-2 0 -5.5 -4t-3.5 -7q-56 -336 -65 -432q-3 -29 19 -38q11 -5 84 -14q3 -7 -0.5 -25t-8.5 -23q-30 0 -93 1.5t-93 1.5q-29 0 -93 -1.5t-92 -1.5q-2 8 1.5 25t7.5 23q58 8 68 11
q23 4 32 16t15 41q31 157 72 421q0 8 -5 8q-13 1 -42.5 1.5t-40.5 -0.5q-36 -2 -59 -36q-10 -14 -25.5 -44t-23.5 -43q-8 -1 -26.5 5t-23.5 14q24 57 53 176q3 9 9 7q53 -16 95 -16h382q32 0 72 2q0 1 2 6.5t5 11t7 8.5q15 7 60.5 18.5t62.5 13.5q2 -1 6.5 -9t3.5 -12
q-16 -32 -27 -89q-9 -44 -48 -262q2 -2 5 -1q114 134 208 134z" />
    <glyph glyph-name="f_b" unicode="fb" horiz-adv-x="807" 
d="M394 662q58 0 94 -19q28 4 64 23q5 1 11 -5t5 -9q-5 -13 -11 -34.5t-9 -37t-3 -18.5q-12 -54 -27.5 -134.5t-19.5 -101.5q-1 -2 2 -2q4 0 5 1q43 41 94.5 71.5t93.5 30.5q39 0 60 -36.5t20 -89.5q-2 -65 -30.5 -123.5t-67.5 -94.5q-110 -99 -241 -99q-43 0 -69 32.5
t-26 72.5q0 34 9 82q15 84 39.5 215.5t28.5 153.5q0 25 -10 35q-27 27 -62 27q-38 0 -60 -48q-20 -44 -33 -133q-2 -8 7 -8q59 0 90 5q1 -3 -4 -20t-8 -21q-24 -20 -68 -23q-7 -1 -21 -1q-6 0 -6 -7q-49 -309 -57 -350q-10 -50 -42 -96t-71 -75.5t-77.5 -47t-64.5 -17.5
q-31 0 -49.5 13.5t-17.5 33.5q-2 34 21 73q3 7 14 12q56 -58 103 -58q13 0 19.5 12t14.5 47q9 51 73 450q0 7 -5 7q-11 0 -32.5 1t-31.5 1q0 1 -1.5 5.5t-0.5 6.5q6 13 20.5 29.5t21.5 19.5h39q4 0 5 4q28 124 128 194q35 25 75.5 38t68.5 13zM519 50q26 0 53 30
q23 27 43.5 81t21.5 111q2 65 -33 65q-19 0 -46 -21.5t-48 -48.5q-19 -25 -32 -66t-13 -70q0 -34 13 -57.5t41 -23.5z" />
    <glyph glyph-name="f_f_b" unicode="ffb" horiz-adv-x="1093" 
d="M535 353q-6 0 -6 -7q-6 -37 -20 -137t-25 -157q-24 -123 -106.5 -192.5t-173.5 -69.5q-44 0 -66 27q-19 24 -17 57q-46 -58 -98 -86t-95 -28q-31 0 -49.5 13.5t-17.5 33.5q-2 34 21 73q3 7 14 12q56 -58 103 -58q13 0 19.5 12t14.5 47q24 138 74 450q0 7 -5 7
q-11 0 -33 1.5t-32 1.5q0 5 3 11q6 14 18.5 30t19.5 19h39q4 0 5 4q23 95 111 165q75 60 135 60q26 2 44 -5.5t18 -20.5q0 -14 -21 -38t-43 -39q-3 -3 -10 -3l-7 1q-3 2 -7.5 7t-6.5 6.5t-5.5 5t-5.5 4.5t-5 3t-5 2.5t-5 1t-6 0.5q-19 0 -29 -33q-14 -47 -23 -113
q-2 -8 7 -8h147q5 1 5 4q26 119 125 192q68 52 155 53q61 0 87 -19q31 4 66 23q5 1 11 -5t5 -9q-17 -40 -28 -90q-12 -54 -27.5 -134.5t-19.5 -101.5q-1 -2 2 -2q4 0 5 1q43 41 94.5 71.5t93.5 30.5q39 0 60 -36.5t20 -89.5q-2 -65 -31 -122.5t-69 -94.5q-51 -46 -116 -73
t-123 -27q-43 0 -69 32.5t-26 72.5q0 34 9 82q15 84 39.5 215.5t28.5 153.5q5 22 -8 35q-27 27 -62 27q-38 0 -60 -48q-20 -44 -33 -133q-2 -8 7 -8q59 0 90 5q1 -3 -4 -20t-8 -21q-24 -20 -68 -23q-7 -1 -21 -1zM247 353q-6 0 -6 -7q-51 -320 -54 -336q-11 -61 -30 -92
q50 -60 110 -60q25 0 40.5 20t26.5 75q14 74 37.5 231.5t23.5 159.5q0 7 -5 7zM805 50q26 0 53 30q23 27 43.5 81t21.5 111q2 65 -33 65q-19 0 -46 -21.5t-48 -48.5q-19 -25 -31 -66.5t-12 -71.5q0 -79 52 -79z" />
    <glyph glyph-name="f_f_h" unicode="ffh" horiz-adv-x="1097" 
d="M636 418q1 -3 -4 -20t-8 -21q-24 -20 -68 -23q-7 -1 -21 -1q-6 0 -6 -7q-6 -37 -20 -137t-25 -157q-24 -121 -109 -191.5t-167 -70.5q-48 0 -70 27q-19 24 -17 57q-46 -58 -98 -86t-95 -28q-31 0 -49.5 13.5t-17.5 33.5q-2 34 21 73q3 7 14 12q56 -58 103 -58
q13 0 19.5 12t14.5 47q24 138 74 450q0 7 -5 7q-11 0 -33 1.5t-32 1.5q0 5 3 11q6 14 18.5 30t19.5 19h39q4 0 5 4q24 100 111 165q28 22 69 41t66 19q26 2 44 -5.5t18 -20.5q0 -14 -21 -38t-43 -39q-3 -3 -10 -3l-7 1q-3 2 -7.5 7t-6.5 6.5t-5.5 5t-5.5 4.5t-5 3t-5 2.5
t-5 1t-6 0.5q-19 0 -29 -33q-14 -47 -23 -113q-2 -8 7 -8h147q5 1 5 4q26 119 125 192q70 54 155 55q58 0 87 -21q31 4 66 23q5 1 11 -5t5 -9q-17 -40 -29 -95q-10 -47 -49 -265q2 -2 5 -1q116 136 208 136q30 0 42.5 -30.5t3.5 -75.5q-39 -201 -39 -206q0 -19 10 -19
q15 0 56 32q4 -6 4 -14q-1 -17 -6 -38q-26 -33 -76 -62t-95 -29q-18 0 -25.5 23t-2.5 55q5 33 12.5 72.5t18 88t15.5 73.5q4 14 -0.5 22.5t-13.5 8.5q-17 0 -49 -30t-60 -80q-27 -47 -42 -115q-12 -53 -1 -88q-8 -10 -55.5 -27t-69.5 -21q-13 13 -13 15q-4 17 4 59
q14 83 44 245.5t46 253.5q5 22 -8 35q-27 27 -62 27q-38 0 -60 -48q-20 -44 -33 -133q-2 -8 7 -8q59 0 90 5zM247 353q-6 0 -6 -7q-51 -320 -54 -336q-11 -61 -30 -92q50 -60 110 -60q25 0 40.5 20t26.5 75q14 74 37.5 231.5t23.5 159.5q0 7 -5 7z" />
    <glyph glyph-name="f_f_j" unicode="ffj" horiz-adv-x="841" 
d="M705 666q76 0 102 -36q2 -4 2 -14t-2 -17q-5 -14 -25.5 -36t-37.5 -31q-6 -3 -14.5 -3.5t-9.5 1.5q-46 72 -91 72q-43 0 -63 -59q-20 -60 -28 -122q-2 -8 7 -8h118q94 2 137 12q5 1 11 -5t4 -10q-9 -16 -17.5 -57t-19.5 -114t-20 -119q-14 -84 -35 -131t-65 -91
q-17 -19 -58 -45t-75 -39q-7 1 -18 12.5t-15 20.5q-3 8 2 12q56 34 76.5 65t33.5 92q13 68 26 141q5 26 16.5 96.5t16.5 93.5q0 6 -3 6q-13 -3 -124 -3q-3 2 -5 0t-2 -4q-6 -37 -20 -137t-25 -157q-24 -121 -110 -191.5t-168 -70.5q-46 0 -68 27q-19 24 -17 57
q-46 -58 -98 -86t-95 -28q-31 0 -49.5 13.5t-17.5 33.5q-2 34 21 73q3 7 14 12q56 -58 103 -58q13 0 19.5 12t14.5 47q24 138 74 450q0 7 -5 7q-11 0 -33 1.5t-32 1.5q0 5 3 11q6 14 18.5 30t19.5 19h39q5 1 5 4q24 101 111 165q28 21 69 39.5t67 18.5q26 2 42 -5.5
t16 -20.5q0 -15 -18 -40t-38 -39q-3 -3 -10 -3l-7 1q-32 30 -43 33q-4 1 -8 1q-19 0 -29 -33q-14 -47 -23 -113q-2 -8 7 -8h147q5 1 5 4q26 117 125 190q30 23 77 41t93 18zM247 353q-6 0 -6 -7q-51 -320 -54 -336q-11 -61 -30 -92q50 -60 110 -60q25 0 40.5 20t26.5 75
q14 74 38 232l23 158q0 7 -5 7z" />
    <glyph glyph-name="f_f_k" unicode="ffk" horiz-adv-x="1070" 
d="M535 353q-6 0 -6 -7q-32 -224 -45 -294q-12 -63 -44 -114.5t-73 -82.5t-83.5 -48t-79.5 -17q-44 0 -66 27q-19 24 -17 57q-46 -58 -98 -86t-95 -28q-31 0 -49.5 13.5t-17.5 33.5q-2 34 21 73q3 7 14 12q56 -58 103 -58q13 0 19.5 12t14.5 47q24 138 74 450q0 7 -5 7
q-11 0 -33 1.5t-32 1.5q0 5 3 11q6 14 18.5 30t19.5 19h39q5 1 5 4q24 100 111 165q27 21 66 37.5t65 16.5q26 2 44 -5.5t18 -20.5q0 -14 -19 -35t-41 -36q-3 -3 -10 -3l-7 1q-3 2 -7.5 7t-6.5 6.5t-5.5 5t-5.5 4.5t-5 3t-5 2.5t-5 1t-6 0.5q-19 0 -29 -33q-14 -47 -23 -113
q-2 -8 7 -8h147q5 1 5 4q26 117 125 190q29 22 73 38t90 17q62 0 88 -19q31 4 66 23q5 1 11 -5t5 -9q-17 -41 -38 -148q-19 -97 -58 -273q-1 -5 3 -6t6 2q158 200 224 200q48 0 64 -28q0 -22 -2 -27q-29 -47 -56 -69q-6 4 -28.5 12t-41.5 8q-8 0 -17.5 -4.5t-19 -13.5
t-15.5 -15.5t-15 -17.5t-11 -13q-1 -1 -1 -4t1 -4q13 -8 36 -47q40 -66 59.5 -89t34.5 -23q22 0 64 46l3 -1q2 -1 4 -2.5t2 -3.5q2 -8 -0.5 -25.5t-6.5 -24.5q-74 -97 -139 -97q-35 0 -58 33q-14 20 -42 76.5t-36 65.5q-7 8 -12 1q-13 -10 -18 -28q-7 -22 -9 -40
q-5 -32 7 -59q-9 -12 -63 -32t-65 -20t-13 29q0 11 16 94q78 387 82 426q5 33 -7 45q-27 27 -70 27q-38 0 -60 -48q-20 -44 -33 -133q-2 -8 7 -8q59 0 90 5q1 -3 -4 -20t-8 -21q-24 -20 -68 -23q-7 -1 -21 -1zM247 353q-6 0 -6 -7q-51 -320 -54 -336q-11 -61 -30 -92
q50 -60 110 -60q25 0 40.5 20t26.5 75q14 74 38 232l23 158q0 7 -5 7z" />
    <glyph glyph-name="f_f_t" unicode="fft" horiz-adv-x="886" 
d="M370 640q26 2 42.5 -5.5t16.5 -20.5q0 -14 -20.5 -37t-42.5 -38q-3 -3 -10 -3l-7 1q-3 2 -7.5 7t-6.5 6.5t-5.5 5t-5.5 4.5t-5 3t-5 2.5t-5 1t-6 0.5q-19 0 -29 -33q-14 -47 -23 -113q-2 -8 7 -8h145q5 1 6 6q17 66 44 109.5t78 81.5q80 60 137 60q57 3 57 -25
q0 -11 -20.5 -36.5t-38.5 -39.5q-3 -3 -10 -3l-7 1q-30 29 -55 29q-18 0 -30 -31q-14 -40 -26 -144q-2 -8 7 -8h128q5 0 7 7q14 54 25 82q2 6 17.5 16.5t46 25t66.5 24.5q5 1 8.5 -5t1.5 -9q-13 -28 -21 -59q-12 -48 -17 -75q-1 -3 1.5 -5.5t4.5 -2.5q82 0 109 9
q2 -9 -5 -26q-15 -21 -51 -34q-16 -4 -67 -9q-3 0 -6 -6q-34 -160 -39 -221q-3 -37 19 -37q37 0 94 65q7 -3 7 -10q0 -25 -13 -53q-26 -37 -81.5 -71.5t-105.5 -34.5q-29 0 -43.5 25.5t-12.5 70.5q2 59 46 261q0 11 -5 10l-124 2q-6 0 -6 -7q-6 -37 -20 -137t-25 -157
q-24 -121 -109 -191.5t-167 -70.5q-48 0 -70 27q-19 24 -17 57q-46 -58 -98 -86t-95 -28q-31 0 -49.5 13.5t-17.5 33.5q-2 34 21 73q3 7 14 12q56 -58 103 -58q13 0 19.5 12t14.5 47q24 138 74 450q0 7 -5 7q-11 0 -33 1.5t-32 1.5q0 5 3 11q6 14 18.5 30t19.5 19h39
q5 1 5 4q21 99 111 165q27 21 69 39.5t68 18.5zM247 353q-6 0 -6 -7q-51 -320 -54 -336q-11 -61 -30 -92q50 -60 110 -60q25 0 40.5 20t26.5 75q14 74 38 232l23 158q0 7 -5 7z" />
    <glyph glyph-name="f_h" unicode="fh" horiz-adv-x="810" 
d="M393 662q69 0 95 -19q28 4 64 23q5 1 11 -5t5 -9q-12 -28 -32 -132l-42 -228q2 -2 5 -1q116 136 208 136q30 0 42.5 -30.5t3.5 -75.5q-39 -201 -39 -206q0 -19 10 -19q15 0 56 32q4 -6 4 -14q-1 -17 -6 -38q-26 -33 -76 -62t-95 -29q-18 0 -25.5 23t-2.5 55
q5 33 12.5 72.5t18 88t15.5 73.5q4 14 -0.5 22.5t-13.5 8.5q-17 0 -49 -30t-60 -80q-27 -47 -42 -115q-12 -53 -1 -88q-8 -10 -55.5 -27t-69.5 -21q-12 13 -13 15q-4 17 4 59q13 77 42.5 238.5t46.5 260.5q5 22 -8 35q-27 27 -62 27q-38 0 -60 -48q-20 -44 -33 -133
q-2 -8 7 -8q59 0 90 5q1 -3 -4 -20t-8 -21q-24 -20 -68 -23q-7 -1 -21 -1q-6 0 -6 -7q-49 -309 -57 -350q-10 -50 -42 -96t-71 -75.5t-77.5 -47t-64.5 -17.5q-31 0 -49.5 13.5t-17.5 33.5q-2 34 21 73q3 7 14 12q56 -58 103 -58q13 0 19.5 12t14.5 47q9 51 73 450q0 7 -5 7
q-11 0 -32.5 1t-31.5 1q0 1 -1.5 5.5t-0.5 6.5q6 13 20.5 29.5t21.5 19.5h39q5 1 5 4q28 124 128 194q72 51 143 51z" />
    <glyph glyph-name="f_i" unicode="fi" horiz-adv-x="561" 
d="M411 666q79 0 105 -36q2 -4 2 -14t-2 -17q-5 -14 -26 -36t-38 -31q-6 -3 -14.5 -3.5t-9.5 1.5q-47 73 -90 73q-40 0 -60 -58q-18 -54 -27 -124q-2 -8 7 -8l125 2q71 1 128 15q5 1 9 -5.5t2 -10.5q-17 -34 -34 -130q-23 -129 -27 -171q-1 -20 10 -20q18 0 54 34q5 0 6 -3
q1 -7 -1.5 -25t-5.5 -23q-32 -40 -81.5 -66t-86.5 -26q-50 0 -29 99q43 233 49 264q-1 10 -5 10q-23 -7 -125 -7q-1 0 -5 -4q-49 -309 -57 -350q-10 -50 -42 -96t-71 -75.5t-77.5 -47t-64.5 -17.5q-31 0 -49.5 13.5t-17.5 33.5q-2 34 21 73q3 7 14 12q54 -56 99 -56
q14 0 22.5 12t15.5 45q9 51 73 450q0 7 -5 7q-11 0 -32.5 1t-31.5 1q0 1 -1.5 5.5t-0.5 6.5q6 13 20.5 29.5t21.5 19.5h39q4 1 4 4q26 119 124 191q28 22 76.5 40t89.5 18z" />
    <glyph glyph-name="f_j" unicode="fj" horiz-adv-x="555" 
d="M102 350q-11 0 -32.5 1t-31.5 1q0 1 -1.5 5.5t-0.5 6.5q6 13 20.5 29.5t21.5 19.5h39q4 1 4 4q26 119 124 191q28 22 76.5 40t89.5 18q77 0 105 -38q2 -4 2 -14t-2 -17q-5 -14 -25.5 -36t-37.5 -31q-6 -3 -14.5 -3.5t-9.5 1.5q-47 73 -91 73q-40 0 -60 -58
q-14 -42 -26 -122q-2 -8 7 -8h118q94 2 137 12q5 1 11 -5t4 -10q-9 -16 -18 -60t-20.5 -120t-20.5 -121q-14 -84 -35 -131t-65 -91q-17 -19 -58 -45t-75 -39q-12 3 -27 35q-1 2 2 12q52 34 72 65t32 90q13 68 26 141q4 25 17 101t18 100q0 6 -3 6q-13 -3 -127 -3
q-5 0 -7 -10q-35 -231 -56 -344q-10 -50 -42 -96t-71 -75.5t-77.5 -47t-64.5 -17.5q-31 0 -49.5 13.5t-17.5 33.5q-2 34 21 73q3 7 14 12q56 -58 103 -58q13 0 19.5 12t14.5 47q9 51 73 450q0 7 -5 7z" />
    <glyph glyph-name="f_k" unicode="fk" horiz-adv-x="774" 
d="M393 662q67 0 93 -19q28 4 64 23q5 1 11 -5t5 -9q-12 -30 -31 -125q-13 -63 -30 -157t-27 -140q-1 -5 3 -5q3 0 4 2q158 200 224 200q48 0 64 -28q0 -22 -2 -27q-29 -47 -56 -69q-6 4 -28.5 12t-41.5 8q-8 0 -17 -4.5t-18.5 -13.5t-16 -16t-15 -17.5t-10.5 -12.5
q-1 -1 -1 -4t1 -4q13 -8 36 -47q41 -67 59.5 -89t34.5 -22q23 0 66 47q4 -4 5 -9q1 -7 -1 -26.5t-4 -23.5q-74 -97 -140 -97q-35 0 -58 33q-15 20 -42 76.5t-35 65.5q-6 7 -10 2q-16 -12 -21 -29q-6 -20 -9 -43q-5 -31 6 -56q-9 -12 -61 -31.5t-63 -19.5t-13 29q0 25 13 93
q78 387 83 436q5 22 -8 35q-27 27 -62 27q-38 0 -60 -48q-20 -44 -33 -133q-2 -8 7 -8q59 0 90 5q1 -3 -4 -20t-8 -21q-24 -20 -68 -23q-7 -1 -21 -1q-6 0 -6 -7q-49 -309 -57 -350q-10 -50 -42 -96t-71 -75.5t-77.5 -47t-64.5 -17.5q-31 0 -49.5 13.5t-17.5 33.5
q-2 34 21 73q3 7 14 12q56 -58 103 -58q13 0 19.5 12t14.5 47q9 51 73 450q0 7 -5 7q-11 0 -32.5 1t-31.5 1q0 1 -1.5 5.5t-0.5 6.5q6 13 20.5 29.5t21.5 19.5h39q5 1 5 4q28 124 128 194q72 51 143 51z" />
    <glyph glyph-name="f_l" unicode="fl" horiz-adv-x="562" 
d="M348 418q1 -3 -4 -20t-8 -21q-24 -20 -68 -23q-7 -1 -21 -1q-6 0 -6 -7q-49 -309 -57 -350q-10 -50 -42 -96t-71 -75.5t-77.5 -47t-64.5 -17.5q-31 0 -49.5 13.5t-17.5 33.5q-2 34 21 73q3 7 14 12q56 -58 103 -58q13 0 19.5 12t14.5 47q9 51 73 450q0 7 -5 7
q-11 0 -32.5 1t-31.5 1q0 1 -1.5 5.5t-0.5 6.5q6 13 20.5 29.5t21.5 19.5h39q5 1 5 4q28 124 128 194q72 51 143 51t97 -19q31 4 66 23q5 1 11 -5t5 -9q-17 -41 -36 -138q-68 -346 -71 -392q-3 -27 13 -27q15 0 62 39q4 -4 4 -13q0 -30 -9 -43q-37 -41 -88 -67.5t-85 -26.5
q-19 0 -28 27t-4 69q8 60 44.5 252.5t39.5 207.5q5 22 -8 35q-27 27 -62 27q-38 0 -60 -48q-20 -44 -33 -133q-2 -8 7 -8q59 0 90 5z" />
    <glyph glyph-name="f_r" unicode="fr" horiz-adv-x="664" 
d="M636 427q38 0 53 -31q3 -10 0 -19q-4 -16 -22.5 -49.5t-31.5 -47.5q-9 -9 -18 -7q-31 29 -52 29q-28 0 -67 -84q-20 -47 -31 -109q-11 -64 -7 -80q-20 -12 -61.5 -27t-60.5 -18q-4 1 -8.5 6.5t-5.5 9.5q2 10 28.5 142t31.5 183q2 25 -13 25q-19 0 -55.5 0.5t-68.5 0.5
q-6 0 -6 -7q-47 -297 -57 -348q-13 -65 -63 -122t-103.5 -85.5t-89.5 -28.5q-31 0 -49.5 13.5t-17.5 33.5q-2 34 21 73q3 7 14 12q56 -58 103 -58q13 0 19.5 12t14.5 47q24 138 74 450q0 7 -5 7q-14 0 -65 3q0 5 3 11q6 13 20.5 29.5t21.5 19.5h35q5 1 5 4q16 70 43 112
t79 81q27 21 67 38.5t66 17.5q26 2 43 -5t17 -20q0 -14 -18.5 -35.5t-39.5 -36.5q-3 -3 -10 -3l-7 1q-31 30 -57 30q-14 0 -27 -35q-9 -24 -27 -141q-2 -8 5 -8h128q24 0 67 4.5t44 4.5q19 0 7 -66q-1 -8 -4.5 -25.5t-5.5 -28.5t-2 -13q0 -1 2 -1t3 1q30 54 59 89
q22 25 39.5 37t42.5 12z" />
    <glyph glyph-name="f_t" unicode="ft" horiz-adv-x="605" 
d="M240 342l1 2q-47 -297 -57 -348q-13 -65 -63 -122t-103.5 -85.5t-89.5 -28.5q-31 0 -49.5 13.5t-17.5 33.5q-2 34 21 73q3 7 14 12q56 -58 103 -58q13 0 19.5 12t14.5 47q24 138 74 450q0 7 -5 7q-14 0 -65 3q0 5 3 11q6 13 20.5 29.5t21.5 19.5h35q5 1 5 4
q27 123 122 193q27 21 67 38.5t66 17.5q26 2 43 -5t17 -20q0 -15 -19 -41.5t-39 -40.5q-3 -3 -10 -3l-7 1l-7 7t-7 6.5t-6.5 6t-7 6t-6 4.5t-6 4.5t-6 3t-6 2t-5.5 0.5q-9 0 -15 -5t-12 -22q-6 -16 -10.5 -38.5t-10 -62.5t-6.5 -48q-2 -8 7 -8h128q5 0 7 7q19 73 25 89
q2 6 17 16.5t46 25t66 24.5q5 1 8.5 -5t1.5 -9q-13 -28 -21 -59q-7 -28 -17 -82q-1 -3 1.5 -5.5t4.5 -2.5q83 0 110 9q2 -9 -5 -26q-15 -21 -51 -34q-16 -4 -67 -9q-3 0 -6 -6q-34 -160 -39 -221q-3 -37 19 -37q37 0 94 65q7 -3 7 -10q0 -25 -13 -53q-26 -37 -81.5 -71.5
t-105.5 -34.5q-29 0 -43.5 25.5t-12.5 70.5q2 59 46 261q0 11 -5 10l-124 -1q-5 0 -8 -8z" />
    <glyph glyph-name="longs_b" unicode="&#x17f;b" horiz-adv-x="800" 
d="M394 662q56 0 87 -19q28 4 64 23q5 1 11 -5t5 -9q-8 -20 -24 -91q-23 -106 -46 -235q-1 -2 2 -2q4 0 5 1q43 41 94.5 71.5t93.5 30.5q39 0 60 -36.5t20 -89.5q-2 -65 -31 -122.5t-69 -94.5q-51 -46 -115.5 -73t-121.5 -27q-43 0 -69 32.5t-26 72.5q0 45 6 82q7 43 36 195
t33 174q0 23 -10 35q-21 27 -52 27q-39 0 -62 -50q-28 -64 -54 -240q-5 -30 -21.5 -144t-27.5 -172q-13 -65 -63 -122t-103.5 -85.5t-89.5 -28.5q-31 0 -49.5 13.5t-17.5 33.5q-2 34 21 73q3 7 14 12q56 -58 103 -58q13 0 19.5 12t14.5 47q14 83 35.5 217.5t28.5 177.5
q20 115 58 196t106 129q69 49 135 49zM514 50q24 0 51 30q23 27 43.5 81t21.5 111q2 65 -33 65q-19 0 -46 -21.5t-48 -48.5q-19 -25 -31 -65.5t-12 -70.5q0 -34 13 -57.5t41 -23.5z" />
    <glyph glyph-name="longs_h" unicode="&#x17f;h" horiz-adv-x="802" 
d="M393 662q58 0 84 -19q28 4 64 23q5 1 11 -5t5 -9q-9 -22 -37 -169q-6 -32 -17 -95t-17 -96q2 -2 5 -1q116 136 208 136q30 0 42.5 -30.5t3.5 -75.5q-39 -201 -39 -206q0 -19 10 -19q15 0 56 32q4 -6 4 -14q-1 -17 -6 -38q-26 -33 -76 -62t-95 -29q-18 0 -25.5 23t-2.5 55
q5 33 12.5 72.5t18 88t15.5 73.5q4 14 -0.5 22.5t-13.5 8.5q-17 0 -49 -30t-60 -80q-27 -47 -42 -115q-12 -53 -1 -88q-8 -10 -55.5 -27t-69.5 -21q-12 13 -13 15q-4 17 4 59q11 68 41 231t47 268q0 30 -7 39q-20 23 -51 23q-39 0 -62 -50q-28 -64 -54 -240
q-5 -30 -21.5 -144t-27.5 -172q-13 -65 -63 -122t-103.5 -85.5t-89.5 -28.5q-31 0 -49.5 13.5t-17.5 33.5q-2 34 21 73q3 7 14 12q56 -58 103 -58q13 0 19.5 12t14.5 47q14 83 35.5 217.5t28.5 177.5q20 115 58 196t106 129q69 49 134 49z" />
    <glyph glyph-name="longs_i" unicode="&#x17f;i" horiz-adv-x="556" 
d="M413 666q42 0 70 -12.5t35 -31.5q4 -12 -2 -26q-20 -43 -62 -65q-14 -7 -22 -1q-47 68 -94 68q-45 0 -66 -70q-20 -67 -42 -220q-5 -34 -21 -144t-27 -168q-13 -65 -63 -122t-103.5 -85.5t-89.5 -28.5q-31 0 -49.5 13.5t-17.5 33.5q-2 34 21 73q3 7 14 12q56 -58 103 -58
q13 0 19.5 12t14.5 47q14 80 35.5 217.5t27.5 173.5q21 121 53.5 192t103.5 127q80 63 162 63zM521 127q5 0 6 -3q1 -7 -1.5 -25t-5.5 -23q-32 -40 -81.5 -66t-86.5 -26q-50 0 -29 99q7 36 23 107.5t22 102.5q4 17 -7 17q-16 0 -44 -20q-7 4 -7 6q0 25 9 41q46 40 94.5 64
t74.5 24q17 0 20 -28.5t-4 -58.5q-46 -204 -47 -225q-1 -20 10 -20q18 0 54 34z" />
    <glyph glyph-name="longs_k" unicode="&#x17f;k" horiz-adv-x="765" 
d="M393 662q58 0 84 -19q28 4 64 23q5 1 11 -5t5 -9q-1 -6 -9.5 -39.5t-10.5 -41.5q-36 -179 -68 -337q-1 -5 2.5 -6t5.5 2q156 197 223 197q48 0 64 -28q3 -9 -2 -27q-5 -15 -25 -39.5t-31 -30.5q-6 5 -28.5 13t-41.5 8q-27 0 -78 -65q-4 -4 0 -6q16 -13 36 -47
q40 -66 60 -89.5t33 -23.5q23 0 65 46l2 -1q3 -1 5 -2.5t2 -3.5q1 -7 -1 -25t-4 -22q-26 -40 -68.5 -70t-74.5 -30q-33 0 -56 33q-14 20 -42.5 77t-36.5 66q-6 6 -10 2q-11 -8 -17 -30q-9 -29 -12 -48q-4 -28 6 -51q-9 -12 -61.5 -31.5t-63.5 -19.5t-13 25q0 16 12 78
q85 419 87 455q0 25 -9 36q-23 26 -50 26q-39 0 -62 -50q-28 -64 -54 -240q-5 -30 -21.5 -144t-27.5 -172q-13 -65 -63 -122t-103.5 -85.5t-89.5 -28.5q-31 0 -49.5 13.5t-17.5 33.5q-2 34 21 73q3 7 14 12q56 -58 103 -58q13 0 19.5 12t14.5 47q14 83 35.5 217.5
t28.5 177.5q20 115 58 196t106 129q69 49 134 49z" />
    <glyph glyph-name="longs_l" unicode="&#x17f;l" horiz-adv-x="558" 
d="M393 662q58 0 84 -19q28 4 64 23q5 1 11 -5t5 -9q-11 -26 -31 -138q-7 -41 -27 -144.5t-31 -164t-12 -83.5q-3 -27 13 -27q15 0 62 39q4 -4 4 -13q0 -30 -9 -43q-37 -41 -88 -67.5t-85 -26.5q-19 0 -28 27t-4 69q8 60 44.5 252.5t39.5 207.5q0 30 -7 39q-20 23 -51 23
q-39 0 -62 -50q-28 -64 -54 -240q-5 -30 -21.5 -144t-27.5 -172q-13 -65 -63 -122t-103.5 -85.5t-89.5 -28.5q-31 0 -49.5 13.5t-17.5 33.5q-2 34 21 73q3 7 14 12q56 -58 103 -58q13 0 19.5 12t14.5 47q14 83 35.5 217.5t28.5 177.5q20 115 58 196t106 129q69 49 134 49z
" />
    <glyph glyph-name="longs_longs" unicode="&#x17f;&#x17f;" horiz-adv-x="554" 
d="M151 -84l1 -1q50 -51 108 -51q30 0 43 59q14 80 33 204.5t25 160.5q21 120 53.5 193.5t98.5 129.5q26 22 62 38.5t66 16.5q26 2 43 -5t17 -20q0 -15 -18.5 -39.5t-38.5 -38.5q-3 -3 -10 -3l-7 1q-38 36 -58 36q-18 0 -28 -35q-16 -54 -44 -250q-7 -41 -19.5 -135.5
t-23.5 -150.5q-12 -65 -65 -122t-108.5 -85.5t-91.5 -28.5q-24 0 -43 12t-25 34q-5 19 0 39q-41 -50 -98.5 -82.5t-96.5 -32.5q-31 0 -49.5 13.5t-17.5 33.5q-2 34 21 73q3 7 14 12q56 -58 103 -58q13 0 19.5 12t14.5 47q14 80 37 219.5t29 175.5q20 114 49.5 174.5
t97.5 118.5q27 23 65.5 42t67.5 19q56 3 56 -25q0 -14 -19.5 -39t-39.5 -39q-3 -3 -10 -3l-7 1q-31 30 -57 30q-18 0 -28 -35q-15 -49 -39 -220q-47 -294 -51 -316q-7 -37 -31 -80z" />
    <glyph glyph-name="longs_longs_i" unicode="&#x17f;&#x17f;i" horiz-adv-x="823" 
d="M377 640q57 3 57 -26q0 -14 -19.5 -37t-40.5 -38q-3 -3 -10 -3l-7 1q-31 30 -57 30q-18 0 -28 -35q-15 -49 -39 -220q-47 -294 -51 -316q-7 -37 -31 -80l1 -1q50 -51 108 -51q30 0 43 59q13 76 32 199t26 162q22 123 53 194t102 127q28 22 76.5 41.5t88.5 19.5
q88 0 104 -44q4 -12 -2 -26q-13 -31 -60 -66q-5 -4 -12 -4t-10 3q-49 71 -95 71q-45 0 -66 -70q-22 -71 -43 -218q-7 -41 -19.5 -135.5t-23.5 -150.5q-12 -65 -65 -122t-108.5 -85.5t-91.5 -28.5q-24 0 -43 12t-25 34q-5 19 0 39q-41 -50 -98.5 -82.5t-96.5 -32.5
q-31 0 -49.5 13.5t-17.5 33.5q-2 34 21 73q3 7 14 12q56 -58 103 -58q13 0 19.5 12t14.5 47q14 80 37 219.5t29 175.5q20 114 49.5 174.5t97.5 118.5q26 23 64.5 41t68.5 18zM788 127q5 0 6 -3q1 -7 -1.5 -25t-5.5 -23q-32 -40 -81.5 -66t-86.5 -26q-50 0 -29 99
q7 36 23 107.5t22 102.5q4 17 -7 17q-16 0 -44 -20q-7 4 -7 6q0 25 9 41q46 40 94.5 64t74.5 24q17 0 20 -28.5t-4 -58.5q-46 -204 -47 -225q-1 -20 10 -20q18 0 54 34z" />
    <glyph glyph-name="longs_longs_l" unicode="&#x17f;&#x17f;l" horiz-adv-x="824" 
d="M372 636q26 2 43 -5t17 -20q0 -14 -18.5 -35.5t-39.5 -36.5q-10 -6 -17 -2q-31 30 -57 30q-18 0 -28 -35q-15 -49 -39 -220q-47 -294 -51 -316q-7 -37 -31 -80l1 -1q50 -51 108 -51q30 0 43 59q14 80 33 204.5t25 160.5q20 115 58 196t106 129q69 49 134 49q58 0 84 -19
q28 4 64 23q5 1 11 -5t5 -9q-11 -26 -31 -138q-7 -41 -27 -144.5t-31 -164t-12 -83.5q-3 -27 13 -27q15 0 62 39q4 -4 4 -13q0 -30 -9 -43q-37 -41 -88 -67.5t-85 -26.5q-19 0 -28 27t-4 69q8 60 44.5 249.5t39.5 207.5q0 30 -7 39q-23 26 -51 26q-39 0 -62 -50
q-28 -64 -54 -240q-7 -41 -19.5 -135.5t-23.5 -150.5q-12 -65 -65 -122t-108.5 -85.5t-91.5 -28.5q-24 0 -43 12t-25 34q-5 19 0 39q-41 -50 -98.5 -82.5t-96.5 -32.5q-31 0 -49.5 13.5t-17.5 33.5q-2 34 21 73q3 7 14 12q56 -58 103 -58q13 0 19.5 12t14.5 47
q14 80 37 219.5t29 175.5q20 114 49.5 174.5t97.5 118.5q26 22 62 38.5t66 16.5z" />
    <glyph glyph-name="t_t" unicode="tt" horiz-adv-x="638" 
d="M83 412q5 1 33 1q5 0 7 5q17 65 21 74q5 14 42.5 38t89.5 39q5 1 8.5 -5t1.5 -9q-13 -27 -20 -56q-7 -27 -17 -80q0 -6 4 -6h163q8 0 10 5q4 14 11.5 47.5t12.5 46.5q5 14 42.5 38t89.5 39q5 1 8.5 -5t1.5 -9q-13 -27 -20 -56q-5 -19 -20 -100q0 -6 4 -6q94 0 112 6
q2 -9 -5 -26q-16 -23 -51 -35q-10 -2 -67 -8q-3 0 -6 -6q-33 -153 -38 -219q-3 -37 19 -37q37 0 94 65q7 -3 7 -10q0 -27 -15 -59q-25 -36 -79.5 -68t-105.5 -32q-29 0 -43.5 25.5t-12.5 70.5q2 54 47 263q0 6 -3 6l-167 1q-3 0 -6 -6q-33 -153 -38 -219q-3 -37 19 -37
q36 0 84 55q7 -3 7 -10q0 -27 -15 -59q-25 -35 -74.5 -62.5t-100.5 -27.5q-29 0 -43.5 25.5t-12.5 70.5q2 54 47 263q0 6 -3 6q-34 0 -66 4q0 2 -0.5 6t-0.5 6q4 7 22 26t22 21z" />
    <glyph glyph-name="u0162_u0068" unicode="&#x162;h" horiz-adv-x="1068" 
d="M965 427q35 0 44.5 -37.5t-1.5 -81.5q-35 -183 -36 -193q0 -19 10 -19q15 0 56 32q4 -6 4 -14q-1 -17 -6 -38q-26 -33 -76 -62t-95 -29q-19 0 -26.5 22.5t-1.5 55.5q4 29 42 220q5 14 2.5 29.5t-12.5 15.5q-17 0 -49 -30t-60 -80q-30 -54 -43 -110q-9 -41 0 -78
q-8 -10 -59.5 -29t-65.5 -19q-11 0 -14 15q-3 14 5 59q5 28 37 208t47 280q-27 -4 -62 -4h-135q-2 0 -5.5 -4t-3.5 -7q-56 -336 -65 -432q-3 -29 19 -38q11 -5 84 -14q3 -7 -0.5 -25t-8.5 -23q-30 0 -93 1.5t-93 1.5q-29 0 -93 -1.5t-92 -1.5q-2 8 1.5 25t7.5 23q58 8 68 11
q23 4 32 16t15 41q31 157 72 421q0 8 -5 8q-13 1 -42.5 1.5t-40.5 -0.5q-36 -2 -59 -36q-10 -14 -25.5 -44t-23.5 -43q-8 -1 -26.5 5t-23.5 14q24 57 53 176q3 9 9 7q53 -16 95 -16h382q32 0 72 2q0 1 2 6.5t5 11t7 8.5q15 7 60.5 18.5t62.5 13.5q2 -1 6.5 -9t3.5 -12
q-16 -32 -27 -89q-9 -44 -48 -262q2 -2 5 -1q114 134 208 134zM315 -31q25 0 43.5 -27t14.5 -65q-7 -54 -50 -88t-109 -44q-5 5 -9.5 21.5t-3.5 21.5q48 17 63 29.5t16 32.5q1 16 -12.5 27t-46.5 21q-2 14 4 28q11 13 41 28t49 15z" />
    <glyph glyph-name="Tcaron_h" unicode="&#x164;h" horiz-adv-x="1068" 
d="M965 427q35 0 44.5 -37.5t-1.5 -81.5q-35 -183 -36 -193q0 -19 10 -19q15 0 56 32q4 -6 4 -14q-1 -17 -6 -38q-26 -33 -76 -62t-95 -29q-19 0 -26.5 22.5t-1.5 55.5q4 29 42 220q5 14 2.5 29.5t-12.5 15.5q-17 0 -49 -30t-60 -80q-30 -54 -43 -110q-9 -41 0 -78
q-8 -10 -59.5 -29t-65.5 -19q-11 0 -14 15q-3 14 5 59q5 28 37 208t47 280q-27 -4 -62 -4h-135q-2 0 -5.5 -4t-3.5 -7q-56 -336 -65 -432q-3 -29 19 -38q11 -5 84 -14q3 -7 -0.5 -25t-8.5 -23q-30 0 -93 1.5t-93 1.5q-29 0 -93 -1.5t-92 -1.5q-2 8 1.5 25t7.5 23q58 8 68 11
q23 4 32 16t15 41q31 157 72 421q0 8 -5 8q-13 1 -42.5 1.5t-40.5 -0.5q-36 -2 -59 -36q-10 -14 -25.5 -44t-23.5 -43q-8 -1 -26.5 5t-23.5 14q24 57 53 176q3 9 9 7q53 -16 95 -16h382q32 0 72 2q0 1 2 6.5t5 11t7 8.5q15 7 60.5 18.5t62.5 13.5q2 -1 6.5 -9t3.5 -12
q-16 -32 -27 -89q-9 -44 -48 -262q2 -2 5 -1q114 134 208 134zM428 649q-12 -6 -30 -9q-9 10 -34 33t-56 50.5t-36 32.5q1 5 11.5 20t14.5 15q5 0 57 -22.5t64 -29.5q7 -3 14 0q21 10 80.5 31t64.5 21t11 -16.5t4 -21.5q-10 -6 -82 -50.5t-83 -53.5z" />
    <glyph glyph-name="gamma_gamma" unicode="&#x3b3;&#x3b3;" horiz-adv-x="841" 
d="M471 298q-42 0 -88 -54t-76 -117t-47 -120q-1 -2 -2.5 -7t-1.5 -10l-1 -4l-7 -42q-8 -43 -18 -92t-17 -63q-4 -8 -27 -8q-22 0 -59.5 22.5t-37.5 42.5q0 24 73 155q9 15 26 53q16 33 16 93q0 70 -22.5 106.5t-60.5 36.5q-51 0 -100 -44q0 1 -2 2.5t-3 4t-1 4.5
q-2 27 6 45q33 57 83 91t87 34q36 0 64 -30t28 -89q0 -70 -20 -157q0 -1 1 -2q4 -1 6 2q128 276 264 276q103 0 103 -126q0 -53 -17 -138q0 -1 1 -2q4 -1 6 2q62 142 121 219q34 45 68 45q13 0 37 -13t32 -25q3 -20 -5 -26q-66 -24 -151 -136t-111 -195q-2 -8 -4 -22
q-1 -4 -7 -49.5t-12.5 -90t-10.5 -54.5t-29 -10q-22 0 -56.5 23.5t-32.5 42.5q3 23 67 156q18 39 19 46q34 224 -81 224z" />
    <glyph glyph-name="u03BB_u03BB" unicode="&#x3bb;&#x3bb;" horiz-adv-x="826" 
d="M660 -16q-36 0 -46 54q-4 25 -7.5 83t-5 98.5t-1.5 50.5q-1 4 -6 0q-60 -115 -105 -175q-21 -29 -33 -42.5t-34 -33t-47.5 -28t-56.5 -8.5q-75 0 -83 109q-11 106 -11 183q-1 1 -3 0.5t-3 -1.5q-12 -16 -23.5 -34t-23.5 -42.5t-19 -39t-21.5 -47.5t-18.5 -43
q-16 -40 -21 -78q-1 -3 -23 -8q-23 0 -48.5 19t-26.5 31q-1 16 46 87q21 33 87.5 127t83.5 120q6 11 6 21q2 28 -5 69q-6 39 -22.5 59t-48.5 20q-34 0 -70 -20q-6 6 -6 8q-1 7 3.5 21t7.5 18q28 33 65 48.5t65 15.5q34 0 56 -15.5t40 -64.5t26 -136q16 -166 25 -239
q7 -45 15 -60t25 -15q20 0 52 46q61 77 140 239q8 14 8 26q1 19 -4 51q-8 59 -29.5 80.5t-59.5 21.5q-33 0 -75 -19q-6 6 -6 9q0 16 9 34q35 36 76 54t69 18q59 0 88.5 -45.5t41.5 -175.5q7 -60 13.5 -144.5t10.5 -119.5q8 -71 30 -71q19 0 55 36q1 0 3.5 -5t2.5 -7
q2 -33 -11 -50q-33 -44 -72.5 -67t-73.5 -23z" />
    <glyph glyph-name=".notdef" horiz-adv-x="500" 
d="M-30 0v700h500v-700h-500zM220 395l170 255h-340zM250 350l170 -255v510zM50 50h340l-170 255zM20 605v-510l170 255z" />
    <glyph glyph-name=".null" horiz-adv-x="0" 
 />
    <glyph glyph-name="nonmarkingreturn" horiz-adv-x="333" 
 />
    <glyph glyph-name="space" unicode=" " horiz-adv-x="210" 
 />
    <glyph glyph-name="exclam" unicode="!" horiz-adv-x="359" 
d="M312 594q23 0 38 -12q-1 -18 -51 -174.5t-64 -185.5q-6 -5 -26 -12.5t-31 -6.5q-14 0 -17 9q-2 39 -3.5 162t1.5 170q-1 6 7 14.5t17 12.5q22 11 63 17t66 6zM191 141q32 0 51 -19q16 -17 16 -49q0 -39 -28 -66q-24 -21 -66 -21q-36 0 -52 22q-14 18 -14 44q0 43 33 69
q27 20 60 20z" />
    <glyph glyph-name="quotedbl" unicode="&#x22;" horiz-adv-x="418" 
d="M124 629q9 13 53 33t53 20q8 0 14 -6q1 -5 1 -18q-1 -36 -23 -105.5t-49 -109.5q-28 -41 -61 -62q-7 -1 -21.5 0t-15.5 4q13 40 31 119.5t18 124.5zM312 629q9 13 53 33t53 20q8 0 14 -6q1 -5 1 -18q-1 -37 -22.5 -105t-48.5 -108q-29 -44 -62 -64q-7 -1 -21.5 0t-15.5 4
q13 40 31 119.5t18 124.5z" />
    <glyph glyph-name="numbersign" unicode="#" horiz-adv-x="527" 
d="M359 455l41 137q3 4 53 14q4 0 7 -3l-43 -144q-2 -4 3 -4q77 0 107 6q1 -2 -4.5 -22.5t-7.5 -23.5q-26 -25 -51 -35.5t-66 -10.5q-4 0 -7 -5l-30 -99q0 -5 4 -5q69 0 105 6q1 -3 -4.5 -23t-8.5 -25q-48 -48 -118 -49q-4 0 -4 -5q-5 -19 -13 -48.5t-17 -59.5t-11 -39
q-2 -3 -9 -3q-2 0 -20.5 9.5t-19.5 11.5q4 12 37 134h-96q-5 0 -5 -4q-36 -122 -45 -148q-2 -4 -9 -4q-5 2 -21.5 11t-17.5 11q6 28 20 74.5t17 59.5q-81 0 -96 5l31 92q42 -5 91 -5l30 108q-73 0 -93 4l33 86q52 -2 84 -2l35 125q0 1 25 7.5t28 6.5q6 0 8 -5l-37 -128
q0 -6 2 -7zM337 369h-92q-6 0 -9 -6l-29 -96q0 -6 3 -6h95z" />
    <glyph glyph-name="dollar" unicode="$" horiz-adv-x="537" 
d="M273 384q3 -3 5 2l33 153q0 3 -3 3q-44 -2 -66 -25.5t-22 -57.5q0 -45 53 -75zM283 204l-30 -146q0 -5 4 -5q37 1 64.5 20.5t27.5 56.5q-1 46 -59 77q-1 1 -4 -0.5t-3 -2.5zM171 -86l18 82q0 6 -4 6q-39 5 -130 29q-18 27 -15 148q1 3 23.5 9.5t27.5 6.5
q23 -75 44.5 -100t63.5 -36q3 -2 6 2l34 164q-1 7 -3 8q-69 39 -104 78t-35 98q0 84 61 129.5t160 50.5q1 0 5 4l15 68q3 2 19.5 5t21.5 3q7 0 10 -1l-19 -75q0 -4 3 -4q32 -3 87 -11q7 -1 26.5 -4t26.5 -4q-17 -50 -38 -146q-2 -2 -25.5 -3t-24.5 1q4 62 -9 85.5t-51 33.5
q-3 0 -4 -3l-37 -171q1 -4 4 -7q85 -49 113 -76q42 -41 42 -93q0 -86 -65 -135.5t-173 -54.5q-1 0 -5 -4l-16 -77q-20 -9 -46 -9q-6 0 -7 3z" />
    <glyph glyph-name="percent" unicode="%" horiz-adv-x="812" 
d="M290 600q56 0 86 -35.5t30 -86.5q0 -71 -27 -117.5t-61 -70.5q-56 -40 -127 -40q-54 0 -82 33.5t-29 89.5q0 118 77 180q56 47 133 47zM654 343q55 0 85.5 -36t30.5 -90q0 -66 -27 -113t-60 -70q-58 -41 -130 -41q-51 0 -79.5 33t-29.5 88q0 120 76 181q57 48 134 48z
M139 -3q90 106 263.5 314t263.5 314q4 2 59 9q6 -3 6 -12q-27 -27 -273.5 -323t-286.5 -341h-9q-3 2 -12.5 18.5t-10.5 20.5zM621 295q-34 0 -51.5 -50.5t-19.5 -104.5q-1 -50 12 -72.5t32 -22.5q32 0 50.5 47t20.5 99q3 46 -8 75t-36 29zM257 551q-34 0 -51.5 -50.5
t-19.5 -104.5q-1 -50 11.5 -72t31.5 -22q32 0 50.5 46.5t20.5 98.5q3 46 -7.5 75t-35.5 29z" />
    <glyph glyph-name="ampersand" unicode="&#x26;" horiz-adv-x="777" 
d="M537 338q28 0 68.5 -6t61.5 -6q35 0 35 27q0 34 -33 70q1 5 37 30t48 27q11 -4 18.5 -26.5t7.5 -45.5q0 -55 -43 -104t-98 -58q-36 -126 -124.5 -204.5t-203.5 -78.5q-116 0 -176 74t-60 179q0 110 81 188q33 31 68 50t55 19q40 0 62.5 -24t29.5 -53l2 -2q40 54 40 122
q0 37 -9 65q10 12 49 37t54 28q14 -21 14 -56q0 -65 -54 -155t-173 -228q-42 -48 -55 -60q-4 -4 0 -12q18 -31 57.5 -51t95.5 -20q42 0 72.5 15.5t46.5 40t23 50.5t7 53q0 12 -3 18q-7 15 -29 15q-56 0 -99 -89q-5 -5 -11 -2q-19 9 -26 27q15 54 61 100t103 46zM231 399
q-46 0 -46 -99q0 -64 20 -100q5 -8 9 -3q35 35 52 61q13 20 13 51q-1 43 -15 66.5t-33 23.5z" />
    <glyph glyph-name="quotesingle" unicode="'" horiz-adv-x="231" 
d="M121 626q10 14 54.5 35t58.5 21q8 0 14 -6q2 -9 1 -18q-2 -35 -24 -105.5t-53 -112.5q-13 -17 -34 -35.5t-30 -21.5q-30 -3 -33 5q18 46 32 117t14 121z" />
    <glyph glyph-name="parenleft" unicode="(" horiz-adv-x="457" 
d="M93 207q0 178 98.5 329.5t240.5 233.5q4 0 14.5 -16t9.5 -21q-106 -84 -179 -227t-74 -309q-1 -204 102 -351q1 -5 -14 -20t-21 -16q-23 14 -51 46.5t-58 81.5t-49.5 121t-18.5 148z" />
    <glyph glyph-name="parenright" unicode=")" horiz-adv-x="438" 
d="M379 373q0 -178 -98.5 -329.5t-240.5 -233.5q-4 0 -16 16.5t-11 21.5q107 84 181 227t75 308q1 201 -102 351q-1 5 14 20t21 16q23 -14 51 -46.5t58 -81.5t49.5 -121t18.5 -148z" />
    <glyph glyph-name="asterisk" unicode="*" horiz-adv-x="432" 
d="M306 537q109 31 131 39q4 -1 7 -9t2 -10q-6 -15 -19 -30.5t-22 -20.5q-49 -19 -87 -28q67 -67 97 -84q2 -1 1 -6.5t-3 -8.5q-14 -9 -38 -8.5t-34 7.5q-17 10 -70 53q-24 -73 -32 -120q-1 -2 -10 -2q-20 2 -33 23t-8 42q5 24 18 73q-98 -24 -128 -29q-3 1 -6 7t-3 9
q26 55 32 56q5 1 39.5 8.5t52.5 12.5q-37 39 -74 84q-4 6 -3.5 15t5.5 13q10 6 30 12t30 5q28 -44 61 -80q15 55 34 93q6 7 27 11t50 0q1 -1 2 -4.5t0 -5.5q-8 -8 -49 -117z" />
    <glyph glyph-name="plus" unicode="+" horiz-adv-x="618" 
d="M568 283q0 -12 -8.5 -39.5t-13.5 -28.5t-36 -1h-78t-78 -1q-3 0 -5.5 -4t-2.5 -6v-81.5t0.5 -80.5t-0.5 -41q-1 -5 -32.5 -13.5t-41.5 -8.5q-9 0 -9 4v42.5v83.5v105q-83 -1 -210 -1q-5 2 -5 11q1 12 7 40.5t9 34.5q7 -2 129 -2h70v66q0 112 -2 144q7 3 40 8.5t39 5.5
t6 -39v-40.5v-67.5v-66q0 -11 7 -11h211q4 -3 4 -13z" />
    <glyph glyph-name="comma" unicode="," horiz-adv-x="271" 
d="M-32 -154q-6 6 -2 11q107 82 107 155q0 34 -29 80q9 12 47.5 40t54.5 35q20 9 29 0q22 -20 22 -73q0 -78 -59 -154.5t-122 -104.5q-6 -3 -23 1t-25 10z" />
    <glyph glyph-name="hyphen" unicode="-" horiz-adv-x="334" 
d="M70 254q172 0 230 8q8 -5 5 -16q-3 -16 -20 -43t-22 -30q-12 -5 -99 -8.5t-123 -3.5q-4 6 -4 15q2 14 15.5 46t17.5 32z" />
    <glyph glyph-name="period" unicode="." horiz-adv-x="271" 
d="M132 149q30 0 51 -21q16 -17 16 -52q0 -42 -29 -69q-24 -21 -66 -21q-34 0 -50 22q-15 20 -15 48q0 47 33 73q27 20 60 20z" />
    <glyph glyph-name="slash" unicode="/" horiz-adv-x="482" 
d="M504 676q5 -2 5 -11q-12 -28 -194.5 -356.5t-230.5 -396.5q-6 -9 -34 -18t-44 -11q-8 3 -8 10q63 101 220 383t210 382q2 4 34.5 11t41.5 7z" />
    <glyph glyph-name="zero" unicode="0" horiz-adv-x="527" 
d="M338 598q95 0 140.5 -60t45.5 -158q0 -109 -42.5 -213t-126.5 -150q-52 -29 -129 -29q-97 0 -142.5 60t-43.5 161q2 100 39 197.5t111 147.5q66 44 148 44zM321 549q-40 0 -67 -44q-69 -111 -71 -341q-1 -57 16.5 -91t49.5 -34q31 0 56 30q37 49 57 153t20 216
q0 111 -61 111z" />
    <glyph glyph-name="one" unicode="1" horiz-adv-x="527" 
d="M450 45q2 -4 -2 -25t-9 -24q-31 0 -95 2t-94 2q-29 0 -88 -2t-87 -2q-3 5 0 25t8 24q48 6 72 11q23 5 33 18t16 39q11 49 31 177q26 162 26 168q1 11 -5.5 19.5t-14.5 10.5q-32 5 -67 8q-3 5 2.5 25t9.5 23q124 11 226 54q4 1 11.5 -4t7.5 -8q-16 -55 -32 -155
q-42 -277 -45 -312q-7 -56 22 -64q36 -7 74 -10z" />
    <glyph glyph-name="two" unicode="2" horiz-adv-x="527" 
d="M238 485q-32 0 -60.5 -13.5t-69.5 -51.5q-7 -1 -18 15.5t-10 23.5q109 139 229 139q67 0 112.5 -46.5t45.5 -111.5q0 -60 -26 -108.5t-94 -107.5q-80 -69 -123 -100q-1 0 -2 -2t-0.5 -4t1.5 -2q15 -2 71 -3t87 1q19 2 37 17.5t45 59.5q5 3 22.5 -7t19.5 -16
q-48 -128 -72 -157q-3 -5 -7.5 -8t-11.5 -4t-12 -1.5t-14.5 -0.5h-14.5q-41 -2 -161 0.5t-124 2.5q-12 0 -35.5 -0.5t-29.5 -0.5q-2 4 -0.5 20t3.5 20q113 70 207 162t94 192q0 39 -23.5 65.5t-65.5 26.5z" />
    <glyph glyph-name="three" unicode="3" horiz-adv-x="527" 
d="M331 598q65 0 105.5 -39t40.5 -92q0 -79 -114 -133q-1 0 -1 -1t1 -2q56 -21 92 -62t36 -91q0 -115 -113 -179q-72 -41 -167 -41q-78 0 -129 32q-20 12 -28 34q-14 36 -12 96q3 5 19 12t23 8q39 -80 73 -102q39 -26 81 -26q46 0 77.5 32t31.5 88q1 50 -36 84t-101 34
q-13 0 -32 -2q-1 6 10.5 35.5t16.5 31.5q138 20 138 103q0 34 -21.5 56.5t-63.5 22.5q-52 0 -121 -53q-5 -1 -13 17.5t-6 24.5q31 31 55 51t68.5 40.5t89.5 20.5z" />
    <glyph glyph-name="four" unicode="4" horiz-adv-x="527" 
d="M511 157h-93q-6 0 -6 -6l-26 -171q-64 0 -147 -11l32 180q0 6 -4 6h-250q-2 4 4 29t10 29q37 42 112 122t157 167.5t84 89.5q2 0 19 -1t28 -1q12 0 29 1.5t20 1.5q-25 -134 -55 -342q2 -4 5 -4l104 4q-20 -78 -23 -94zM142 243l140 2q5 0 5 5l40 206h-4q-25 -25 -87 -95
t-95 -112q0 -6 1 -6z" />
    <glyph glyph-name="five" unicode="5" horiz-adv-x="527" 
d="M468 603q2 0 12 -8t9 -11q-6 -21 -22 -50t-29 -43q-24 -27 -59 -27q-28 -1 -72 3t-51 4q-8 0 -13 -7q-15 -23 -23 -47q-5 -7 3 -12q149 -69 189 -98q81 -57 81 -137q0 -66 -42 -116t-98 -72.5t-112 -22.5q-66 0 -112 22t-68 55q-9 15 -9 32q0 9 14 38.5t21 38.5
q12 9 23 9q68 -133 170 -133q83 0 83 82q0 51 -69 97q-22 16 -91 54t-78 48q-2 5 0 23t4 24q24 60 60 131t55 95q4 5 14 11t13 6q9 0 33.5 -2t52.5 -3t55 -1q30 0 56 17z" />
    <glyph glyph-name="six" unicode="6" horiz-adv-x="527" 
d="M523 585q-181 -87 -257 -207q-1 -1 0.5 -3.5t2.5 -1.5q59 31 108 31q55 0 97 -45t42 -115q0 -165 -150 -235q-49 -23 -110 -23q-99 0 -149 56.5t-50 141.5q0 148 127 271t322 175q5 -3 12.5 -22t4.5 -23zM285 329q-17 0 -38 -11q-13 -6 -23 -26q-21 -45 -21 -115
q0 -62 21 -98t59 -36q39 0 66.5 47.5t27.5 110.5q0 128 -92 128z" />
    <glyph glyph-name="seven" unicode="7" horiz-adv-x="527" 
d="M562 590q3 -1 5.5 -11t1.5 -14q-27 -67 -177 -308.5t-170 -285.5l-10 -8q-36 4 -57 23q-2 5 -1.5 16t1.5 15q24 40 141.5 214t141.5 223q0 7 -3 7q-182 0 -220 -3q-8 -1 -15 -3t-13.5 -7t-11.5 -9t-12.5 -13.5t-12 -15.5t-14.5 -20.5t-16 -22.5q-6 -3 -23.5 7.5
t-23.5 17.5q64 170 71 201q26 -7 89 -7h207q75 0 122 4z" />
    <glyph glyph-name="eight" unicode="8" horiz-adv-x="527" 
d="M335 598q77 0 121.5 -39.5t44.5 -89.5q0 -44 -23 -72t-91 -69q-5 -2 0 -6q61 -44 81.5 -75.5t22.5 -74.5q0 -74 -72 -129t-173 -55q-98 0 -148 42.5t-50 94.5q0 38 27 68.5t113 82.5q5 3 1 7q-41 32 -59.5 62t-19.5 67q-1 88 81 145q63 41 144 41zM310 548
q-33 0 -54 -23.5t-21 -55.5q-1 -30 23 -56t79 -59q6 -3 8 -1q47 40 47 102q1 38 -22.5 65.5t-59.5 27.5zM274 41q36 0 59 22t23 55q0 30 -26.5 59.5t-91.5 71.5q-4 3 -7 0q-33 -29 -46 -52t-12 -55q1 -42 30 -71.5t71 -29.5z" />
    <glyph glyph-name="nine" unicode="9" horiz-adv-x="527" 
d="M94 -47q-6 3 -14 22t-4 26q191 89 272 233q1 3 -1 4.5t-5 -0.5q-79 -47 -129 -47q-67 0 -107 49t-40 116q0 71 36.5 126.5t100.5 87.5q60 28 124 28q95 0 147 -62.5t52 -149.5q0 -147 -120.5 -267t-311.5 -166zM293 544q-36 0 -61.5 -44t-25.5 -100q0 -61 24.5 -92
t68.5 -31q25 0 55 18q10 6 14 17q14 33 14 90q0 142 -89 142z" />
    <glyph glyph-name="colon" unicode=":" horiz-adv-x="336" 
d="M209 395q32 0 51 -19q16 -17 16 -49q0 -39 -28 -66q-24 -21 -66 -21q-36 0 -52 22q-14 18 -14 44q0 43 33 69q27 20 60 20zM161 141q32 0 51 -19q16 -17 16 -49q0 -39 -28 -66q-24 -21 -66 -21q-35 0 -52 22q-14 18 -14 44q0 43 33 69q27 20 60 20z" />
    <glyph glyph-name="semicolon" unicode=";" horiz-adv-x="336" 
d="M207 395q32 0 51 -19q16 -17 16 -49q0 -39 -28 -66q-24 -21 -66 -21q-36 0 -52 22q-14 18 -14 44q0 43 33 69q27 20 60 20zM5 -154q-1 1 -2 5t0 6q107 82 107 155q0 34 -29 80q9 12 47.5 40t54.5 35q20 9 29 0q22 -20 22 -73q0 -78 -59 -154.5t-122 -104.5q-6 -3 -23 1
t-25 10z" />
    <glyph glyph-name="less" unicode="&#x3c;" horiz-adv-x="618" 
d="M521 428q-12 -9 -75 -42t-147 -75t-102 -52q-2 -1 -2 -3t0.5 -3.5t1.5 -1.5q11 -6 96 -47.5t162.5 -81.5t89.5 -52q3 -3 -7.5 -31.5t-16.5 -40.5q-2 -4 -9 -4q-36 26 -200 110.5t-240 114.5q-2 5 4.5 33.5t9.5 31.5q84 40 252 127t194 108q6 0 8 -6q0 -14 -6.5 -47
t-12.5 -38z" />
    <glyph glyph-name="equal" unicode="=" horiz-adv-x="618" 
d="M548 317l-494 -3q-4 2 -4 11q1 12 6.5 41t7.5 34q7 -2 129 -2h375q2 -6 0 -13q-13 -67 -20 -68zM548 113l-495 -3q-3 6 -3 11q1 8 7 39t8 36q7 -2 128 -2h375q2 -6 0 -13q-13 -67 -20 -68z" />
    <glyph glyph-name="greater" unicode="&#x3e;" horiz-adv-x="618" 
d="M97 85q12 9 75 42t147 75t102 52q2 1 2 3t-0.5 3.5t-1.5 1.5q-11 6 -96 47.5t-162.5 81.5t-89.5 52q-3 3 7.5 31.5t16.5 40.5q2 4 9 4q36 -26 200 -110.5t240 -114.5q2 -5 -4.5 -33.5t-9.5 -31.5q-84 -40 -252 -127t-194 -108q-6 0 -8 6q0 14 6.5 47t12.5 38z" />
    <glyph glyph-name="question" unicode="?" horiz-adv-x="437" 
d="M253 301q0 -26 22 -48q4 -7 -5 -16q-6 -6 -40 -19t-41 -13q-13 0 -24 3q-27 10 -40.5 31t-11.5 41q4 29 16 36q5 3 52 25.5t64 31.5q30 16 30 38q0 58 -113 86l-27 6q-14 3 -10 23q1 9 18.5 35t32.5 35q18 12 38 12q82 0 137 -48q53 -47 53 -112q0 -43 -28 -65
q-21 -17 -103 -58q-17 -9 -20 -24zM203 141q32 0 51 -19q16 -17 16 -49q0 -39 -28 -66q-24 -21 -66 -21q-36 0 -52 22q-14 18 -14 44q0 43 33 69q27 20 60 20z" />
    <glyph glyph-name="at" unicode="@" horiz-adv-x="910" 
d="M664 71q45 0 87 52t42 133q0 76 -25 134t-67 91t-92.5 49t-106.5 16q-42 0 -87 -13.5t-91 -45.5t-81.5 -77.5t-58 -115.5t-22.5 -154q0 -128 52 -206.5t122 -94.5q59 -14 96 -10q4 -4 0 -21q-31 -31 -105 -31q-20 0 -50 10.5t-67.5 37.5t-69 65t-53 101.5t-21.5 139.5
q0 193 134 330q145 151 350 151q76 0 139 -28.5t101.5 -73.5t59.5 -97.5t21 -104.5q0 -82 -30 -147t-77.5 -102t-101.5 -56.5t-108 -19.5q-33 0 -45 21.5t-10 46.5q4 43 6 56q0 2 -2.5 3.5t-3.5 -0.5q-36 -49 -91.5 -87t-90.5 -38q-36 0 -53 39q-11 29 -11 70q0 61 27.5 130
t65.5 107q33 36 91 65t126 29q62 0 125 -18q-13 -33 -21 -74q-36 -184 -36 -207q0 -55 33 -55zM416 105q43 0 92 88q13 24 33 108q3 14 14 42q-20 13 -58 13q-28 0 -47.5 -12.5t-37.5 -49.5q-26 -60 -27 -122q-1 -34 8.5 -50.5t22.5 -16.5z" />
    <glyph glyph-name="A" unicode="A" horiz-adv-x="642" 
d="M-35 45q57 7 77.5 20t50.5 60q81 131 218 397q13 23 38 86q20 -2 56 -2q28 0 50 2q2 -22 9 -64q1 -8 30.5 -172.5t42.5 -218.5q16 -68 30 -83.5t74 -24.5q5 -3 2 -24.5t-9 -23.5q-3 0 -52 1.5t-109 1.5q-33 0 -68 -1t-56 -1.5t-26 -0.5q-5 6 -4 25t8 23q43 4 58 12
q11 10 11 21q0 42 -17 117q-2 7 -9 7q-21 2 -90 2q-50 0 -64 -1q-4 0 -10 -8q-45 -83 -50 -109q-3 -26 23 -32q19 -5 51 -9q5 -5 0.5 -25t-10.5 -23q-23 0 -67.5 1.5t-67.5 1.5q-19 0 -65 -1.5t-61 -1.5q-6 5 -3 25t9 23zM335 456q-16 -34 -48 -98.5t-40 -80.5q-2 -7 3 -9
q12 -1 55 -1q51 0 58 1q5 0 5 5q-17 126 -29 183h-4z" />
    <glyph glyph-name="B" unicode="B" horiz-adv-x="651" 
d="M1 46q64 9 74 12q21 6 30 47q9 43 34 192q20 115 32 210q2 20 -3 29.5t-23 13.5q-14 4 -60 11q-6 6 -3.5 25t10.5 23q13 0 71.5 -2t85.5 -1q33 0 71 0.5t59 1t35 0.5q83 0 137.5 -32t54.5 -102q0 -53 -34.5 -86.5t-85.5 -48.5v-6q126 -39 126 -142q0 -120 -139 -175
q-63 -25 -182 -25q-19 0 -137.5 3t-156.5 3q-3 8 -2 26.5t6 22.5zM327 44q57 0 91 35.5t34 94.5q0 52 -37 85.5t-110 33.5q-12 0 -16 -1q-7 -2 -9 -9q-27 -174 -29 -191q-2 -14 5 -23q12 -13 35.5 -19t35.5 -6zM354 553q-16 0 -24 -4q-5 -2 -9 -13q-13 -69 -29 -178
q-2 -9 5 -9q13 -2 42 -2q53 0 87.5 29.5t34.5 74.5q0 48 -28.5 75t-78.5 27z" />
    <glyph glyph-name="C" unicode="C" horiz-adv-x="651" 
d="M571 433q-3 54 -13 78t-37 41q-31 20 -87 20q-85 0 -142 -81.5t-58 -201.5q-1 -119 51 -174.5t138 -55.5q30 0 55 9q46 16 119 96q8 -3 19 -18t10 -22q-19 -36 -51.5 -68.5t-67.5 -48.5q-53 -25 -145 -25q-147 0 -218.5 77.5t-71.5 198.5q0 115 60 206t168 132
q73 28 167 28q44 0 112 -11q51 -8 71 -9q-17 -64 -28 -166q-7 -8 -25 -8.5t-26 3.5z" />
    <glyph glyph-name="D" unicode="D" horiz-adv-x="726" 
d="M-1 45q12 2 31.5 4.5t32.5 5.5q34 6 43 47q9 43 35.5 208t27.5 196q2 23 -2.5 32.5t-23.5 14.5q-6 2 -27.5 4.5t-27.5 3.5q-5 9 -1.5 26.5t9.5 21.5l52 -1q52 -2 104 -2q80 1 149 1q138 0 218 -71q34 -31 54.5 -84t20.5 -111q0 -179 -141 -280q-62 -43 -130.5 -56
t-165.5 -13q-42 0 -137 2.5t-127 2.5q-4 5 -1.5 24t7.5 24zM254 98q-2 -20 10 -30q21 -20 84 -20t114 55q75 82 75 234q0 51 -17 101t-50 77q-45 38 -105 38q-20 0 -29 -2q-4 -1 -8 -5.5t-5 -8.5q-13 -52 -69 -439z" />
    <glyph glyph-name="E" unicode="E" horiz-adv-x="612" 
d="M-5 45q54 5 76 12q24 5 34 49q11 51 36 202.5t29 200.5q2 22 -2.5 30t-18.5 11q-14 5 -61 11q-2 6 1.5 25t7.5 23q25 0 82.5 -1.5t81.5 -1.5h202q103 0 135 5q3 -1 3 -9q-17 -47 -33 -154q-7 -6 -29.5 -6.5t-26.5 4.5q-2 39 -8 69q-6 25 -34 27q-97 6 -136 1
q-10 -2 -13 -15q-5 -25 -15.5 -91.5t-15.5 -95.5q0 -6 7 -6q73 0 106 1q33 2 43 28q8 15 18 44q4 4 27.5 2.5t27.5 -5.5q-11 -45 -22 -105q-3 -19 -8.5 -60t-6.5 -50q-7 -4 -27 -3.5t-27 3.5q2 31 -4 51q-5 21 -32 24q-51 3 -104 3q-10 0 -10 -7q-2 -15 -26 -168
q-2 -19 19 -28q22 -5 140 -5q45 0 74 34q33 39 60 83q7 3 26.5 -5.5t22.5 -15.5q-7 -28 -25.5 -75t-33.5 -71q-5 -8 -11.5 -9.5t-29.5 -3.5q-31 0 -133 1.5t-191 1.5q-27 0 -89.5 -1.5t-89.5 -1.5q-4 5 -2 24.5t6 23.5z" />
    <glyph glyph-name="F" unicode="F" horiz-adv-x="574" 
d="M8 45q33 5 53 9q35 7 43 46q11 49 37.5 209.5t30.5 197.5q3 35 -23 42q-10 4 -32.5 8.5t-26.5 5.5q-4 4 0 23t9 23l45 -1q46 -2 103 -2h226q113 0 132 4q4 -4 4 -9q-23 -62 -40 -159q-5 -7 -26.5 -7.5t-24.5 4.5q-5 50 -8 63q-9 42 -44 43q-94 3 -128 1q-4 0 -9.5 -6.5
t-6.5 -12.5q-8 -30 -33 -195q0 -8 5 -8q104 0 122 1q29 1 42 29q8 17 16 41q8 4 28.5 2t25.5 -7q-18 -82 -21 -100q-2 -18 -8 -55.5t-8 -56.5q-7 -7 -26 -7t-26 5l-6 51q-2 12 -8 18.5t-10 8t-12 2.5q-29 5 -119 5q-7 0 -7 -9q-14 -79 -22 -138q-4 -29 2 -40.5t28 -17.5
q7 -2 18 -3.5t26 -4t24 -3.5q1 -8 -1.5 -25t-8.5 -23q-28 0 -89 1.5t-89 1.5q-26 0 -79 -1.5t-84 -1.5q-3 7 -0.5 24.5t6.5 23.5z" />
    <glyph glyph-name="G" unicode="G" horiz-adv-x="726" 
d="M615 47q2 -2 -1 -13.5t-6 -14.5q-136 -36 -229 -36q-308 0 -308 276q0 114 62.5 204.5t161.5 128.5q82 31 191 31q60 0 129 -13q42 -8 78 -12q-30 -88 -42 -182q-5 -6 -25.5 -6t-27.5 4q4 100 -39 128q-37 28 -113 28q-83 0 -148.5 -85.5t-65.5 -230.5q0 -90 46.5 -153
t120.5 -63q26 0 38 12q9 9 13 28q8 31 17 92q4 19 0.5 34.5t-21.5 22.5q-16 5 -72 14q-3 7 1 25.5t7 22.5q2 0 57 -1.5t120 -1.5q58 0 96.5 1.5t40.5 1.5q4 -6 -0.5 -25.5t-9.5 -25.5q-37 -7 -38 -7q-12 -4 -18 -12t-11 -26q-5 -16 -18 -113q-1 -13 1 -19t13 -14z" />
    <glyph glyph-name="H" unicode="H" horiz-adv-x="772" 
d="M90 561q-4 3 -1.5 24t7.5 24q6 0 56 -1.5t100 -1.5q56 0 106 1.5t56 1.5q4 -3 1.5 -24t-7.5 -24q-42 -4 -55 -9q-27 -10 -34 -47t-26 -155q1 -5 4 -8q8 -2 115 -2q93 0 111 1q2 0 5 2.5t3 4.5q9 51 25 165q2 31 -16 37q-21 7 -60 12q-2 7 0.5 25.5t6.5 21.5
q4 0 21.5 -0.5t52 -1.5t79.5 -1q50 0 99 1.5t60 1.5q3 -6 1 -22.5t-6 -24.5q-48 -7 -58 -12q-27 -9 -35 -53q-39 -197 -61 -393q-4 -37 25 -46q17 -5 64 -13q2 -6 -1 -25.5t-8 -22.5q-5 0 -59 1.5t-108 1.5q-42 0 -77 -1t-55 -1.5t-25 -0.5q-2 5 0.5 25.5t6.5 24.5
q44 7 54 10q24 8 31 37q14 68 30 171q0 7 -6 7q-38 2 -114 2q-104 0 -112 -4q-6 -6 -6 -7l-24 -157q-6 -39 18 -48q2 -1 58 -11q3 -5 -1.5 -27.5t-9.5 -22.5q-3 0 -67.5 1.5t-97.5 1.5q-50 0 -102 -2l-52 -1q-4 5 -1.5 24.5t7.5 23.5q49 8 56 10q20 5 28.5 18t14.5 41
q8 40 34 202t28 187q4 41 -20 48q-21 7 -59 10z" />
    <glyph glyph-name="I" unicode="I" horiz-adv-x="388" 
d="M89 563q-3 7 -0.5 24.5t8.5 21.5q14 0 63 -1.5t90 -1.5t91.5 1.5t73.5 1.5q5 -4 3 -24t-9 -24q-34 -3 -55 -8q-26 -6 -35 -48q-11 -54 -29 -170q-28 -169 -34 -232q-4 -13 0 -28t20 -20q3 -1 58 -11q3 -6 0 -25t-8 -22q-18 0 -49.5 1t-57.5 1.5t-49 0.5q-159 -3 -168 -3
q-3 7 -1 25t6 22q44 6 56 9q17 4 27.5 17t16.5 45q18 87 36 212q21 136 25 184q2 33 -21 40q-12 3 -58 12z" />
    <glyph glyph-name="J" unicode="J" horiz-adv-x="382" 
d="M90 561q-3 8 0 26t7 23q13 0 62.5 -2t96.5 -2q54 0 106.5 2t53.5 2q4 -6 2.5 -25.5t-7.5 -23.5l-54 -11q-25 -6 -30 -41q-9 -47 -36 -211.5t-40 -230.5q-25 -120 -76 -178q-44 -51 -99 -80.5t-101 -39.5q-6 2 -16 15t-12 22q-1 7 4 15q60 26 92 57q14 14 24 36.5t14.5 41
t13.5 60.5q19 90 44.5 249t34.5 233q5 42 -19 50z" />
    <glyph glyph-name="K" unicode="K" horiz-adv-x="708" 
d="M89 563q-1 7 1.5 24t6.5 22q22 0 66.5 -1.5t88.5 -1.5q28 0 85 1.5t78 1.5q3 -6 1 -24.5t-7 -22.5q-48 -8 -58 -11q-14 -5 -21 -14.5t-11 -30.5q-47 -265 -64 -402q-4 -43 22 -48q7 -2 16 -3.5t23 -3.5t24 -4q2 -5 -1 -24.5t-7 -23.5q-21 0 -81 1.5t-88 1.5
q-159 -3 -162 -3q-2 6 0 24.5t6 23.5q40 5 57 10q20 4 29 16.5t15 43.5q48 275 62 393q5 36 -20 43q-9 3 -61 12zM462 563q-2 9 1 24.5t8 21.5q105 -3 129 -3q57 0 147 3q4 -5 1 -23.5t-9 -23.5q-47 -7 -76.5 -23.5t-66.5 -50.5q-114 -108 -164 -151l-1 -7q26 -52 76 -130
t82 -115q15 -17 28 -24q17 -10 73 -16q3 -6 -0.5 -24.5t-8.5 -23.5q-31 -4 -111 -1t-98 12q-24 12 -52 49q-58 85 -117 203q-8 16 -15 24q0 12 7 19q33 17 86.5 61t111.5 104q43 47 43 66q0 13 -17 18q-15 5 -57 11z" />
    <glyph glyph-name="L" unicode="L" horiz-adv-x="607" 
d="M88 561q-4 5 -0.5 25t9.5 23q22 0 67 -1.5t89 -1.5q35 0 65 0.5t58.5 2t42.5 1.5q4 -6 1.5 -23t-7.5 -23q-45 -6 -59 -10q-16 -5 -23 -14.5t-13 -28.5q-6 -31 -34.5 -212t-30.5 -203q-1 -13 5 -21.5t11 -9.5q61 -8 135 -4q30 2 59 32t80 119q6 2 26 -7t22 -16
q-6 -22 -32 -80t-49 -89q-6 -10 -17 -17.5t-18 -7.5q-44 0 -161.5 2.5t-158.5 2.5q-48 0 -86 -1t-57.5 -2t-23.5 -1q-3 39 8 49q33 4 72 12q27 9 35 38q11 52 37.5 215t30.5 202q3 32 -23 39q-3 1 -60 10z" />
    <glyph glyph-name="M" unicode="M" horiz-adv-x="875" 
d="M97 561q-2 7 2 26t8 22q228 -3 237 -3q0 -12 14 -68q82 -285 90 -303q4 -3 7 0q33 50 92.5 149.5t85.5 151.5q26 48 32 70q38 0 109.5 1.5t108.5 1.5q2 -2 0.5 -22.5t-5.5 -25.5q-46 -8 -62 -13q-8 -2 -13 -6.5t-8 -14.5t-3.5 -12.5t-2.5 -17.5q-19 -173 -28 -384
q-2 -46 25 -53q15 -5 67 -15q3 -6 0.5 -25t-9.5 -23q-26 0 -89 1.5t-88 1.5q-38 0 -71.5 -1t-53.5 -1.5t-25 -0.5q-3 7 -2 25.5t6 22.5q53 11 58 13q13 4 19.5 15t10.5 40q28 202 38 328q-1 2 -6 -1q-18 -32 -120 -213t-122 -221q-11 -4 -30 -5t-27 5q-10 46 -29.5 139
t-36 167t-29.5 120q-4 4 -6 -1q-64 -288 -68 -310q-12 -49 26 -62q30 -10 64 -14q3 -6 1 -25t-7 -24q-1 0 -54 2t-106 2q-23 0 -70 -2t-49 -2q-4 8 -2 24.5t7 21.5q30 5 58 14q20 5 31.5 19t20.5 43q18 55 56 196t47 186q9 34 -22 45q-9 3 -37.5 8t-39.5 8z" />
    <glyph glyph-name="N" unicode="N" horiz-adv-x="740" 
d="M73 561q-1 9 2 25.5t7 22.5q26 0 90 -1.5t92 -1.5q40 0 50 1q12 -29 31 -61q193 -317 223 -361q1 -1 3 -0.5t3 1.5q29 157 43 307q4 45 -41 56q-3 1 -68 12q-4 6 -1 26t9 22q4 0 50.5 -1.5t93.5 -1.5q44 0 86 1.5t49 1.5q4 -4 1 -24.5t-9 -23.5q-26 -4 -42 -8
q-25 -6 -37 -17.5t-19 -46.5q-31 -146 -63 -357q-13 -85 -19 -140l-18 1q-18 1 -38 1q-17 0 -34 -1t-19 -1q-193 337 -268 457q-2 0 -4 -3q-43 -258 -50 -321q-4 -33 4 -48t31 -21q26 -7 61 -11q4 -3 1 -22t-8 -27q-23 0 -66 2t-65 2t-74 -2t-72 -2q-5 32 6 47q45 7 59 11
q19 5 30 18.5t19 44.5q31 125 70 369q3 18 -4.5 37.5t-24.5 24.5q-19 6 -70 13z" />
    <glyph glyph-name="O" unicode="O" horiz-adv-x="723" 
d="M325 -18q-124 0 -190 68t-67 186q-1 88 37 176t124 148q91 64 202 64q127 0 192 -74.5t65 -187.5q0 -161 -91 -262q-101 -118 -272 -118zM345 38q43 0 77 29q49 43 77.5 130t28.5 186q0 188 -116 188q-46 0 -82.5 -34.5t-58 -88.5t-32.5 -114t-11 -117q0 -89 31.5 -134
t85.5 -45z" />
    <glyph glyph-name="P" unicode="P" horiz-adv-x="628" 
d="M344 223q-34 0 -66 5q-8 0 -8 -6q-11 -65 -16 -107q-5 -51 23 -58q20 -6 68 -12q5 -7 1.5 -25.5t-10.5 -22.5q-28 0 -77 1.5t-77 1.5q-26 0 -89.5 -1.5t-90.5 -1.5q-7 20 3 48q55 10 57 10q36 7 44 60q39 190 63 382q7 48 -25 55q-23 6 -56 9q-2 8 1.5 27t7.5 21
q10 0 73 -1.5t86 -1.5q87 1 177 1q25 0 50 -4.5t51 -16.5t45.5 -30t32 -48t12.5 -67q0 -64 -33 -112t-87 -74q-66 -32 -160 -32zM312 282q69 -1 114.5 38.5t45.5 111.5q0 56 -31.5 87.5t-85.5 31.5q-13 0 -26 -7q-5 -4 -8 -14q-14 -63 -40 -240q0 -7 6 -7q10 -1 25 -1z" />
    <glyph glyph-name="Q" unicode="Q" horiz-adv-x="723" 
d="M349 38q39 0 73 29q49 43 77.5 130t28.5 186q0 188 -116 188q-46 0 -82.5 -34.5t-58 -88.5t-32.5 -114t-11 -117q0 -88 33.5 -133.5t87.5 -45.5zM431 624q127 0 192 -74.5t65 -187.5q0 -161 -92 -263q-49 -58 -151 -94q31 -14 75 -41q115 -71 194 -71q68 0 119 19
q4 -4 3.5 -23.5t-4.5 -24.5q-96 -72 -213 -72q-65 0 -118 32q-33 20 -95 70.5t-74 59.5q-21 16 -88 37q-174 52 -176 245q-1 88 36.5 175.5t123.5 147.5q92 65 203 65z" />
    <glyph glyph-name="R" unicode="R" horiz-adv-x="656" 
d="M86 562q-2 5 1 25.5t5 22.5q4 0 27.5 -1t60.5 -2t73 -1q44 0 85 0.5t63 1t37 0.5q77 0 124 -39.5t47 -103.5q0 -119 -146 -167q-5 -2 -3 -8q14 -36 48 -96.5t63 -99.5q19 -26 38 -35.5t62 -13.5q2 -8 -1.5 -26.5t-8.5 -21.5q-40 -5 -109.5 -1t-88.5 15q-32 18 -47 52
q-36 63 -87 177q-10 21 -23 23q-12 2 -22 2q-1 0 -4 -3t-3 -5q-8 -46 -24 -158q-5 -35 22 -43q12 -4 64 -13q4 -6 0 -23.5t-10 -23.5q-7 0 -58 2t-104 2q-116 0 -168 -4q-2 8 -0.5 24.5t5.5 22.5q53 8 64 11q29 5 37 46q15 69 39 219t28 192q4 31 -22 38q-25 8 -64 13z
M459 443q0 49 -28.5 79t-75.5 30q-19 0 -24 -2q-7 -4 -9 -10q-23 -129 -36 -219q-2 -8 6 -8q60 0 103 19q64 31 64 111z" />
    <glyph glyph-name="S" unicode="S" horiz-adv-x="530" 
d="M101 206q24 -105 61 -138q34 -32 93 -32q37 0 60.5 19.5t24.5 53.5q1 28 -17 54t-77 71q-5 4 -22.5 17t-22.5 17t-19.5 16t-19.5 17.5t-16 17t-15 18.5t-11 19t-9.5 22.5t-5 23.5t-2.5 27q0 91 62.5 143t167.5 52q54 0 108 -12q15 -3 29.5 -5.5t25.5 -4t14 -2.5
q-16 -51 -36 -159q-5 -5 -25.5 -7t-23.5 4q-6 88 -32 110q-11 11 -32 18t-38 7q-38 0 -62 -24t-24 -60q0 -43 45 -82q20 -16 57.5 -41t55.5 -38q89 -68 89 -148q0 -84 -68 -141t-189 -57q-48 0 -99.5 15.5t-73.5 32.5q-7 11 -7.5 74t4.5 92q4 7 22.5 9.5t27.5 0.5z" />
    <glyph glyph-name="T" unicode="T" horiz-adv-x="664" 
d="M119 45q66 9 69 10q22 4 31 16t15 42q31 153 72 422q0 8 -5 8q-19 2 -68 -1q-36 -2 -59 -36q-27 -39 -55 -86q-8 -1 -26.5 5t-23.5 14q24 57 53 176q3 9 9 7q53 -16 95 -16h334q69 0 119 12q8 -8 7 -13q-16 -43 -44 -176q-7 -5 -28 -5t-24 5q-1 20 -2.5 35.5t-3.5 27.5
l-3 18q-1 15 -12 23t-22 8q-55 2 -86 0q-9 -5 -9 -11q-55 -335 -65 -433q-3 -32 19 -38q21 -6 84 -14q3 -7 -0.5 -25t-8.5 -23q-27 0 -85 1.5t-101 1.5q-63 0 -113 -1.5t-72 -1.5q-2 8 1.5 25t7.5 23z" />
    <glyph glyph-name="U" unicode="U" horiz-adv-x="721" 
d="M68 561q-3 7 -1 25.5t8 22.5q5 0 58 -1.5t104 -1.5q53 0 106.5 1.5t54.5 1.5q2 -6 -0.5 -24t-6.5 -24q-46 -7 -49 -8q-34 -9 -43 -56q-3 -15 -30 -178q-14 -95 -13 -136q-1 -50 31.5 -83t100.5 -33q20 0 36.5 2.5t36.5 11.5t35 25t29 44.5t23 67.5q34 152 44 268
q5 55 -30 62q-4 1 -65 13q-4 5 -1 24.5t9 23.5q4 0 48.5 -1.5t87.5 -1.5q45 0 84 1.5t51 1.5q5 -5 3 -24t-8 -24q-7 -2 -23.5 -4.5t-26.5 -5.5q-17 -4 -27 -15.5t-13.5 -22t-9.5 -35.5q-16 -72 -41 -213q-16 -87 -44 -145t-68.5 -87t-82 -40t-97.5 -11q-141 0 -198 72
q-35 43 -35 112q0 25 7 75.5t20 134.5t19 123q6 43 -23 51q-32 8 -60 11z" />
    <glyph glyph-name="V" unicode="V" horiz-adv-x="630" 
d="M19 560q-5 7 -2.5 26.5t8.5 22.5q15 0 73 -1.5t87 -1.5q63 0 147 4q5 -4 3.5 -24.5t-7.5 -28.5q-42 -8 -48 -11q-15 -6 -14 -25q9 -93 61 -368q1 -1 3.5 -1t3.5 1q29 47 94.5 172t84.5 168q20 49 -21 57q-14 4 -52 11q-3 8 -0.5 25.5t7.5 22.5l49 -1q48 -2 92 -2
q40 0 81.5 2t48.5 2q3 -5 1 -24.5t-6 -24.5q-44 -6 -67 -20q-6 -4 -11.5 -7.5t-11 -9t-8.5 -9t-9.5 -12t-9 -12.5t-10.5 -16.5t-12 -18.5q-23 -34 -50.5 -81.5t-67.5 -120.5t-61 -110q-53 -94 -83 -152l-18 1q-18 1 -37 1q-33 0 -55 -2q-3 17 -10.5 65.5t-11.5 74.5
q-13 71 -31 176t-25 143q-8 43 -16.5 63t-16.5 26t-26 11q-6 2 -21 4t-25 5z" />
    <glyph glyph-name="W" unicode="W" horiz-adv-x="880" 
d="M37 563q-2 9 1 26.5t9 20.5q5 0 50 -2t90 -2q37 0 90.5 2t67.5 2q2 -4 0.5 -23.5t-5.5 -23.5q-41 -11 -53 -16q-10 -6 -12 -29q4 -163 19 -311q1 -1 2.5 -1t2.5 1q114 212 185 376q16 -2 46 -2q40 0 46 1q21 -182 61 -405q0 -1 2 -1t3 1q72 140 140 312q18 49 -12 59
q-21 8 -63 15q-3 7 0 25t9 22q15 0 63 -2t71 -2q18 0 66.5 2t67.5 2q2 -2 0 -23t-7 -24q-29 -6 -53 -13q-36 -11 -63 -61q-48 -89 -131 -259t-113 -238q-22 2 -48 2q-36 0 -54 -2q-8 66 -28.5 205t-29.5 182h-3q-127 -244 -196 -387q-16 2 -48 2q-36 0 -50 -2
q-21 376 -35 494q-9 54 -26 61q-8 5 -62 16z" />
    <glyph glyph-name="X" unicode="X" horiz-adv-x="648" 
d="M-15 45q45 4 76 16q26 7 64 49q87 92 155 173q3 7 1 9q-27 65 -81 177q-16 37 -31 55.5t-38 24.5q-12 4 -58 12q-4 8 0 27t9 21q16 0 67 -1.5t81 -1.5q110 0 145 3q5 -3 3.5 -23.5t-6.5 -24.5q-27 -5 -35 -8q-11 -4 -7 -20q42 -102 56 -131q2 -7 8 -1q73 85 95 124
q12 21 -11 28q-15 4 -41 8q-4 7 0 26t9 22q4 0 44.5 -1.5t61.5 -1.5q53 0 94 1.5t44 1.5q5 -4 1.5 -24.5t-9.5 -24.5q-58 -10 -75 -19q-23 -12 -36.5 -23t-40.5 -41q-35 -37 -112 -128q-4 -6 -2 -10q22 -53 82 -174q30 -59 45.5 -80.5t39.5 -28.5q23 -7 61 -11
q3 -4 -0.5 -25t-8.5 -24q-5 0 -25 1t-57.5 2t-84.5 1q-40 0 -91.5 -1.5t-65.5 -1.5q-3 5 -2 24.5t3 23.5q30 2 51 12q15 6 10 20q-14 40 -65 150q-2 5 -6 1q-107 -130 -113 -144q-10 -23 10 -28q18 -5 57 -11q3 -4 0 -24t-9 -23q-16 0 -68 1.5t-74 0.5l-126 -3q-4 5 -2 24.5
t8 23.5z" />
    <glyph glyph-name="Y" unicode="Y" horiz-adv-x="602" 
d="M104 45q44 5 63 10q19 6 27.5 17.5t13.5 34.5q14 65 23 129q3 19 -5 48q-15 60 -66 197q-14 37 -27 50.5t-32 18.5q-21 7 -61 11q-4 5 -0.5 25t8.5 23q15 0 65.5 -1.5t79.5 -1.5q101 0 158 3q5 -4 2 -24t-8 -24q-17 -2 -32 -6q-18 -6 -12 -29q10 -41 29.5 -103t30.5 -86
q2 -6 7 1q118 162 127 177q16 27 -7 34q-11 4 -60 11q-5 7 -1.5 26t10.5 23q19 0 66 -1.5t65 -1.5q19 0 64.5 1.5t64.5 1.5q5 -5 2.5 -25t-9.5 -24q-9 -2 -22 -4t-21.5 -4t-12.5 -3q-23 -8 -38.5 -19.5t-44.5 -45.5q-75 -86 -152 -200q-15 -22 -20 -49q-11 -52 -21 -120
q-5 -22 -0.5 -37.5t23.5 -21.5q13 -4 65 -11q2 -6 -1.5 -24.5t-8.5 -23.5q-22 0 -81.5 1.5t-90.5 1.5q-44 0 -92.5 -1.5t-74.5 -1.5q-3 8 0 25.5t7 22.5z" />
    <glyph glyph-name="Z" unicode="Z" horiz-adv-x="627" 
d="M118 400q-4 -2 -25.5 5.5t-22.5 13.5q39 107 64 203q39 -16 108 -16h234q82 0 141 3q1 -2 1 -15t-2 -17q-18 -27 -84.5 -113.5t-157.5 -205t-144 -189.5q-1 -1 -1 -4t2 -3q69 -6 184 -6q25 0 55 24q66 66 100 124q7 2 24.5 -7t20.5 -17q-41 -112 -81 -168
q-12 -15 -91 -15q-51 1 -168 1.5t-160 1.5q-10 0 -30.5 -0.5t-36 -1t-25.5 -1.5q-3 1 -5.5 13t-1.5 16q63 71 216 268t188 251q3 4 -1 4q-129 0 -151 -1q-28 0 -47 -8t-40 -36q-24 -32 -63 -104z" />
    <glyph glyph-name="bracketleft" unicode="[" horiz-adv-x="424" 
d="M273 688q-6 0 -8 -7q-21 -79 -68 -381q-49 -309 -52 -378q0 -16 9 -20q30 -9 165 -9q1 -5 -8.5 -33.5t-13.5 -28.5q-99 -6 -199 0q-28 2 -40 9q4 49 70 465t74 443q3 6 6 6h233q3 -5 -6.5 -33.5t-14.5 -29.5q-20 -3 -147 -3z" />
    <glyph glyph-name="backslash" unicode="\" horiz-adv-x="444" 
d="M174 681q7 2 13 -1q136 -640 178 -788q-1 -2 -5.5 -5.5t-7.5 -3.5q-16 3 -42 13.5t-29 18.5q-10 31 -42 169.5t-76 336t-50 222.5q4 6 26.5 19.5t34.5 18.5z" />
    <glyph glyph-name="bracketright" unicode="]" horiz-adv-x="424" 
d="M379 752q2 0 6.5 -3.5t5.5 -6.5q-129 -845 -144 -907q0 -1 -2.5 -3.5t-3.5 -2.5q-40 0 -117 -0.5t-117 -0.5q-3 8 3 35.5t12 27.5q114 0 156 4q5 0 7 7q16 55 67 380q49 308 52 381q0 19 -7 20q-31 7 -163 7q-2 6 4.5 33t13.5 27q86 2 227 2z" />
    <glyph glyph-name="asciicircum" unicode="^" horiz-adv-x="527" 
d="M136 236q-12 -14 -74 -14q-2 0 -7 2.5t-5 3.5q18 23 92.5 177.5t88.5 196.5q1 1 27.5 7t30.5 6q29 -67 98.5 -207t89.5 -168q0 -4 -4 -5q-10 -4 -43.5 -13t-35.5 -7q-16 16 -133 262q-1 2 -4 2t-4 -2q-22 -53 -64.5 -141t-52.5 -100z" />
    <glyph glyph-name="underscore" unicode="_" horiz-adv-x="500" 
d="M557 -182v-51h-569v51h569z" />
    <glyph glyph-name="grave" unicode="`" horiz-adv-x="400" 
d="M132 631q-2 14 7 19t55 6.5t57 -3.5q18 -60 34 -176q-2 -4 -22 -9.5t-26 -3.5q-15 22 -56 86t-49 81z" />
    <glyph glyph-name="a" unicode="a" horiz-adv-x="514" 
d="M484 133q6 0 6 -6q0 -28 -9 -49q-31 -42 -79 -67.5t-81 -25.5q-43 0 -34 68q4 29 9 56q1 2 -1.5 3t-3.5 -1q-103 -126 -184 -126q-35 0 -51.5 33.5t-16.5 77.5q0 63 24 128t63 104q40 40 99.5 69.5t126.5 29.5q63 0 132 -13q-23 -61 -27 -77q-37 -157 -37 -216
q0 -22 11 -22q17 0 53 34zM204 101q19 0 47 26.5t51 70.5q6 13 31 110q5 19 14 42q-19 13 -64 13q-27 0 -47.5 -13t-38.5 -51q-24 -56 -24 -132q0 -66 31 -66z" />
    <glyph glyph-name="b" unicode="b" horiz-adv-x="523" 
d="M409 427q39 0 60 -36.5t20 -89.5q-2 -65 -31.5 -125.5t-68.5 -96.5q-106 -95 -226 -95q-49 0 -77 35t-28 85q0 37 8 80q12 64 37.5 196.5t30.5 168.5q0 13 -9 13q-24 0 -64 -8q-5 5 -1 25.5t10 23.5q45 20 108.5 41.5t84.5 21.5q22 -2 10 -66q-11 -58 -59 -274
q-1 -2 2 -2q4 0 5 1q100 102 188 102zM237 50q26 0 53 30q23 26 42.5 80.5t20.5 111.5q1 31 -8.5 47.5t-25.5 16.5q-19 0 -45 -20.5t-47 -47.5q-19 -24 -30.5 -66.5t-11.5 -72.5q0 -79 52 -79z" />
    <glyph glyph-name="c" unicode="c" horiz-adv-x="405" 
d="M244 363q-28 0 -48 -51t-20 -129q0 -47 17.5 -75.5t51.5 -28.5q52 0 125 66q6 0 6 -8q0 -36 -9 -48q-41 -53 -96.5 -79t-107.5 -26q-67 0 -98 49q-24 36 -24 100q0 73 30.5 137t78.5 97q38 26 83.5 43t79.5 17q52 0 76 -19q16 -12 8 -31q-8 -18 -26 -43t-31 -31
q-4 -2 -17 2q-51 58 -79 58z" />
    <glyph glyph-name="d" unicode="d" horiz-adv-x="545" 
d="M42 112q0 144 88 236q25 26 90.5 52.5t103.5 26.5q15 0 43 -2q9 0 9 7q11 55 18 114q3 24 -13 25t-59 -1q-2 7 2.5 22t8.5 20q36 13 99.5 30t90.5 18q21 0 7 -69q-4 -22 -28 -152t-38 -211.5t-14 -104.5q0 -17 11 -17q17 0 60 36q3 -3 3 -10q0 -25 -8 -45
q-30 -37 -95 -77t-92 -40q-8 0 -14.5 7t-6.5 15q0 21 13 105q-1 0 -2 2q-2 2 -3 1q-46 -51 -101 -83.5t-97 -32.5q-39 0 -57.5 39t-18.5 89zM214 91h2q23 0 51 22t50 56q16 25 24 55q12 54 15 96q3 20 -6 29q-22 23 -65 23q-46 0 -75.5 -68.5t-29.5 -147.5q0 -65 34 -65z
" />
    <glyph glyph-name="e" unicode="e" horiz-adv-x="410" 
d="M247 371q-24 0 -46 -30.5t-30 -101.5q0 -2 1.5 -4t3.5 -1q63 14 86 35q20 16 20 49q0 25 -10.5 39t-24.5 14zM308 427q40 0 62 -21.5t22 -58.5q0 -64 -92 -116q-44 -25 -123 -52q-6 -2 -8 -7q-1 -5 -1 -11q0 -32 17.5 -56.5t55.5 -24.5q63 0 133 61q6 0 6 -7
q0 -33 -9 -45q-29 -44 -90.5 -74.5t-120.5 -30.5q-36 0 -61 14t-37.5 38t-17.5 48t-5 52q0 74 28 134t65 90q27 22 83.5 44.5t92.5 22.5z" />
    <glyph glyph-name="f" unicode="f" horiz-adv-x="294" 
d="M37 353q0 5 3 11q6 13 20.5 29.5t21.5 19.5h35q5 1 5 4q16 70 43 112t79 81q27 21 67 38.5t66 17.5q26 2 43 -5t17 -20q0 -15 -18.5 -42t-38.5 -41q-12 -8 -17 -4l-9 9t-9.5 9t-8.5 7.5t-8.5 7t-8 5.5t-8 4t-7.5 1q-18 0 -27 -31q-7 -27 -26 -145q-2 -8 7 -8q58 0 95 6
q1 -3 -2 -17.5t-6 -18.5q-24 -27 -77 -31q-8 -1 -21 -1q-6 0 -6 -7q-47 -297 -57 -348q-13 -65 -63 -122t-103.5 -85.5t-89.5 -28.5q-31 0 -49.5 14t-17.5 34q-2 38 21 77q3 7 14 12q61 -63 103 -63q13 0 20 13t15 49q16 93 73 447q0 7 -5 7q-14 0 -65 3z" />
    <glyph glyph-name="g" unicode="g" horiz-adv-x="450" 
d="M484 409q6 -3 6 -15q-3 -14 -12.5 -32t-22.5 -26q-19 -11 -50 -13v-16q0 -96 -75 -149q-54 -38 -119 -42q-9 0 -19 -2q-12 -2 -12 -10q0 -13 28 -24q100 -37 132 -55q35 -20 53.5 -41.5t18.5 -55.5t-24 -68.5t-72 -61.5q-69 -40 -143 -40q-88 0 -145 39t-57 91
q0 24 24.5 41.5t94.5 52.5q2 2 0 3q-40 31 -40 59q0 13 6 19q16 17 74 48q6 3 0 5q-41 12 -62.5 42.5t-21.5 73.5q0 46 23 86.5t60 66.5q61 42 135 42q35 0 99 -24q33 -13 51 -13q29 0 70 19zM221 -184q38 0 58.5 13t20.5 34q0 27 -32 48q-30 19 -68 35.5t-57 16.5
q-16 0 -41.5 -18t-25.5 -36q0 -39 44 -66t101 -27zM218 162q30 0 47.5 47t18.5 95q1 77 -43 77q-28 0 -48 -46t-20 -103q0 -70 45 -70z" />
    <glyph glyph-name="h" unicode="h" horiz-adv-x="526" 
d="M328 327q-18 0 -50 -30t-60 -79q-30 -53 -44 -116q-6 -27 -6 -38.5t7 -33.5q-8 -10 -56 -27t-71 -21q-3 1 -7.5 6t-5.5 9q-3 11 6 59q14 84 44 236.5t45 238.5q3 18 0.5 25.5t-12.5 8.5q-15 1 -56 -6q-1 6 3 24t8 24q39 19 100 39t90 20q20 0 7 -66q-6 -29 -28 -142.5
t-31 -161.5q0 -1 1.5 -1.5t3.5 0.5q112 132 207 132q37 0 45.5 -38.5t-3.5 -90.5q-35 -182 -35 -183q0 -19 10 -19q15 0 56 32q4 -6 4 -14q-2 -26 -8 -42q-25 -31 -76.5 -59t-92.5 -28q-20 0 -27 22.5t-1 55.5q10 69 41 215q10 49 -8 49z" />
    <glyph glyph-name="i" unicode="i" horiz-adv-x="290" 
d="M259 127q5 0 6 -3q1 -7 -1.5 -25t-5.5 -23q-32 -40 -81.5 -66t-86.5 -26q-50 0 -29 99q7 36 23 109t22 103q4 17 -7 17q-16 0 -44 -20q-7 4 -7 6q0 25 9 41q46 40 94.5 64t74.5 24q17 0 20 -28.5t-4 -58.5q-45 -203 -47 -227q-1 -20 10 -20q18 0 54 34zM229 613
q32 0 41 -14q3 -5 5 -19t1 -19q-8 -41 -36 -64q-8 -7 -39 -12t-40 -1q-26 14 -30 46q-2 12 2.5 29t11.5 23q14 13 38 22t46 9z" />
    <glyph glyph-name="j" unicode="j" horiz-adv-x="302" 
d="M-28 -237q-10 2 -19 13.5t-8 21.5q54 37 74.5 67.5t33.5 89.5q47 207 60 341q2 11 -6 11q-10 0 -58 -27q-6 0 -6 9q0 6 5.5 23t8.5 19q115 96 183 96q26 0 16 -68q-11 -95 -49 -290q-15 -76 -39.5 -125.5t-68.5 -94.5q-18 -20 -55 -46t-72 -40zM229 613q32 0 41 -14
q9 -13 6 -38q-7 -40 -38 -65q-8 -7 -38 -11.5t-39 -0.5q-25 13 -30 46q-2 12 2 28.5t12 23.5q14 13 38 22t46 9z" />
    <glyph glyph-name="k" unicode="k" horiz-adv-x="491" 
d="M261 666q19 0 10 -61l-76 -371q-1 -5 2.5 -6t5.5 2q156 197 223 197q48 0 64 -28q3 -9 -2 -27q-5 -15 -25 -39.5t-31 -30.5q-6 5 -28.5 13t-41.5 8q-27 0 -78 -65q-4 -4 0 -6q16 -13 36 -47q40 -66 60 -89.5t33 -23.5q23 0 65 46l2 -1q3 -1 5 -2.5t2 -3.5q1 -7 -1 -25
t-4 -22q-26 -40 -68.5 -70t-74.5 -30q-33 0 -56 33q-14 20 -42.5 77t-36.5 66q-6 6 -10 2q-11 -8 -17 -30q-9 -29 -12 -48q-4 -28 6 -51q-9 -12 -61.5 -31.5t-63.5 -19.5t-13 25q0 16 12 78q80 398 85 445q6 34 -11 34q-28 0 -56 -7q-3 5 1 25t9 22q63 29 116.5 45.5
t71.5 16.5z" />
    <glyph glyph-name="l" unicode="l" horiz-adv-x="274" 
d="M67 560q-2 6 1.5 25t7.5 22q38 19 99 39t85 20q22 -1 9 -65q-7 -40 -30.5 -158t-40 -206t-18.5 -115q-3 -27 13 -27q18 0 62 39q4 -4 4 -13q0 -30 -9 -43q-37 -41 -88 -67.5t-85 -26.5q-23 0 -30.5 24t-2.5 59q6 46 45 239.5t44 243.5q2 18 -11 18q-30 0 -55 -8z" />
    <glyph glyph-name="m" unicode="m" horiz-adv-x="771" 
d="M46 288q-4 2 -5 5q-10 18 -4 35q47 47 91.5 73t72.5 26q42 0 28 -88l-6 -35q1 -1 3 -1t3 1q44 50 99.5 86.5t97.5 36.5q24 0 35.5 -21.5t9.5 -58.5q0 -2 -5 -46q2 -2 5 1q38 46 94.5 85.5t106.5 39.5q36 0 43.5 -39.5t-4.5 -94.5q-6 -32 -18.5 -94.5t-15.5 -85.5
q-2 -17 10 -17q17 0 60 36q4 -8 4 -10q0 -32 -8 -45q-39 -45 -90 -69t-83 -24q-23 0 -29 29.5t2 60.5q44 208 44 210q10 44 -12 44q-43 0 -102 -97q-23 -37 -42 -127q-14 -64 -10 -78q-17 -11 -60.5 -25.5t-57.5 -16.5q-5 1 -10.5 5.5t-5.5 8.5q3 22 28 134.5t32 160.5
q5 36 -14 36q-39 0 -94 -82q-26 -47 -46 -124q-17 -64 -14 -98q-16 -9 -58 -23.5t-63 -17.5q-12 2 -14 15q5 25 17 82q41 180 43 212q2 7 -0.5 15t-9.5 8q-16 0 -48 -28z" />
    <glyph glyph-name="n" unicode="n" horiz-adv-x="534" 
d="M42 284l-6 3q-3 37 5 45q41 41 90 68t74 27q40 0 27 -83l-7 -41q0 -3 5 -1q66 79 144 112q32 13 57 13q67 0 38 -143q-30 -151 -32 -166q-2 -20 9 -20q17 0 59 36q5 0 5 -5q0 -35 -9 -53q-39 -45 -89.5 -68.5t-78.5 -23.5q-51 0 -29 106q6 28 19.5 87.5t22.5 102.5
q8 47 -12 47q-16 0 -43.5 -23.5t-52.5 -63.5q-21 -34 -46 -127q-14 -60 -8 -85q-21 -12 -65 -28t-55 -16q-5 0 -10 7t-5 11q2 24 28.5 152.5t29.5 143.5q2 16 -10 16q-20 0 -55 -30z" />
    <glyph glyph-name="o" unicode="o" horiz-adv-x="490" 
d="M322 427q64 0 99 -42.5t35 -109.5q0 -170 -147 -250q-28 -14 -73 -27.5t-75 -13.5q-60 0 -90.5 43.5t-30.5 112.5t27.5 132t80.5 98q87 57 174 57zM172 184q0 -130 67 -130q28 0 47 27.5t27.5 67t8.5 85.5q0 36 -3 61t-18.5 48.5t-43.5 23.5q-36 1 -60.5 -57t-24.5 -126z
" />
    <glyph glyph-name="p" unicode="p" horiz-adv-x="530" 
d="M495 290q-4 -137 -94 -224q-30 -29 -80 -54.5t-92 -25.5q-26 0 -53 8q-11 -64 -15 -111q-2 -33 22 -40q5 -1 14.5 -2.5t23 -3t21.5 -2.5q2 -4 -1.5 -21.5t-6.5 -21.5q-114 1 -292 -25q-3 6 -0.5 23.5t5.5 21.5q4 1 21.5 6t23.5 7q26 9 34 41q14 58 29 147q46 267 50 292
q2 16 -7 16q-18 0 -57 -31q-6 0 -6 5q-2 31 9 49q46 42 100.5 76.5t82.5 38.5q6 1 13 -9.5t6 -18.5q-1 -9 -16 -101q0 -4 5 -2q46 45 94.5 72t84.5 27t59 -38t22 -99zM261 50q33 0 57 32q45 61 45 174q0 71 -36 71q-19 0 -48 -19t-50 -47q-15 -20 -23 -70l-14 -86
q0 -17 5 -24q21 -31 64 -31z" />
    <glyph glyph-name="q" unicode="q" horiz-adv-x="530" 
d="M477 -207q-60 -2 -151.5 -10.5t-138.5 -17.5q-2 5 0.5 24.5t6.5 24.5q11 3 28 7t25 7q23 8 29 36q9 39 42 242q-2 2 -5 0q-46 -57 -100 -89.5t-97 -32.5q-34 0 -54.5 35.5t-20.5 80.5q0 146 87 236q26 28 93.5 58.5t118.5 30.5q103 0 159 -25q-18 -48 -23 -83
q-54 -340 -62 -446q-3 -24 16 -28q13 -3 54 -7q3 -3 0.5 -21.5t-7.5 -21.5zM213 89q19 0 49.5 27t56.5 72q14 24 24 76q6 32 9 61q2 17 -7 22q-23 16 -57 16q-44 0 -71 -43q-38 -58 -38 -157q0 -43 8.5 -58.5t25.5 -15.5z" />
    <glyph glyph-name="r" unicode="r" horiz-adv-x="383" 
d="M214 289q30 54 59 89q22 25 39.5 37t42.5 12q38 0 53 -31q3 -10 0 -19q-4 -16 -22.5 -49.5t-31.5 -47.5q-9 -9 -18 -7q-31 29 -52 29q-29 0 -64 -84q-20 -47 -31 -109q-11 -64 -7 -80q-20 -12 -61.5 -27t-60.5 -18q-4 1 -8.5 6.5t-5.5 9.5q5 28 24 122.5t26 136.5
q9 55 -5 55q-20 0 -53 -27q-2 -1 -5 1.5t-3 4.5q0 29 9 42q46 45 87.5 68.5t65.5 23.5q40 0 21 -110l-4 -28q0 -1 2 -1t3 1z" />
    <glyph glyph-name="s" unicode="s" horiz-adv-x="364" 
d="M258 428q61 0 85 -24q4 -4 4.5 -12t-1.5 -12q-16 -41 -40 -67q-3 -3 -7.5 -5t-7.5 -3t-4 0q-19 23 -47.5 41t-47.5 18q-16 0 -24 -8.5t-8 -20.5q0 -17 17 -31.5t81 -55.5q74 -48 74 -102q0 -73 -74 -120q-64 -41 -137 -41q-60 0 -92 28q-18 14 -18 33q0 17 9 46t21 48
q2 3 13 6.5t12 0.5q17 -47 51.5 -72.5t70.5 -25.5q15 0 24.5 8t9.5 20q0 18 -15 32t-65 48q-46 32 -63 56.5t-17 52.5q0 56 47 100q28 27 69 44.5t80 17.5z" />
    <glyph glyph-name="t" unicode="t" horiz-adv-x="335" 
d="M235 344q-31 -146 -37 -219q-3 -37 17 -37q17 0 45 21t46 42q7 -2 7 -10q0 -30 -12 -56q-26 -36 -79 -68.5t-104 -32.5q-29 0 -43.5 25.5t-12.5 70.5q0 15 8.5 61.5t22 115t16.5 86.5q2 6 -3 6q-34 0 -66 4q-1 1 -1.5 6t0.5 6q4 7 22 26t22 21q5 1 33 1q5 0 7 5
q14 61 22 82q6 15 43.5 39.5t89.5 39.5q5 1 8.5 -5t1.5 -9q-13 -27 -20 -56q-8 -29 -19 -90q0 -6 4 -6q94 0 112 6q1 -4 -1.5 -16t-5.5 -16q-15 -22 -49 -29q-24 -5 -68 -8q-3 0 -6 -6z" />
    <glyph glyph-name="u" unicode="u" 
d="M103 292q5 20 -5 20q-7 0 -23.5 -8.5t-27.5 -17.5q-1 -1 -3.5 1t-2.5 4q-1 8 3 25.5t7 22.5q38 38 89.5 63t77.5 25q36 0 20 -87q-7 -39 -23 -108t-20 -103q-2 -30 15 -30q22 0 51.5 30t49.5 66q6 10 17 45.5t14 48.5q18 85 25 96q8 7 59.5 24t65.5 18q2 0 5.5 -4.5
t3.5 -9.5q-6 -13 -18 -57q-39 -158 -42 -233q-2 -23 10 -23q6 0 14.5 4t14.5 8.5t16 12.5t13 11q5 -5 5 -10q0 -32 -11 -50q-33 -40 -83 -66t-80 -26q-47 0 -35 86l7 42q-2 2 -5 0q-31 -38 -80 -79q-58 -49 -114 -49q-74 0 -46 139q27 128 36 169z" />
    <glyph glyph-name="v" unicode="v" horiz-adv-x="456" 
d="M339 280q0 33 -30 82q0 16 9 22q72 43 105 43q10 -2 18 -21t8 -43q0 -59 -33.5 -126t-78.5 -115q-109 -115 -183 -137q-16 -5 -31 0q-28 28 -26 147q3 145 2 160q-2 21 -11 21q-14 0 -52 -33q-8 0 -9 5q-3 8 0 26t7 22q41 41 86 68q44 26 73 26q20 0 27 -24t7 -78
q0 -34 -3 -160q-2 -54 7 -65q1 -1 5 -1t5 1q47 35 72.5 84.5t25.5 95.5z" />
    <glyph glyph-name="w" unicode="w" horiz-adv-x="661" 
d="M458 112q89 109 89 205q0 33 -53 39q-1 5 3 17.5t7 15.5q23 14 62.5 25t66.5 13q6 -2 12.5 -13.5t6.5 -21.5q0 -51 -25 -106q-31 -72 -97.5 -161t-125.5 -131q-27 -9 -46 -10q-21 32 -46 210q-1 1 -3 1t-3 -1q-35 -55 -90 -123t-90 -87q-23 2 -30 8q-12 22 -8 123l8 168
q2 33 -11 33q-19 0 -54 -30q-10 0 -10 7q0 29 9 46q40 42 82 65t74 23q41 0 37 -86q-1 -47 -8 -123q-4 -53 0 -61q3 -2 8 3q33 41 84 141q2 4 12 24.5t16 32.5q10 6 38 16t40 9q4 -65 17 -161t20 -108q3 -4 8 -2z" />
    <glyph glyph-name="x" unicode="x" horiz-adv-x="500" 
d="M60 254q-5 0 -8 5q-3 7 -3 26t1 22q29 45 76 82.5t82 37.5q30 0 49 -44q12 -27 34 -92q2 -3 5 0q35 49 57 74q52 62 92 62q36 0 36 -56q1 -51 -16 -85q-3 -9 -31 -19q-15 -5 -15 0q-2 56 -22 56q-21 -1 -86 -90q-1 -1 -1 -5q28 -84 41 -107.5t31 -23.5q29 0 78 64
q1 1 4 1t4 -1q5 -8 7 -25.5t-1 -21.5q-30 -60 -77 -95t-88 -35q-36 0 -60 51q-5 11 -35 95q-2 4 -6 0q-41 -64 -84 -110q-32 -36 -69 -36q-20 0 -34.5 14.5t-14.5 44.5q0 29 15.5 63t35.5 54q3 3 15.5 1.5t12.5 -5.5q0 -25 5 -37.5t8 -13.5t10 -1q16 0 40 28q29 33 41 52
q3 5 1 13q-11 35 -37 99q-8 19 -21 19q-18 0 -72 -61z" />
    <glyph glyph-name="y" unicode="y" horiz-adv-x="449" 
d="M184 427q36 0 54 -91q24 -122 28 -223q2 -2 4 0q35 57 51.5 104t16.5 68q0 39 -21 85q-3 8 15 21t49 26.5t39 13.5t13 -15.5t5 -31.5q0 -63 -35 -138q-58 -121 -138 -233.5t-142 -172.5q-82 -79 -140 -79q-25 0 -25 16q0 14 24.5 58.5t41.5 60.5q6 6 16 6q26 -9 44 -9
q29 0 68 60q6 8 6 21q4 86 -40 282q-12 50 -27 50q-23 0 -64 -41q-2 -4 -6 4q-2 3 -2 6q-4 28 8 44q32 40 76 74t81 34z" />
    <glyph glyph-name="z" unicode="z" horiz-adv-x="475" 
d="M356 393q30 0 87 57q2 2 5.5 0.5t4.5 -4.5q12 -27 6 -39q-8 -16 -115 -117l-161 -156q-4 -6 -1 -8q28 -4 76 -23q58 -23 86 -23t51 19t56 70q1 1 8 -0.5t8 -3.5q3 -8 1 -31.5t-5 -27.5q-27 -50 -80 -93t-107 -43q-14 0 -30 4t-23 6t-31 12.5t-28 12.5q-50 21 -73 21
q-6 0 -13.5 -3.5t-15.5 -9t-13.5 -10t-11.5 -10.5l-7 -7q-1 -2 -6 -1t-7 3q-7 8 -12.5 20.5t-3.5 15.5q28 41 95 99q16 14 94 88.5t83 80.5q1 2 1 3.5t-1 1.5q-19 -2 -68 5q-36 6 -57 6q-41 0 -81 -65q-1 -1 -5 -1.5t-5 0.5q-8 4 -15 18t-5 19q8 20 34 63t48 68q15 17 37 17
q30 0 92 -15q74 -19 108 -19z" />
    <glyph glyph-name="braceleft" unicode="{" horiz-adv-x="459" 
d="M71 314q31 1 52.5 9t33 17t18.5 32.5t9 37.5t6 50l9 90q15 98 87 150t183 59q3 -4 5 -24.5t-4 -26.5q-77 -16 -115 -45.5t-47 -86.5q-3 -22 -6 -73.5t-7 -77.5q-4 -22 -8.5 -36.5t-16.5 -35.5t-37 -36.5t-62 -25.5l-2 -8q47 -8 71 -31t24.5 -47.5t-1.5 -49.5
q-5 -32 -19 -84.5t-18 -73.5q-5 -33 4 -56t31 -35t39.5 -17.5t43.5 -9.5q0 -7 -6.5 -25.5t-11.5 -24.5q-55 -3 -102.5 11t-79 52.5t-24.5 95.5q5 39 20 96q21 85 21 102q2 48 -48 67q-23 8 -60 13q7 40 18 48z" />
    <glyph glyph-name="bar" unicode="|" horiz-adv-x="338" 
d="M122 710h94v-1020h-94v1020z" />
    <glyph glyph-name="braceright" unicode="}" horiz-adv-x="460" 
d="M412 265q-75 -2 -99 -35.5t-27 -109.5l-7 -90q-10 -98 -85 -148.5t-188 -57.5q-2 4 -1.5 24t3.5 24q84 20 121 47.5t46 84.5q4 24 5 75t5 76q4 23 7.5 36t15.5 35t36 37t61 25l2 8q-30 3 -49.5 14t-28 22.5t-11 31.5t-1.5 30.5t4 30.5q5 31 19.5 84.5t17.5 76.5
q5 33 -4.5 56t-32.5 35t-41.5 17.5t-44.5 9.5q-1 8 5 27t10 23q88 4 150.5 -34.5t55.5 -122.5q-3 -31 -19 -98q-21 -86 -21 -106q0 -50 55 -69q22 -7 54 -11q0 -5 -5 -24.5t-8 -23.5z" />
    <glyph glyph-name="asciitilde" unicode="~" horiz-adv-x="618" 
d="M226 335q37 0 111 -34q60 -29 89 -29q64 0 128 73q1 1 7 -0.5t7 -3.5q0 -34 -8 -63q-20 -34 -66.5 -66t-98.5 -32q-36 0 -113 41q-49 23 -90 23q-29 0 -70.5 -26.5t-62.5 -49.5q-2 -2 -5.5 0.5t-3.5 6.5q0 11 5.5 37.5t7.5 29.5q23 31 75.5 62t87.5 31z" />
    <glyph glyph-name="uni00A0" unicode="&#xa0;" horiz-adv-x="210" 
 />
    <glyph glyph-name="exclamdown" unicode="&#xa1;" horiz-adv-x="288" 
d="M6 -185q-23 0 -38 12q1 18 51 174.5t64 185.5q6 5 26 12.5t31 6.5q14 0 17 -9q2 -39 3.5 -162t-1.5 -170q1 -6 -7 -14.5t-17 -12.5q-22 -11 -63 -17t-66 -6zM127 268q-32 0 -51 19q-16 17 -16 49q0 39 28 66q24 21 66 21q36 0 52 -22q14 -18 14 -44q0 -43 -33 -69
q-27 -20 -60 -20z" />
    <glyph glyph-name="cent" unicode="&#xa2;" horiz-adv-x="527" 
d="M275 171l54 267q0 4 -4 4q-48 -5 -78 -48.5t-30 -108.5q0 -88 58 -114zM386 436q-3 -2 -4 -3l-54 -277q8 -1 15 -1q72 0 137 47q3 -4 3 -27t-6 -29q-60 -67 -166 -82q-4 0 -4 -5l-15 -81q-10 -6 -49 -9q-3 0 -7 4l17 84q1 1 0 3t-2 2q-46 5 -83.5 26t-57.5 51
q-30 46 -30 112q0 64 35 120t97 87q57 31 129 38l15 78q16 5 46 8q2 0 5 -0.5t5 -0.5l-16 -84q44 0 81 -14q32 -16 37 -31q1 -8 -4 -21q-5 -10 -22 -28.5t-25 -23.5q-11 -2 -19 0q-3 4 -13 18.5t-20.5 24t-24.5 14.5z" />
    <glyph glyph-name="sterling" unicode="&#xa3;" horiz-adv-x="527" 
d="M133 310q11 130 69 195q45 49 97.5 70t93.5 21q29 0 49.5 -6t28 -13.5t7.5 -14.5q0 -13 -12 -41t-24 -40q-3 -1 -9 -1.5t-8 0.5q-3 2 -19.5 22t-31.5 30.5t-33 10.5q-20 0 -31 -20q-18 -29 -35 -207q0 -6 5 -6q79 0 121 3q-1 -9 -5 -22q-20 -24 -42 -28q-29 -6 -83 -6
q-7 0 -7 -5q-15 -46 -36.5 -80.5t-63.5 -62.5q26 5 95 -5q74 -11 91 -11q41 0 64 17t56 77q5 2 12 0q5 -4 10.5 -17t6.5 -22q-30 -84 -80.5 -129t-103.5 -45q-33 0 -105 23q-80 25 -110 25q-36 0 -75 -38q-2 -1 -10 7t-8 10q5 17 16.5 42.5t17.5 29.5q20 16 40 25l5 2
q4 2 5 3t5.5 4.5t6.5 8.5t6 13t6.5 20t5 27t5 36t3.5 46l-74 2h-1v7l15 44z" />
    <glyph glyph-name="currency" unicode="&#xa4;" horiz-adv-x="527" 
d="M312 482q43 0 80 -24q0 -1 2 -1t4 1q41 43 53 51q3 2 31.5 4t35.5 1q7 -7 3 -15q-37 -36 -83 -92q24 -35 18 -101q-5 -63 -41 -111q-5 -5 -1 -10q35 -50 68 -86q0 -11 -6 -14q-14 -6 -43 -12t-34 -2q-4 4 -17.5 17t-25 24.5t-16.5 17.5q-42 -29 -99 -29q-56 0 -92 33
q-15 -12 -45.5 -41t-35.5 -33q-9 -3 -15 3q-5 11 -7 35.5t3 29.5q14 17 34 34t25 22v8q-18 41 -13 90q6 58 38 103q-41 53 -48 64q-3 5 -2 14q0 4 15.5 28.5t28.5 35.5q1 1 7 1t7 -2q36 -52 56 -74q3 -3 9 0q21 15 53 22.5t53 7.5zM278 413q-44 0 -70 -31.5t-30 -79.5
q-6 -63 23 -95t75 -32q87 0 96 110q5 53 -21.5 90.5t-72.5 37.5z" />
    <glyph glyph-name="yen" unicode="&#xa5;" horiz-adv-x="527" 
d="M317 142q-1 0 -3.5 -2t-2.5 -4l-4 -26q-3 -24 1.5 -37t23.5 -17q6 -2 53 -11q3 -3 -2.5 -23.5t-9.5 -24.5q-10 0 -71 1.5t-92 1.5q-25 0 -74.5 -1.5t-75.5 -1.5q-2 4 0.5 25t6.5 23q52 6 65 10q17 5 24 16t12 34l6 32q0 5 -3 5q-27 -1 -51 -1.5t-34 -0.5q10 44 15 49
q2 0 21 -0.5t55 -0.5q6 0 6 5l7 44q1 2 -1.5 4.5t-4.5 2.5q-25 0 -48 -0.5t-27 -0.5q11 45 16 49q3 0 24 -0.5t40 -0.5q8 0 4 9q-34 120 -52 170q-12 36 -23 48.5t-29 17.5q-12 3 -30 5q-2 8 1.5 25.5t7.5 21.5q14 0 58.5 -1t71.5 -1q90 0 128 2q3 -4 0 -24t-7 -23
q-19 -2 -27 -5q-17 -5 -13 -31q17 -83 36 -146q1 -2 6 0q48 75 82 149q7 17 -6 23q-18 7 -43 10q0 8 4.5 26t7.5 21q4 0 34 -1.5t61 -1.5q32 0 64 1.5t35 1.5q3 -4 -0.5 -23.5t-7.5 -23.5q-26 -5 -33 -8q-23 -8 -35.5 -20t-37.5 -46q-60 -89 -105 -169q-5 -7 2 -7
q22 0 40.5 0.5t27.5 1t12 0.5q1 -10 -13 -49q-8 0 -30.5 0.5t-46.5 0.5q-5 0 -5 -5q-2 -7 -4 -22.5t-4 -22.5q0 -7 4 -7t39.5 0.5t40.5 0.5q1 -5 -4 -23.5t-8 -24.5q-7 0 -29 0.5t-46 0.5z" />
    <glyph glyph-name="brokenbar" unicode="&#xa6;" horiz-adv-x="339" 
d="M121 631h96v-348h-96v348zM121 127h96v-355h-96v355z" />
    <glyph glyph-name="section" unicode="&#xa7;" horiz-adv-x="529" 
d="M335 561q-24 0 -24 -28q1 -16 7 -39q8 -32 89 -190q47 -91 47 -157q0 -96 -71 -179q-41 -54 -100 -87t-101 -33q-86 0 -134 53q-16 17 -14 32q1 6 11.5 30t18.5 35l8 3q29 -39 67.5 -57t61.5 -18q22 0 22 25q-1 19 -17 47q-7 15 -32 57t-37 64q-66 121 -64 213
q0 128 106 228q32 30 79 53t83 23q74 0 120 -46q16 -16 14 -31q-3 -23 -27 -59l-8 -2q-14 15 -51 39t-54 24zM287 -62q35 14 56.5 60.5t21.5 99.5q0 29 -9 61t-17.5 51t-28.5 60q-3 5 -13.5 25.5t-15 29t-13.5 27.5t-13 31.5t-9 29.5t-7 32.5t-2 30.5q0 41 19 81
q-43 -9 -73.5 -61t-30.5 -102q0 -73 58 -189q3 -5 24.5 -44t31.5 -58t21 -51t12 -54q0 -28 -12 -60z" />
    <glyph glyph-name="dieresis" unicode="&#xa8;" horiz-adv-x="400" 
d="M187 598q24 0 40 -13q2 -7 2.5 -19t-0.5 -17q-5 -33 -37 -59q-7 -7 -34 -9t-34 3q-19 9 -26 42q-3 33 12 48q27 24 77 24zM366 598q25 0 39 -12q7 -16 4 -37q-6 -35 -34 -57q-8 -6 -36 -9t-35 1q-21 10 -26 42q-2 10 1.5 25.5t9.5 22.5q29 24 77 24z" />
    <glyph glyph-name="copyright" unicode="&#xa9;" horiz-adv-x="755" 
d="M395 632q146 0 238 -95t92 -234q0 -138 -96.5 -234.5t-233.5 -96.5q-140 0 -235.5 92t-95.5 239q0 136 97 232.5t234 96.5zM395 584q-114 0 -195 -82t-81 -199t81 -199t195 -82q112 0 193.5 83t81.5 198q0 117 -81 199t-194 82zM424 452q-44 0 -71 -38t-27 -102
q0 -58 25.5 -105.5t86.5 -47.5q44 0 94 73q5 0 17.5 -8t12.5 -13q-5 -19 -23 -50t-25 -35q-40 -12 -93 -12q-98 0 -156.5 51.5t-58.5 139.5q1 82 57.5 136t162.5 54q32 0 72 -5q35 -4 59 -3q-5 -33 -8 -111q-3 -2 -19.5 -4t-20.5 0q-5 42 -33 64q-20 16 -52 16z" />
    <glyph glyph-name="ordfeminine" unicode="&#xaa;" horiz-adv-x="406" 
d="M409 326q5 0 5 -4q0 -23 -7 -44q-24 -33 -64 -55t-69 -22q-16 0 -22 16.5t-4 34.5q0 9 5 41q0 2 -1.5 2.5t-3.5 -0.5q-28 -33 -72 -62.5t-69 -29.5q-48 0 -48 82q0 48 18.5 96t48.5 76q35 34 81.5 54t90.5 20q48 0 104 -10q-13 -25 -19 -58q-28 -132 -28 -153
q0 -13 9 -13q15 0 45 29zM182 297q14 0 36 15.5t39 50.5q13 25 25 74q4 16 10 32q-16 10 -40 10q-43 0 -65 -47q-20 -46 -21 -88q-1 -47 16 -47z" />
    <glyph glyph-name="guillemotleft" unicode="&#xab;" horiz-adv-x="765" 
d="M221 194q49 -29 97 -67t58 -54q4 -9 2.5 -30t-4.5 -32q-5 -8 -12 -8q-25 24 -133 90.5t-150 81.5q0 6 8 22.5t11 19.5q72 28 176 83.5t151 88.5q5 -3 7 -8q-1 -11 -9.5 -36t-10.5 -27q-17 -17 -79.5 -55t-108.5 -62q-8 -4 -3 -7zM492 194q49 -30 97 -67.5t57 -53.5
q4 -8 3 -30t-4 -32q-5 -8 -12 -8q-25 25 -133.5 91t-150.5 81q10 34 20 42q72 29 175.5 84t149.5 88q5 0 8 -8q-1 -12 -9 -36.5t-11 -26.5q-24 -25 -187 -117q-10 -3 -3 -7z" />
    <glyph glyph-name="logicalnot" unicode="&#xac;" horiz-adv-x="618" 
d="M94 285q-39 0 -39 8q12 66 19 77q6 -1 214 -1h90t68 0.5t44.5 0.5h28.5h12q6 0 6 -8q0 -6 -0.5 -89t-0.5 -124q0 -81 3 -102q-12 -4 -41.5 -8t-38.5 -4q-2 0 -5 3t-3 5q-2 31 -2 209q0 33 -18 33h-337z" />
    <glyph glyph-name="uni00AD" unicode="&#xad;" horiz-adv-x="334" 
d="M70 254q172 0 230 8q8 -5 5 -16q-3 -16 -20 -43t-22 -30q-12 -5 -99 -8.5t-123 -3.5q-4 6 -4 15q2 14 15.5 46t17.5 32z" />
    <glyph glyph-name="registered" unicode="&#xae;" horiz-adv-x="392" 
d="M236 627q73 0 122 -48t49 -124q0 -73 -49.5 -122.5t-121.5 -49.5t-121.5 48.5t-49.5 123.5q0 72 50 122t121 50zM236 590q-56 0 -93 -39t-37 -96q0 -56 38 -95.5t92 -39.5q61 0 95.5 38.5t34.5 96.5q0 56 -38 95.5t-92 39.5zM148 381q-1 3 -1 9.5t1 8.5q26 4 26 16v86
q0 6 -3 9t-7 4t-13 2q-1 1 -1 11t2 11q4 0 19.5 -1t23.5 -1q11 0 39 0.5t30 0.5q23 0 36.5 -11.5t13.5 -30.5q0 -29 -35 -40q25 -37 31 -43q13 -11 27 -13q1 -2 -0.5 -10.5t-3.5 -9.5q-5 -1 -25.5 0t-28.5 3t-17 13q-5 7 -13 21t-13 22q-4 10 -10 10v-32q0 -11 21 -15
q1 -1 1 -9.5t-1 -10.5q-3 0 -20.5 1t-25.5 1t-29 -1t-24 -1zM226 465q13 0 25 4q12 8 12 19q0 27 -28 27q-9 0 -9 -7v-43z" />
    <glyph glyph-name="macron" unicode="&#xaf;" horiz-adv-x="400" 
d="M152 572q18 -2 49 -2q183 0 195 4q-1 -11 -16.5 -42.5t-18.5 -32.5q-29 -9 -207 -9l-34 2q2 8 16 42.5t16 37.5z" />
    <glyph glyph-name="degree" unicode="&#xb0;" horiz-adv-x="322" 
d="M164 615q58 0 90.5 -36t32.5 -91q0 -53 -37.5 -88t-88.5 -35q-54 0 -90 33t-36 87q0 62 37.5 96t91.5 34zM159 557q-27 0 -46 -18.5t-19 -45.5q0 -35 20.5 -52.5t48.5 -17.5q29 0 47.5 15.5t18.5 48.5q0 28 -18.5 49t-51.5 21z" />
    <glyph glyph-name="plusminus" unicode="&#xb1;" horiz-adv-x="618" 
d="M551 -9l-498 -3q-3 0 -3 11q1 14 6 41.5t8 33.5q7 -2 129 -2h371l4 -9q0 -13 -6 -42t-11 -30zM568 393l-2 -9q-1 -8 -2.5 -17t-3.5 -19t-4.5 -16.5t-4.5 -6.5q-5 -1 -37.5 -1h-80.5t-79 -1q-3 0 -5.5 -4t-2.5 -6q-1 -38 -0.5 -76.5t0.5 -70.5t-1 -36q-2 -6 -72 -22
q-2 -1 -5.5 1t-3.5 4v34.5t-0.5 79t-0.5 96.5q-83 -1 -209 -1q-4 0 -4 11q6 55 14 75q7 -2 129 -2h70v66q0 92 -2 124q7 3 40 8.5t39 5.5t6 -39v-154q0 -11 7 -11h210q5 0 5 -13z" />
    <glyph glyph-name="two.k" unicode="&#xb2;" horiz-adv-x="381" 
d="M350 639q0 -38 -16 -67.5t-61 -65.5q-31 -25 -80 -56v-2q-2 -2 2 -3q12 -3 86 -3q12 0 31 18t36 43q3 2 17.5 -6t17.5 -12q-38 -88 -59 -112q-12 -17 -32 -18q-30 -1 -110 0.5t-99 1.5q-30 0 -44 -1q-1 5 0 18.5t3 17.5q75 44 141 107q29 31 41 52.5t12 49.5
q0 23 -16 39.5t-42 16.5q-34 0 -87 -40q-4 -1 -13 15t-8 20q34 43 78 68.5t87 25.5q48 0 81.5 -31.5t33.5 -75.5z" />
    <glyph glyph-name="three.k" unicode="&#xb3;" horiz-adv-x="381" 
d="M253 746q47 0 75.5 -26t28.5 -62q0 -29 -19 -48.5t-59 -37.5q-2 0 0 -2q84 -33 84 -95q0 -66 -57 -105.5t-137 -39.5q-51 0 -83 15q-16 8 -23 27q-11 31 -13 66q2 6 16.5 12.5t20.5 5.5q25 -49 43 -61q28 -18 56 -18t44.5 17.5t16.5 48.5q-1 32 -24 51.5t-66 19.5
q-11 0 -18 -1q-1 4 10 28t14 26q88 12 90 57q-1 19 -16.5 32.5t-37.5 13.5q-40 0 -86 -35q-4 -1 -9.5 15t-3.5 21q73 75 153 75z" />
    <glyph glyph-name="acute" unicode="&#xb4;" horiz-adv-x="400" 
d="M407 644q7 -11 3 -24q-15 -21 -82.5 -82.5t-92.5 -77.5q-4 -1 -21.5 11t-18.5 16q78 134 94 153q13 4 61.5 6t56.5 -2z" />
    <glyph glyph-name="mu" unicode="&#xb5;" 
d="M490 77q-31 -46 -72.5 -70t-72.5 -23q-54 1 -47 86l3 24q-1 3 -5 0q-64 -108 -136 -108q-29 0 -41 18q-8 -37 -10 -66q-3 -39 27 -67t83 -34q1 -3 -3 -20t-7 -21q-43 -35 -127 -35q-68 0 -56 148q7 77 28 199q5 26 17.5 104.5t20 120t11.5 48.5q12 11 59.5 28t68.5 18
q7 0 11 -12q-13 -24 -37.5 -145t-24.5 -149q0 -37 22 -37q44 0 97 100q19 38 24 63q3 12 16.5 72.5t15.5 65.5q8 7 59 24t65 18q4 0 9 -14q-9 -12 -19 -60q-39 -175 -42 -230q-2 -24 11 -24t55 35q7 -7 7 -8q-3 -33 -10 -49z" />
    <glyph glyph-name="paragraph" unicode="&#xb6;" horiz-adv-x="610" 
d="M614 562q-7 -1 -25.5 -3t-29.5 -4q-20 -5 -29.5 -13.5t-24 -52.5t-27.5 -132l-48 -335q-37 -236 -200 -236q-39 0 -64.5 16t-31.5 35q-4 13 -6.5 41.5t0.5 51.5q2 5 8.5 11t10.5 7q71 -64 128 -64q28 0 44.5 14t33 69.5t29.5 163.5q-49 -20 -94 -22q-97 12 -150 74.5
t-55 154.5q0 117 71.5 179.5t180.5 78.5q40 6 98 9t115.5 4t71.5 2q3 -3 0 -23.5t-6 -25.5zM301 346q-1 -62 19 -106.5t66 -51.5q1 15 34 243q11 79 30 110q-67 -2 -108 -54.5t-41 -140.5z" />
    <glyph glyph-name="periodcentered" unicode="&#xb7;" horiz-adv-x="268" 
d="M143 276q30 0 51 -21q16 -17 16 -52q0 -42 -29 -69q-24 -21 -66 -21q-33 0 -50 22q-15 19 -15 48q0 47 33 73q27 20 60 20z" />
    <glyph glyph-name="cedilla" unicode="&#xb8;" horiz-adv-x="399" 
d="M217 15h40l-40 -45q-2 -8 0 -9q26 -22 37 -34q22 -25 22 -53q0 -34 -23 -59.5t-48 -35t-45 -9.5q-21 0 -44.5 9t-30.5 21q-1 4 2.5 18t6.5 17q28 -16 60 -16q40 0 40 25q0 30 -68 64q2 11 3 13q74 79 88 94z" />
    <glyph glyph-name="one.k" unicode="&#xb9;" horiz-adv-x="381" 
d="M332 398q1 -3 -2.5 -22t-6.5 -22q-20 0 -67.5 1.5t-66.5 1.5t-64.5 -1.5t-63.5 -1.5q-2 4 0.5 22t6.5 20q10 2 24.5 4t21.5 3q26 5 31 39q3 13 17 102q13 79 14 100q1 7 -3 12.5t-10 6.5q-4 1 -23 3t-23 3q-2 3 2 21.5t7 20.5q39 4 93.5 14.5t80.5 20.5q2 1 8 -1t6 -3
q-6 -22 -19 -105q-26 -167 -29 -192q-3 -35 15 -40q15 -3 51 -7z" />
    <glyph glyph-name="ordmasculine" unicode="&#xba;" horiz-adv-x="381" 
d="M279 533q48 0 75 -32.5t27 -82.5q0 -60 -30 -108.5t-84 -77.5q-20 -10 -56.5 -20.5t-58.5 -10.5q-46 0 -70 33t-24 84q0 52 21 98.5t60 73.5q66 43 140 43zM227 483q-26 0 -43.5 -37.5t-17.5 -87.5q0 -100 46 -100q26 0 42 44.5t16 86.5q0 94 -43 94z" />
    <glyph glyph-name="guillemotright" unicode="&#xbb;" horiz-adv-x="765" 
d="M537 198q-49 29 -97 67t-58 54q-4 9 -2.5 30t4.5 32q5 8 12 8q25 -24 133 -90.5t150 -81.5q0 -6 -8 -22.5t-11 -19.5q-72 -28 -176 -83.5t-151 -88.5q-5 3 -7 8q1 11 9.5 36t10.5 27q17 17 79.5 55t108.5 62q8 4 3 7zM266 198q-49 30 -97 67.5t-57 53.5q-4 8 -3 30t4 32
q5 8 12 8q25 -25 133.5 -91t150.5 -81q-10 -34 -20 -42q-72 -29 -175.5 -84t-149.5 -88q-5 0 -8 8q1 12 9 36.5t11 26.5q24 25 187 117q10 3 3 7z" />
    <glyph glyph-name="onequarter" unicode="&#xbc;" horiz-adv-x="900" 
d="M836 105l-64 1q-3 0 -5 -4l-17 -104q-50 0 -116 -7l20 114q0 3 -3 3l-157 2q-1 2 3 16.5t7 17.5q169 191 224 250q10 1 42 3t42 3q-12 -75 -35 -230q1 -2 3 -2l70 1q-13 -61 -14 -64zM345 250q1 -3 -2.5 -22t-6.5 -22q-20 0 -67.5 1.5t-66.5 1.5t-64.5 -1.5t-63.5 -1.5
q-2 4 0.5 22t6.5 20q10 2 24.5 4t21.5 3q26 5 31 39q3 13 17 102q13 79 14 100q1 7 -3 12.5t-10 6.5q-4 1 -23 3t-23 3q-2 3 2 21.5t7 20.5q39 4 93.5 14.5t80.5 20.5q2 1 8 -1t6 -3q-6 -22 -19 -105q-26 -167 -29 -192q-3 -35 15 -40q15 -3 51 -7zM708 631q1 1 24 -0.5
t27 -3.5l-2 -8q-7 -9 -241.5 -333t-254.5 -348q-1 -2 -5.5 -3t-5.5 0q-24 24 -25 32q7 11 243 336t240 328zM662 169q2 0 2 4l24 118h-3q-22 -21 -95 -118q0 -4 1 -4h71z" />
    <glyph glyph-name="onehalf" unicode="&#xbd;" horiz-adv-x="900" 
d="M339 250q1 -3 -2.5 -22t-6.5 -22q-20 0 -67.5 1.5t-66.5 1.5t-64.5 -1.5t-63.5 -1.5q-2 4 0.5 22t6.5 20q10 2 24.5 4t21.5 3q26 5 31 39q3 13 17 102q13 79 14 100q1 7 -3 12.5t-10 6.5q-4 1 -23 3t-23 3q-2 3 2 21.5t7 20.5q39 4 93.5 14.5t80.5 20.5q2 1 8 -1t6 -3
q-6 -22 -19 -105q-26 -167 -29 -192q-3 -35 15 -40q15 -3 51 -7zM688 631q1 1 24 -0.5t27 -3.5l-2 -8q-7 -9 -241.5 -333t-254.5 -348q-1 -2 -5.5 -3t-5.5 0q-24 24 -25 32q7 11 243 336t240 328zM833 282q0 -38 -16 -67.5t-61 -65.5q-31 -25 -80 -56v-2q-2 -2 2 -3
q12 -3 86 -3q12 0 31 18t36 43q3 2 17.5 -6t17.5 -12q-38 -88 -59 -112q-12 -17 -32 -18q-30 -1 -110 0.5t-99 1.5q-30 0 -44 -1q-1 5 0 18.5t3 17.5q75 44 141 107q29 31 41 52.5t12 49.5q0 23 -16 39.5t-42 16.5q-34 0 -87 -40q-4 -1 -13 15t-8 20q34 43 78 68.5t87 25.5
q48 0 81.5 -31.5t33.5 -75.5z" />
    <glyph glyph-name="threequarters" unicode="&#xbe;" horiz-adv-x="900" 
d="M833 105l-64 1q-3 0 -5 -4l-17 -104q-49 0 -116 -7l20 114q0 3 -3 3l-157 2q-1 2 3 16.5t7 17.5q169 191 224 250q10 1 42 3t42 3q-12 -75 -35 -230q1 -2 3 -2l70 1q-13 -61 -14 -64zM277 598q47 0 75.5 -26t28.5 -62q0 -29 -19 -48.5t-59 -37.5q-2 0 0 -2q84 -33 84 -95
q0 -66 -57 -105.5t-137 -39.5q-51 0 -83 15q-16 8 -23 27q-11 31 -13 66q2 6 16.5 12.5t20.5 5.5q25 -49 43 -61q28 -18 56 -18t44.5 17.5t16.5 48.5q-1 32 -24 51.5t-66 19.5q-11 0 -18 -1q-1 4 10 28t14 26q88 12 90 57q-1 19 -16.5 32.5t-37.5 13.5q-40 0 -86 -35
q-4 -1 -9.5 15t-3.5 21q73 75 153 75zM707 631q1 1 24 -0.5t27 -3.5l-2 -8q-7 -9 -241.5 -333t-254.5 -348q-1 -2 -5.5 -3t-5.5 0q-24 24 -25 32q7 11 243 336t240 328zM659 169q2 0 2 4l24 118h-3q-22 -21 -95 -118q0 -4 1 -4h71z" />
    <glyph glyph-name="questiondown" unicode="&#xbf;" horiz-adv-x="368" 
d="M139 110q0 26 -22 48q-4 7 5 16q6 6 40 19t41 13q13 0 24 -3q27 -10 40.5 -31t11.5 -41q-4 -29 -16 -36q-5 -3 -52 -25.5t-64 -31.5q-30 -16 -30 -38q0 -58 113 -86l27 -6q14 -3 10 -23q-1 -9 -18.5 -35t-32.5 -35q-18 -12 -38 -12q-82 0 -137 48q-53 47 -53 112
q0 43 28 65q21 17 103 58q17 9 20 24zM189 270q-32 0 -51 19q-16 17 -16 49q0 39 28 66q24 21 66 21q36 0 52 -22q14 -18 14 -44q0 -43 -33 -69q-27 -20 -60 -20z" />
    <glyph glyph-name="Agrave" unicode="&#xc0;" horiz-adv-x="642" 
d="M-35 45q57 7 77.5 20t50.5 60q81 131 218 397q13 23 38 86q20 -2 56 -2q28 0 50 2q2 -22 9 -64q1 -8 30.5 -172.5t42.5 -218.5q16 -68 30 -83.5t74 -24.5q5 -3 2 -24.5t-9 -23.5q-3 0 -52 1.5t-109 1.5q-33 0 -68 -1t-56 -1.5t-26 -0.5q-5 6 -4 25t8 23q43 4 58 12
q11 10 11 21q0 42 -17 117q-2 7 -9 7q-21 2 -90 2q-50 0 -64 -1q-4 0 -10 -8q-45 -83 -50 -109q-3 -26 23 -32q19 -5 51 -9q5 -5 0.5 -25t-10.5 -23q-23 0 -67.5 1.5t-67.5 1.5q-19 0 -65 -1.5t-61 -1.5q-6 5 -3 25t9 23zM335 456q-16 -34 -48 -98.5t-40 -80.5q-2 -7 3 -9
q12 -1 55 -1q51 0 58 1q5 0 5 5q-17 126 -29 183h-4zM253 746q-6 6 0 14q8 13 45 36t49 23q16 -18 54 -75.5t50 -79.5q2 -4 -14 -16.5t-21 -12.5q-8 0 -77 47t-86 64z" />
    <glyph glyph-name="Aacute" unicode="&#xc1;" horiz-adv-x="642" 
d="M-35 45q57 7 77.5 20t50.5 60q81 131 218 397q13 23 38 86q20 -2 56 -2q28 0 50 2q2 -22 9 -64q1 -8 30.5 -172.5t42.5 -218.5q16 -68 30 -83.5t74 -24.5q5 -3 2 -24.5t-9 -23.5q-3 0 -52 1.5t-109 1.5q-33 0 -68 -1t-56 -1.5t-26 -0.5q-5 6 -4 25t8 23q43 4 58 12
q11 10 11 21q0 42 -17 117q-2 7 -9 7q-21 2 -90 2q-50 0 -64 -1q-4 0 -10 -8q-45 -83 -50 -109q-3 -26 23 -32q19 -5 51 -9q5 -5 0.5 -25t-10.5 -23q-23 0 -67.5 1.5t-67.5 1.5q-19 0 -65 -1.5t-61 -1.5q-6 5 -3 25t9 23zM335 456q-16 -34 -48 -98.5t-40 -80.5q-2 -7 3 -9
q12 -1 55 -1q51 0 58 1q5 0 5 5q-17 126 -29 183h-4zM588 743q3 -10 -4 -17q-17 -14 -106.5 -53.5t-99.5 -39.5q-4 0 -15.5 18.5t-10.5 23.5q9 11 77.5 73t78.5 66q14 0 45.5 -29t34.5 -42z" />
    <glyph glyph-name="Acircumflex" unicode="&#xc2;" horiz-adv-x="642" 
d="M-35 45q57 7 77.5 20t50.5 60q81 131 218 397q13 23 38 86q20 -2 56 -2q28 0 50 2q2 -22 9 -64q1 -8 30.5 -172.5t42.5 -218.5q16 -68 30 -83.5t74 -24.5q5 -3 2 -24.5t-9 -23.5q-3 0 -52 1.5t-109 1.5q-33 0 -68 -1t-56 -1.5t-26 -0.5q-5 6 -4 25t8 23q43 4 58 12
q11 10 11 21q0 42 -17 117q-2 7 -9 7q-21 2 -90 2q-50 0 -64 -1q-4 0 -10 -8q-45 -83 -50 -109q-3 -26 23 -32q19 -5 51 -9q5 -5 0.5 -25t-10.5 -23q-23 0 -67.5 1.5t-67.5 1.5q-19 0 -65 -1.5t-61 -1.5q-6 5 -3 25t9 23zM335 456q-16 -34 -48 -98.5t-40 -80.5q-2 -7 3 -9
q12 -1 55 -1q51 0 58 1q5 0 5 5q-17 126 -29 183h-4zM411 782q12 6 30 9q36 -41 125 -118q1 -7 -8.5 -21t-15.5 -14q-5 0 -51.5 18t-72.5 30q-7 4 -14 0q-19 -9 -76 -28.5t-66 -19.5q-5 0 -11 16t-4 21q31 17 91 55.5t73 51.5z" />
    <glyph glyph-name="Atilde" unicode="&#xc3;" horiz-adv-x="642" 
d="M-35 45q57 7 77.5 20t50.5 60q81 131 218 397q13 23 38 86q20 -2 56 -2q28 0 50 2q2 -22 9 -64q1 -8 30.5 -172.5t42.5 -218.5q16 -68 30 -83.5t74 -24.5q5 -3 2 -24.5t-9 -23.5q-3 0 -52 1.5t-109 1.5q-33 0 -68 -1t-56 -1.5t-26 -0.5q-5 6 -4 25t8 23q43 4 58 12
q11 10 11 21q0 42 -17 117q-2 7 -9 7q-21 2 -90 2q-50 0 -64 -1q-4 0 -10 -8q-45 -83 -50 -109q-3 -26 23 -32q19 -5 51 -9q5 -5 0.5 -25t-10.5 -23q-23 0 -67.5 1.5t-67.5 1.5q-19 0 -65 -1.5t-61 -1.5q-6 5 -3 25t9 23zM335 456q-16 -34 -48 -98.5t-40 -80.5q-2 -7 3 -9
q12 -1 55 -1q51 0 58 1q5 0 5 5q-17 126 -29 183h-4zM491 734q36 0 83 38q3 3 6 -10q5 -24 2 -33q-17 -25 -58 -49.5t-76 -24.5q-16 0 -69 17q-22 10 -44 10q-20 0 -80 -35q-4 -2 -9 24q-2 14 0 16q15 19 57.5 48.5t64.5 29.5t68 -17q34 -14 55 -14z" />
    <glyph glyph-name="Adieresis" unicode="&#xc4;" horiz-adv-x="642" 
d="M-35 45q57 7 77.5 20t50.5 60q81 131 218 397q13 23 38 86q20 -2 56 -2q28 0 50 2q2 -22 9 -64q1 -8 30.5 -172.5t42.5 -218.5q16 -68 30 -83.5t74 -24.5q5 -3 2 -24.5t-9 -23.5q-3 0 -52 1.5t-109 1.5q-33 0 -68 -1t-56 -1.5t-26 -0.5q-5 6 -4 25t8 23q43 4 58 12
q11 10 11 21q0 42 -17 117q-2 7 -9 7q-21 2 -90 2q-50 0 -64 -1q-4 0 -10 -8q-45 -83 -50 -109q-3 -26 23 -32q19 -5 51 -9q5 -5 0.5 -25t-10.5 -23q-23 0 -67.5 1.5t-67.5 1.5q-19 0 -65 -1.5t-61 -1.5q-6 5 -3 25t9 23zM335 456q-16 -34 -48 -98.5t-40 -80.5q-2 -7 3 -9
q12 -1 55 -1q51 0 58 1q5 0 5 5q-17 126 -29 183h-4zM330 763q31 0 40 -15q5 -8 5 -37q-5 -38 -34 -56q-8 -5 -34 -7.5t-34 1.5q-23 11 -28 42q-5 33 9 48q27 24 76 24zM529 763q29 0 43 -12q6 -15 3 -37q-6 -40 -35 -59q-7 -5 -33.5 -6.5t-33.5 2.5q-27 12 -28 47
q-1 25 13 43q26 22 71 22z" />
    <glyph glyph-name="Aring" unicode="&#xc5;" horiz-adv-x="642" 
d="M-35 45q57 7 77.5 20t50.5 60q81 131 218 397q13 23 38 86q20 -2 56 -2q28 0 50 2q2 -22 9 -64q1 -8 30.5 -172.5t42.5 -218.5q16 -68 30 -83.5t74 -24.5q5 -3 2 -24.5t-9 -23.5q-3 0 -52 1.5t-109 1.5q-33 0 -68 -1t-56 -1.5t-26 -0.5q-5 6 -4 25t8 23q43 4 58 12
q11 10 11 21q0 42 -17 117q-2 7 -9 7q-21 2 -90 2q-50 0 -64 -1q-4 0 -10 -8q-45 -83 -50 -109q-3 -26 23 -32q19 -5 51 -9q5 -5 0.5 -25t-10.5 -23q-23 0 -67.5 1.5t-67.5 1.5q-19 0 -65 -1.5t-61 -1.5q-6 5 -3 25t9 23zM335 456q-16 -34 -48 -98.5t-40 -80.5q-2 -7 3 -9
q12 -1 55 -1q51 0 58 1q5 0 5 5q-17 126 -29 183h-4zM423 809q44 0 68 -25.5t20 -63.5q-4 -41 -35 -67t-74 -26q-39 0 -66 24t-24 71q5 41 34.5 64t76.5 23zM412 758q-44 0 -47 -38q-2 -17 10 -29t35 -12q44 0 49 33q2 19 -9.5 32.5t-37.5 13.5z" />
    <glyph glyph-name="AE" unicode="&#xc6;" horiz-adv-x="918" 
d="M297 558q-1 7 2.5 28t6.5 23q23 0 104.5 -1.5t104.5 -1.5h251q86 0 130 7q2 0 3.5 -2.5t2.5 -5.5v-3q-21 -51 -46 -162q-6 -4 -27.5 -4.5t-25.5 2.5q0 62 -2 73q-4 28 -34 31q-22 1 -70.5 1.5t-63.5 -0.5q-4 0 -9 -5t-6 -9q-2 -10 -27 -202q-2 -8 6 -8q81 0 98 1
q23 1 37 29q13 26 18 40q6 3 28 1t26 -6q-15 -49 -24 -101q-2 -14 -6.5 -48t-7.5 -48q-6 -5 -27 -5t-26 5q-1 19 -1.5 26.5t-0.5 13.5q-5 24 -24 27q-17 2 -97 2q-1 0 -4.5 -3.5t-3.5 -5.5q-11 -74 -16 -137q-2 -13 2.5 -25.5t12.5 -15.5q29 -8 129 -8q45 0 82 43
q21 25 59 82q7 0 25.5 -10t20.5 -15q-16 -62 -68 -149q-9 -16 -72 -16q-23 0 -71 1.5t-98 2t-105 0.5q-25 0 -96 -2t-97 -2q-2 9 0.5 26t6.5 23q15 3 46.5 7t38.5 6q28 7 34 44q10 58 21 141q0 8 -3 8q-92 5 -157 1q-9 0 -17 -10q-6 -9 -21.5 -30t-28 -38t-26 -36
t-21.5 -32.5t-9 -19.5q-8 -27 18 -32l51 -9q1 -4 -2.5 -22.5t-6.5 -25.5q-22 0 -72 1.5t-72 1.5q-18 0 -59.5 -1.5t-56.5 -1.5q-2 6 0 23.5t6 24.5q53 9 75 23t57 59q82 105 298 408q2 7 -2 10q-20 2 -54.5 7.5t-36.5 5.5zM481 544q0 2 -5.5 2t-7.5 -1q-14 -21 -73 -105.5
t-76 -110.5q-3 -10 1 -11q23 -1 122 -1q6 0 7 5q19 102 32 222z" />
    <glyph glyph-name="Ccedilla" unicode="&#xc7;" horiz-adv-x="651" 
d="M571 433q-3 54 -13 78t-37 41q-31 20 -87 20q-85 0 -142 -81.5t-58 -201.5q-1 -119 51 -174.5t138 -55.5q30 0 55 9q46 16 119 96q8 -3 19 -18t10 -22q-19 -36 -51.5 -68.5t-67.5 -48.5q-38 -18 -112 -24l-12 -13q-1 -2 -1 -5t1 -4q28 -24 39 -36q24 -25 24 -55
q0 -36 -24.5 -62t-51.5 -36t-48 -10q-23 0 -48 9.5t-33 21.5q-1 4 3 19t7 18q28 -17 64 -17q43 0 43 26q0 32 -73 67q2 11 3 13q40 40 60 63q-140 4 -208 81t-68 195q0 115 60 206t168 132q73 28 167 28q44 0 112 -11q51 -8 71 -9q-17 -64 -28 -166q-7 -8 -25 -8.5t-26 3.5z
" />
    <glyph glyph-name="Egrave" unicode="&#xc8;" horiz-adv-x="612" 
d="M-5 45q54 5 76 12q24 5 34 49q11 51 36 202.5t29 200.5q2 22 -2.5 30t-18.5 11q-14 5 -61 11q-2 6 1.5 25t7.5 23q25 0 82.5 -1.5t81.5 -1.5h202q103 0 135 5q3 -1 3 -9q-17 -47 -33 -154q-7 -6 -29.5 -6.5t-26.5 4.5q-2 39 -8 69q-6 25 -34 27q-97 6 -136 1
q-10 -2 -13 -15q-5 -25 -15.5 -91.5t-15.5 -95.5q0 -6 7 -6q73 0 106 1q33 2 43 28q8 15 18 44q4 4 27.5 2.5t27.5 -5.5q-11 -45 -22 -105q-3 -19 -8.5 -60t-6.5 -50q-7 -4 -27 -3.5t-27 3.5q2 31 -4 51q-5 21 -32 24q-51 3 -104 3q-10 0 -10 -7q-2 -15 -26 -168
q-2 -19 19 -28q22 -5 140 -5q45 0 74 34q33 39 60 83q7 3 26.5 -5.5t22.5 -15.5q-7 -28 -25.5 -75t-33.5 -71q-5 -8 -11.5 -9.5t-29.5 -3.5q-31 0 -133 1.5t-191 1.5q-27 0 -89.5 -1.5t-89.5 -1.5q-4 5 -2 24.5t6 23.5zM247 754q-6 6 0 14q8 13 45 36t49 23q16 -18 54 -75.5
t50 -79.5q2 -4 -14 -16.5t-21 -12.5q-8 0 -77 47t-86 64z" />
    <glyph glyph-name="Eacute" unicode="&#xc9;" horiz-adv-x="612" 
d="M-5 45q54 5 76 12q24 5 34 49q11 51 36 202.5t29 200.5q2 22 -2.5 30t-18.5 11q-14 5 -61 11q-2 6 1.5 25t7.5 23q25 0 82.5 -1.5t81.5 -1.5h202q103 0 135 5q3 -1 3 -9q-17 -47 -33 -154q-7 -6 -29.5 -6.5t-26.5 4.5q-2 39 -8 69q-6 25 -34 27q-97 6 -136 1
q-10 -2 -13 -15q-5 -25 -15.5 -91.5t-15.5 -95.5q0 -6 7 -6q73 0 106 1q33 2 43 28q8 15 18 44q4 4 27.5 2.5t27.5 -5.5q-11 -45 -22 -105q-3 -19 -8.5 -60t-6.5 -50q-7 -4 -27 -3.5t-27 3.5q2 31 -4 51q-5 21 -32 24q-51 3 -104 3q-10 0 -10 -7q-2 -15 -26 -168
q-2 -19 19 -28q22 -5 140 -5q45 0 74 34q33 39 60 83q7 3 26.5 -5.5t22.5 -15.5q-7 -28 -25.5 -75t-33.5 -71q-5 -8 -11.5 -9.5t-29.5 -3.5q-31 0 -133 1.5t-191 1.5q-27 0 -89.5 -1.5t-89.5 -1.5q-4 5 -2 24.5t6 23.5zM553 755q3 -10 -4 -17q-17 -14 -106.5 -53.5
t-99.5 -39.5q-4 0 -15.5 18.5t-10.5 23.5q9 11 77.5 73t78.5 66q14 0 45.5 -29t34.5 -42z" />
    <glyph glyph-name="Ecircumflex" unicode="&#xca;" horiz-adv-x="612" 
d="M-5 45q54 5 76 12q24 5 34 49q11 51 36 202.5t29 200.5q2 22 -2.5 30t-18.5 11q-14 5 -61 11q-2 6 1.5 25t7.5 23q25 0 82.5 -1.5t81.5 -1.5h202q103 0 135 5q3 -1 3 -9q-17 -47 -33 -154q-7 -6 -29.5 -6.5t-26.5 4.5q-2 39 -8 69q-6 25 -34 27q-97 6 -136 1
q-10 -2 -13 -15q-5 -25 -15.5 -91.5t-15.5 -95.5q0 -6 7 -6q73 0 106 1q33 2 43 28q8 15 18 44q4 4 27.5 2.5t27.5 -5.5q-11 -45 -22 -105q-3 -19 -8.5 -60t-6.5 -50q-7 -4 -27 -3.5t-27 3.5q2 31 -4 51q-5 21 -32 24q-51 3 -104 3q-10 0 -10 -7q-2 -15 -26 -168
q-2 -19 19 -28q22 -5 140 -5q45 0 74 34q33 39 60 83q7 3 26.5 -5.5t22.5 -15.5q-7 -28 -25.5 -75t-33.5 -71q-5 -8 -11.5 -9.5t-29.5 -3.5q-31 0 -133 1.5t-191 1.5q-27 0 -89.5 -1.5t-89.5 -1.5q-4 5 -2 24.5t6 23.5zM382 795q12 6 30 9q36 -41 125 -118q1 -7 -8.5 -21
t-15.5 -14q-5 0 -51.5 18t-72.5 30q-7 3 -14 0q-19 -9 -76 -28.5t-66 -19.5q-5 0 -11 16t-4 21q31 17 91 55.5t73 51.5z" />
    <glyph glyph-name="Edieresis" unicode="&#xcb;" horiz-adv-x="612" 
d="M-5 45q54 5 76 12q24 5 34 49q11 51 36 202.5t29 200.5q2 22 -2.5 30t-18.5 11q-14 5 -61 11q-2 6 1.5 25t7.5 23q25 0 82.5 -1.5t81.5 -1.5h202q103 0 135 5q3 -1 3 -9q-17 -47 -33 -154q-7 -6 -29.5 -6.5t-26.5 4.5q-2 39 -8 69q-6 25 -34 27q-97 6 -136 1
q-10 -2 -13 -15q-5 -25 -15.5 -91.5t-15.5 -95.5q0 -6 7 -6q73 0 106 1q33 2 43 28q8 15 18 44q4 4 27.5 2.5t27.5 -5.5q-11 -45 -22 -105q-3 -19 -8.5 -60t-6.5 -50q-7 -4 -27 -3.5t-27 3.5q2 31 -4 51q-5 21 -32 24q-51 3 -104 3q-10 0 -10 -7q-2 -15 -26 -168
q-2 -19 19 -28q22 -5 140 -5q45 0 74 34q33 39 60 83q7 3 26.5 -5.5t22.5 -15.5q-7 -28 -25.5 -75t-33.5 -71q-5 -8 -11.5 -9.5t-29.5 -3.5q-31 0 -133 1.5t-191 1.5q-27 0 -89.5 -1.5t-89.5 -1.5q-4 5 -2 24.5t6 23.5zM300 781q31 0 40 -15q5 -8 5 -37q-5 -38 -34 -56
q-8 -5 -34 -7.5t-34 1.5q-23 11 -28 42q-5 33 9 48q27 24 76 24zM499 781q29 0 43 -12q6 -15 3 -37q-6 -40 -35 -59q-7 -5 -33.5 -6.5t-33.5 2.5q-27 12 -28 47q-1 25 13 43q26 22 71 22z" />
    <glyph glyph-name="Igrave" unicode="&#xcc;" horiz-adv-x="388" 
d="M89 563q-3 7 -0.5 24.5t8.5 21.5q14 0 63 -1.5t90 -1.5t91.5 1.5t73.5 1.5q5 -4 3 -24t-9 -24q-34 -3 -55 -8q-26 -6 -35 -48q-11 -54 -29 -170q-28 -169 -34 -232q-4 -13 0 -28t20 -20q3 -1 58 -11q3 -6 0 -25t-8 -22q-18 0 -49.5 1t-57.5 1.5t-49 0.5q-159 -3 -168 -3
q-3 7 -1 25t6 22q44 6 56 9q17 4 27.5 17t16.5 45q18 87 36 212q21 136 25 184q2 33 -21 40q-12 3 -58 12zM125 756q-6 6 0 14q8 13 45 36t49 23q16 -18 54 -75.5t50 -79.5q2 -4 -14 -16.5t-21 -12.5q-8 0 -77 47t-86 64z" />
    <glyph glyph-name="Iacute" unicode="&#xcd;" horiz-adv-x="388" 
d="M89 563q-3 7 -0.5 24.5t8.5 21.5q14 0 63 -1.5t90 -1.5t91.5 1.5t73.5 1.5q5 -4 3 -24t-9 -24q-34 -3 -55 -8q-26 -6 -35 -48q-11 -54 -29 -170q-28 -169 -34 -232q-4 -13 0 -28t20 -20q3 -1 58 -11q3 -6 0 -25t-8 -22q-18 0 -49.5 1t-57.5 1.5t-49 0.5q-159 -3 -168 -3
q-3 7 -1 25t6 22q44 6 56 9q17 4 27.5 17t16.5 45q18 87 36 212q21 136 25 184q2 33 -21 40q-12 3 -58 12zM444 755q3 -10 -4 -17q-17 -14 -106.5 -53.5t-99.5 -39.5q-4 0 -15.5 18.5t-10.5 23.5q9 11 77.5 73t78.5 66q14 0 45.5 -29t34.5 -42z" />
    <glyph glyph-name="Icircumflex" unicode="&#xce;" horiz-adv-x="388" 
d="M89 563q-3 7 -0.5 24.5t8.5 21.5q14 0 63 -1.5t90 -1.5t91.5 1.5t73.5 1.5q5 -4 3 -24t-9 -24q-34 -3 -55 -8q-26 -6 -35 -48q-11 -54 -29 -170q-28 -169 -34 -232q-4 -13 0 -28t20 -20q3 -1 58 -11q3 -6 0 -25t-8 -22q-18 0 -49.5 1t-57.5 1.5t-49 0.5q-159 -3 -168 -3
q-3 7 -1 25t6 22q44 6 56 9q17 4 27.5 17t16.5 45q18 87 36 212q21 136 25 184q2 33 -21 40q-12 3 -58 12zM271 795q12 6 30 9q36 -41 125 -118q1 -7 -8.5 -21t-15.5 -14q-5 0 -51.5 18t-72.5 30q-7 3 -14 0q-19 -9 -76 -28.5t-66 -19.5q-5 0 -11 16t-4 21q31 17 91 55.5
t73 51.5z" />
    <glyph glyph-name="Idieresis" unicode="&#xcf;" horiz-adv-x="388" 
d="M89 563q-3 7 -0.5 24.5t8.5 21.5q14 0 63 -1.5t90 -1.5t91.5 1.5t73.5 1.5q5 -4 3 -24t-9 -24q-34 -3 -55 -8q-26 -6 -35 -48q-11 -54 -29 -170q-28 -169 -34 -232q-4 -13 0 -28t20 -20q3 -1 58 -11q3 -6 0 -25t-8 -22q-18 0 -49.5 1t-57.5 1.5t-49 0.5q-159 -3 -168 -3
q-3 7 -1 25t6 22q44 6 56 9q17 4 27.5 17t16.5 45q18 87 36 212q21 136 25 184q2 33 -21 40q-12 3 -58 12zM200 781q31 0 40 -15q5 -8 5 -37q-5 -38 -34 -56q-8 -5 -34 -7.5t-34 1.5q-23 11 -28 42q-5 33 9 48q27 24 76 24zM399 781q29 0 43 -12q6 -15 3 -37q-6 -40 -35 -59
q-7 -5 -33.5 -6.5t-33.5 2.5q-27 12 -28 47q-1 25 13 43q26 22 71 22z" />
    <glyph glyph-name="Eth" unicode="&#xd0;" horiz-adv-x="736" 
d="M377 554q-17 0 -31 -3q-4 -1 -8 -5.5t-5 -8.5q-10 -35 -32 -198q11 0 72.5 1t67.5 1q1 -5 -5 -24.5t-9 -26.5q-10 0 -56 0.5t-77 0.5q-27 -172 -28 -194q0 -19 12 -29q10 -9 36 -14.5t42 -5.5q67 0 116 53q34 37 54.5 99.5t20.5 136.5q0 51 -17 100t-50 76
q-49 41 -103 41zM98 561q-4 10 -0.5 26t8.5 22q9 0 77 -1.5t79 -1.5q80 1 149 1q139 0 219 -71q34 -31 54 -85t20 -112q0 -178 -142 -279q-61 -43 -129 -55.5t-166 -12.5q-42 0 -137 2.5t-127 2.5q-2 8 0.5 24.5t6.5 23.5q11 2 30 4.5t33 5.5q34 6 43 47q4 20 32 189l-14 -1
q-14 0 -35 -0.5t-39 -0.5q10 45 16 51q4 0 30.5 -0.5t49.5 -0.5q22 131 24 167q2 23 -3 32.5t-24 14.5q-6 2 -27.5 4.5t-27.5 3.5z" />
    <glyph glyph-name="Ntilde" unicode="&#xd1;" horiz-adv-x="740" 
d="M73 561q-1 9 2 25.5t7 22.5q26 0 90 -1.5t92 -1.5q40 0 50 1q12 -29 31 -61q193 -317 223 -361q1 -1 3 -0.5t3 1.5q29 157 43 307q4 45 -41 56q-3 1 -68 12q-4 6 -1 26t9 22q4 0 50.5 -1.5t93.5 -1.5q44 0 86 1.5t49 1.5q4 -4 1 -24.5t-9 -23.5q-26 -4 -42 -8
q-25 -6 -37 -17.5t-19 -46.5q-31 -146 -63 -357q-13 -85 -19 -140l-18 1q-18 1 -38 1q-17 0 -34 -1t-19 -1q-193 337 -268 457q-2 0 -4 -3q-43 -258 -50 -321q-4 -33 4 -48t31 -21q26 -7 61 -11q4 -3 1 -22t-8 -27q-23 0 -66 2t-65 2t-74 -2t-72 -2q-5 32 6 47q45 7 59 11
q19 5 30 18.5t19 44.5q31 125 70 369q3 18 -4.5 37.5t-24.5 24.5q-19 6 -70 13zM536 745q36 0 83 38q3 3 6 -10q5 -24 2 -33q-17 -25 -58 -49.5t-76 -24.5q-16 0 -69 17q-22 10 -44 10q-20 0 -80 -35q-4 -2 -9 24q-2 14 0 16q15 19 57.5 48.5t64.5 29.5t68 -17
q34 -14 55 -14z" />
    <glyph glyph-name="Ograve" unicode="&#xd2;" horiz-adv-x="723" 
d="M325 -18q-124 0 -190 68t-67 186q-1 88 37 176t124 148q91 64 202 64q127 0 192 -74.5t65 -187.5q0 -161 -91 -262q-101 -118 -272 -118zM345 38q43 0 77 29q49 43 77.5 130t28.5 186q0 188 -116 188q-46 0 -82.5 -34.5t-58 -88.5t-32.5 -114t-11 -117q0 -89 31.5 -134
t85.5 -45zM302 769q-6 6 0 14q8 13 45 36t49 23q16 -18 54 -75.5t50 -79.5q2 -4 -14 -16.5t-21 -12.5q-8 0 -77 47t-86 64z" />
    <glyph glyph-name="Oacute" unicode="&#xd3;" horiz-adv-x="723" 
d="M325 -18q-124 0 -190 68t-67 186q-1 88 37 176t124 148q91 64 202 64q127 0 192 -74.5t65 -187.5q0 -161 -91 -262q-101 -118 -272 -118zM345 38q43 0 77 29q49 43 77.5 130t28.5 186q0 188 -116 188q-46 0 -82.5 -34.5t-58 -88.5t-32.5 -114t-11 -117q0 -89 31.5 -134
t85.5 -45zM605 770q3 -10 -4 -17q-17 -14 -106.5 -53.5t-99.5 -39.5q-4 0 -15.5 18.5t-10.5 23.5q9 11 77.5 73t78.5 66q14 0 45.5 -29t34.5 -42z" />
    <glyph glyph-name="Ocircumflex" unicode="&#xd4;" horiz-adv-x="723" 
d="M325 -18q-124 0 -190 68t-67 186q-1 88 37 176t124 148q91 64 202 64q127 0 192 -74.5t65 -187.5q0 -161 -91 -262q-101 -118 -272 -118zM345 38q43 0 77 29q49 43 77.5 130t28.5 186q0 188 -116 188q-46 0 -82.5 -34.5t-58 -88.5t-32.5 -114t-11 -117q0 -89 31.5 -134
t85.5 -45zM438 805q12 6 30 9q36 -41 125 -118q1 -7 -8.5 -21t-15.5 -14q-5 0 -51.5 18t-72.5 30q-7 3 -14 0q-19 -9 -76 -28.5t-66 -19.5q-5 0 -11 16t-4 21q31 17 91 55.5t73 51.5z" />
    <glyph glyph-name="Otilde" unicode="&#xd5;" horiz-adv-x="723" 
d="M325 -18q-124 0 -190 68t-67 186q-1 88 37 176t124 148q91 64 202 64q127 0 192 -74.5t65 -187.5q0 -161 -91 -262q-101 -118 -272 -118zM345 38q43 0 77 29q49 43 77.5 130t28.5 186q0 188 -116 188q-46 0 -82.5 -34.5t-58 -88.5t-32.5 -114t-11 -117q0 -89 31.5 -134
t85.5 -45zM523 755q36 0 83 38q3 3 6 -10q5 -24 2 -33q-17 -25 -58 -49.5t-76 -24.5q-16 0 -69 17q-22 10 -44 10q-20 0 -80 -35q-4 -2 -9 24q-2 14 0 16q15 19 57.5 48.5t64.5 29.5t68 -17q34 -14 55 -14z" />
    <glyph glyph-name="Odieresis" unicode="&#xd6;" horiz-adv-x="723" 
d="M325 -18q-124 0 -190 68t-67 186q-1 88 37 176t124 148q91 64 202 64q127 0 192 -74.5t65 -187.5q0 -161 -91 -262q-101 -118 -272 -118zM345 38q43 0 77 29q49 43 77.5 130t28.5 186q0 188 -116 188q-46 0 -82.5 -34.5t-58 -88.5t-32.5 -114t-11 -117q0 -89 31.5 -134
t85.5 -45zM367 786q31 0 40 -15q5 -8 5 -37q-5 -38 -34 -56q-8 -5 -34 -7.5t-34 1.5q-23 11 -28 42q-5 33 9 48q27 24 76 24zM566 786q29 0 43 -12q6 -15 3 -37q-6 -40 -35 -59q-7 -5 -33.5 -6.5t-33.5 2.5q-27 12 -28 47q-1 25 13 43q26 22 71 22z" />
    <glyph glyph-name="multiply" unicode="&#xd7;" horiz-adv-x="618" 
d="M481 486q5 10 78 15q3 -1 5 -8.5t0 -10.5q-51 -67 -204 -237v-8q35 -41 102.5 -112t95.5 -95q2 -3 0 -12t-5 -11q-10 -3 -51.5 1.5t-53.5 13.5q-28 22 -147 153q-5 5 -8 1q-141 -153 -147 -158q-8 -5 -83 -16q-2 1 -4.5 9.5t-1.5 12.5q15 13 90.5 92.5t98.5 107.5
q4 6 0 10q-113 123 -182 210q0 6 18 33.5t23 32.5q2 2 10.5 2t10.5 -2q5 -11 76.5 -96.5t107.5 -123.5q150 165 171 196z" />
    <glyph glyph-name="Oslash" unicode="&#xd8;" horiz-adv-x="723" 
d="M566 593l1 1q9 12 17.5 25t10.5 16q2 2 16.5 1t23.5 -3l1 -7q-4 -7 -36 -55q88 -71 88 -209q0 -161 -91 -262q-101 -118 -272 -118q-65 0 -122 23l-34 -46q-1 -1 -17 2.5t-22 6.5l-2 4l40 56q-98 72 -100 208q-1 88 37 176t124 148q91 64 202 64q81 0 135 -31zM510 513
l-2 1q-33 57 -96 57q-60 0 -105 -60.5t-64.5 -139.5t-19.5 -157q0 -53 14 -91q71 100 273 390zM526 463l-2 -3q-50 -72 -146 -209.5t-120 -171.5q32 -41 87 -41q43 0 77 29q50 43 80.5 133.5t30.5 188.5q0 32 -7 74z" />
    <glyph glyph-name="Ugrave" unicode="&#xd9;" horiz-adv-x="721" 
d="M68 561q-3 7 -1 25.5t8 22.5q5 0 58 -1.5t104 -1.5q53 0 106.5 1.5t54.5 1.5q2 -6 -0.5 -24t-6.5 -24q-46 -7 -49 -8q-34 -9 -43 -56q-3 -15 -30 -178q-14 -95 -13 -136q-1 -50 31.5 -83t100.5 -33q20 0 36.5 2.5t36.5 11.5t35 25t29 44.5t23 67.5q34 152 44 268
q5 55 -30 62q-4 1 -65 13q-4 5 -1 24.5t9 23.5q4 0 48.5 -1.5t87.5 -1.5q45 0 84 1.5t51 1.5q5 -5 3 -24t-8 -24q-7 -2 -23.5 -4.5t-26.5 -5.5q-17 -4 -27 -15.5t-13.5 -22t-9.5 -35.5q-16 -72 -41 -213q-16 -87 -44 -145t-68.5 -87t-82 -40t-97.5 -11q-141 0 -198 72
q-35 43 -35 112q0 25 7 75.5t20 134.5t19 123q6 43 -23 51q-32 8 -60 11zM302 755q-6 6 0 14q8 13 45 36t49 23q16 -18 54 -75.5t50 -79.5q2 -4 -14 -16.5t-21 -12.5q-8 0 -77 47t-86 64z" />
    <glyph glyph-name="Uacute" unicode="&#xda;" horiz-adv-x="721" 
d="M68 561q-3 7 -1 25.5t8 22.5q5 0 58 -1.5t104 -1.5q53 0 106.5 1.5t54.5 1.5q2 -6 -0.5 -24t-6.5 -24q-46 -7 -49 -8q-34 -9 -43 -56q-3 -15 -30 -178q-14 -95 -13 -136q-1 -50 31.5 -83t100.5 -33q20 0 36.5 2.5t36.5 11.5t35 25t29 44.5t23 67.5q34 152 44 268
q5 55 -30 62q-4 1 -65 13q-4 5 -1 24.5t9 23.5q4 0 48.5 -1.5t87.5 -1.5q45 0 84 1.5t51 1.5q5 -5 3 -24t-8 -24q-7 -2 -23.5 -4.5t-26.5 -5.5q-17 -4 -27 -15.5t-13.5 -22t-9.5 -35.5q-16 -72 -41 -213q-16 -87 -44 -145t-68.5 -87t-82 -40t-97.5 -11q-141 0 -198 72
q-35 43 -35 112q0 25 7 75.5t20 134.5t19 123q6 43 -23 51q-32 8 -60 11zM637 761q3 -10 -4 -17q-17 -14 -106.5 -53.5t-99.5 -39.5q-4 0 -15.5 18.5t-10.5 23.5q9 11 77.5 73t78.5 66q14 0 45.5 -29t34.5 -42z" />
    <glyph glyph-name="Ucircumflex" unicode="&#xdb;" horiz-adv-x="721" 
d="M68 561q-3 7 -1 25.5t8 22.5q5 0 58 -1.5t104 -1.5q53 0 106.5 1.5t54.5 1.5q2 -6 -0.5 -24t-6.5 -24q-46 -7 -49 -8q-34 -9 -43 -56q-3 -15 -30 -178q-14 -95 -13 -136q-1 -50 31.5 -83t100.5 -33q20 0 36.5 2.5t36.5 11.5t35 25t29 44.5t23 67.5q34 152 44 268
q5 55 -30 62q-4 1 -65 13q-4 5 -1 24.5t9 23.5q4 0 48.5 -1.5t87.5 -1.5q45 0 84 1.5t51 1.5q5 -5 3 -24t-8 -24q-7 -2 -23.5 -4.5t-26.5 -5.5q-17 -4 -27 -15.5t-13.5 -22t-9.5 -35.5q-16 -72 -41 -213q-16 -87 -44 -145t-68.5 -87t-82 -40t-97.5 -11q-141 0 -198 72
q-35 43 -35 112q0 25 7 75.5t20 134.5t19 123q6 43 -23 51q-32 8 -60 11zM456 802q12 6 30 9q36 -41 125 -118q1 -7 -8.5 -21t-15.5 -14q-5 0 -51.5 18t-72.5 30q-7 4 -14 0q-19 -9 -76 -28.5t-66 -19.5q-5 0 -11 16t-4 21q31 17 91 55.5t73 51.5z" />
    <glyph glyph-name="Udieresis" unicode="&#xdc;" horiz-adv-x="721" 
d="M68 561q-3 7 -1 25.5t8 22.5q5 0 58 -1.5t104 -1.5q53 0 106.5 1.5t54.5 1.5q2 -6 -0.5 -24t-6.5 -24q-46 -7 -49 -8q-34 -9 -43 -56q-3 -15 -30 -178q-14 -95 -13 -136q-1 -50 31.5 -83t100.5 -33q20 0 36.5 2.5t36.5 11.5t35 25t29 44.5t23 67.5q34 152 44 268
q5 55 -30 62q-4 1 -65 13q-4 5 -1 24.5t9 23.5q4 0 48.5 -1.5t87.5 -1.5q45 0 84 1.5t51 1.5q5 -5 3 -24t-8 -24q-7 -2 -23.5 -4.5t-26.5 -5.5q-17 -4 -27 -15.5t-13.5 -22t-9.5 -35.5q-16 -72 -41 -213q-16 -87 -44 -145t-68.5 -87t-82 -40t-97.5 -11q-141 0 -198 72
q-35 43 -35 112q0 25 7 75.5t20 134.5t19 123q6 43 -23 51q-32 8 -60 11zM381 783q31 0 40 -15q5 -8 5 -37q-5 -38 -34 -56q-8 -5 -34 -7.5t-34 1.5q-23 11 -28 42q-5 33 9 48q27 24 76 24zM580 783q29 0 43 -12q6 -15 3 -37q-6 -40 -35 -59q-7 -5 -33.5 -6.5t-33.5 2.5
q-27 12 -28 47q-1 25 13 43q26 22 71 22z" />
    <glyph glyph-name="Yacute" unicode="&#xdd;" horiz-adv-x="602" 
d="M104 45q44 5 63 10q19 6 27.5 17.5t13.5 34.5q14 65 23 129q3 19 -5 48q-15 60 -66 197q-14 37 -27 50.5t-32 18.5q-21 7 -61 11q-4 5 -0.5 25t8.5 23q15 0 65.5 -1.5t79.5 -1.5q101 0 158 3q5 -4 2 -24t-8 -24q-17 -2 -32 -6q-18 -6 -12 -29q10 -41 29.5 -103t30.5 -86
q2 -6 7 1q118 162 127 177q16 27 -7 34q-11 4 -60 11q-5 7 -1.5 26t10.5 23q19 0 66 -1.5t65 -1.5q19 0 64.5 1.5t64.5 1.5q5 -5 2.5 -25t-9.5 -24q-9 -2 -22 -4t-21.5 -4t-12.5 -3q-23 -8 -38.5 -19.5t-44.5 -45.5q-75 -86 -152 -200q-15 -22 -20 -49q-11 -52 -21 -120
q-5 -22 -0.5 -37.5t23.5 -21.5q13 -4 65 -11q2 -6 -1.5 -24.5t-8.5 -23.5q-22 0 -81.5 1.5t-90.5 1.5q-44 0 -92.5 -1.5t-74.5 -1.5q-3 8 0 25.5t7 22.5zM581 758q3 -10 -4 -17q-17 -14 -106.5 -53.5t-99.5 -39.5q-4 0 -15.5 18.5t-10.5 23.5q9 11 77.5 73t78.5 66
q14 0 45.5 -29t34.5 -42z" />
    <glyph glyph-name="Thorn" unicode="&#xde;" horiz-adv-x="614" 
d="M436 319q0 45 -26 75.5t-75 30.5q-21 0 -31 -5q-8 -8 -9 -14q-5 -9 -34 -217q28 -8 55 -8q57 0 88.5 37t31.5 101zM95 561q-4 7 -1 25.5t8 22.5q9 0 56.5 -1.5t93.5 -1.5q39 0 82.5 1.5t65.5 1.5q2 -7 -0.5 -24.5t-7.5 -22.5q-10 -2 -23.5 -4t-22.5 -5q-16 -5 -22.5 -13
t-8.5 -23l-6 -34q2 -4 3 -4q40 1 97 1q89 0 138 -42q19 -18 32 -48t12 -61q0 -116 -108 -174q-57 -31 -145 -31q-57 0 -84 9l-4 -27q-4 -41 24 -49q19 -6 62 -12q5 -17 -8 -49q-28 0 -74.5 2t-73.5 2q-26 0 -87 -2t-87 -2q-2 8 0 26.5t5 22.5q47 6 60 10q27 8 37 60
q5 29 33 194.5t30 187.5q4 23 0.5 36t-20.5 18q-14 4 -56 10z" />
    <glyph glyph-name="germandbls" unicode="&#xdf;" horiz-adv-x="541" 
d="M117 413q3 0 5 4q29 123 122 193q75 57 153 57q61 0 97.5 -37t34.5 -94q-1 -39 -33 -74q-15 -17 -66 -66q-20 -20 -20 -33t39 -65q11 -14 17 -23q40 -53 39 -102q-1 -61 -41.5 -105.5t-94.5 -67.5q-41 -17 -81 -17q-39 0 -51 18q-9 21 -8.5 45.5t4.5 39.5q5 11 18 14
q53 -49 98 -49q17 0 30 13t13 34q2 30 -32 78q-7 10 -31 41.5t-35 46.5q-10 11 -9.5 37t12.5 37q67 57 93.5 93t26.5 73q0 45 -20 72.5t-50 27.5q-39 0 -60 -44t-42 -174q-4 -27 -24.5 -166t-35.5 -224q-15 -86 -102.5 -161t-158.5 -75q-63 0 -63 52q2 36 19 65q8 13 16 15
q57 -58 103 -58q14 0 21.5 15t12.5 44q3 14 74 450q2 7 -3 7l-67 3l2 9q8 20 21.5 34.5t20.5 16.5h36z" />
    <glyph glyph-name="agrave" unicode="&#xe0;" horiz-adv-x="514" 
d="M484 133q6 0 6 -6q0 -28 -9 -49q-31 -42 -79 -67.5t-81 -25.5q-43 0 -34 68q4 29 9 56q1 2 -1.5 3t-3.5 -1q-103 -126 -184 -126q-35 0 -51.5 33.5t-16.5 77.5q0 63 24 128t63 104q40 40 99.5 69.5t126.5 29.5q63 0 132 -13q-23 -61 -27 -77q-37 -157 -37 -216
q0 -22 11 -22q17 0 53 34zM204 101q19 0 47 26.5t51 70.5q6 13 31 110q5 19 14 42q-19 13 -64 13q-27 0 -47.5 -13t-38.5 -51q-24 -56 -24 -132q0 -66 31 -66zM227 631q-2 14 7 19t55 6.5t57 -3.5q18 -60 34 -176q-2 -4 -22 -9.5t-26 -3.5q-15 22 -56 86t-49 81z" />
    <glyph glyph-name="aacute" unicode="&#xe1;" horiz-adv-x="514" 
d="M484 133q6 0 6 -6q0 -28 -9 -49q-31 -42 -79 -67.5t-81 -25.5q-43 0 -34 68q4 29 9 56q1 2 -1.5 3t-3.5 -1q-103 -126 -184 -126q-35 0 -51.5 33.5t-16.5 77.5q0 63 24 128t63 104q40 40 99.5 69.5t126.5 29.5q63 0 132 -13q-23 -61 -27 -77q-37 -157 -37 -216
q0 -22 11 -22q17 0 53 34zM204 101q19 0 47 26.5t51 70.5q6 13 31 110q5 19 14 42q-19 13 -64 13q-27 0 -47.5 -13t-38.5 -51q-24 -56 -24 -132q0 -66 31 -66zM500 648q7 -11 3 -24q-15 -21 -82.5 -82.5t-92.5 -77.5q-4 -1 -21.5 11t-18.5 16q78 134 94 153q13 4 61.5 6
t56.5 -2z" />
    <glyph glyph-name="acircumflex" unicode="&#xe2;" horiz-adv-x="514" 
d="M484 133q6 0 6 -6q0 -28 -9 -49q-31 -42 -79 -67.5t-81 -25.5q-43 0 -34 68q4 29 9 56q1 2 -1.5 3t-3.5 -1q-103 -126 -184 -126q-35 0 -51.5 33.5t-16.5 77.5q0 63 24 128t63 104q40 40 99.5 69.5t126.5 29.5q63 0 132 -13q-23 -61 -27 -77q-37 -157 -37 -216
q0 -22 11 -22q17 0 53 34zM204 101q19 0 47 26.5t51 70.5q6 13 31 110q5 19 14 42q-19 13 -64 13q-27 0 -47.5 -13t-38.5 -51q-24 -56 -24 -132q0 -66 31 -66zM336 552q-61 -75 -74 -81q-43 -12 -57 -8q-5 5 -4 10q106 122 132 162q1 3 25.5 10t29.5 7q41 -122 68 -173
q-3 -5 -27 -13t-41 -8q-3 0 -7.5 6t-9.5 17.5t-9 21.5t-10.5 26t-9.5 23q-2 4 -6 0z" />
    <glyph glyph-name="atilde" unicode="&#xe3;" horiz-adv-x="514" 
d="M484 133q6 0 6 -6q0 -28 -9 -49q-31 -42 -79 -67.5t-81 -25.5q-43 0 -34 68q4 29 9 56q1 2 -1.5 3t-3.5 -1q-103 -126 -184 -126q-35 0 -51.5 33.5t-16.5 77.5q0 63 24 128t63 104q40 40 99.5 69.5t126.5 29.5q63 0 132 -13q-23 -61 -27 -77q-37 -157 -37 -216
q0 -22 11 -22q17 0 53 34zM204 101q19 0 47 26.5t51 70.5q6 13 31 110q5 19 14 42q-19 13 -64 13q-27 0 -47.5 -13t-38.5 -51q-24 -56 -24 -132q0 -66 31 -66zM415 559q32 0 78 39q2 3 5 -9q6 -27 3 -35q-15 -24 -52.5 -48t-70.5 -24q-20 0 -68 19q-20 9 -42 9
q-30 0 -75 -36q-1 -1 -2.5 10t-1.5 23t2 14q12 18 50.5 44t60.5 26q19 0 63 -17q32 -15 50 -15z" />
    <glyph glyph-name="adieresis" unicode="&#xe4;" horiz-adv-x="514" 
d="M484 133q6 0 6 -6q0 -28 -9 -49q-31 -42 -79 -67.5t-81 -25.5q-43 0 -34 68q4 29 9 56q1 2 -1.5 3t-3.5 -1q-103 -126 -184 -126q-35 0 -51.5 33.5t-16.5 77.5q0 63 24 128t63 104q40 40 99.5 69.5t126.5 29.5q63 0 132 -13q-23 -61 -27 -77q-37 -157 -37 -216
q0 -22 11 -22q17 0 53 34zM204 101q19 0 47 26.5t51 70.5q6 13 31 110q5 19 14 42q-19 13 -64 13q-27 0 -47.5 -13t-38.5 -51q-24 -56 -24 -132q0 -66 31 -66zM275 598q24 0 40 -13q2 -7 2.5 -19t-0.5 -17q-5 -33 -37 -59q-7 -7 -34 -9t-34 3q-19 9 -26 42q-3 33 12 48
q27 24 77 24zM454 598q25 0 39 -12q7 -16 4 -37q-6 -35 -34 -57q-8 -6 -36 -9t-35 1q-21 10 -26 42q-2 10 1.5 25.5t9.5 22.5q29 24 77 24z" />
    <glyph glyph-name="aring" unicode="&#xe5;" horiz-adv-x="514" 
d="M484 133q6 0 6 -6q0 -28 -9 -49q-31 -42 -79 -67.5t-81 -25.5q-43 0 -34 68q4 29 9 56q1 2 -1.5 3t-3.5 -1q-103 -126 -184 -126q-35 0 -51.5 33.5t-16.5 77.5q0 63 24 128t63 104q40 40 99.5 69.5t126.5 29.5q63 0 132 -13q-23 -61 -27 -77q-37 -157 -37 -216
q0 -22 11 -22q17 0 53 34zM204 101q19 0 47 26.5t51 70.5q6 13 31 110q5 19 14 42q-19 13 -64 13q-27 0 -47.5 -13t-38.5 -51q-24 -56 -24 -132q0 -66 31 -66zM359 646q44 0 67 -26t20 -66q-2 -43 -33 -71.5t-70 -28.5q-36 0 -63.5 23t-24.5 71q2 42 32 70t72 28zM352 593
q-21 0 -34.5 -12t-14.5 -31q-1 -18 12 -30t34 -12q19 0 35 11.5t17 28.5q1 22 -10.5 33.5t-38.5 11.5z" />
    <glyph glyph-name="ae" unicode="&#xe6;" horiz-adv-x="652" 
d="M330 409q35 0 62 -33q37 21 79 35t64 14q41 0 69.5 -31t26.5 -72q0 -14 -17.5 -31.5t-34.5 -28t-46 -27.5q-22 -13 -66.5 -35.5t-61.5 -32.5q-5 -3 -5 -10q0 -31 17.5 -52t57.5 -21q62 0 137 60q4 -4 5 -10q3 -20 -7 -41q-28 -41 -94 -74.5t-120 -33.5q-102 0 -119 109
q-47 -38 -102.5 -73.5t-72.5 -35.5q-33 0 -48.5 31t-15.5 75q0 65 25 124t65 99q30 33 91.5 64t110.5 31zM170 175q0 -65 38 -65q23 0 66 31q-2 55 21.5 111.5t47.5 82.5q-24 13 -62 13q-58 0 -90 -69q-19 -44 -21 -104zM480 369q-23 0 -48 -40.5t-30 -110.5q0 -1 1.5 -3
t3.5 -1q75 40 100 63q13 12 13 42q0 24 -12.5 37t-27.5 13z" />
    <glyph glyph-name="ccedilla" unicode="&#xe7;" horiz-adv-x="405" 
d="M244 363q-28 0 -48 -51t-20 -129q0 -47 17.5 -75.5t51.5 -28.5q52 0 125 66q6 0 6 -8q0 -36 -9 -48q-47 -61 -114 -87l-33 -37q-2 -8 0 -9q33 -28 34 -29q22 -25 22 -53q0 -50 -39.5 -77t-73.5 -27q-25 0 -47 9t-30 22q-1 4 2.5 19.5t6.5 18.5q35 -20 59 -20q40 0 40 25
q0 30 -68 64q2 11 3 13l67 66q-16 -3 -33 -3q-67 0 -98 49q-24 36 -24 100q0 73 30.5 137t78.5 97q38 26 83.5 43t79.5 17q52 0 76 -19q16 -12 8 -31q-8 -18 -26 -43t-31 -31q-4 -2 -17 2q-51 58 -79 58z" />
    <glyph glyph-name="egrave" unicode="&#xe8;" horiz-adv-x="410" 
d="M247 371q-24 0 -46 -30.5t-30 -101.5q0 -2 1.5 -4t3.5 -1q63 14 86 35q20 16 20 49q0 25 -10.5 39t-24.5 14zM308 427q40 0 62 -21.5t22 -58.5q0 -64 -92 -116q-44 -25 -123 -52q-6 -2 -8 -7q-1 -5 -1 -11q0 -32 17.5 -56.5t55.5 -24.5q63 0 133 61q6 0 6 -7
q0 -33 -9 -45q-29 -44 -90.5 -74.5t-120.5 -30.5q-36 0 -61 14t-37.5 38t-17.5 48t-5 52q0 74 28 134t65 90q27 22 83.5 44.5t92.5 22.5zM158 631q-2 14 7 19t55 6.5t57 -3.5q18 -60 34 -176q-2 -4 -22 -9.5t-26 -3.5q-15 22 -56 86t-49 81z" />
    <glyph glyph-name="eacute" unicode="&#xe9;" horiz-adv-x="410" 
d="M247 371q-24 0 -46 -30.5t-30 -101.5q0 -2 1.5 -4t3.5 -1q63 14 86 35q20 16 20 49q0 25 -10.5 39t-24.5 14zM308 427q40 0 62 -21.5t22 -58.5q0 -64 -92 -116q-44 -25 -123 -52q-6 -2 -8 -7q-1 -5 -1 -11q0 -32 17.5 -56.5t55.5 -24.5q63 0 133 61q6 0 6 -7
q0 -33 -9 -45q-29 -44 -90.5 -74.5t-120.5 -30.5q-36 0 -61 14t-37.5 38t-17.5 48t-5 52q0 74 28 134t65 90q27 22 83.5 44.5t92.5 22.5zM423 644q7 -11 3 -24q-15 -21 -82.5 -82.5t-92.5 -77.5q-4 -1 -21.5 11t-18.5 16q78 134 94 153q13 4 61.5 6t56.5 -2z" />
    <glyph glyph-name="ecircumflex" unicode="&#xea;" horiz-adv-x="410" 
d="M247 371q-24 0 -46 -30.5t-30 -101.5q0 -2 1.5 -4t3.5 -1q63 14 86 35q20 16 20 49q0 25 -10.5 39t-24.5 14zM308 427q40 0 62 -21.5t22 -58.5q0 -64 -92 -116q-44 -25 -123 -52q-6 -2 -8 -7q-1 -5 -1 -11q0 -32 17.5 -56.5t55.5 -24.5q63 0 133 61q6 0 6 -7
q0 -33 -9 -45q-29 -44 -90.5 -74.5t-120.5 -30.5q-36 0 -61 14t-37.5 38t-17.5 48t-5 52q0 74 28 134t65 90q27 22 83.5 44.5t92.5 22.5zM277 544q-61 -75 -74 -81q-43 -12 -57 -8q-6 5 -4 10q106 122 132 162q1 3 25.5 10t29.5 7q41 -122 68 -173q-3 -5 -27 -13t-41 -8
q-3 0 -7.5 6t-9.5 17.5t-9 21.5t-10.5 26t-9.5 23q-2 4 -6 0z" />
    <glyph glyph-name="edieresis" unicode="&#xeb;" horiz-adv-x="410" 
d="M247 371q-24 0 -46 -30.5t-30 -101.5q0 -2 1.5 -4t3.5 -1q63 14 86 35q20 16 20 49q0 25 -10.5 39t-24.5 14zM308 427q40 0 62 -21.5t22 -58.5q0 -64 -92 -116q-44 -25 -123 -52q-6 -2 -8 -7q-1 -5 -1 -11q0 -32 17.5 -56.5t55.5 -24.5q63 0 133 61q6 0 6 -7
q0 -33 -9 -45q-29 -44 -90.5 -74.5t-120.5 -30.5q-36 0 -61 14t-37.5 38t-17.5 48t-5 52q0 74 28 134t65 90q27 22 83.5 44.5t92.5 22.5zM203 598q24 0 40 -13q2 -7 2.5 -19t-0.5 -17q-5 -33 -37 -59q-7 -7 -34 -9t-34 3q-19 9 -26 42q-3 33 12 48q27 24 77 24zM382 598
q25 0 39 -12q7 -16 4 -37q-6 -35 -34 -57q-8 -6 -36 -9t-35 1q-21 10 -26 42q-2 10 1.5 25.5t9.5 22.5q29 24 77 24z" />
    <glyph glyph-name="igrave" unicode="&#xec;" horiz-adv-x="290" 
d="M259 127q5 0 6 -3q1 -7 -1.5 -25t-5.5 -23q-32 -40 -81.5 -66t-86.5 -26q-50 0 -29 99q7 36 23 109t22 103q4 17 -7 17q-16 0 -44 -20q-7 4 -7 6q0 25 9 41q46 40 94.5 64t74.5 24q17 0 20 -28.5t-4 -58.5q-45 -203 -47 -227q-1 -20 10 -20q18 0 54 34zM77 631
q-2 14 7 19t55 6.5t57 -3.5q18 -60 34 -176q-2 -4 -22 -9.5t-26 -3.5q-15 22 -56 86t-49 81z" />
    <glyph glyph-name="iacute" unicode="&#xed;" horiz-adv-x="290" 
d="M259 127q5 0 6 -3q1 -7 -1.5 -25t-5.5 -23q-32 -40 -81.5 -66t-86.5 -26q-50 0 -29 99q7 36 23 109t22 103q4 17 -7 17q-16 0 -44 -20q-7 4 -7 6q0 25 9 41q46 40 94.5 64t74.5 24q17 0 20 -28.5t-4 -58.5q-45 -203 -47 -227q-1 -20 10 -20q18 0 54 34zM352 644
q7 -11 3 -24q-15 -21 -82.5 -82.5t-92.5 -77.5q-4 -1 -21.5 11t-18.5 16q78 134 94 153q13 4 61.5 6t56.5 -2z" />
    <glyph glyph-name="icircumflex" unicode="&#xee;" horiz-adv-x="290" 
d="M259 127q5 0 6 -3q1 -7 -1.5 -25t-5.5 -23q-32 -40 -81.5 -66t-86.5 -26q-50 0 -29 99q7 36 23 109t22 103q4 17 -7 17q-16 0 -44 -20q-7 4 -7 6q0 25 9 41q46 40 94.5 64t74.5 24q17 0 20 -28.5t-4 -58.5q-45 -203 -47 -227q-1 -20 10 -20q18 0 54 34zM196 544
q-61 -75 -74 -81q-43 -12 -57 -8q-5 5 -4 10q106 122 132 162q1 3 25.5 10t29.5 7q41 -122 68 -173q-3 -5 -27 -13t-41 -8q-3 0 -7.5 6t-9.5 17.5t-9 21.5t-10.5 26t-9.5 23q-2 4 -6 0z" />
    <glyph glyph-name="idieresis" unicode="&#xef;" horiz-adv-x="290" 
d="M259 127q5 0 6 -3q1 -7 -1.5 -25t-5.5 -23q-32 -40 -81.5 -66t-86.5 -26q-50 0 -29 99q7 36 23 109t22 103q4 17 -7 17q-16 0 -44 -20q-7 4 -7 6q0 25 9 41q46 40 94.5 64t74.5 24q17 0 20 -28.5t-4 -58.5q-45 -203 -47 -227q-1 -20 10 -20q18 0 54 34zM132 598
q24 0 40 -13q2 -7 2.5 -19t-0.5 -17q-5 -33 -37 -59q-7 -7 -34 -9t-34 3q-19 9 -26 42q-3 33 12 48q27 24 77 24zM311 598q25 0 39 -12q7 -16 4 -37q-6 -35 -34 -57q-8 -6 -36 -9t-35 1q-21 10 -26 42q-2 10 1.5 25.5t9.5 22.5q29 24 77 24z" />
    <glyph glyph-name="eth" unicode="&#xf0;" horiz-adv-x="485" 
d="M239 51q25 0 44 28.5t28 70.5t13 77.5t4 62.5q0 43 -22 60t-49 17q-39 0 -61.5 -56t-23.5 -125q-2 -135 67 -135zM40 149q2 62 27 118.5t68 90.5q34 26 82.5 46.5t81.5 20.5q15 0 20 -1q0 30 -22 63q-64 -25 -122 -45q-3 2 -3 11q1 10 6 25.5t9 16.5q6 2 25.5 10t35.5 14
t24 10q-13 20 -50.5 44.5t-85.5 35.5q0 8 5.5 24t10.5 23q57 -2 117 -25.5t101 -61.5q5 -5 10 -1q100 41 111 47q6 -3 6 -7q0 -36 -11 -44q-11 -10 -75 -35q-5 -3 -2 -9q46 -92 46 -175q0 -240 -170 -329q-24 -14 -60.5 -23t-60.5 -9q-36 0 -62 15t-38.5 40.5t-18 52
t-5.5 57.5z" />
    <glyph glyph-name="ntilde" unicode="&#xf1;" horiz-adv-x="534" 
d="M42 284l-6 3q-3 37 5 45q41 41 90 68t74 27q40 0 27 -83l-7 -41q0 -3 5 -1q66 79 144 112q32 13 57 13q67 0 38 -143q-30 -151 -32 -166q-2 -20 9 -20q17 0 59 36q5 0 5 -5q0 -35 -9 -53q-39 -45 -89.5 -68.5t-78.5 -23.5q-51 0 -29 106q6 28 19.5 87.5t22.5 102.5
q8 47 -12 47q-16 0 -43.5 -23.5t-52.5 -63.5q-21 -34 -46 -127q-14 -60 -8 -85q-21 -12 -65 -28t-55 -16q-5 0 -10 7t-5 11q2 24 28.5 152.5t29.5 143.5q2 16 -10 16q-20 0 -55 -30zM391 561q32 0 78 39q2 3 5 -9q6 -27 3 -35q-15 -24 -52.5 -48t-70.5 -24q-21 0 -68 19
q-20 9 -42 9q-30 0 -75 -36q-1 -1 -2.5 10t-1.5 23t2 14q12 18 50.5 44t60.5 26q19 0 63 -17q32 -15 50 -15z" />
    <glyph glyph-name="ograve" unicode="&#xf2;" horiz-adv-x="490" 
d="M322 427q64 0 99 -42.5t35 -109.5q0 -170 -147 -250q-28 -14 -73 -27.5t-75 -13.5q-60 0 -90.5 43.5t-30.5 112.5t27.5 132t80.5 98q87 57 174 57zM172 184q0 -130 67 -130q28 0 47 27.5t27.5 67t8.5 85.5q0 36 -3 61t-18.5 48.5t-43.5 23.5q-36 1 -60.5 -57t-24.5 -126z
M177 631q-2 14 7 19t55 6.5t57 -3.5q18 -60 34 -176q-2 -4 -22 -9.5t-26 -3.5q-15 22 -56 86t-49 81z" />
    <glyph glyph-name="oacute" unicode="&#xf3;" horiz-adv-x="490" 
d="M322 427q64 0 99 -42.5t35 -109.5q0 -170 -147 -250q-28 -14 -73 -27.5t-75 -13.5q-60 0 -90.5 43.5t-30.5 112.5t27.5 132t80.5 98q87 57 174 57zM172 184q0 -130 67 -130q28 0 47 27.5t27.5 67t8.5 85.5q0 36 -3 61t-18.5 48.5t-43.5 23.5q-36 1 -60.5 -57t-24.5 -126z
M432 644q7 -11 3 -24q-15 -21 -82.5 -82.5t-92.5 -77.5q-4 -1 -21.5 11t-18.5 16q78 134 94 153q13 4 61.5 6t56.5 -2z" />
    <glyph glyph-name="ocircumflex" unicode="&#xf4;" horiz-adv-x="490" 
d="M322 427q64 0 99 -42.5t35 -109.5q0 -170 -147 -250q-28 -14 -73 -27.5t-75 -13.5q-60 0 -90.5 43.5t-30.5 112.5t27.5 132t80.5 98q87 57 174 57zM172 184q0 -130 67 -130q28 0 47 27.5t27.5 67t8.5 85.5q0 36 -3 61t-18.5 48.5t-43.5 23.5q-36 1 -60.5 -57t-24.5 -126z
M298 547q-61 -75 -74 -81q-43 -12 -57 -8q-5 6 -4 10q106 122 132 162q1 3 25.5 10t29.5 7q41 -122 68 -173q-3 -5 -27 -13t-41 -8q-3 0 -7.5 6t-9.5 17.5t-9 21.5t-10.5 26t-9.5 23q-2 4 -6 0z" />
    <glyph glyph-name="otilde" unicode="&#xf5;" horiz-adv-x="490" 
d="M322 427q64 0 99 -42.5t35 -109.5q0 -170 -147 -250q-28 -14 -73 -27.5t-75 -13.5q-60 0 -90.5 43.5t-30.5 112.5t27.5 132t80.5 98q87 57 174 57zM172 184q0 -130 67 -130q28 0 47 27.5t27.5 67t8.5 85.5q0 36 -3 61t-18.5 48.5t-43.5 23.5q-36 1 -60.5 -57t-24.5 -126z
M363 555q32 0 78 39q2 3 5 -9q6 -27 3 -35q-15 -24 -52.5 -48t-70.5 -24q-20 0 -68 19q-20 9 -42 9q-30 0 -75 -36q-1 -1 -2.5 10t-1.5 23t2 14q12 18 50.5 44t60.5 26q19 0 63 -17q32 -15 50 -15z" />
    <glyph glyph-name="odieresis" unicode="&#xf6;" horiz-adv-x="490" 
d="M322 427q64 0 99 -42.5t35 -109.5q0 -170 -147 -250q-28 -14 -73 -27.5t-75 -13.5q-60 0 -90.5 43.5t-30.5 112.5t27.5 132t80.5 98q87 57 174 57zM172 184q0 -130 67 -130q28 0 47 27.5t27.5 67t8.5 85.5q0 36 -3 61t-18.5 48.5t-43.5 23.5q-36 1 -60.5 -57t-24.5 -126z
M228 598q24 0 40 -13q2 -7 2.5 -19t-0.5 -17q-5 -33 -37 -59q-7 -7 -34 -9t-34 3q-19 9 -26 42q-3 33 12 48q27 24 77 24zM407 598q25 0 39 -12q7 -16 4 -37q-6 -35 -34 -57q-8 -6 -36 -9t-35 1q-21 10 -26 42q-2 10 1.5 25.5t9.5 22.5q29 24 77 24z" />
    <glyph glyph-name="divide" unicode="&#xf7;" horiz-adv-x="618" 
d="M374 450q0 -40 -34 -76q-6 -4 -32.5 -7.5t-39.5 4.5q-26 20 -29 56q-1 5 3.5 23.5t7.5 21.5q10 8 32 14.5t37 6.5q38 0 45 -11q10 -15 10 -32zM547 215l-496 -3q-5 0 -5 11q1 12 8 40.5t10 34.5q7 -2 129 -2h372l3 -13q0 -7 -8 -37t-13 -31zM374 106q0 -45 -25 -69
q-5 -5 -33.5 -9.5t-41.5 3.5q-32 25 -35 57q-1 5 3.5 23t7.5 21q10 8 32 14.5t37 6.5q38 0 45 -11q10 -15 10 -36z" />
    <glyph glyph-name="oslash" unicode="&#xf8;" horiz-adv-x="490" 
d="M238 53q45 0 67.5 54.5t23.5 119.5q0 40 -3 60l-147 -188q15 -46 59 -46zM256 367q-30 0 -60.5 -47.5t-30.5 -135.5q0 -24 3 -39l146 188q-17 34 -58 34zM323 427q37 0 60 -14l22 26q7 8 42 5q2 -1 2.5 -4.5t-0.5 -5.5l-36 -43q25 -25 34 -53.5t9 -71.5q0 -83 -40 -145
t-106 -96q-80 -41 -146 -41q-29 0 -65 21l-27 -31q-14 -9 -45 -6q-4 2 -4 9l49 54q-33 49 -32 124q1 62 29 120.5t78 92.5q87 59 176 59z" />
    <glyph glyph-name="ugrave" unicode="&#xf9;" 
d="M103 292q5 20 -5 20q-7 0 -23.5 -8.5t-27.5 -17.5q-1 -1 -3.5 1t-2.5 4q-1 8 3 25.5t7 22.5q38 38 89.5 63t77.5 25q36 0 20 -87q-7 -39 -23 -108t-20 -103q-2 -30 15 -30q22 0 51.5 30t49.5 66q6 10 17 45.5t14 48.5q18 85 25 96q8 7 59.5 24t65.5 18q2 0 5.5 -4.5
t3.5 -9.5q-6 -13 -18 -57q-39 -158 -42 -233q-2 -23 10 -23q6 0 14.5 4t14.5 8.5t16 12.5t13 11q5 -5 5 -10q0 -32 -11 -50q-33 -40 -83 -66t-80 -26q-47 0 -35 86l7 42q-2 2 -5 0q-31 -38 -80 -79q-58 -49 -114 -49q-74 0 -46 139q27 128 36 169zM200 631q-2 14 7 19
t55 6.5t57 -3.5q18 -60 34 -176q-2 -4 -22 -9.5t-26 -3.5q-15 22 -56 86t-49 81z" />
    <glyph glyph-name="uacute" unicode="&#xfa;" 
d="M103 292q5 20 -5 20q-7 0 -23.5 -8.5t-27.5 -17.5q-1 -1 -3.5 1t-2.5 4q-1 8 3 25.5t7 22.5q38 38 89.5 63t77.5 25q36 0 20 -87q-7 -39 -23 -108t-20 -103q-2 -30 15 -30q22 0 51.5 30t49.5 66q6 10 17 45.5t14 48.5q18 85 25 96q8 7 59.5 24t65.5 18q2 0 5.5 -4.5
t3.5 -9.5q-6 -13 -18 -57q-39 -158 -42 -233q-2 -23 10 -23q6 0 14.5 4t14.5 8.5t16 12.5t13 11q5 -5 5 -10q0 -32 -11 -50q-33 -40 -83 -66t-80 -26q-47 0 -35 86l7 42q-2 2 -5 0q-31 -38 -80 -79q-58 -49 -114 -49q-74 0 -46 139q27 128 36 169zM484 644q7 -11 3 -24
q-15 -21 -82.5 -82.5t-92.5 -77.5q-4 -1 -21.5 11t-18.5 16q78 134 94 153q13 4 61.5 6t56.5 -2z" />
    <glyph glyph-name="ucircumflex" unicode="&#xfb;" 
d="M103 292q5 20 -5 20q-7 0 -23.5 -8.5t-27.5 -17.5q-1 -1 -3.5 1t-2.5 4q-1 8 3 25.5t7 22.5q38 38 89.5 63t77.5 25q36 0 20 -87q-7 -39 -23 -108t-20 -103q-2 -30 15 -30q22 0 51.5 30t49.5 66q6 10 17 45.5t14 48.5q18 85 25 96q8 7 59.5 24t65.5 18q2 0 5.5 -4.5
t3.5 -9.5q-6 -13 -18 -57q-39 -158 -42 -233q-2 -23 10 -23q6 0 14.5 4t14.5 8.5t16 12.5t13 11q5 -5 5 -10q0 -32 -11 -50q-33 -40 -83 -66t-80 -26q-47 0 -35 86l7 42q-2 2 -5 0q-31 -38 -80 -79q-58 -49 -114 -49q-74 0 -46 139q27 128 36 169zM332 552q-61 -75 -74 -81
q-43 -12 -57 -8q-5 5 -4 10q106 122 132 162q1 3 25.5 10t29.5 7q41 -122 68 -173q-3 -5 -27 -13t-41 -8q-3 0 -7.5 6t-9.5 17.5t-9 21.5t-10.5 26t-9.5 23q-2 4 -6 0z" />
    <glyph glyph-name="udieresis" unicode="&#xfc;" 
d="M103 292q5 20 -5 20q-7 0 -23.5 -8.5t-27.5 -17.5q-1 -1 -3.5 1t-2.5 4q-1 8 3 25.5t7 22.5q38 38 89.5 63t77.5 25q36 0 20 -87q-7 -39 -23 -108t-20 -103q-2 -30 15 -30q22 0 51.5 30t49.5 66q6 10 17 45.5t14 48.5q18 85 25 96q8 7 59.5 24t65.5 18q2 0 5.5 -4.5
t3.5 -9.5q-6 -13 -18 -57q-39 -158 -42 -233q-2 -23 10 -23q6 0 14.5 4t14.5 8.5t16 12.5t13 11q5 -5 5 -10q0 -32 -11 -50q-33 -40 -83 -66t-80 -26q-47 0 -35 86l7 42q-2 2 -5 0q-31 -38 -80 -79q-58 -49 -114 -49q-74 0 -46 139q27 128 36 169zM255 598q24 0 40 -13
q2 -7 2.5 -19t-0.5 -17q-5 -33 -37 -59q-7 -7 -34 -9t-34 3q-19 9 -26 42q-3 33 12 48q27 24 77 24zM434 598q25 0 39 -12q7 -16 4 -37q-6 -35 -34 -57q-8 -6 -36 -9t-35 1q-21 10 -26 42q-2 10 1.5 25.5t9.5 22.5q29 24 77 24z" />
    <glyph glyph-name="yacute" unicode="&#xfd;" horiz-adv-x="449" 
d="M184 427q36 0 54 -91q24 -122 28 -223q2 -2 4 0q35 57 51.5 104t16.5 68q0 39 -21 85q-3 8 15 21t49 26.5t39 13.5t13 -15.5t5 -31.5q0 -63 -35 -138q-58 -121 -138 -233.5t-142 -172.5q-82 -79 -140 -79q-25 0 -25 16q0 14 24.5 58.5t41.5 60.5q6 6 16 6q26 -9 44 -9
q29 0 68 60q6 8 6 21q4 86 -40 282q-12 50 -27 50q-23 0 -64 -41q-2 -4 -6 4q-2 3 -2 6q-4 28 8 44q32 40 76 74t81 34zM437 643q7 -11 3 -24q-15 -21 -82.5 -82.5t-92.5 -77.5q-4 -1 -21.5 11t-18.5 16q78 134 94 153q13 4 61.5 6t56.5 -2z" />
    <glyph glyph-name="thorn" unicode="&#xfe;" horiz-adv-x="523" 
d="M186 -16q-11 0 -25 2q-11 -57 -15 -103q-2 -33 22 -40q6 -2 27 -4t32 -4q2 -4 -1.5 -21.5t-6.5 -21.5q-114 1 -292 -25q-3 6 -0.5 23.5t5.5 21.5q4 1 21.5 6t23.5 7q24 8 32 41q7 27 14.5 66.5t19.5 110.5t22 128q61 341 66 378q0 13 -9 13q-24 0 -64 -8q-5 5 -1 25.5
t10 23.5q45 20 108.5 41.5t84.5 21.5q22 -2 10 -66q-7 -35 -24.5 -127t-28.5 -147q-1 -2 2 -2t4 1q41 44 91.5 73t94.5 29q39 0 60 -36.5t20 -89.5q-2 -67 -32 -133t-68 -101q-48 -43 -102.5 -63t-100.5 -20zM242 48q22 0 50 31q23 26 41.5 81t19.5 112q2 65 -31 65
q-37 0 -93 -72q-19 -25 -33 -73.5t-14 -78.5q0 -28 10 -41q18 -24 50 -24z" />
    <glyph glyph-name="ydieresis" unicode="&#xff;" horiz-adv-x="449" 
d="M184 427q36 0 54 -91q24 -122 28 -223q2 -2 4 0q35 57 51.5 104t16.5 68q0 39 -21 85q-3 8 15 21t49 26.5t39 13.5t13 -15.5t5 -31.5q0 -63 -35 -138q-58 -121 -138 -233.5t-142 -172.5q-82 -79 -140 -79q-25 0 -25 16q0 14 24.5 58.5t41.5 60.5q6 6 16 6q26 -9 44 -9
q29 0 68 60q6 8 6 21q4 86 -40 282q-12 50 -27 50q-23 0 -64 -41q-2 -4 -6 4q-2 3 -2 6q-4 28 8 44q32 40 76 74t81 34zM213 599q24 0 40 -13q2 -7 2.5 -19t-0.5 -17q-5 -33 -37 -59q-7 -7 -34 -9t-34 3q-19 9 -26 42q-3 33 12 48q27 24 77 24zM392 599q25 0 39 -12
q7 -16 4 -37q-6 -35 -34 -57q-8 -6 -36 -9t-35 1q-21 10 -26 42q-2 10 1.5 25.5t9.5 22.5q29 24 77 24z" />
    <glyph glyph-name="uni0100" unicode="&#x100;" horiz-adv-x="642" 
d="M-35 45q57 7 77.5 20t50.5 60q81 131 218 397q13 23 38 86q20 -2 56 -2q28 0 50 2q2 -22 9 -64q1 -8 30.5 -172.5t42.5 -218.5q16 -68 30 -83.5t74 -24.5q5 -3 2 -24.5t-9 -23.5q-3 0 -52 1.5t-109 1.5q-33 0 -68 -1t-56 -1.5t-26 -0.5q-5 6 -4 25t8 23q43 4 58 12
q11 10 11 21q0 42 -17 117q-2 7 -9 7q-21 2 -90 2q-50 0 -64 -1q-4 0 -10 -8q-45 -83 -50 -109q-3 -26 23 -32q19 -5 51 -9q5 -5 0.5 -25t-10.5 -23q-23 0 -67.5 1.5t-67.5 1.5q-19 0 -65 -1.5t-61 -1.5q-6 5 -3 25t9 23zM335 456q-16 -34 -48 -98.5t-40 -80.5q-2 -7 3 -9
q12 -1 55 -1q51 0 58 1q5 0 5 5q-17 126 -29 183h-4zM295 746q20 -2 65 -2q29 0 84.5 -0.5t86.5 -0.5t34 1q1 -10 -12.5 -43t-17.5 -34q-16 -3 -232 -3l-38 2q1 13 13 44.5t17 35.5z" />
    <glyph glyph-name="uni0101" unicode="&#x101;" horiz-adv-x="514" 
d="M484 133q6 0 6 -6q0 -28 -9 -49q-31 -42 -79 -67.5t-81 -25.5q-43 0 -34 68q4 29 9 56q1 2 -1.5 3t-3.5 -1q-103 -126 -184 -126q-35 0 -51.5 33.5t-16.5 77.5q0 63 24 128t63 104q40 40 99.5 69.5t126.5 29.5q63 0 132 -13q-23 -61 -27 -77q-37 -157 -37 -216
q0 -22 11 -22q17 0 53 34zM204 101q19 0 47 26.5t51 70.5q6 13 31 110q5 19 14 42q-19 13 -64 13q-27 0 -47.5 -13t-38.5 -51q-24 -56 -24 -132q0 -66 31 -66zM240 572q18 -2 49 -2q183 0 195 4q-1 -11 -16.5 -42.5t-18.5 -32.5q-29 -9 -207 -9l-34 2q2 8 16 42.5t16 37.5z
" />
    <glyph glyph-name="uni0102" unicode="&#x102;" horiz-adv-x="642" 
d="M-35 45q57 7 77.5 20t50.5 60q81 131 218 397q13 23 38 86q20 -2 56 -2q28 0 50 2q2 -22 9 -64q1 -8 30.5 -172.5t42.5 -218.5q16 -68 30 -83.5t74 -24.5q5 -3 2 -24.5t-9 -23.5q-3 0 -52 1.5t-109 1.5q-33 0 -68 -1t-56 -1.5t-26 -0.5q-5 6 -4 25t8 23q43 4 58 12
q11 10 11 21q0 42 -17 117q-2 7 -9 7q-21 2 -90 2q-50 0 -64 -1q-4 0 -10 -8q-45 -83 -50 -109q-3 -26 23 -32q19 -5 51 -9q5 -5 0.5 -25t-10.5 -23q-23 0 -67.5 1.5t-67.5 1.5q-19 0 -65 -1.5t-61 -1.5q-6 5 -3 25t9 23zM335 456q-16 -34 -48 -98.5t-40 -80.5q-2 -7 3 -9
q12 -1 55 -1q51 0 58 1q5 0 5 5q-17 126 -29 183h-4zM423 716q34 0 57.5 11.5t46.5 43.5q18 11 47 11q6 0 8 -7q-23 -61 -74 -97.5t-120 -36.5q-49 0 -85 27t-32 76q18 23 53 38q4 2 13 2t12 -2q6 -66 74 -66z" />
    <glyph glyph-name="uni0103" unicode="&#x103;" horiz-adv-x="514" 
d="M484 133q6 0 6 -6q0 -28 -9 -49q-31 -42 -79 -67.5t-81 -25.5q-43 0 -34 68q4 29 9 56q1 2 -1.5 3t-3.5 -1q-103 -126 -184 -126q-35 0 -51.5 33.5t-16.5 77.5q0 63 24 128t63 104q40 40 99.5 69.5t126.5 29.5q63 0 132 -13q-23 -61 -27 -77q-37 -157 -37 -216
q0 -22 11 -22q17 0 53 34zM204 101q19 0 47 26.5t51 70.5q6 13 31 110q5 19 14 42q-19 13 -64 13q-27 0 -47.5 -13t-38.5 -51q-24 -56 -24 -132q0 -66 31 -66zM351 544q32 0 56 13t50 48q1 1 8 3.5t17.5 5t17.5 3.5q4 1 7 -2t3 -5q-22 -68 -72.5 -106t-120.5 -38
q-49 0 -83 27.5t-31 81.5q6 10 23.5 25t27.5 18q15 4 24 0q5 -42 22.5 -58t50.5 -16z" />
    <glyph glyph-name="uni0104" unicode="&#x104;" horiz-adv-x="642" 
d="M641 45q5 -3 2 -24.5t-9 -23.5q-4 0 -30 1.5t-80 1.5q-78 -71 -78 -107q0 -43 42 -43q18 0 51 13q3 -4 0 -22t-5 -21q-19 -23 -51.5 -35.5t-58.5 -12.5q-33 0 -59.5 19t-26.5 63q0 37 33 71t91 75q-31 0 -63.5 -1t-52 -1.5t-23.5 -0.5q-5 6 -4 25t8 23q45 5 58 12
q11 10 11 21q0 42 -17 117q-2 7 -9 7q-21 2 -90 2q-50 0 -64 -1q-4 0 -10 -8q-45 -83 -50 -109q-3 -26 23 -32q19 -5 51 -9q5 -5 0.5 -25t-10.5 -23q-23 0 -67.5 1.5t-67.5 1.5q-19 0 -65 -1.5t-61 -1.5q-6 5 -3 25t9 23q57 7 77.5 20t50.5 60q81 131 218 397q13 23 38 86
q20 -2 56 -2q28 0 50 2q1 -19 9 -64q1 -8 30.5 -172.5t42.5 -218.5q16 -68 30 -83.5t74 -24.5zM335 456q-16 -34 -48 -98.5t-40 -80.5q-2 -7 3 -9q12 -1 55 -1q51 0 58 1q5 0 5 5q-17 126 -29 183h-4z" />
    <glyph glyph-name="uni0105" unicode="&#x105;" horiz-adv-x="509" 
d="M292 109q0 2 -2 3t-3 -1q-44 -54 -95.5 -90t-88.5 -36q-35 0 -49.5 33t-14.5 78q0 64 24 129.5t63 102.5q45 42 104.5 70.5t115.5 28.5q65 0 134 -13q-23 -61 -27 -77q-37 -157 -37 -224q0 -15 12 -15q15 0 52 35q6 0 6 -6q0 -28 -9 -49q-25 -33 -81 -71
q-80 -54 -80 -105q0 -41 39 -41q27 0 51 14q2 -4 -0.5 -21.5t-4.5 -20.5q-18 -22 -50 -34.5t-56 -12.5q-31 0 -55.5 17.5t-24.5 57.5q0 55 98 125q-36 4 -29 66zM200 101q19 0 47 26.5t51 70.5q10 19 31 110q3 14 14 42q-20 13 -64 13q-55 0 -86 -65q-24 -56 -24 -131
q0 -66 31 -66z" />
    <glyph glyph-name="uni0106" unicode="&#x106;" horiz-adv-x="651" 
d="M571 433q-3 54 -13 78t-37 41q-31 20 -87 20q-85 0 -142 -81.5t-58 -201.5q-1 -119 51 -174.5t138 -55.5q30 0 55 9q46 16 119 96q8 -3 19 -18t10 -22q-19 -36 -51.5 -68.5t-67.5 -48.5q-53 -25 -145 -25q-147 0 -218.5 77.5t-71.5 198.5q0 115 60 206t168 132
q73 28 167 28q44 0 112 -11q51 -8 71 -9q-17 -64 -28 -166q-7 -8 -25 -8.5t-26 3.5zM612 766q3 -10 -4 -17q-17 -14 -106.5 -53.5t-99.5 -39.5q-4 0 -15.5 18.5t-10.5 23.5q9 11 77.5 73t78.5 66q14 0 45.5 -29t34.5 -42z" />
    <glyph glyph-name="uni0107" unicode="&#x107;" horiz-adv-x="405" 
d="M244 363q-28 0 -48 -51t-20 -129q0 -47 17.5 -75.5t51.5 -28.5q52 0 125 66q6 0 6 -8q0 -36 -9 -48q-41 -53 -96.5 -79t-107.5 -26q-67 0 -98 49q-24 36 -24 100q0 73 30.5 137t78.5 97q38 26 83.5 43t79.5 17q52 0 76 -19q16 -12 8 -31q-8 -18 -26 -43t-31 -31
q-4 -2 -17 2q-51 58 -79 58zM447 644q7 -11 3 -24q-15 -21 -82.5 -82.5t-92.5 -77.5q-4 -1 -21.5 11t-18.5 16q78 134 94 153q13 4 61.5 6t56.5 -2z" />
    <glyph glyph-name="uni0108" unicode="&#x108;" horiz-adv-x="651" 
d="M571 433q-3 54 -13 78t-37 41q-31 20 -87 20q-85 0 -142 -81.5t-58 -201.5q-1 -119 51 -174.5t138 -55.5q30 0 55 9q46 16 119 96q8 -3 19 -18t10 -22q-19 -36 -51.5 -68.5t-67.5 -48.5q-53 -25 -145 -25q-147 0 -218.5 77.5t-71.5 198.5q0 115 60 206t168 132
q73 28 167 28q44 0 112 -11q51 -8 71 -9q-17 -64 -28 -166q-7 -8 -25 -8.5t-26 3.5zM442 804q12 6 30 9q36 -41 125 -118q1 -7 -8.5 -21t-15.5 -14q-5 0 -51.5 18t-72.5 30q-7 4 -14 0q-19 -9 -76 -28.5t-66 -19.5q-5 0 -11 16t-4 21q31 17 91 55.5t73 51.5z" />
    <glyph glyph-name="uni0109" unicode="&#x109;" horiz-adv-x="405" 
d="M244 363q-28 0 -48 -51t-20 -129q0 -47 17.5 -75.5t51.5 -28.5q52 0 125 66q6 0 6 -8q0 -36 -9 -48q-41 -53 -96.5 -79t-107.5 -26q-67 0 -98 49q-24 36 -24 100q0 73 30.5 137t78.5 97q38 26 83.5 43t79.5 17q52 0 76 -19q16 -12 8 -31q-8 -18 -26 -43t-31 -31
q-4 -2 -17 2q-51 58 -79 58zM291 544q-61 -75 -74 -81q-43 -12 -57 -8q-6 5 -4 10q106 122 132 162q1 3 25.5 10t29.5 7q41 -122 68 -173q-3 -5 -27 -13t-41 -8q-3 0 -7.5 6t-9.5 17.5t-9 21.5t-10.5 26t-9.5 23q-2 4 -6 0z" />
    <glyph glyph-name="uni010A" unicode="&#x10a;" horiz-adv-x="651" 
d="M571 433q-3 54 -13 78t-37 41q-31 20 -87 20q-85 0 -142 -81.5t-58 -201.5q-1 -119 51 -174.5t138 -55.5q30 0 55 9q46 16 119 96q8 -3 19 -18t10 -22q-19 -36 -51.5 -68.5t-67.5 -48.5q-53 -25 -145 -25q-147 0 -218.5 77.5t-71.5 198.5q0 115 60 206t168 132
q73 28 167 28q44 0 112 -11q51 -8 71 -9q-17 -64 -28 -166q-7 -8 -25 -8.5t-26 3.5zM527 743q-7 -43 -35 -65q-7 -7 -41.5 -9.5t-42.5 2.5q-12 5 -22 21t-11 31q-3 31 14 50q28 25 85 25q37 0 49 -14q9 -17 4 -41z" />
    <glyph glyph-name="uni010B" unicode="&#x10b;" horiz-adv-x="405" 
d="M244 363q-28 0 -48 -51t-20 -129q0 -47 17.5 -75.5t51.5 -28.5q52 0 125 66q6 0 6 -8q0 -36 -9 -48q-41 -53 -96.5 -79t-107.5 -26q-67 0 -98 49q-24 36 -24 100q0 73 30.5 137t78.5 97q38 26 83.5 43t79.5 17q52 0 76 -19q16 -12 8 -31q-8 -18 -26 -43t-31 -31
q-4 -2 -17 2q-51 58 -79 58zM319 606q27 0 44 -14q6 -16 3 -40q-6 -35 -41 -65q-7 -7 -37 -9t-38 3q-21 9 -29 46q-3 36 14 53q29 26 84 26z" />
    <glyph glyph-name="uni010C" unicode="&#x10c;" horiz-adv-x="651" 
d="M571 433q-3 54 -13 78t-37 41q-31 20 -87 20q-85 0 -142 -81.5t-58 -201.5q-1 -119 51 -174.5t138 -55.5q30 0 55 9q46 16 119 96q8 -3 19 -18t10 -22q-19 -36 -51.5 -68.5t-67.5 -48.5q-53 -25 -145 -25q-147 0 -218.5 77.5t-71.5 198.5q0 115 60 206t168 132
q73 28 167 28q44 0 112 -11q51 -8 71 -9q-17 -64 -28 -166q-7 -8 -25 -8.5t-26 3.5zM457 660q-12 -6 -30 -9q-9 10 -34 33t-56 50.5t-36 32.5q1 5 11.5 20t14.5 15q5 0 57 -22.5t64 -29.5q7 -4 14 0q21 10 80.5 31t64.5 21t11 -16.5t4 -21.5q-10 -6 -82 -50.5t-83 -53.5z
" />
    <glyph glyph-name="uni010D" unicode="&#x10d;" horiz-adv-x="405" 
d="M244 363q-28 0 -48 -51t-20 -129q0 -47 17.5 -75.5t51.5 -28.5q52 0 125 66q6 0 6 -8q0 -36 -9 -48q-41 -53 -96.5 -79t-107.5 -26q-67 0 -98 49q-24 36 -24 100q0 73 30.5 137t78.5 97q38 26 83.5 43t79.5 17q52 0 76 -19q16 -12 8 -31q-8 -18 -26 -43t-31 -31
q-4 -2 -17 2q-51 58 -79 58zM309 550q61 74 74 81q42 13 57 8q4 -2 4 -10q-106 -122 -132 -162q-1 -3 -25.5 -10t-29.5 -7q-41 122 -68 173q3 5 27 13t41 8q3 0 7.5 -6t9.5 -17.5t9 -21.5t10.5 -26t9.5 -23q2 -4 6 0z" />
    <glyph glyph-name="uni010E" unicode="&#x10e;" horiz-adv-x="726" 
d="M-1 45q12 2 31.5 4.5t32.5 5.5q34 6 43 47q9 43 35.5 208t27.5 196q2 23 -2.5 32.5t-23.5 14.5q-6 2 -27.5 4.5t-27.5 3.5q-5 9 -1.5 26.5t9.5 21.5l52 -1q52 -2 104 -2q80 1 149 1q138 0 218 -71q34 -31 54.5 -84t20.5 -111q0 -179 -141 -280q-62 -43 -130.5 -56
t-165.5 -13q-42 0 -137 2.5t-127 2.5q-4 5 -1.5 24t7.5 24zM254 98q-2 -20 10 -30q21 -20 84 -20t114 55q75 82 75 234q0 51 -17 101t-50 77q-45 38 -105 38q-20 0 -29 -2q-4 -1 -8 -5.5t-5 -8.5q-13 -52 -69 -439zM400 659q-12 -6 -30 -9q-9 10 -34 33t-56 50.5t-36 32.5
q1 5 11.5 20t14.5 15q5 0 57 -22.5t64 -29.5q7 -3 14 0q21 10 80.5 31t64.5 21t11 -16.5t4 -21.5q-10 -6 -82 -50.5t-83 -53.5z" />
    <glyph glyph-name="uni010F" unicode="&#x10f;" horiz-adv-x="545" 
d="M42 112q0 144 88 236q25 26 90.5 52.5t103.5 26.5q15 0 43 -2q9 0 9 7q11 55 18 114q3 24 -13 25t-59 -1q-2 7 2.5 22t8.5 20q36 13 99.5 30t90.5 18q21 0 7 -69q-4 -22 -28 -152t-38 -211.5t-14 -104.5q0 -17 11 -17q17 0 60 36q3 -3 3 -10q0 -25 -8 -45
q-30 -37 -95 -77t-92 -40q-8 0 -14.5 7t-6.5 15q0 21 13 105q-1 0 -2 2q-2 2 -3 1q-46 -51 -101 -83.5t-97 -32.5q-39 0 -57.5 39t-18.5 89zM214 91h2q23 0 51 22t50 56q16 25 24 55q12 54 15 96q3 20 -6 29q-22 23 -65 23q-46 0 -75.5 -68.5t-29.5 -147.5q0 -65 34 -65z
M689 690q8 0 5 -17q-4 -28 -29.5 -106t-39.5 -105q-3 -5 -22.5 -19.5t-28.5 -18.5q-3 -1 -6.5 3t-3.5 6q7 38 16 110t8 91v2q1 1 2.5 3.5t3.5 4.5q10 9 46.5 27.5t48.5 18.5z" />
    <glyph glyph-name="uni0110" unicode="&#x110;" horiz-adv-x="736" 
d="M377 554q-17 0 -31 -3q-4 -1 -8 -5.5t-5 -8.5q-10 -35 -32 -198q11 0 72.5 1t67.5 1q1 -5 -5 -24.5t-9 -26.5q-10 0 -56 0.5t-77 0.5q-27 -172 -28 -194q0 -19 12 -29q10 -9 36 -14.5t42 -5.5q67 0 116 53q34 37 54.5 99.5t20.5 136.5q0 51 -17 100t-50 76
q-49 41 -103 41zM98 561q-4 10 -0.5 26t8.5 22q9 0 77 -1.5t79 -1.5q80 1 149 1q139 0 219 -71q34 -31 54 -85t20 -112q0 -178 -142 -279q-61 -43 -129 -55.5t-166 -12.5q-42 0 -137 2.5t-127 2.5q-2 8 0.5 24.5t6.5 23.5q11 2 30 4.5t33 5.5q34 6 43 47q4 20 32 189l-14 -1
q-14 0 -35 -0.5t-39 -0.5q10 45 16 51q4 0 30.5 -0.5t49.5 -0.5q22 131 24 167q2 23 -3 32.5t-24 14.5q-6 2 -27.5 4.5t-27.5 3.5z" />
    <glyph glyph-name="uni0111" unicode="&#x111;" horiz-adv-x="542" 
d="M319 425q19 0 45 -4q6 -1 8 4l8 46h-131q11 45 16 51h123q3 12 3 24v2q0 8 -0.5 12t-4.5 7.5t-13 3.5q-6 0 -24.5 -0.5t-29.5 -0.5q-2 7 2.5 23.5t8.5 21.5q139 44 190 45q21 0 7 -69l-12 -68h71q1 -5 -4.5 -25t-9.5 -26h-67q-52 -267 -58 -349q0 -17 11 -17q14 0 60 31
q3 -3 3 -10q0 -20 -8 -40q-31 -35 -91.5 -72t-95.5 -45q-3 1 -11.5 7.5t-9.5 10.5q-2 12 13 109q-1 0 -2 2q-2 2 -3 1q-46 -51 -101 -83.5t-97 -32.5q-39 0 -57.5 39t-18.5 89q0 144 88 236q25 26 89 51.5t103 25.5zM211 91h2q23 0 51 22t50 56q16 25 24 55q12 55 15 94
q3 20 -6 29q-25 23 -65 23q-46 0 -75.5 -67.5t-29.5 -146.5q0 -65 34 -65z" />
    <glyph glyph-name="uni0112" unicode="&#x112;" horiz-adv-x="612" 
d="M-5 45q54 5 76 12q24 5 34 49q11 51 36 202.5t29 200.5q2 22 -2.5 30t-18.5 11q-14 5 -61 11q-2 6 1.5 25t7.5 23q25 0 82.5 -1.5t81.5 -1.5h202q103 0 135 5q3 -1 3 -9q-17 -47 -33 -154q-7 -6 -29.5 -6.5t-26.5 4.5q-2 39 -8 69q-6 25 -34 27q-97 6 -136 1
q-10 -2 -13 -15q-5 -25 -15.5 -91.5t-15.5 -95.5q0 -6 7 -6q73 0 106 1q33 2 43 28q8 15 18 44q4 4 27.5 2.5t27.5 -5.5q-11 -45 -22 -105q-3 -19 -8.5 -60t-6.5 -50q-7 -4 -27 -3.5t-27 3.5q2 31 -4 51q-5 21 -32 24q-51 3 -104 3q-10 0 -10 -7q-2 -15 -26 -168
q-2 -19 19 -28q22 -5 140 -5q45 0 74 34q33 39 60 83q7 3 26.5 -5.5t22.5 -15.5q-7 -28 -25.5 -75t-33.5 -71q-5 -8 -11.5 -9.5t-29.5 -3.5q-31 0 -133 1.5t-191 1.5q-27 0 -89.5 -1.5t-89.5 -1.5q-4 5 -2 24.5t6 23.5zM261 757q20 -2 65 -2h205q1 -10 -12.5 -43t-17.5 -34
q-16 -3 -232 -3l-38 2q1 13 13 44.5t17 35.5z" />
    <glyph glyph-name="uni0113" unicode="&#x113;" horiz-adv-x="410" 
d="M247 371q-24 0 -46 -30.5t-30 -101.5q0 -2 1.5 -4t3.5 -1q63 14 86 35q20 16 20 49q0 25 -10.5 39t-24.5 14zM308 427q40 0 62 -21.5t22 -58.5q0 -64 -92 -116q-44 -25 -123 -52q-6 -2 -8 -7q-1 -5 -1 -11q0 -32 17.5 -56.5t55.5 -24.5q63 0 133 61q6 0 6 -7
q0 -33 -9 -45q-29 -44 -90.5 -74.5t-120.5 -30.5q-36 0 -61 14t-37.5 38t-17.5 48t-5 52q0 74 28 134t65 90q27 22 83.5 44.5t92.5 22.5zM178 572q18 -2 49 -2q183 0 195 4q-1 -11 -16.5 -42.5t-18.5 -32.5q-29 -9 -207 -9l-34 2q2 8 16 42.5t16 37.5z" />
    <glyph glyph-name="uni0114" unicode="&#x114;" horiz-adv-x="612" 
d="M-5 45q54 5 76 12q24 5 34 49q11 51 36 202.5t29 200.5q2 22 -2.5 30t-18.5 11q-14 5 -61 11q-2 6 1.5 25t7.5 23q25 0 82.5 -1.5t81.5 -1.5h202q103 0 135 5q3 -1 3 -9q-17 -47 -33 -154q-7 -6 -29.5 -6.5t-26.5 4.5q-2 39 -8 69q-6 25 -34 27q-97 6 -136 1
q-10 -2 -13 -15q-5 -25 -15.5 -91.5t-15.5 -95.5q0 -6 7 -6q73 0 106 1q33 2 43 28q8 15 18 44q4 4 27.5 2.5t27.5 -5.5q-11 -45 -22 -105q-3 -19 -8.5 -60t-6.5 -50q-7 -4 -27 -3.5t-27 3.5q2 31 -4 51q-5 21 -32 24q-51 3 -104 3q-10 0 -10 -7q-2 -15 -26 -168
q-2 -19 19 -28q22 -5 140 -5q45 0 74 34q33 39 60 83q7 3 26.5 -5.5t22.5 -15.5q-7 -28 -25.5 -75t-33.5 -71q-5 -8 -11.5 -9.5t-29.5 -3.5q-31 0 -133 1.5t-191 1.5q-27 0 -89.5 -1.5t-89.5 -1.5q-4 5 -2 24.5t6 23.5zM393 733q34 0 57.5 11.5t46.5 43.5q18 11 47 11
q6 0 8 -7q-23 -61 -74 -97.5t-120 -36.5q-49 0 -85 27t-32 76q18 23 53 38q4 1 13 1t12 -1q6 -66 74 -66z" />
    <glyph glyph-name="uni0115" unicode="&#x115;" horiz-adv-x="410" 
d="M247 371q-24 0 -46 -30.5t-30 -101.5q0 -2 1.5 -4t3.5 -1q63 14 86 35q20 16 20 49q0 25 -10.5 39t-24.5 14zM308 427q40 0 62 -21.5t22 -58.5q0 -64 -92 -116q-44 -25 -123 -52q-6 -2 -8 -7q-1 -5 -1 -11q0 -32 17.5 -56.5t55.5 -24.5q63 0 133 61q6 0 6 -7
q0 -33 -9 -45q-29 -44 -90.5 -74.5t-120.5 -30.5q-36 0 -61 14t-37.5 38t-17.5 48t-5 52q0 74 28 134t65 90q27 22 83.5 44.5t92.5 22.5zM285 544q32 0 56 13t50 48q1 1 8 3.5t17.5 5t17.5 3.5q4 1 7 -2t3 -5q-22 -68 -72.5 -106t-120.5 -38q-49 0 -83 27.5t-31 81.5
q6 10 23.5 25t27.5 18q15 4 24 0q5 -42 22.5 -58t50.5 -16z" />
    <glyph glyph-name="uni0116" unicode="&#x116;" horiz-adv-x="612" 
d="M-5 45q54 5 76 12q24 5 34 49q11 51 36 202.5t29 200.5q2 22 -2.5 30t-18.5 11q-14 5 -61 11q-2 6 1.5 25t7.5 23q25 0 82.5 -1.5t81.5 -1.5h202q103 0 135 5q3 -1 3 -9q-17 -47 -33 -154q-7 -6 -29.5 -6.5t-26.5 4.5q-2 39 -8 69q-6 25 -34 27q-97 6 -136 1
q-10 -2 -13 -15q-5 -25 -15.5 -91.5t-15.5 -95.5q0 -6 7 -6q73 0 106 1q33 2 43 28q8 15 18 44q4 4 27.5 2.5t27.5 -5.5q-11 -45 -22 -105q-3 -19 -8.5 -60t-6.5 -50q-7 -4 -27 -3.5t-27 3.5q2 31 -4 51q-5 21 -32 24q-51 3 -104 3q-10 0 -10 -7q-2 -15 -26 -168
q-2 -19 19 -28q22 -5 140 -5q45 0 74 34q33 39 60 83q7 3 26.5 -5.5t22.5 -15.5q-7 -28 -25.5 -75t-33.5 -71q-5 -8 -11.5 -9.5t-29.5 -3.5q-31 0 -133 1.5t-191 1.5q-27 0 -89.5 -1.5t-89.5 -1.5q-4 5 -2 24.5t6 23.5zM458 729q-7 -43 -35 -65q-7 -7 -41.5 -9.5t-42.5 2.5
q-12 5 -22 21t-11 31q-3 31 14 50q28 25 85 25q37 0 49 -14q9 -17 4 -41z" />
    <glyph glyph-name="uni0117" unicode="&#x117;" horiz-adv-x="410" 
d="M247 371q-24 0 -46 -30.5t-30 -101.5q0 -2 1.5 -4t3.5 -1q63 14 86 35q20 16 20 49q0 25 -10.5 39t-24.5 14zM308 427q40 0 62 -21.5t22 -58.5q0 -64 -92 -116q-44 -25 -123 -52q-6 -2 -8 -7q-1 -5 -1 -11q0 -32 17.5 -56.5t55.5 -24.5q63 0 133 61q6 0 6 -7
q0 -33 -9 -45q-29 -44 -90.5 -74.5t-120.5 -30.5q-36 0 -61 14t-37.5 38t-17.5 48t-5 52q0 74 28 134t65 90q27 22 83.5 44.5t92.5 22.5zM306 605q27 0 44 -14q6 -16 3 -40q-6 -35 -41 -65q-7 -7 -37 -9t-38 3q-21 9 -29 46q-3 36 14 53q29 26 84 26z" />
    <glyph glyph-name="uni0118" unicode="&#x118;" horiz-adv-x="612" 
d="M412 -2h-1q-30 0 -93 1t-148 1q-27 0 -89.5 -1.5t-89.5 -1.5q-4 5 -2 24.5t6 23.5q54 5 76 12q24 5 34 49q11 51 36 202.5t29 200.5q2 22 -2.5 30t-18.5 11q-14 5 -61 11q-2 6 1.5 25t7.5 23q25 0 82.5 -1.5t81.5 -1.5h202q103 0 135 5l3 -6q-16 -45 -33 -157
q-7 -6 -29.5 -6.5t-26.5 4.5q-2 39 -8 69q-6 25 -34 27q-97 6 -136 1q-10 -2 -13 -15q-5 -25 -15.5 -91.5t-15.5 -95.5q0 -6 7 -6q73 0 106 1q33 2 43 28q8 15 18 44q4 4 27.5 2.5t27.5 -5.5q-11 -45 -22 -105q-3 -19 -8.5 -60t-6.5 -50q-7 -4 -27 -3.5t-27 3.5q2 31 -4 51
q-5 21 -32 24q-51 3 -104 3q-10 0 -10 -7q-2 -15 -26 -168q-2 -19 19 -28q22 -5 140 -5q45 0 74 34q33 39 60 83q7 3 26.5 -5.5t22.5 -15.5q-7 -30 -25 -77t-34 -69q-11 -14 -66 -13q-73 -67 -73 -104q0 -43 42 -43q18 0 51 13q3 -4 0 -22t-5 -21q-19 -23 -51.5 -35.5
t-58.5 -12.5q-33 0 -59.5 19t-26.5 63q0 58 124 144z" />
    <glyph glyph-name="uni0119" unicode="&#x119;" horiz-adv-x="410" 
d="M247 371q-24 0 -46 -30.5t-30 -101.5q0 -2 1.5 -4t3.5 -1q63 14 86 35q20 16 20 49q0 25 -10.5 39t-24.5 14zM308 427q40 0 62 -21.5t22 -58.5q0 -64 -92 -116q-44 -25 -123 -52q-6 -2 -8 -7q-1 -5 -1 -11q0 -32 17.5 -56.5t55.5 -24.5q63 0 133 61q6 0 6 -7
q0 -33 -9 -45q-25 -39 -92 -76q-33 -20 -53 -50t-20 -50q0 -41 39 -41q20 0 48 12q2 -4 -0.5 -21t-4.5 -20q-18 -22 -48.5 -34t-54.5 -12q-31 0 -55.5 18t-24.5 60q0 45 84 111q-18 -2 -29 -2q-36 0 -61 14t-37.5 38t-17.5 48t-5 52q0 74 28 134t65 90q27 22 83.5 44.5
t92.5 22.5z" />
    <glyph glyph-name="uni011A" unicode="&#x11a;" horiz-adv-x="612" 
d="M-5 45q54 5 76 12q24 5 34 49q11 51 36 202.5t29 200.5q2 22 -2.5 30t-18.5 11q-14 5 -61 11q-2 6 1.5 25t7.5 23q25 0 82.5 -1.5t81.5 -1.5h202q103 0 135 5q3 -1 3 -9q-17 -47 -33 -154q-7 -6 -29.5 -6.5t-26.5 4.5q-2 39 -8 69q-6 25 -34 27q-97 6 -136 1
q-10 -2 -13 -15q-5 -25 -15.5 -91.5t-15.5 -95.5q0 -6 7 -6q73 0 106 1q33 2 43 28q8 15 18 44q4 4 27.5 2.5t27.5 -5.5q-11 -45 -22 -105q-3 -19 -8.5 -60t-6.5 -50q-7 -4 -27 -3.5t-27 3.5q2 31 -4 51q-5 21 -32 24q-51 3 -104 3q-10 0 -10 -7q-2 -15 -26 -168
q-2 -19 19 -28q22 -5 140 -5q45 0 74 34q33 39 60 83q7 3 26.5 -5.5t22.5 -15.5q-7 -28 -25.5 -75t-33.5 -71q-5 -8 -11.5 -9.5t-29.5 -3.5q-31 0 -133 1.5t-191 1.5q-27 0 -89.5 -1.5t-89.5 -1.5q-4 5 -2 24.5t6 23.5zM390 648q-12 -6 -30 -9q-9 10 -34 33t-56 50.5
t-36 32.5q1 5 11.5 20t14.5 15q5 0 57 -22.5t64 -29.5q7 -4 14 0q21 10 80.5 31t64.5 21t11 -16.5t4 -21.5q-10 -6 -82 -50.5t-83 -53.5z" />
    <glyph glyph-name="uni011B" unicode="&#x11b;" horiz-adv-x="410" 
d="M247 371q-24 0 -46 -30.5t-30 -101.5q0 -2 1.5 -4t3.5 -1q63 14 86 35q20 16 20 49q0 25 -10.5 39t-24.5 14zM308 427q40 0 62 -21.5t22 -58.5q0 -64 -92 -116q-44 -25 -123 -52q-6 -2 -8 -7q-1 -5 -1 -11q0 -32 17.5 -56.5t55.5 -24.5q63 0 133 61q6 0 6 -7
q0 -33 -9 -45q-29 -44 -90.5 -74.5t-120.5 -30.5q-36 0 -61 14t-37.5 38t-17.5 48t-5 52q0 74 28 134t65 90q27 22 83.5 44.5t92.5 22.5zM295 550q61 74 74 81q41 13 57 8q4 -2 4 -10q-106 -122 -132 -162q-1 -3 -25.5 -10t-29.5 -7q-41 122 -68 173q3 5 27 13t41 8
q3 0 7.5 -6t9.5 -17.5t9 -21.5t10.5 -26t9.5 -23q2 -4 6 0z" />
    <glyph glyph-name="uni011C" unicode="&#x11c;" horiz-adv-x="726" 
d="M615 47q2 -2 -1 -13.5t-6 -14.5q-136 -36 -229 -36q-308 0 -308 276q0 114 62.5 204.5t161.5 128.5q82 31 191 31q60 0 129 -13q42 -8 78 -12q-30 -88 -42 -182q-5 -6 -25.5 -6t-27.5 4q4 100 -39 128q-37 28 -113 28q-83 0 -148.5 -85.5t-65.5 -230.5q0 -90 46.5 -153
t120.5 -63q26 0 38 12q9 9 13 28q8 31 17 92q4 19 0.5 34.5t-21.5 22.5q-16 5 -72 14q-3 7 1 25.5t7 22.5q2 0 57 -1.5t120 -1.5q58 0 96.5 1.5t40.5 1.5q4 -6 -0.5 -25.5t-9.5 -25.5q-37 -7 -38 -7q-12 -4 -18 -12t-11 -26q-5 -16 -18 -113q-1 -13 1 -19t13 -14zM470 805
q12 6 30 9q36 -41 125 -118q1 -7 -8.5 -21t-15.5 -14q-5 0 -51.5 18t-72.5 30q-7 3 -14 0q-19 -9 -76 -28.5t-66 -19.5q-5 0 -11 16t-4 21q31 17 91 55.5t73 51.5z" />
    <glyph glyph-name="uni011D" unicode="&#x11d;" horiz-adv-x="450" 
d="M484 409q6 -3 6 -15q-3 -14 -12.5 -32t-22.5 -26q-19 -11 -50 -13v-16q0 -96 -75 -149q-54 -38 -119 -42q-9 0 -19 -2q-12 -2 -12 -10q0 -13 28 -24q100 -37 132 -55q35 -20 53.5 -41.5t18.5 -55.5t-24 -68.5t-72 -61.5q-69 -40 -143 -40q-88 0 -145 39t-57 91
q0 24 24.5 41.5t94.5 52.5q2 2 0 3q-40 31 -40 59q0 13 6 19q16 17 74 48q6 3 0 5q-41 12 -62.5 42.5t-21.5 73.5q0 46 23 86.5t60 66.5q61 42 135 42q35 0 99 -24q33 -13 51 -13q29 0 70 19zM221 -184q38 0 58.5 13t20.5 34q0 27 -32 48q-30 19 -68 35.5t-57 16.5
q-16 0 -41.5 -18t-25.5 -36q0 -39 44 -66t101 -27zM218 162q30 0 47.5 47t18.5 95q1 77 -43 77q-28 0 -48 -46t-20 -103q0 -70 45 -70zM276 544q-61 -75 -74 -81q-43 -12 -57 -8q-5 5 -4 10q106 122 132 162q1 3 25.5 10t29.5 7q41 -122 68 -173q-3 -5 -27 -13t-41 -8
q-3 0 -7.5 6t-9.5 17.5t-9 21.5t-10.5 26t-9.5 23q-2 4 -6 0z" />
    <glyph glyph-name="uni011E" unicode="&#x11e;" horiz-adv-x="726" 
d="M615 47q2 -2 -1 -13.5t-6 -14.5q-136 -36 -229 -36q-308 0 -308 276q0 114 62.5 204.5t161.5 128.5q82 31 191 31q60 0 129 -13q42 -8 78 -12q-30 -88 -42 -182q-5 -6 -25.5 -6t-27.5 4q4 100 -39 128q-37 28 -113 28q-83 0 -148.5 -85.5t-65.5 -230.5q0 -90 46.5 -153
t120.5 -63q26 0 38 12q9 9 13 28q8 31 17 92q4 19 0.5 34.5t-21.5 22.5q-16 5 -72 14q-3 7 1 25.5t7 22.5q2 0 57 -1.5t120 -1.5q58 0 96.5 1.5t40.5 1.5q4 -6 -0.5 -25.5t-9.5 -25.5q-37 -7 -38 -7q-12 -4 -18 -12t-11 -26q-5 -16 -18 -113q-1 -13 1 -19t13 -14zM488 743
q34 0 57.5 11.5t46.5 43.5q18 11 47 11q6 0 8 -7q-23 -61 -74 -97.5t-120 -36.5q-49 0 -85 27t-32 76q18 23 53 38q5 1 13.5 1t11.5 -1q6 -66 74 -66z" />
    <glyph glyph-name="uni011F" unicode="&#x11f;" horiz-adv-x="450" 
d="M484 409q6 -3 6 -15q-3 -14 -12.5 -32t-22.5 -26q-19 -11 -50 -13v-16q0 -96 -75 -149q-54 -38 -119 -42q-9 0 -19 -2q-12 -2 -12 -10q0 -13 28 -24q100 -37 132 -55q35 -20 53.5 -41.5t18.5 -55.5t-24 -68.5t-72 -61.5q-69 -40 -143 -40q-88 0 -145 39t-57 91
q0 24 24.5 41.5t94.5 52.5q2 2 0 3q-40 31 -40 59q0 13 6 19q16 17 74 48q6 3 0 5q-41 12 -62.5 42.5t-21.5 73.5q0 46 23 86.5t60 66.5q61 42 135 42q35 0 99 -24q33 -13 51 -13q29 0 70 19zM221 -184q38 0 58.5 13t20.5 34q0 27 -32 48q-30 19 -68 35.5t-57 16.5
q-16 0 -41.5 -18t-25.5 -36q0 -39 44 -66t101 -27zM218 162q30 0 47.5 47t18.5 95q1 77 -43 77q-28 0 -48 -46t-20 -103q0 -70 45 -70zM284 544q32 0 56 13t50 48q1 1 8 3.5t17.5 5t17.5 3.5q3 1 6.5 -2t3.5 -5q-22 -68 -72.5 -106t-120.5 -38q-49 0 -83 27.5t-31 81.5
q6 10 23.5 25t27.5 18q15 4 24 0q5 -42 22.5 -58t50.5 -16z" />
    <glyph glyph-name="uni0120" unicode="&#x120;" horiz-adv-x="726" 
d="M615 47q2 -2 -1 -13.5t-6 -14.5q-136 -36 -229 -36q-308 0 -308 276q0 114 62.5 204.5t161.5 128.5q82 31 191 31q60 0 129 -13q42 -8 78 -12q-30 -88 -42 -182q-5 -6 -25.5 -6t-27.5 4q4 100 -39 128q-37 28 -113 28q-83 0 -148.5 -85.5t-65.5 -230.5q0 -90 46.5 -153
t120.5 -63q26 0 38 12q9 9 13 28q8 31 17 92q4 19 0.5 34.5t-21.5 22.5q-16 5 -72 14q-3 7 1 25.5t7 22.5q2 0 57 -1.5t120 -1.5q58 0 96.5 1.5t40.5 1.5q4 -6 -0.5 -25.5t-9.5 -25.5q-37 -7 -38 -7q-12 -4 -18 -12t-11 -26q-5 -16 -18 -113q-1 -13 1 -19t13 -14zM565 743
q-7 -43 -35 -65q-7 -7 -41.5 -9.5t-42.5 2.5q-12 5 -22 21t-11 31q-3 31 14 50q28 25 85 25q37 0 49 -14q9 -17 4 -41z" />
    <glyph glyph-name="uni0121" unicode="&#x121;" horiz-adv-x="450" 
d="M484 409q6 -3 6 -15q-3 -14 -12.5 -32t-22.5 -26q-19 -11 -50 -13v-16q0 -96 -75 -149q-54 -38 -119 -42q-9 0 -19 -2q-12 -2 -12 -10q0 -13 28 -24q100 -37 132 -55q35 -20 53.5 -41.5t18.5 -55.5t-24 -68.5t-72 -61.5q-69 -40 -143 -40q-88 0 -145 39t-57 91
q0 24 24.5 41.5t94.5 52.5q2 2 0 3q-40 31 -40 59q0 13 6 19q16 17 74 48q6 3 0 5q-41 12 -62.5 42.5t-21.5 73.5q0 46 23 86.5t60 66.5q61 42 135 42q35 0 99 -24q33 -13 51 -13q29 0 70 19zM221 -184q38 0 58.5 13t20.5 34q0 27 -32 48q-30 19 -68 35.5t-57 16.5
q-16 0 -41.5 -18t-25.5 -36q0 -39 44 -66t101 -27zM218 162q30 0 47.5 47t18.5 95q1 77 -43 77q-28 0 -48 -46t-20 -103q0 -70 45 -70zM296 609q27 0 44 -14q6 -16 3 -40q-6 -35 -41 -65q-7 -7 -37 -9t-38 3q-21 9 -29 46q-3 36 14 53q29 26 84 26z" />
    <glyph glyph-name="uni0122" unicode="&#x122;" horiz-adv-x="726" 
d="M615 47q2 -2 -1 -13.5t-6 -14.5q-136 -36 -229 -36q-308 0 -308 276q0 114 62.5 204.5t161.5 128.5q82 31 191 31q60 0 129 -13q42 -8 78 -12q-30 -88 -42 -182q-5 -6 -25.5 -6t-27.5 4q4 100 -39 128q-37 28 -113 28q-83 0 -148.5 -85.5t-65.5 -230.5q0 -90 46.5 -153
t120.5 -63q26 0 38 12q9 9 13 28q8 31 17 92q4 19 0.5 34.5t-21.5 22.5q-16 5 -72 14q-3 7 1 25.5t7 22.5q2 0 57 -1.5t120 -1.5q58 0 96.5 1.5t40.5 1.5q4 -6 -0.5 -25.5t-9.5 -25.5q-37 -7 -38 -7q-12 -4 -18 -12t-11 -26q-5 -16 -18 -113q-1 -13 1 -19t13 -14zM376 -43
q25 0 43.5 -27t14.5 -65q-7 -54 -50 -88t-109 -44q-5 5 -9.5 21.5t-3.5 21.5q48 17 63 29.5t16 32.5q1 16 -12.5 27t-46.5 21q-2 14 4 28q11 13 41 28t49 15z" />
    <glyph glyph-name="uni0123" unicode="&#x123;" horiz-adv-x="450" 
d="M266 448q-25 0 -43.5 27t-14.5 65q7 54 50 88t109 44q5 -5 9.5 -21.5t3.5 -21.5q-48 -17 -63 -29.5t-16 -32.5q-1 -16 12.5 -27t46.5 -21q2 -14 -4 -28q-11 -13 -41 -28t-49 -15zM484 409q6 -3 6 -15q-3 -14 -12.5 -32t-22.5 -26q-19 -11 -50 -13v-16q0 -96 -75 -149
q-54 -38 -119 -42q-9 0 -19 -2q-12 -2 -12 -10q0 -13 28 -24q100 -37 132 -55q35 -20 53.5 -41.5t18.5 -55.5t-24 -68.5t-72 -61.5q-69 -40 -143 -40q-88 0 -145 39t-57 91q0 24 24.5 41.5t94.5 52.5q2 2 0 3q-40 31 -40 59q0 13 6 19q16 17 74 48q6 3 0 5
q-41 12 -62.5 42.5t-21.5 73.5q0 46 23 86.5t60 66.5q61 42 135 42q35 0 99 -24q33 -13 51 -13q29 0 70 19zM221 -184q38 0 58.5 13t20.5 34q0 27 -32 48q-30 19 -68 35.5t-57 16.5q-16 0 -41.5 -18t-25.5 -36q0 -39 44 -66t101 -27zM218 162q30 0 47.5 47t18.5 95
q1 77 -43 77q-28 0 -48 -46t-20 -103q0 -70 45 -70z" />
    <glyph glyph-name="uni0124" unicode="&#x124;" horiz-adv-x="772" 
d="M90 561q-4 3 -1.5 24t7.5 24q6 0 56 -1.5t100 -1.5q56 0 106 1.5t56 1.5q4 -3 1.5 -24t-7.5 -24q-42 -4 -55 -9q-27 -10 -34 -47t-26 -155q1 -5 4 -8q8 -2 115 -2q93 0 111 1q2 0 5 2.5t3 4.5q9 51 25 165q2 31 -16 37q-21 7 -60 12q-2 7 0.5 25.5t6.5 21.5
q4 0 21.5 -0.5t52 -1.5t79.5 -1q50 0 99 1.5t60 1.5q3 -6 1 -22.5t-6 -24.5q-48 -7 -58 -12q-27 -9 -35 -53q-39 -197 -61 -393q-4 -37 25 -46q17 -5 64 -13q2 -6 -1 -25.5t-8 -22.5q-5 0 -59 1.5t-108 1.5q-42 0 -77 -1t-55 -1.5t-25 -0.5q-2 5 0.5 25.5t6.5 24.5
q44 7 54 10q24 8 31 37q14 68 30 171q0 7 -6 7q-38 2 -114 2q-104 0 -112 -4q-6 -6 -6 -7l-24 -157q-6 -39 18 -48q2 -1 58 -11q3 -5 -1.5 -27.5t-9.5 -22.5q-3 0 -67.5 1.5t-97.5 1.5q-50 0 -102 -2l-52 -1q-4 5 -1.5 24.5t7.5 23.5q49 8 56 10q20 5 28.5 18t14.5 41
q8 40 34 202t28 187q4 41 -20 48q-21 7 -59 10zM463 791q12 6 30 9q36 -41 125 -118q1 -7 -8.5 -21t-15.5 -14q-5 0 -51.5 18t-72.5 30q-7 3 -14 0q-19 -9 -76 -28.5t-66 -19.5q-5 0 -11 16t-4 21q31 17 91 55.5t73 51.5z" />
    <glyph glyph-name="uni0125" unicode="&#x125;" horiz-adv-x="526" 
d="M196 792q13 8 30 8q3 -3 124 -100q0 -4 -11.5 -19.5t-15.5 -15.5q-5 0 -56.5 19t-62.5 25q-5 2 -10 0q-18 -7 -72 -25.5t-58 -18.5q-5 0 -11.5 15.5t-4.5 20.5q4 2 44 25t68 40.5t36 25.5zM328 327q-18 0 -50 -30t-60 -79q-30 -53 -44 -116q-6 -27 -6 -38.5t7 -33.5
q-8 -10 -56 -27t-71 -21q-3 1 -7.5 6t-5.5 9q-3 11 6 59q14 84 44 236.5t45 238.5q3 18 0.5 25.5t-12.5 8.5q-15 1 -56 -6q-1 6 3 24t8 24q39 19 100 39t90 20q20 0 7 -66q-6 -29 -28 -142.5t-31 -161.5q0 -1 1.5 -1.5t3.5 0.5q112 132 207 132q37 0 45.5 -38.5t-3.5 -90.5
q-35 -182 -35 -183q0 -19 10 -19q15 0 56 32q4 -6 4 -14q-2 -26 -8 -42q-25 -31 -76.5 -59t-92.5 -28q-20 0 -27 22.5t-1 55.5q10 69 41 215q10 49 -8 49z" />
    <glyph glyph-name="Hbar" unicode="&#x126;" horiz-adv-x="772" 
d="M90 561q-3 3 0 24t6 24q6 0 56 -1.5t100 -1.5q56 0 106 1.5t56 1.5q4 -3 1.5 -24t-7.5 -24q-42 -4 -55 -9q-27 -10 -34 -47l-8 -46h238q1 6 7 54q2 31 -16 37q-21 7 -60 12q-2 7 0.5 25.5t6.5 21.5q4 0 21.5 -0.5t52 -1.5t79.5 -1q50 0 99 1.5t60 1.5q3 -6 1 -22.5
t-6 -24.5q-48 -7 -58 -12q-27 -9 -35 -53l-3 -15q-4 -15 -4 -22h34.5t28.5 0.5t12 0.5q1 -8 -3 -26t-8 -25h-74q-29 -175 -44 -306q-4 -37 25 -46q17 -5 64 -13q2 -6 -1 -25.5t-8 -22.5q-5 0 -59 1.5t-108 1.5q-42 0 -77 -1t-55 -1.5t-25 -0.5q-2 5 0.5 25.5t6.5 24.5
q44 7 54 10q24 8 31 37q18 88 28 151q0 7 -6 7q-38 2 -114 2q-104 0 -112 -4q-6 -6 -6 -7q-4 -28 -11.5 -73t-10.5 -64q-6 -39 18 -48q2 -1 58 -11q3 -5 -1.5 -27.5t-9.5 -22.5q-3 0 -67.5 1.5t-97.5 1.5q-50 0 -102 -2l-52 -1q-4 5 -1.5 24.5t7.5 23.5q49 8 56 10
q20 5 28.5 18t14.5 41q20 94 48 295l-1 1h-49l-18 -1q-1 10 4 29t9 22h64q2 8 4 26l1 17q4 41 -20 48q-21 7 -59 10zM410 320q93 0 111 1q2 0 5 2.5t3 4.5q10 60 12 83h-98q-78 0 -140 -1q-2 -13 -12 -80q1 -5 4 -8q8 -2 115 -2z" />
    <glyph glyph-name="hbar" unicode="&#x127;" horiz-adv-x="526" 
d="M64 559q-2 6 1.5 24t7.5 24q40 19 101 39.5t89 19.5q19 -6 7 -66l-18 -88l129 1q1 -5 -4.5 -25t-9.5 -26l-126 -1q-11 -55 -31 -169q2 -2 5 -1q116 136 206 136q64 0 46 -116q-7 -35 -16.5 -83.5t-14.5 -73t-6 -39.5q0 -19 10 -19q15 0 56 32q4 -6 4 -14q-2 -26 -8 -42
q-25 -31 -76.5 -59t-92.5 -28q-20 0 -27 22.5t-1 55.5q5 33 12.5 72.5t18 88t15.5 73.5q6 31 -13 31q-18 0 -50 -30t-60 -80q-31 -55 -44 -113q-6 -28 -6.5 -39t6.5 -36q-8 -10 -55.5 -27t-69.5 -21q-13 12 -13 15q-4 17 4 59q10 59 38.5 202.5t38.5 202.5h-71q10 45 16 51
h65q0 1 3 19t0.5 25.5t-12.5 8.5q-14 1 -54 -6z" />
    <glyph glyph-name="uni0128" unicode="&#x128;" horiz-adv-x="388" 
d="M89 563q-3 7 -0.5 24.5t8.5 21.5q14 0 63 -1.5t90 -1.5t91.5 1.5t73.5 1.5q5 -4 3 -24t-9 -24q-34 -3 -55 -8q-26 -6 -35 -48q-11 -54 -29 -170q-28 -169 -34 -232q-4 -13 0 -28t20 -20q3 -1 58 -11q3 -6 0 -25t-8 -22q-18 0 -49.5 1t-57.5 1.5t-49 0.5q-159 -3 -168 -3
q-3 7 -1 25t6 22q44 6 56 9q17 4 27.5 17t16.5 45q18 87 36 212q21 136 25 184q2 33 -21 40q-12 3 -58 12zM354 748q36 0 83 38q3 3 6 -10q5 -24 2 -33q-17 -25 -58 -49.5t-76 -24.5q-16 0 -69 17q-22 10 -44 10q-20 0 -80 -35q-4 -2 -9 24q-2 14 0 16q15 19 57.5 48.5
t64.5 29.5t68 -17q34 -14 55 -14z" />
    <glyph glyph-name="uni0129" unicode="&#x129;" horiz-adv-x="290" 
d="M259 127q5 0 6 -3q1 -7 -1.5 -25t-5.5 -23q-32 -40 -81.5 -66t-86.5 -26q-50 0 -29 99q7 36 23 109t22 103q4 17 -7 17q-16 0 -44 -20q-7 4 -7 6q0 25 9 41q46 40 94.5 64t74.5 24q17 0 20 -28.5t-4 -58.5q-45 -203 -47 -227q-1 -20 10 -20q18 0 54 34zM270 551
q32 0 78 39q2 3 5 -9q6 -27 3 -35q-15 -24 -52.5 -48t-70.5 -24q-21 0 -68 19q-20 9 -42 9q-30 0 -75 -36q-1 -1 -2.5 10t-1.5 23t2 14q12 18 50.5 44t60.5 26q19 0 63 -17q32 -15 50 -15z" />
    <glyph glyph-name="uni012A" unicode="&#x12a;" horiz-adv-x="388" 
d="M89 563q-3 7 -0.5 24.5t8.5 21.5q14 0 63 -1.5t90 -1.5t91.5 1.5t73.5 1.5q5 -4 3 -24t-9 -24q-34 -3 -55 -8q-26 -6 -35 -48q-11 -54 -29 -170q-28 -169 -34 -232q-4 -13 0 -28t20 -20q3 -1 58 -11q3 -6 0 -25t-8 -22q-18 0 -49.5 1t-57.5 1.5t-49 0.5q-159 -3 -168 -3
q-3 7 -1 25t6 22q44 6 56 9q17 4 27.5 17t16.5 45q18 87 36 212q21 136 25 184q2 33 -21 40q-12 3 -58 12zM157 762q20 -2 65 -2h205q1 -10 -12.5 -43t-17.5 -34q-16 -3 -232 -3l-38 2q1 13 13 44.5t17 35.5z" />
    <glyph glyph-name="uni012B" unicode="&#x12b;" horiz-adv-x="290" 
d="M259 127q5 0 6 -3q1 -7 -1.5 -25t-5.5 -23q-32 -40 -81.5 -66t-86.5 -26q-50 0 -29 99q7 36 23 109t22 103q4 17 -7 17q-16 0 -44 -20q-7 4 -7 6q0 25 9 41q46 40 94.5 64t74.5 24q17 0 20 -28.5t-4 -58.5q-45 -203 -47 -227q-1 -20 10 -20q18 0 54 34zM97 572
q18 -2 49 -2q183 0 195 4q-1 -11 -16.5 -42.5t-18.5 -32.5q-29 -9 -207 -9l-34 2q2 8 16 42.5t16 37.5z" />
    <glyph glyph-name="uni012C" unicode="&#x12c;" horiz-adv-x="388" 
d="M89 563q-3 7 -0.5 24.5t8.5 21.5q14 0 63 -1.5t90 -1.5t91.5 1.5t73.5 1.5q5 -4 3 -24t-9 -24q-34 -3 -55 -8q-26 -6 -35 -48q-11 -54 -29 -170q-28 -169 -34 -232q-4 -13 0 -28t20 -20q3 -1 58 -11q3 -6 0 -25t-8 -22q-18 0 -49.5 1t-57.5 1.5t-49 0.5q-159 -3 -168 -3
q-3 7 -1 25t6 22q44 6 56 9q17 4 27.5 17t16.5 45q18 87 36 212q21 136 25 184q2 33 -21 40q-12 3 -58 12zM282 730q34 0 57.5 11.5t46.5 43.5q18 11 47 11q6 0 8 -7q-23 -61 -74 -97.5t-120 -36.5q-49 0 -85 27t-32 76q18 23 53 38q5 2 13.5 2t11.5 -2q6 -66 74 -66z" />
    <glyph glyph-name="uni012D" unicode="&#x12d;" horiz-adv-x="290" 
d="M259 127q5 0 6 -3q1 -7 -1.5 -25t-5.5 -23q-32 -40 -81.5 -66t-86.5 -26q-50 0 -29 99q7 36 23 109t22 103q4 17 -7 17q-16 0 -44 -20q-7 4 -7 6q0 25 9 41q46 40 94.5 64t74.5 24q17 0 20 -28.5t-4 -58.5q-45 -203 -47 -227q-1 -20 10 -20q18 0 54 34zM204 544
q32 0 56 13t50 48q1 1 8 3.5t17.5 5t17.5 3.5q3 1 6.5 -2t3.5 -5q-22 -68 -72.5 -106t-120.5 -38q-49 0 -83 27.5t-31 81.5q6 10 23.5 25t27.5 18q15 4 24 0q5 -42 22.5 -58t50.5 -16z" />
    <glyph glyph-name="uni012E" unicode="&#x12e;" horiz-adv-x="388" 
d="M151 -2l3 2h-9q-15 0 -68 -1.5t-75 -1.5q-3 7 -1 25t6 22q44 6 56 9q17 4 27.5 17t16.5 45q18 87 36 212q21 136 25 184q2 33 -21 40q-12 3 -58 12q-2 10 0.5 26t7.5 20q14 0 63 -1.5t90 -1.5t91.5 1.5t73.5 1.5q3 -4 0.5 -24t-6.5 -24q-34 -3 -55 -8q-26 -6 -35 -48
q-11 -54 -29 -170q-28 -169 -34 -232q-4 -13 0 -28t20 -20q3 -1 58 -11q3 -6 0 -25t-8 -22q-75 2 -114 0q-36 -34 -48 -57t-12 -47q0 -43 42 -43q18 0 51 13q3 -4 0 -22t-5 -21q-19 -23 -51.5 -35.5t-58.5 -12.5q-33 0 -59.5 19t-26.5 63q0 68 107 144z" />
    <glyph glyph-name="uni012F" unicode="&#x12f;" horiz-adv-x="290" 
d="M229 613q32 0 41 -14q3 -5 5 -19t1 -19q-8 -41 -36 -64q-8 -7 -39 -12t-40 -1q-26 14 -30 46q-2 12 2.5 29t11.5 23q14 13 38 22t46 9zM258 76q-6 -8 -33 -31t-30 -26q-80 -75 -80 -126q0 -41 39 -41q20 0 48 12q2 -4 -0.5 -21t-4.5 -20q-18 -22 -48.5 -34t-54.5 -12
q-31 0 -55.5 18t-24.5 60q0 18 15.5 42.5t30.5 39.5l47 47q-36 -3 -47 19t1 80q7 36 23 107.5t22 102.5q4 17 -7 17q-16 0 -44 -20q-7 4 -7 6q0 25 9 41q46 40 94.5 64t74.5 24q17 0 20 -28.5t-4 -58.5q-46 -204 -47 -225q-1 -20 10 -20q18 0 54 34q5 0 6 -3q1 -7 -1.5 -25
t-5.5 -23z" />
    <glyph glyph-name="uni0130" unicode="&#x130;" horiz-adv-x="388" 
d="M89 563q-3 7 -0.5 24.5t8.5 21.5q14 0 63 -1.5t90 -1.5t91.5 1.5t73.5 1.5q5 -4 3 -24t-9 -24q-34 -3 -55 -8q-26 -6 -35 -48q-11 -54 -29 -170q-28 -169 -34 -232q-4 -13 0 -28t20 -20q3 -1 58 -11q3 -6 0 -25t-8 -22q-18 0 -49.5 1t-57.5 1.5t-49 0.5q-159 -3 -168 -3
q-3 7 -1 25t6 22q44 6 56 9q17 4 27.5 17t16.5 45q18 87 36 212q21 136 25 184q2 33 -21 40q-12 3 -58 12zM346 737q-7 -43 -35 -65q-7 -7 -41.5 -9.5t-42.5 2.5q-12 5 -22 21t-11 31q-3 31 14 50q28 25 85 25q37 0 49 -14q9 -17 4 -41z" />
    <glyph glyph-name="dotlessi" unicode="&#x131;" horiz-adv-x="290" 
d="M259 127q5 0 6 -3q1 -7 -1.5 -25t-5.5 -23q-32 -40 -81.5 -66t-86.5 -26q-50 0 -29 99q7 36 23 109t22 103q4 17 -7 17q-16 0 -44 -20q-7 4 -7 6q0 25 9 41q46 40 94.5 64t74.5 24q17 0 20 -28.5t-4 -58.5q-45 -203 -47 -227q-1 -20 10 -20q18 0 54 34z" />
    <glyph glyph-name="IJ" unicode="&#x132;" horiz-adv-x="770" 
d="M89 563q-3 7 -0.5 24.5t8.5 21.5q14 0 63 -1.5t90 -1.5t91.5 1.5t73.5 1.5q5 -4 3 -24t-9 -24q-34 -3 -55 -8q-26 -6 -35 -48q-11 -54 -29 -170q-28 -169 -34 -232q-4 -13 0 -28t20 -20q3 -1 58 -11q3 -6 0 -25t-8 -22q-18 0 -49.5 1t-57.5 1.5t-49 0.5q-159 -3 -168 -3
q-3 7 -1 25t6 22q44 6 56 9q17 4 27.5 17t16.5 45q18 87 36 212q21 136 25 184q2 33 -21 40q-12 3 -58 12zM478 561q-3 8 0 26t7 23q13 0 62.5 -2t96.5 -2q54 0 106.5 2t53.5 2q4 -6 2.5 -25.5t-7.5 -23.5l-54 -11q-25 -6 -30 -41q-9 -47 -36 -211.5t-40 -230.5
q-25 -120 -76 -178q-44 -51 -99 -80.5t-101 -39.5q-6 2 -16 15t-12 22q-1 7 4 15q60 26 92 57q14 14 24 36.5t14.5 41t13.5 60.5q19 90 44.5 249t34.5 233q5 42 -19 50z" />
    <glyph glyph-name="ij" unicode="&#x133;" horiz-adv-x="592" 
d="M259 127q5 0 6 -3q1 -7 -1.5 -25t-5.5 -23q-32 -40 -81.5 -66t-86.5 -26q-50 0 -29 99q7 36 23 109t22 103q4 17 -7 17q-16 0 -44 -20q-7 4 -7 6q0 25 9 41q46 40 94.5 64t74.5 24q17 0 20 -28.5t-4 -58.5q-45 -203 -47 -227q-1 -20 10 -20q18 0 54 34zM229 613
q32 0 41 -14q3 -5 5 -19t1 -19q-8 -41 -36 -64q-8 -7 -39 -12t-40 -1q-26 14 -30 46q-2 12 2.5 29t11.5 23q14 13 38 22t46 9zM262 -237q-10 2 -19 13.5t-8 21.5q54 37 74.5 67.5t33.5 89.5q47 207 60 341q2 11 -6 11q-10 0 -58 -27q-6 0 -6 9q0 6 5.5 23t8.5 19
q115 96 183 96q26 0 16 -68q-11 -95 -49 -290q-15 -76 -39.5 -125.5t-68.5 -94.5q-18 -20 -55 -46t-72 -40zM519 613q32 0 41 -14q9 -13 6 -38q-7 -40 -38 -65q-8 -7 -38 -11.5t-39 -0.5q-25 13 -30 46q-2 12 2 28.5t12 23.5q14 13 38 22t46 9z" />
    <glyph glyph-name="uni0134" unicode="&#x134;" horiz-adv-x="382" 
d="M90 561q-3 8 0 26t7 23q13 0 62.5 -2t96.5 -2q54 0 106.5 2t53.5 2q4 -6 2.5 -25.5t-7.5 -23.5l-54 -11q-25 -6 -30 -41q-9 -47 -36 -211.5t-40 -230.5q-25 -120 -76 -178q-44 -51 -99 -80.5t-101 -39.5q-6 2 -16 15t-12 22q-1 7 4 15q60 26 92 57q14 14 24 36.5t14.5 41
t13.5 60.5q19 90 44.5 249t34.5 233q5 42 -19 50zM268 794q12 6 30 9q36 -41 125 -118q1 -7 -8.5 -21t-15.5 -14q-5 0 -51.5 18t-72.5 30q-7 4 -14 0q-19 -9 -76 -28.5t-66 -19.5q-5 0 -11 16t-4 21q31 17 91 55.5t73 51.5z" />
    <glyph glyph-name="uni0135" unicode="&#x135;" horiz-adv-x="302" 
d="M-28 -237q-10 2 -19 13.5t-8 21.5q54 37 74.5 67.5t33.5 89.5q47 207 60 341q2 11 -6 11q-10 0 -58 -27q-6 0 -6 9q0 6 5.5 23t8.5 19q109 90 183 96q26 -1 16 -68q-11 -95 -49 -290q-15 -76 -39.5 -125.5t-68.5 -94.5q-18 -20 -55 -46t-72 -40zM202 544q-61 -75 -74 -81
q-43 -12 -57 -8q-5 5 -4 10q106 122 132 162q1 3 25.5 10t29.5 7q41 -122 68 -173q-3 -5 -27 -13t-41 -8q-3 0 -7.5 6t-9.5 17.5t-9 21.5t-10.5 26t-9.5 23q-2 4 -6 0z" />
    <glyph glyph-name="uni0136" unicode="&#x136;" horiz-adv-x="708" 
d="M89 563q-1 7 1.5 24t6.5 22q22 0 66.5 -1.5t88.5 -1.5q28 0 85 1.5t78 1.5q3 -6 1 -24.5t-7 -22.5q-48 -8 -58 -11q-14 -5 -21 -14.5t-11 -30.5q-47 -265 -64 -402q-4 -43 22 -48q7 -2 16 -3.5t23 -3.5t24 -4q2 -5 -1 -24.5t-7 -23.5q-21 0 -81 1.5t-88 1.5
q-159 -3 -162 -3q-2 6 0 24.5t6 23.5q40 5 57 10q20 4 29 16.5t15 43.5q48 275 62 393q5 36 -20 43q-9 3 -61 12zM462 563q-2 9 1 24.5t8 21.5q105 -3 129 -3q57 0 147 3q4 -5 1 -23.5t-9 -23.5q-47 -7 -76.5 -23.5t-66.5 -50.5q-114 -108 -164 -151l-1 -7q26 -52 76 -130
t82 -115q15 -17 28 -24q17 -10 73 -16q3 -6 -0.5 -24.5t-8.5 -23.5q-31 -4 -111 -1t-98 12q-24 12 -52 49q-58 85 -117 203q-8 16 -15 24q0 12 7 19q33 17 86.5 61t111.5 104q43 47 43 66q0 13 -17 18q-15 5 -57 11zM387 -33q25 0 43.5 -27t14.5 -65q-7 -54 -50 -88
t-109 -44q-5 5 -9.5 21.5t-3.5 21.5q48 17 63 29.5t16 32.5q1 16 -12.5 27t-46.5 21q-2 14 4 28q11 13 41 28t49 15z" />
    <glyph glyph-name="uni0137" unicode="&#x137;" horiz-adv-x="491" 
d="M261 666q19 0 10 -61l-76 -371q-1 -5 2.5 -6t5.5 2q156 197 223 197q48 0 64 -28q3 -9 -2 -27q-5 -15 -25 -39.5t-31 -30.5q-6 5 -28.5 13t-41.5 8q-27 0 -78 -65q-4 -4 0 -6q16 -13 36 -47q40 -66 60 -89.5t33 -23.5q23 0 65 46l2 -1q3 -1 5 -2.5t2 -3.5q1 -7 -1 -25
t-4 -22q-26 -40 -68.5 -70t-74.5 -30q-33 0 -56 33q-14 20 -42.5 77t-36.5 66q-6 6 -10 2q-11 -8 -17 -30q-9 -29 -12 -48q-4 -28 6 -51q-9 -12 -61.5 -31.5t-63.5 -19.5t-13 25q0 16 12 78q80 398 85 445q6 34 -11 34q-28 0 -56 -7q-3 5 1 25t9 22q63 29 116.5 45.5
t71.5 16.5zM228 -33q25 0 43.5 -27t14.5 -65q-7 -54 -50 -88t-109 -44q-5 5 -9.5 21.5t-3.5 21.5q48 17 63 29.5t16 32.5q1 16 -12.5 27t-46.5 21q-2 14 4 28q11 13 41 28t49 15z" />
    <glyph glyph-name="uni0138" unicode="&#x138;" horiz-adv-x="509" 
d="M30 289q-1 8 4.5 26.5t9.5 22.5q39 40 85.5 63t74.5 26q41 4 27 -83q-5 -32 -25 -130q-1 -2 1 -2t4 2q97 125 147 169t90 44q32 0 42 -15q2 -9 -16 -54t-27 -49q-35 16 -53 16t-38.5 -15.5t-30.5 -27.5t-30 -38q-3 -4 1 -8q4 -5 26 -45q34 -62 52 -82t34 -20q25 0 70 46
q7 -7 7 -12q2 -21 -7 -47q-29 -41 -72 -66.5t-75 -25.5q-31 0 -58 40q-19 28 -55 115q-10 25 -19 34q-1 -7 -5 -26l-6 -28.5t-4.5 -25.5t-3 -26t-0.5 -21t2 -18q-21 -12 -65 -28t-55 -16q-5 0 -10 7t-5 11q2 24 29.5 151t30.5 145q2 16 -10 16q-24 0 -59 -30q-1 -1 -4.5 1
t-3.5 4z" />
    <glyph glyph-name="uni0139" unicode="&#x139;" horiz-adv-x="607" 
d="M88 561q-4 5 -0.5 25t9.5 23q22 0 67 -1.5t89 -1.5q35 0 65 0.5t58.5 2t42.5 1.5q4 -6 1.5 -23t-7.5 -23q-45 -6 -59 -10q-16 -5 -23 -14.5t-13 -28.5q-6 -31 -34.5 -212t-30.5 -203q-1 -13 5 -21.5t11 -9.5q61 -8 135 -4q30 2 59 32t80 119q6 2 26 -7t22 -16
q-6 -22 -32 -80t-49 -89q-6 -10 -17 -17.5t-18 -7.5q-44 0 -161.5 2.5t-158.5 2.5q-48 0 -86 -1t-57.5 -2t-23.5 -1q-3 39 8 49q33 4 72 12q27 9 35 38q11 52 37.5 215t30.5 202q3 32 -23 39q-3 1 -60 10zM450 753q3 -10 -4 -17q-17 -14 -106.5 -53.5t-99.5 -39.5
q-4 0 -15.5 18.5t-10.5 23.5q9 11 77.5 73t78.5 66q14 0 45.5 -29t34.5 -42z" />
    <glyph glyph-name="uni013A" unicode="&#x13a;" horiz-adv-x="274" 
d="M67 560q-2 6 1.5 25t7.5 22q38 19 99 39t85 20q22 -1 9 -65q-7 -40 -30.5 -158t-40 -206t-18.5 -115q-3 -27 13 -27q18 0 62 39q4 -4 4 -13q0 -30 -9 -43q-37 -41 -88 -67.5t-85 -26.5q-23 0 -30.5 24t-2.5 59q6 46 45 239.5t44 243.5q2 18 -11 18q-30 0 -55 -8zM374 793
q3 -10 -4 -17q-17 -14 -106.5 -53.5t-99.5 -39.5q-4 0 -15.5 18.5t-10.5 23.5q9 11 77.5 73t78.5 66q14 0 45.5 -29t34.5 -42z" />
    <glyph glyph-name="uni013B" unicode="&#x13b;" horiz-adv-x="607" 
d="M88 561q-4 5 -0.5 25t9.5 23q22 0 67 -1.5t89 -1.5q35 0 65 0.5t58.5 2t42.5 1.5q4 -6 1.5 -23t-7.5 -23q-45 -6 -59 -10q-16 -5 -23 -14.5t-13 -28.5q-6 -31 -34.5 -212t-30.5 -203q-1 -13 5 -21.5t11 -9.5q61 -8 135 -4q30 2 59 32t80 119q6 2 26 -7t22 -16
q-6 -22 -32 -80t-49 -89q-6 -10 -17 -17.5t-18 -7.5q-44 0 -161.5 2.5t-158.5 2.5q-48 0 -86 -1t-57.5 -2t-23.5 -1q-3 39 8 49q33 4 72 12q27 9 35 38q11 52 37.5 215t30.5 202q3 32 -23 39q-3 1 -60 10zM270 -34q25 0 43.5 -27t14.5 -65q-7 -54 -50 -88t-109 -44
q-5 5 -9.5 21.5t-3.5 21.5q48 17 63 29.5t16 32.5q1 16 -12.5 27t-46.5 21q-2 14 4 28q11 13 41 28t49 15z" />
    <glyph glyph-name="uni013C" unicode="&#x13c;" horiz-adv-x="274" 
d="M67 560q-2 6 1.5 25t7.5 22q38 19 99 39t85 20q22 -1 9 -65q-7 -40 -30.5 -158t-40 -206t-18.5 -115q-3 -27 13 -27q18 0 62 39q4 -4 4 -13q0 -30 -9 -43q-37 -41 -88 -67.5t-85 -26.5q-23 0 -30.5 24t-2.5 59q6 46 45 239.5t44 243.5q2 18 -11 18q-30 0 -55 -8zM110 -43
q25 0 43.5 -27t14.5 -65q-7 -54 -50 -88t-109 -44q-5 5 -9.5 21.5t-3.5 21.5q48 17 63 29.5t16 32.5q1 16 -12.5 27t-46.5 21q-2 14 4 28q11 13 41 28t49 15z" />
    <glyph glyph-name="uni013D" unicode="&#x13d;" horiz-adv-x="607" 
d="M88 561q-4 5 -0.5 25t9.5 23q22 0 67 -1.5t89 -1.5q35 0 65 0.5t58.5 2t42.5 1.5q4 -6 1.5 -23t-7.5 -23q-45 -6 -59 -10q-16 -5 -23 -14.5t-13 -28.5q-6 -31 -34.5 -212t-30.5 -203q-1 -13 5 -21.5t11 -9.5q61 -8 135 -4q30 2 59 32t80 119q6 2 26 -7t22 -16
q-6 -22 -32 -80t-49 -89q-6 -10 -17 -17.5t-18 -7.5q-44 0 -161.5 2.5t-158.5 2.5q-48 0 -86 -1t-57.5 -2t-23.5 -1q-3 39 8 49q33 4 72 12q27 9 35 38q11 52 37.5 215t30.5 202q3 32 -23 39q-3 1 -60 10zM605 636q8 0 5 -17q-4 -28 -29.5 -106t-39.5 -105
q-3 -5 -22.5 -19.5t-28.5 -18.5q-3 -1 -6.5 3t-3.5 6q7 38 16 110t8 91v2q1 1 2.5 3.5t3.5 4.5q10 9 46.5 27.5t48.5 18.5z" />
    <glyph glyph-name="uni013E" unicode="&#x13e;" horiz-adv-x="274" 
d="M67 560q-2 6 1.5 25t7.5 22q38 19 99 39t85 20q22 -1 9 -65q-7 -40 -30.5 -158t-40 -206t-18.5 -115q-3 -27 13 -27q18 0 62 39q4 -4 4 -13q0 -30 -9 -43q-37 -41 -88 -67.5t-85 -26.5q-23 0 -30.5 24t-2.5 59q6 46 45 239.5t44 243.5q2 18 -11 18q-30 0 -55 -8zM420 700
q8 0 5 -17q-4 -28 -29.5 -106t-39.5 -105q-3 -5 -22.5 -19.5t-28.5 -18.5q-3 -1 -6.5 3t-3.5 6q7 38 16 110t8 91l1 2q0 1 1.5 3.5t3.5 4.5q10 9 46.5 27.5t48.5 18.5z" />
    <glyph glyph-name="Ldot" unicode="&#x13f;" horiz-adv-x="607" 
d="M88 561q-4 5 -0.5 25t9.5 23q22 0 67 -1.5t89 -1.5q35 0 65 0.5t58.5 2t42.5 1.5q4 -6 1.5 -23t-7.5 -23q-45 -6 -59 -10q-16 -5 -23 -14.5t-13 -28.5q-6 -31 -34.5 -212t-30.5 -203q-1 -13 5 -21.5t11 -9.5q61 -8 135 -4q30 2 59 32t80 119q6 2 26 -7t22 -16
q-6 -22 -32 -80t-49 -89q-6 -10 -17 -17.5t-18 -7.5q-44 0 -161.5 2.5t-158.5 2.5q-48 0 -86 -1t-57.5 -2t-23.5 -1q-3 39 8 49q33 4 72 12q27 9 35 38q11 52 37.5 215t30.5 202q3 32 -23 39q-3 1 -60 10zM545 343q-7 -43 -35 -65q-7 -7 -41.5 -9.5t-42.5 2.5q-12 5 -22 21
t-11 31q-3 31 14 50q28 25 85 25q37 0 49 -14q9 -17 4 -41z" />
    <glyph glyph-name="ldot" unicode="&#x140;" horiz-adv-x="274" 
d="M67 560q-2 6 1.5 25t7.5 22q38 19 99 39t85 20q22 -1 9 -65q-7 -40 -30.5 -158t-40 -206t-18.5 -115q-3 -27 13 -27q18 0 62 39q4 -4 4 -13q0 -30 -9 -43q-37 -41 -88 -67.5t-85 -26.5q-19 0 -28.5 25t-4.5 58q6 46 45 239.5t44 243.5q2 18 -11 18q-30 0 -55 -8zM316 412
q23 0 37 -14q3 -11 3 -39q-4 -31 -35 -63q-6 -7 -29.5 -9t-30.5 3q-16 9 -21 44q-3 36 11 53q22 25 65 25z" />
    <glyph glyph-name="Lslash" unicode="&#x141;" horiz-adv-x="607" 
d="M88 561q-4 5 -0.5 25t9.5 23q22 0 67 -1.5t89 -1.5q35 0 65 0.5t58.5 2t42.5 1.5q4 -6 1.5 -23t-7.5 -23q-45 -6 -59 -10q-16 -5 -23 -14.5t-13 -28.5q-11 -60 -25 -154l133 51q4 -2 6 -26.5t-1 -28.5q-37 -12 -147 -54q-20 -116 -31 -203q-1 -13 5 -21.5t11 -9.5
q61 -8 135 -4q30 2 59 32t80 119q6 2 26 -7t22 -16q-6 -21 -32.5 -78.5t-48.5 -90.5q-17 -25 -35 -25q-44 0 -161.5 2.5t-158.5 2.5q-48 0 -86 -1t-57.5 -2t-23.5 -1q-3 39 8 49q33 4 72 12q27 9 35 38q8 37 26 145l-71 -27q-4 1 -6 24.5t0 28.5q21 8 87 33q21 130 32 213
q3 32 -23 39q-3 1 -60 10z" />
    <glyph glyph-name="lslash" unicode="&#x142;" horiz-adv-x="284" 
d="M77 560q-2 6 1.5 25.5t7.5 21.5q44 22 102 40.5t82 18.5q22 0 9 -65l-37 -194l62 26q2 -3 3 -24.5t-1 -23.5q-7 -3 -75 -32q-38 -197 -41 -231q-3 -27 13 -27q18 0 62 39q4 -4 4 -13q0 -32 -9 -43q-34 -39 -86 -66.5t-87 -27.5q-19 0 -28.5 25t-4.5 58q3 21 9.5 57.5
t17 88.5t16.5 84l-57 -23q-3 3 -4 25t4 25l68 28q30 154 35 198q1 16 -11 18q-19 2 -55 -8z" />
    <glyph glyph-name="uni0143" unicode="&#x143;" horiz-adv-x="740" 
d="M73 561q-1 9 2 25.5t7 22.5q26 0 90 -1.5t92 -1.5q40 0 50 1q12 -29 31 -61q193 -317 223 -361q1 -1 3 -0.5t3 1.5q29 157 43 307q4 45 -41 56q-3 1 -68 12q-4 6 -1 26t9 22q4 0 50.5 -1.5t93.5 -1.5q44 0 86 1.5t49 1.5q4 -4 1 -24.5t-9 -23.5q-26 -4 -42 -8
q-25 -6 -37 -17.5t-19 -46.5q-31 -146 -63 -357q-13 -85 -19 -140l-18 1q-18 1 -38 1q-17 0 -34 -1t-19 -1q-193 337 -268 457q-2 0 -4 -3q-43 -258 -50 -321q-4 -33 4 -48t31 -21q26 -7 61 -11q4 -3 1 -22t-8 -27q-23 0 -66 2t-65 2t-74 -2t-72 -2q-5 32 6 47q45 7 59 11
q19 5 30 18.5t19 44.5q31 125 70 369q3 18 -4.5 37.5t-24.5 24.5q-19 6 -70 13zM617 753q3 -10 -4 -17q-17 -14 -106.5 -53.5t-99.5 -39.5q-4 0 -15.5 18.5t-10.5 23.5q9 11 77.5 73t78.5 66q14 0 45.5 -29t34.5 -42z" />
    <glyph glyph-name="uni0144" unicode="&#x144;" horiz-adv-x="534" 
d="M42 284l-6 3q-3 37 5 45q41 41 90 68t74 27q40 0 27 -83l-7 -41q0 -3 5 -1q66 79 144 112q32 13 57 13q67 0 38 -143q-30 -151 -32 -166q-2 -20 9 -20q17 0 59 36q5 0 5 -5q0 -35 -9 -53q-39 -45 -89.5 -68.5t-78.5 -23.5q-51 0 -29 106q6 28 19.5 87.5t22.5 102.5
q8 47 -12 47q-16 0 -43.5 -23.5t-52.5 -63.5q-21 -34 -46 -127q-14 -60 -8 -85q-21 -12 -65 -28t-55 -16q-5 0 -10 7t-5 11q2 24 28.5 152.5t29.5 143.5q2 16 -10 16q-20 0 -55 -30zM474 644q7 -11 3 -24q-15 -21 -82.5 -82.5t-92.5 -77.5q-4 -1 -21.5 11t-18.5 16
q78 134 94 153q13 4 61.5 6t56.5 -2z" />
    <glyph glyph-name="uni0145" unicode="&#x145;" horiz-adv-x="740" 
d="M73 561q-1 9 2 25.5t7 22.5q26 0 90 -1.5t92 -1.5q40 0 50 1q12 -29 31 -61q193 -317 223 -361q1 -1 3 -0.5t3 1.5q29 157 43 307q4 45 -41 56q-3 1 -68 12q-4 6 -1 26t9 22q4 0 50.5 -1.5t93.5 -1.5q44 0 86 1.5t49 1.5q4 -4 1 -24.5t-9 -23.5q-26 -4 -42 -8
q-25 -6 -37 -17.5t-19 -46.5q-31 -146 -63 -357q-13 -85 -19 -140l-18 1q-18 1 -38 1q-17 0 -34 -1t-19 -1q-193 337 -268 457q-2 0 -4 -3q-43 -258 -50 -321q-4 -33 4 -48t31 -21q26 -7 61 -11q4 -3 1 -22t-8 -27q-23 0 -66 2t-65 2t-74 -2t-72 -2q-5 32 6 47q45 7 59 11
q19 5 30 18.5t19 44.5q31 125 70 369q3 18 -4.5 37.5t-24.5 24.5q-19 6 -70 13zM373 -33q25 0 43.5 -27t14.5 -65q-7 -54 -50 -88t-109 -44q-5 5 -9.5 21.5t-3.5 21.5q48 17 63 29.5t16 32.5q1 16 -12.5 27t-46.5 21q-2 14 4 28q11 13 41 28t49 15z" />
    <glyph glyph-name="uni0146" unicode="&#x146;" horiz-adv-x="534" 
d="M42 284l-6 3q-3 37 5 45q41 41 90 68t74 27q40 0 27 -83l-7 -41q0 -3 5 -1q66 79 144 112q32 13 57 13q67 0 38 -143q-30 -151 -32 -166q-2 -20 9 -20q17 0 59 36q5 0 5 -5q0 -35 -9 -53q-39 -45 -89.5 -68.5t-78.5 -23.5q-51 0 -29 106q6 28 19.5 87.5t22.5 102.5
q8 47 -12 47q-16 0 -43.5 -23.5t-52.5 -63.5q-21 -34 -46 -127q-14 -60 -8 -85q-21 -12 -65 -28t-55 -16q-5 0 -10 7t-5 11q2 24 28.5 152.5t29.5 143.5q2 16 -10 16q-20 0 -55 -30zM241 -32q25 0 43.5 -27t14.5 -65q-7 -54 -50 -88t-109 -44q-5 5 -9.5 21.5t-3.5 21.5
q48 17 63 29.5t16 32.5q1 16 -12.5 27t-46.5 21q-2 14 4 28q11 13 41 28t49 15z" />
    <glyph glyph-name="uni0147" unicode="&#x147;" horiz-adv-x="740" 
d="M73 561q-1 9 2 25.5t7 22.5q26 0 90 -1.5t92 -1.5q40 0 50 1q12 -29 31 -61q193 -317 223 -361q1 -1 3 -0.5t3 1.5q29 157 43 307q4 45 -41 56q-3 1 -68 12q-4 6 -1 26t9 22q4 0 50.5 -1.5t93.5 -1.5q44 0 86 1.5t49 1.5q4 -4 1 -24.5t-9 -23.5q-26 -4 -42 -8
q-25 -6 -37 -17.5t-19 -46.5q-31 -146 -63 -357q-13 -85 -19 -140l-18 1q-18 1 -38 1q-17 0 -34 -1t-19 -1q-193 337 -268 457q-2 0 -4 -3q-43 -258 -50 -321q-4 -33 4 -48t31 -21q26 -7 61 -11q4 -3 1 -22t-8 -27q-23 0 -66 2t-65 2t-74 -2t-72 -2q-5 32 6 47q45 7 59 11
q19 5 30 18.5t19 44.5q31 125 70 369q3 18 -4.5 37.5t-24.5 24.5q-19 6 -70 13zM455 639q-12 -6 -30 -9q-9 10 -34 33t-56 50.5t-36 32.5q1 5 11.5 20t14.5 15q5 0 57 -22.5t64 -29.5q7 -3 14 0q21 10 80.5 31t64.5 21t11 -16.5t4 -21.5q-10 -6 -82 -50.5t-83 -53.5z" />
    <glyph glyph-name="uni0148" unicode="&#x148;" horiz-adv-x="534" 
d="M42 284l-6 3q-3 37 5 45q41 41 90 68t74 27q40 0 27 -83l-7 -41q0 -3 5 -1q66 79 144 112q32 13 57 13q67 0 38 -143q-30 -151 -32 -166q-2 -20 9 -20q17 0 59 36q5 0 5 -5q0 -35 -9 -53q-39 -45 -89.5 -68.5t-78.5 -23.5q-51 0 -29 106q6 28 19.5 87.5t22.5 102.5
q8 47 -12 47q-16 0 -43.5 -23.5t-52.5 -63.5q-21 -34 -46 -127q-14 -60 -8 -85q-21 -12 -65 -28t-55 -16q-5 0 -10 7t-5 11q2 24 28.5 152.5t29.5 143.5q2 16 -10 16q-20 0 -55 -30zM336 550q61 74 74 81q42 13 57 8q4 -2 4 -10q-106 -122 -132 -162q-1 -3 -25.5 -10
t-29.5 -7q-41 122 -68 173q3 5 27 13t41 8q3 0 7.5 -6t9.5 -17.5t9 -21.5t10.5 -26t9.5 -23q2 -4 6 0z" />
    <glyph glyph-name="uni0149" unicode="&#x149;" horiz-adv-x="534" 
d="M42 284l-6 3q-3 37 5 45q41 41 90 68t74 27q40 0 27 -83l-7 -41q0 -3 5 -1q66 79 144 112q32 13 57 13q67 0 38 -143q-30 -151 -32 -166q-2 -20 9 -20q17 0 59 36q5 0 5 -5q0 -35 -9 -53q-39 -45 -89.5 -68.5t-78.5 -23.5q-51 0 -29 106q6 28 19.5 87.5t22.5 102.5
q8 47 -12 47q-16 0 -43.5 -23.5t-52.5 -63.5q-21 -34 -46 -127q-14 -60 -8 -85q-21 -12 -65 -28t-55 -16q-5 0 -10 7t-5 11q2 24 28.5 152.5t29.5 143.5q2 16 -10 16q-20 0 -55 -30zM191 652q27 0 44 -28.5t12 -66.5q-13 -85 -142 -105q-5 5 -9.5 20.5t-2.5 21.5
q41 11 54.5 21t14.5 27q2 27 -55 44q-2 3 -1 12t5 14q11 13 37 26.5t43 13.5z" />
    <glyph glyph-name="Eng" unicode="&#x14a;" horiz-adv-x="740" 
d="M73 561q-1 9 2 25.5t7 22.5q26 0 92.5 -1.5t94.5 -1.5q39 0 49 1q4 -24 27 -61q161 -265 223 -355q1 0 3 0.5t3 0.5q30 164 43 301q5 48 -41 56l-68 12q-4 6 -1 26t9 22q24 0 72 -1.5t72 -1.5q19 0 67.5 1.5t67.5 1.5q4 -4 1 -24.5t-9 -23.5q-26 -4 -42 -8
q-25 -6 -37 -17.5t-19 -46.5q-34 -161 -63 -351q-23 -142 -26 -160q-18 -120 -64.5 -173.5t-127.5 -53.5q-14 0 -34.5 6.5t-27.5 17.5q-5 10 1.5 43t14.5 50l7 4q9 -5 40 -12t55 -7q47 0 57 60q3 39 -23 85q-155 271 -268 451l-4 -3q-39 -217 -51 -321q-4 -33 4.5 -48
t31.5 -21q26 -7 61 -11q4 -3 1 -22t-8 -27q-23 0 -66 2t-65 2t-74 -2t-72 -2q-5 32 6 47q45 7 59 11q19 5 30 18.5t19 44.5q31 125 70 369q3 18 -4.5 37.5t-24.5 24.5q-19 6 -70 13z" />
    <glyph glyph-name="eng" unicode="&#x14b;" horiz-adv-x="523" 
d="M205 427q40 0 27 -83l-7 -41q0 -2 1.5 -2t3.5 1q67 80 143 112q33 13 57 13q34 0 44 -43.5t-1 -89.5q-14 -104 -30 -182q-23 -113 -42.5 -156.5t-64.5 -96.5q-35 -42 -85 -71t-87 -29q-56 0 -71 31q-2 4 0 12q6 32 26 72q1 1 12 7q55 -48 91 -48q22 0 34 15.5t25 69.5
q40 174 65 365q3 18 -1 31t-13 13q-15 0 -41.5 -23.5t-52.5 -63.5q-25 -39 -48 -127q-14 -60 -8 -85q-21 -12 -65 -28t-55 -16q-5 0 -10 7t-5 11q2 24 29.5 151t30.5 145q2 16 -10 16q-20 0 -55 -30l-6 3q-3 37 5 45q41 41 90 68t74 27z" />
    <glyph glyph-name="uni014C" unicode="&#x14c;" horiz-adv-x="723" 
d="M325 -18q-124 0 -190 68t-67 186q-1 88 37 176t124 148q91 64 202 64q127 0 192 -74.5t65 -187.5q0 -161 -91 -262q-101 -118 -272 -118zM345 38q43 0 77 29q49 43 77.5 130t28.5 186q0 188 -116 188q-46 0 -82.5 -34.5t-58 -88.5t-32.5 -114t-11 -117q0 -89 31.5 -134
t85.5 -45zM324 762q20 -2 65 -2h205q1 -10 -12.5 -43t-17.5 -34q-16 -3 -232 -3l-38 2q1 13 13 44.5t17 35.5z" />
    <glyph glyph-name="uni014D" unicode="&#x14d;" horiz-adv-x="490" 
d="M322 427q64 0 99 -42.5t35 -109.5q0 -170 -147 -250q-28 -14 -73 -27.5t-75 -13.5q-60 0 -90.5 43.5t-30.5 112.5t27.5 132t80.5 98q87 57 174 57zM172 184q0 -130 67 -130q28 0 47 27.5t27.5 67t8.5 85.5q0 36 -3 61t-18.5 48.5t-43.5 23.5q-36 1 -60.5 -57t-24.5 -126z
M197 576q18 -2 49 -2q183 0 195 4q-1 -11 -16.5 -42.5t-18.5 -32.5q-29 -9 -207 -9l-34 2q2 8 16 42.5t16 37.5z" />
    <glyph glyph-name="uni014E" unicode="&#x14e;" horiz-adv-x="723" 
d="M325 -18q-124 0 -190 68t-67 186q-1 88 37 176t124 148q91 64 202 64q127 0 192 -74.5t65 -187.5q0 -161 -91 -262q-101 -118 -272 -118zM345 38q43 0 77 29q49 43 77.5 130t28.5 186q0 188 -116 188q-46 0 -82.5 -34.5t-58 -88.5t-32.5 -114t-11 -117q0 -89 31.5 -134
t85.5 -45zM450 743q34 0 57.5 11.5t46.5 43.5q18 11 47 11q6 0 8 -7q-23 -61 -74 -97.5t-120 -36.5q-49 0 -85 27t-32 76q18 23 53 38q5 1 13.5 1t11.5 -1q6 -66 74 -66z" />
    <glyph glyph-name="uni014F" unicode="&#x14f;" horiz-adv-x="490" 
d="M322 427q64 0 99 -42.5t35 -109.5q0 -170 -147 -250q-28 -14 -73 -27.5t-75 -13.5q-60 0 -90.5 43.5t-30.5 112.5t27.5 132t80.5 98q87 57 174 57zM172 184q0 -130 67 -130q28 0 47 27.5t27.5 67t8.5 85.5q0 36 -3 61t-18.5 48.5t-43.5 23.5q-36 1 -60.5 -57t-24.5 -126z
M304 544q32 0 56 13t50 48q1 1 8 3.5t17.5 5t17.5 3.5q3 1 6.5 -2t3.5 -5q-22 -68 -72.5 -106t-120.5 -38q-49 0 -83 27.5t-31 81.5q6 10 23.5 25t27.5 18q15 4 24 0q5 -42 22.5 -58t50.5 -16z" />
    <glyph glyph-name="uni0150" unicode="&#x150;" horiz-adv-x="723" 
d="M325 -18q-124 0 -190 68t-67 186q-1 88 37 176t124 148q91 64 202 64q127 0 192 -74.5t65 -187.5q0 -161 -91 -262q-101 -118 -272 -118zM345 38q43 0 77 29q49 43 77.5 130t28.5 186q0 188 -116 188q-46 0 -82.5 -34.5t-58 -88.5t-32.5 -114t-11 -117q0 -89 31.5 -134
t85.5 -45zM474 807q7 -3 7 -14q-6 -14 -58 -68.5t-71 -71.5q-3 -1 -22.5 5.5t-21.5 9.5q9 18 33 71t27 59q9 5 52 8t54 1zM646 820q4 -2 4 -12q-4 -13 -60.5 -75t-73.5 -75q-4 -3 -23.5 5t-21.5 12q49 102 64 139q15 3 58.5 6t52.5 0z" />
    <glyph glyph-name="uni0151" unicode="&#x151;" horiz-adv-x="490" 
d="M322 427q64 0 99 -42.5t35 -109.5q0 -170 -147 -250q-28 -14 -73 -27.5t-75 -13.5q-60 0 -90.5 43.5t-30.5 112.5t27.5 132t80.5 98q87 57 174 57zM172 184q0 -130 67 -130q28 0 47 27.5t27.5 67t8.5 85.5q0 36 -3 61t-18.5 48.5t-43.5 23.5q-36 1 -60.5 -57t-24.5 -126z
M346 633q2 -2 2.5 -10.5t-0.5 -11.5q-12 -19 -64.5 -78t-72.5 -77q-5 -1 -24.5 3t-20.5 8q61 129 79 160q11 3 52.5 6t48.5 0zM509 637q2 -3 2 -11t-1 -11q-13 -21 -66 -79t-74 -75q-6 -1 -25 3t-20 8q12 25 46.5 92t35.5 69q10 3 51 5t51 -1z" />
    <glyph glyph-name="OE" unicode="&#x152;" horiz-adv-x="986" 
d="M67 236q0 90 36.5 177t121.5 147q42 30 96 47t97 17q64 0 94 -7q29 -7 67 -11h252q95 0 139 7q6 -6 4 -12q-17 -44 -38 -152q-6 -4 -28 -4.5t-27 2.5q0 42 -5 63q-8 27 -40 29q-31 3 -107 4.5t-92 -0.5q-2 -1 -3.5 -4t-0.5 -4q17 -28 25.5 -44.5t18.5 -58t8 -88.5
q0 -7 5 -7q80 0 96 1q13 1 20 7t15 23q7 14 17 42q6 3 28 1t28 -6q-17 -66 -22 -101q-6 -37 -15 -106q-7 -5 -28 -5t-26 4l-4 46q-5 20 -27 23q-11 1 -46 2t-44 0q-5 0 -6 -7q-31 -120 -109 -182q-2 -1 -1.5 -4t4.5 -4q89 -7 202 -7q46 0 77 35q25 28 65 90q8 0 28 -9.5
t22 -14.5q-20 -66 -55 -127q-16 -27 -29.5 -34.5t-43.5 -7.5q-304 4 -342 4q-13 0 -67 -9t-96 -9q-142 0 -211 86q-49 63 -53 168zM347 38q45 0 82 32q47 40 73.5 134.5t26.5 180.5q0 186 -114 186q-60 0 -104.5 -59.5t-63.5 -137.5t-19 -156q0 -88 31 -134t88 -46z" />
    <glyph glyph-name="oe" unicode="&#x153;" horiz-adv-x="684" 
d="M521 371q-22 0 -46 -35.5t-32 -98.5q-1 -2 1 -4t4 -1q63 17 87 39q8 6 14.5 21.5t6.5 25.5q0 25 -10.5 39t-24.5 14zM332 47q-2 0 -6 -2q-99 -61 -165 -61q-60 0 -90.5 43.5t-30.5 112.5t27.5 132t80.5 98q37 24 83.5 40.5t81.5 16.5q67 0 103 -58q36 24 82.5 41t83.5 17
q41 0 63 -21.5t21 -58.5q-1 -66 -92 -116q-46 -25 -125 -52q-6 -2 -8 -7q-1 -5 -1 -11q0 -32 18.5 -56.5t56.5 -24.5q59 0 132 63q3 -3 3 -23t-4 -29q-30 -44 -91.5 -75.5t-120.5 -31.5q-38 0 -60.5 14t-41.5 49zM172 184q0 -130 67 -130q28 0 47 27.5t27.5 67t8.5 85.5
q0 26 -2 45.5t-8 41.5t-20 34t-35 12q-36 0 -60.5 -57.5t-24.5 -125.5z" />
    <glyph glyph-name="uni0154" unicode="&#x154;" horiz-adv-x="656" 
d="M86 562q-2 5 1 25.5t5 22.5q4 0 27.5 -1t60.5 -2t73 -1q44 0 85 0.5t63 1t37 0.5q77 0 124 -39.5t47 -103.5q0 -119 -146 -167q-5 -2 -3 -8q14 -36 48 -96.5t63 -99.5q19 -26 38 -35.5t62 -13.5q2 -8 -1.5 -26.5t-8.5 -21.5q-40 -5 -109.5 -1t-88.5 15q-32 18 -47 52
q-36 63 -87 177q-10 21 -23 23q-12 2 -22 2q-1 0 -4 -3t-3 -5q-8 -46 -24 -158q-5 -35 22 -43q12 -4 64 -13q4 -6 0 -23.5t-10 -23.5q-7 0 -58 2t-104 2q-116 0 -168 -4q-2 8 -0.5 24.5t5.5 22.5q53 8 64 11q29 5 37 46q15 69 39 219t28 192q4 31 -22 38q-25 8 -64 13z
M459 443q0 49 -28.5 79t-75.5 30q-19 0 -24 -2q-7 -4 -9 -10q-23 -129 -36 -219q-2 -8 6 -8q60 0 103 19q64 31 64 111zM545 753q3 -10 -4 -17q-17 -14 -106.5 -53.5t-99.5 -39.5q-4 0 -15.5 18.5t-10.5 23.5q9 11 77.5 73t78.5 66q14 0 45.5 -29t34.5 -42z" />
    <glyph glyph-name="uni0155" unicode="&#x155;" horiz-adv-x="383" 
d="M214 289q30 54 59 89q22 25 39.5 37t42.5 12q38 0 53 -31q3 -10 0 -19q-4 -16 -22.5 -49.5t-31.5 -47.5q-9 -9 -18 -7q-31 29 -52 29q-29 0 -64 -84q-20 -47 -31 -109q-11 -64 -7 -80q-20 -12 -61.5 -27t-60.5 -18q-4 1 -8.5 6.5t-5.5 9.5q5 28 24 122.5t26 136.5
q9 55 -5 55q-20 0 -53 -27q-2 -1 -5 1.5t-3 4.5q0 29 9 42q46 45 87.5 68.5t65.5 23.5q40 0 21 -110l-4 -28q0 -1 2 -1t3 1zM429 644q7 -11 3 -24q-15 -21 -82.5 -82.5t-92.5 -77.5q-4 -1 -21.5 11t-18.5 16q78 134 94 153q13 4 61.5 6t56.5 -2z" />
    <glyph glyph-name="uni0156" unicode="&#x156;" horiz-adv-x="656" 
d="M86 562q-2 5 1 25.5t5 22.5q4 0 27.5 -1t60.5 -2t73 -1q44 0 85 0.5t63 1t37 0.5q77 0 124 -39.5t47 -103.5q0 -119 -146 -167q-5 -2 -3 -8q14 -36 48 -96.5t63 -99.5q19 -26 38 -35.5t62 -13.5q2 -8 -1.5 -26.5t-8.5 -21.5q-40 -5 -109.5 -1t-88.5 15q-32 18 -47 52
q-36 63 -87 177q-10 21 -23 23q-12 2 -22 2q-1 0 -4 -3t-3 -5q-8 -46 -24 -158q-5 -35 22 -43q12 -4 64 -13q4 -6 0 -23.5t-10 -23.5q-7 0 -58 2t-104 2q-116 0 -168 -4q-2 8 -0.5 24.5t5.5 22.5q53 8 64 11q29 5 37 46q15 69 39 219t28 192q4 31 -22 38q-25 8 -64 13z
M459 443q0 49 -28.5 79t-75.5 30q-19 0 -24 -2q-7 -4 -9 -10q-23 -129 -36 -219q-2 -8 6 -8q60 0 103 19q64 31 64 111zM351 -33q25 0 43.5 -27t14.5 -65q-7 -54 -50 -88t-109 -44q-5 5 -9.5 21.5t-3.5 21.5q48 17 63 29.5t16 32.5q1 16 -12.5 27t-46.5 21q-2 14 4 28
q11 13 41 28t49 15z" />
    <glyph glyph-name="uni0157" unicode="&#x157;" horiz-adv-x="383" 
d="M214 289q30 54 59 89q22 25 39.5 37t42.5 12q38 0 53 -31q3 -10 0 -19q-4 -16 -22.5 -49.5t-31.5 -47.5q-9 -9 -18 -7q-31 29 -52 29q-29 0 -64 -84q-20 -47 -31 -109q-11 -64 -7 -80q-20 -12 -61.5 -27t-60.5 -18q-4 1 -8.5 6.5t-5.5 9.5q5 28 24 122.5t26 136.5
q9 55 -5 55q-20 0 -53 -27q-2 -1 -5 1.5t-3 4.5q0 29 9 42q46 45 87.5 68.5t65.5 23.5q40 0 21 -110l-4 -28q0 -1 2 -1t3 1zM106 -33q25 0 43.5 -27t14.5 -65q-7 -54 -50 -88t-109 -44q-5 5 -9.5 21.5t-3.5 21.5q48 17 63 29.5t16 32.5q1 16 -12.5 27t-46.5 21q-2 14 4 28
q11 13 41 28t49 15z" />
    <glyph glyph-name="uni0158" unicode="&#x158;" horiz-adv-x="656" 
d="M86 562q-2 5 1 25.5t5 22.5q4 0 27.5 -1t60.5 -2t73 -1q44 0 85 0.5t63 1t37 0.5q77 0 124 -39.5t47 -103.5q0 -119 -146 -167q-5 -2 -3 -8q14 -36 48 -96.5t63 -99.5q19 -26 38 -35.5t62 -13.5q2 -8 -1.5 -26.5t-8.5 -21.5q-40 -5 -109.5 -1t-88.5 15q-32 18 -47 52
q-36 63 -87 177q-10 21 -23 23q-12 2 -22 2q-1 0 -4 -3t-3 -5q-8 -46 -24 -158q-5 -35 22 -43q12 -4 64 -13q4 -6 0 -23.5t-10 -23.5q-7 0 -58 2t-104 2q-116 0 -168 -4q-2 8 -0.5 24.5t5.5 22.5q53 8 64 11q29 5 37 46q15 69 39 219t28 192q4 31 -22 38q-25 8 -64 13z
M459 443q0 49 -28.5 79t-75.5 30q-19 0 -24 -2q-7 -4 -9 -10q-23 -129 -36 -219q-2 -8 6 -8q60 0 103 19q64 31 64 111zM381 654q-12 -6 -30 -9q-9 10 -34 33t-56 50.5t-36 32.5q1 5 11.5 20t14.5 15q5 0 57 -22.5t64 -29.5q7 -4 14 0q21 10 80.5 31t64.5 21t11 -16.5
t4 -21.5q-10 -6 -82 -50.5t-83 -53.5z" />
    <glyph glyph-name="uni0159" unicode="&#x159;" horiz-adv-x="383" 
d="M214 289q30 54 59 89q22 25 39.5 37t42.5 12q38 0 53 -31q3 -10 0 -19q-4 -16 -22.5 -49.5t-31.5 -47.5q-9 -9 -18 -7q-31 29 -52 29q-29 0 -64 -84q-20 -47 -31 -109q-11 -64 -7 -80q-20 -12 -61.5 -27t-60.5 -18q-4 1 -8.5 6.5t-5.5 9.5q5 28 24 122.5t26 136.5
q9 55 -5 55q-20 0 -53 -27q-2 -1 -5 1.5t-3 4.5q0 29 9 42q46 45 87.5 68.5t65.5 23.5q40 0 21 -110l-4 -28q0 -1 2 -1t3 1zM265 550q61 74 74 81q42 13 57 8q4 -2 4 -10q-106 -122 -132 -162q-1 -3 -25.5 -10t-29.5 -7q-41 122 -68 173q3 5 27 13t41 8q3 0 7.5 -6
t9.5 -17.5t9 -21.5t10.5 -26t9.5 -23q2 -4 6 0z" />
    <glyph glyph-name="uni015A" unicode="&#x15a;" horiz-adv-x="530" 
d="M101 206q24 -105 61 -138q34 -32 93 -32q37 0 60.5 19.5t24.5 53.5q1 28 -17 54t-77 71q-5 4 -22.5 17t-22.5 17t-19.5 16t-19.5 17.5t-16 17t-15 18.5t-11 19t-9.5 22.5t-5 23.5t-2.5 27q0 91 62.5 143t167.5 52q54 0 108 -12q15 -3 29.5 -5.5t25.5 -4t14 -2.5
q-16 -51 -36 -159q-5 -5 -25.5 -7t-23.5 4q-6 88 -32 110q-11 11 -32 18t-38 7q-38 0 -62 -24t-24 -60q0 -43 45 -82q20 -16 57.5 -41t55.5 -38q89 -68 89 -148q0 -84 -68 -141t-189 -57q-48 0 -99.5 15.5t-73.5 32.5q-7 11 -7.5 74t4.5 92q4 7 22.5 9.5t27.5 0.5zM507 763
q3 -10 -4 -17q-17 -14 -106.5 -53.5t-99.5 -39.5q-4 0 -15.5 18.5t-10.5 23.5q9 11 77.5 73t78.5 66q14 0 45.5 -29t34.5 -42z" />
    <glyph glyph-name="uni015B" unicode="&#x15b;" horiz-adv-x="364" 
d="M258 428q61 0 85 -24q4 -4 4.5 -12t-1.5 -12q-16 -41 -40 -67q-3 -3 -7.5 -5t-7.5 -3t-4 0q-19 23 -47.5 41t-47.5 18q-16 0 -24 -8.5t-8 -20.5q0 -17 17 -31.5t81 -55.5q74 -48 74 -102q0 -73 -74 -120q-64 -41 -137 -41q-60 0 -92 28q-18 14 -18 33q0 17 9 46t21 48
q2 3 13 6.5t12 0.5q17 -47 51.5 -72.5t70.5 -25.5q15 0 24.5 8t9.5 20q0 18 -15 32t-65 48q-46 32 -63 56.5t-17 52.5q0 56 47 100q28 27 69 44.5t80 17.5zM399 644q7 -11 3 -24q-15 -21 -82.5 -82.5t-92.5 -77.5q-4 -1 -21.5 11t-18.5 16q78 134 94 153q13 4 61.5 6
t56.5 -2z" />
    <glyph glyph-name="uni015C" unicode="&#x15c;" horiz-adv-x="530" 
d="M101 206q24 -105 61 -138q34 -32 93 -32q37 0 60.5 19.5t24.5 53.5q1 28 -17 54t-77 71q-5 4 -22.5 17t-22.5 17t-19.5 16t-19.5 17.5t-16 17t-15 18.5t-11 19t-9.5 22.5t-5 23.5t-2.5 27q0 91 62.5 143t167.5 52q54 0 108 -12q15 -3 29.5 -5.5t25.5 -4t14 -2.5
q-16 -51 -36 -159q-5 -5 -25.5 -7t-23.5 4q-6 88 -32 110q-11 11 -32 18t-38 7q-38 0 -62 -24t-24 -60q0 -43 45 -82q20 -16 57.5 -41t55.5 -38q89 -68 89 -148q0 -84 -68 -141t-189 -57q-48 0 -99.5 15.5t-73.5 32.5q-7 11 -7.5 74t4.5 92q4 7 22.5 9.5t27.5 0.5zM342 802
q12 6 30 9q36 -41 125 -118q1 -7 -8.5 -21t-15.5 -14q-5 0 -51.5 18t-72.5 30q-7 4 -14 0q-19 -9 -76 -28.5t-66 -19.5q-5 0 -11 16t-4 21q31 17 91 55.5t73 51.5z" />
    <glyph glyph-name="uni015D" unicode="&#x15d;" horiz-adv-x="364" 
d="M258 428q61 0 85 -24q4 -4 4.5 -12t-1.5 -12q-16 -41 -40 -67q-3 -3 -7.5 -5t-7.5 -3t-4 0q-19 23 -47.5 41t-47.5 18q-16 0 -24 -8.5t-8 -20.5q0 -17 17 -31.5t81 -55.5q74 -48 74 -102q0 -73 -74 -120q-64 -41 -137 -41q-60 0 -92 28q-18 14 -18 33q0 17 9 46t21 48
q2 3 13 6.5t12 0.5q17 -47 51.5 -72.5t70.5 -25.5q15 0 24.5 8t9.5 20q0 18 -15 32t-65 48q-46 32 -63 56.5t-17 52.5q0 56 47 100q28 27 69 44.5t80 17.5zM243 544q-61 -75 -74 -81q-43 -12 -57 -8q-6 5 -4 10q106 122 132 162q1 3 25.5 10t29.5 7q41 -122 68 -173
q-3 -5 -27 -13t-41 -8q-3 0 -7.5 6t-9.5 17.5t-9 21.5t-10.5 26t-9.5 23q-2 4 -6 0z" />
    <glyph glyph-name="uni015E" unicode="&#x15e;" horiz-adv-x="530" 
d="M229 -18h-2q-48 0 -99.5 15.5t-73.5 32.5q-7 11 -7.5 74t4.5 92q4 7 22.5 9.5t27.5 0.5q24 -105 61 -138q34 -32 93 -32q37 0 60.5 19.5t24.5 53.5q1 28 -17 54t-77 71q-5 4 -22.5 17t-22.5 17t-19.5 16t-19.5 17.5t-16 17t-15 18.5t-11 19t-9.5 22.5t-5 23.5t-2.5 27
q0 91 62.5 143t167.5 52q36 0 108 -12q64 -12 69 -12q-16 -51 -36 -159q-5 -5 -25.5 -7t-23.5 4q-6 88 -32 110q-11 11 -32 18t-38 7q-38 0 -62 -24t-24 -60q0 -43 45 -82q19 -15 56.5 -40t56.5 -39q89 -68 89 -148q0 -75 -55 -129.5t-154 -66.5l-12 -14q-4 -5 0 -9
q28 -24 39 -36q24 -25 24 -55q0 -36 -24.5 -62t-51.5 -36t-48 -10q-23 0 -48 9.5t-33 21.5q-1 4 3 19t7 18q28 -17 64 -17q43 0 43 26q0 32 -73 67q2 11 3 13q33 34 61 63z" />
    <glyph glyph-name="uni015F" unicode="&#x15f;" horiz-adv-x="364" 
d="M258 428q61 0 85 -24q4 -4 4.5 -12t-1.5 -12q-16 -41 -40 -67q-3 -3 -7.5 -5t-7.5 -3t-4 0q-19 23 -47.5 41t-47.5 18q-16 0 -24 -8.5t-8 -20.5q0 -17 17 -31.5t81 -55.5q74 -48 74 -102q0 -73 -74 -120q-33 -21 -68 -31l-30 -31q-4 -6 0 -8q26 -17 39 -31q23 -26 23 -51
q0 -34 -22.5 -59.5t-47.5 -35t-45 -9.5q-24 0 -46 10t-30 23q-1 4 4 19t8 18q36 -21 63 -21q34 0 34 25q0 28 -71 64q2 11 3 13l67 65q-6 -1 -18 -1q-60 0 -92 28q-18 14 -18 33q0 43 29 90q2 3 13 6.5t12 0.5q19 -47 53 -70.5t70 -23.5q15 0 24.5 8t9.5 20q0 18 -15 32
t-65 48q-46 32 -63 56.5t-17 52.5q0 56 47 100q28 27 69 44.5t80 17.5z" />
    <glyph glyph-name="Scaron" unicode="&#x160;" horiz-adv-x="530" 
d="M101 206q24 -105 61 -138q34 -32 93 -32q37 0 60.5 19.5t24.5 53.5q1 28 -17 54t-77 71q-5 4 -22.5 17t-22.5 17t-19.5 16t-19.5 17.5t-16 17t-15 18.5t-11 19t-9.5 22.5t-5 23.5t-2.5 27q0 91 62.5 143t167.5 52q54 0 108 -12q15 -3 29.5 -5.5t25.5 -4t14 -2.5
q-16 -51 -36 -159q-5 -5 -25.5 -7t-23.5 4q-6 88 -32 110q-11 11 -32 18t-38 7q-38 0 -62 -24t-24 -60q0 -43 45 -82q20 -16 57.5 -41t55.5 -38q89 -68 89 -148q0 -84 -68 -141t-189 -57q-48 0 -99.5 15.5t-73.5 32.5q-7 11 -7.5 74t4.5 92q4 7 22.5 9.5t27.5 0.5zM361 667
q-12 -6 -30 -9q-9 10 -34 33t-56 50.5t-36 32.5q1 5 11.5 20t14.5 15q5 0 57 -22.5t64 -29.5q7 -3 14 0q21 10 80.5 31t64.5 21t11 -16.5t4 -21.5q-10 -6 -82 -50.5t-83 -53.5z" />
    <glyph glyph-name="scaron" unicode="&#x161;" horiz-adv-x="364" 
d="M258 428q61 0 85 -24q4 -4 4.5 -12t-1.5 -12q-16 -41 -40 -67q-3 -3 -7.5 -5t-7.5 -3t-4 0q-19 23 -47.5 41t-47.5 18q-16 0 -24 -8.5t-8 -20.5q0 -17 17 -31.5t81 -55.5q74 -48 74 -102q0 -73 -74 -120q-64 -41 -137 -41q-60 0 -92 28q-18 14 -18 33q0 17 9 46t21 48
q2 3 13 6.5t12 0.5q17 -47 51.5 -72.5t70.5 -25.5q15 0 24.5 8t9.5 20q0 18 -15 32t-65 48q-46 32 -63 56.5t-17 52.5q0 56 47 100q28 27 69 44.5t80 17.5zM261 550q61 74 74 81q41 13 57 8q4 -2 4 -10q-106 -122 -132 -162q-1 -3 -25.5 -10t-29.5 -7q-41 122 -68 173
q3 5 27 13t41 8q3 0 7.5 -6t9.5 -17.5t9 -21.5t10.5 -26t9.5 -23q2 -4 6 0z" />
    <glyph glyph-name="uni0162" unicode="&#x162;" horiz-adv-x="664" 
d="M119 45q66 9 69 10q22 4 31 16t15 42q31 153 72 422q0 8 -5 8q-19 2 -68 -1q-36 -2 -59 -36q-27 -39 -55 -86q-8 -1 -26.5 5t-23.5 14q24 57 53 176q3 9 9 7q53 -16 95 -16h334q69 0 119 12q8 -8 7 -13q-16 -43 -44 -176q-7 -5 -28 -5t-24 5q-1 20 -2.5 35.5t-3.5 27.5
l-3 18q-1 15 -12 23t-22 8q-55 2 -86 0q-9 -5 -9 -11q-55 -335 -65 -433q-3 -32 19 -38q21 -6 84 -14q3 -7 -0.5 -25t-8.5 -23q-27 0 -85 1.5t-101 1.5q-63 0 -113 -1.5t-72 -1.5q-2 8 1.5 25t7.5 23zM297 -30q25 0 43.5 -27t14.5 -65q-7 -54 -50 -88t-109 -44
q-5 5 -9.5 21.5t-3.5 21.5q48 17 63 29.5t16 32.5q1 16 -12.5 27t-46.5 21q-2 14 4 28q11 13 41 28t49 15z" />
    <glyph glyph-name="uni0163" unicode="&#x163;" horiz-adv-x="335" 
d="M235 344q-31 -146 -37 -219q-3 -37 17 -37q17 0 45 21t46 42q7 -2 7 -10q0 -30 -12 -56q-26 -36 -79 -68.5t-104 -32.5q-29 0 -43.5 25.5t-12.5 70.5q0 15 8.5 61.5t22 115t16.5 86.5q2 6 -3 6q-34 0 -66 4q-1 1 -1.5 6t0.5 6q4 7 22 26t22 21q5 1 33 1q5 0 7 5
q14 61 22 82q6 15 43.5 39.5t89.5 39.5q5 1 8.5 -5t1.5 -9q-13 -27 -20 -56q-8 -29 -19 -90q0 -6 4 -6q94 0 112 6q1 -4 -1.5 -16t-5.5 -16q-15 -22 -49 -29q-24 -5 -68 -8q-3 0 -6 -6zM141 -43q25 0 43.5 -27t14.5 -65q-7 -54 -50 -88t-109 -44q-5 5 -9.5 21.5t-3.5 21.5
q48 17 63 29.5t16 32.5q1 16 -12.5 27t-46.5 21q-2 14 4 28q11 13 41 28t49 15z" />
    <glyph glyph-name="uni0164" unicode="&#x164;" horiz-adv-x="664" 
d="M119 45q66 9 69 10q22 4 31 16t15 42q31 153 72 422q0 8 -5 8q-19 2 -68 -1q-36 -2 -59 -36q-27 -39 -55 -86q-8 -1 -26.5 5t-23.5 14q24 57 53 176q3 9 9 7q53 -16 95 -16h334q69 0 119 12q8 -8 7 -13q-16 -43 -44 -176q-7 -5 -28 -5t-24 5q-1 20 -2.5 35.5t-3.5 27.5
l-3 18q-1 15 -12 23t-22 8q-55 2 -86 0q-9 -5 -9 -11q-55 -335 -65 -433q-3 -32 19 -38q21 -6 84 -14q3 -7 -0.5 -25t-8.5 -23q-27 0 -85 1.5t-101 1.5q-63 0 -113 -1.5t-72 -1.5q-2 8 1.5 25t7.5 23zM416 649q-12 -6 -30 -9q-9 10 -34 33t-56 50.5t-36 32.5q1 5 11.5 20
t14.5 15q5 0 57 -22.5t64 -29.5q7 -3 14 0q21 10 80.5 31t64.5 21t11 -16.5t4 -21.5q-10 -6 -82 -50.5t-83 -53.5z" />
    <glyph glyph-name="uni0165" unicode="&#x165;" horiz-adv-x="335" 
d="M235 344q-31 -146 -37 -219q-3 -37 17 -37q17 0 45 21t46 42q7 -2 7 -10q0 -30 -12 -56q-26 -36 -79 -68.5t-104 -32.5q-29 0 -43.5 25.5t-12.5 70.5q0 15 8.5 61.5t22 115t16.5 86.5q2 6 -3 6q-34 0 -66 4q-1 1 -1.5 6t0.5 6q4 7 22 26t22 21q5 1 33 1q5 0 7 5
q14 61 22 82q6 15 43.5 39.5t89.5 39.5q5 1 8.5 -5t1.5 -9q-13 -27 -20 -56q-8 -29 -19 -90q0 -6 4 -6q94 0 112 6q1 -4 -1.5 -16t-5.5 -16q-15 -22 -49 -29q-24 -5 -68 -8q-3 0 -6 -6zM460 720q8 0 5 -17q-4 -28 -29.5 -106t-39.5 -105q-3 -5 -22.5 -19.5t-28.5 -18.5
q-3 -1 -6.5 3t-3.5 6q7 38 16 110t8 91l1 4q2 3 5 6q10 9 46.5 27.5t48.5 18.5z" />
    <glyph glyph-name="Tbar" unicode="&#x166;" horiz-adv-x="664" 
d="M119 420q-8 -1 -26.5 5t-23.5 14q24 57 53 176q3 9 9 7q53 -16 95 -16h334q72 0 122 12q6 -6 4 -13q-16 -43 -44 -176q-7 -5 -28 -5t-24 5q-3 58 -5 81q-1 15 -12 23t-22 8q-58 2 -90 0q-9 -5 -9 -11q-2 -16 -14.5 -87.5t-17.5 -110.5q25 0 49 0.5t36 1t16 0.5
q1 -5 -3.5 -25t-7.5 -26q-7 0 -44 0.5t-54 0.5q-17 -105 -25 -187q-3 -32 19 -38q21 -6 84 -14q3 -7 -0.5 -25t-8.5 -23q-27 0 -85 1.5t-101 1.5q-63 0 -113 -1.5t-72 -1.5q-2 8 1.5 25t7.5 23q66 9 69 10q22 4 31 16t15 42q15 75 31 171q-94 -2 -97 -2q1 11 5.5 29.5
t7.5 21.5q4 0 18.5 -0.5t29.5 -0.5h44l33 203q0 8 -5 8q-21 2 -74 -1q-36 -2 -59 -36q-10 -14 -26 -44t-23 -42z" />
    <glyph glyph-name="tbar" unicode="&#x167;" horiz-adv-x="335" 
d="M118 -16q-29 0 -43.5 25.5t-12.5 70.5q0 15 20 127q-8 0 -29 -0.5t-29 -0.5q1 10 7 29t9 22q4 0 21 -0.5t31 -0.5q10 49 17 87q2 6 -3 6q-34 0 -66 4q0 2 -0.5 6t-0.5 6q4 7 22 26t22 21q5 1 33 1q5 0 7 5q13 59 23 84q5 14 42.5 38t89.5 39q5 1 8.5 -5t1.5 -9
q-13 -27 -20 -56q-8 -29 -19 -90q0 -6 4 -6q94 0 112 6q2 -9 -5 -26q-16 -23 -51 -35q-9 -2 -68 -8q-3 0 -6 -6q-15 -74 -17 -88q30 0 54 0.5t26 0.5q1 -7 -4 -27t-10 -23q-4 0 -32.5 0.5t-41.5 0.5q-11 -65 -12 -83q-3 -37 19 -37q34 0 89 63q7 -2 7 -10q0 -32 -12 -58
q-25 -36 -78.5 -67.5t-104.5 -31.5z" />
    <glyph glyph-name="uni0168" unicode="&#x168;" horiz-adv-x="721" 
d="M68 561q-3 7 -1 25.5t8 22.5q5 0 58 -1.5t104 -1.5q53 0 106.5 1.5t54.5 1.5q2 -6 -0.5 -24t-6.5 -24q-46 -7 -49 -8q-34 -9 -43 -56q-3 -15 -30 -178q-14 -95 -13 -136q-1 -50 31.5 -83t100.5 -33q20 0 36.5 2.5t36.5 11.5t35 25t29 44.5t23 67.5q34 152 44 268
q5 55 -30 62q-4 1 -65 13q-4 5 -1 24.5t9 23.5q4 0 48.5 -1.5t87.5 -1.5q45 0 84 1.5t51 1.5q5 -5 3 -24t-8 -24q-7 -2 -23.5 -4.5t-26.5 -5.5q-17 -4 -27 -15.5t-13.5 -22t-9.5 -35.5q-16 -72 -41 -213q-16 -87 -44 -145t-68.5 -87t-82 -40t-97.5 -11q-141 0 -198 72
q-35 43 -35 112q0 25 7 75.5t20 134.5t19 123q6 43 -23 51q-32 8 -60 11zM540 747q36 0 83 38q3 3 6 -10q5 -24 2 -33q-17 -25 -58 -49.5t-76 -24.5q-16 0 -69 17q-22 10 -44 10q-20 0 -80 -35q-4 -2 -9 24q-2 14 0 16q15 19 57.5 48.5t64.5 29.5t68 -17q34 -14 55 -14z" />
    </font>
</defs>
</svg>
