<?xml version="1.0" standalone="no"?>
<!DOCTYPE svg PUBLIC "-//W3C//DTD SVG 1.1//EN" "http://www.w3.org/Graphics/SVG/1.1/DTD/svg11.dtd" >
<svg>
<metadata>
Created by FontForge 20120731 at Fri Nov 18 07:13:43 2016
 By Apache
Copyright \(c\) 2015 by Radomir Tinkov. All rights reserved.
</metadata>
<defs>
<font id="Qanelas-Bold" horiz-adv-x="268" >
  <font-face 
    font-family="Qanelas Bold"
    font-weight="700"
    font-stretch="normal"
    units-per-em="1000"
    panose-1="0 0 8 0 0 0 0 0 0 0"
    ascent="800"
    descent="-200"
    x-height="500"
    cap-height="700"
    bbox="-415 -263 1128 976"
    underline-thickness="50"
    underline-position="-50"
    unicode-range="U+0020-FB02"
  />
<missing-glyph horiz-adv-x="500" 
d="M410 800v-1000h-317v1000h317zM333 733h-165v-33h65v-37h-66v-33h166v33h-66v37h66v33zM267 604h-100v-104h166v34h-66v70zM233 570v-36h-33v36h33zM333 473h-166v-33h66v-37h-66v-33h100v70h66v33zM333 413h-33v-66h-133v-34h166v100zM333 291h-100v-56h34v23h33v-47
h-100v80h-33v-113h166v113zM333 118h-166v-113h166v113zM300 85v-47h-100v47h100zM333 -18h-166v-33h70l-70 -47v-33h166v33h-102l70 47h32v33z" />
    <glyph glyph-name="f_f" unicode="ff" horiz-adv-x="589" 
d="M589 600c-66 5 -106 -17 -106 -85v-15h106v-124h-106v-376h-129v376h-71h-77v-376h-129v376h-72v124h72v5c0 138 76 219 234 209v-124c-66 5 -105 -17 -105 -85v-5h105h43v15c0 138 77 219 235 209v-124z" />
    <glyph glyph-name="f_f_i" unicode="ffi" horiz-adv-x="818" 
d="M759 500v-500h-129v376h-147v-376h-129v376h-71h-77v-376h-129v376h-72v124h72v5c0 138 76 219 234 209v-124c-66 5 -105 -17 -105 -85v-5h105h43v15c0 138 77 209 235 209c38 0 76 -5 118 -14v-118c-43 5 -82 8 -118 8c-66 0 -106 -17 -106 -85v-15h276z" />
    <glyph glyph-name="f_f_l" unicode="ffl" horiz-adv-x="818" 
d="M589 724c63 0 115 -10 170 -21v-703h-129v610c-14 1 -28 1 -41 1c-66 0 -106 -28 -106 -96v-15h83v-124h-83v-376h-129v376h-71h-77v-376h-129v376h-72v124h72v5c0 138 76 219 234 209v-124c-66 5 -105 -17 -105 -85v-5h105h43v15c0 138 77 209 235 209z" />
    <glyph glyph-name="fi" unicode="fi" horiz-adv-x="540" 
d="M482 500v-500h-129v376h-147v-376h-129v376h-72v124h72v5c0 138 76 209 234 209c39 0 77 -5 118 -14v-118c-42 5 -81 8 -118 8c-66 0 -105 -17 -105 -85v-5h276z" />
    <glyph glyph-name="fl" unicode="fl" horiz-adv-x="540" 
d="M311 714c64 0 116 -10 171 -21v-693h-129v600c-15 1 -28 1 -42 1c-66 0 -105 -28 -105 -96v-5h83v-124h-83v-376h-129v376h-72v124h72v5c0 138 76 209 234 209z" />
    <glyph glyph-name=".notdef" horiz-adv-x="500" 
d="M410 800v-1000h-317v1000h317zM333 733h-165v-33h65v-37h-66v-33h166v33h-66v37h66v33zM267 604h-100v-104h166v34h-66v70zM233 570v-36h-33v36h33zM333 473h-166v-33h66v-37h-66v-33h100v70h66v33zM333 413h-33v-66h-133v-34h166v100zM333 291h-100v-56h34v23h33v-47
h-100v80h-33v-113h166v113zM333 118h-166v-113h166v113zM300 85v-47h-100v47h100zM333 -18h-166v-33h70l-70 -47v-33h166v33h-102l70 47h32v33z" />
    <glyph glyph-name="A" unicode="A" horiz-adv-x="653" 
d="M500 0l-40 126h-268l-40 -126h-149l238 700h171l238 -700h-150zM233 255h186l-93 292z" />
    <glyph glyph-name="Aacute" unicode="&#xc1;" horiz-adv-x="653" 
d="M481 900l-111 -137h-124l80 137h155zM500 0l-40 126h-268l-40 -126h-149l238 700h171l238 -700h-150zM233 255h186l-93 292z" />
    <glyph glyph-name="Abreve" unicode="&#x102;" horiz-adv-x="653" 
d="M326 747c-105 0 -166 53 -166 145h115c0 -35 18 -52 51 -52c34 0 52 17 52 52h115c0 -92 -60 -145 -167 -145zM500 0l-40 126h-268l-40 -126h-149l238 700h171l238 -700h-150zM233 255h186l-93 292z" />
    <glyph glyph-name="Acircumflex" unicode="&#xc2;" horiz-adv-x="653" 
d="M323 820l-44 -65h-128l106 145h119h12l106 -145h-128zM500 0l-40 126h-268l-40 -126h-149l238 700h171l238 -700h-150zM233 255h186l-93 292z" />
    <glyph glyph-name="Adieresis" unicode="&#xc4;" horiz-adv-x="653" 
d="M293 879v-118h-118v118h118zM478 879v-118h-118v118h118zM500 0l-40 126h-268l-40 -126h-149l238 700h171l238 -700h-150zM233 255h186l-93 292z" />
    <glyph glyph-name="Agrave" unicode="&#xc0;" horiz-adv-x="653" 
d="M404 763h-124l-111 137h155zM500 0l-40 126h-268l-40 -126h-149l238 700h171l238 -700h-150zM233 255h186l-93 292z" />
    <glyph glyph-name="Amacron" unicode="&#x100;" horiz-adv-x="653" 
d="M471 869v-105h-290v105h290zM500 0l-40 126h-268l-40 -126h-149l238 700h171l238 -700h-150zM233 255h186l-93 292z" />
    <glyph glyph-name="Aogonek" unicode="&#x104;" horiz-adv-x="653" 
d="M622 -122c9 -1 18 1 28 5v-81c-24 -10 -48 -16 -81 -16c-54 0 -95 29 -95 88c0 38 26 84 66 126h-40l-40 126h-268l-40 -126h-149l238 700h171l238 -700c-33 -35 -53 -71 -53 -95c0 -17 9 -27 25 -27zM233 255h186l-93 292z" />
    <glyph glyph-name="Aring" unicode="&#xc5;" horiz-adv-x="653" 
d="M326 739c-74 0 -126 51 -126 119c0 67 52 118 126 118c76 0 126 -51 126 -118c0 -68 -50 -119 -126 -119zM326 895c-25 0 -39 -16 -39 -37c0 -22 14 -38 39 -38c27 0 40 16 40 38c0 21 -13 37 -40 37zM500 0l-40 126h-268l-40 -126h-149l238 700h171l238 -700h-150z
M233 255h186l-93 292z" />
    <glyph glyph-name="Atilde" unicode="&#xc3;" horiz-adv-x="653" 
d="M314 784c-39 25 -53 26 -53 -24h-104c0 159 96 176 182 121c39 -25 52 -26 52 24h105c0 -159 -97 -176 -182 -121zM500 0l-40 126h-268l-40 -126h-149l238 700h171l238 -700h-150zM233 255h186l-93 292z" />
    <glyph glyph-name="AE" unicode="&#xc6;" horiz-adv-x="880" 
d="M584 132h264v-132h-353h-45v126h-221l-74 -126h-155l414 700h81h89h259v-132h-259v-150h236v-129h-236v-157zM305 255h145v246z" />
    <glyph glyph-name="B" unicode="B" horiz-adv-x="685" 
d="M537 426c73 -38 121 -113 121 -203c0 -126 -94 -223 -221 -223h-339h-33v700h138h153c120 0 207 -81 207 -189c0 -31 -10 -60 -26 -85zM356 571h-153v-118h201c13 13 21 32 21 51c0 39 -26 67 -69 67zM419 129c68 0 101 45 101 101c0 57 -33 101 -100 101h-217v-202h216z
" />
    <glyph glyph-name="C" unicode="C" horiz-adv-x="752" 
d="M397 -14c-212 0 -364 160 -364 364c0 205 152 364 364 364c166 0 307 -109 340 -264h-145c-25 79 -103 130 -195 130c-137 0 -227 -95 -227 -230c0 -134 90 -229 227 -229c92 0 170 50 195 129h145c-33 -154 -173 -264 -340 -264z" />
    <glyph glyph-name="Cacute" unicode="&#x106;" horiz-adv-x="752" 
d="M317 771h124l111 137h-155zM397 -14c-212 0 -364 160 -364 364c0 205 152 364 364 364c166 0 307 -109 340 -264h-145c-25 79 -103 130 -195 130c-137 0 -227 -95 -227 -230c0 -134 90 -229 227 -229c92 0 170 50 195 129h145c-33 -154 -173 -264 -340 -264z" />
    <glyph glyph-name="Ccaron" unicode="&#x10c;" horiz-adv-x="752" 
d="M328 763l-106 145h128l44 -65l43 65h128l-106 -145h-131zM397 121c92 0 170 50 195 129h145c-33 -154 -173 -264 -340 -264c-212 0 -364 160 -364 364c0 205 152 364 364 364c166 0 307 -109 340 -264h-145c-25 79 -103 130 -195 130c-137 0 -227 -95 -227 -230
c0 -134 90 -229 227 -229z" />
    <glyph glyph-name="Ccedilla" unicode="&#xc7;" horiz-adv-x="752" 
d="M397 121c92 0 170 50 195 129h145c-29 -136 -141 -237 -282 -259v-37c34 -8 70 -32 70 -78c0 -60 -52 -102 -220 -92v91c73 -5 108 3 108 20c0 16 -24 22 -63 25v69c-187 22 -317 172 -317 361c0 205 152 364 364 364c166 0 307 -109 340 -264h-145
c-25 79 -103 130 -195 130c-137 0 -227 -95 -227 -230c0 -134 90 -229 227 -229z" />
    <glyph glyph-name="Cdotaccent" unicode="&#x10a;" horiz-adv-x="752" 
d="M330 766v135h135v-135h-135zM397 -14c-212 0 -364 160 -364 364c0 205 152 364 364 364c166 0 307 -109 340 -264h-145c-25 79 -103 130 -195 130c-137 0 -227 -95 -227 -230c0 -134 90 -229 227 -229c92 0 170 50 195 129h145c-33 -154 -173 -264 -340 -264z" />
    <glyph glyph-name="D" unicode="D" horiz-adv-x="733" 
d="M363 700c193 0 337 -153 337 -350s-144 -350 -337 -350h-253h-45v700h138h160zM363 132c121 0 205 89 205 218s-84 218 -205 218h-160v-436h160z" />
    <glyph glyph-name="Eth" unicode="&#xd0;" horiz-adv-x="768" 
d="M398 700c193 0 337 -153 337 -350s-144 -350 -337 -350h-253h-45v281h-77v124h77v295h138h160zM398 132c121 0 205 89 205 218s-84 218 -205 218h-160v-163h160v-124h-160v-149h160z" />
    <glyph glyph-name="Dcaron" unicode="&#x10e;" horiz-adv-x="733" 
d="M266 755l-106 145h128l44 -65l43 65h128l-106 -145h-131zM363 700c193 0 337 -153 337 -350s-144 -350 -337 -350h-253h-45v700h138h160zM363 132c121 0 205 89 205 218s-84 218 -205 218h-160v-436h160z" />
    <glyph glyph-name="Dcroat" unicode="&#x110;" horiz-adv-x="768" 
d="M398 700c193 0 337 -153 337 -350s-144 -350 -337 -350h-253h-45v281h-77v124h77v295h138h160zM398 132c121 0 205 89 205 218s-84 218 -205 218h-160v-163h160v-124h-160v-149h160z" />
    <glyph glyph-name="E" unicode="E" horiz-adv-x="513" 
d="M203 132h277v-132h-370h-45v700h138h272v-132h-272v-150h247v-129h-247v-157z" />
    <glyph glyph-name="Eacute" unicode="&#xc9;" horiz-adv-x="513" 
d="M426 900l-111 -137h-124l80 137h155zM203 132h277v-132h-370h-45v700h138h272v-132h-272v-150h247v-129h-247v-157z" />
    <glyph glyph-name="Ecaron" unicode="&#x11a;" horiz-adv-x="513" 
d="M202 755l-106 145h128l44 -65l43 65h128l-106 -145h-131zM203 132h277v-132h-370h-45v700h138h272v-132h-272v-150h247v-129h-247v-157z" />
    <glyph glyph-name="Ecircumflex" unicode="&#xca;" horiz-adv-x="513" 
d="M268 820l-44 -65h-128l106 145h119h12l106 -145h-128zM203 132h277v-132h-370h-45v700h138h272v-132h-272v-150h247v-129h-247v-157z" />
    <glyph glyph-name="Edieresis" unicode="&#xcb;" horiz-adv-x="513" 
d="M237 879v-118h-118v118h118zM422 879v-118h-118v118h118zM203 132h277v-132h-370h-45v700h138h272v-132h-272v-150h247v-129h-247v-157z" />
    <glyph glyph-name="Edotaccent" unicode="&#x116;" horiz-adv-x="513" 
d="M338 893v-135h-135v135h135zM203 132h277v-132h-370h-45v700h138h272v-132h-272v-150h247v-129h-247v-157z" />
    <glyph glyph-name="Egrave" unicode="&#xc8;" horiz-adv-x="513" 
d="M348 763h-124l-111 137h155zM203 132h277v-132h-370h-45v700h138h272v-132h-272v-150h247v-129h-247v-157z" />
    <glyph glyph-name="Emacron" unicode="&#x112;" horiz-adv-x="513" 
d="M416 869v-105h-290v105h290zM203 132h277v-132h-370h-45v700h138h272v-132h-272v-150h247v-129h-247v-157z" />
    <glyph glyph-name="Eogonek" unicode="&#x118;" horiz-adv-x="513" 
d="M480 0c-33 -35 -52 -71 -52 -95c-1 -17 8 -27 25 -27c8 -1 17 1 27 5v-81c-24 -10 -48 -16 -80 -16c-55 0 -96 29 -96 88c0 38 26 84 66 126h-260h-45v700h138h272v-132h-272v-150h247v-129h-247v-157h277v-132z" />
    <glyph glyph-name="F" unicode="F" horiz-adv-x="503" 
d="M475 568h-272v-178h265v-132h-265v-258h-138v700h138h272v-132z" />
    <glyph glyph-name="G" unicode="G" horiz-adv-x="785" 
d="M403 254v122h332v-122v-254h-130v88c-48 -65 -125 -102 -224 -102c-199 0 -348 160 -348 364c0 205 152 364 363 364c166 0 306 -109 339 -249h-144c-26 64 -103 115 -195 115c-136 0 -226 -95 -226 -230c0 -142 95 -237 226 -237c101 0 182 49 201 141h-194z" />
    <glyph glyph-name="Gbreve" unicode="&#x11e;" horiz-adv-x="785" 
d="M393 755c-105 0 -166 53 -166 145h115c0 -35 18 -52 51 -52c34 0 52 17 52 52h115c0 -92 -60 -145 -167 -145zM403 254v122h332v-122v-254h-130v88c-48 -65 -125 -102 -224 -102c-199 0 -348 160 -348 364c0 205 152 364 363 364c166 0 306 -109 339 -249h-144
c-26 64 -103 115 -195 115c-136 0 -226 -95 -226 -230c0 -142 95 -237 226 -237c101 0 182 49 201 141h-194z" />
    <glyph glyph-name="Gcommaaccent" unicode="&#x122;" horiz-adv-x="785" 
d="M403 254v122h332v-122v-254h-130v88c-48 -65 -125 -102 -224 -102c-199 0 -348 160 -348 364c0 205 152 364 363 364c166 0 306 -109 339 -249h-144c-26 64 -103 115 -195 115c-136 0 -226 -95 -226 -230c0 -142 95 -237 226 -237c101 0 182 49 201 141h-194zM338 -263
l10 200h122l-30 -200h-102z" />
    <glyph glyph-name="Gdotaccent" unicode="&#x120;" horiz-adv-x="785" 
d="M461 901v-135h-135v135h135zM403 254v122h332v-122v-254h-130v88c-48 -65 -125 -102 -224 -102c-199 0 -348 160 -348 364c0 205 152 364 363 364c166 0 306 -109 339 -249h-144c-26 64 -103 115 -195 115c-136 0 -226 -95 -226 -230c0 -142 95 -237 226 -237
c101 0 182 49 201 141h-194z" />
    <glyph glyph-name="H" unicode="H" horiz-adv-x="638" 
d="M435 700h138v-700h-138v294h-232v-294h-138v700h138v-274h232v274z" />
    <glyph glyph-name="Hbar" unicode="&#x126;" horiz-adv-x="680" 
d="M655 602v-101h-61v-501h-138v272h-232v-272h-138v501h-61v101h61v98h138v-98h232v98h138v-98h61zM456 404v97h-232v-97h232z" />
    <glyph glyph-name="I" unicode="I" 
d="M65 700h138v-700h-138v700z" />
    <glyph glyph-name="Iacute" unicode="&#xcd;" 
d="M54 763h124l111 137h-155zM65 700h138v-700h-138v700z" />
    <glyph glyph-name="Icircumflex" unicode="&#xce;" 
d="M131 820l-44 -65h-128l106 145h119h12l106 -145h-128zM65 0v700h138v-700h-138z" />
    <glyph glyph-name="Idieresis" unicode="&#xcf;" 
d="M-18 761v118h118v-118h-118zM167 761v118h118v-118h-118zM65 700h138v-700h-138v700z" />
    <glyph glyph-name="Idotaccent" unicode="&#x130;" 
d="M66 758v135h135v-135h-135zM65 700h138v-700h-138v700z" />
    <glyph glyph-name="Igrave" unicode="&#xcc;" 
d="M211 763l-80 137h-155l111 -137h124zM65 700h138v-700h-138v700z" />
    <glyph glyph-name="Imacron" unicode="&#x12a;" 
d="M-11 764v105h290v-105h-290zM65 700h138v-700h-138v700z" />
    <glyph glyph-name="Iogonek" unicode="&#x12e;" 
d="M194 -122c8 -1 17 1 28 5v-81c-25 -10 -48 -16 -81 -16c-55 0 -96 29 -96 88c0 39 19 86 46 126h-26v700h138v-700c-22 -36 -34 -68 -34 -95c-1 -17 8 -27 25 -27z" />
    <glyph glyph-name="J" unicode="J" horiz-adv-x="538" 
d="M248 -14c-122 0 -235 70 -235 221v18h137v-18c0 -57 36 -86 98 -86c61 0 97 29 97 86v493h138v-493c0 -151 -114 -221 -235 -221z" />
    <glyph glyph-name="K" unicode="K" horiz-adv-x="615" 
d="M612 0h-159l-250 329v-329h-138v700h138v-309l240 309h159l-259 -341z" />
    <glyph glyph-name="Kcommaaccent" unicode="&#x136;" horiz-adv-x="615" 
d="M343 359l269 -359h-159l-250 329v-329h-138v700h138v-309l240 309h159zM243 -263l10 200h122l-30 -200h-102z" />
    <glyph glyph-name="L" unicode="L" horiz-adv-x="475" 
d="M203 132h260v-132h-398v700h138v-568z" />
    <glyph glyph-name="Lacute" unicode="&#x139;" horiz-adv-x="475" 
d="M302 900l-111 -137h-124l80 137h155zM203 132h260v-132h-398v700h138v-568z" />
    <glyph glyph-name="Lcaron" unicode="&#x13d;" horiz-adv-x="475" 
d="M203 132h260v-132h-398v700h138v-568zM406 700l-30 -185h-109l10 185h129z" />
    <glyph glyph-name="Lcommaaccent" unicode="&#x13b;" horiz-adv-x="475" 
d="M203 132h260v-132h-398v700h138v-568zM209 -263l10 200h122l-30 -200h-102z" />
    <glyph glyph-name="Lslash" unicode="&#x141;" horiz-adv-x="503" 
d="M223 132h260v-132h-398v209l-52 -34v138l52 34v353h138v-263l140 92v-138l-140 -92v-167z" />
    <glyph glyph-name="M" unicode="M" horiz-adv-x="815" 
d="M750 700v-700h-137v470l-155 -358h-100l-155 358v-470h-138v700h138h19l186 -428l185 428h157z" />
    <glyph glyph-name="N" unicode="N" horiz-adv-x="645" 
d="M443 700h137v-700h-105l-272 433v-433h-138v700h105l273 -432v432z" />
    <glyph glyph-name="Nacute" unicode="&#x143;" horiz-adv-x="645" 
d="M243 763h124l111 137h-155zM443 700h137v-700h-105l-272 433v-433h-138v700h105l273 -432v432z" />
    <glyph glyph-name="Ncaron" unicode="&#x147;" horiz-adv-x="645" 
d="M254 755l-106 145h128l44 -65l43 65h128l-106 -145h-131zM443 700h137v-700h-105l-272 433v-433h-138v700h105l273 -432v432z" />
    <glyph glyph-name="Ncommaaccent" unicode="&#x145;" horiz-adv-x="645" 
d="M443 700h137v-700h-105l-272 433v-433h-138v700h105l273 -432v432zM360 -263l30 200h-122l-10 -200h102z" />
    <glyph glyph-name="Eng" unicode="&#x14a;" horiz-adv-x="645" 
d="M443 700h137v-700c0 -137 -86 -200 -232 -200v122c60 0 95 20 95 78v52l-240 381v-433h-138v700h105l273 -432v432z" />
    <glyph glyph-name="Ntilde" unicode="&#xd1;" horiz-adv-x="645" 
d="M154 760c0 159 96 176 182 121c39 -25 52 -26 52 24h105c0 -159 -97 -176 -182 -121c-39 25 -53 26 -53 -24h-104zM443 700h137v-700h-105l-272 433v-433h-138v700h105l273 -432v432z" />
    <glyph glyph-name="O" unicode="O" horiz-adv-x="792" 
d="M396 -14c-202 0 -363 160 -363 364c0 205 161 364 363 364s364 -159 364 -364c0 -204 -162 -364 -364 -364zM396 121c127 0 226 95 226 229c0 135 -99 230 -226 230s-226 -95 -226 -230c0 -134 99 -229 226 -229z" />
    <glyph glyph-name="Oacute" unicode="&#xd3;" horiz-adv-x="792" 
d="M316 771h124l111 137h-155zM396 -14c-202 0 -363 160 -363 364c0 205 161 364 363 364s364 -159 364 -364c0 -204 -162 -364 -364 -364zM396 121c127 0 226 95 226 229c0 135 -99 230 -226 230s-226 -95 -226 -230c0 -134 99 -229 226 -229z" />
    <glyph glyph-name="Ocircumflex" unicode="&#xd4;" horiz-adv-x="792" 
d="M393 828l-44 -65h-128l106 145h119h12l106 -145h-128zM396 714c202 0 364 -159 364 -364c0 -204 -162 -364 -364 -364s-363 160 -363 364c0 205 161 364 363 364zM396 121c127 0 226 95 226 229c0 135 -99 230 -226 230s-226 -95 -226 -230c0 -134 99 -229 226 -229z" />
    <glyph glyph-name="Odieresis" unicode="&#xd6;" horiz-adv-x="792" 
d="M245 769v118h118v-118h-118zM430 769v118h118v-118h-118zM396 -14c-202 0 -363 160 -363 364c0 205 161 364 363 364s364 -159 364 -364c0 -204 -162 -364 -364 -364zM396 121c127 0 226 95 226 229c0 135 -99 230 -226 230s-226 -95 -226 -230c0 -134 99 -229 226 -229z
" />
    <glyph glyph-name="Ograve" unicode="&#xd2;" horiz-adv-x="792" 
d="M474 771l-80 137h-155l111 -137h124zM396 -14c-202 0 -363 160 -363 364c0 205 161 364 363 364s364 -159 364 -364c0 -204 -162 -364 -364 -364zM396 121c127 0 226 95 226 229c0 135 -99 230 -226 230s-226 -95 -226 -230c0 -134 99 -229 226 -229z" />
    <glyph glyph-name="Ohungarumlaut" unicode="&#x150;" horiz-adv-x="792" 
d="M231 763h128l84 138h-134zM404 763h128l94 138h-134zM396 -14c-202 0 -363 160 -363 364c0 205 161 364 363 364s364 -159 364 -364c0 -204 -162 -364 -364 -364zM396 121c127 0 226 95 226 229c0 135 -99 230 -226 230s-226 -95 -226 -230c0 -134 99 -229 226 -229z" />
    <glyph glyph-name="Omacron" unicode="&#x14c;" horiz-adv-x="792" 
d="M251 772v105h290v-105h-290zM396 -14c-202 0 -363 160 -363 364c0 205 161 364 363 364s364 -159 364 -364c0 -204 -162 -364 -364 -364zM396 121c127 0 226 95 226 229c0 135 -99 230 -226 230s-226 -95 -226 -230c0 -134 99 -229 226 -229z" />
    <glyph glyph-name="Oslash" unicode="&#xd8;" horiz-adv-x="798" 
d="M659 609c66 -65 107 -156 107 -259c0 -204 -162 -364 -364 -364c-77 0 -148 23 -206 63l-41 -49h-100l82 99c-61 65 -98 153 -98 251c0 205 162 364 363 364c73 0 140 -21 197 -57l35 43h100zM176 350c0 -57 18 -107 48 -146l289 349c-33 17 -71 27 -111 27
c-127 0 -226 -95 -226 -230zM402 121c127 0 226 95 226 229c0 62 -21 115 -55 155l-291 -352c35 -20 76 -32 120 -32z" />
    <glyph glyph-name="Otilde" unicode="&#xd5;" horiz-adv-x="792" 
d="M227 768c0 159 96 176 182 121c39 -25 52 -26 52 24h105c0 -159 -97 -176 -182 -121c-39 25 -53 26 -53 -24h-104zM396 -14c-202 0 -363 160 -363 364c0 205 161 364 363 364s364 -159 364 -364c0 -204 -162 -364 -364 -364zM396 121c127 0 226 95 226 229
c0 135 -99 230 -226 230s-226 -95 -226 -230c0 -134 99 -229 226 -229z" />
    <glyph glyph-name="OE" unicode="&#x152;" horiz-adv-x="916" 
d="M623 132h260v-132h-352h-45c-31 -9 -65 -14 -100 -14c-202 0 -353 160 -353 364c0 205 151 364 353 364c35 0 69 -5 100 -14h137h255v-132h-255v-150h233v-129h-233v-157zM486 136v429c-30 10 -64 15 -100 15c-127 0 -216 -95 -216 -230c0 -134 89 -229 216 -229
c36 0 70 4 100 15z" />
    <glyph glyph-name="P" unicode="P" horiz-adv-x="588" 
d="M326 700c133 0 237 -104 237 -232c0 -129 -104 -233 -237 -233h-123v-235h-138v700h138h123zM326 364c56 0 99 46 99 104s-43 103 -99 103h-123v-207h123z" />
    <glyph glyph-name="Thorn" unicode="&#xde;" horiz-adv-x="588" 
d="M330 583c129 0 233 -104 233 -233c0 -128 -104 -232 -233 -232h-127v-118h-138v700h138v-117h127zM330 247c52 0 95 45 95 103s-43 104 -95 104h-127v-207h127z" />
    <glyph glyph-name="Q" unicode="Q" horiz-adv-x="797" 
d="M760 350c0 -92 -34 -175 -88 -238l77 -87l-101 -84l-79 89c-51 -28 -110 -44 -173 -44c-201 0 -363 160 -363 364c0 205 162 364 363 364s364 -159 364 -364zM396 121c29 0 56 4 81 14l-80 91l101 83l83 -94c26 37 41 83 41 135c0 135 -100 230 -226 230
s-226 -95 -226 -230c0 -134 100 -229 226 -229z" />
    <glyph glyph-name="R" unicode="R" horiz-adv-x="630" 
d="M486 0l-198 243h-85v-243h-138v700h138h127c129 0 233 -104 233 -232c0 -87 -54 -165 -131 -202l216 -266h-162zM203 571v-207h127c52 0 95 46 95 104s-43 103 -95 103h-127z" />
    <glyph glyph-name="Racute" unicode="&#x154;" horiz-adv-x="630" 
d="M435 900l-111 -137h-124l80 137h155zM486 0l-198 243h-85v-243h-138v700h138h127c129 0 233 -104 233 -232c0 -87 -54 -165 -131 -202l216 -266h-162zM203 571v-207h127c52 0 95 46 95 104s-43 103 -95 103h-127z" />
    <glyph glyph-name="Rcaron" unicode="&#x158;" horiz-adv-x="630" 
d="M211 755l-106 145h128l44 -65l43 65h128l-106 -145h-131zM486 0l-198 243h-85v-243h-138v700h138h127c129 0 233 -104 233 -232c0 -87 -54 -165 -131 -202l216 -266h-162zM203 571v-207h127c52 0 95 46 95 104s-43 103 -95 103h-127z" />
    <glyph glyph-name="Rcommaaccent" unicode="&#x156;" horiz-adv-x="630" 
d="M432 266l216 -266h-162l-198 243h-85v-243h-138v700h138h127c129 0 233 -104 233 -232c0 -87 -54 -165 -131 -202zM203 571v-207h127c52 0 95 46 95 104s-43 103 -95 103h-127zM286 -263l10 200h122l-30 -200h-102z" />
    <glyph glyph-name="S" unicode="S" horiz-adv-x="546" 
d="M281 -14c-138 0 -256 72 -256 230h138c0 -64 40 -95 118 -95c70 0 103 30 103 70c0 50 -56 72 -123 95c-100 36 -223 76 -223 224c0 134 111 204 227 204c122 0 236 -71 236 -226h-137c0 61 -36 92 -99 92c-57 0 -90 -29 -90 -70c0 -51 48 -74 113 -98
c101 -36 233 -73 233 -221c0 -134 -110 -205 -240 -205z" />
    <glyph glyph-name="Sacute" unicode="&#x15a;" horiz-adv-x="546" 
d="M191 771h124l111 137h-155zM281 -14c-138 0 -256 72 -256 230h138c0 -64 40 -95 118 -95c70 0 103 30 103 70c0 50 -56 72 -123 95c-100 36 -223 76 -223 224c0 134 111 204 227 204c122 0 236 -71 236 -226h-137c0 61 -36 92 -99 92c-57 0 -90 -29 -90 -70
c0 -51 48 -74 113 -98c101 -36 233 -73 233 -221c0 -134 -110 -205 -240 -205z" />
    <glyph glyph-name="Scaron" unicode="&#x160;" horiz-adv-x="546" 
d="M202 763l-106 145h128l44 -65l43 65h128l-106 -145h-131zM288 412c101 -36 233 -73 233 -221c0 -134 -110 -205 -240 -205c-138 0 -256 72 -256 230h138c0 -64 40 -95 118 -95c70 0 103 30 103 70c0 50 -56 72 -123 95c-100 36 -223 76 -223 224c0 134 111 204 227 204
c122 0 236 -71 236 -226h-137c0 61 -36 92 -99 92c-57 0 -90 -29 -90 -70c0 -51 48 -74 113 -98z" />
    <glyph glyph-name="Scedilla" unicode="&#x15e;" horiz-adv-x="546" 
d="M521 191c0 -114 -80 -182 -184 -200v-37c34 -8 70 -32 70 -78c0 -60 -52 -102 -220 -92v91c73 -5 108 3 108 20c0 16 -24 22 -63 25v70c-116 15 -207 87 -207 226h138c0 -64 40 -95 118 -95c70 0 103 30 103 70c0 50 -56 72 -123 95c-100 36 -223 76 -223 224
c0 134 111 204 227 204c122 0 236 -71 236 -226h-137c0 61 -36 92 -99 92c-57 0 -90 -29 -90 -70c0 -51 48 -74 113 -98c101 -36 233 -73 233 -221z" />
    <glyph glyph-name="Scommaaccent" unicode="&#x218;" horiz-adv-x="546" 
d="M281 -14c-138 0 -256 72 -256 230h138c0 -64 40 -95 118 -95c70 0 103 30 103 70c0 50 -56 72 -123 95c-100 36 -223 76 -223 224c0 134 111 204 227 204c122 0 236 -71 236 -226h-137c0 61 -36 92 -99 92c-57 0 -90 -29 -90 -70c0 -51 48 -74 113 -98
c101 -36 233 -73 233 -221c0 -134 -110 -205 -240 -205zM320 -263l30 200h-122l-10 -200h102z" />
    <glyph glyph-name="T" unicode="T" horiz-adv-x="500" 
d="M488 700v-132h-169v-568h-138v568h-168v132h306h169z" />
    <glyph glyph-name="Tbar" unicode="&#x166;" horiz-adv-x="500" 
d="M488 568h-169v-163h119v-124h-119v-281h-138v281h-118v124h118v163h-168v132h306h169v-132z" />
    <glyph glyph-name="Tcaron" unicode="&#x164;" horiz-adv-x="500" 
d="M181 755l-106 145h128l44 -65l43 65h128l-106 -145h-131zM488 700v-132h-169v-568h-138v568h-168v132h306h169z" />
    <glyph glyph-name="uni0162" unicode="&#x162;" horiz-adv-x="500" 
d="M488 700v-132h-169v-568h-138v568h-168v132h306h169zM186 -263l10 200h122l-30 -200h-102z" />
    <glyph glyph-name="uni021A" unicode="&#x21a;" horiz-adv-x="500" 
d="M488 700v-132h-169v-568h-138v568h-168v132h306h169zM186 -263l10 200h122l-30 -200h-102z" />
    <glyph glyph-name="U" unicode="U" horiz-adv-x="620" 
d="M310 -14c-141 0 -255 80 -255 228v486h138v-475c0 -65 36 -104 117 -104c82 0 118 39 118 104v475h137v-486c0 -148 -114 -228 -255 -228z" />
    <glyph glyph-name="Uacute" unicode="&#xda;" horiz-adv-x="620" 
d="M230 763h124l111 137h-155zM310 -14c-141 0 -255 80 -255 228v486h138v-475c0 -65 36 -104 117 -104c82 0 118 39 118 104v475h137v-486c0 -148 -114 -228 -255 -228z" />
    <glyph glyph-name="Ucircumflex" unicode="&#xdb;" horiz-adv-x="620" 
d="M307 820l-44 -65h-128l106 145h119h12l106 -145h-128zM428 700h137v-486c0 -148 -114 -228 -255 -228s-255 80 -255 228v486h138v-475c0 -65 36 -104 117 -104c82 0 118 39 118 104v475z" />
    <glyph glyph-name="Udieresis" unicode="&#xdc;" horiz-adv-x="620" 
d="M159 761v118h118v-118h-118zM344 761v118h118v-118h-118zM310 -14c-141 0 -255 80 -255 228v486h138v-475c0 -65 36 -104 117 -104c82 0 118 39 118 104v475h137v-486c0 -148 -114 -228 -255 -228z" />
    <glyph glyph-name="Ugrave" unicode="&#xd9;" horiz-adv-x="620" 
d="M388 763l-80 137h-155l111 -137h124zM310 -14c-141 0 -255 80 -255 228v486h138v-475c0 -65 36 -104 117 -104c82 0 118 39 118 104v475h137v-486c0 -148 -114 -228 -255 -228z" />
    <glyph glyph-name="Uhungarumlaut" unicode="&#x170;" horiz-adv-x="620" 
d="M145 755h128l84 138h-134zM318 755h128l94 138h-134zM310 -14c-141 0 -255 80 -255 228v486h138v-475c0 -65 36 -104 117 -104c82 0 118 39 118 104v475h137v-486c0 -148 -114 -228 -255 -228z" />
    <glyph glyph-name="Umacron" unicode="&#x16a;" horiz-adv-x="620" 
d="M165 764v105h290v-105h-290zM310 -14c-141 0 -255 80 -255 228v486h138v-475c0 -65 36 -104 117 -104c82 0 118 39 118 104v475h137v-486c0 -148 -114 -228 -255 -228z" />
    <glyph glyph-name="Uogonek" unicode="&#x172;" horiz-adv-x="620" 
d="M428 700h137v-486c0 -73 -27 -129 -72 -167c-74 -67 -100 -102 -100 -142c-1 -17 8 -27 25 -27c8 -1 17 1 28 5v-81c-25 -10 -48 -16 -81 -16c-55 0 -96 29 -96 88c0 34 21 75 54 113c-4 0 -9 -1 -13 -1c-141 0 -255 80 -255 228v486h138v-475c0 -65 36 -104 117 -104
c82 0 118 39 118 104v475z" />
    <glyph glyph-name="Uring" unicode="&#x16e;" horiz-adv-x="620" 
d="M310 739c-74 0 -126 51 -126 119c0 67 52 118 126 118c76 0 126 -51 126 -118c0 -68 -50 -119 -126 -119zM310 820c27 0 40 16 40 38c0 21 -13 37 -40 37c-25 0 -39 -16 -39 -37c0 -22 14 -38 39 -38zM310 -14c-141 0 -255 80 -255 228v486h138v-475
c0 -65 36 -104 117 -104c82 0 118 39 118 104v475h137v-486c0 -148 -114 -228 -255 -228z" />
    <glyph glyph-name="V" unicode="V" horiz-adv-x="632" 
d="M231 0l-228 700h149l164 -539l164 539h150l-228 -700h-171z" />
    <glyph glyph-name="W" unicode="W" horiz-adv-x="890" 
d="M745 700h143l-200 -700h-152l-91 320l-91 -320h-152l-199 700h143l139 -525l100 357l-48 168h128l140 -525z" />
    <glyph glyph-name="Wacute" unicode="&#x1e82;" horiz-adv-x="890" 
d="M600 900l-111 -137h-124l80 137h155zM745 700h143l-200 -700h-152l-91 320l-91 -320h-152l-199 700h143l139 -525l100 357l-48 168h128l140 -525z" />
    <glyph glyph-name="Wcircumflex" unicode="&#x174;" horiz-adv-x="890" 
d="M442 820l-44 -65h-128l106 145h119h12l106 -145h-128zM745 700h143l-200 -700h-152l-91 320l-91 -320h-152l-199 700h143l139 -525l100 357l-48 168h128l140 -525z" />
    <glyph glyph-name="Wdieresis" unicode="&#x1e84;" horiz-adv-x="890" 
d="M412 879v-118h-118v118h118zM597 879v-118h-118v118h118zM745 700h143l-200 -700h-152l-91 320l-91 -320h-152l-199 700h143l139 -525l100 357l-48 168h128l140 -525z" />
    <glyph glyph-name="Wgrave" unicode="&#x1e80;" horiz-adv-x="890" 
d="M523 763h-124l-111 137h155zM745 700h143l-200 -700h-152l-91 320l-91 -320h-152l-199 700h143l139 -525l100 357l-48 168h128l140 -525z" />
    <glyph glyph-name="X" unicode="X" horiz-adv-x="600" 
d="M588 0h-156l-132 226l-132 -226h-155l209 360l-198 340h156l120 -207l121 207h155l-198 -340z" />
    <glyph glyph-name="Y" unicode="Y" horiz-adv-x="601" 
d="M599 700l-230 -389v-311h-137v311l-229 389h156l142 -256l142 256h156z" />
    <glyph glyph-name="Yacute" unicode="&#xdd;" horiz-adv-x="601" 
d="M455 900l-111 -137h-124l80 137h155zM599 700l-230 -389v-311h-137v311l-229 389h156l142 -256l142 256h156z" />
    <glyph glyph-name="Ycircumflex" unicode="&#x176;" horiz-adv-x="601" 
d="M297 820l-44 -65h-128l106 145h119h12l106 -145h-128zM599 700l-230 -389v-311h-137v311l-229 389h156l142 -256l142 256h156z" />
    <glyph glyph-name="Ydieresis" unicode="&#x178;" horiz-adv-x="601" 
d="M267 879v-118h-118v118h118zM452 879v-118h-118v118h118zM599 700l-230 -389v-311h-137v311l-229 389h156l142 -256l142 256h156z" />
    <glyph glyph-name="Ygrave" unicode="&#x1ef2;" horiz-adv-x="601" 
d="M377 763h-124l-111 137h155zM599 700l-230 -389v-311h-137v311l-229 389h156l142 -256l142 256h156z" />
    <glyph glyph-name="Z" unicode="Z" horiz-adv-x="535" 
d="M211 132h298v-132h-473v110l291 458h-284v132h460v-109z" />
    <glyph glyph-name="Zacute" unicode="&#x179;" horiz-adv-x="535" 
d="M428 900l-111 -137h-124l80 137h155zM211 132h298v-132h-473v110l291 458h-284v132h460v-109z" />
    <glyph glyph-name="Zcaron" unicode="&#x17d;" horiz-adv-x="535" 
d="M204 755l-106 145h128l44 -65l43 65h128l-106 -145h-131zM211 132h298v-132h-473v110l291 458h-284v132h460v-109z" />
    <glyph glyph-name="Zdotaccent" unicode="&#x17b;" horiz-adv-x="535" 
d="M340 893v-135h-135v135h135zM211 132h298v-132h-473v110l291 458h-284v132h460v-109z" />
    <glyph glyph-name="a" unicode="a" horiz-adv-x="509" 
d="M259 514c111 0 204 -66 204 -196v-318h-126v43c-29 -35 -73 -57 -136 -57c-89 0 -168 53 -168 158s79 157 168 157c63 0 107 -19 136 -44v53c0 59 -30 84 -78 84c-47 0 -77 -25 -77 -64h-126c0 118 93 184 203 184zM245 82c57 0 92 26 92 62c0 38 -35 62 -92 62
s-83 -26 -83 -62s26 -62 83 -62z" />
    <glyph glyph-name="aacute" unicode="&#xe1;" horiz-adv-x="509" 
d="M415 708l-111 -137h-124l80 137h155zM259 514c111 0 204 -66 204 -196v-318h-126v43c-29 -35 -73 -57 -136 -57c-89 0 -168 53 -168 158s79 157 168 157c63 0 107 -19 136 -44v53c0 59 -30 84 -78 84c-47 0 -77 -25 -77 -64h-126c0 118 93 184 203 184zM245 82
c57 0 92 26 92 62c0 38 -35 62 -92 62s-83 -26 -83 -62s26 -62 83 -62z" />
    <glyph glyph-name="abreve" unicode="&#x103;" horiz-adv-x="509" 
d="M259 555c-105 0 -166 53 -166 145h115c0 -35 18 -52 51 -52c34 0 52 17 52 52h115c0 -92 -60 -145 -167 -145zM259 514c111 0 204 -66 204 -196v-318h-126v43c-29 -35 -73 -57 -136 -57c-89 0 -168 53 -168 158s79 157 168 157c63 0 107 -19 136 -44v53
c0 59 -30 84 -78 84c-47 0 -77 -25 -77 -64h-126c0 118 93 184 203 184zM245 82c57 0 92 26 92 62c0 38 -35 62 -92 62s-83 -26 -83 -62s26 -62 83 -62z" />
    <glyph glyph-name="acircumflex" unicode="&#xe2;" horiz-adv-x="509" 
d="M257 628l-44 -65h-128l106 145h119h12l106 -145h-128zM259 514c111 0 204 -66 204 -196v-318h-126v43c-29 -35 -73 -57 -136 -57c-89 0 -168 53 -168 158s79 157 168 157c63 0 107 -19 136 -44v53c0 59 -30 84 -78 84c-47 0 -77 -25 -77 -64h-126c0 118 93 184 203 184z
M245 82c57 0 92 26 92 62c0 38 -35 62 -92 62s-83 -26 -83 -62s26 -62 83 -62z" />
    <glyph glyph-name="adieresis" unicode="&#xe4;" horiz-adv-x="509" 
d="M226 687v-118h-118v118h118zM411 687v-118h-118v118h118zM259 514c111 0 204 -66 204 -196v-318h-126v43c-29 -35 -73 -57 -136 -57c-89 0 -168 53 -168 158s79 157 168 157c63 0 107 -19 136 -44v53c0 59 -30 84 -78 84c-47 0 -77 -25 -77 -64h-126
c0 118 93 184 203 184zM245 82c57 0 92 26 92 62c0 38 -35 62 -92 62s-83 -26 -83 -62s26 -62 83 -62z" />
    <glyph glyph-name="agrave" unicode="&#xe0;" horiz-adv-x="509" 
d="M337 571h-124l-111 137h155zM259 514c111 0 204 -66 204 -196v-318h-126v43c-29 -35 -73 -57 -136 -57c-89 0 -168 53 -168 158s79 157 168 157c63 0 107 -19 136 -44v53c0 59 -30 84 -78 84c-47 0 -77 -25 -77 -64h-126c0 118 93 184 203 184zM245 82c57 0 92 26 92 62
c0 38 -35 62 -92 62s-83 -26 -83 -62s26 -62 83 -62z" />
    <glyph glyph-name="amacron" unicode="&#x101;" horiz-adv-x="509" 
d="M405 677v-105h-290v105h290zM259 514c111 0 204 -66 204 -196v-318h-126v43c-29 -35 -73 -57 -136 -57c-89 0 -168 53 -168 158s79 157 168 157c63 0 107 -19 136 -44v53c0 59 -30 84 -78 84c-47 0 -77 -25 -77 -64h-126c0 118 93 184 203 184zM245 82c57 0 92 26 92 62
c0 38 -35 62 -92 62s-83 -26 -83 -62s26 -62 83 -62z" />
    <glyph glyph-name="aogonek" unicode="&#x105;" horiz-adv-x="509" 
d="M463 0c-34 -35 -53 -71 -53 -95c-1 -17 8 -27 25 -27c8 -1 17 1 28 5v-81c-25 -10 -48 -16 -81 -16c-55 0 -96 29 -96 88c0 37 24 82 64 126h-13v43c-29 -35 -73 -57 -136 -57c-89 0 -168 53 -168 158s79 157 168 157c63 0 107 -19 136 -44v53c0 59 -30 84 -78 84
c-47 0 -77 -25 -77 -64h-126c0 118 93 184 203 184c111 0 204 -66 204 -196v-318zM245 82c57 0 92 26 92 62c0 38 -35 62 -92 62s-83 -26 -83 -62s26 -62 83 -62z" />
    <glyph glyph-name="aring" unicode="&#xe5;" horiz-adv-x="509" 
d="M259 547c-74 0 -126 51 -126 119c0 67 52 118 126 118c76 0 126 -51 126 -118c0 -68 -50 -119 -126 -119zM259 703c-25 0 -39 -16 -39 -37c0 -22 14 -38 39 -38c27 0 40 16 40 38c0 21 -13 37 -40 37zM259 514c111 0 204 -66 204 -196v-318h-126v43
c-29 -35 -73 -57 -136 -57c-89 0 -168 53 -168 158s79 157 168 157c63 0 107 -19 136 -44v53c0 59 -30 84 -78 84c-47 0 -77 -25 -77 -64h-126c0 118 93 184 203 184zM245 82c57 0 92 26 92 62c0 38 -35 62 -92 62s-83 -26 -83 -62s26 -62 83 -62z" />
    <glyph glyph-name="atilde" unicode="&#xe3;" horiz-adv-x="509" 
d="M248 592c-39 25 -53 26 -53 -24h-104c0 159 96 176 182 121c39 -25 52 -26 52 24h105c0 -159 -97 -176 -182 -121zM259 514c111 0 204 -66 204 -196v-318h-126v43c-29 -35 -73 -57 -136 -57c-89 0 -168 53 -168 158s79 157 168 157c63 0 107 -19 136 -44v53
c0 59 -30 84 -78 84c-47 0 -77 -25 -77 -64h-126c0 118 93 184 203 184zM245 82c57 0 92 26 92 62c0 38 -35 62 -92 62s-83 -26 -83 -62s26 -62 83 -62z" />
    <glyph glyph-name="ae" unicode="&#xe6;" horiz-adv-x="835" 
d="M470 197c14 -71 58 -104 114 -104c44 0 66 22 80 50l127 1c-21 -101 -105 -156 -197 -156c-81 0 -137 32 -172 83c-31 -52 -92 -85 -188 -85c-121 0 -201 60 -201 158c0 105 79 157 168 157c63 0 107 -19 136 -42v51l44 3l-44 -3c0 59 -30 84 -78 84
c-47 0 -77 -25 -77 -64h-126c0 118 93 184 198 184c75 0 135 -32 167 -89c35 55 91 89 166 89c138 0 219 -117 219 -264c0 -19 -1 -36 -5 -53h-331zM470 298h210c-11 72 -54 100 -101 100c-61 0 -98 -37 -109 -100zM246 82c58 0 91 26 91 62c0 38 -35 62 -92 62
s-83 -26 -83 -62s28 -62 84 -62z" />
    <glyph glyph-name="b" unicode="b" horiz-adv-x="626" 
d="M350 514c134 0 244 -115 244 -264s-110 -264 -244 -264c-73 0 -127 28 -162 73v-59h-129v700h129v-259c35 45 89 73 162 73zM326 109c80 0 139 57 139 141s-59 141 -139 141c-79 0 -138 -57 -138 -141s59 -141 138 -141z" />
    <glyph glyph-name="c" unicode="c" horiz-adv-x="566" 
d="M547 183c-23 -115 -126 -197 -250 -197c-152 0 -264 115 -264 264s112 264 264 264c124 0 227 -82 250 -196h-136c-18 42 -61 69 -114 69c-76 0 -135 -57 -135 -137c0 -79 59 -136 135 -136c53 0 97 26 114 69h136z" />
    <glyph glyph-name="cacute" unicode="&#x107;" horiz-adv-x="566" 
d="M216 563h124l111 137h-155zM547 183c-23 -115 -126 -197 -250 -197c-152 0 -264 115 -264 264s112 264 264 264c124 0 227 -82 250 -196h-136c-18 42 -61 69 -114 69c-76 0 -135 -57 -135 -137c0 -79 59 -136 135 -136c53 0 97 26 114 69h136z" />
    <glyph glyph-name="ccaron" unicode="&#x10d;" horiz-adv-x="566" 
d="M227 555l-106 145h128l44 -65l43 65h128l-106 -145h-131zM297 114c53 0 97 26 114 69h136c-23 -115 -126 -197 -250 -197c-152 0 -264 115 -264 264s112 264 264 264c124 0 227 -82 250 -196h-136c-18 42 -61 69 -114 69c-76 0 -135 -57 -135 -137
c0 -79 59 -136 135 -136z" />
    <glyph glyph-name="ccedilla" unicode="&#xe7;" horiz-adv-x="566" 
d="M297 114c53 0 97 26 114 69h136c-19 -97 -95 -170 -193 -191v-38c34 -8 70 -32 70 -78c0 -60 -52 -102 -220 -92v91c73 -5 108 3 108 20c0 16 -24 22 -63 25v70c-127 22 -216 127 -216 260c0 149 112 264 264 264c124 0 227 -82 250 -196h-136c-18 42 -61 69 -114 69
c-76 0 -135 -57 -135 -137c0 -79 59 -136 135 -136z" />
    <glyph glyph-name="cdotaccent" unicode="&#x10b;" horiz-adv-x="566" 
d="M228 558v135h135v-135h-135zM547 183c-23 -115 -126 -197 -250 -197c-152 0 -264 115 -264 264s112 264 264 264c124 0 227 -82 250 -196h-136c-18 42 -61 69 -114 69c-76 0 -135 -57 -135 -137c0 -79 59 -136 135 -136c53 0 97 26 114 69h136z" />
    <glyph glyph-name="d" unicode="d" horiz-adv-x="627" 
d="M439 700h129v-700h-129v59c-36 -45 -90 -73 -163 -73c-133 0 -243 115 -243 264s110 264 243 264c73 0 127 -28 163 -73v259zM300 109c80 0 139 57 139 141s-59 141 -139 141c-79 0 -138 -57 -138 -141s59 -141 138 -141z" />
    <glyph glyph-name="eth" unicode="&#xf0;" horiz-adv-x="571" 
d="M493 370c27 -37 46 -85 46 -140c0 -152 -119 -242 -253 -242s-253 90 -253 242c0 132 109 234 243 225l-58 80l-127 -63v90l79 39l-72 99h149l33 -45l118 59v-90l-69 -35zM286 109c70 0 124 45 124 121c0 28 -9 53 -21 70c-21 27 -52 47 -103 47
c-72 0 -124 -45 -124 -117c0 -76 53 -121 124 -121z" />
    <glyph glyph-name="dcaron" unicode="&#x10f;" horiz-adv-x="735" 
d="M439 441v259h129v-700h-129v59c-36 -45 -90 -73 -163 -73c-133 0 -243 115 -243 264s110 264 243 264c73 0 127 -28 163 -73zM624 700h121l-30 -200h-101zM300 109c80 0 139 57 139 141s-59 141 -139 141c-79 0 -138 -57 -138 -141s59 -141 138 -141z" />
    <glyph glyph-name="dcroat" unicode="&#x111;" horiz-adv-x="633" 
d="M630 638v-84h-62v-554h-129v59c-36 -45 -90 -73 -163 -73c-133 0 -243 115 -243 264s110 264 243 264c73 0 127 -28 163 -73v113h-151v84h151v62h129v-62h62zM300 109c80 0 139 57 139 141s-59 141 -139 141c-79 0 -138 -57 -138 -141s59 -141 138 -141z" />
    <glyph glyph-name="e" unicode="e" horiz-adv-x="576" 
d="M167 197c17 -71 71 -104 135 -104c46 0 86 22 103 50l127 1c-31 -101 -119 -158 -231 -158c-163 0 -268 115 -268 264s107 264 265 264c147 0 249 -117 249 -264c0 -19 -1 -36 -5 -53h-375zM166 298h252c-15 72 -67 100 -121 100c-69 0 -115 -37 -131 -100z" />
    <glyph glyph-name="eacute" unicode="&#xe9;" horiz-adv-x="576" 
d="M454 704l-111 -137h-124l80 137h155zM167 197c17 -71 71 -104 135 -104c46 0 86 22 103 50l127 1c-31 -101 -119 -158 -231 -158c-163 0 -268 115 -268 264s107 264 265 264c147 0 249 -117 249 -264c0 -19 -1 -36 -5 -53h-375zM166 298h252c-15 72 -67 100 -121 100
c-69 0 -115 -37 -131 -100z" />
    <glyph glyph-name="ecaron" unicode="&#x11b;" horiz-adv-x="576" 
d="M230 559l-106 145h128l44 -65l43 65h128l-106 -145h-131zM167 197c17 -71 71 -104 135 -104c46 0 86 22 103 50l127 1c-31 -101 -119 -158 -231 -158c-163 0 -268 115 -268 264s107 264 265 264c147 0 249 -117 249 -264c0 -19 -1 -36 -5 -53h-375zM166 298h252
c-15 72 -67 100 -121 100c-69 0 -115 -37 -131 -100z" />
    <glyph glyph-name="ecircumflex" unicode="&#xea;" horiz-adv-x="576" 
d="M296 624l-44 -65h-128l106 145h119h12l106 -145h-128zM167 197c17 -71 71 -104 135 -104c46 0 86 22 103 50l127 1c-31 -101 -119 -158 -231 -158c-163 0 -268 115 -268 264s107 264 265 264c147 0 249 -117 249 -264c0 -19 -1 -36 -5 -53h-375zM166 298h252
c-15 72 -67 100 -121 100c-69 0 -115 -37 -131 -100z" />
    <glyph glyph-name="edieresis" unicode="&#xeb;" horiz-adv-x="576" 
d="M266 683v-118h-118v118h118zM451 683v-118h-118v118h118zM167 197c17 -71 71 -104 135 -104c46 0 86 22 103 50l127 1c-31 -101 -119 -158 -231 -158c-163 0 -268 115 -268 264s107 264 265 264c147 0 249 -117 249 -264c0 -19 -1 -36 -5 -53h-375zM166 298h252
c-15 72 -67 100 -121 100c-69 0 -115 -37 -131 -100z" />
    <glyph glyph-name="edotaccent" unicode="&#x117;" horiz-adv-x="576" 
d="M366 697v-135h-135v135h135zM167 197c17 -71 71 -104 135 -104c46 0 86 22 103 50l127 1c-31 -101 -119 -158 -231 -158c-163 0 -268 115 -268 264s107 264 265 264c147 0 249 -117 249 -264c0 -19 -1 -36 -5 -53h-375zM166 298h252c-15 72 -67 100 -121 100
c-69 0 -115 -37 -131 -100z" />
    <glyph glyph-name="egrave" unicode="&#xe8;" horiz-adv-x="576" 
d="M376 567h-124l-111 137h155zM167 197c17 -71 71 -104 135 -104c46 0 86 22 103 50l127 1c-31 -101 -119 -158 -231 -158c-163 0 -268 115 -268 264s107 264 265 264c147 0 249 -117 249 -264c0 -19 -1 -36 -5 -53h-375zM166 298h252c-15 72 -67 100 -121 100
c-69 0 -115 -37 -131 -100z" />
    <glyph glyph-name="emacron" unicode="&#x113;" horiz-adv-x="576" 
d="M444 673v-105h-290v105h290zM167 197c17 -71 71 -104 135 -104c46 0 86 22 103 50l127 1c-31 -101 -119 -158 -231 -158c-163 0 -268 115 -268 264s107 264 265 264c147 0 249 -117 249 -264c0 -19 -1 -36 -5 -53h-375zM166 298h252c-15 72 -67 100 -121 100
c-69 0 -115 -37 -131 -100z" />
    <glyph glyph-name="eogonek" unicode="&#x119;" horiz-adv-x="576" 
d="M167 197c17 -71 71 -104 135 -104c46 0 86 22 103 50l127 1c-15 -48 -42 -85 -79 -112c-55 -63 -67 -105 -67 -127c-1 -17 9 -27 25 -27c8 -1 18 1 28 5v-81c-25 -10 -48 -16 -81 -16c-55 0 -95 29 -95 88c0 33 19 74 64 114c-9 -1 -18 -2 -26 -2
c-163 0 -268 115 -268 264s107 264 265 264c147 0 249 -117 249 -264c0 -19 -1 -36 -5 -53h-375zM166 298h252c-15 72 -67 100 -121 100c-69 0 -115 -37 -131 -100z" />
    <glyph glyph-name="f" unicode="f" horiz-adv-x="311" 
d="M311 590c-66 5 -105 -17 -105 -85v-5h105v-124h-105v-376h-129v376h-72v124h72v5c0 138 76 219 234 209v-124z" />
    <glyph glyph-name="g" unicode="g" horiz-adv-x="623" 
d="M442 500h126v-476c0 -164 -131 -238 -256 -238c-129 0 -249 70 -249 200h129c0 -44 42 -85 120 -85c81 0 130 44 130 123v53c-36 -47 -91 -75 -166 -75c-133 0 -243 114 -243 256c0 141 110 256 243 256c75 0 130 -29 166 -76v62zM302 121c81 0 140 57 140 137
c0 79 -59 136 -140 136s-140 -57 -140 -136c0 -80 59 -137 140 -137z" />
    <glyph glyph-name="gbreve" unicode="&#x11f;" horiz-adv-x="623" 
d="M297 555c-105 0 -166 53 -166 145h115c0 -35 18 -52 51 -52c34 0 52 17 52 52h115c0 -92 -60 -145 -167 -145zM442 500h126v-476c0 -164 -131 -238 -256 -238c-129 0 -249 70 -249 200h129c0 -44 42 -85 120 -85c81 0 130 44 130 123v53c-36 -47 -91 -75 -166 -75
c-133 0 -243 114 -243 256c0 141 110 256 243 256c75 0 130 -29 166 -76v62zM302 121c81 0 140 57 140 137c0 79 -59 136 -140 136s-140 -57 -140 -136c0 -80 59 -137 140 -137z" />
    <glyph glyph-name="gcommaaccent" unicode="&#x123;" horiz-adv-x="623" 
d="M361 782l-10 -200h-122l30 200h102zM442 500h126v-476c0 -164 -131 -238 -256 -238c-129 0 -249 70 -249 200h129c0 -44 42 -85 120 -85c81 0 130 44 130 123v53c-36 -47 -91 -75 -166 -75c-133 0 -243 114 -243 256c0 141 110 256 243 256c75 0 130 -29 166 -76v62z
M302 121c81 0 140 57 140 137c0 79 -59 136 -140 136s-140 -57 -140 -136c0 -80 59 -137 140 -137z" />
    <glyph glyph-name="gdotaccent" unicode="&#x121;" horiz-adv-x="623" 
d="M364 701v-135h-135v135h135zM442 500h126v-476c0 -164 -131 -238 -256 -238c-129 0 -249 70 -249 200h129c0 -44 42 -85 120 -85c81 0 130 44 130 123v53c-36 -47 -91 -75 -166 -75c-133 0 -243 114 -243 256c0 141 110 256 243 256c75 0 130 -29 166 -76v62zM302 121
c81 0 140 57 140 137c0 79 -59 136 -140 136s-140 -57 -140 -136c0 -80 59 -137 140 -137z" />
    <glyph glyph-name="h" unicode="h" horiz-adv-x="532" 
d="M324 514c93 0 162 -72 162 -194v-320h-129v310c0 57 -34 84 -79 84c-51 0 -90 -29 -90 -104v-290h-129v700h129v-251c28 42 74 65 136 65z" />
    <glyph glyph-name="hbar" unicode="&#x127;" horiz-adv-x="539" 
d="M330 514c93 0 163 -72 163 -194v-320h-129v310c0 57 -34 84 -80 84c-50 0 -90 -29 -90 -104v-290h-129v554h-62v84h62v62h129v-62h141v-84h-141v-105c28 42 74 65 136 65z" />
    <glyph glyph-name="i" unicode="i" horiz-adv-x="247" 
d="M59 570v130h129v-130h-129zM59 0v500h129v-500h-129z" />
    <glyph glyph-name="dotlessi" unicode="&#x131;" horiz-adv-x="247" 
d="M59 0v500h129v-500h-129z" />
    <glyph glyph-name="iacute" unicode="&#xed;" horiz-adv-x="247" 
d="M60 555h124l66 145h-148zM59 0v500h129v-500h-129z" />
    <glyph glyph-name="icircumflex" unicode="&#xee;" horiz-adv-x="247" 
d="M123 608l-31 -53h-128l94 145h119h12l93 -145h-127zM59 0v500h129v-500h-129z" />
    <glyph glyph-name="idieresis" unicode="&#xef;" horiz-adv-x="247" 
d="M-21 561v118h118v-118h-118zM150 561v118h117v-118h-117zM59 0v500h129v-500h-129z" />
    <glyph glyph-name="i.loclTRK" horiz-adv-x="247" 
d="M56 558v135h135v-135h-135zM59 0v500h129v-500h-129z" />
    <glyph glyph-name="igrave" unicode="&#xec;" horiz-adv-x="247" 
d="M184 555l-43 145h-148l67 -145h124zM188 0h-129v500h129v-500z" />
    <glyph glyph-name="imacron" unicode="&#x12b;" horiz-adv-x="247" 
d="M8 564v112h230v-112h-230zM59 0v500h129v-500h-129z" />
    <glyph glyph-name="iogonek" unicode="&#x12f;" horiz-adv-x="247" 
d="M188 700v-130h-129v130h129zM179 -122c8 -1 17 1 27 5v-81c-24 -10 -48 -16 -80 -16c-55 0 -96 32 -96 90c0 36 14 77 43 124h-14v500h129v-500c-21 -34 -34 -68 -34 -92c-1 -18 8 -30 25 -30z" />
    <glyph glyph-name="j" unicode="j" horiz-adv-x="264" 
d="M76 700h129v-130h-129v130zM76 -10v510h129v-510c0 -147 -70 -213 -218 -204v124c61 -4 89 19 89 80z" />
    <glyph glyph-name="k" unicode="k" horiz-adv-x="517" 
d="M512 0h-149l-175 226v-226h-129v700h129v-420l165 220h149l-190 -247z" />
    <glyph glyph-name="kcommaaccent" unicode="&#x137;" horiz-adv-x="517" 
d="M312 253l200 -253h-149l-175 226v-226h-129v700h129v-420l165 220h149zM216 -263l10 200h122l-30 -200h-102z" />
    <glyph glyph-name="l" unicode="l" horiz-adv-x="247" 
d="M59 0v720h129v-720h-129z" />
    <glyph glyph-name="lacute" unicode="&#x13a;" horiz-adv-x="247" 
d="M57 763h124l111 137h-155zM59 0v720h129v-720h-129z" />
    <glyph glyph-name="lcaron" unicode="&#x13e;" horiz-adv-x="354" 
d="M59 0v720h129v-720h-129zM334 520l30 200h-122l-10 -200h102z" />
    <glyph glyph-name="lcommaaccent" unicode="&#x13c;" horiz-adv-x="247" 
d="M59 0v720h129v-720h-129zM157 -263l30 200h-122l-10 -200h102z" />
    <glyph glyph-name="lslash" unicode="&#x142;" horiz-adv-x="263" 
d="M250 490v-123l-54 -37v-330h-129v242l-54 -37v123l54 37v355h129v-267z" />
    <glyph glyph-name="m" unicode="m" horiz-adv-x="767" 
d="M566 514c94 0 155 -62 155 -177v-337h-129v327c0 50 -29 67 -63 67c-35 0 -74 -19 -74 -84v-310h-129v327c0 50 -30 67 -64 67c-35 0 -74 -19 -74 -84v-310h-129v500h129v-49c27 41 69 63 120 63s94 -23 120 -66c34 42 79 66 138 66z" />
    <glyph glyph-name="n" unicode="n" horiz-adv-x="532" 
d="M324 514c93 0 162 -72 162 -194v-320h-129v310c0 57 -34 84 -79 84c-51 0 -90 -29 -90 -104v-290h-129v500h129v-51c28 42 74 65 136 65z" />
    <glyph glyph-name="nacute" unicode="&#x144;" horiz-adv-x="532" 
d="M425 708l-111 -137h-124l80 137h155zM324 514c93 0 162 -72 162 -194v-320h-129v310c0 57 -34 84 -79 84c-51 0 -90 -29 -90 -104v-290h-129v500h129v-51c28 42 74 65 136 65z" />
    <glyph glyph-name="ncaron" unicode="&#x148;" horiz-adv-x="532" 
d="M201 563l-106 145h128l44 -65l43 65h128l-106 -145h-131zM324 514c93 0 162 -72 162 -194v-320h-129v310c0 57 -34 84 -79 84c-51 0 -90 -29 -90 -104v-290h-129v500h129v-51c28 42 74 65 136 65z" />
    <glyph glyph-name="ncommaaccent" unicode="&#x146;" horiz-adv-x="532" 
d="M324 514c93 0 162 -72 162 -194v-320h-129v310c0 57 -34 84 -79 84c-51 0 -90 -29 -90 -104v-290h-129v500h129v-51c28 42 74 65 136 65zM211 -263l10 200h122l-30 -200h-102z" />
    <glyph glyph-name="eng" unicode="&#x14b;" horiz-adv-x="532" 
d="M324 514c93 0 162 -72 162 -194v-330c0 -135 -66 -214 -210 -204v124c52 -5 81 15 81 80v320c0 57 -34 84 -79 84c-51 0 -90 -29 -90 -104v-290h-129v500h129v-51c28 42 74 65 136 65z" />
    <glyph glyph-name="ntilde" unicode="&#xf1;" horiz-adv-x="532" 
d="M258 592c-39 25 -53 26 -53 -24h-104c0 159 96 176 182 121c39 -25 52 -26 52 24h105c0 -159 -97 -176 -182 -121zM324 514c93 0 162 -72 162 -194v-320h-129v310c0 57 -34 84 -79 84c-51 0 -90 -29 -90 -104v-290h-129v500h129v-51c28 42 74 65 136 65z" />
    <glyph glyph-name="o" unicode="o" horiz-adv-x="594" 
d="M297 -14c-147 0 -264 115 -264 264s117 264 264 264s265 -115 265 -264s-118 -264 -265 -264zM297 112c77 0 136 57 136 138s-59 138 -136 138c-76 0 -135 -57 -135 -138s59 -138 135 -138z" />
    <glyph glyph-name="oacute" unicode="&#xf3;" horiz-adv-x="594" 
d="M217 571h124l111 137h-155zM297 -14c-147 0 -264 115 -264 264s117 264 264 264s265 -115 265 -264s-118 -264 -265 -264zM297 112c77 0 136 57 136 138s-59 138 -136 138c-76 0 -135 -57 -135 -138s59 -138 135 -138z" />
    <glyph glyph-name="ocircumflex" unicode="&#xf4;" horiz-adv-x="594" 
d="M294 628l-44 -65h-128l106 145h119h12l106 -145h-128zM297 514c147 0 265 -115 265 -264s-118 -264 -265 -264s-264 115 -264 264s117 264 264 264zM297 112c77 0 136 57 136 138s-59 138 -136 138c-76 0 -135 -57 -135 -138s59 -138 135 -138z" />
    <glyph glyph-name="odieresis" unicode="&#xf6;" horiz-adv-x="594" 
d="M146 569v118h118v-118h-118zM331 569v118h118v-118h-118zM297 -14c-147 0 -264 115 -264 264s117 264 264 264s265 -115 265 -264s-118 -264 -265 -264zM297 112c77 0 136 57 136 138s-59 138 -136 138c-76 0 -135 -57 -135 -138s59 -138 135 -138z" />
    <glyph glyph-name="ograve" unicode="&#xf2;" horiz-adv-x="594" 
d="M375 571l-80 137h-155l111 -137h124zM297 -14c-147 0 -264 115 -264 264s117 264 264 264s265 -115 265 -264s-118 -264 -265 -264zM297 112c77 0 136 57 136 138s-59 138 -136 138c-76 0 -135 -57 -135 -138s59 -138 135 -138z" />
    <glyph glyph-name="ohungarumlaut" unicode="&#x151;" horiz-adv-x="594" 
d="M132 563h128l84 138h-134zM305 563h128l94 138h-134zM297 -14c-147 0 -264 115 -264 264s117 264 264 264s265 -115 265 -264s-118 -264 -265 -264zM297 112c77 0 136 57 136 138s-59 138 -136 138c-76 0 -135 -57 -135 -138s59 -138 135 -138z" />
    <glyph glyph-name="omacron" unicode="&#x14d;" horiz-adv-x="594" 
d="M152 572v105h290v-105h-290zM297 -14c-147 0 -264 115 -264 264s117 264 264 264s265 -115 265 -264s-118 -264 -265 -264zM297 112c77 0 136 57 136 138s-59 138 -136 138c-76 0 -135 -57 -135 -138s59 -138 135 -138z" />
    <glyph glyph-name="oslash" unicode="&#xf8;" horiz-adv-x="594" 
d="M486 436c47 -47 76 -112 76 -186c0 -149 -118 -264 -265 -264c-55 0 -106 17 -149 45l-25 -31h-83l60 72c-42 47 -67 109 -67 178c0 149 117 264 264 264c51 0 99 -14 139 -39l21 25h82zM162 250c0 -30 7 -56 21 -78l171 204c-17 8 -37 12 -57 12
c-76 0 -135 -57 -135 -138zM297 112c77 0 136 57 136 138c0 34 -11 64 -29 88l-174 -209c19 -11 42 -17 67 -17z" />
    <glyph glyph-name="otilde" unicode="&#xf5;" horiz-adv-x="594" 
d="M128 568c0 159 96 176 182 121c39 -25 52 -26 52 24h105c0 -159 -97 -176 -182 -121c-39 25 -53 26 -53 -24h-104zM297 -14c-147 0 -264 115 -264 264s117 264 264 264s265 -115 265 -264s-118 -264 -265 -264zM297 112c77 0 136 57 136 138s-59 138 -136 138
c-76 0 -135 -57 -135 -138s59 -138 135 -138z" />
    <glyph glyph-name="oe" unicode="&#x153;" horiz-adv-x="976" 
d="M567 197c17 -71 71 -104 135 -104c46 0 86 22 103 50l127 1c-31 -101 -116 -158 -228 -158c-100 0 -170 43 -209 110c-41 -67 -112 -110 -202 -110c-148 0 -260 115 -260 264s112 264 260 264c90 0 161 -43 203 -111c39 68 109 111 205 111c148 0 246 -117 246 -264
c0 -19 -1 -36 -5 -53h-375zM566 298h252c-15 72 -67 100 -121 100c-69 0 -115 -37 -131 -100zM297 112c77 0 136 57 136 138s-59 138 -136 138c-78 0 -135 -57 -135 -138s57 -138 135 -138z" />
    <glyph glyph-name="p" unicode="p" horiz-adv-x="626" 
d="M350 514c134 0 244 -115 244 -264s-110 -264 -244 -264c-73 0 -126 27 -162 72v-258h-129v700h129v-58c36 45 89 72 162 72zM326 109c80 0 139 57 139 141s-59 141 -139 141c-76 0 -134 -53 -138 -132v-18c4 -79 62 -132 138 -132z" />
    <glyph glyph-name="thorn" unicode="&#xfe;" horiz-adv-x="626" 
d="M350 514c134 0 244 -115 244 -264s-110 -264 -244 -264c-73 0 -127 28 -162 73v-259h-129v900h129v-259c35 45 89 73 162 73zM326 109c80 0 139 57 139 141s-59 141 -139 141c-79 0 -138 -57 -138 -141s59 -141 138 -141z" />
    <glyph glyph-name="q" unicode="q" horiz-adv-x="627" 
d="M439 500h129v-700h-129v259c-36 -45 -90 -73 -163 -73c-133 0 -243 115 -243 264s110 264 243 264c73 0 127 -28 163 -73v59zM300 109c80 0 139 57 139 141s-59 141 -139 141c-79 0 -138 -57 -138 -141s59 -141 138 -141z" />
    <glyph glyph-name="r" unicode="r" horiz-adv-x="337" 
d="M188 425c25 59 76 85 137 85v-144c-67 8 -137 -22 -137 -119v-247h-129v500h129v-75z" />
    <glyph glyph-name="racute" unicode="&#x155;" horiz-adv-x="337" 
d="M348 700l-111 -137h-124l80 137h155zM188 425c25 59 76 85 137 85v-144c-67 8 -137 -22 -137 -119v-247h-129v500h129v-75z" />
    <glyph glyph-name="rcaron" unicode="&#x159;" horiz-adv-x="337" 
d="M124 555l-106 145h128l44 -65l43 65h128l-106 -145h-131zM188 425c25 59 76 85 137 85v-144c-67 8 -137 -22 -137 -119v-247h-129v500h129v-75z" />
    <glyph glyph-name="rcommaaccent" unicode="&#x157;" horiz-adv-x="337" 
d="M188 425c25 59 76 85 137 85v-144c-67 8 -137 -22 -137 -119v-247h-129v500h129v-75zM56 -263l10 200h122l-30 -200h-102z" />
    <glyph glyph-name="s" unicode="s" horiz-adv-x="480" 
d="M173 355c0 -87 269 -17 269 -210c0 -106 -92 -159 -202 -159s-202 56 -202 173h126c0 -39 29 -59 76 -59s73 16 73 45c0 86 -269 18 -269 210c0 105 92 159 196 159c100 0 192 -56 192 -173h-126c0 39 -29 59 -66 59c-41 0 -67 -16 -67 -45z" />
    <glyph glyph-name="sacute" unicode="&#x15b;" horiz-adv-x="480" 
d="M393 708l-111 -137h-124l80 137h155zM173 355c0 -87 269 -17 269 -210c0 -106 -92 -159 -202 -159s-202 56 -202 173h126c0 -39 29 -59 76 -59s73 16 73 45c0 86 -269 18 -269 210c0 105 92 159 196 159c100 0 192 -56 192 -173h-126c0 39 -29 59 -66 59
c-41 0 -67 -16 -67 -45z" />
    <glyph glyph-name="scaron" unicode="&#x161;" horiz-adv-x="480" 
d="M169 563l-106 145h128l44 -65l43 65h128l-106 -145h-131zM173 355c0 -87 269 -17 269 -210c0 -106 -92 -159 -202 -159s-202 56 -202 173h126c0 -39 29 -59 76 -59s73 16 73 45c0 86 -269 18 -269 210c0 105 92 159 196 159c100 0 192 -56 192 -173h-126
c0 39 -29 59 -66 59c-41 0 -67 -16 -67 -45z" />
    <glyph glyph-name="scedilla" unicode="&#x15f;" horiz-adv-x="480" 
d="M442 145c0 -85 -59 -136 -139 -152v-39c34 -8 70 -32 70 -78c0 -60 -52 -102 -220 -92v91c73 -5 108 3 108 20c0 16 -24 22 -63 25v69c-91 13 -160 68 -160 170h126c0 -39 29 -59 76 -59s73 16 73 45c0 86 -269 18 -269 210c0 105 92 159 196 159c100 0 192 -56 192 -173
h-126c0 39 -29 59 -66 59c-41 0 -67 -16 -67 -45c0 -87 269 -17 269 -210z" />
    <glyph glyph-name="scommaaccent" unicode="&#x219;" horiz-adv-x="480" 
d="M173 355c0 -87 269 -17 269 -210c0 -106 -92 -159 -202 -159s-202 56 -202 173h126c0 -39 29 -59 76 -59s73 16 73 45c0 86 -269 18 -269 210c0 105 92 159 196 159c100 0 192 -56 192 -173h-126c0 39 -29 59 -66 59c-41 0 -67 -16 -67 -45zM185 -263l10 200h122
l-30 -200h-102z" />
    <glyph glyph-name="germandbls" unicode="&#xdf;" horiz-adv-x="513" 
d="M269 -6v114c75 -8 103 17 103 59c0 67 -119 146 -119 215c0 54 67 99 67 160c0 34 -26 54 -61 54c-37 0 -71 -20 -71 -78v-518h-129v518c0 118 76 196 204 196c119 0 186 -66 186 -152c0 -88 -71 -131 -71 -173c0 -59 123 -125 123 -244c0 -92 -58 -168 -232 -151z" />
    <glyph glyph-name="t" unicode="t" horiz-adv-x="334" 
d="M318 500v-124h-86v-376h-129v376h-87v124h87v160h129v-160h86z" />
    <glyph glyph-name="tbar" unicode="&#x167;" horiz-adv-x="334" 
d="M318 376h-86v-58h64v-103h-64v-215h-129v215h-72v103h72v58h-87v124h87v160h129v-160h86v-124z" />
    <glyph glyph-name="tcaron" unicode="&#x165;" horiz-adv-x="393" 
d="M286 735h122l-30 -182h-102zM232 660v-160h86v-124h-86v-376h-129v376h-87v124h87v160h129z" />
    <glyph glyph-name="uni0163" unicode="&#x163;" horiz-adv-x="334" 
d="M232 500h86v-124h-86v-376h-129v376h-87v124h87v160h129v-160zM100 -263l10 200h122l-30 -200h-102z" />
    <glyph glyph-name="uni021B" unicode="&#x21b;" horiz-adv-x="334" 
d="M232 500h86v-124h-86v-376h-129v376h-87v124h87v160h129v-160zM100 -263l10 200h122l-30 -200h-102z" />
    <glyph glyph-name="u" unicode="u" horiz-adv-x="533" 
d="M345 500h129v-500h-129v52c-28 -43 -74 -66 -136 -66c-93 0 -163 72 -163 195v319h129v-310c0 -57 34 -84 79 -84c51 0 91 29 91 105v289z" />
    <glyph glyph-name="uacute" unicode="&#xfa;" horiz-adv-x="533" 
d="M422 700l-111 -137h-124l80 137h155zM345 500h129v-500h-129v52c-28 -43 -74 -66 -136 -66c-93 0 -163 72 -163 195v319h129v-310c0 -57 34 -84 79 -84c51 0 91 29 91 105v289z" />
    <glyph glyph-name="ucircumflex" unicode="&#xfb;" horiz-adv-x="533" 
d="M264 620l-44 -65h-128l106 145h119h12l106 -145h-128zM345 500h129v-500h-129v52c-28 -43 -74 -66 -136 -66c-93 0 -163 72 -163 195v319h129v-310c0 -57 34 -84 79 -84c51 0 91 29 91 105v289z" />
    <glyph glyph-name="udieresis" unicode="&#xfc;" horiz-adv-x="533" 
d="M234 679v-118h-118v118h118zM419 679v-118h-118v118h118zM345 500h129v-500h-129v52c-28 -43 -74 -66 -136 -66c-93 0 -163 72 -163 195v319h129v-310c0 -57 34 -84 79 -84c51 0 91 29 91 105v289z" />
    <glyph glyph-name="ugrave" unicode="&#xf9;" horiz-adv-x="533" 
d="M345 563h-124l-111 137h155zM345 500h129v-500h-129v52c-28 -43 -74 -66 -136 -66c-93 0 -163 72 -163 195v319h129v-310c0 -57 34 -84 79 -84c51 0 91 29 91 105v289z" />
    <glyph glyph-name="uhungarumlaut" unicode="&#x171;" horiz-adv-x="533" 
d="M314 693l-84 -138h-128l78 138h134zM403 555h-128l88 138h134zM345 211v289h129v-500h-129v52c-28 -43 -74 -66 -136 -66c-93 0 -163 72 -163 195v319h129v-310c0 -57 34 -84 79 -84c51 0 91 29 91 105z" />
    <glyph glyph-name="umacron" unicode="&#x16b;" horiz-adv-x="533" 
d="M412 669v-105h-290v105h290zM345 500h129v-500h-129v52c-28 -43 -74 -66 -136 -66c-93 0 -163 72 -163 195v319h129v-310c0 -57 34 -84 79 -84c51 0 91 29 91 105v289z" />
    <glyph glyph-name="uogonek" unicode="&#x173;" horiz-adv-x="532" 
d="M345 500h129v-500c-34 -35 -53 -71 -53 -95c-1 -17 8 -27 25 -27c8 -1 17 1 28 5v-81c-25 -10 -48 -16 -81 -16c-55 0 -96 29 -96 88c0 37 24 82 64 126h-16v52c-28 -43 -74 -66 -136 -66c-93 0 -163 72 -163 195v319h129v-310c0 -57 34 -84 79 -84c51 0 91 29 91 105
v289z" />
    <glyph glyph-name="uring" unicode="&#x16f;" horiz-adv-x="533" 
d="M267 539c-74 0 -126 51 -126 119c0 67 52 118 126 118c76 0 126 -51 126 -118c0 -68 -50 -119 -126 -119zM267 695c-25 0 -39 -16 -39 -37c0 -22 14 -38 39 -38c27 0 40 16 40 38c0 21 -13 37 -40 37zM345 500h129v-500h-129v52c-28 -43 -74 -66 -136 -66
c-93 0 -163 72 -163 195v319h129v-310c0 -57 34 -84 79 -84c51 0 91 29 91 105v289z" />
    <glyph glyph-name="v" unicode="v" horiz-adv-x="500" 
d="M360 500h138l-182 -500h-117h-15l-181 500h137l110 -341z" />
    <glyph glyph-name="w" unicode="w" horiz-adv-x="725" 
d="M578 500h137l-163 -500h-117h-6l-66 201l-66 -201h-102h-21l-164 500h138l97 -342l65 204l-45 138h115l104 -329z" />
    <glyph glyph-name="wacute" unicode="&#x1e83;" horiz-adv-x="725" 
d="M518 700l-111 -137h-124l80 137h155zM578 500h137l-163 -500h-117h-6l-66 201l-66 -201h-102h-21l-164 500h138l97 -342l65 204l-45 138h115l104 -329z" />
    <glyph glyph-name="wcircumflex" unicode="&#x175;" horiz-adv-x="725" 
d="M360 620l-44 -65h-128l106 145h119h12l106 -145h-128zM578 500h137l-163 -500h-117h-6l-66 201l-66 -201h-102h-21l-164 500h138l97 -342l65 204l-45 138h115l104 -329z" />
    <glyph glyph-name="wdieresis" unicode="&#x1e85;" horiz-adv-x="725" 
d="M329 679v-118h-118v118h118zM514 679v-118h-118v118h118zM578 500h137l-163 -500h-117h-6l-66 201l-66 -201h-102h-21l-164 500h138l97 -342l65 204l-45 138h115l104 -329z" />
    <glyph glyph-name="wgrave" unicode="&#x1e81;" horiz-adv-x="725" 
d="M440 563h-124l-111 137h155zM578 500h137l-163 -500h-117h-6l-66 201l-66 -201h-102h-21l-164 500h138l97 -342l65 204l-45 138h115l104 -329z" />
    <glyph glyph-name="x" unicode="x" horiz-adv-x="473" 
d="M468 0h-138l-94 147l-93 -147h-138l162 256l-154 244h138l85 -135l86 135h138l-155 -244z" />
    <glyph glyph-name="y" unicode="y" horiz-adv-x="500" 
d="M360 500h138l-237 -700h-137l70 207l-191 493h137l118 -315z" />
    <glyph glyph-name="yacute" unicode="&#xfd;" horiz-adv-x="500" 
d="M170 563h124l111 137h-155zM360 500h138l-237 -700h-137l70 207l-191 493h137l118 -315z" />
    <glyph glyph-name="ycircumflex" unicode="&#x177;" horiz-adv-x="500" 
d="M247 620l-44 -65h-128l106 145h119h12l106 -145h-128zM360 500h138l-237 -700h-137l70 207l-191 493h137l118 -315z" />
    <glyph glyph-name="ydieresis" unicode="&#xff;" horiz-adv-x="500" 
d="M99 561v118h118v-118h-118zM284 561v118h118v-118h-118zM360 500h138l-237 -700h-137l70 207l-191 493h137l118 -315z" />
    <glyph glyph-name="ygrave" unicode="&#x1ef3;" horiz-adv-x="500" 
d="M328 563l-80 137h-155l111 -137h124zM360 500h138l-237 -700h-137l70 207l-191 493h137l118 -315z" />
    <glyph glyph-name="z" unicode="z" horiz-adv-x="454" 
d="M206 121h222v-121h-395v86l211 293h-201v121h375v-86z" />
    <glyph glyph-name="zacute" unicode="&#x17a;" horiz-adv-x="454" 
d="M386 700l-111 -137h-124l80 137h155zM206 121h222v-121h-395v86l211 293h-201v121h375v-86z" />
    <glyph glyph-name="zcaron" unicode="&#x17e;" horiz-adv-x="454" 
d="M162 555l-106 145h128l44 -65l43 65h128l-106 -145h-131zM206 121h222v-121h-395v86l211 293h-201v121h375v-86z" />
    <glyph glyph-name="zdotaccent" unicode="&#x17c;" horiz-adv-x="454" 
d="M298 693v-135h-135v135h135zM206 121h222v-121h-395v86l211 293h-201v121h375v-86z" />
    <glyph glyph-name="a.ss01" horiz-adv-x="626" 
d="M439 500h129v-500h-129v59c-36 -45 -90 -73 -163 -73c-133 0 -243 115 -243 264s110 264 243 264c73 0 127 -28 163 -73v59zM300 109c80 0 139 57 139 141s-59 141 -139 141c-79 0 -138 -57 -138 -141s59 -141 138 -141z" />
    <glyph glyph-name="aacute.ss01" horiz-adv-x="626" 
d="M463 700l-111 -137h-124l80 137h155zM439 500h129v-500h-129v59c-36 -45 -90 -73 -163 -73c-133 0 -243 115 -243 264s110 264 243 264c73 0 127 -28 163 -73v59zM300 109c80 0 139 57 139 141s-59 141 -139 141c-79 0 -138 -57 -138 -141s59 -141 138 -141z" />
    <glyph glyph-name="abreve.ss01" horiz-adv-x="626" 
d="M307 547c-105 0 -166 53 -166 145h115c0 -35 18 -52 51 -52c34 0 52 17 52 52h115c0 -92 -60 -145 -167 -145zM439 500h129v-500h-129v59c-36 -45 -90 -73 -163 -73c-133 0 -243 115 -243 264s110 264 243 264c73 0 127 -28 163 -73v59zM300 109c80 0 139 57 139 141
s-59 141 -139 141c-79 0 -138 -57 -138 -141s59 -141 138 -141z" />
    <glyph glyph-name="acircumflex.ss01" horiz-adv-x="626" 
d="M305 620l-44 -65h-128l106 145h119h12l106 -145h-128zM439 500h129v-500h-129v59c-36 -45 -90 -73 -163 -73c-133 0 -243 115 -243 264s110 264 243 264c73 0 127 -28 163 -73v59zM300 109c80 0 139 57 139 141s-59 141 -139 141c-79 0 -138 -57 -138 -141
s59 -141 138 -141z" />
    <glyph glyph-name="adieresis.ss01" horiz-adv-x="626" 
d="M274 679v-118h-118v118h118zM459 679v-118h-118v118h118zM439 500h129v-500h-129v59c-36 -45 -90 -73 -163 -73c-133 0 -243 115 -243 264s110 264 243 264c73 0 127 -28 163 -73v59zM300 109c80 0 139 57 139 141s-59 141 -139 141c-79 0 -138 -57 -138 -141
s59 -141 138 -141z" />
    <glyph glyph-name="agrave.ss01" horiz-adv-x="626" 
d="M385 563h-124l-111 137h155zM439 500h129v-500h-129v59c-36 -45 -90 -73 -163 -73c-133 0 -243 115 -243 264s110 264 243 264c73 0 127 -28 163 -73v59zM300 109c80 0 139 57 139 141s-59 141 -139 141c-79 0 -138 -57 -138 -141s59 -141 138 -141z" />
    <glyph glyph-name="amacron.ss01" horiz-adv-x="626" 
d="M453 669v-105h-290v105h290zM439 500h129v-500h-129v59c-36 -45 -90 -73 -163 -73c-133 0 -243 115 -243 264s110 264 243 264c73 0 127 -28 163 -73v59zM300 109c80 0 139 57 139 141s-59 141 -139 141c-79 0 -138 -57 -138 -141s59 -141 138 -141z" />
    <glyph glyph-name="aogonek.ss01" horiz-adv-x="626" 
d="M568 0c-34 -35 -53 -71 -53 -95c-1 -17 8 -27 25 -27c8 -1 17 1 28 5v-81c-25 -10 -48 -16 -81 -16c-55 0 -96 29 -96 88c0 37 24 82 64 126h-16v59c-36 -45 -90 -73 -163 -73c-133 0 -243 115 -243 264s110 264 243 264c73 0 127 -28 163 -73v59h129v-500zM300 109
c80 0 139 57 139 141s-59 141 -139 141c-79 0 -138 -57 -138 -141s59 -141 138 -141z" />
    <glyph glyph-name="aring.ss01" horiz-adv-x="626" 
d="M308 539c-74 0 -126 51 -126 119c0 67 52 118 126 118c76 0 126 -51 126 -118c0 -68 -50 -119 -126 -119zM308 695c-25 0 -39 -16 -39 -37c0 -22 14 -38 39 -38c27 0 40 16 40 38c0 21 -13 37 -40 37zM439 500h129v-500h-129v59c-36 -45 -90 -73 -163 -73
c-133 0 -243 115 -243 264s110 264 243 264c73 0 127 -28 163 -73v59zM300 109c80 0 139 57 139 141s-59 141 -139 141c-79 0 -138 -57 -138 -141s59 -141 138 -141z" />
    <glyph glyph-name="atilde.ss01" horiz-adv-x="626" 
d="M295 584c-39 25 -53 26 -53 -24h-104c0 159 96 176 182 121c39 -25 52 -26 52 24h105c0 -159 -97 -176 -182 -121zM439 500h129v-500h-129v59c-36 -45 -90 -73 -163 -73c-133 0 -243 115 -243 264s110 264 243 264c73 0 127 -28 163 -73v59zM300 109c80 0 139 57 139 141
s-59 141 -139 141c-79 0 -138 -57 -138 -141s59 -141 138 -141z" />
    <glyph glyph-name="ae.ss01" horiz-adv-x="983" 
d="M574 197c18 -71 72 -104 136 -104c45 0 85 22 102 50l128 1c-32 -101 -99 -158 -211 -158c-73 0 -130 28 -169 75v-61h-121v59c-36 -45 -90 -73 -163 -73c-133 0 -243 115 -243 264s110 264 243 264c73 0 127 -28 163 -73v59h121v-62c39 47 95 76 165 76
c147 0 230 -117 230 -264c0 -19 -2 -36 -5 -53h-376zM574 298h252c-15 72 -68 100 -122 100c-68 0 -115 -37 -130 -100zM300 109c80 0 139 57 139 141s-59 141 -139 141c-79 0 -138 -57 -138 -141s59 -141 138 -141z" />
    <glyph glyph-name="y.ss01" horiz-adv-x="532" 
d="M345 500h129v-518c0 -137 -96 -196 -207 -196c-110 0 -203 59 -203 169h126c0 -36 29 -57 76 -57c48 0 79 24 79 84v69c-28 -42 -74 -65 -136 -65c-93 0 -163 72 -163 195v319h129v-310c0 -57 34 -84 79 -84c51 0 91 29 91 105v289z" />
    <glyph glyph-name="yacute.ss01" horiz-adv-x="532" 
d="M415 700l-111 -137h-124l80 137h155zM345 500h129v-518c0 -137 -96 -196 -207 -196c-110 0 -203 59 -203 169h126c0 -36 29 -57 76 -57c48 0 79 24 79 84v69c-28 -42 -74 -65 -136 -65c-93 0 -163 72 -163 195v319h129v-310c0 -57 34 -84 79 -84c51 0 91 29 91 105v289z
" />
    <glyph glyph-name="ycircumflex.ss01" horiz-adv-x="532" 
d="M257 620l-44 -65h-128l106 145h119h12l106 -145h-128zM345 500h129v-518c0 -137 -96 -196 -207 -196c-110 0 -203 59 -203 169h126c0 -36 29 -57 76 -57c48 0 79 24 79 84v69c-28 -42 -74 -65 -136 -65c-93 0 -163 72 -163 195v319h129v-310c0 -57 34 -84 79 -84
c51 0 91 29 91 105v289z" />
    <glyph glyph-name="ydieresis.ss01" horiz-adv-x="532" 
d="M227 679v-118h-118v118h118zM412 679v-118h-118v118h118zM345 500h129v-518c0 -137 -96 -196 -207 -196c-110 0 -203 59 -203 169h126c0 -36 29 -57 76 -57c48 0 79 24 79 84v69c-28 -42 -74 -65 -136 -65c-93 0 -163 72 -163 195v319h129v-310c0 -57 34 -84 79 -84
c51 0 91 29 91 105v289z" />
    <glyph glyph-name="ygrave.ss01" horiz-adv-x="532" 
d="M337 563h-124l-111 137h155zM345 500h129v-518c0 -137 -96 -196 -207 -196c-110 0 -203 59 -203 169h126c0 -36 29 -57 76 -57c48 0 79 24 79 84v69c-28 -42 -74 -65 -136 -65c-93 0 -163 72 -163 195v319h129v-310c0 -57 34 -84 79 -84c51 0 91 29 91 105v289z" />
    <glyph glyph-name="f_f_j" horiz-adv-x="818" 
d="M759 500v-510c0 -147 -70 -213 -217 -204v124c60 -4 88 19 88 80v386h-147v-376h-129v376h-71h-77v-376h-129v376h-72v124h72v5c0 138 76 219 234 209v-124c-66 5 -105 -17 -105 -85v-5h105h43v15c0 138 77 209 235 209c38 0 76 -5 118 -14v-118c-43 5 -82 8 -118 8
c-66 0 -106 -17 -106 -85v-15h276z" />
    <glyph glyph-name="f_j" horiz-adv-x="540" 
d="M482 500v-510c0 -147 -71 -213 -218 -204v124c61 -4 89 19 89 80v386h-147v-376h-129v376h-72v124h72v5c0 138 76 209 234 209c39 0 77 -5 118 -14v-118c-42 5 -81 8 -118 8c-66 0 -105 -17 -105 -85v-5h276z" />
    <glyph glyph-name="ordfeminine" unicode="&#xaa;" horiz-adv-x="273" 
d="M137 714c57 0 103 -34 103 -98v-159h-67v21c-15 -17 -36 -28 -68 -28c-44 0 -82 27 -82 79c0 51 38 78 82 78c32 0 53 -9 68 -21v26c0 25 -12 38 -36 38s-36 -12 -36 -28h-67c0 59 46 92 103 92zM129 500c23 0 44 11 44 29c0 19 -21 28 -44 28c-25 0 -38 -11 -38 -28
c0 -16 13 -29 38 -29z" />
    <glyph glyph-name="ordmasculine" unicode="&#xba;" horiz-adv-x="310" 
d="M155 450c-74 0 -132 58 -132 132c0 75 58 132 132 132s132 -57 132 -132c0 -74 -58 -132 -132 -132zM155 517c37 0 63 26 63 65s-26 65 -63 65s-64 -26 -64 -65s27 -65 64 -65z" />
    <glyph glyph-name="uni0410" unicode="&#x410;" horiz-adv-x="653" 
d="M500 0l-40 126h-268l-40 -126h-149l238 700h171l238 -700h-150zM233 255h186l-93 292z" />
    <glyph glyph-name="uni0411" unicode="&#x411;" horiz-adv-x="585" 
d="M333 435c136 0 232 -89 232 -217c0 -129 -96 -218 -232 -218h-223h-45v700h138h302v-132h-302v-133h130zM333 129c52 0 95 30 95 89c0 58 -43 88 -95 88h-130v-177h130z" />
    <glyph glyph-name="uni0412" unicode="&#x412;" horiz-adv-x="685" 
d="M537 426c73 -38 121 -113 121 -203c0 -126 -94 -223 -221 -223h-339h-33v700h138h153c120 0 207 -81 207 -189c0 -31 -10 -60 -26 -85zM356 571h-153v-118h201c13 13 21 32 21 51c0 39 -26 67 -69 67zM419 129c68 0 101 45 101 101c0 57 -33 101 -100 101h-217v-202h216z
" />
    <glyph glyph-name="uni0413" unicode="&#x413;" horiz-adv-x="475" 
d="M463 700v-132h-260v-568h-138v700h398z" />
    <glyph glyph-name="uni0403" unicode="&#x403;" horiz-adv-x="475" 
d="M424 899l-111 -137h-124l80 137h155zM463 700v-132h-260v-568h-138v700h398z" />
    <glyph glyph-name="uni0490" unicode="&#x490;" horiz-adv-x="475" 
d="M325 820h138v-187v-65h-260v-568h-138v700h260v120z" />
    <glyph glyph-name="uni0414" unicode="&#x414;" horiz-adv-x="683" 
d="M580 129h75v-129v-144h-137v144h-365v-144h-138v180v93h66c35 46 60 114 60 240v331h439v-571zM229 129h214v442h-164v-204c0 -122 -23 -193 -50 -238z" />
    <glyph glyph-name="uni0415" unicode="&#x415;" horiz-adv-x="513" 
d="M203 132h277v-132h-370h-45v700h138h272v-132h-272v-150h247v-129h-247v-157z" />
    <glyph glyph-name="uni0401" unicode="&#x401;" horiz-adv-x="513" 
d="M237 879v-118h-118v118h118zM422 879v-118h-118v118h118zM203 132h277v-132h-370h-45v700h138h272v-132h-272v-150h247v-129h-247v-157z" />
    <glyph glyph-name="uni0416" unicode="&#x416;" horiz-adv-x="904" 
d="M892 0h-154l-217 319v-319h-138v319l-217 -319h-153l243 356l-233 344h153l207 -314v314h138v-314l207 314h154l-234 -344z" />
    <glyph glyph-name="uni0417" unicode="&#x417;" horiz-adv-x="545" 
d="M435 411c62 -41 98 -108 98 -190c0 -137 -101 -235 -260 -235c-160 0 -260 105 -260 243h137c0 -60 40 -113 123 -113c82 0 122 45 122 105s-40 106 -119 106h-53v128h53c11 0 21 -1 31 -2c27 18 36 45 36 64c0 39 -27 68 -79 68c-53 0 -79 -29 -79 -68h-138
c0 116 87 197 217 197c129 0 216 -81 216 -189c0 -40 -16 -82 -45 -114z" />
    <glyph glyph-name="uni0418" unicode="&#x418;" horiz-adv-x="645" 
d="M443 0v433l-273 -433h-105v700h138v-432l272 432h105v-700h-137z" />
    <glyph glyph-name="uni0419" unicode="&#x419;" horiz-adv-x="645" 
d="M188 764v112h290v-112h-290zM443 0v433l-273 -433h-105v700h138v-432l272 432h105v-700h-137z" />
    <glyph glyph-name="uni041A" unicode="&#x41a;" horiz-adv-x="615" 
d="M612 0h-159l-250 329v-329h-138v700h138v-309l240 309h159l-259 -341z" />
    <glyph glyph-name="uni040C" unicode="&#x40c;" horiz-adv-x="615" 
d="M464 899l-111 -137h-124l80 137h155zM612 0h-159l-250 329v-329h-138v700h138v-309l240 309h159l-259 -341z" />
    <glyph glyph-name="uni041B" unicode="&#x41b;" horiz-adv-x="641" 
d="M11 -2v128c77 -9 124 21 124 160v414h441v-700h-137v568h-167v-278c0 -252 -131 -304 -261 -292z" />
    <glyph glyph-name="uni041C" unicode="&#x41c;" horiz-adv-x="815" 
d="M750 700v-700h-137v470l-155 -358h-100l-155 358v-470h-138v700h138h19l186 -428l185 428h157z" />
    <glyph glyph-name="uni041D" unicode="&#x41d;" horiz-adv-x="638" 
d="M435 700h138v-700h-138v294h-232v-294h-138v700h138v-274h232v274z" />
    <glyph glyph-name="uni041E" unicode="&#x41e;" horiz-adv-x="792" 
d="M396 -14c-202 0 -363 160 -363 364c0 205 161 364 363 364s364 -159 364 -364c0 -204 -162 -364 -364 -364zM396 121c127 0 226 95 226 229c0 135 -99 230 -226 230s-226 -95 -226 -230c0 -134 99 -229 226 -229z" />
    <glyph glyph-name="uni041F" unicode="&#x41f;" horiz-adv-x="638" 
d="M573 700v-700h-138v568h-232v-568h-138v700h138h370z" />
    <glyph glyph-name="uni0420" unicode="&#x420;" horiz-adv-x="588" 
d="M326 700c133 0 237 -104 237 -232c0 -129 -104 -233 -237 -233h-123v-235h-138v700h138h123zM326 364c56 0 99 46 99 104s-43 103 -99 103h-123v-207h123z" />
    <glyph glyph-name="uni0421" unicode="&#x421;" horiz-adv-x="752" 
d="M397 -14c-212 0 -364 160 -364 364c0 205 152 364 364 364c166 0 307 -109 340 -264h-145c-25 79 -103 130 -195 130c-137 0 -227 -95 -227 -230c0 -134 90 -229 227 -229c92 0 170 50 195 129h145c-33 -154 -173 -264 -340 -264z" />
    <glyph glyph-name="uni0422" unicode="&#x422;" horiz-adv-x="500" 
d="M488 700v-132h-169v-568h-138v568h-168v132h306h169z" />
    <glyph glyph-name="uni0423" unicode="&#x423;" horiz-adv-x="600" 
d="M452 700h138l-210 -507c-58 -141 -151 -200 -276 -193v129c77 -8 119 23 147 82l-228 489h138l153 -338z" />
    <glyph glyph-name="uni040E" unicode="&#x40e;" horiz-adv-x="600" 
d="M439 875v-112h-290v112h290zM452 700h138l-210 -507c-58 -141 -151 -200 -276 -193v129c77 -8 119 23 147 82l-228 489h138l153 -338z" />
    <glyph glyph-name="uni0424" unicode="&#x424;" horiz-adv-x="819" 
d="M797 350c0 -162 -128 -265 -320 -284v-81h-135v81c-192 19 -319 122 -319 284s127 265 319 284v81h135v-81c192 -19 320 -122 320 -284zM160 350c0 -93 63 -145 182 -158v316c-119 -13 -182 -65 -182 -158zM477 192c119 13 182 65 182 158s-63 145 -182 158v-316z" />
    <glyph glyph-name="uni0425" unicode="&#x425;" horiz-adv-x="600" 
d="M588 0h-156l-132 226l-132 -226h-155l209 360l-198 340h156l120 -207l121 207h155l-198 -340z" />
    <glyph glyph-name="uni0427" unicode="&#x427;" horiz-adv-x="616" 
d="M414 700h137v-700h-137v250c-39 -14 -78 -21 -121 -21c-138 0 -243 82 -243 221v250h138v-232c0 -68 43 -107 108 -107c44 0 81 7 118 22v317z" />
    <glyph glyph-name="uni0426" unicode="&#x426;" horiz-adv-x="675" 
d="M573 132h75v-276h-138v144h-445v700h138v-568h232v568h138v-568z" />
    <glyph glyph-name="uni0428" unicode="&#x428;" horiz-adv-x="903" 
d="M700 700h138v-700h-773v700h138v-568h180v568h137v-568h180v568z" />
    <glyph glyph-name="uni0429" unicode="&#x429;" horiz-adv-x="940" 
d="M838 132h75v-276h-138v144h-710v700h138v-568h180v568h137v-568h180v568h138v-568z" />
    <glyph glyph-name="uni040F" unicode="&#x40f;" horiz-adv-x="638" 
d="M435 700h138v-700h-138h-47v-144h-138v144h-140h-45v700h138v-568h232v568z" />
    <glyph glyph-name="uni042C" unicode="&#x42c;" horiz-adv-x="588" 
d="M326 465c133 0 237 -104 237 -232c0 -129 -104 -233 -237 -233h-216h-45v700h138v-235h123zM326 129c56 0 99 45 99 104c0 58 -43 103 -99 103h-123v-207h123z" />
    <glyph glyph-name="uni042A" unicode="&#x42a;" horiz-adv-x="690" 
d="M168 0v568h-168v132h305v-235h124c132 0 236 -104 236 -232c0 -129 -104 -233 -236 -233h-261zM305 129h124c56 0 99 45 99 104c0 58 -43 103 -99 103h-124v-207z" />
    <glyph glyph-name="uni042B" unicode="&#x42b;" horiz-adv-x="829" 
d="M65 0v700h138v-235h123c133 0 237 -104 237 -232c0 -129 -104 -233 -237 -233h-261zM626 0v700h138v-700h-138zM203 129h123c56 0 99 45 99 104c0 58 -43 103 -99 103h-123v-207z" />
    <glyph glyph-name="uni0409" unicode="&#x409;" horiz-adv-x="921" 
d="M660 438c133 0 236 -91 236 -219c0 -129 -103 -219 -236 -219h-196h-45v568h-147v-278c0 -252 -131 -304 -261 -292v128c77 -9 124 21 124 160v414h421v-262h104zM660 129c56 0 99 32 99 90s-43 90 -99 90h-104v-180h104z" />
    <glyph glyph-name="uni040A" unicode="&#x40a;" horiz-adv-x="918" 
d="M656 438c133 0 237 -91 237 -219c0 -129 -104 -219 -237 -219h-196h-45v309h-212v-309h-138v700h138v-262h212v262h138v-262h103zM656 129c56 0 99 32 99 90s-43 90 -99 90h-103v-180h103z" />
    <glyph glyph-name="uni0405" unicode="&#x405;" horiz-adv-x="546" 
d="M281 -14c-138 0 -256 72 -256 230h138c0 -64 40 -95 118 -95c70 0 103 30 103 70c0 50 -56 72 -123 95c-100 36 -223 76 -223 224c0 134 111 204 227 204c122 0 236 -71 236 -226h-137c0 61 -36 92 -99 92c-57 0 -90 -29 -90 -70c0 -51 48 -74 113 -98
c101 -36 233 -73 233 -221c0 -134 -110 -205 -240 -205z" />
    <glyph glyph-name="uni0404" unicode="&#x404;" horiz-adv-x="749" 
d="M390 121c99 0 175 50 196 129h144c-28 -154 -166 -264 -340 -264c-211 0 -357 160 -357 364c0 205 146 364 357 364c173 0 311 -109 340 -264h-144c-22 79 -97 130 -196 130c-113 0 -190 -65 -213 -165h312v-129h-312c23 -99 100 -165 213 -165z" />
    <glyph glyph-name="uni042D" unicode="&#x42d;" horiz-adv-x="749" 
d="M359 714c211 0 358 -159 358 -364c0 -204 -147 -364 -358 -364c-174 0 -312 110 -340 264h144c21 -79 97 -129 196 -129c113 0 190 65 213 165h-312v129h312c-23 99 -100 165 -213 165c-99 0 -174 -51 -196 -130h-144c29 155 167 264 340 264z" />
    <glyph glyph-name="uni0406" unicode="&#x406;" 
d="M65 700h138v-700h-138v700z" />
    <glyph glyph-name="uni0407" unicode="&#x407;" 
d="M-18 761v118h118v-118h-118zM167 761v118h118v-118h-118zM65 700h138v-700h-138v700z" />
    <glyph glyph-name="uni0408" unicode="&#x408;" horiz-adv-x="538" 
d="M248 -14c-122 0 -235 70 -235 221v18h137v-18c0 -57 36 -86 98 -86c61 0 97 29 97 86v493h138v-493c0 -151 -114 -221 -235 -221z" />
    <glyph glyph-name="uni040B" unicode="&#x40b;" horiz-adv-x="668" 
d="M435 459c112 0 188 -66 188 -196v-263h-137v250c0 61 -32 85 -81 85c-29 0 -59 -8 -89 -20v-315h-137v568h-166v132h303h199v-132h-199v-131c42 15 83 22 119 22z" />
    <glyph glyph-name="uni042E" unicode="&#x42e;" horiz-adv-x="1055" 
d="M659 714c202 0 364 -159 364 -364c0 -203 -162 -364 -364 -364c-183 0 -330 131 -355 308h-101v-294h-138v700h138v-274h104c34 167 176 288 352 288zM659 121c127 0 226 95 226 229c0 135 -99 230 -226 230s-226 -92 -226 -230c0 -134 99 -229 226 -229z" />
    <glyph glyph-name="uni042F" unicode="&#x42f;" horiz-adv-x="635" 
d="M570 700v-700h-137v243h-65l-198 -243h-165l217 258c-89 34 -149 117 -149 210c0 128 103 232 236 232h261zM313 364h120v207h-120c-56 0 -103 -45 -103 -103s47 -104 103 -104z" />
    <glyph glyph-name="uni0402" unicode="&#x402;" horiz-adv-x="663" 
d="M435 459c112 0 188 -66 188 -196v-69c0 -147 -70 -213 -217 -204v128c60 -4 80 19 80 76v56c0 61 -32 85 -81 85c-29 0 -59 -8 -89 -20v-315h-137v568h-166v132h303h199v-132h-199v-131c42 15 83 22 119 22z" />
    <glyph glyph-name="uni0414.loclBGR" horiz-adv-x="730" 
d="M634 129h79v-129v-144h-138v144h-374h-46v-144h-137v180v93h78l184 571h171zM240 129h250l-125 415z" />
    <glyph glyph-name="uni041B.loclBGR" horiz-adv-x="632" 
d="M231 700h171l228 -700h-150l-164 540l-164 -540h-149z" />
    <glyph glyph-name="uni0424.loclBGR" horiz-adv-x="859" 
d="M827 350c0 -199 -130 -335 -332 -358v-92h-130v92c-203 23 -332 159 -332 358s129 335 332 358v92h130v-92c202 -23 332 -159 332 -358zM170 350c0 -129 65 -212 195 -232v464c-130 -20 -195 -103 -195 -232zM495 118c129 20 194 103 194 232s-65 212 -194 232v-464z" />
    <glyph glyph-name="uni0414.ss01" horiz-adv-x="683" 
d="M580 129h75v-129h-212h-428v129h66c35 46 60 114 60 240v331h439v-571zM229 129h214v442h-164v-204c0 -122 -23 -193 -50 -238z" />
    <glyph glyph-name="uni0426.ss01" horiz-adv-x="675" 
d="M573 132h75v-132h-583v700h138v-568h232v568h138v-568z" />
    <glyph glyph-name="uni0429.ss01" horiz-adv-x="940" 
d="M838 132h75v-132h-848v700h138v-568h180v568h137v-568h180v568h138v-568z" />
    <glyph glyph-name="uni0414.loclBGR.ss01" horiz-adv-x="730" 
d="M634 129h79v-129h-184h-475h-36v129h78l184 571h171zM240 129h250l-125 415z" />
    <glyph glyph-name="uni0430" unicode="&#x430;" horiz-adv-x="509" 
d="M259 514c111 0 204 -66 204 -196v-318h-126v43c-29 -35 -73 -57 -136 -57c-89 0 -168 53 -168 158s79 157 168 157c63 0 107 -19 136 -44v53c0 59 -30 84 -78 84c-47 0 -77 -25 -77 -64h-126c0 118 93 184 203 184zM245 82c57 0 92 26 92 62c0 38 -35 62 -92 62
s-83 -26 -83 -62s26 -62 83 -62z" />
    <glyph glyph-name="uni0431" unicode="&#x431;" horiz-adv-x="563" 
d="M292 -14c-152 0 -259 107 -259 255c0 284 312 327 312 459h137c0 -184 -209 -194 -279 -298c36 27 73 40 126 40c102 0 216 -85 216 -221c0 -135 -104 -235 -253 -235zM291 104c73 0 125 50 125 117c0 68 -54 118 -128 118c-61 0 -124 -41 -124 -114
c0 -71 56 -121 127 -121z" />
    <glyph glyph-name="uni0432" unicode="&#x432;" horiz-adv-x="525" 
d="M425 296c56 -25 86 -76 86 -137c0 -88 -59 -159 -180 -159h-272v217v283h121h109c99 0 160 -61 160 -135c0 -25 -9 -48 -24 -69zM180 396v-81h139c5 9 8 19 8 30c0 30 -21 52 -57 51h-90zM320 107c42 0 65 20 65 56c0 35 -23 54 -65 54h-140v-110h140z" />
    <glyph glyph-name="uni0433" unicode="&#x433;" horiz-adv-x="383" 
d="M381 500v-124h-193v-376h-129v500h322z" />
    <glyph glyph-name="uni0453" unicode="&#x453;" horiz-adv-x="383" 
d="M359 700l-111 -137h-124l80 137h155zM381 500v-124h-193v-376h-129v500h322z" />
    <glyph glyph-name="uni0491" unicode="&#x491;" horiz-adv-x="383" 
d="M255 601h126v-225h-193v-376h-129v500h196v101z" />
    <glyph glyph-name="uni0434" unicode="&#x434;" horiz-adv-x="578" 
d="M489 117h66v-117v-144h-126v144h-290v-144h-126v180v81h58c29 40 46 89 46 181v202h126h199h47v-383zM210 117h153v267h-120v-86c0 -78 -12 -135 -33 -181z" />
    <glyph glyph-name="uni0435" unicode="&#x435;" horiz-adv-x="576" 
d="M167 197c17 -71 71 -104 135 -104c46 0 86 22 103 50l127 1c-31 -101 -119 -158 -231 -158c-163 0 -268 115 -268 264s107 264 265 264c147 0 249 -117 249 -264c0 -19 -1 -36 -5 -53h-375zM166 298h252c-15 72 -67 100 -121 100c-69 0 -115 -37 -131 -100z" />
    <glyph glyph-name="uni0451" unicode="&#x451;" horiz-adv-x="576" 
d="M266 683v-118h-118v118h118zM451 683v-118h-118v118h118zM167 197c17 -71 71 -104 135 -104c46 0 86 22 103 50l127 1c-31 -101 -119 -158 -231 -158c-163 0 -268 115 -268 264s107 264 265 264c147 0 249 -117 249 -264c0 -19 -1 -36 -5 -53h-375zM166 298h252
c-15 72 -67 100 -121 100c-69 0 -115 -37 -131 -100z" />
    <glyph glyph-name="uni0436" unicode="&#x436;" horiz-adv-x="746" 
d="M734 0h-145l-153 224v-224h-126v224l-153 -224h-144l180 253l-170 247h144l143 -217v217h126v-217l143 217h145l-171 -247z" />
    <glyph glyph-name="uni0437" unicode="&#x437;" horiz-adv-x="435" 
d="M352 285c44 -28 67 -73 67 -129c0 -91 -69 -170 -201 -170c-133 0 -202 76 -202 175h128c0 -37 25 -59 74 -59s73 22 73 60c0 35 -27 58 -73 58h-47v98h52c4 0 8 -1 12 -1c15 11 24 25 24 42c0 29 -20 43 -50 43s-51 -15 -51 -47h-124c0 98 65 159 179 159
c108 0 171 -64 171 -143c0 -33 -11 -62 -32 -86z" />
    <glyph glyph-name="uni0438" unicode="&#x438;" horiz-adv-x="545" 
d="M390 500h96v-500h-126v290l-205 -290h-96v500h126v-290z" />
    <glyph glyph-name="uni0439" unicode="&#x439;" horiz-adv-x="545" 
d="M128 564v112h290v-112h-290zM390 500h96v-500h-126v290l-205 -290h-96v500h126v-290z" />
    <glyph glyph-name="uni043A" unicode="&#x43a;" horiz-adv-x="517" 
d="M512 0h-149l-175 226v-226h-129v500h129v-220l165 220h149l-190 -247z" />
    <glyph glyph-name="uni045C" unicode="&#x45c;" horiz-adv-x="517" 
d="M416 700l-111 -137h-124l80 137h155zM512 0h-149l-175 226v-226h-129v500h129v-220l165 220h149l-190 -247z" />
    <glyph glyph-name="uni043B" unicode="&#x43b;" horiz-adv-x="519" 
d="M460 500v-500h-129v376h-110v-167c0 -158 -76 -224 -211 -215v121c53 -7 82 23 82 101v284h129h239z" />
    <glyph glyph-name="uni043C" unicode="&#x43c;" horiz-adv-x="653" 
d="M594 500v-500h-125v309l-108 -215h-70l-108 215v-309h-124v500h124h12l131 -261l132 261h136z" />
    <glyph glyph-name="uni043D" unicode="&#x43d;" horiz-adv-x="545" 
d="M357 500h129v-500h-129v190h-169v-190h-129v500h129v-189h169v189z" />
    <glyph glyph-name="uni043E" unicode="&#x43e;" horiz-adv-x="594" 
d="M297 -14c-147 0 -264 115 -264 264s117 264 264 264s265 -115 265 -264s-118 -264 -265 -264zM297 112c77 0 136 57 136 138s-59 138 -136 138c-76 0 -135 -57 -135 -138s59 -138 135 -138z" />
    <glyph glyph-name="uni043F" unicode="&#x43f;" horiz-adv-x="545" 
d="M486 500v-500h-129v379h-169v-379h-129v500h129h298z" />
    <glyph glyph-name="uni0440" unicode="&#x440;" horiz-adv-x="626" 
d="M350 514c134 0 244 -115 244 -264s-110 -264 -244 -264c-73 0 -126 27 -162 72v-258h-129v700h129v-58c36 45 89 72 162 72zM326 109c80 0 139 57 139 141s-59 141 -139 141c-76 0 -134 -53 -138 -132v-18c4 -79 62 -132 138 -132z" />
    <glyph glyph-name="uni0441" unicode="&#x441;" horiz-adv-x="566" 
d="M547 183c-23 -115 -126 -197 -250 -197c-152 0 -264 115 -264 264s112 264 264 264c124 0 227 -82 250 -196h-136c-18 42 -61 69 -114 69c-76 0 -135 -57 -135 -137c0 -79 59 -136 135 -136c53 0 97 26 114 69h136z" />
    <glyph glyph-name="uni0442" unicode="&#x442;" horiz-adv-x="423" 
d="M413 500v-121h-136v-379h-129v379h-138v121h267h136z" />
    <glyph glyph-name="uni0443" unicode="&#x443;" horiz-adv-x="495" 
d="M355 500h138l-170 -500c-48 -145 -144 -207 -264 -200v120c70 -1 106 24 129 88l-191 492h138l121 -329z" />
    <glyph glyph-name="uni045E" unicode="&#x45e;" horiz-adv-x="495" 
d="M390 676v-112h-290v112h290zM355 500h138l-170 -500c-48 -145 -144 -207 -264 -200v120c70 -1 106 24 129 88l-191 492h138l121 -329z" />
    <glyph glyph-name="uni0444" unicode="&#x444;" horiz-adv-x="685" 
d="M653 250c0 -131 -92 -236 -247 -258v-192h-126v192c-156 22 -247 127 -247 258s91 236 247 258v192h126v-192c155 -22 247 -127 247 -258zM160 250c0 -66 42 -117 120 -135v270c-78 -18 -120 -69 -120 -135zM406 115c77 18 119 69 119 135s-42 117 -119 135v-270z" />
    <glyph glyph-name="uni0445" unicode="&#x445;" horiz-adv-x="473" 
d="M468 0h-138l-94 147l-93 -147h-138l162 256l-154 244h138l85 -135l86 135h138l-155 -244z" />
    <glyph glyph-name="uni0447" unicode="&#x447;" horiz-adv-x="511" 
d="M324 500h129v-500h-129v159c-36 -12 -72 -18 -109 -18c-104 0 -180 58 -180 170v189h129v-174c0 -47 32 -65 74 -65c29 0 59 7 86 19v220z" />
    <glyph glyph-name="uni0446" unicode="&#x446;" horiz-adv-x="575" 
d="M469 121h84v-265h-126v144h-368v500h129v-379h152v379h129v-379z" />
    <glyph glyph-name="uni0448" unicode="&#x448;" horiz-adv-x="773" 
d="M585 500h129v-500h-129h-263h-220h-43v500h129v-379h134v379h129v-379h134v379z" />
    <glyph glyph-name="uni0449" unicode="&#x449;" horiz-adv-x="788" 
d="M699 121h66v-121v-144h-126v144h-196h-255h-129v500h129v-379h126v379h129v-379h127v379h129v-379z" />
    <glyph glyph-name="uni045F" unicode="&#x45f;" horiz-adv-x="545" 
d="M357 500h129v-500h-129h-21v-144h-126v144h-108h-43v500h129v-379h169v379z" />
    <glyph glyph-name="uni044C" unicode="&#x44c;" horiz-adv-x="496" 
d="M285 340c114 0 189 -68 189 -170s-75 -170 -189 -170h-195h-31v500h129v-160h97zM286 114c36 0 62 22 62 56s-26 57 -62 57h-98v-113h98z" />
    <glyph glyph-name="uni044A" unicode="&#x44a;" horiz-adv-x="574" 
d="M363 340c113 0 188 -68 188 -170s-75 -170 -188 -170h-196h-31v379h-136v121h180h85v-160h98zM363 114c36 0 62 22 62 56s-26 57 -62 57h-98v-113h98z" />
    <glyph glyph-name="uni044B" unicode="&#x44b;" horiz-adv-x="717" 
d="M285 340c114 0 189 -68 189 -170s-75 -170 -189 -170h-195h-31v500h129v-160h97zM529 500h129v-500h-129v500zM286 114c36 0 62 22 62 56s-26 57 -62 57h-98v-113h98z" />
    <glyph glyph-name="uni0459" unicode="&#x459;" horiz-adv-x="741" 
d="M540 328c105 0 179 -62 179 -164s-77 -164 -179 -164h-188h-31v376h-100v-167c0 -158 -76 -224 -211 -215v121c53 -7 82 23 82 101v284h129h182h47v-172h90zM541 114c27 0 52 16 52 50s-25 50 -52 50h-91v-100h91z" />
    <glyph glyph-name="uni045A" unicode="&#x45a;" horiz-adv-x="760" 
d="M559 328c104 0 178 -62 178 -164s-76 -164 -178 -164h-188h-31v207h-160v-207h-129v500h129v-172h160v172h129v-172h90zM559 114c28 0 52 16 52 50s-24 50 -52 50h-90v-100h90z" />
    <glyph glyph-name="uni0455" unicode="&#x455;" horiz-adv-x="480" 
d="M173 355c0 -87 269 -17 269 -210c0 -106 -92 -159 -202 -159s-202 56 -202 173h126c0 -39 29 -59 76 -59s73 16 73 45c0 86 -269 18 -269 210c0 105 92 159 196 159c100 0 192 -56 192 -173h-126c0 39 -29 59 -66 59c-41 0 -67 -16 -67 -45z" />
    <glyph glyph-name="uni0454" unicode="&#x454;" horiz-adv-x="561" 
d="M291 105c58 0 106 32 123 78h132c-23 -115 -126 -197 -251 -197c-151 0 -262 115 -262 264s111 264 262 264c125 0 228 -82 251 -196h-132c-18 46 -65 77 -123 77c-59 0 -105 -35 -124 -87h171v-116h-171c19 -52 65 -87 124 -87z" />
    <glyph glyph-name="uni044D" unicode="&#x44d;" horiz-adv-x="561" 
d="M266 514c151 0 263 -115 263 -264s-112 -264 -263 -264c-125 0 -228 82 -251 197h132c17 -46 65 -78 123 -78c59 0 105 35 124 87h-170v116h170c-19 52 -65 87 -124 87c-58 0 -105 -31 -123 -77h-132c23 114 126 196 251 196z" />
    <glyph glyph-name="uni0456" unicode="&#x456;" horiz-adv-x="247" 
d="M59 570v130h129v-130h-129zM59 0v500h129v-500h-129z" />
    <glyph glyph-name="uni0457" unicode="&#x457;" horiz-adv-x="247" 
d="M-28 561v118h118v-118h-118zM157 561v118h118v-118h-118zM59 0v500h129v-500h-129z" />
    <glyph glyph-name="uni0458" unicode="&#x458;" horiz-adv-x="264" 
d="M76 700h129v-130h-129v130zM76 -10v510h129v-510c0 -147 -70 -213 -218 -204v124c61 -4 89 19 89 80z" />
    <glyph glyph-name="uni045B" unicode="&#x45b;" horiz-adv-x="539" 
d="M330 514c93 0 163 -72 163 -194v-320h-129v310c0 57 -34 84 -80 84c-50 0 -90 -29 -90 -104v-290h-129v554h-62v84h62v62h129v-62h141v-84h-141v-105c28 42 74 65 136 65z" />
    <glyph glyph-name="uni044E" unicode="&#x44e;" horiz-adv-x="811" 
d="M514 514c147 0 265 -115 265 -264s-118 -264 -265 -264c-126 0 -228 85 -254 204h-72v-190h-129v500h129v-189h72c26 118 128 203 254 203zM514 112c77 0 136 57 136 138s-59 138 -136 138c-76 0 -135 -57 -135 -138s59 -138 135 -138z" />
    <glyph glyph-name="uni044F" unicode="&#x44f;" horiz-adv-x="519" 
d="M460 500v-500h-126v156h-52l-128 -156h-149l142 172c-64 29 -102 91 -102 156c0 89 68 172 181 172h234zM236 385c-37 0 -65 -23 -65 -61c0 -37 28 -59 65 -59h98v120h-98z" />
    <glyph glyph-name="uni0452" unicode="&#x452;" horiz-adv-x="533" 
d="M330 514c93 0 163 -72 163 -194v-330c0 -147 -71 -213 -218 -204v124c61 -4 89 19 89 80v320c0 57 -34 84 -80 84c-50 0 -90 -29 -90 -104v-290h-129v554h-62v84h62v62h129v-62h141v-84h-141v-105c28 42 74 65 136 65z" />
    <glyph glyph-name="uni0432.loclBGR" horiz-adv-x="566" 
d="M419 409c72 -30 115 -98 115 -195c0 -143 -88 -228 -238 -228c-144 0 -237 96 -237 243v238c0 148 89 247 227 247c115 0 195 -67 195 -174c0 -47 -20 -88 -62 -131zM286 593c-60 0 -98 -51 -98 -126v-58l47 10c21 4 41 6 61 8c45 35 59 66 59 98c0 40 -25 68 -69 68z
M296 111c69 0 109 38 109 103c0 79 -68 109 -170 88l-47 -10v-63c0 -73 42 -118 108 -118z" />
    <glyph glyph-name="uni0433.loclBGR" horiz-adv-x="455" 
d="M304 159h126c0 -117 -92 -173 -201 -173c-113 0 -204 49 -204 157c0 193 268 127 267 212c0 31 -25 45 -64 45c-38 0 -69 -20 -69 -60h-126c0 117 93 174 195 174c101 0 193 -52 193 -159c0 -190 -268 -127 -267 -212c0 -30 24 -43 75 -43c45 0 75 20 75 59z" />
    <glyph glyph-name="uni0434.loclBGR" horiz-adv-x="623" 
d="M442 500h126v-476c0 -164 -131 -238 -256 -238c-129 0 -249 70 -249 200h129c0 -44 42 -85 120 -85c81 0 130 44 130 123v53c-36 -47 -91 -75 -166 -75c-133 0 -243 114 -243 256c0 141 110 256 243 256c75 0 130 -29 166 -76v62zM302 121c81 0 140 57 140 137
c0 79 -59 136 -140 136s-140 -57 -140 -136c0 -80 59 -137 140 -137z" />
    <glyph glyph-name="uni0436.loclBGR" horiz-adv-x="746" 
d="M734 0h-145l-153 223v-223h-126v223l-153 -223h-144l180 253l-170 247h144l143 -216v416h126v-416l143 216h145l-171 -247z" />
    <glyph glyph-name="uni0438.loclBGR" horiz-adv-x="533" 
d="M345 500h129v-500h-129v52c-28 -43 -74 -66 -136 -66c-93 0 -163 72 -163 195v319h129v-310c0 -57 34 -84 79 -84c51 0 91 29 91 105v289z" />
    <glyph glyph-name="uni0439.loclBGR" horiz-adv-x="533" 
d="M415 676v-112h-290v112h290zM345 500h129v-500h-129v52c-28 -43 -74 -66 -136 -66c-93 0 -163 72 -163 195v319h129v-310c0 -57 34 -84 79 -84c51 0 91 29 91 105v289z" />
    <glyph glyph-name="uni043A.loclBGR" horiz-adv-x="517" 
d="M512 0h-149l-175 226v-226h-129v700h129v-420l165 220h149l-190 -247z" />
    <glyph glyph-name="uni043B.loclBGR" horiz-adv-x="500" 
d="M498 0h-138l-110 341l-110 -341h-137l181 500h118h14z" />
    <glyph glyph-name="uni043F.loclBGR" horiz-adv-x="532" 
d="M324 514c93 0 162 -72 162 -194v-320h-129v310c0 57 -34 84 -79 84c-51 0 -90 -29 -90 -104v-290h-129v500h129v-51c28 42 74 65 136 65z" />
    <glyph glyph-name="uni0442.loclBGR" horiz-adv-x="767" 
d="M566 514c94 0 155 -62 155 -177v-337h-129v327c0 50 -29 67 -63 67c-35 0 -74 -19 -74 -84v-310h-129v327c0 50 -30 67 -64 67c-35 0 -74 -19 -74 -84v-310h-129v500h129v-49c27 41 69 63 120 63s94 -23 120 -66c34 42 79 66 138 66z" />
    <glyph glyph-name="uni0446.loclBGR" horiz-adv-x="571" 
d="M505 121h44v-121v-144h-126v154c-24 9 -42 23 -56 43c-33 -44 -82 -67 -147 -67c-101 0 -174 72 -174 195v319h129v-310c0 -57 34 -84 79 -84c51 0 91 29 91 105v289h129v-347c0 -20 12 -32 31 -32z" />
    <glyph glyph-name="uni0448.loclBGR" horiz-adv-x="768" 
d="M580 500h129v-500h-129v49c-27 -41 -70 -63 -120 -63c-52 0 -95 23 -121 67c-34 -44 -79 -67 -137 -67c-95 0 -156 62 -156 177v337h129v-327c0 -50 30 -67 64 -67c35 0 74 19 74 85v309h129v-327c0 -50 29 -67 64 -67s74 19 74 85v309z" />
    <glyph glyph-name="uni0449.loclBGR" horiz-adv-x="806" 
d="M740 121h44v-121v-144h-126v154c-24 9 -43 24 -56 44c-33 -44 -83 -68 -142 -68c-52 0 -95 23 -121 66c-34 -42 -79 -66 -137 -66c-95 0 -156 62 -156 177v337h129v-327c0 -50 30 -67 64 -67c35 0 74 19 74 85v309h129v-327c0 -50 29 -67 64 -67s74 19 74 85v309h129
v-347c0 -20 12 -32 31 -32z" />
    <glyph glyph-name="uni044C.loclBGR" horiz-adv-x="489" 
d="M264 361c132 0 202 -69 202 -182c0 -108 -84 -193 -210 -193c-132 0 -210 80 -210 200v314h126v-139h92zM256 108c50 0 84 37 84 72c0 39 -26 67 -76 67h-92v-61c0 -44 32 -78 84 -78z" />
    <glyph glyph-name="uni044A.loclBGR" horiz-adv-x="579" 
d="M354 361c132 0 202 -69 202 -182c0 -108 -84 -193 -210 -193c-132 0 -210 80 -210 200v193h-136v121h180h82v-139h92zM346 108c50 0 84 37 84 72c0 39 -26 67 -76 67h-92v-61c0 -44 32 -78 84 -78z" />
    <glyph glyph-name="uni044E.loclBGR" horiz-adv-x="811" 
d="M514 514c147 0 265 -115 265 -264s-118 -264 -265 -264c-126 0 -228 85 -254 204h-72v-190h-129v700h129v-389h72c26 118 128 203 254 203zM514 112c77 0 136 57 136 138s-59 138 -136 138c-76 0 -135 -57 -135 -138s59 -138 135 -138z" />
    <glyph glyph-name="uni0430.ss01" horiz-adv-x="626" 
d="M439 500h129v-500h-129v59c-36 -45 -90 -73 -163 -73c-133 0 -243 115 -243 264s110 264 243 264c73 0 127 -28 163 -73v59zM300 109c80 0 139 57 139 141s-59 141 -139 141c-79 0 -138 -57 -138 -141s59 -141 138 -141z" />
    <glyph glyph-name="uni0443.ss01" horiz-adv-x="532" 
d="M345 500h129v-518c0 -137 -96 -196 -207 -196c-110 0 -203 59 -203 169h126c0 -36 29 -57 76 -57c48 0 79 24 79 84v69c-28 -42 -74 -65 -136 -65c-93 0 -163 72 -163 195v319h129v-310c0 -57 34 -84 79 -84c51 0 91 29 91 105v289z" />
    <glyph glyph-name="uni0394" unicode="&#x394;" horiz-adv-x="653" 
d="M412 700l238 -700h-150h-375h-122l238 700h171zM193 129h266l-133 418z" />
    <glyph glyph-name="uni03A9" unicode="&#x3a9;" horiz-adv-x="777" 
d="M752 365c0 -94 -41 -176 -107 -233h94v-132h-277v132c90 29 153 111 153 218c0 135 -99 230 -226 230s-226 -95 -226 -230c0 -107 62 -189 152 -218v-132h-276v132h93c-66 57 -107 139 -107 233c0 197 162 349 364 349c201 0 363 -152 363 -349z" />
    <glyph glyph-name="pi" unicode="&#x3c0;" horiz-adv-x="635" 
d="M613 500v-121h-80v-379h-129v379h-169v-379h-129v379h-83v121h212h298h80z" />
    <glyph glyph-name="zero" unicode="0" horiz-adv-x="630" 
d="M315 -14c-178 0 -280 148 -280 364s102 364 280 364c179 0 280 -148 280 -364s-101 -364 -280 -364zM315 121c94 0 143 81 143 229s-49 230 -143 230s-142 -82 -142 -230s48 -229 142 -229z" />
    <glyph glyph-name="one" unicode="1" horiz-adv-x="385" 
d="M175 700h138v-700h-138v562l-164 -91v139z" />
    <glyph glyph-name="two" unicode="2" horiz-adv-x="533" 
d="M33 0v103l237 240c44 44 82 96 82 146c0 59 -35 91 -87 91c-57 0 -95 -29 -95 -94h-137c0 158 113 228 229 228c114 0 228 -71 228 -225c0 -80 -50 -159 -111 -219l-141 -137h263v-133h-468z" />
    <glyph glyph-name="three" unicode="3" horiz-adv-x="545" 
d="M351 416c92 -27 162 -97 162 -200c0 -150 -118 -230 -250 -230s-250 80 -250 230h137c0 -57 40 -95 113 -95c72 0 112 38 112 95c0 56 -40 95 -112 95h-75v91l127 169h-275v129h440v-114z" />
    <glyph glyph-name="four" unicode="4" horiz-adv-x="585" 
d="M574 247v-128h-75v-119h-139v119h-339v128l233 453h148l-232 -453h190v166h139v-166h75z" />
    <glyph glyph-name="five" unicode="5" horiz-adv-x="558" 
d="M286 445c132 0 243 -79 243 -229s-118 -230 -250 -230s-250 80 -250 230h137c0 -57 41 -95 113 -95s112 38 112 95c0 56 -40 95 -112 95h-218l28 389h407v-129h-279l-9 -126h78z" />
    <glyph glyph-name="six" unicode="6" horiz-adv-x="553" 
d="M284 472c145 -3 246 -102 246 -242c0 -143 -104 -244 -254 -244s-253 101 -253 244c0 54 14 102 41 141l218 329h158zM276 116c65 0 117 43 117 114c0 70 -52 113 -117 113s-116 -42 -116 -113s51 -114 116 -114z" />
    <glyph glyph-name="seven" unicode="7" horiz-adv-x="490" 
d="M13 700h452v-117l-237 -583h-146l231 568h-300v132z" />
    <glyph glyph-name="eight" unicode="8" horiz-adv-x="568" 
d="M438 364c62 -37 97 -97 97 -169c0 -129 -96 -209 -251 -209c-156 0 -251 80 -251 209c0 72 34 132 97 169c-45 32 -74 80 -74 145c0 135 105 205 228 205s227 -70 227 -205c0 -65 -28 -113 -73 -145zM284 584c-52 0 -90 -30 -90 -82c0 -51 38 -83 90 -83s90 32 90 83
c0 52 -38 82 -90 82zM284 116c66 0 114 34 114 97c0 62 -48 96 -114 96s-114 -34 -114 -96c0 -63 48 -97 114 -97z" />
    <glyph glyph-name="nine" unicode="9" horiz-adv-x="553" 
d="M530 471c0 -55 -15 -103 -42 -142h1l-218 -329h-158l155 228c-145 3 -245 102 -245 243c0 143 104 243 253 243c151 0 254 -100 254 -243zM160 471c0 -71 52 -114 116 -114c66 0 117 43 117 114s-51 113 -117 113c-64 0 -116 -43 -116 -113z" />
    <glyph glyph-name="zero.sinf" horiz-adv-x="409" 
d="M204 -174c-111 0 -181 83 -181 214s70 214 181 214s182 -83 182 -214s-71 -214 -182 -214zM204 -67c46 0 72 38 72 107s-26 107 -72 107c-45 0 -71 -38 -71 -107s26 -107 71 -107z" />
    <glyph glyph-name="one.sinf" horiz-adv-x="267" 
d="M112 240h107v-400h-107v292l-99 -53v107z" />
    <glyph glyph-name="two.sinf" horiz-adv-x="356" 
d="M30 -160v70l151 149c22 22 34 42 34 62c0 21 -14 35 -38 35c-26 0 -43 -13 -43 -44h-108c0 95 69 142 151 142c83 0 146 -45 146 -131c0 -45 -30 -87 -68 -124l-65 -62h140v-97h-300z" />
    <glyph glyph-name="three.sinf" horiz-adv-x="348" 
d="M235 75c56 -17 89 -58 89 -114c0 -87 -60 -135 -155 -135c-96 0 -155 48 -155 135h108c0 -26 16 -41 47 -41s47 15 47 41c0 25 -17 40 -47 40h-60v61l66 81h-145v97h275v-79z" />
    <glyph glyph-name="four.sinf" horiz-adv-x="357" 
d="M341 2v-98h-41v-64h-102v64h-187v98l129 238h114l-124 -238h68v69h102v-69h41z" />
    <glyph glyph-name="five.sinf" horiz-adv-x="334" 
d="M169 89c84 0 143 -41 143 -132c0 -87 -63 -131 -147 -131s-147 44 -147 133h98c0 -24 17 -41 49 -41s48 17 48 41c0 25 -18 43 -48 43h-133l16 238h244v-97h-149l-4 -54h30z" />
    <glyph glyph-name="six.sinf" horiz-adv-x="340" 
d="M185 110c84 -6 139 -63 139 -141c0 -83 -61 -143 -154 -143c-92 0 -154 60 -154 143c0 27 7 52 19 73l125 198h110zM170 -84c33 0 55 19 55 53c0 33 -22 51 -55 51c-32 0 -54 -18 -54 -51c0 -34 22 -53 54 -53z" />
    <glyph glyph-name="seven.sinf" horiz-adv-x="295" 
d="M3 240h276v-82l-126 -318h-111l121 303h-160v97z" />
    <glyph glyph-name="eight.sinf" horiz-adv-x="349" 
d="M270 50c38 -22 58 -58 58 -101c0 -74 -56 -123 -153 -123s-154 49 -154 123c0 43 21 79 59 101c-28 19 -45 48 -45 84c0 75 61 120 140 120s140 -45 140 -120c0 -36 -18 -65 -45 -84zM175 163c-30 0 -48 -13 -48 -38s18 -39 48 -39c27 0 48 14 48 39s-21 38 -48 38z
M175 -82c33 0 52 18 52 46c0 27 -20 45 -52 45c-34 0 -53 -18 -53 -45c0 -28 19 -46 53 -46z" />
    <glyph glyph-name="nine.sinf" horiz-adv-x="340" 
d="M324 111c0 -27 -7 -52 -19 -73l-124 -198h-111l85 130c-84 6 -139 63 -139 141c0 83 62 143 154 143c93 0 154 -60 154 -143zM116 111c0 -33 22 -51 54 -51c33 0 55 18 55 51c0 34 -22 53 -55 53c-32 0 -54 -19 -54 -53z" />
    <glyph glyph-name="zero.tf" horiz-adv-x="578" 
d="M289 -14c-179 0 -280 148 -280 364s101 364 280 364c178 0 280 -148 280 -364s-102 -364 -280 -364zM289 121c94 0 142 81 142 229s-48 230 -142 230s-143 -82 -143 -230s49 -229 143 -229z" />
    <glyph glyph-name="one.tf" horiz-adv-x="578" 
d="M376 132h183v-132h-320h-210v132h210v430l-170 -95v135l170 98h137v-568z" />
    <glyph glyph-name="two.tf" horiz-adv-x="578" 
d="M38 0v103l255 231c51 46 100 94 100 146c0 59 -40 100 -105 100c-66 0 -113 -38 -113 -103h-137c0 159 130 237 247 237c120 0 245 -80 245 -234c0 -82 -58 -162 -143 -231l-144 -116h298v-133h-503z" />
    <glyph glyph-name="three.tf" horiz-adv-x="578" 
d="M382 424c98 -27 169 -95 169 -204c0 -151 -121 -234 -266 -234c-144 0 -266 83 -266 234h137c0 -61 44 -99 129 -99s129 38 129 99c0 60 -44 99 -129 99h-75v91l137 161h-300v129h472v-114z" />
    <glyph glyph-name="four.tf" horiz-adv-x="578" 
d="M561 247v-128h-75v-119h-139v119h-338v128l232 453h148l-232 -453h190v161h139v-161h75z" />
    <glyph glyph-name="five.tf" horiz-adv-x="578" 
d="M296 445c142 0 253 -79 253 -229s-118 -230 -260 -230s-260 80 -260 230h137c0 -57 41 -95 123 -95s122 38 122 95c0 56 -40 95 -122 95h-228l28 389h427v-129h-299l-9 -126h88z" />
    <glyph glyph-name="six.tf" horiz-adv-x="578" 
d="M291 480c163 -2 265 -101 265 -247s-104 -247 -270 -247s-270 101 -270 247c0 58 16 109 46 149l229 318h159zM286 116c81 0 133 43 133 117s-52 118 -133 118s-132 -43 -132 -118c0 -74 51 -117 132 -117z" />
    <glyph glyph-name="seven.tf" horiz-adv-x="578" 
d="M25 700h520v-117l-265 -583h-145l256 568h-366v132z" />
    <glyph glyph-name="eight.tf" horiz-adv-x="578" 
d="M456 364c66 -37 103 -98 103 -169c0 -128 -102 -209 -270 -209s-270 81 -270 209c0 71 36 132 102 169c-48 32 -78 80 -78 145c0 134 110 205 246 205c135 0 246 -71 246 -205c0 -65 -30 -113 -79 -145zM289 584c-68 0 -109 -31 -109 -82c0 -50 41 -83 109 -83
s109 33 109 83c0 51 -41 82 -109 82zM289 116c86 0 133 36 133 97s-47 96 -133 96s-133 -35 -133 -96s47 -97 133 -97z" />
    <glyph glyph-name="nine.tf" horiz-adv-x="578" 
d="M561 467c0 -58 -16 -109 -46 -149l-228 -318h-159l159 220c-163 2 -266 101 -266 247c0 147 105 247 270 247c167 0 270 -100 270 -247zM159 467c0 -74 52 -117 132 -117c82 0 133 42 133 117s-51 117 -133 117c-80 0 -132 -43 -132 -117z" />
    <glyph glyph-name="fraction" unicode="&#x2044;" horiz-adv-x="190" 
d="M-60 0h-90l400 700h90z" />
    <glyph glyph-name="onehalf" unicode="&#xbd;" horiz-adv-x="813" 
d="M219 300h-107v292l-99 -53v107l99 54h107v-400zM517 700h90l-400 -700h-90zM647 98h140v-98h-300v71l151 148c22 22 34 42 34 62c0 21 -14 35 -38 35c-26 0 -43 -13 -43 -44h-108c0 95 69 142 151 142c83 0 146 -45 146 -131c0 -45 -30 -87 -68 -124z" />
    <glyph glyph-name="onequarter" unicode="&#xbc;" horiz-adv-x="814" 
d="M219 300h-107v292l-99 -53v107l99 54h107v-400zM517 700h90l-400 -700h-90zM798 162v-97h-41v-65h-102v65h-187v97l129 238h114l-123 -238h67v69h102v-69h41z" />
    <glyph glyph-name="threequarters" unicode="&#xbe;" horiz-adv-x="895" 
d="M324 421c0 -87 -60 -134 -155 -134c-96 0 -155 47 -155 134h108c0 -25 16 -41 47 -41s47 16 47 41s-17 40 -47 40h-60v61l67 81h-146v97h275v-79l-70 -86c56 -17 89 -57 89 -114zM598 700h90l-400 -700h-90zM879 162v-97h-41v-65h-102v65h-187v97l129 238h114l-123 -238
h67v69h102v-69h41z" />
    <glyph glyph-name="oneeighth" unicode="&#x215b;" horiz-adv-x="807" 
d="M219 300h-107v292l-99 -53v107l99 54h107v-400zM517 700h90l-400 -700h-90zM727 210c38 -22 58 -59 58 -101c0 -74 -56 -123 -153 -123s-154 49 -154 123c0 42 21 79 59 101c-28 19 -45 48 -45 84c0 75 61 120 140 120s140 -45 140 -120c0 -36 -17 -65 -45 -84zM632 323
c-30 0 -48 -13 -48 -38s18 -39 48 -39c27 0 48 14 48 39s-21 38 -48 38zM632 78c33 0 52 18 52 46c0 27 -20 45 -52 45c-34 0 -53 -18 -53 -45c0 -28 19 -46 53 -46z" />
    <glyph glyph-name="threeeighths" unicode="&#x215c;" horiz-adv-x="887" 
d="M324 421c0 -87 -60 -134 -155 -134c-96 0 -155 47 -155 134h108c0 -25 16 -41 47 -41s47 16 47 41s-17 40 -47 40h-60v61l67 81h-146v97h275v-79l-70 -86c56 -17 89 -57 89 -114zM598 700h90l-400 -700h-90zM808 210c38 -22 58 -59 58 -101c0 -74 -56 -123 -153 -123
s-154 49 -154 123c0 42 21 79 59 101c-28 19 -45 48 -45 84c0 75 61 120 140 120s140 -45 140 -120c0 -36 -17 -65 -45 -84zM713 323c-30 0 -48 -13 -48 -38s18 -39 48 -39c27 0 48 14 48 39s-21 38 -48 38zM713 78c33 0 52 18 52 46c0 27 -20 45 -52 45
c-34 0 -53 -18 -53 -45c0 -28 19 -46 53 -46z" />
    <glyph glyph-name="fiveeighths" unicode="&#x215d;" horiz-adv-x="874" 
d="M311 417c0 -87 -63 -130 -147 -130s-147 43 -147 132h98c0 -23 17 -41 49 -41s48 18 48 41c0 26 -18 43 -48 43h-133l16 238h244v-97h-149l-4 -54h30c84 0 143 -41 143 -132zM584 700h90l-400 -700h-90zM794 210c38 -22 58 -59 58 -101c0 -74 -56 -123 -153 -123
s-154 49 -154 123c0 42 21 79 59 101c-28 19 -45 48 -45 84c0 75 61 120 140 120s140 -45 140 -120c0 -36 -17 -65 -45 -84zM699 323c-30 0 -48 -13 -48 -38s18 -39 48 -39c27 0 48 14 48 39s-21 38 -48 38zM699 78c33 0 52 18 52 46c0 27 -20 45 -52 45
c-34 0 -53 -18 -53 -45c0 -28 19 -46 53 -46z" />
    <glyph glyph-name="seveneighths" unicode="&#x215e;" horiz-adv-x="835" 
d="M153 300h-111l121 303h-160v97h276v-82zM545 700h90l-400 -700h-90zM755 210c38 -22 58 -59 58 -101c0 -74 -56 -123 -153 -123s-154 49 -154 123c0 42 21 79 59 101c-28 19 -45 48 -45 84c0 75 61 120 140 120s140 -45 140 -120c0 -36 -17 -65 -45 -84zM660 323
c-30 0 -48 -13 -48 -38s18 -39 48 -39c27 0 48 14 48 39s-21 38 -48 38zM660 78c33 0 52 18 52 46c0 27 -20 45 -52 45c-34 0 -53 -18 -53 -45c0 -28 19 -46 53 -46z" />
    <glyph glyph-name="zero.dnom" horiz-adv-x="409" 
d="M204 -14c-111 0 -181 83 -181 214s70 214 181 214s182 -83 182 -214s-71 -214 -182 -214zM204 93c46 0 72 38 72 107s-26 107 -72 107c-45 0 -71 -38 -71 -107s26 -107 71 -107z" />
    <glyph glyph-name="one.dnom" horiz-adv-x="267" 
d="M112 400h107v-400h-107v292l-99 -53v107z" />
    <glyph glyph-name="two.dnom" horiz-adv-x="356" 
d="M30 0v71l151 148c22 22 34 42 34 62c0 21 -14 35 -38 35c-26 0 -43 -13 -43 -44h-108c0 95 69 142 151 142c83 0 146 -45 146 -131c0 -45 -30 -87 -68 -124l-65 -61h140v-98h-300z" />
    <glyph glyph-name="three.dnom" horiz-adv-x="348" 
d="M235 235c56 -17 89 -57 89 -114c0 -87 -60 -135 -155 -135c-96 0 -155 48 -155 135h108c0 -25 16 -41 47 -41s47 16 47 41s-17 40 -47 40h-60v61l67 81h-146v97h275v-79z" />
    <glyph glyph-name="four.dnom" horiz-adv-x="357" 
d="M341 162v-97h-41v-65h-102v65h-187v97l129 238h114l-123 -238h67v69h102v-69h41z" />
    <glyph glyph-name="five.dnom" horiz-adv-x="334" 
d="M168 249c83 0 143 -41 143 -132c0 -87 -63 -131 -147 -131s-148 44 -148 133h99c0 -23 17 -41 49 -41s48 18 48 41c0 26 -18 43 -48 43h-133l16 238h244v-97h-149l-4 -54h30z" />
    <glyph glyph-name="six.dnom" horiz-adv-x="340" 
d="M185 270c84 -6 139 -63 139 -141c0 -83 -61 -143 -154 -143c-92 0 -154 60 -154 143c0 27 7 52 19 73l125 198h110zM170 77c33 0 55 19 55 52s-22 51 -55 51c-32 0 -54 -18 -54 -51s22 -52 54 -52z" />
    <glyph glyph-name="seven.dnom" horiz-adv-x="295" 
d="M3 400h276v-82l-126 -318h-111l121 303h-160v97z" />
    <glyph glyph-name="eight.dnom" horiz-adv-x="349" 
d="M270 210c38 -22 58 -59 58 -101c0 -74 -56 -123 -153 -123s-154 49 -154 123c0 42 21 79 59 101c-28 19 -45 48 -45 84c0 75 61 120 140 120s140 -45 140 -120c0 -36 -17 -65 -45 -84zM175 323c-30 0 -48 -13 -48 -38s18 -39 48 -39c27 0 48 14 48 39s-21 38 -48 38z
M175 78c33 0 52 18 52 46c0 27 -20 45 -52 45c-34 0 -53 -18 -53 -45c0 -28 19 -46 53 -46z" />
    <glyph glyph-name="nine.dnom" horiz-adv-x="340" 
d="M324 271c0 -27 -7 -52 -19 -73l-124 -198h-111l85 130c-84 6 -139 64 -139 141c0 83 62 143 154 143c93 0 154 -60 154 -143zM116 271c0 -33 22 -51 54 -51c33 0 55 18 55 51c0 34 -22 53 -55 53c-32 0 -54 -19 -54 -53z" />
    <glyph glyph-name="zero.numr" horiz-adv-x="409" 
d="M204 287c-111 0 -181 82 -181 213s70 214 181 214s182 -83 182 -214s-71 -213 -182 -213zM204 393c46 0 72 38 72 107s-26 107 -72 107c-45 0 -71 -38 -71 -107s26 -107 71 -107z" />
    <glyph glyph-name="one.numr" horiz-adv-x="267" 
d="M112 700h107v-400h-107v292l-99 -53v107z" />
    <glyph glyph-name="two.numr" horiz-adv-x="356" 
d="M30 300v71l151 148c22 22 34 42 34 62c0 21 -14 35 -38 35c-26 0 -43 -13 -43 -44h-108c0 95 69 142 151 142c83 0 146 -45 146 -131c0 -45 -30 -87 -68 -124l-65 -61h140v-98h-300z" />
    <glyph glyph-name="three.numr" horiz-adv-x="348" 
d="M235 535c56 -17 89 -57 89 -114c0 -87 -60 -134 -155 -134c-96 0 -155 47 -155 134h108c0 -25 16 -41 47 -41s47 16 47 41s-17 40 -47 40h-60v61l67 81h-146v97h275v-79z" />
    <glyph glyph-name="four.numr" horiz-adv-x="357" 
d="M341 462v-97h-41v-65h-102v65h-187v97l129 238h114l-123 -238h67v69h102v-69h41z" />
    <glyph glyph-name="five.numr" horiz-adv-x="334" 
d="M168 549c83 0 143 -41 143 -132c0 -87 -63 -130 -147 -130s-148 43 -148 132h99c0 -23 17 -41 49 -41s48 18 48 41c0 26 -18 43 -48 43h-133l16 238h244v-97h-149l-4 -54h30z" />
    <glyph glyph-name="six.numr" horiz-adv-x="340" 
d="M185 570c84 -6 139 -63 139 -141c0 -83 -61 -142 -154 -142c-92 0 -154 59 -154 142c0 27 7 52 19 73l125 198h110zM170 377c33 0 55 19 55 52s-22 51 -55 51c-32 0 -54 -18 -54 -51s22 -52 54 -52z" />
    <glyph glyph-name="seven.numr" horiz-adv-x="295" 
d="M3 700h276v-82l-126 -318h-111l121 303h-160v97z" />
    <glyph glyph-name="eight.numr" horiz-adv-x="349" 
d="M270 510c38 -22 58 -59 58 -101c0 -74 -56 -122 -153 -122s-154 48 -154 122c0 42 21 79 59 101c-28 19 -45 48 -45 84c0 75 61 120 140 120s140 -45 140 -120c0 -36 -17 -65 -45 -84zM175 623c-30 0 -48 -13 -48 -38s18 -39 48 -39c27 0 48 14 48 39s-21 38 -48 38z
M175 378c33 0 52 18 52 46c0 27 -20 45 -52 45c-34 0 -53 -18 -53 -45c0 -28 19 -46 53 -46z" />
    <glyph glyph-name="nine.numr" horiz-adv-x="340" 
d="M324 571c0 -27 -7 -52 -19 -73l-124 -198h-111l85 130c-84 6 -139 64 -139 141c0 83 62 143 154 143c93 0 154 -60 154 -143zM116 571c0 -33 22 -51 54 -51c33 0 55 18 55 51c0 34 -22 53 -55 53c-32 0 -54 -19 -54 -53z" />
    <glyph glyph-name="zero.sups" horiz-adv-x="409" 
d="M204 447c-111 0 -181 82 -181 213s70 214 181 214s182 -83 182 -214s-71 -213 -182 -213zM204 553c46 0 72 38 72 107s-26 107 -72 107c-45 0 -71 -38 -71 -107s26 -107 71 -107z" />
    <glyph glyph-name="one.sups" horiz-adv-x="267" 
d="M112 860h107v-400h-107v292l-99 -53v107z" />
    <glyph glyph-name="two.sups" horiz-adv-x="356" 
d="M30 460v71l151 148c22 22 34 42 34 62c0 21 -14 35 -38 35c-26 0 -43 -13 -43 -44h-108c0 95 69 142 151 142c83 0 146 -45 146 -131c0 -45 -30 -87 -68 -124l-65 -61h140v-98h-300z" />
    <glyph glyph-name="three.sups" horiz-adv-x="348" 
d="M235 695c56 -17 89 -57 89 -114c0 -87 -60 -134 -155 -134c-96 0 -155 47 -155 134h108c0 -25 16 -41 47 -41s47 16 47 41s-17 40 -47 40h-60v61l67 81h-146v97h275v-79z" />
    <glyph glyph-name="four.sups" horiz-adv-x="357" 
d="M341 622v-97h-41v-65h-102v65h-187v97l129 238h114l-123 -238h67v69h102v-69h41z" />
    <glyph glyph-name="five.sups" horiz-adv-x="334" 
d="M168 709c83 0 143 -41 143 -132c0 -87 -63 -130 -147 -130s-148 43 -148 132h99c0 -23 17 -41 49 -41s48 18 48 41c0 26 -18 43 -48 43h-133l16 238h244v-97h-149l-4 -54h30z" />
    <glyph glyph-name="six.sups" horiz-adv-x="340" 
d="M185 730c84 -6 139 -63 139 -141c0 -83 -61 -142 -154 -142c-92 0 -154 59 -154 142c0 27 7 52 19 73l125 198h110zM170 537c33 0 55 19 55 52s-22 51 -55 51c-32 0 -54 -18 -54 -51s22 -52 54 -52z" />
    <glyph glyph-name="seven.sups" horiz-adv-x="295" 
d="M3 860h276v-82l-126 -318h-111l121 303h-160v97z" />
    <glyph glyph-name="eight.sups" horiz-adv-x="349" 
d="M270 670c38 -22 58 -59 58 -101c0 -74 -56 -122 -153 -122s-154 48 -154 122c0 42 21 79 59 101c-28 19 -45 48 -45 84c0 75 61 120 140 120s140 -45 140 -120c0 -36 -17 -65 -45 -84zM175 783c-30 0 -48 -13 -48 -38s18 -39 48 -39c27 0 48 14 48 39s-21 38 -48 38z
M175 538c33 0 52 18 52 46c0 27 -20 45 -52 45c-34 0 -53 -18 -53 -45c0 -28 19 -46 53 -46z" />
    <glyph glyph-name="nine.sups" horiz-adv-x="340" 
d="M324 731c0 -27 -7 -52 -19 -73l-124 -198h-111l85 130c-84 6 -139 64 -139 141c0 83 62 143 154 143c93 0 154 -60 154 -143zM116 731c0 -33 22 -51 54 -51c33 0 55 18 55 51c0 34 -22 53 -55 53c-32 0 -54 -19 -54 -53z" />
    <glyph glyph-name="asterisk" unicode="*" horiz-adv-x="398" 
d="M346 609v-80l-91 7l55 -70l-68 -42l-43 84l-43 -84l-67 42l54 70l-90 -7v80l90 -8l-54 71l67 42l43 -84l43 84l68 -42l-55 -71z" />
    <glyph glyph-name="backslash" unicode="\" horiz-adv-x="523" 
d="M433 -100l-400 900h57l400 -900h-57z" />
    <glyph glyph-name="periodcentered" unicode="&#xb7;" 
d="M63 275v143h142v-143h-142z" />
    <glyph glyph-name="bullet" unicode="&#x2022;" horiz-adv-x="360" 
d="M182 213c-77 0 -139 62 -139 139c0 75 62 136 139 136c75 0 136 -61 136 -136c0 -77 -61 -139 -136 -139z" />
    <glyph glyph-name="colon" unicode=":" 
d="M63 358v142h142v-142h-142zM63 0v143h142v-143h-142z" />
    <glyph glyph-name="comma" unicode="," 
d="M63 143h142v-143c0 -84 -52 -137 -142 -139v58c45 2 66 23 66 81h-66v143z" />
    <glyph glyph-name="ellipsis" unicode="&#x2026;" horiz-adv-x="723" 
d="M290 0v143h143v-143h-143zM518 0v143h142v-143h-142zM63 0v143h142v-143h-142z" />
    <glyph glyph-name="exclam" unicode="!" 
d="M83 235l-27 265v200h155v-200l-26 -265h-102zM63 0v143h142v-143h-142z" />
    <glyph glyph-name="exclamdown" unicode="&#xa1;" 
d="M63 500h142v-142h-142v142zM83 265h102l26 -265v-200h-155v200z" />
    <glyph glyph-name="numbersign" unicode="#" horiz-adv-x="616" 
d="M577 395h-109l-15 -90h110l-16 -97h-110l-26 -158h-102l27 158h-102l-27 -158h-101l26 158h-109l16 97h109l15 90h-110l16 98h111l26 157h101l-26 -157h102l26 157h102l-26 -157h108zM352 305l15 90h-102l-15 -90h102z" />
    <glyph glyph-name="period" unicode="." 
d="M63 0v143h142v-143h-142z" />
    <glyph glyph-name="question" unicode="?" horiz-adv-x="554" 
d="M196 235c0 132 168 173 168 272c0 46 -33 73 -91 73c-61 0 -103 -31 -103 -92h-137c0 153 115 226 245 226c112 0 223 -68 223 -197c0 -150 -168 -194 -168 -282h-137zM193 0v143h143v-143h-143z" />
    <glyph glyph-name="questiondown" unicode="&#xbf;" horiz-adv-x="546" 
d="M353 500v-142h-142v142h142zM351 265c0 -132 -168 -173 -168 -272c0 -46 33 -73 90 -73c61 0 103 31 103 92h138c0 -153 -115 -226 -245 -226c-113 0 -224 68 -224 197c0 150 168 194 168 282h138z" />
    <glyph glyph-name="quotedbl" unicode="&#x22;" horiz-adv-x="378" 
d="M60 470l-17 230h122l-17 -230h-88zM230 470l-17 230h122l-17 -230h-88z" />
    <glyph glyph-name="quotesingle" unicode="'" horiz-adv-x="208" 
d="M60 470l-17 230h122l-17 -230h-88z" />
    <glyph glyph-name="semicolon" unicode=";" 
d="M63 500h142v-142h-142v142zM63 0v143h142v-143c0 -84 -52 -137 -142 -139v58c45 2 66 23 66 81h-66z" />
    <glyph glyph-name="slash" unicode="/" horiz-adv-x="523" 
d="M90 -100h-57l400 900h57z" />
    <glyph glyph-name="underscore" unicode="_" horiz-adv-x="520" 
d="M33 -171v124h455v-124h-455z" />
    <glyph glyph-name="braceleft" unicode="{" horiz-adv-x="351" 
d="M339 -107c-144 -10 -210 58 -210 186v148c0 58 -30 66 -79 62v125c49 -4 79 4 79 62v148c0 128 66 196 210 186v-124c-52 6 -81 -4 -81 -62v-148c0 -61 -20 -102 -60 -124c40 -23 60 -64 60 -125v-148c0 -58 29 -68 81 -62v-124z" />
    <glyph glyph-name="braceright" unicode="}" horiz-adv-x="351" 
d="M13 -107v124c51 -6 81 4 81 62v148c0 61 19 102 59 125c-40 22 -59 63 -59 124v148c0 58 -30 68 -81 62v124c143 10 210 -58 210 -186v-148c0 -58 29 -66 78 -62v-125c-49 4 -78 -4 -78 -62v-148c0 -128 -67 -196 -210 -186z" />
    <glyph glyph-name="bracketleft" unicode="[" horiz-adv-x="290" 
d="M290 676h-108v-652h108v-124h-182h-55v900h129h108v-124z" />
    <glyph glyph-name="bracketright" unicode="]" horiz-adv-x="290" 
d="M238 800v-900h-129h-109v124h109v652h-109v124h238z" />
    <glyph glyph-name="parenleft" unicode="(" horiz-adv-x="307" 
d="M163 -100c-70 140 -110 290 -110 450s40 310 110 450h129c-70 -140 -110 -290 -110 -450s40 -310 110 -450h-129z" />
    <glyph glyph-name="parenright" unicode=")" horiz-adv-x="307" 
d="M144 -100h-129c70 140 110 290 110 450s-40 310 -110 450h129c70 -140 110 -290 110 -450s-40 -310 -110 -450z" />
    <glyph glyph-name="emdash" unicode="&#x2014;" horiz-adv-x="745" 
d="M65 240v124h615v-124h-615z" />
    <glyph glyph-name="endash" unicode="&#x2013;" horiz-adv-x="645" 
d="M65 240v124h515v-124h-515z" />
    <glyph glyph-name="hyphen" unicode="-" horiz-adv-x="505" 
d="M65 240v124h375v-124h-375z" />
    <glyph glyph-name="guillemotleft" unicode="&#xab;" horiz-adv-x="545" 
d="M292 497l-110 -188l110 -187h-119l-110 187l110 188h119zM482 497l-110 -188l110 -187h-119l-110 187l110 188h119z" />
    <glyph glyph-name="guillemotright" unicode="&#xbb;" horiz-adv-x="545" 
d="M182 497l110 -188l-110 -187h-119l110 187l-110 188h119zM372 497l110 -188l-110 -187h-119l110 187l-110 188h119z" />
    <glyph glyph-name="guilsinglleft" unicode="&#x2039;" horiz-adv-x="355" 
d="M292 497l-110 -188l110 -187h-119l-110 187l110 188h119z" />
    <glyph glyph-name="guilsinglright" unicode="&#x203a;" horiz-adv-x="355" 
d="M182 497l110 -188l-110 -187h-119l110 187l-110 188h119z" />
    <glyph glyph-name="quotedblbase" unicode="&#x201e;" horiz-adv-x="453" 
d="M248 143h142v-143c0 -84 -52 -137 -142 -139v58c45 2 66 23 66 81h-66v143zM63 0v143h142v-143c0 -84 -52 -137 -142 -139v58c45 2 66 23 66 81h-66z" />
    <glyph glyph-name="quotedblleft" unicode="&#x201c;" horiz-adv-x="453" 
d="M63 567c0 84 52 137 142 139v-58c-45 -2 -66 -23 -66 -81h66v-143h-142v143zM390 648c-45 -2 -67 -23 -67 -81h67v-143h-142v143c0 84 52 137 142 139v-58z" />
    <glyph glyph-name="quotedblright" unicode="&#x201d;" horiz-adv-x="453" 
d="M248 701h142v-143c0 -84 -52 -137 -142 -139v58c45 2 66 23 66 81h-66v143zM63 558v142h142v-142c0 -85 -52 -137 -142 -139v58c45 2 66 23 66 81h-66z" />
    <glyph glyph-name="quoteleft" unicode="&#x2018;" 
d="M205 648c-45 -2 -67 -23 -67 -81h67v-143h-142v143c0 84 52 137 142 139v-58z" />
    <glyph glyph-name="quoteright" unicode="&#x2019;" 
d="M63 700h142v-142c0 -85 -52 -137 -142 -139v58c45 2 66 23 66 81h-66v142z" />
    <glyph glyph-name="quotesinglbase" unicode="&#x201a;" 
d="M63 143h142v-143c0 -84 -52 -137 -142 -139v58c45 2 66 23 66 81h-66v143z" />
    <glyph glyph-name="space" unicode=" " horiz-adv-x="250" 
 />
    <glyph glyph-name="cent" unicode="&#xa2;" horiz-adv-x="566" 
d="M297 214c53 0 97 26 114 69h136c-23 -115 -126 -196 -250 -196c-24 0 -47 3 -68 8l-31 -95h-57l36 114c-87 42 -144 130 -144 236c0 149 112 264 264 264c14 0 27 -1 41 -3l29 89h57l-33 -103c79 -29 139 -95 156 -179h-136c-11 26 -32 47 -59 58l-84 -259
c9 -2 19 -3 29 -3zM162 350c0 -48 22 -88 56 -111l80 248h-1c-76 0 -135 -57 -135 -137z" />
    <glyph glyph-name="currency" unicode="&#xa4;" horiz-adv-x="543" 
d="M486 350c0 -50 -17 -96 -45 -131l70 -70l-38 -38l-71 71c-36 -27 -81 -42 -130 -42c-50 0 -95 15 -131 41l-70 -70l-38 38l69 70c-28 35 -45 81 -45 131s17 96 45 131l-69 70l38 38l70 -70c36 26 81 42 131 42c49 0 94 -16 130 -42l71 70l38 -38l-70 -70
c28 -35 45 -81 45 -131zM272 262c51 0 87 37 87 88c0 52 -36 88 -87 88c-52 0 -87 -36 -87 -88c0 -51 35 -88 87 -88z" />
    <glyph glyph-name="dollar" unicode="$" horiz-adv-x="545" 
d="M520 190c0 -124 -98 -193 -213 -202v-88h-67v89c-119 12 -215 85 -215 227h138c0 -52 26 -82 77 -92v171c-96 34 -201 79 -201 217c0 122 93 189 201 200v88h67v-89c108 -12 202 -83 202 -223h-135c0 49 -24 78 -67 88v-170c98 -35 213 -77 213 -216zM176 512
c0 -37 26 -60 64 -79v144c-41 -8 -64 -33 -64 -65zM307 122c49 8 75 34 75 68c0 38 -30 61 -75 80v-148z" />
    <glyph glyph-name="Euro" unicode="&#x20ac;" horiz-adv-x="645" 
d="M483 249h139c-17 -160 -113 -263 -262 -263c-152 0 -248 107 -273 271h-69v78h62v15v24h-62v77h70c28 160 123 263 272 263c147 0 241 -100 260 -255h-139c-9 78 -53 121 -121 121c-70 0 -114 -45 -133 -129h206v-77h-215v-24v-15h215v-78h-207c17 -89 62 -136 134 -136
c70 0 115 45 123 128z" />
    <glyph glyph-name="florin" unicode="&#x192;" horiz-adv-x="441" 
d="M441 576c-43 21 -97 6 -108 -56l-18 -106h91v-124h-112l-56 -331c-25 -148 -123 -190 -238 -160v128c44 -20 98 -6 108 56l52 307h-84v124h105l23 131c25 148 123 190 237 160v-129z" />
    <glyph glyph-name="uni20BD" unicode="&#x20bd;" horiz-adv-x="601" 
d="M349 243h-124v-55h223v-88h-223v-100h-137v100h-75v88h75v55h-75v121h75v336h137h124c132 0 236 -104 236 -232c0 -129 -104 -225 -236 -225zM225 571v-207h124c56 0 99 46 99 104s-43 103 -99 103h-124z" />
    <glyph glyph-name="sterling" unicode="&#xa3;" horiz-adv-x="585" 
d="M243 133h327v-133h-537v133h73v124h-61v120h61v116c0 151 113 221 220 221c105 0 220 -70 220 -221v-43h-138v43c0 58 -38 87 -82 87c-46 0 -83 -29 -83 -87v-116h188v-120h-188v-124z" />
    <glyph glyph-name="yen" unicode="&#xa5;" horiz-adv-x="601" 
d="M599 700l-199 -338h131v-80h-162v-45h162v-81h-162v-156h-137v156h-161v81h161v45h-161v80h131l-199 338h156l142 -256l142 256h156z" />
    <glyph glyph-name="cent.tf" horiz-adv-x="578" 
d="M306 214c53 0 97 26 114 69h136c-23 -115 -126 -196 -250 -196c-24 0 -47 3 -68 8l-31 -95h-57l36 114c-87 42 -144 130 -144 236c0 149 112 264 264 264c14 0 27 -1 41 -3l29 89h57l-33 -103c79 -29 139 -95 156 -179h-136c-11 26 -32 47 -59 58l-84 -259
c9 -2 19 -3 29 -3zM171 350c0 -48 22 -88 56 -111l80 248h-1c-76 0 -135 -57 -135 -137z" />
    <glyph glyph-name="dollar.tf" horiz-adv-x="578" 
d="M545 194c0 -125 -99 -197 -221 -206v-88h-67v88c-127 12 -224 85 -224 228h137c0 -53 28 -84 87 -93v171c-104 34 -215 76 -215 214c0 124 97 195 215 204v88h67v-89c113 -13 206 -84 206 -223h-134c0 49 -25 78 -72 88v-169c106 -35 221 -73 221 -213zM180 508
c0 -38 32 -59 77 -77v147c-52 -8 -77 -36 -77 -70zM324 122c56 7 84 37 84 72c0 38 -36 59 -84 77v-149z" />
    <glyph glyph-name="Euro.tf" horiz-adv-x="578" 
d="M428 249h140c-15 -160 -111 -263 -251 -263c-143 0 -229 107 -251 271h-61v78h55v15v24h-55v77h62c24 160 110 263 250 263c137 0 232 -100 249 -255h-140c-6 78 -51 121 -109 121c-62 0 -98 -45 -112 -129h178v-77h-185c-1 -8 -1 -16 -1 -24v-15h186v-78h-180
c14 -89 50 -136 114 -136c60 0 106 45 111 128z" />
    <glyph glyph-name="florin.tf" horiz-adv-x="578" 
d="M555 576c-61 21 -109 4 -125 -56l-29 -106h122v-124h-156l-90 -331c-40 -146 -137 -190 -254 -160v128c61 -20 108 -4 124 56l84 307h-119v124h153l35 131c40 145 138 190 255 160v-129z" />
    <glyph glyph-name="uni20BD.tf" horiz-adv-x="578" 
d="M319 243h-96v-55h195v-88h-195v-100h-138v100h-75v88h75v55h-75v121h75v336h138h96c132 0 236 -104 236 -232c0 -129 -104 -225 -236 -225zM223 571v-207h96c56 0 99 46 99 104s-43 103 -99 103h-96z" />
    <glyph glyph-name="sterling.tf" horiz-adv-x="578" 
d="M218 133h335v-133h-545v133h73v124h-61v120h61v116c0 151 113 221 223 221s224 -70 224 -221v-43h-137v43c0 58 -38 87 -87 87s-86 -29 -86 -87v-116h196v-120h-196v-124z" />
    <glyph glyph-name="yen.tf" horiz-adv-x="578" 
d="M576 700l-191 -338h134v-80h-161v-45h161v-81h-161v-156h-138v156h-161v81h161v45h-161v80h134l-191 338h156l131 -252l131 252h156z" />
    <glyph glyph-name="approxequal" unicode="&#x2248;" horiz-adv-x="569" 
d="M289 379c-101 47 -129 32 -161 -2l-83 28c36 135 120 167 235 114c86 -40 122 -40 139 24l105 -51c-29 -126 -120 -168 -235 -113zM150 157l-105 51c29 127 120 168 235 113c101 -47 128 -31 161 2l83 -28c-36 -134 -119 -167 -235 -114c-86 40 -122 40 -139 -24z" />
    <glyph glyph-name="asciitilde" unicode="~" horiz-adv-x="599" 
d="M449 443l105 -51c-36 -134 -135 -169 -250 -113c-101 47 -129 47 -154 -24l-105 50c36 134 135 169 250 114c101 -48 128 -47 154 24z" />
    <glyph glyph-name="divide" unicode="&#xf7;" horiz-adv-x="565" 
d="M283 463c-46 0 -82 36 -82 82s36 81 82 81s81 -35 81 -81s-35 -82 -81 -82zM45 290v121h475v-121h-475zM283 74c-46 0 -82 36 -82 82s36 81 82 81s81 -35 81 -81s-35 -82 -81 -82z" />
    <glyph glyph-name="emptyset" unicode="&#x2205;" horiz-adv-x="804" 
d="M659 605c65 -66 105 -156 105 -255c0 -200 -162 -362 -362 -362c-70 0 -136 20 -192 55l-50 -63h-107l92 115c-65 66 -105 156 -105 255c0 200 162 362 362 362c70 0 136 -20 192 -55l50 63h108zM130 350c0 -72 27 -136 70 -185l338 423c-40 23 -86 36 -136 36
c-151 0 -272 -121 -272 -274zM402 76c152 0 272 122 272 274c0 72 -27 136 -70 185l-338 -423c40 -23 86 -36 136 -36z" />
    <glyph glyph-name="equal" unicode="=" horiz-adv-x="525" 
d="M45 393v121h435v-121h-435zM45 186v121h435v-121h-435z" />
    <glyph glyph-name="greater" unicode="&#x3e;" horiz-adv-x="528" 
d="M45 598l438 -190v-115l-438 -190v134l291 113l-291 114v134z" />
    <glyph glyph-name="greaterequal" unicode="&#x2265;" horiz-adv-x="528" 
d="M45 653l438 -167v-114l-438 -166v134l289 89l-289 90v134zM45 55v121h438v-121h-438z" />
    <glyph glyph-name="infinity" unicode="&#x221e;" horiz-adv-x="808" 
d="M575 525c103 0 181 -70 181 -175s-78 -175 -181 -175c-69 0 -127 42 -171 87c-45 -45 -103 -87 -171 -87c-104 0 -182 70 -182 175s78 175 182 175c68 0 126 -42 171 -87c44 45 102 87 171 87zM215 316c18 -14 45 -13 76 9c-2 22 -8 45 -16 59c-30 13 -56 10 -71 -9
c-14 -19 -10 -44 11 -59zM593 316c21 15 25 40 11 59c-15 19 -41 22 -71 9c-8 -14 -14 -37 -16 -59c31 -22 58 -23 76 -9z" />
    <glyph glyph-name="integral" unicode="&#x222b;" horiz-adv-x="441" 
d="M0 -204v129c44 -21 96 -6 107 56l95 561c25 148 122 190 239 160v-128c-46 20 -99 6 -109 -56l-96 -562c-25 -148 -121 -190 -236 -160z" />
    <glyph glyph-name="less" unicode="&#x3c;" horiz-adv-x="528" 
d="M483 598v-134l-292 -114l292 -113v-134l-438 190v115z" />
    <glyph glyph-name="lessequal" unicode="&#x2264;" horiz-adv-x="528" 
d="M483 653v-134l-290 -90l290 -89v-134l-438 166v114zM45 55v121h438v-121h-438z" />
    <glyph glyph-name="logicalnot" unicode="&#xac;" horiz-adv-x="550" 
d="M45 411h460v-121v-119h-129v119h-331v121z" />
    <glyph glyph-name="uni00B5" unicode="&#xb5;" horiz-adv-x="577" 
d="M518 121h36v-121h-60c-51 0 -90 19 -113 52c-30 -44 -71 -66 -132 -66c-22 0 -43 4 -61 10v-196h-129v700h129v-310c0 -57 34 -84 79 -84c51 0 90 29 90 105v289h129v-347c0 -20 12 -32 32 -32z" />
    <glyph glyph-name="minus" unicode="&#x2212;" horiz-adv-x="555" 
d="M53 290v121h450v-121h-450z" />
    <glyph glyph-name="multiply" unicode="&#xd7;" horiz-adv-x="512" 
d="M462 471l-121 -121l121 -121l-86 -84l-120 120l-120 -120l-86 84l121 121l-121 121l86 84l120 -120l120 120z" />
    <glyph glyph-name="notequal" unicode="&#x2260;" horiz-adv-x="525" 
d="M480 393h-158l-39 -86h197v-121h-251l-59 -131h-80l59 131h-104v121h158l39 86h-197v121h251l59 131h80l-59 -131h104v-121z" />
    <glyph glyph-name="partialdiff" unicode="&#x2202;" horiz-adv-x="584" 
d="M240 714c157 0 299 -143 299 -364c0 -241 -125 -364 -279 -364c-139 0 -217 96 -217 214c0 135 84 234 226 234c50 0 98 -14 138 -40c-13 120 -75 197 -183 198c-39 1 -77 -10 -115 -32v118c39 25 82 36 131 36zM265 108c81 0 129 69 141 175c-36 27 -78 37 -119 37
c-65 0 -115 -41 -115 -116c0 -59 37 -96 93 -96z" />
    <glyph glyph-name="percent" unicode="%" horiz-adv-x="798" 
d="M214 384c-97 0 -169 73 -169 165c0 91 72 165 169 165c96 0 168 -72 168 -165c0 -92 -71 -165 -168 -165zM92 0l491 700h123l-492 -700h-122zM213 485c37 0 63 29 63 64s-26 63 -63 63c-36 0 -62 -28 -62 -63c0 -36 26 -64 62 -64zM585 -12c-97 0 -169 74 -169 165
s72 165 169 165c96 0 168 -74 168 -165s-72 -165 -168 -165zM584 89c37 0 63 30 63 64c0 36 -26 64 -63 64c-36 0 -62 -28 -62 -64s26 -64 62 -64z" />
    <glyph glyph-name="perthousand" unicode="&#x2030;" horiz-adv-x="1160" 
d="M214 384c-97 0 -169 73 -169 165c0 91 72 165 169 165c96 0 168 -74 168 -165c0 -92 -71 -165 -168 -165zM92 0l491 700h123l-492 -700h-122zM213 485c37 0 63 29 63 64s-26 63 -63 63c-36 0 -62 -28 -62 -63c0 -36 26 -64 62 -64zM585 -12c-97 0 -169 74 -169 165
s72 165 169 165c96 0 168 -74 168 -165s-72 -165 -168 -165zM960 -12c-97 0 -169 74 -169 165s72 165 169 165c96 0 168 -74 168 -165s-72 -165 -168 -165zM584 89c37 0 63 30 63 64c0 36 -26 64 -63 64c-36 0 -62 -28 -62 -64s26 -64 62 -64zM959 89c37 0 63 30 63 64
c0 36 -26 64 -63 64c-36 0 -62 -28 -62 -64s26 -64 62 -64z" />
    <glyph glyph-name="plus" unicode="+" horiz-adv-x="555" 
d="M503 411v-121h-165v-165h-121v165h-164v121h164v164h121v-164h165z" />
    <glyph glyph-name="plusminus" unicode="&#xb1;" horiz-adv-x="555" 
d="M338 502h165v-121h-165v-146h-121v146h-164v121h164v146h121v-146zM53 53v121h450v-121h-450z" />
    <glyph glyph-name="product" unicode="&#x220f;" horiz-adv-x="640" 
d="M65 -200v900h510v-900h-129v776h-252v-776h-129z" />
    <glyph glyph-name="radical" unicode="&#x221a;" horiz-adv-x="676" 
d="M269 0l-122 199h-102v124h176l100 -173l218 650h132l-277 -800h-125z" />
    <glyph glyph-name="summation" unicode="&#x2211;" horiz-adv-x="563" 
d="M35 -200v110l213 350l-198 329v111h460v-124h-308l191 -316l-205 -336h337v-124h-490z" />
    <glyph glyph-name="arrowup" unicode="&#x2191;" horiz-adv-x="690" 
d="M645 400v-171l-235 236v-465h-129v465l-236 -236v171l300 300z" />
    <glyph glyph-name="uni2197" unicode="&#x2197;" horiz-adv-x="643" 
d="M174 613h424v-424l-120 -120v335l-345 -344l-88 88l344 345h-335z" />
    <glyph glyph-name="arrowright" unicode="&#x2192;" horiz-adv-x="798" 
d="M453 650l300 -300l-300 -300h-171l238 238h-475v124h475l-238 238h171z" />
    <glyph glyph-name="uni2198" unicode="&#x2198;" horiz-adv-x="643" 
d="M478 617l120 -120v-424h-424l-120 120h335l-344 345l88 88l345 -345v336z" />
    <glyph glyph-name="arrowdown" unicode="&#x2193;" horiz-adv-x="690" 
d="M410 236l235 235v-171l-300 -300l-300 300v171l236 -235v464h129v-464z" />
    <glyph glyph-name="uni2199" unicode="&#x2199;" horiz-adv-x="643" 
d="M598 538l-344 -345h336l-121 -120h-424v424l121 120v-336l345 345z" />
    <glyph glyph-name="arrowleft" unicode="&#x2190;" horiz-adv-x="798" 
d="M753 412v-124h-475l238 -238h-171l-300 300l300 300h171l-238 -238h475z" />
    <glyph glyph-name="uni2196" unicode="&#x2196;" horiz-adv-x="643" 
d="M598 148l-87 -88l-345 344v-335l-121 120v424h424l121 -120h-336z" />
    <glyph glyph-name="arrowboth" unicode="&#x2194;" horiz-adv-x="1085" 
d="M768 623l272 -273l-272 -272h-168l208 210h-533l210 -210h-168l-272 272l272 273h168l-210 -211h535l-210 211h168z" />
    <glyph glyph-name="arrowupdn" unicode="&#x2195;" horiz-adv-x="635" 
d="M590 407l-208 208v-530l208 208v-168l-272 -273l-273 273v168l208 -208v530l-208 -208v168l273 273l272 -273v-168z" />
    <glyph glyph-name="lozenge" unicode="&#x25ca;" horiz-adv-x="555" 
d="M229 0l-186 350l186 350h98l186 -350l-186 -350h-98zM278 170l95 180l-95 180l-96 -180z" />
    <glyph glyph-name="bar" unicode="|" horiz-adv-x="259" 
d="M65 -200v920h129v-920h-129z" />
    <glyph glyph-name="brokenbar" unicode="&#xa6;" horiz-adv-x="259" 
d="M65 350v370h129v-370h-129zM65 -200v370h129v-370h-129z" />
    <glyph glyph-name="at" unicode="@" horiz-adv-x="779" 
d="M397 612c223 0 350 -177 350 -342c0 -145 -71 -217 -159 -217c-68 0 -113 30 -132 80c-24 -29 -58 -47 -99 -47c-86 0 -147 70 -147 164s61 164 147 164c37 0 68 -14 91 -37v26h107v-231c0 -43 16 -73 58 -73c54 0 96 52 96 171c0 174 -136 308 -312 308
c-183 0 -327 -142 -327 -328c0 -189 146 -328 345 -328c63 0 116 8 162 25v-36c-44 -15 -97 -23 -162 -23c-218 0 -382 152 -382 362c0 200 156 362 364 362zM384 182c37 0 63 28 63 68c0 41 -26 68 -63 68c-38 0 -65 -27 -65 -68c0 -40 27 -68 65 -68z" />
    <glyph glyph-name="ampersand" unicode="&#x26;" horiz-adv-x="719" 
d="M706 0h-171l-42 42c-52 -34 -118 -56 -198 -56c-139 0 -252 79 -252 212c0 74 36 144 102 190c-24 34 -41 73 -41 124c0 119 100 202 230 202c121 0 235 -70 235 -226h-137c0 63 -43 92 -98 92c-49 0 -92 -26 -92 -77c0 -38 35 -73 65 -103l178 -178c14 32 23 72 23 117
h137c0 -70 -21 -148 -66 -212zM306 113c35 0 66 7 93 20l-172 167c-32 -24 -45 -58 -45 -90c0 -57 42 -97 124 -97z" />
    <glyph glyph-name="paragraph" unicode="&#xb6;" horiz-adv-x="669" 
d="M623 700v-113h-62v-787h-121v787h-79v-787h-121v470c-119 0 -215 97 -215 215c0 119 96 215 215 215h121h200h62z" />
    <glyph glyph-name="copyright" unicode="&#xa9;" horiz-adv-x="789" 
d="M395 -12c-200 0 -362 162 -362 362s162 362 362 362s362 -162 362 -362s-162 -362 -362 -362zM395 22c179 0 324 147 324 328s-145 328 -324 328c-180 0 -325 -147 -325 -328s145 -328 325 -328zM398 154c-109 0 -198 89 -198 196s89 196 198 196c91 0 172 -62 190 -156
h-117c-11 25 -38 45 -76 45c-52 0 -84 -41 -84 -85s32 -85 84 -85c38 0 65 20 76 46h117c-18 -95 -99 -157 -190 -157z" />
    <glyph glyph-name="registered" unicode="&#xae;" horiz-adv-x="789" 
d="M395 712c200 0 362 -162 362 -362s-162 -362 -362 -362s-362 162 -362 362s162 362 362 362zM395 22c179 0 324 147 324 328s-145 328 -324 328c-180 0 -325 -147 -325 -328s145 -328 325 -328zM557 409c0 -51 -22 -92 -56 -116l89 -128h-116l-71 102h-38v-102h-107v370
h107h52c79 0 140 -53 140 -126zM365 438v-81h34c31 0 51 14 51 40c0 27 -20 41 -51 41h-34z" />
    <glyph glyph-name="section" unicode="&#xa7;" horiz-adv-x="545" 
d="M503 284c0 -54 -24 -100 -63 -131c20 -25 33 -57 33 -99c0 -110 -91 -166 -201 -166s-203 56 -203 183h126c0 -49 30 -69 77 -69s72 20 72 52c0 45 -74 65 -148 97c-76 33 -153 78 -153 174c0 54 24 97 63 126c-19 25 -31 57 -31 99c0 109 91 164 195 164
c100 0 193 -56 193 -183h-126c0 49 -30 69 -67 69c-41 0 -66 -18 -66 -50c0 -45 69 -66 140 -96c78 -32 159 -75 159 -170zM172 332c0 -38 35 -59 81 -78c31 -12 67 -24 101 -39c13 16 20 34 20 54c0 42 -39 62 -90 82c-29 11 -61 22 -92 36c-13 -16 -20 -34 -20 -55z" />
    <glyph glyph-name="trademark" unicode="&#x2122;" horiz-adv-x="466" 
d="M197 700v-56h-52v-144h-60v144h-52v56h164zM433 700v-200h-60v104l-34 -63h-29l-35 67v-108h-58v200h58h6l44 -89l44 89h64z" />
    <glyph glyph-name="degree" unicode="&#xb0;" horiz-adv-x="401" 
d="M201 480c-97 0 -168 75 -168 165c0 91 71 165 168 165s168 -74 168 -165c0 -90 -69 -165 -168 -165zM201 585c35 0 59 25 59 60c0 34 -24 60 -59 60s-59 -26 -59 -60s24 -60 59 -60z" />
    <glyph glyph-name="estimated" unicode="&#x212e;" horiz-adv-x="790" 
d="M395 710c221 0 370 -161 370 -360c0 -10 -5 -15 -15 -15h-560c-10 0 -15 -5 -15 -15v-192c0 -8 2 -13 7 -19c54 -57 128 -89 233 -89c99 0 177 36 231 97c5 6 10 9 18 9h37c13 0 18 -9 9 -19c-67 -72 -168 -117 -295 -117c-241 0 -390 161 -390 360s149 360 370 360z
M615 572c0 8 -2 13 -7 19c-54 57 -128 89 -213 89s-159 -32 -213 -89c-5 -6 -7 -11 -7 -19v-192c0 -10 5 -15 15 -15h410c10 0 15 5 15 15v192z" />
    <glyph glyph-name="uni2116" unicode="&#x2116;" horiz-adv-x="1004" 
d="M803 384c-97 0 -168 74 -168 165s71 165 168 165s168 -74 168 -165s-69 -165 -168 -165zM443 700h137v-700h-105l-272 433v-433h-138v700h105l273 -432v432zM803 489c36 0 59 25 59 60c0 34 -24 60 -59 60s-59 -26 -59 -60c0 -35 24 -60 59 -60zM649 208v121h312v-121
h-312z" />
    <glyph glyph-name="asciicircum" unicode="^" horiz-adv-x="560" 
d="M329 700l191 -330h-139l-101 182l-101 -182h-139l191 330h98z" />
    <glyph glyph-name="dagger" unicode="&#x2020;" horiz-adv-x="480" 
d="M435 565v-124h-130v-441h-129v441h-131v124h131v135h129v-135h130z" />
    <glyph glyph-name="daggerdbl" unicode="&#x2021;" horiz-adv-x="480" 
d="M435 441h-130v-182h130v-124h-130v-135h-129v135h-131v124h131v182h-131v124h131v135h129v-135h130v-124z" />
    <glyph glyph-name="uni0308" unicode="&#x308;" horiz-adv-x="0" 
d="M-323 561v118h118v-118h-118zM-138 561v118h118v-118h-118z" />
    <glyph glyph-name="uni0307" unicode="&#x307;" horiz-adv-x="0" 
d="M-157 558v135h135v-135h-135z" />
    <glyph glyph-name="gravecomb" unicode="&#x300;" horiz-adv-x="0" 
d="M-20 563l-80 137h-155l111 -137h124z" />
    <glyph glyph-name="acutecomb" unicode="&#x301;" horiz-adv-x="0" 
d="M-255 563h124l111 137h-155z" />
    <glyph glyph-name="uni030B" unicode="&#x30b;" horiz-adv-x="0" 
d="M-415 555h128l84 138h-134zM-242 555h128l94 138h-134z" />
    <glyph glyph-name="uni0302" unicode="&#x302;" horiz-adv-x="0" 
d="M-20 555h-128l-44 65l-43 -65h-128l106 145h119h12z" />
    <glyph glyph-name="uni030C" unicode="&#x30c;" horiz-adv-x="0" 
d="M-148 700h128l-106 -145h-119h-12l-106 145h128l43 -65z" />
    <glyph glyph-name="uni0306" unicode="&#x306;" horiz-adv-x="0" 
d="M-187 547c-105 0 -166 53 -166 145h115c0 -35 18 -52 51 -52c34 0 52 17 52 52h115c0 -92 -60 -145 -167 -145z" />
    <glyph glyph-name="uni030A" unicode="&#x30a;" horiz-adv-x="0" 
d="M-150 539c-74 0 -126 51 -126 119c0 67 52 118 126 118c76 0 126 -51 126 -118c0 -68 -50 -119 -126 -119zM-150 620c27 0 40 16 40 38c0 21 -13 37 -40 37c-25 0 -39 -16 -39 -37c0 -22 14 -38 39 -38z" />
    <glyph glyph-name="tildecomb" unicode="&#x303;" horiz-adv-x="0" 
d="M-351 560c0 159 96 176 182 121c39 -25 52 -26 52 24h105c0 -159 -97 -176 -182 -121c-39 25 -53 26 -53 -24h-104z" />
    <glyph glyph-name="uni0304" unicode="&#x304;" horiz-adv-x="0" 
d="M-310 564v105h290v-105h-290z" />
    <glyph glyph-name="uni0312" unicode="&#x312;" horiz-adv-x="0" 
d="M-122 975l-30 -200h122l10 200h-102z" />
    <glyph glyph-name="uni0326" unicode="&#x326;" horiz-adv-x="0" 
d="M-50 -263l30 200h-122l-10 -200h102z" />
    <glyph glyph-name="uni0327" unicode="&#x327;" horiz-adv-x="0" 
d="M-90 -46c34 -8 70 -32 70 -78c0 -60 -52 -102 -220 -92v91c73 -5 108 3 108 20c0 16 -24 22 -63 25v80h105v-46z" />
    <glyph glyph-name="uni0328" unicode="&#x328;" horiz-adv-x="0" 
d="M-108 -214c-55 0 -96 29 -96 88c0 38 26 84 66 126h110c-33 -35 -52 -71 -52 -95c-1 -17 8 -27 25 -27c8 -1 17 1 27 5v-81c-24 -10 -48 -16 -80 -16z" />
    <glyph glyph-name="acute" unicode="&#xb4;" horiz-adv-x="275" 
d="M20 563h124l111 137h-155z" />
    <glyph glyph-name="breve" unicode="&#x2d8;" horiz-adv-x="373" 
d="M186 547c-105 0 -166 53 -166 145h115c0 -35 18 -52 51 -52c34 0 52 17 52 52h115c0 -92 -60 -145 -167 -145z" />
    <glyph glyph-name="caron" unicode="&#x2c7;" horiz-adv-x="383" 
d="M235 700h128l-106 -145h-119h-12l-106 145h128l43 -65z" />
    <glyph glyph-name="cedilla" unicode="&#xb8;" horiz-adv-x="260" 
d="M170 -46c34 -8 70 -32 70 -78c0 -60 -52 -102 -220 -92v91c73 -5 108 3 108 20c0 16 -24 22 -63 25v80h105v-46z" />
    <glyph glyph-name="circumflex" unicode="&#x2c6;" horiz-adv-x="383" 
d="M363 555h-128l-44 65l-43 -65h-128l106 145h119h12z" />
    <glyph glyph-name="dieresis" unicode="&#xa8;" horiz-adv-x="343" 
d="M20 561v118h118v-118h-118zM205 561v118h118v-118h-118z" />
    <glyph glyph-name="dotaccent" unicode="&#x2d9;" horiz-adv-x="175" 
d="M20 558v135h135v-135h-135z" />
    <glyph glyph-name="grave" unicode="`" horiz-adv-x="275" 
d="M255 563l-80 137h-155l111 -137h124z" />
    <glyph glyph-name="hungarumlaut" unicode="&#x2dd;" horiz-adv-x="435" 
d="M20 555h128l84 138h-134zM193 555h128l94 138h-134z" />
    <glyph glyph-name="macron" unicode="&#xaf;" horiz-adv-x="330" 
d="M20 564v105h290v-105h-290z" />
    <glyph glyph-name="ogonek" unicode="&#x2db;" horiz-adv-x="216" 
d="M116 -214c-55 0 -96 29 -96 88c0 38 26 84 66 126h110c-33 -35 -52 -71 -52 -95c-1 -17 8 -27 25 -27c8 -1 17 1 27 5v-81c-24 -10 -48 -16 -80 -16z" />
    <glyph glyph-name="ring" unicode="&#x2da;" horiz-adv-x="293" 
d="M146 539c-74 0 -126 51 -126 119c0 67 52 118 126 118c76 0 127 -51 127 -118c0 -68 -51 -119 -127 -119zM146 620c27 0 40 16 40 38c0 21 -13 37 -40 37c-25 0 -39 -16 -39 -37c0 -22 14 -38 39 -38z" />
    <glyph glyph-name="tilde" unicode="&#x2dc;" horiz-adv-x="379" 
d="M20 560c0 159 97 176 182 121c39 -25 53 -26 53 24h104c0 -159 -96 -176 -182 -121c-38 25 -52 26 -52 -24h-105z" />
    <glyph glyph-name="brevecy" horiz-adv-x="360" 
d="M35 564v112h290v-112h-290z" />
    </font>
</defs>
</svg>
