<?xml version="1.0" standalone="no"?>
<!DOCTYPE svg PUBLIC "-//W3C//DTD SVG 1.1//EN" "http://www.w3.org/Graphics/SVG/1.1/DTD/svg11.dtd" >
<svg>
<metadata>
Created by FontForge 20120731 at Fri May 20 10:56:16 2016
 By Apache
Copyright \(c\) 2015 by Radomir Tinkov. All rights reserved.
</metadata>
<defs>
<font id="Qanelas-Black" horiz-adv-x="536" >
  <font-face 
    font-family="Qanelas Black"
    font-weight="900"
    font-stretch="normal"
    units-per-em="1000"
    panose-1="0 0 10 0 0 0 0 0 0 0"
    ascent="800"
    descent="-200"
    x-height="500"
    cap-height="700"
    bbox="-466 -277 1228 997"
    underline-thickness="50"
    underline-position="-50"
    unicode-range="U+0020-FB02"
  />
<missing-glyph horiz-adv-x="500" 
d="M410 800v-1000h-317v1000h317zM333 733h-165v-33h65v-37h-66v-33h166v33h-66v37h66v33zM267 604h-100v-104h166v34h-66v70zM233 570v-36h-33v36h33zM333 473h-166v-33h66v-37h-66v-33h100v70h66v33zM333 413h-33v-66h-133v-34h166v100zM333 291h-100v-56h34v23h33v-47
h-100v80h-33v-113h166v113zM333 118h-166v-113h166v113zM300 85v-47h-100v47h100zM333 -18h-166v-33h70l-70 -47v-33h166v33h-102l70 47h32v33z" />
    <glyph glyph-name="f_f" unicode="ff" horiz-adv-x="597" 
d="M597 571c-53 4 -86 -15 -86 -61v-10h86v-159h-86v-341h-166v341h-63h-53v-341h-166v341h-63v159h63c0 140 81 225 252 215v-154c-54 4 -86 -15 -86 -61h86h30v10c0 140 82 225 252 215v-154z" />
    <glyph glyph-name="f_f_i" unicode="ffi" horiz-adv-x="839" 
d="M791 500v-500h-166v341h-114v-341h-166v341h-63h-53v-341h-166v341h-63v159h63c0 140 81 225 252 215v-154c-54 4 -86 -15 -86 -61h86h30v10c0 140 82 215 252 215c46 0 87 -5 130 -15v-145c-43 6 -85 9 -123 9c-56 0 -93 -13 -93 -64v-10h280z" />
    <glyph glyph-name="f_f_l" unicode="ffl" horiz-adv-x="839" 
d="M597 725c76 0 132 -8 194 -20v-705h-166v583c-10 1 -20 1 -30 1c-49 0 -84 -23 -84 -74v-10h66v-159h-66v-341h-166v341h-63h-53v-341h-166v341h-63v159h63c0 140 81 225 252 215v-154c-54 4 -86 -15 -86 -61h86h30v10c0 140 82 215 252 215z" />
    <glyph glyph-name="fi" unicode="fi" horiz-adv-x="557" 
d="M509 500v-500h-166v341h-114v-341h-166v341h-63v159h63c0 140 81 215 252 215c46 0 86 -5 129 -15v-145c-42 6 -84 9 -122 9c-56 0 -93 -13 -93 -64h280z" />
    <glyph glyph-name="fl" unicode="fl" horiz-adv-x="557" 
d="M315 715c76 0 131 -8 194 -20v-695h-166v573c-10 1 -20 1 -31 1c-49 0 -83 -23 -83 -74h66v-159h-66v-341h-166v341h-63v159h63c0 140 81 215 252 215z" />
    <glyph glyph-name=".notdef" horiz-adv-x="500" 
d="M410 800v-1000h-317v1000h317zM333 733h-165v-33h65v-37h-66v-33h166v33h-66v37h66v33zM267 604h-100v-104h166v34h-66v70zM233 570v-36h-33v36h33zM333 473h-166v-33h66v-37h-66v-33h100v70h66v33zM333 413h-33v-66h-133v-34h166v100zM333 291h-100v-56h34v23h33v-47
h-100v80h-33v-113h166v113zM333 118h-166v-113h166v113zM300 85v-47h-100v47h100zM333 -18h-166v-33h70l-70 -47v-33h166v33h-102l70 47h32v33z" />
    <glyph glyph-name="A" unicode="A" horiz-adv-x="660" 
d="M471 0l-29 101h-224l-29 -101h-194l228 700h214l228 -700h-194zM261 255h138l-69 242z" />
    <glyph glyph-name="Aacute" unicode="&#xc1;" horiz-adv-x="660" 
d="M514 900l-116 -145h-158l80 145h194zM471 0l-29 101h-224l-29 -101h-194l228 700h214l228 -700h-194zM261 255h138l-69 242z" />
    <glyph glyph-name="Abreve" unicode="&#x102;" horiz-adv-x="660" 
d="M329 737c-115 0 -179 56 -179 160h140c0 -28 13 -44 39 -44s40 16 40 44h140c0 -104 -64 -160 -180 -160zM471 0l-29 101h-224l-29 -101h-194l228 700h214l228 -700h-194zM261 255h138l-69 242z" />
    <glyph glyph-name="Acircumflex" unicode="&#xc2;" horiz-adv-x="660" 
d="M326 801l-40 -56h-150l106 155h153h14l106 -155h-150zM471 0l-29 101h-224l-29 -101h-194l228 700h214l228 -700h-194zM261 255h138l-69 242z" />
    <glyph glyph-name="Adieresis" unicode="&#xc4;" horiz-adv-x="660" 
d="M305 890v-140h-139v140h139zM495 890v-140h-140v140h140zM471 0l-29 101h-224l-29 -101h-194l228 700h214l228 -700h-194zM261 255h138l-69 242z" />
    <glyph glyph-name="Agrave" unicode="&#xc0;" horiz-adv-x="660" 
d="M420 755h-158l-116 145h194zM471 0l-29 101h-224l-29 -101h-194l228 700h214l228 -700h-194zM261 255h138l-69 242z" />
    <glyph glyph-name="Amacron" unicode="&#x100;" horiz-adv-x="660" 
d="M484 884v-130h-309v130h309zM471 0l-29 101h-224l-29 -101h-194l228 700h214l228 -700h-194zM261 255h138l-69 242z" />
    <glyph glyph-name="Aogonek" unicode="&#x104;" horiz-adv-x="660" 
d="M644 -101c6 -1 13 1 21 3v-99c-27 -11 -53 -17 -88 -17c-58 0 -105 28 -105 91c0 38 24 83 62 123h-63l-29 101h-224l-29 -101h-194l228 700h214l228 -700c-29 -31 -43 -59 -43 -78c-1 -15 7 -23 22 -23zM261 255h138l-69 242z" />
    <glyph glyph-name="Aring" unicode="&#xc5;" horiz-adv-x="660" 
d="M330 733c-82 0 -140 56 -140 132c0 75 58 132 140 132c85 0 141 -57 141 -132c0 -76 -56 -132 -141 -132zM330 897c-21 0 -33 -14 -33 -32s12 -32 33 -32c23 0 34 14 34 32s-11 32 -34 32zM471 0l-29 101h-224l-29 -101h-194l228 700h214l228 -700h-194zM261 255h138
l-69 242z" />
    <glyph glyph-name="Atilde" unicode="&#xc3;" horiz-adv-x="660" 
d="M318 768c-32 17 -48 25 -48 -20h-120c0 169 104 188 190 143c32 -18 49 -26 49 19h120c0 -171 -104 -188 -191 -142zM471 0l-29 101h-224l-29 -101h-194l228 700h214l228 -700h-194zM261 255h138l-69 242z" />
    <glyph glyph-name="AE" unicode="&#xc6;" horiz-adv-x="882" 
d="M619 168h236v-168h-360h-50v101h-194l-57 -101h-199l400 700h100h124h231v-168h-231v-98h206v-160h-206v-106zM337 255h108v193z" />
    <glyph glyph-name="B" unicode="B" horiz-adv-x="685" 
d="M546 421c73 -37 119 -109 119 -198c0 -126 -94 -223 -226 -223h-344h-40v700h179h121c123 0 220 -77 220 -190c0 -33 -11 -64 -29 -89zM353 538h-119v-91h147c13 11 19 27 19 42c0 28 -18 49 -47 49zM414 162c49 0 72 29 72 69c0 41 -23 69 -71 69h-181v-138h180z" />
    <glyph glyph-name="C" unicode="C" horiz-adv-x="751" 
d="M393 -15c-212 0 -365 159 -365 365s153 365 365 365c173 0 319 -118 345 -284h-185c-19 67 -83 109 -160 109c-113 0 -187 -78 -187 -190s74 -190 187 -190c77 0 142 42 160 109h186c-26 -165 -172 -284 -346 -284z" />
    <glyph glyph-name="Cacute" unicode="&#x106;" horiz-adv-x="751" 
d="M303 765h158l116 145h-194zM393 -15c-212 0 -365 159 -365 365s153 365 365 365c173 0 319 -118 345 -284h-185c-19 67 -83 109 -160 109c-113 0 -187 -78 -187 -190s74 -190 187 -190c77 0 142 42 160 109h186c-26 -165 -172 -284 -346 -284z" />
    <glyph glyph-name="Ccaron" unicode="&#x10c;" horiz-adv-x="751" 
d="M304 755l-106 155h150l40 -56l39 56h150l-106 -155h-167zM553 269h186c-26 -165 -172 -284 -346 -284c-212 0 -365 159 -365 365s153 365 365 365c173 0 319 -118 345 -284h-185c-19 67 -83 109 -160 109c-113 0 -187 -78 -187 -190s74 -190 187 -190
c77 0 142 42 160 109z" />
    <glyph glyph-name="Ccedilla" unicode="&#xc7;" horiz-adv-x="751" 
d="M739 269c-23 -142 -133 -250 -275 -277v-38c22 -7 58 -29 58 -77c0 -68 -66 -108 -234 -98v109c65 -5 95 1 95 14c0 12 -21 17 -53 20v68c-178 28 -302 175 -302 360c0 206 153 365 365 365c173 0 319 -118 345 -284h-185c-19 67 -83 109 -160 109
c-113 0 -187 -78 -187 -190s74 -190 187 -190c77 0 142 42 160 109h186z" />
    <glyph glyph-name="Cdotaccent" unicode="&#x10a;" horiz-adv-x="751" 
d="M313 758v154h159v-154h-159zM393 -15c-212 0 -365 159 -365 365s153 365 365 365c173 0 319 -118 345 -284h-185c-19 67 -83 109 -160 109c-113 0 -187 -78 -187 -190s74 -190 187 -190c77 0 142 42 160 109h186c-26 -165 -172 -284 -346 -284z" />
    <glyph glyph-name="D" unicode="D" horiz-adv-x="728" 
d="M360 700c193 0 340 -152 340 -350s-147 -350 -340 -350h-250h-55v700h184h121zM360 173c96 0 165 70 165 177s-69 177 -165 177h-121v-354h121z" />
    <glyph glyph-name="Eth" unicode="&#xd0;" horiz-adv-x="758" 
d="M391 700c193 0 340 -152 340 -350s-147 -350 -340 -350h-250h-55v263h-75v158h75v279h183h122zM391 173c96 0 164 70 164 177s-68 177 -164 177h-122v-106h131v-158h-131v-90h122z" />
    <glyph glyph-name="Dcaron" unicode="&#x10e;" horiz-adv-x="728" 
d="M242 745l-106 155h150l40 -56l39 56h150l-106 -155h-167zM360 700c193 0 340 -152 340 -350s-147 -350 -340 -350h-250h-55v700h184h121zM360 173c96 0 165 70 165 177s-69 177 -165 177h-121v-354h121z" />
    <glyph glyph-name="Dcroat" unicode="&#x110;" horiz-adv-x="758" 
d="M391 700c193 0 340 -152 340 -350s-147 -350 -340 -350h-250h-55v263h-75v158h75v279h183h122zM391 173c96 0 164 70 164 177s-68 177 -164 177h-122v-106h131v-158h-131v-90h122z" />
    <glyph glyph-name="E" unicode="E" horiz-adv-x="512" 
d="M234 168h251v-168h-375h-55v700h179h246v-168h-246v-99h221v-159h-221v-106z" />
    <glyph glyph-name="Eacute" unicode="&#xc9;" horiz-adv-x="512" 
d="M452 900l-116 -145h-158l80 145h194zM234 168h251v-168h-375h-55v700h179h246v-168h-246v-99h221v-159h-221v-106z" />
    <glyph glyph-name="Ecaron" unicode="&#x11a;" horiz-adv-x="512" 
d="M180 745l-106 155h150l40 -56l39 56h150l-106 -155h-167zM234 168h251v-168h-375h-55v700h179h246v-168h-246v-99h221v-159h-221v-106z" />
    <glyph glyph-name="Ecircumflex" unicode="&#xca;" horiz-adv-x="512" 
d="M264 801l-40 -56h-150l106 155h153h14l106 -155h-150zM234 168h251v-168h-375h-55v700h179h246v-168h-246v-99h221v-159h-221v-106z" />
    <glyph glyph-name="Edieresis" unicode="&#xcb;" horiz-adv-x="512" 
d="M243 890v-140h-139v140h139zM433 890v-140h-140v140h140zM234 168h251v-168h-375h-55v700h179h246v-168h-246v-99h221v-159h-221v-106z" />
    <glyph glyph-name="Edotaccent" unicode="&#x116;" horiz-adv-x="512" 
d="M347 902v-154h-159v154h159zM234 168h251v-168h-375h-55v700h179h246v-168h-246v-99h221v-159h-221v-106z" />
    <glyph glyph-name="Egrave" unicode="&#xc8;" horiz-adv-x="512" 
d="M358 755h-158l-116 145h194zM234 168h251v-168h-375h-55v700h179h246v-168h-246v-99h221v-159h-221v-106z" />
    <glyph glyph-name="Emacron" unicode="&#x112;" horiz-adv-x="512" 
d="M422 884v-130h-309v130h309zM234 168h251v-168h-375h-55v700h179h246v-168h-246v-99h221v-159h-221v-106z" />
    <glyph glyph-name="Eogonek" unicode="&#x118;" horiz-adv-x="512" 
d="M464 -101c6 -1 13 1 21 3v-99c-27 -11 -53 -17 -88 -17c-58 0 -105 28 -105 91c0 38 24 83 62 123h-244h-55v700h179h246v-168h-246v-99h221v-159h-221v-106h251v-168c-29 -31 -43 -59 -43 -78c-1 -15 7 -23 22 -23z" />
    <glyph glyph-name="F" unicode="F" horiz-adv-x="500" 
d="M475 527h-241v-124h236v-173h-236v-230h-179v700h179h241v-173z" />
    <glyph glyph-name="G" unicode="G" horiz-adv-x="782" 
d="M399 385h340v-149v-236h-159v69c-46 -54 -115 -84 -207 -84c-199 0 -345 159 -345 365s153 365 365 365c171 0 313 -114 344 -258h-187c-23 47 -82 83 -156 83c-114 0 -188 -78 -188 -190c0 -122 77 -200 187 -200c77 0 131 30 157 86h-151v149z" />
    <glyph glyph-name="Gbreve" unicode="&#x11e;" horiz-adv-x="782" 
d="M392 747c-115 0 -179 56 -179 160h140c0 -28 13 -44 39 -44s40 16 40 44h140c0 -104 -64 -160 -180 -160zM399 385h340v-149v-236h-159v69c-46 -54 -115 -84 -207 -84c-199 0 -345 159 -345 365s153 365 365 365c171 0 313 -114 344 -258h-187c-23 47 -82 83 -156 83
c-114 0 -188 -78 -188 -190c0 -122 77 -200 187 -200c77 0 131 30 157 86h-151v149z" />
    <glyph glyph-name="Gcommaaccent" unicode="&#x122;" horiz-adv-x="782" 
d="M399 385h340v-149v-236h-159v69c-46 -54 -115 -84 -207 -84c-199 0 -345 159 -345 365s153 365 365 365c171 0 313 -114 344 -258h-187c-23 47 -82 83 -156 83c-114 0 -188 -78 -188 -190c0 -122 77 -200 187 -200c77 0 131 30 157 86h-151v149zM316 -277l10 220h154
l-35 -220h-129z" />
    <glyph glyph-name="Gdotaccent" unicode="&#x120;" horiz-adv-x="782" 
d="M472 912v-154h-159v154h159zM399 385h340v-149v-236h-159v69c-46 -54 -115 -84 -207 -84c-199 0 -345 159 -345 365s153 365 365 365c171 0 313 -114 344 -258h-187c-23 47 -82 83 -156 83c-114 0 -188 -78 -188 -190c0 -122 77 -200 187 -200c77 0 131 30 157 86h-151
v149z" />
    <glyph glyph-name="H" unicode="H" horiz-adv-x="645" 
d="M411 700h178v-700h-178v274h-177v-274h-179v700h179v-254h177v254z" />
    <glyph glyph-name="Hbar" unicode="&#x126;" horiz-adv-x="685" 
d="M669 608v-130h-60v-478h-178v220h-177v-220h-179v478h-60v130h60v92h179v-92h177v92h178v-92h60zM431 393v85h-177v-85h177z" />
    <glyph glyph-name="I" unicode="I" horiz-adv-x="289" 
d="M55 700h179v-700h-179v700z" />
    <glyph glyph-name="Iacute" unicode="&#xcd;" horiz-adv-x="289" 
d="M55 755h158l116 145h-194zM55 700h179v-700h-179v700z" />
    <glyph glyph-name="Icircumflex" unicode="&#xce;" horiz-adv-x="289" 
d="M140 801l-40 -56h-150l106 155h153h14l106 -155h-150zM55 0v700h179v-700h-179z" />
    <glyph glyph-name="Idieresis" unicode="&#xcf;" horiz-adv-x="289" 
d="M-20 750v140h139v-140h-139zM169 750v140h140v-140h-140zM55 700h179v-700h-179v700z" />
    <glyph glyph-name="Idotaccent" unicode="&#x130;" horiz-adv-x="289" 
d="M65 748v154h159v-154h-159zM55 700h179v-700h-179v700z" />
    <glyph glyph-name="Igrave" unicode="&#xcc;" horiz-adv-x="289" 
d="M235 755l-80 145h-194l116 -145h158zM55 700h179v-700h-179v700z" />
    <glyph glyph-name="Imacron" unicode="&#x12a;" horiz-adv-x="289" 
d="M-10 754v130h309v-130h-309zM55 700h179v-700h-179v700z" />
    <glyph glyph-name="Iogonek" unicode="&#x12e;" horiz-adv-x="289" 
d="M221 -101c6 -1 13 1 21 3v-99c-27 -11 -53 -17 -88 -17c-57 0 -105 28 -105 91c0 38 20 83 54 123h-48v700h179v-700c-24 -31 -35 -59 -35 -78c0 -15 8 -23 22 -23z" />
    <glyph glyph-name="J" unicode="J" horiz-adv-x="545" 
d="M255 -15c-140 0 -245 79 -245 232v22h179v-22c0 -37 22 -58 66 -58c43 0 66 21 66 58v483h178v-485c0 -152 -105 -230 -244 -230z" />
    <glyph glyph-name="K" unicode="K" horiz-adv-x="631" 
d="M635 0h-200l-201 314v-314h-179v700h179v-294l191 294h200l-223 -340z" />
    <glyph glyph-name="Kcommaaccent" unicode="&#x136;" horiz-adv-x="631" 
d="M402 360l233 -360h-200l-201 314v-314h-179v700h179v-294l191 294h200zM231 -277l10 220h154l-35 -220h-129z" />
    <glyph glyph-name="L" unicode="L" horiz-adv-x="470" 
d="M234 173h231v-173h-382h-28v700h179v-527z" />
    <glyph glyph-name="Lacute" unicode="&#x139;" horiz-adv-x="470" 
d="M336 900l-116 -145h-158l80 145h194zM234 173h231v-173h-382h-28v700h179v-527z" />
    <glyph glyph-name="Lcaron" unicode="&#x13d;" horiz-adv-x="470" 
d="M234 173h231v-173h-382h-28v700h179v-527zM454 700l-34 -199h-140l10 199h164z" />
    <glyph glyph-name="Lcommaaccent" unicode="&#x13b;" horiz-adv-x="470" 
d="M234 173h231v-173h-382h-28v700h179v-527zM177 -277l10 220h154l-35 -220h-129z" />
    <glyph glyph-name="Lslash" unicode="&#x141;" horiz-adv-x="495" 
d="M254 173h231v-173h-382h-28v193l-50 -30v177l50 30v330h179v-221l130 79v-177l-130 -79v-129z" />
    <glyph glyph-name="M" unicode="M" horiz-adv-x="839" 
d="M783 700v-700h-178v412l-121 -312h-129l-121 312v-412h-179v700h179h34l151 -386l152 386h212z" />
    <glyph glyph-name="N" unicode="N" horiz-adv-x="655" 
d="M421 700h178v-700h-138l-227 362v-362h-179v700h139l227 -362v362z" />
    <glyph glyph-name="Nacute" unicode="&#x143;" horiz-adv-x="655" 
d="M235 755h158l116 145h-194zM421 700h178v-700h-138l-227 362v-362h-179v700h139l227 -362v362z" />
    <glyph glyph-name="Ncaron" unicode="&#x147;" horiz-adv-x="655" 
d="M237 745l-106 155h150l40 -56l39 56h150l-106 -155h-167zM421 700h178v-700h-138l-227 362v-362h-179v700h139l227 -362v362z" />
    <glyph glyph-name="Ncommaaccent" unicode="&#x145;" horiz-adv-x="655" 
d="M421 700h178v-700h-138l-227 362v-362h-179v700h139l227 -362v362zM378 -277l35 220h-154l-10 -220h129z" />
    <glyph glyph-name="Eng" unicode="&#x14a;" horiz-adv-x="655" 
d="M421 700h178v-700c0 -144 -80 -212 -244 -207v152c49 -2 73 16 73 55v53l-194 309v-362h-179v700h139l227 -362v362z" />
    <glyph glyph-name="Ntilde" unicode="&#xd1;" horiz-adv-x="655" 
d="M145 748c0 169 104 188 190 143c32 -18 49 -26 49 19h120c0 -171 -104 -188 -191 -142c-32 17 -48 25 -48 -20h-120zM421 700h178v-700h-138l-227 362v-362h-179v700h139l227 -362v362z" />
    <glyph glyph-name="O" unicode="O" horiz-adv-x="790" 
d="M395 -15c-204 0 -367 159 -367 365s163 365 367 365s367 -159 367 -365s-163 -365 -367 -365zM395 160c107 0 189 78 189 190s-82 190 -189 190s-189 -78 -189 -190s82 -190 189 -190z" />
    <glyph glyph-name="Oacute" unicode="&#xd3;" horiz-adv-x="790" 
d="M305 765h158l116 145h-194zM395 -15c-204 0 -367 159 -367 365s163 365 367 365s367 -159 367 -365s-163 -365 -367 -365zM395 160c107 0 189 78 189 190s-82 190 -189 190s-189 -78 -189 -190s82 -190 189 -190z" />
    <glyph glyph-name="Ocircumflex" unicode="&#xd4;" horiz-adv-x="790" 
d="M391 811l-40 -56h-150l106 155h153h14l106 -155h-150zM395 715c204 0 367 -159 367 -365s-163 -365 -367 -365s-367 159 -367 365s163 365 367 365zM395 160c107 0 189 78 189 190s-82 190 -189 190s-189 -78 -189 -190s82 -190 189 -190z" />
    <glyph glyph-name="Odieresis" unicode="&#xd6;" horiz-adv-x="790" 
d="M231 760v140h139v-140h-139zM420 760v140h140v-140h-140zM395 -15c-204 0 -367 159 -367 365s163 365 367 365s367 -159 367 -365s-163 -365 -367 -365zM395 160c107 0 189 78 189 190s-82 190 -189 190s-189 -78 -189 -190s82 -190 189 -190z" />
    <glyph glyph-name="Ograve" unicode="&#xd2;" horiz-adv-x="790" 
d="M485 765l-80 145h-194l116 -145h158zM395 -15c-204 0 -367 159 -367 365s163 365 367 365s367 -159 367 -365s-163 -365 -367 -365zM395 160c107 0 189 78 189 190s-82 190 -189 190s-189 -78 -189 -190s82 -190 189 -190z" />
    <glyph glyph-name="Ohungarumlaut" unicode="&#x150;" horiz-adv-x="790" 
d="M206 755h157l86 150h-163zM398 755h158l96 150h-164zM395 -15c-204 0 -367 159 -367 365s163 365 367 365s367 -159 367 -365s-163 -365 -367 -365zM395 160c107 0 189 78 189 190s-82 190 -189 190s-189 -78 -189 -190s82 -190 189 -190z" />
    <glyph glyph-name="Omacron" unicode="&#x14c;" horiz-adv-x="790" 
d="M240 764v130h309v-130h-309zM395 -15c-204 0 -367 159 -367 365s163 365 367 365s367 -159 367 -365s-163 -365 -367 -365zM395 160c107 0 189 78 189 190s-82 190 -189 190s-189 -78 -189 -190s82 -190 189 -190z" />
    <glyph glyph-name="Oslash" unicode="&#xd8;" horiz-adv-x="795" 
d="M658 611c68 -65 109 -157 109 -261c0 -206 -163 -365 -367 -365c-76 0 -147 22 -205 61l-38 -46h-110l83 101c-60 64 -97 151 -97 249c0 206 163 365 367 365c70 0 135 -19 191 -52l30 37h110zM211 350c0 -43 12 -80 32 -111l234 286c-23 10 -49 15 -77 15
c-107 0 -189 -78 -189 -190zM400 160c107 0 189 78 189 190c0 49 -16 92 -43 125l-239 -292c27 -15 59 -23 93 -23z" />
    <glyph glyph-name="Otilde" unicode="&#xd5;" horiz-adv-x="790" 
d="M215 758c0 169 104 188 190 143c32 -18 49 -26 49 19h120c0 -171 -104 -188 -191 -142c-32 17 -48 25 -48 -20h-120zM395 -15c-204 0 -367 159 -367 365s163 365 367 365s367 -159 367 -365s-163 -365 -367 -365zM395 160c107 0 189 78 189 190s-82 190 -189 190
s-189 -78 -189 -190s82 -190 189 -190z" />
    <glyph glyph-name="OE" unicode="&#x152;" horiz-adv-x="932" 
d="M674 168h230v-168h-354h-55c-34 -10 -68 -15 -105 -15c-204 0 -362 159 -362 365s158 365 362 365c37 0 71 -5 105 -15h179h225v-168h-225v-99h200v-159h-200v-106zM495 178v344c-30 12 -66 18 -105 18c-107 0 -184 -78 -184 -190s77 -190 184 -190c39 0 75 6 105 18z
" />
    <glyph glyph-name="P" unicode="P" horiz-adv-x="592" 
d="M327 700c140 0 250 -101 250 -245s-110 -245 -250 -245h-93v-210h-179v700h179h93zM327 380c40 0 71 31 71 75s-31 74 -71 74h-93v-149h93z" />
    <glyph glyph-name="Thorn" unicode="&#xde;" horiz-adv-x="592" 
d="M330 596c137 0 247 -102 247 -246c0 -143 -110 -245 -247 -245h-96v-105h-179v700h179v-104h96zM330 276c37 0 68 30 68 74s-31 75 -68 75h-96v-149h96z" />
    <glyph glyph-name="Q" unicode="Q" horiz-adv-x="795" 
d="M762 350c0 -88 -30 -167 -79 -229l64 -75l-128 -106l-68 78c-48 -21 -100 -33 -156 -33c-204 0 -367 159 -367 365s163 365 367 365s367 -159 367 -365zM395 160c11 0 21 1 31 2l-65 75l129 106l73 -84c13 26 21 57 21 91c0 112 -82 190 -189 190s-189 -78 -189 -190
s82 -190 189 -190z" />
    <glyph glyph-name="R" unicode="R" horiz-adv-x="632" 
d="M450 0l-166 226h-50v-226h-179v700h179h91c142 0 252 -101 252 -242c0 -86 -46 -158 -118 -198l193 -260h-202zM234 535v-153h91c42 -1 73 29 73 76c0 46 -31 77 -73 77h-91z" />
    <glyph glyph-name="Racute" unicode="&#x154;" horiz-adv-x="632" 
d="M464 900l-116 -145h-158l80 145h194zM450 0l-166 226h-50v-226h-179v700h179h91c142 0 252 -101 252 -242c0 -86 -46 -158 -118 -198l193 -260h-202zM234 535v-153h91c42 -1 73 29 73 76c0 46 -31 77 -73 77h-91z" />
    <glyph glyph-name="Rcaron" unicode="&#x158;" horiz-adv-x="632" 
d="M192 745l-106 155h150l40 -56l39 56h150l-106 -155h-167zM450 0l-166 226h-50v-226h-179v700h179h91c142 0 252 -101 252 -242c0 -86 -46 -158 -118 -198l193 -260h-202zM234 535v-153h91c42 -1 73 29 73 76c0 46 -31 77 -73 77h-91z" />
    <glyph glyph-name="Rcommaaccent" unicode="&#x156;" horiz-adv-x="632" 
d="M459 260l193 -260h-202l-166 226h-50v-226h-179v700h179h91c142 0 252 -101 252 -242c0 -86 -46 -158 -118 -198zM234 535v-153h91c42 -1 73 29 73 76c0 46 -31 77 -73 77h-91zM267 -277l10 220h154l-35 -220h-129z" />
    <glyph glyph-name="S" unicode="S" horiz-adv-x="550" 
d="M281 -15c-146 0 -266 70 -266 239h179c0 -49 29 -69 88 -69c53 0 74 21 74 48c0 35 -50 51 -110 70c-98 31 -222 80 -222 227c0 143 112 215 242 215c132 0 249 -70 249 -234h-178c0 40 -22 64 -71 64c-43 0 -63 -20 -63 -45c0 -39 48 -55 110 -76
c97 -31 221 -79 221 -224c0 -143 -112 -215 -253 -215z" />
    <glyph glyph-name="Sacute" unicode="&#x15a;" horiz-adv-x="550" 
d="M181 765h158l116 145h-194zM281 -15c-146 0 -266 70 -266 239h179c0 -49 29 -69 88 -69c53 0 74 21 74 48c0 35 -50 51 -110 70c-98 31 -222 80 -222 227c0 143 112 215 242 215c132 0 249 -70 249 -234h-178c0 40 -22 64 -71 64c-43 0 -63 -20 -63 -45
c0 -39 48 -55 110 -76c97 -31 221 -79 221 -224c0 -143 -112 -215 -253 -215z" />
    <glyph glyph-name="Scaron" unicode="&#x160;" horiz-adv-x="550" 
d="M183 755l-106 155h150l40 -56l39 56h150l-106 -155h-167zM313 424c97 -31 221 -79 221 -224c0 -143 -112 -215 -253 -215c-146 0 -266 70 -266 239h179c0 -49 29 -69 88 -69c53 0 74 21 74 48c0 35 -50 51 -110 70c-98 31 -222 80 -222 227c0 143 112 215 242 215
c132 0 249 -70 249 -234h-178c0 40 -22 64 -71 64c-43 0 -63 -20 -63 -45c0 -39 48 -55 110 -76z" />
    <glyph glyph-name="Scedilla" unicode="&#x15e;" horiz-adv-x="550" 
d="M534 200c0 -117 -75 -186 -179 -208v-38c22 -7 58 -29 58 -77c0 -68 -66 -108 -234 -98v109c65 -5 95 1 95 14c0 12 -21 17 -53 20v67c-117 18 -206 90 -206 235h179c0 -49 29 -69 88 -69c53 0 74 21 74 48c0 35 -50 51 -110 70c-98 31 -222 80 -222 227
c0 143 112 215 242 215c132 0 249 -70 249 -234h-178c0 40 -22 64 -71 64c-43 0 -63 -20 -63 -45c0 -39 48 -55 110 -76c97 -31 221 -79 221 -224z" />
    <glyph glyph-name="Scommaaccent" unicode="&#x218;" horiz-adv-x="550" 
d="M281 -15c-146 0 -266 70 -266 239h179c0 -49 29 -69 88 -69c53 0 74 21 74 48c0 35 -50 51 -110 70c-98 31 -222 80 -222 227c0 143 112 215 242 215c132 0 249 -70 249 -234h-178c0 40 -22 64 -71 64c-43 0 -63 -20 -63 -45c0 -39 48 -55 110 -76
c97 -31 221 -79 221 -224c0 -143 -112 -215 -253 -215zM336 -277l35 220h-154l-10 -220h129z" />
    <glyph glyph-name="T" unicode="T" horiz-adv-x="500" 
d="M492 700v-173h-153v-527h-178v527h-153v173h331h153z" />
    <glyph glyph-name="Tbar" unicode="&#x166;" horiz-adv-x="500" 
d="M492 527h-153v-115h106v-158h-106v-254h-178v254h-106v158h106v115h-153v173h331h153v-173z" />
    <glyph glyph-name="Tcaron" unicode="&#x164;" horiz-adv-x="500" 
d="M162 745l-106 155h150l40 -56l39 56h150l-106 -155h-167zM492 700v-173h-153v-527h-178v527h-153v173h331h153z" />
    <glyph glyph-name="uni0162" unicode="&#x162;" horiz-adv-x="500" 
d="M492 700v-173h-153v-527h-178v527h-153v173h331h153zM166 -277l10 220h154l-35 -220h-129z" />
    <glyph glyph-name="uni021A" unicode="&#x21a;" horiz-adv-x="500" 
d="M492 700v-173h-153v-527h-178v527h-153v173h331h153zM166 -277l10 220h154l-35 -220h-129z" />
    <glyph glyph-name="U" unicode="U" horiz-adv-x="620" 
d="M310 -15c-149 0 -265 80 -265 230v485h179v-458c0 -53 25 -83 86 -83s86 30 86 83v458h179v-485c0 -150 -116 -230 -265 -230z" />
    <glyph glyph-name="Uacute" unicode="&#xda;" horiz-adv-x="620" 
d="M220 755h158l116 145h-194zM310 -15c-149 0 -265 80 -265 230v485h179v-458c0 -53 25 -83 86 -83s86 30 86 83v458h179v-485c0 -150 -116 -230 -265 -230z" />
    <glyph glyph-name="Ucircumflex" unicode="&#xdb;" horiz-adv-x="620" 
d="M306 801l-40 -56h-150l106 155h153h14l106 -155h-150zM396 700h179v-485c0 -150 -116 -230 -265 -230s-265 80 -265 230v485h179v-458c0 -53 25 -83 86 -83s86 30 86 83v458z" />
    <glyph glyph-name="Udieresis" unicode="&#xdc;" horiz-adv-x="620" 
d="M146 750v140h139v-140h-139zM335 750v140h140v-140h-140zM310 -15c-149 0 -265 80 -265 230v485h179v-458c0 -53 25 -83 86 -83s86 30 86 83v458h179v-485c0 -150 -116 -230 -265 -230z" />
    <glyph glyph-name="Ugrave" unicode="&#xd9;" horiz-adv-x="620" 
d="M400 755l-80 145h-194l116 -145h158zM310 -15c-149 0 -265 80 -265 230v485h179v-458c0 -53 25 -83 86 -83s86 30 86 83v458h179v-485c0 -150 -116 -230 -265 -230z" />
    <glyph glyph-name="Uhungarumlaut" unicode="&#x170;" horiz-adv-x="620" 
d="M121 745h157l86 150h-163zM313 745h158l96 150h-164zM310 -15c-149 0 -265 80 -265 230v485h179v-458c0 -53 25 -83 86 -83s86 30 86 83v458h179v-485c0 -150 -116 -230 -265 -230z" />
    <glyph glyph-name="Umacron" unicode="&#x16a;" horiz-adv-x="620" 
d="M155 754v130h309v-130h-309zM310 -15c-149 0 -265 80 -265 230v485h179v-458c0 -53 25 -83 86 -83s86 30 86 83v458h179v-485c0 -150 -116 -230 -265 -230z" />
    <glyph glyph-name="Uogonek" unicode="&#x172;" horiz-adv-x="620" 
d="M396 700h179v-485c0 -72 -27 -128 -72 -167c-69 -60 -91 -91 -91 -126c-1 -15 7 -23 22 -23c6 -1 13 1 21 3v-99c-27 -11 -53 -17 -88 -17c-58 0 -105 28 -105 91c0 33 18 72 48 108c-149 0 -265 80 -265 230v485h179v-458c0 -53 25 -83 86 -83s86 30 86 83v458z" />
    <glyph glyph-name="Uring" unicode="&#x16e;" horiz-adv-x="620" 
d="M310 733c-82 0 -140 56 -140 132c0 75 58 132 140 132c85 0 141 -57 141 -132c0 -76 -56 -132 -141 -132zM310 833c23 0 34 14 34 32s-11 32 -34 32c-21 0 -33 -14 -33 -32s12 -32 33 -32zM310 -15c-149 0 -265 80 -265 230v485h179v-458c0 -53 25 -83 86 -83
s86 30 86 83v458h179v-485c0 -150 -116 -230 -265 -230z" />
    <glyph glyph-name="V" unicode="V" horiz-adv-x="640" 
d="M213 0l-218 700h194l131 -492l131 492h194l-218 -700h-214z" />
    <glyph glyph-name="W" unicode="W" horiz-adv-x="900" 
d="M718 700h187l-196 -700h-179l-80 291l-80 -291h-179l-196 700h187l112 -447l83 304l-40 143h167l107 -434z" />
    <glyph glyph-name="Wacute" unicode="&#x1e82;" horiz-adv-x="900" 
d="M634 900l-116 -145h-158l80 145h194zM718 700h187l-196 -700h-179l-80 291l-80 -291h-179l-196 700h187l112 -447l83 304l-40 143h167l107 -434z" />
    <glyph glyph-name="Wcircumflex" unicode="&#x174;" horiz-adv-x="900" 
d="M446 801l-40 -56h-150l106 155h153h14l106 -155h-150zM718 700h187l-196 -700h-179l-80 291l-80 -291h-179l-196 700h187l112 -447l83 304l-40 143h167l107 -434z" />
    <glyph glyph-name="Wdieresis" unicode="&#x1e84;" horiz-adv-x="900" 
d="M425 890v-140h-139v140h139zM615 890v-140h-140v140h140zM718 700h187l-196 -700h-179l-80 291l-80 -291h-179l-196 700h187l112 -447l83 304l-40 143h167l107 -434z" />
    <glyph glyph-name="Wgrave" unicode="&#x1e80;" horiz-adv-x="900" 
d="M540 755h-158l-116 145h194zM718 700h187l-196 -700h-179l-80 291l-80 -291h-179l-196 700h187l112 -447l83 304l-40 143h167l107 -434z" />
    <glyph glyph-name="X" unicode="X" horiz-adv-x="622" 
d="M616 0h-200l-105 182l-105 -182h-201l206 357l-198 343h201l97 -169l97 169h201l-198 -343z" />
    <glyph glyph-name="Y" unicode="Y" horiz-adv-x="631" 
d="M631 700l-226 -395v-305h-179v305l-226 395h201l114 -225l115 225h201z" />
    <glyph glyph-name="Yacute" unicode="&#xdd;" horiz-adv-x="631" 
d="M499 900l-116 -145h-158l80 145h194zM631 700l-226 -395v-305h-179v305l-226 395h201l114 -225l115 225h201z" />
    <glyph glyph-name="Ycircumflex" unicode="&#x176;" horiz-adv-x="631" 
d="M311 801l-40 -56h-150l106 155h153h14l106 -155h-150zM631 700l-226 -395v-305h-179v305l-226 395h201l114 -225l115 225h201z" />
    <glyph glyph-name="Ydieresis" unicode="&#x178;" horiz-adv-x="631" 
d="M290 890v-140h-139v140h139zM480 890v-140h-140v140h140zM631 700l-226 -395v-305h-179v305l-226 395h201l114 -225l115 225h201z" />
    <glyph glyph-name="Ygrave" unicode="&#x1ef2;" horiz-adv-x="631" 
d="M405 755h-158l-116 145h194zM631 700l-226 -395v-305h-179v305l-226 395h201l114 -225l115 225h201z" />
    <glyph glyph-name="Z" unicode="Z" horiz-adv-x="542" 
d="M266 173h254v-173h-487v138l246 389h-241v173h474v-138z" />
    <glyph glyph-name="Zacute" unicode="&#x179;" horiz-adv-x="542" 
d="M462 900l-116 -145h-158l80 145h194zM266 173h254v-173h-487v138l246 389h-241v173h474v-138z" />
    <glyph glyph-name="Zcaron" unicode="&#x17d;" horiz-adv-x="542" 
d="M189 745l-106 155h150l40 -56l39 56h150l-106 -155h-167zM266 173h254v-173h-487v138l246 389h-241v173h474v-138z" />
    <glyph glyph-name="Zdotaccent" unicode="&#x17b;" horiz-adv-x="542" 
d="M357 902v-154h-159v154h159zM266 173h254v-173h-487v138l246 389h-241v173h474v-138z" />
    <glyph glyph-name="a" unicode="a" horiz-adv-x="513" 
d="M262 514c110 0 213 -64 213 -199v-315h-160v34c-28 -29 -63 -48 -122 -48c-93 0 -168 52 -168 156s77 156 170 156c57 0 93 -15 120 -34v46c0 36 -16 56 -53 56s-53 -20 -53 -43h-160c0 127 103 191 213 191zM251 96c39 0 64 19 64 46c0 29 -25 46 -64 46
s-59 -19 -59 -46s20 -46 59 -46z" />
    <glyph glyph-name="aacute" unicode="&#xe1;" horiz-adv-x="513" 
d="M446 710l-116 -145h-158l80 145h194zM262 514c110 0 213 -64 213 -199v-315h-160v34c-28 -29 -63 -48 -122 -48c-93 0 -168 52 -168 156s77 156 170 156c57 0 93 -15 120 -34v46c0 36 -16 56 -53 56s-53 -20 -53 -43h-160c0 127 103 191 213 191zM251 96
c39 0 64 19 64 46c0 29 -25 46 -64 46s-59 -19 -59 -46s20 -46 59 -46z" />
    <glyph glyph-name="abreve" unicode="&#x103;" horiz-adv-x="513" 
d="M261 547c-115 0 -179 56 -179 160h140c0 -28 13 -44 39 -44s40 16 40 44h140c0 -104 -64 -160 -180 -160zM262 514c110 0 213 -64 213 -199v-315h-160v34c-28 -29 -63 -48 -122 -48c-93 0 -168 52 -168 156s77 156 170 156c57 0 93 -15 120 -34v46c0 36 -16 56 -53 56
s-53 -20 -53 -43h-160c0 127 103 191 213 191zM251 96c39 0 64 19 64 46c0 29 -25 46 -64 46s-59 -19 -59 -46s20 -46 59 -46z" />
    <glyph glyph-name="acircumflex" unicode="&#xe2;" horiz-adv-x="513" 
d="M258 611l-40 -56h-150l106 155h153h14l106 -155h-150zM262 514c110 0 213 -64 213 -199v-315h-160v34c-28 -29 -63 -48 -122 -48c-93 0 -168 52 -168 156s77 156 170 156c57 0 93 -15 120 -34v46c0 36 -16 56 -53 56s-53 -20 -53 -43h-160c0 127 103 191 213 191zM251 96
c39 0 64 19 64 46c0 29 -25 46 -64 46s-59 -19 -59 -46s20 -46 59 -46z" />
    <glyph glyph-name="adieresis" unicode="&#xe4;" horiz-adv-x="513" 
d="M237 700v-140h-139v140h139zM427 700v-140h-140v140h140zM262 514c110 0 213 -64 213 -199v-315h-160v34c-28 -29 -63 -48 -122 -48c-93 0 -168 52 -168 156s77 156 170 156c57 0 93 -15 120 -34v46c0 36 -16 56 -53 56s-53 -20 -53 -43h-160c0 127 103 191 213 191z
M251 96c39 0 64 19 64 46c0 29 -25 46 -64 46s-59 -19 -59 -46s20 -46 59 -46z" />
    <glyph glyph-name="agrave" unicode="&#xe0;" horiz-adv-x="513" 
d="M352 565h-158l-116 145h194zM262 514c110 0 213 -64 213 -199v-315h-160v34c-28 -29 -63 -48 -122 -48c-93 0 -168 52 -168 156s77 156 170 156c57 0 93 -15 120 -34v46c0 36 -16 56 -53 56s-53 -20 -53 -43h-160c0 127 103 191 213 191zM251 96c39 0 64 19 64 46
c0 29 -25 46 -64 46s-59 -19 -59 -46s20 -46 59 -46z" />
    <glyph glyph-name="amacron" unicode="&#x101;" horiz-adv-x="513" 
d="M416 694v-130h-309v130h309zM262 514c110 0 213 -64 213 -199v-315h-160v34c-28 -29 -63 -48 -122 -48c-93 0 -168 52 -168 156s77 156 170 156c57 0 93 -15 120 -34v46c0 36 -16 56 -53 56s-53 -20 -53 -43h-160c0 127 103 191 213 191zM251 96c39 0 64 19 64 46
c0 29 -25 46 -64 46s-59 -19 -59 -46s20 -46 59 -46z" />
    <glyph glyph-name="aogonek" unicode="&#x105;" horiz-adv-x="513" 
d="M475 0c-29 -31 -43 -59 -43 -78c-1 -15 7 -23 22 -23c6 -1 13 1 21 3v-99c-27 -11 -53 -17 -88 -17c-58 0 -105 28 -105 91c0 38 24 83 62 123h-29v34c-28 -29 -63 -48 -122 -48c-93 0 -168 52 -168 156s77 156 170 156c57 0 93 -15 120 -34v46c0 36 -16 56 -53 56
s-53 -20 -53 -43h-160c0 127 103 191 213 191s213 -64 213 -199v-315zM251 96c39 0 64 19 64 46c0 29 -25 46 -64 46s-59 -19 -59 -46s20 -46 59 -46z" />
    <glyph glyph-name="aring" unicode="&#xe5;" horiz-adv-x="513" 
d="M262 543c-82 0 -140 56 -140 132c0 75 58 132 140 132c85 0 141 -57 141 -132c0 -76 -56 -132 -141 -132zM262 707c-21 0 -33 -14 -33 -32s12 -32 33 -32c23 0 34 14 34 32s-11 32 -34 32zM262 514c110 0 213 -64 213 -199v-315h-160v34c-28 -29 -63 -48 -122 -48
c-93 0 -168 52 -168 156s77 156 170 156c57 0 93 -15 120 -34v46c0 36 -16 56 -53 56s-53 -20 -53 -43h-160c0 127 103 191 213 191zM251 96c39 0 64 19 64 46c0 29 -25 46 -64 46s-59 -19 -59 -46s20 -46 59 -46z" />
    <glyph glyph-name="atilde" unicode="&#xe3;" horiz-adv-x="513" 
d="M250 578c-32 17 -48 25 -48 -20h-120c0 169 104 188 190 143c32 -18 49 -26 49 19h120c0 -171 -104 -188 -191 -142zM262 514c110 0 213 -64 213 -199v-315h-160v34c-28 -29 -63 -48 -122 -48c-93 0 -168 52 -168 156s77 156 170 156c57 0 93 -15 120 -34v46
c0 36 -16 56 -53 56s-53 -20 -53 -43h-160c0 127 103 191 213 191zM251 96c39 0 64 19 64 46c0 29 -25 46 -64 46s-59 -19 -59 -46s20 -46 59 -46z" />
    <glyph glyph-name="ae" unicode="&#xe6;" horiz-adv-x="828" 
d="M484 189c15 -55 52 -75 92 -75c32 0 47 14 58 32h156c-28 -110 -114 -159 -202 -159c-76 0 -132 28 -170 75c-34 -47 -94 -76 -188 -76c-125 0 -205 57 -205 156c0 105 77 156 170 156c57 0 93 -15 120 -34v46c0 36 -16 56 -53 56s-53 -20 -53 -43h-160
c0 127 98 191 201 191c70 0 130 -27 166 -78c37 48 93 78 165 78c133 0 224 -113 224 -263c0 -21 -2 -41 -7 -62h-314zM483 305h164c-11 51 -44 69 -78 69c-45 0 -74 -23 -86 -69zM251 96c39 0 64 19 64 46c0 29 -25 46 -64 46s-59 -19 -59 -46s20 -46 59 -46z" />
    <glyph glyph-name="b" unicode="b" horiz-adv-x="615" 
d="M352 514c133 0 239 -114 239 -264s-106 -264 -239 -264c-61 0 -105 19 -138 51v-37h-166v700h166v-237c33 32 77 51 138 51zM319 143c62 0 105 42 105 107s-43 107 -105 107s-105 -42 -105 -107s43 -107 105 -107z" />
    <glyph glyph-name="c" unicode="c" horiz-adv-x="559" 
d="M546 199c-18 -124 -125 -213 -256 -213c-152 0 -266 115 -266 264s114 264 266 264c131 0 238 -89 256 -213h-173c-12 31 -44 51 -83 51c-56 0 -99 -42 -99 -102s43 -102 99 -102c39 0 72 20 83 51h173z" />
    <glyph glyph-name="cacute" unicode="&#x107;" horiz-adv-x="559" 
d="M201 560h158l116 145h-194zM546 199c-18 -124 -125 -213 -256 -213c-152 0 -266 115 -266 264s114 264 266 264c131 0 238 -89 256 -213h-173c-12 31 -44 51 -83 51c-56 0 -99 -42 -99 -102s43 -102 99 -102c39 0 72 20 83 51h173z" />
    <glyph glyph-name="ccaron" unicode="&#x10d;" horiz-adv-x="559" 
d="M203 550l-106 155h150l40 -56l39 56h150l-106 -155h-167zM290 148c39 0 72 20 83 51h173c-18 -124 -125 -213 -256 -213c-152 0 -266 115 -266 264s114 264 266 264c131 0 238 -89 256 -213h-173c-12 31 -44 51 -83 51c-56 0 -99 -42 -99 -102s43 -102 99 -102z" />
    <glyph glyph-name="ccedilla" unicode="&#xe7;" horiz-adv-x="559" 
d="M290 148c39 0 72 20 83 51h173c-14 -100 -87 -177 -183 -203v-42c22 -7 58 -29 58 -77c0 -68 -66 -108 -234 -98v109c65 -5 95 1 95 14c0 12 -21 17 -53 20v70c-121 27 -205 129 -205 258c0 149 114 264 266 264c131 0 238 -89 256 -213h-173c-12 31 -44 51 -83 51
c-56 0 -99 -42 -99 -102s43 -102 99 -102z" />
    <glyph glyph-name="cdotaccent" unicode="&#x10b;" horiz-adv-x="559" 
d="M211 553v154h159v-154h-159zM546 199c-18 -124 -125 -213 -256 -213c-152 0 -266 115 -266 264s114 264 266 264c131 0 238 -89 256 -213h-173c-12 31 -44 51 -83 51c-56 0 -99 -42 -99 -102s43 -102 99 -102c39 0 72 20 83 51h173z" />
    <glyph glyph-name="d" unicode="d" horiz-adv-x="615" 
d="M401 700h166v-700h-166v37c-32 -32 -77 -51 -138 -51c-133 0 -239 114 -239 264s106 264 239 264c61 0 106 -19 138 -51v237zM296 143c62 0 105 42 105 107s-43 107 -105 107s-105 -42 -105 -107s43 -107 105 -107z" />
    <glyph glyph-name="eth" unicode="&#xf0;" horiz-adv-x="564" 
d="M494 370c27 -37 46 -85 46 -140c0 -153 -124 -244 -258 -244c-139 0 -258 91 -258 244c0 116 90 215 207 227l-38 52l-127 -49v118l61 24l-70 98h191l29 -39l130 51v-119l-62 -24zM282 138c54 0 91 32 91 90c0 21 -8 41 -16 52c-17 22 -41 34 -75 34
c-54 0 -91 -32 -91 -86c0 -58 37 -90 91 -90z" />
    <glyph glyph-name="dcaron" unicode="&#x10f;" horiz-adv-x="755" 
d="M401 463v237h166v-700h-166v37c-32 -32 -77 -51 -138 -51c-133 0 -239 114 -239 264s106 264 239 264c61 0 106 -19 138 -51zM616 700h154l-35 -219h-129zM296 143c62 0 105 42 105 107s-43 107 -105 107s-105 -42 -105 -107s43 -107 105 -107z" />
    <glyph glyph-name="dcroat" unicode="&#x111;" horiz-adv-x="625" 
d="M625 645v-106h-58v-539h-166v37c-32 -32 -77 -51 -138 -51c-133 0 -239 114 -239 259c0 146 106 260 239 260c61 0 106 -19 138 -51v85h-136v106h136v55h166v-55h58zM296 141c62 0 105 42 105 104c0 63 -43 105 -105 105s-105 -42 -105 -105c0 -62 43 -104 105 -104z" />
    <glyph glyph-name="e" unicode="e" horiz-adv-x="568" 
d="M194 189c19 -55 62 -75 106 -75c32 0 62 14 73 32h156c-33 -110 -126 -160 -236 -160c-164 0 -269 115 -269 264s109 264 268 264c146 0 252 -113 252 -263c0 -21 -2 -41 -7 -62h-343zM193 305h191c-13 51 -51 69 -91 69c-49 0 -85 -23 -100 -69z" />
    <glyph glyph-name="eacute" unicode="&#xe9;" horiz-adv-x="568" 
d="M476 707l-116 -145h-158l80 145h194zM194 189c19 -55 62 -75 106 -75c32 0 62 14 73 32h156c-33 -110 -126 -160 -236 -160c-164 0 -269 115 -269 264s109 264 268 264c146 0 252 -113 252 -263c0 -21 -2 -41 -7 -62h-343zM193 305h191c-13 51 -51 69 -91 69
c-49 0 -85 -23 -100 -69z" />
    <glyph glyph-name="ecaron" unicode="&#x11b;" horiz-adv-x="568" 
d="M204 552l-106 155h150l40 -56l39 56h150l-106 -155h-167zM194 189c19 -55 62 -75 106 -75c32 0 62 14 73 32h156c-33 -110 -126 -160 -236 -160c-164 0 -269 115 -269 264s109 264 268 264c146 0 252 -113 252 -263c0 -21 -2 -41 -7 -62h-343zM193 305h191
c-13 51 -51 69 -91 69c-49 0 -85 -23 -100 -69z" />
    <glyph glyph-name="ecircumflex" unicode="&#xea;" horiz-adv-x="568" 
d="M288 608l-40 -56h-150l106 155h153h14l106 -155h-150zM194 189c19 -55 62 -75 106 -75c32 0 62 14 73 32h156c-33 -110 -126 -160 -236 -160c-164 0 -269 115 -269 264s109 264 268 264c146 0 252 -113 252 -263c0 -21 -2 -41 -7 -62h-343zM193 305h191
c-13 51 -51 69 -91 69c-49 0 -85 -23 -100 -69z" />
    <glyph glyph-name="edieresis" unicode="&#xeb;" horiz-adv-x="568" 
d="M267 697v-140h-139v140h139zM457 697v-140h-140v140h140zM194 189c19 -55 62 -75 106 -75c32 0 62 14 73 32h156c-33 -110 -126 -160 -236 -160c-164 0 -269 115 -269 264s109 264 268 264c146 0 252 -113 252 -263c0 -21 -2 -41 -7 -62h-343zM193 305h191
c-13 51 -51 69 -91 69c-49 0 -85 -23 -100 -69z" />
    <glyph glyph-name="edotaccent" unicode="&#x117;" horiz-adv-x="568" 
d="M371 709v-154h-159v154h159zM194 189c19 -55 62 -75 106 -75c32 0 62 14 73 32h156c-33 -110 -126 -160 -236 -160c-164 0 -269 115 -269 264s109 264 268 264c146 0 252 -113 252 -263c0 -21 -2 -41 -7 -62h-343zM193 305h191c-13 51 -51 69 -91 69
c-49 0 -85 -23 -100 -69z" />
    <glyph glyph-name="egrave" unicode="&#xe8;" horiz-adv-x="568" 
d="M382 562h-158l-116 145h194zM194 189c19 -55 62 -75 106 -75c32 0 62 14 73 32h156c-33 -110 -126 -160 -236 -160c-164 0 -269 115 -269 264s109 264 268 264c146 0 252 -113 252 -263c0 -21 -2 -41 -7 -62h-343zM193 305h191c-13 51 -51 69 -91 69
c-49 0 -85 -23 -100 -69z" />
    <glyph glyph-name="emacron" unicode="&#x113;" horiz-adv-x="568" 
d="M446 691v-130h-309v130h309zM194 189c19 -55 62 -75 106 -75c32 0 62 14 73 32h156c-33 -110 -126 -160 -236 -160c-164 0 -269 115 -269 264s109 264 268 264c146 0 252 -113 252 -263c0 -21 -2 -41 -7 -62h-343zM193 305h191c-13 51 -51 69 -91 69
c-49 0 -85 -23 -100 -69z" />
    <glyph glyph-name="eogonek" unicode="&#x119;" horiz-adv-x="568" 
d="M194 189c19 -55 62 -75 106 -75c32 0 62 14 73 32h156c-13 -44 -36 -78 -66 -104c-56 -71 -64 -103 -64 -120c-1 -15 7 -23 21 -23c7 -1 14 1 22 3v-99c-27 -11 -53 -17 -88 -17c-58 0 -105 28 -105 91c0 34 22 73 69 110c-9 -1 -17 -1 -25 -1c-164 0 -269 115 -269 264
s109 264 268 264c146 0 252 -113 252 -263c0 -21 -2 -41 -7 -62h-343zM193 305h191c-13 51 -51 69 -91 69c-49 0 -85 -23 -100 -69z" />
    <glyph glyph-name="f" unicode="f" horiz-adv-x="315" 
d="M315 561c-54 4 -86 -15 -86 -61h86v-159h-86v-341h-166v341h-63v159h63c0 140 81 225 252 215v-154z" />
    <glyph glyph-name="g" unicode="g" horiz-adv-x="616" 
d="M406 500h164v-480c0 -167 -134 -235 -259 -235c-131 0 -257 60 -257 207h166c0 -39 36 -62 91 -62c54 0 95 28 95 90v38c-32 -32 -78 -52 -139 -52c-134 0 -239 114 -239 254s105 254 239 254c61 0 107 -20 139 -52v38zM300 158c63 0 106 42 106 102s-43 102 -106 102
s-106 -42 -106 -102s43 -102 106 -102z" />
    <glyph glyph-name="gbreve" unicode="&#x11f;" horiz-adv-x="616" 
d="M302 547c-115 0 -179 56 -179 160h140c0 -28 13 -44 39 -44s40 16 40 44h140c0 -104 -64 -160 -180 -160zM406 500h164v-480c0 -167 -134 -235 -259 -235c-131 0 -257 60 -257 207h166c0 -39 36 -62 91 -62c54 0 95 28 95 90v38c-32 -32 -78 -52 -139 -52
c-134 0 -239 114 -239 254s105 254 239 254c61 0 107 -20 139 -52v38zM300 158c63 0 106 42 106 102s-43 102 -106 102s-106 -42 -106 -102s43 -102 106 -102z" />
    <glyph glyph-name="gcommaaccent" unicode="&#x123;" horiz-adv-x="616" 
d="M377 795l-10 -220h-154l35 220h129zM406 500h164v-480c0 -167 -134 -235 -259 -235c-131 0 -257 60 -257 207h166c0 -39 36 -62 91 -62c54 0 95 28 95 90v38c-32 -32 -78 -52 -139 -52c-134 0 -239 114 -239 254s105 254 239 254c61 0 107 -20 139 -52v38zM300 158
c63 0 106 42 106 102s-43 102 -106 102s-106 -42 -106 -102s43 -102 106 -102z" />
    <glyph glyph-name="gdotaccent" unicode="&#x121;" horiz-adv-x="616" 
d="M382 712v-154h-159v154h159zM406 500h164v-480c0 -167 -134 -235 -259 -235c-131 0 -257 60 -257 207h166c0 -39 36 -62 91 -62c54 0 95 28 95 90v38c-32 -32 -78 -52 -139 -52c-134 0 -239 114 -239 254s105 254 239 254c61 0 107 -20 139 -52v38zM300 158
c63 0 106 42 106 102s-43 102 -106 102s-106 -42 -106 -102s43 -102 106 -102z" />
    <glyph glyph-name="h" unicode="h" 
d="M337 514c93 0 160 -71 160 -196v-318h-166v299c0 39 -22 58 -55 58c-41 0 -62 -25 -62 -70v-287h-166v700h166v-242c25 33 66 56 123 56z" />
    <glyph glyph-name="hbar" unicode="&#x127;" horiz-adv-x="546" 
d="M347 502c93 0 160 -71 160 -196v-306h-166v288c0 38 -22 58 -56 58c-40 0 -61 -25 -61 -70v-276h-166v539h-58v106h58v55h166v-55h135v-106h-135v-93c25 34 66 56 123 56z" />
    <glyph glyph-name="i" unicode="i" horiz-adv-x="262" 
d="M48 555v145h166v-145h-166zM48 0v500h166v-500h-166z" />
    <glyph glyph-name="dotlessi" unicode="&#x131;" horiz-adv-x="262" 
d="M48 0v500h166v-500h-166z" />
    <glyph glyph-name="iacute" unicode="&#xed;" horiz-adv-x="262" 
d="M48 550h158l71 150h-189zM48 0v500h166v-500h-166z" />
    <glyph glyph-name="icircumflex" unicode="&#xee;" horiz-adv-x="262" 
d="M131 594l-30 -49h-145l92 155h148h18l92 -155h-145zM48 0v500h166v-500h-166z" />
    <glyph glyph-name="idieresis" unicode="&#xef;" horiz-adv-x="262" 
d="M-26 553v134h134v-134h-134zM154 553v134h134v-134h-134zM48 0v500h166v-500h-166z" />
    <glyph glyph-name="i.loclTRK" horiz-adv-x="262" 
d="M51 548v154h159v-154h-159zM48 0v500h166v-500h-166z" />
    <glyph glyph-name="igrave" unicode="&#xec;" horiz-adv-x="262" 
d="M209 550l-40 150h-188l70 -150h158zM214 0h-166v500h166v-500z" />
    <glyph glyph-name="imacron" unicode="&#x12b;" horiz-adv-x="262" 
d="M2 554v135h259v-135h-259zM48 0v500h166v-500h-166z" />
    <glyph glyph-name="iogonek" unicode="&#x12f;" horiz-adv-x="262" 
d="M214 700v-145h-166v145h166zM204 -101c6 -1 13 1 21 3v-99c-27 -11 -53 -17 -88 -17c-57 0 -105 28 -105 91c0 38 16 83 44 123h-28v500h166v-500c-21 -30 -32 -59 -32 -78c0 -15 8 -23 22 -23z" />
    <glyph glyph-name="j" unicode="j" horiz-adv-x="277" 
d="M63 700h166v-145h-166v145zM63 0v500h166v-500c0 -157 -75 -224 -239 -215v154c50 -3 73 15 73 61z" />
    <glyph glyph-name="k" unicode="k" horiz-adv-x="537" 
d="M537 0h-187l-136 211v-211h-166v700h166v-408l126 208h187l-160 -250z" />
    <glyph glyph-name="kcommaaccent" unicode="&#x137;" horiz-adv-x="537" 
d="M214 211v-211h-166v700h166v-408l126 208h187l-160 -250l170 -250h-187zM204 -277l10 220h154l-35 -220h-129z" />
    <glyph glyph-name="l" unicode="l" horiz-adv-x="262" 
d="M48 0v720h166v-720h-166z" />
    <glyph glyph-name="lacute" unicode="&#x13a;" horiz-adv-x="262" 
d="M46 755h158l116 145h-194zM48 0v720h166v-720h-166z" />
    <glyph glyph-name="lcaron" unicode="&#x13e;" horiz-adv-x="400" 
d="M48 0v720h166v-720h-166zM380 501l34 219h-154l-10 -219h130z" />
    <glyph glyph-name="lcommaaccent" unicode="&#x13c;" horiz-adv-x="262" 
d="M48 0v720h166v-720h-166zM174 -277l35 220h-154l-10 -220h129z" />
    <glyph glyph-name="lslash" unicode="&#x142;" horiz-adv-x="279" 
d="M274 507v-157l-51 -32v-318h-166v212l-52 -33v157l52 33v351h166v-245z" />
    <glyph glyph-name="m" unicode="m" horiz-adv-x="768" 
d="M572 514c98 0 158 -63 158 -183v-331h-167v312c0 33 -19 45 -42 45c-30 0 -49 -19 -49 -59v-298h-166v312c0 33 -20 45 -43 45c-30 0 -49 -19 -49 -59v-298h-166v500h166v-42c25 33 65 56 115 56s89 -20 114 -60c32 36 74 60 129 60z" />
    <glyph glyph-name="n" unicode="n" 
d="M337 514c93 0 160 -71 160 -196v-318h-166v299c0 39 -22 58 -55 58c-41 0 -62 -25 -62 -70v-287h-166v500h166v-42c25 33 66 56 123 56z" />
    <glyph glyph-name="nacute" unicode="&#x144;" 
d="M457 710l-116 -145h-158l80 145h194zM337 514c93 0 160 -71 160 -196v-318h-166v299c0 39 -22 58 -55 58c-41 0 -62 -25 -62 -70v-287h-166v500h166v-42c25 33 66 56 123 56z" />
    <glyph glyph-name="ncaron" unicode="&#x148;" 
d="M185 555l-106 155h150l40 -56l39 56h150l-106 -155h-167zM337 514c93 0 160 -71 160 -196v-318h-166v299c0 39 -22 58 -55 58c-41 0 -62 -25 -62 -70v-287h-166v500h166v-42c25 33 66 56 123 56z" />
    <glyph glyph-name="ncommaaccent" unicode="&#x146;" 
d="M337 514c93 0 160 -71 160 -196v-318h-166v299c0 39 -22 58 -55 58c-41 0 -62 -25 -62 -70v-287h-166v500h166v-42c25 33 66 56 123 56zM199 -277l10 220h154l-35 -220h-129z" />
    <glyph glyph-name="eng" unicode="&#x14b;" 
d="M337 514c93 0 160 -71 160 -196v-318c0 -146 -69 -220 -224 -209v150c36 -3 58 11 58 59v299c0 39 -22 58 -55 58c-41 0 -62 -25 -62 -70v-287h-166v500h166v-42c25 33 66 56 123 56z" />
    <glyph glyph-name="ntilde" unicode="&#xf1;" 
d="M261 578c-32 17 -48 25 -48 -20h-120c0 169 104 188 190 143c32 -18 49 -26 49 19h120c0 -171 -104 -188 -191 -142zM337 514c93 0 160 -71 160 -196v-318h-166v299c0 39 -22 58 -55 58c-41 0 -62 -25 -62 -70v-287h-166v500h166v-42c25 33 66 56 123 56z" />
    <glyph glyph-name="o" unicode="o" horiz-adv-x="583" 
d="M291 -14c-147 0 -267 115 -267 264s119 264 267 264c149 0 267 -115 267 -264s-118 -264 -267 -264zM291 146c58 0 101 42 101 104s-43 104 -101 104c-57 0 -100 -42 -100 -104s43 -104 100 -104z" />
    <glyph glyph-name="oacute" unicode="&#xf3;" horiz-adv-x="583" 
d="M201 565h158l116 145h-194zM291 -14c-147 0 -267 115 -267 264s119 264 267 264c149 0 267 -115 267 -264s-118 -264 -267 -264zM291 146c58 0 101 42 101 104s-43 104 -101 104c-57 0 -100 -42 -100 -104s43 -104 100 -104z" />
    <glyph glyph-name="ocircumflex" unicode="&#xf4;" horiz-adv-x="583" 
d="M287 611l-40 -56h-150l106 155h153h14l106 -155h-150zM291 514c149 0 267 -115 267 -264s-118 -264 -267 -264c-147 0 -267 115 -267 264s119 264 267 264zM291 146c58 0 101 42 101 104s-43 104 -101 104c-57 0 -100 -42 -100 -104s43 -104 100 -104z" />
    <glyph glyph-name="odieresis" unicode="&#xf6;" horiz-adv-x="583" 
d="M127 560v140h139v-140h-139zM316 560v140h140v-140h-140zM291 -14c-147 0 -267 115 -267 264s119 264 267 264c149 0 267 -115 267 -264s-118 -264 -267 -264zM291 146c58 0 101 42 101 104s-43 104 -101 104c-57 0 -100 -42 -100 -104s43 -104 100 -104z" />
    <glyph glyph-name="ograve" unicode="&#xf2;" horiz-adv-x="583" 
d="M381 565l-80 145h-194l116 -145h158zM291 -14c-147 0 -267 115 -267 264s119 264 267 264c149 0 267 -115 267 -264s-118 -264 -267 -264zM291 146c58 0 101 42 101 104s-43 104 -101 104c-57 0 -100 -42 -100 -104s43 -104 100 -104z" />
    <glyph glyph-name="ohungarumlaut" unicode="&#x151;" horiz-adv-x="583" 
d="M102 555h157l86 150h-163zM294 555h158l96 150h-164zM291 -14c-147 0 -267 115 -267 264s119 264 267 264c149 0 267 -115 267 -264s-118 -264 -267 -264zM291 146c58 0 101 42 101 104s-43 104 -101 104c-57 0 -100 -42 -100 -104s43 -104 100 -104z" />
    <glyph glyph-name="omacron" unicode="&#x14d;" horiz-adv-x="583" 
d="M137 564v130h309v-130h-309zM291 -14c-147 0 -267 115 -267 264s119 264 267 264c149 0 267 -115 267 -264s-118 -264 -267 -264zM291 146c58 0 101 42 101 104s-43 104 -101 104c-57 0 -100 -42 -100 -104s43 -104 100 -104z" />
    <glyph glyph-name="oslash" unicode="&#xf8;" horiz-adv-x="583" 
d="M479 440c49 -48 79 -114 79 -190c0 -149 -118 -264 -267 -264c-54 0 -104 15 -145 42l-23 -28h-81l55 68c-45 46 -73 110 -73 182c0 149 119 264 267 264c51 0 98 -13 138 -37l18 23h81zM191 250c0 -20 4 -37 12 -52l122 151c-11 3 -22 5 -34 5c-57 0 -100 -42 -100 -104
zM291 146c58 0 101 42 101 104c0 24 -6 44 -17 61l-127 -156c13 -6 28 -9 43 -9z" />
    <glyph glyph-name="otilde" unicode="&#xf5;" horiz-adv-x="583" 
d="M112 558c0 169 104 188 190 143c32 -18 49 -26 49 19h120c0 -171 -104 -188 -191 -142c-32 17 -48 25 -48 -20h-120zM291 -14c-147 0 -267 115 -267 264s119 264 267 264c149 0 267 -115 267 -264s-118 -264 -267 -264zM291 146c58 0 101 42 101 104s-43 104 -101 104
c-57 0 -100 -42 -100 -104s43 -104 100 -104z" />
    <glyph glyph-name="oe" unicode="&#x153;" horiz-adv-x="934" 
d="M560 189c19 -55 62 -75 106 -75c32 0 62 14 73 32h156c-33 -110 -123 -160 -229 -160c-86 0 -151 34 -192 88c-42 -54 -107 -88 -190 -88c-153 0 -260 122 -260 263c0 142 106 265 260 265c83 0 148 -34 190 -89c42 55 108 89 192 89c141 0 244 -113 244 -263
c0 -21 -2 -41 -7 -62h-343zM559 305h191c-13 51 -51 69 -91 69c-49 0 -85 -23 -100 -69zM291 146c58 0 101 42 101 104s-43 104 -101 104c-57 0 -100 -42 -100 -104s43 -104 100 -104z" />
    <glyph glyph-name="p" unicode="p" horiz-adv-x="615" 
d="M352 514c133 0 239 -114 239 -264s-106 -264 -239 -264c-61 0 -106 19 -138 51v-237h-166v700h166v-37c32 32 77 51 138 51zM319 143c62 0 105 42 105 107s-43 107 -105 107s-105 -42 -105 -107s43 -107 105 -107z" />
    <glyph glyph-name="thorn" unicode="&#xfe;" horiz-adv-x="615" 
d="M352 514c133 0 239 -114 239 -264s-106 -264 -239 -264c-61 0 -105 19 -138 51v-237h-166v900h166v-237c33 32 77 51 138 51zM319 143c62 0 105 42 105 107s-43 107 -105 107s-105 -42 -105 -107s43 -107 105 -107z" />
    <glyph glyph-name="q" unicode="q" horiz-adv-x="615" 
d="M401 500h166v-700h-166v237c-32 -32 -77 -51 -138 -51c-133 0 -239 114 -239 264s106 264 239 264c61 0 106 -19 138 -51v37zM296 143c62 0 105 42 105 107s-43 107 -105 107s-105 -42 -105 -107s43 -107 105 -107z" />
    <glyph glyph-name="r" unicode="r" horiz-adv-x="352" 
d="M214 421c18 59 68 89 130 89v-184c-62 10 -130 -15 -130 -104v-222h-166v500h166v-79z" />
    <glyph glyph-name="racute" unicode="&#x155;" horiz-adv-x="352" 
d="M379 700l-116 -145h-158l80 145h194zM214 421c18 59 68 89 130 89v-184c-62 10 -130 -15 -130 -104v-222h-166v500h166v-79z" />
    <glyph glyph-name="rcaron" unicode="&#x159;" horiz-adv-x="352" 
d="M106 545l-106 155h150l40 -56l39 56h150l-106 -155h-167zM214 421c18 59 68 89 130 89v-184c-62 10 -130 -15 -130 -104v-222h-166v500h166v-79z" />
    <glyph glyph-name="rcommaaccent" unicode="&#x157;" horiz-adv-x="352" 
d="M214 421c18 59 68 89 130 89v-184c-62 10 -130 -15 -130 -104v-222h-166v500h166v-79zM44 -277l10 220h154l-35 -220h-129z" />
    <glyph glyph-name="s" unicode="s" horiz-adv-x="483" 
d="M197 351c0 -70 258 -3 258 -201c0 -118 -102 -164 -213 -164s-214 49 -214 178h164c0 -29 16 -45 50 -45c33 0 47 11 47 30c0 67 -257 6 -257 201c0 115 103 164 209 164c103 0 204 -54 204 -178h-162c0 29 -16 45 -42 45c-28 0 -44 -11 -44 -30z" />
    <glyph glyph-name="sacute" unicode="&#x15b;" horiz-adv-x="483" 
d="M419 710l-116 -145h-158l80 145h194zM197 351c0 -70 258 -3 258 -201c0 -118 -102 -164 -213 -164s-214 49 -214 178h164c0 -29 16 -45 50 -45c33 0 47 11 47 30c0 67 -257 6 -257 201c0 115 103 164 209 164c103 0 204 -54 204 -178h-162c0 29 -16 45 -42 45
c-28 0 -44 -11 -44 -30z" />
    <glyph glyph-name="scaron" unicode="&#x161;" horiz-adv-x="483" 
d="M147 555l-106 155h150l40 -56l39 56h150l-106 -155h-167zM197 351c0 -70 258 -3 258 -201c0 -118 -102 -164 -213 -164s-214 49 -214 178h164c0 -29 16 -45 50 -45c33 0 47 11 47 30c0 67 -257 6 -257 201c0 115 103 164 209 164c103 0 204 -54 204 -178h-162
c0 29 -16 45 -42 45c-28 0 -44 -11 -44 -30z" />
    <glyph glyph-name="scedilla" unicode="&#x15f;" horiz-adv-x="483" 
d="M455 150c0 -90 -59 -138 -136 -156v-40c22 -7 58 -29 58 -77c0 -68 -66 -108 -234 -98v109c65 -5 95 1 95 14c0 12 -21 17 -53 20v69c-87 15 -157 67 -157 173h164c0 -29 16 -45 50 -45c33 0 47 11 47 30c0 67 -257 6 -257 201c0 115 103 164 209 164
c103 0 204 -54 204 -178h-162c0 29 -16 45 -42 45c-28 0 -44 -11 -44 -30c0 -70 258 -3 258 -201z" />
    <glyph glyph-name="scommaaccent" unicode="&#x219;" horiz-adv-x="483" 
d="M197 351c0 -70 258 -3 258 -201c0 -118 -102 -164 -213 -164s-214 49 -214 178h164c0 -29 16 -45 50 -45c33 0 47 11 47 30c0 67 -257 6 -257 201c0 115 103 164 209 164c103 0 204 -54 204 -178h-162c0 29 -16 45 -42 45c-28 0 -44 -11 -44 -30zM171 -277l10 220h154
l-35 -220h-129z" />
    <glyph glyph-name="germandbls" unicode="&#xdf;" horiz-adv-x="528" 
d="M268 -5v144c67 -9 86 14 86 48c0 55 -100 134 -100 192c0 50 54 91 54 146c0 25 -16 43 -43 43c-30 0 -51 -20 -51 -59v-509h-166v505c0 126 80 210 222 210c134 0 204 -73 204 -159c0 -81 -60 -125 -60 -167c0 -57 107 -121 107 -243c0 -97 -62 -177 -253 -151z" />
    <glyph glyph-name="t" unicode="t" horiz-adv-x="340" 
d="M327 500v-159h-74v-341h-166v341h-74v159h74v160h166v-160h74z" />
    <glyph glyph-name="tbar" unicode="&#x167;" horiz-adv-x="340" 
d="M327 341h-74v-49h50v-125h-50v-167h-166v167h-64v125h64v49h-74v159h74v160h166v-160h74v-159z" />
    <glyph glyph-name="tcaron" unicode="&#x165;" horiz-adv-x="430" 
d="M301 735h149l-35 -190h-124zM253 660v-160h74v-159h-74v-341h-166v341h-74v159h74v160h166z" />
    <glyph glyph-name="uni0163" unicode="&#x163;" horiz-adv-x="340" 
d="M327 500v-159h-74v-341h-166v341h-74v159h74v160h166v-160h74zM87 -277l10 220h154l-35 -220h-129z" />
    <glyph glyph-name="uni021B" unicode="&#x21b;" horiz-adv-x="340" 
d="M327 500v-159h-74v-341h-166v341h-74v159h74v160h166v-160h74zM87 -277l10 220h154l-35 -220h-129z" />
    <glyph glyph-name="u" unicode="u" 
d="M322 500h166v-500h-166v42c-25 -33 -66 -56 -123 -56c-93 0 -160 71 -160 196v318h166v-299c0 -39 22 -58 55 -58c41 0 62 25 62 70v287z" />
    <glyph glyph-name="uacute" unicode="&#xfa;" 
d="M452 700l-116 -145h-158l80 145h194zM322 500h166v-500h-166v42c-25 -33 -66 -56 -123 -56c-93 0 -160 71 -160 196v318h166v-299c0 -39 22 -58 55 -58c41 0 62 25 62 70v287z" />
    <glyph glyph-name="ucircumflex" unicode="&#xfb;" 
d="M264 601l-40 -56h-150l106 155h153h14l106 -155h-150zM322 500h166v-500h-166v42c-25 -33 -66 -56 -123 -56c-93 0 -160 71 -160 196v318h166v-299c0 -39 22 -58 55 -58c41 0 62 25 62 70v287z" />
    <glyph glyph-name="udieresis" unicode="&#xfc;" 
d="M243 690v-140h-139v140h139zM433 690v-140h-140v140h140zM322 500h166v-500h-166v42c-25 -33 -66 -56 -123 -56c-93 0 -160 71 -160 196v318h166v-299c0 -39 22 -58 55 -58c41 0 62 25 62 70v287z" />
    <glyph glyph-name="ugrave" unicode="&#xf9;" 
d="M358 555h-158l-116 145h194zM322 500h166v-500h-166v42c-25 -33 -66 -56 -123 -56c-93 0 -160 71 -160 196v318h166v-299c0 -39 22 -58 55 -58c41 0 62 25 62 70v287z" />
    <glyph glyph-name="uhungarumlaut" unicode="&#x171;" 
d="M322 695l-86 -150h-157l80 150h163zM429 545h-158l90 150h164zM322 213v287h166v-500h-166v42c-25 -33 -66 -56 -123 -56c-93 0 -160 71 -160 196v318h166v-299c0 -39 22 -58 55 -58c41 0 62 25 62 70z" />
    <glyph glyph-name="umacron" unicode="&#x16b;" 
d="M423 684v-130h-309v130h309zM322 500h166v-500h-166v42c-25 -33 -66 -56 -123 -56c-93 0 -160 71 -160 196v318h166v-299c0 -39 22 -58 55 -58c41 0 62 25 62 70v287z" />
    <glyph glyph-name="uogonek" unicode="&#x173;" 
d="M467 -101c6 -1 13 1 21 3v-99c-27 -11 -53 -17 -88 -17c-57 0 -105 28 -105 91c0 38 24 83 62 123h-35v42c-25 -33 -66 -56 -123 -56c-93 0 -160 71 -160 196v318h166v-299c0 -39 22 -58 55 -58c41 0 62 25 62 70v287h166v-500c-28 -31 -43 -59 -43 -78
c0 -15 8 -23 22 -23z" />
    <glyph glyph-name="uring" unicode="&#x16f;" 
d="M268 533c-82 0 -140 56 -140 132c0 75 58 132 140 132c85 0 141 -57 141 -132c0 -76 -56 -132 -141 -132zM268 697c-21 0 -33 -14 -33 -32s12 -32 33 -32c23 0 34 14 34 32s-11 32 -34 32zM322 500h166v-500h-166v42c-25 -33 -66 -56 -123 -56c-93 0 -160 71 -160 196
v318h166v-299c0 -39 22 -58 55 -58c41 0 62 25 62 70v287z" />
    <glyph glyph-name="v" unicode="v" horiz-adv-x="533" 
d="M357 500h176l-182 -500h-154h-15l-182 500h176l91 -283z" />
    <glyph glyph-name="w" unicode="w" horiz-adv-x="740" 
d="M558 500h177l-153 -500h-149h-5l-58 188l-58 -188h-122h-32l-153 500h177l72 -288l54 179l-33 109h132l82 -274z" />
    <glyph glyph-name="wacute" unicode="&#x1e83;" horiz-adv-x="740" 
d="M553 700l-116 -145h-158l80 145h194zM558 500h177l-153 -500h-149h-5l-58 188l-58 -188h-122h-32l-153 500h177l72 -288l54 179l-33 109h132l82 -274z" />
    <glyph glyph-name="wcircumflex" unicode="&#x175;" horiz-adv-x="740" 
d="M365 601l-40 -56h-150l106 155h153h14l106 -155h-150zM558 500h177l-153 -500h-149h-5l-58 188l-58 -188h-122h-32l-153 500h177l72 -288l54 179l-33 109h132l82 -274z" />
    <glyph glyph-name="wdieresis" unicode="&#x1e85;" horiz-adv-x="740" 
d="M344 690v-140h-139v140h139zM534 690v-140h-140v140h140zM558 500h177l-153 -500h-149h-5l-58 188l-58 -188h-122h-32l-153 500h177l72 -288l54 179l-33 109h132l82 -274z" />
    <glyph glyph-name="wgrave" unicode="&#x1e81;" horiz-adv-x="740" 
d="M459 555h-158l-116 145h194zM558 500h177l-153 -500h-149h-5l-58 188l-58 -188h-122h-32l-153 500h177l72 -288l54 179l-33 109h132l82 -274z" />
    <glyph glyph-name="x" unicode="x" horiz-adv-x="503" 
d="M503 0h-176l-75 118l-76 -118h-176l164 255l-157 245h176l69 -107l68 107h176l-156 -245z" />
    <glyph glyph-name="y" unicode="y" horiz-adv-x="525" 
d="M352 500h177l-236 -700h-176l69 205l-191 495h177l97 -278z" />
    <glyph glyph-name="yacute" unicode="&#xfd;" horiz-adv-x="525" 
d="M175 555h158l116 145h-194zM352 500h177l-236 -700h-176l69 205l-191 495h177l97 -278z" />
    <glyph glyph-name="ycircumflex" unicode="&#x177;" horiz-adv-x="525" 
d="M260 601l-40 -56h-150l106 155h153h14l106 -155h-150zM352 500h177l-236 -700h-176l69 205l-191 495h177l97 -278z" />
    <glyph glyph-name="ydieresis" unicode="&#xff;" horiz-adv-x="525" 
d="M100 550v140h139v-140h-139zM289 550v140h140v-140h-140zM352 500h177l-236 -700h-176l69 205l-191 495h177l97 -278z" />
    <glyph glyph-name="ygrave" unicode="&#x1ef3;" horiz-adv-x="525" 
d="M355 555l-80 145h-194l116 -145h158zM352 500h177l-236 -700h-176l69 205l-191 495h177l97 -278z" />
    <glyph glyph-name="z" unicode="z" horiz-adv-x="455" 
d="M247 154h188v-154h-410v114l178 232h-168v154h390v-114z" />
    <glyph glyph-name="zacute" unicode="&#x17a;" horiz-adv-x="455" 
d="M414 700l-116 -145h-158l80 145h194zM247 154h188v-154h-410v114l178 232h-168v154h390v-114z" />
    <glyph glyph-name="zcaron" unicode="&#x17e;" horiz-adv-x="455" 
d="M142 545l-106 155h150l40 -56l39 56h150l-106 -155h-167zM247 154h188v-154h-410v114l178 232h-168v154h390v-114z" />
    <glyph glyph-name="zdotaccent" unicode="&#x17c;" horiz-adv-x="455" 
d="M309 702v-154h-159v154h159zM247 154h188v-154h-410v114l178 232h-168v154h390v-114z" />
    <glyph glyph-name="a.ss01" horiz-adv-x="615" 
d="M401 500h166v-500h-166v37c-32 -32 -77 -51 -138 -51c-133 0 -239 114 -239 264s106 264 239 264c61 0 106 -19 138 -51v37zM296 143c62 0 105 42 105 107s-43 107 -105 107s-105 -42 -105 -107s43 -107 105 -107z" />
    <glyph glyph-name="aacute.ss01" horiz-adv-x="615" 
d="M500 700l-116 -145h-158l80 145h194zM401 500h166v-500h-166v37c-32 -32 -77 -51 -138 -51c-133 0 -239 114 -239 264s106 264 239 264c61 0 106 -19 138 -51v37zM296 143c62 0 105 42 105 107s-43 107 -105 107s-105 -42 -105 -107s43 -107 105 -107z" />
    <glyph glyph-name="abreve.ss01" horiz-adv-x="615" 
d="M316 537c-115 0 -179 56 -179 160h140c0 -28 13 -44 39 -44s40 16 40 44h140c0 -104 -64 -160 -180 -160zM401 500h166v-500h-166v37c-32 -32 -77 -51 -138 -51c-133 0 -239 114 -239 264s106 264 239 264c61 0 106 -19 138 -51v37zM296 143c62 0 105 42 105 107
s-43 107 -105 107s-105 -42 -105 -107s43 -107 105 -107z" />
    <glyph glyph-name="acircumflex.ss01" horiz-adv-x="615" 
d="M312 601l-40 -56h-150l106 155h153h14l106 -155h-150zM401 500h166v-500h-166v37c-32 -32 -77 -51 -138 -51c-133 0 -239 114 -239 264s106 264 239 264c61 0 106 -19 138 -51v37zM296 143c62 0 105 42 105 107s-43 107 -105 107s-105 -42 -105 -107s43 -107 105 -107z
" />
    <glyph glyph-name="adieresis.ss01" horiz-adv-x="615" 
d="M291 690v-140h-139v140h139zM481 690v-140h-140v140h140zM401 500h166v-500h-166v37c-32 -32 -77 -51 -138 -51c-133 0 -239 114 -239 264s106 264 239 264c61 0 106 -19 138 -51v37zM296 143c62 0 105 42 105 107s-43 107 -105 107s-105 -42 -105 -107s43 -107 105 -107
z" />
    <glyph glyph-name="agrave.ss01" horiz-adv-x="615" 
d="M406 555h-158l-116 145h194zM401 500h166v-500h-166v37c-32 -32 -77 -51 -138 -51c-133 0 -239 114 -239 264s106 264 239 264c61 0 106 -19 138 -51v37zM296 143c62 0 105 42 105 107s-43 107 -105 107s-105 -42 -105 -107s43 -107 105 -107z" />
    <glyph glyph-name="amacron.ss01" horiz-adv-x="615" 
d="M470 684v-130h-309v130h309zM401 500h166v-500h-166v37c-32 -32 -77 -51 -138 -51c-133 0 -239 114 -239 264s106 264 239 264c61 0 106 -19 138 -51v37zM296 143c62 0 105 42 105 107s-43 107 -105 107s-105 -42 -105 -107s43 -107 105 -107z" />
    <glyph glyph-name="aogonek.ss01" horiz-adv-x="615" 
d="M567 0c-28 -31 -43 -59 -43 -78c0 -15 8 -23 22 -23c6 -1 13 1 21 3v-99c-27 -11 -53 -17 -88 -17c-57 0 -105 28 -105 91c0 38 24 83 62 123h-35v37c-32 -32 -77 -51 -138 -51c-133 0 -239 114 -239 264s106 264 239 264c61 0 106 -19 138 -51v37h166v-500zM296 143
c62 0 105 42 105 107s-43 107 -105 107s-105 -42 -105 -107s43 -107 105 -107z" />
    <glyph glyph-name="aring.ss01" horiz-adv-x="615" 
d="M316 533c-82 0 -140 56 -140 132c0 75 58 132 140 132c85 0 141 -57 141 -132c0 -76 -56 -132 -141 -132zM316 697c-21 0 -33 -14 -33 -32s12 -32 33 -32c23 0 34 14 34 32s-11 32 -34 32zM401 500h166v-500h-166v37c-32 -32 -77 -51 -138 -51c-133 0 -239 114 -239 264
s106 264 239 264c61 0 106 -19 138 -51v37zM296 143c62 0 105 42 105 107s-43 107 -105 107s-105 -42 -105 -107s43 -107 105 -107z" />
    <glyph glyph-name="atilde.ss01" horiz-adv-x="615" 
d="M305 568c-32 17 -48 25 -48 -20h-120c0 169 104 188 190 143c32 -18 49 -26 49 19h120c0 -171 -104 -188 -191 -142zM401 500h166v-500h-166v37c-32 -32 -77 -51 -138 -51c-133 0 -239 114 -239 264s106 264 239 264c61 0 106 -19 138 -51v37zM296 143
c62 0 105 42 105 107s-43 107 -105 107s-105 -42 -105 -107s43 -107 105 -107z" />
    <glyph glyph-name="ae.ss01" horiz-adv-x="945" 
d="M572 189c18 -55 61 -75 105 -75c32 0 62 14 74 32h155c-33 -110 -103 -160 -204 -160c-63 0 -113 22 -150 60v-46h-151v41c-32 -35 -77 -55 -138 -55c-133 0 -239 114 -239 264s106 264 239 264c61 0 106 -20 138 -55v41h151v-44c36 36 85 58 145 58
c137 0 225 -113 225 -263c0 -21 -2 -41 -7 -62h-343zM571 305h191c-14 51 -51 69 -92 69c-48 0 -85 -23 -99 -69zM296 143c62 0 105 42 105 107s-43 107 -105 107s-105 -42 -105 -107s43 -107 105 -107z" />
    <glyph glyph-name="y.ss01" 
d="M322 500h166v-516c0 -140 -105 -199 -217 -199s-215 59 -215 181h159c0 -22 15 -40 53 -40s54 20 54 58v67c-25 -33 -66 -56 -123 -56c-93 0 -160 71 -160 196v309h166v-290c0 -39 22 -58 55 -58c41 0 62 25 62 70v278z" />
    <glyph glyph-name="yacute.ss01" 
d="M448 700l-116 -145h-158l80 145h194zM322 500h166v-516c0 -140 -105 -199 -217 -199s-215 59 -215 181h159c0 -22 15 -40 53 -40s54 20 54 58v67c-25 -33 -66 -56 -123 -56c-93 0 -160 71 -160 196v309h166v-290c0 -39 22 -58 55 -58c41 0 62 25 62 70v278z" />
    <glyph glyph-name="ycircumflex.ss01" 
d="M260 601l-40 -56h-150l106 155h153h14l106 -155h-150zM322 500h166v-516c0 -140 -105 -199 -217 -199s-215 59 -215 181h159c0 -22 15 -40 53 -40s54 20 54 58v67c-25 -33 -66 -56 -123 -56c-93 0 -160 71 -160 196v309h166v-290c0 -39 22 -58 55 -58c41 0 62 25 62 70
v278z" />
    <glyph glyph-name="ydieresis.ss01" 
d="M239 690v-140h-139v140h139zM429 690v-140h-140v140h140zM322 500h166v-516c0 -140 -105 -199 -217 -199s-215 59 -215 181h159c0 -22 15 -40 53 -40s54 20 54 58v67c-25 -33 -66 -56 -123 -56c-93 0 -160 71 -160 196v309h166v-290c0 -39 22 -58 55 -58
c41 0 62 25 62 70v278z" />
    <glyph glyph-name="ygrave.ss01" 
d="M354 555h-158l-116 145h194zM322 500h166v-516c0 -140 -105 -199 -217 -199s-215 59 -215 181h159c0 -22 15 -40 53 -40s54 20 54 58v67c-25 -33 -66 -56 -123 -56c-93 0 -160 71 -160 196v309h166v-290c0 -39 22 -58 55 -58c41 0 62 25 62 70v278z" />
    <glyph glyph-name="f_f_j" horiz-adv-x="839" 
d="M791 500v-500c0 -157 -75 -224 -239 -215v154c50 -3 73 15 73 61v341h-114v-341h-166v341h-63h-53v-341h-166v341h-63v159h63c0 140 81 225 252 215v-154c-54 4 -86 -15 -86 -61h86h30v10c0 140 82 215 252 215c46 0 87 -5 130 -15v-145c-43 6 -85 9 -123 9
c-56 0 -93 -13 -93 -64v-10h280z" />
    <glyph glyph-name="f_j" horiz-adv-x="557" 
d="M509 500v-500c0 -157 -75 -224 -239 -215v154c50 -3 73 15 73 61v341h-114v-341h-166v341h-63v159h63c0 140 81 215 252 215c46 0 86 -5 129 -15v-145c-42 6 -84 9 -122 9c-56 0 -93 -13 -93 -64h280z" />
    <glyph glyph-name="ordfeminine" unicode="&#xaa;" horiz-adv-x="270" 
d="M136 715c55 0 106 -32 106 -99v-158h-80v17c-13 -14 -31 -24 -61 -24c-46 0 -83 26 -83 78s38 78 84 78c29 0 47 -8 60 -17v23c0 18 -7 28 -26 28s-26 -10 -26 -21h-80c0 63 51 95 106 95zM130 506c20 0 32 10 32 23c0 15 -12 23 -32 23c-19 0 -29 -9 -29 -23
c0 -13 10 -23 29 -23z" />
    <glyph glyph-name="ordmasculine" unicode="&#xba;" horiz-adv-x="302" 
d="M151 450c-74 0 -133 58 -133 132c0 75 59 132 133 132s134 -57 134 -132c0 -74 -60 -132 -134 -132zM151 530c29 0 50 21 50 52s-21 52 -50 52s-50 -21 -50 -52s21 -52 50 -52z" />
    <glyph glyph-name="uni0410" unicode="&#x410;" horiz-adv-x="660" 
d="M471 0l-29 101h-224l-29 -101h-194l228 700h214l228 -700h-194zM261 255h138l-69 242z" />
    <glyph glyph-name="uni0411" unicode="&#x411;" horiz-adv-x="592" 
d="M344 442c143 0 235 -87 235 -220s-92 -222 -235 -222h-225h-64v700h179h285v-173h-285v-85h110zM337 164c36 0 64 18 64 58c0 41 -28 59 -64 59h-103v-117h103z" />
    <glyph glyph-name="uni0412" unicode="&#x412;" horiz-adv-x="685" 
d="M546 421c73 -37 119 -109 119 -198c0 -126 -94 -223 -226 -223h-344h-40v700h179h121c123 0 220 -77 220 -190c0 -33 -11 -64 -29 -89zM353 538h-119v-91h147c13 11 19 27 19 42c0 28 -18 49 -47 49zM414 162c49 0 72 29 72 69c0 41 -23 69 -71 69h-181v-138h180z" />
    <glyph glyph-name="uni0413" unicode="&#x413;" horiz-adv-x="475" 
d="M469 700v-173h-235v-527h-179v700h414z" />
    <glyph glyph-name="uni0403" unicode="&#x403;" horiz-adv-x="475" 
d="M441 899l-116 -145h-158l80 145h194zM469 700v-173h-235v-527h-179v700h414z" />
    <glyph glyph-name="uni0490" unicode="&#x490;" horiz-adv-x="475" 
d="M291 820h178v-191v-102h-235v-527h-179v700h236v120z" />
    <glyph glyph-name="uni0414" unicode="&#x414;" horiz-adv-x="697" 
d="M604 169h75v-169v-144h-179v144h-311v-144h-179v180v133h70c31 45 52 112 52 226v305h472v-531zM268 169h157v365h-115v-141c0 -110 -18 -178 -42 -224z" />
    <glyph glyph-name="uni0415" unicode="&#x415;" horiz-adv-x="512" 
d="M234 168h251v-168h-375h-55v700h179h246v-168h-246v-99h221v-159h-221v-106z" />
    <glyph glyph-name="uni0401" unicode="&#x401;" horiz-adv-x="512" 
d="M243 890v-140h-139v140h139zM433 890v-140h-140v140h140zM234 168h251v-168h-375h-55v700h179h246v-168h-246v-99h221v-159h-221v-106z" />
    <glyph glyph-name="uni0416" unicode="&#x416;" horiz-adv-x="927" 
d="M921 0h-198l-170 305v-305h-179v305l-171 -305h-198l211 354l-201 346h198l161 -303v303h179v-303l160 303h198l-200 -346z" />
    <glyph glyph-name="uni0417" unicode="&#x417;" horiz-adv-x="555" 
d="M456 404c56 -41 89 -105 89 -182c0 -141 -109 -237 -270 -237s-270 106 -270 247h179c0 -44 30 -78 91 -78s91 28 91 73c0 44 -30 72 -91 72h-64v159h64h19c19 10 27 28 27 46c0 29 -19 47 -56 47s-56 -18 -56 -47h-178c0 128 101 211 234 211s234 -83 234 -196
c0 -44 -17 -85 -43 -115z" />
    <glyph glyph-name="uni0418" unicode="&#x418;" horiz-adv-x="655" 
d="M421 0v362l-227 -362h-139v700h179v-362l227 362h138v-700h-178z" />
    <glyph glyph-name="uni0419" unicode="&#x419;" horiz-adv-x="655" 
d="M176 754v140h323v-140h-323zM421 0v362l-227 -362h-139v700h179v-362l227 362h138v-700h-178z" />
    <glyph glyph-name="uni041A" unicode="&#x41a;" horiz-adv-x="631" 
d="M635 0h-200l-201 314v-314h-179v700h179v-294l191 294h200l-223 -340z" />
    <glyph glyph-name="uni040C" unicode="&#x40c;" horiz-adv-x="631" 
d="M500 899l-116 -145h-158l80 145h194zM635 0h-200l-201 314v-314h-179v700h179v-294l191 294h200l-223 -340z" />
    <glyph glyph-name="uni041B" unicode="&#x41b;" horiz-adv-x="640" 
d="M5 -2v167c70 -7 107 13 107 116v419h473v-700h-179v527h-115v-254c0 -241 -147 -288 -286 -275z" />
    <glyph glyph-name="uni041C" unicode="&#x41c;" horiz-adv-x="839" 
d="M783 700v-700h-178v412l-121 -312h-129l-121 312v-412h-179v700h179h34l151 -386l152 386h212z" />
    <glyph glyph-name="uni041D" unicode="&#x41d;" horiz-adv-x="645" 
d="M411 700h178v-700h-178v274h-177v-274h-179v700h179v-254h177v254z" />
    <glyph glyph-name="uni041E" unicode="&#x41e;" horiz-adv-x="790" 
d="M395 -15c-204 0 -367 159 -367 365s163 365 367 365s367 -159 367 -365s-163 -365 -367 -365zM395 160c107 0 189 78 189 190s-82 190 -189 190s-189 -78 -189 -190s82 -190 189 -190z" />
    <glyph glyph-name="uni041F" unicode="&#x41f;" horiz-adv-x="640" 
d="M585 700v-700h-179v527h-172v-527h-179v700h179h351z" />
    <glyph glyph-name="uni0420" unicode="&#x420;" horiz-adv-x="592" 
d="M327 700c140 0 250 -101 250 -245s-110 -245 -250 -245h-93v-210h-179v700h179h93zM327 380c40 0 71 31 71 75s-31 74 -71 74h-93v-149h93z" />
    <glyph glyph-name="uni0421" unicode="&#x421;" horiz-adv-x="751" 
d="M393 -15c-212 0 -365 159 -365 365s153 365 365 365c173 0 319 -118 345 -284h-185c-19 67 -83 109 -160 109c-113 0 -187 -78 -187 -190s74 -190 187 -190c77 0 142 42 160 109h186c-26 -165 -172 -284 -346 -284z" />
    <glyph glyph-name="uni0422" unicode="&#x422;" horiz-adv-x="500" 
d="M492 700v-173h-153v-527h-178v527h-153v173h331h153z" />
    <glyph glyph-name="uni0423" unicode="&#x423;" horiz-adv-x="629" 
d="M440 700h183l-202 -485c-63 -150 -163 -222 -317 -215v167c70 -6 112 13 140 51l-229 482h184l129 -287z" />
    <glyph glyph-name="uni040E" unicode="&#x40e;" horiz-adv-x="629" 
d="M469 893v-140h-323v140h323zM440 700h183l-202 -485c-63 -150 -163 -222 -317 -215v167c70 -6 112 13 140 51l-229 482h184l129 -287z" />
    <glyph glyph-name="uni0424" unicode="&#x424;" horiz-adv-x="833" 
d="M813 350c0 -158 -117 -263 -310 -287v-83h-172v83c-193 24 -311 129 -311 287s118 263 311 287v83h172v-83c193 -24 310 -129 310 -287zM199 350c0 -69 40 -110 132 -124v250c-92 -14 -132 -55 -132 -126zM503 226c92 14 132 55 132 124c0 71 -40 112 -132 126v-250z" />
    <glyph glyph-name="uni0425" unicode="&#x425;" horiz-adv-x="622" 
d="M616 0h-200l-105 182l-105 -182h-201l206 357l-198 343h201l97 -169l97 169h201l-198 -343z" />
    <glyph glyph-name="uni0427" unicode="&#x427;" horiz-adv-x="629" 
d="M395 700h179v-700h-179v226c-33 -9 -66 -13 -101 -13c-147 0 -251 86 -251 237v250h178v-231c0 -54 36 -84 86 -84c32 0 60 4 88 12v303z" />
    <glyph glyph-name="uni0426" unicode="&#x426;" horiz-adv-x="692" 
d="M594 173h80v-317h-179v144h-440v700h184v-527h172v527h183v-527z" />
    <glyph glyph-name="uni0428" unicode="&#x428;" horiz-adv-x="909" 
d="M675 700h179v-700h-799v700h179v-527h131v527h179v-527h131v527z" />
    <glyph glyph-name="uni0429" unicode="&#x429;" horiz-adv-x="952" 
d="M854 173h80v-317h-179v144h-700v700h179v-527h131v527h179v-527h131v527h179v-527z" />
    <glyph glyph-name="uni040F" unicode="&#x40f;" horiz-adv-x="640" 
d="M406 700h179v-700h-176v-144h-178v144h-176v700h179v-527h172v527z" />
    <glyph glyph-name="uni042C" unicode="&#x42c;" horiz-adv-x="592" 
d="M327 490c140 0 250 -101 250 -245s-110 -245 -250 -245h-217h-55v700h179v-210h93zM327 171c40 0 71 30 71 74s-31 75 -71 75h-93v-149h93z" />
    <glyph glyph-name="uni042A" unicode="&#x42a;" horiz-adv-x="697" 
d="M160 0v527h-160v173h339v-210h93c139 0 250 -102 250 -245c0 -144 -111 -245 -250 -245h-272zM339 170h93c40 0 71 31 71 75s-31 74 -71 74h-93v-149z" />
    <glyph glyph-name="uni042B" unicode="&#x42b;" horiz-adv-x="869" 
d="M55 0v700h179v-210h93c140 0 250 -102 250 -245c0 -144 -110 -245 -250 -245h-272zM635 0v700h178v-700h-178zM234 170h93c40 0 71 31 71 75s-31 74 -71 74h-93v-149z" />
    <glyph glyph-name="uni0409" unicode="&#x409;" horiz-adv-x="908" 
d="M643 464c134 0 249 -88 249 -232s-115 -232 -249 -232h-198h-54v527h-100v-254c0 -241 -147 -288 -286 -275v167c70 -7 107 13 107 116v419h457v-236h74zM643 170c40 0 71 18 71 62s-31 62 -71 62h-74v-124h74z" />
    <glyph glyph-name="uni040A" unicode="&#x40a;" horiz-adv-x="912" 
d="M647 464c135 0 250 -88 250 -232s-115 -232 -250 -232h-197h-55v294h-161v-294h-179v700h179v-236h161v236h179v-236h73zM647 170c40 0 71 18 71 62s-31 62 -71 62h-73v-124h73z" />
    <glyph glyph-name="uni0405" unicode="&#x405;" horiz-adv-x="550" 
d="M281 -15c-146 0 -266 70 -266 239h179c0 -49 29 -69 88 -69c53 0 74 21 74 48c0 35 -50 51 -110 70c-98 31 -222 80 -222 227c0 143 112 215 242 215c132 0 249 -70 249 -234h-178c0 40 -22 64 -71 64c-43 0 -63 -20 -63 -45c0 -39 48 -55 110 -76
c97 -31 221 -79 221 -224c0 -143 -112 -215 -253 -215z" />
    <glyph glyph-name="uni0404" unicode="&#x404;" horiz-adv-x="754" 
d="M551 269h186c-22 -165 -169 -284 -347 -284c-213 0 -362 159 -362 365s149 365 362 365c177 0 325 -118 346 -284h-185c-16 67 -81 112 -163 112c-85 0 -144 -43 -170 -111h253v-164h-253c26 -68 85 -111 170 -111c83 0 147 45 163 112z" />
    <glyph glyph-name="uni042D" unicode="&#x42d;" horiz-adv-x="754" 
d="M364 715c213 0 362 -159 362 -365s-149 -365 -362 -365c-178 0 -325 119 -347 284h186c16 -67 80 -112 163 -112c84 0 144 43 170 111h-253v164h253c-26 68 -86 111 -170 111c-82 0 -147 -45 -163 -112h-185c21 166 169 284 346 284z" />
    <glyph glyph-name="uni0406" unicode="&#x406;" horiz-adv-x="289" 
d="M55 700h179v-700h-179v700z" />
    <glyph glyph-name="uni0407" unicode="&#x407;" horiz-adv-x="289" 
d="M-20 750v140h139v-140h-139zM169 750v140h140v-140h-140zM55 700h179v-700h-179v700z" />
    <glyph glyph-name="uni0408" unicode="&#x408;" horiz-adv-x="545" 
d="M255 -15c-140 0 -245 79 -245 232v22h179v-22c0 -37 22 -58 66 -58c43 0 66 21 66 58v483h178v-485c0 -152 -105 -230 -244 -230z" />
    <glyph glyph-name="uni040B" unicode="&#x40b;" horiz-adv-x="668" 
d="M450 445c113 0 182 -66 182 -196v-249h-176v227c0 42 -23 58 -57 58c-20 0 -40 -5 -60 -13v-272h-178v527h-153v173h331h183v-173h-183v-99c40 11 78 17 111 17z" />
    <glyph glyph-name="uni042E" unicode="&#x42e;" horiz-adv-x="1068" 
d="M673 715c204 0 367 -159 367 -365c0 -205 -163 -365 -367 -365c-178 0 -320 121 -353 289h-86v-274h-179v700h179v-254h90c41 158 178 269 349 269zM673 160c107 0 189 78 189 190s-82 190 -189 190s-189 -76 -189 -190c0 -112 82 -190 189 -190z" />
    <glyph glyph-name="uni042F" unicode="&#x42f;" horiz-adv-x="638" 
d="M582 700v-700h-178v226h-34l-170 -226h-209l201 253c-79 39 -131 114 -131 205c0 141 110 242 254 242h267zM320 535c-45 0 -81 -33 -81 -80c0 -46 36 -78 81 -78h84v158h-84z" />
    <glyph glyph-name="uni0402" unicode="&#x402;" horiz-adv-x="663" 
d="M450 445c113 0 182 -66 182 -196v-47c0 -157 -75 -224 -234 -215v159c45 -3 58 15 58 56v25c0 42 -23 58 -57 58c-20 0 -40 -5 -60 -13v-272h-178v527h-153v173h331h183v-173h-183v-99c40 11 78 17 111 17z" />
    <glyph glyph-name="uni0414.loclBGR" horiz-adv-x="740" 
d="M649 169h81v-169v-144h-179v144h-323h-39v-144h-179v180v133h81l172 531h214zM276 169h188l-94 331z" />
    <glyph glyph-name="uni041B.loclBGR" horiz-adv-x="640" 
d="M213 700h214l218 -700h-194l-131 492l-131 -492h-194z" />
    <glyph glyph-name="uni0424.loclBGR" horiz-adv-x="869" 
d="M841 350c0 -194 -126 -327 -322 -356v-94h-169v94c-196 29 -322 162 -322 356s126 327 322 356v94h169v-94c196 -29 322 -162 322 -356zM206 350c0 -102 47 -167 144 -189v378c-97 -22 -144 -87 -144 -189zM519 161c97 22 143 87 143 189s-46 167 -143 189v-378z" />
    <glyph glyph-name="uni0414.ss01" horiz-adv-x="697" 
d="M604 169h75v-169h-254h-415v169h70c31 45 52 112 52 226v305h472v-531zM268 169h157v365h-115v-141c0 -110 -18 -178 -42 -224z" />
    <glyph glyph-name="uni0426.ss01" horiz-adv-x="692" 
d="M594 173h80v-173h-619v700h184v-527h172v527h183v-527z" />
    <glyph glyph-name="uni0429.ss01" horiz-adv-x="952" 
d="M854 173h80v-173h-879v700h179v-527h131v527h179v-527h131v527h179v-527z" />
    <glyph glyph-name="uni0414.loclBGR.ss01" horiz-adv-x="740" 
d="M649 169h81v-169h-218h-476h-26v169h81l172 531h214zM276 169h188l-94 331z" />
    <glyph glyph-name="uni0430" unicode="&#x430;" horiz-adv-x="513" 
d="M262 514c110 0 213 -64 213 -199v-315h-160v34c-28 -29 -63 -48 -122 -48c-93 0 -168 52 -168 156s77 156 170 156c57 0 93 -15 120 -34v46c0 36 -16 56 -53 56s-53 -20 -53 -43h-160c0 127 103 191 213 191zM251 96c39 0 64 19 64 46c0 29 -25 46 -64 46
s-59 -19 -59 -46s20 -46 59 -46z" />
    <glyph glyph-name="uni0431" unicode="&#x431;" horiz-adv-x="563" 
d="M291 -15c-161 0 -267 109 -267 258c0 283 297 322 293 457h174c4 -203 -199 -208 -264 -289c31 17 60 27 112 27c97 0 212 -82 212 -218c0 -135 -104 -235 -260 -235zM290 129c55 0 94 38 94 89c0 52 -40 90 -97 90c-46 0 -94 -31 -94 -87c0 -54 43 -92 97 -92z" />
    <glyph glyph-name="uni0432" unicode="&#x432;" horiz-adv-x="525" 
d="M433 295c55 -27 84 -77 84 -137c0 -88 -59 -158 -180 -158h-289v197v303h159h93c99 0 160 -61 160 -134c0 -25 -9 -49 -27 -71zM207 377v-62h94c3 7 5 16 5 24c0 23 -13 38 -40 38h-59zM311 127c27 0 42 12 42 36c0 23 -15 34 -42 34h-104v-70h104z" />
    <glyph glyph-name="uni0433" unicode="&#x433;" horiz-adv-x="387" 
d="M387 500v-159h-173v-341h-166v500h339z" />
    <glyph glyph-name="uni0453" unicode="&#x453;" horiz-adv-x="387" 
d="M381 700l-116 -145h-158l80 145h194zM387 500v-159h-173v-341h-166v500h339z" />
    <glyph glyph-name="uni0491" unicode="&#x491;" horiz-adv-x="387" 
d="M228 602h159v-261h-173v-341h-166v500h180v102z" />
    <glyph glyph-name="uni0434" unicode="&#x434;" horiz-adv-x="580" 
d="M500 150h65v-150v-130h-160v130h-240v-130h-160v166v114h55c27 40 43 88 43 177v173h162h178h57v-350zM233 150h105v202h-73v-25c0 -75 -12 -131 -32 -177z" />
    <glyph glyph-name="uni0435" unicode="&#x435;" horiz-adv-x="568" 
d="M194 189c19 -55 62 -75 106 -75c32 0 62 14 73 32h156c-33 -110 -126 -160 -236 -160c-164 0 -269 115 -269 264s109 264 268 264c146 0 252 -113 252 -263c0 -21 -2 -41 -7 -62h-343zM193 305h191c-13 51 -51 69 -91 69c-49 0 -85 -23 -100 -69z" />
    <glyph glyph-name="uni0451" unicode="&#x451;" horiz-adv-x="568" 
d="M267 697v-140h-139v140h139zM457 697v-140h-140v140h140zM194 189c19 -55 62 -75 106 -75c32 0 62 14 73 32h156c-33 -110 -126 -160 -236 -160c-164 0 -269 115 -269 264s109 264 268 264c146 0 252 -113 252 -263c0 -21 -2 -41 -7 -62h-343zM193 305h191
c-13 51 -51 69 -91 69c-49 0 -85 -23 -100 -69z" />
    <glyph glyph-name="uni0436" unicode="&#x436;" horiz-adv-x="779" 
d="M774 0h-183l-119 206v-206h-165v206l-119 -206h-183l156 250l-146 250h183l109 -203v203h165v-203l109 203h183l-146 -250z" />
    <glyph glyph-name="uni0437" unicode="&#x437;" horiz-adv-x="449" 
d="M372 286c44 -29 67 -73 67 -128c0 -93 -69 -173 -214 -173c-146 0 -215 76 -215 179h165c0 -26 15 -40 50 -40c34 0 49 15 49 42c0 23 -16 38 -49 38h-60v116h63c12 7 19 19 19 32c0 19 -12 29 -32 29c-21 0 -33 -11 -33 -31h-158c0 102 68 164 196 164
c115 0 185 -59 185 -143c0 -33 -11 -63 -33 -85z" />
    <glyph glyph-name="uni0438" unicode="&#x438;" horiz-adv-x="550" 
d="M376 500h126v-500h-162v232l-166 -232h-126v500h162v-232z" />
    <glyph glyph-name="uni0439" unicode="&#x439;" horiz-adv-x="550" 
d="M113 554v140h323v-140h-323zM376 500h126v-500h-162v232l-166 -232h-126v500h162v-232z" />
    <glyph glyph-name="uni043A" unicode="&#x43a;" horiz-adv-x="537" 
d="M537 0h-187l-136 211v-211h-166v500h166v-208l126 208h187l-160 -250z" />
    <glyph glyph-name="uni045C" unicode="&#x45c;" horiz-adv-x="537" 
d="M445 700l-116 -145h-158l80 145h194zM537 0h-187l-136 211v-211h-166v500h166v-208l126 208h187l-160 -250z" />
    <glyph glyph-name="uni043B" unicode="&#x43b;" horiz-adv-x="537" 
d="M489 500v-500h-166v341h-75v-134c0 -156 -76 -225 -238 -215v154c48 -6 72 21 72 85v269h166h241z" />
    <glyph glyph-name="uni043C" unicode="&#x43c;" horiz-adv-x="665" 
d="M617 500v-500h-161v248l-86 -162h-76l-85 162v-248h-161v500h161h9l114 -217l115 217h170z" />
    <glyph glyph-name="uni043D" unicode="&#x43d;" horiz-adv-x="545" 
d="M331 500h166v-500h-166v172h-117v-172h-166v500h166v-172h117v172z" />
    <glyph glyph-name="uni043E" unicode="&#x43e;" horiz-adv-x="583" 
d="M291 -14c-147 0 -267 115 -267 264s119 264 267 264c149 0 267 -115 267 -264s-118 -264 -267 -264zM291 146c58 0 101 42 101 104s-43 104 -101 104c-57 0 -100 -42 -100 -104s43 -104 100 -104z" />
    <glyph glyph-name="uni043F" unicode="&#x43f;" horiz-adv-x="545" 
d="M497 500v-500h-166v343h-117v-343h-166v500h166h283z" />
    <glyph glyph-name="uni0440" unicode="&#x440;" horiz-adv-x="615" 
d="M352 514c133 0 239 -114 239 -264s-106 -264 -239 -264c-61 0 -106 19 -138 51v-237h-166v700h166v-37c32 32 77 51 138 51zM319 143c62 0 105 42 105 107s-43 107 -105 107s-105 -42 -105 -107s43 -107 105 -107z" />
    <glyph glyph-name="uni0441" unicode="&#x441;" horiz-adv-x="559" 
d="M546 199c-18 -124 -125 -213 -256 -213c-152 0 -266 115 -266 264s114 264 266 264c131 0 238 -89 256 -213h-173c-12 31 -44 51 -83 51c-56 0 -99 -42 -99 -102s43 -102 99 -102c39 0 72 20 83 51h173z" />
    <glyph glyph-name="uni0442" unicode="&#x442;" horiz-adv-x="430" 
d="M422 500v-157h-123v-343h-166v343h-125v157h291h123z" />
    <glyph glyph-name="uni0443" unicode="&#x443;" horiz-adv-x="537" 
d="M354 500h183l-163 -485c-53 -160 -164 -222 -304 -215v156c68 0 100 12 122 53l-193 491h184l97 -287z" />
    <glyph glyph-name="uni045E" unicode="&#x45e;" horiz-adv-x="537" 
d="M433 694v-140h-323v140h323zM354 500h183l-163 -485c-53 -160 -164 -222 -304 -215v156c68 0 100 12 122 53l-193 491h184l97 -287z" />
    <glyph glyph-name="uni0444" unicode="&#x444;" horiz-adv-x="709" 
d="M684 250c0 -129 -84 -233 -249 -258v-192h-162v192c-164 25 -249 129 -249 258c0 128 85 232 249 257v193h162v-193c165 -25 249 -129 249 -257zM189 250c0 -49 27 -84 84 -100v200c-57 -16 -84 -51 -84 -100zM435 150c58 16 84 51 84 100s-26 84 -84 100v-200z" />
    <glyph glyph-name="uni0445" unicode="&#x445;" horiz-adv-x="503" 
d="M503 0h-176l-75 118l-76 -118h-176l164 255l-157 245h176l69 -107l68 107h176l-156 -245z" />
    <glyph glyph-name="uni0447" unicode="&#x447;" horiz-adv-x="520" 
d="M305 500h167v-500h-167v142c-32 -10 -65 -15 -97 -15c-105 0 -183 63 -183 176v197h167v-168c0 -38 23 -51 53 -51c22 0 42 5 60 13v206z" />
    <glyph glyph-name="uni0446" unicode="&#x446;" horiz-adv-x="587" 
d="M487 157h85v-287h-160v130h-364v500h166v-343h106v343h167v-343z" />
    <glyph glyph-name="uni0448" unicode="&#x448;" horiz-adv-x="775" 
d="M561 500h166v-500h-166h-255h-206h-52v500h166v-343h92v343h164v-343h91v343z" />
    <glyph glyph-name="uni0449" unicode="&#x449;" horiz-adv-x="802" 
d="M712 157h74v-157v-130h-159v130h-165h-248h-166v500h166v-343h84v343h164v-343h84v343h166v-343z" />
    <glyph glyph-name="uni045F" unicode="&#x45f;" horiz-adv-x="545" 
d="M331 500h166v-500h-144v-130h-160v130h-145v500h166v-343h117v343z" />
    <glyph glyph-name="uni044C" unicode="&#x44c;" horiz-adv-x="507" 
d="M296 359c121 0 196 -70 196 -179c0 -110 -75 -180 -196 -180h-213h-35v500h166v-141h82zM286 139c27 0 44 16 44 41c0 24 -17 40 -44 40h-72v-81h72z" />
    <glyph glyph-name="uni044A" unicode="&#x44a;" horiz-adv-x="583" 
d="M371 359c121 0 196 -70 196 -179c0 -110 -75 -180 -196 -180h-213h-35v344h-123v156h180h110v-141h81zM361 139c27 0 44 16 44 41c0 24 -17 40 -44 40h-71v-81h71z" />
    <glyph glyph-name="uni044B" unicode="&#x44b;" horiz-adv-x="747" 
d="M296 359c121 0 196 -70 196 -179c0 -110 -75 -180 -196 -180h-213h-35v500h166v-141h82zM533 500h166v-500h-166v500zM286 139c27 0 44 16 44 41c0 24 -17 40 -44 40h-72v-81h72z" />
    <glyph glyph-name="uni0459" unicode="&#x459;" horiz-adv-x="757" 
d="M556 349c106 0 186 -65 186 -174c0 -110 -82 -175 -186 -175h-206h-35v341h-67v-134c0 -156 -76 -225 -238 -215v154c48 -6 72 21 72 85v269h166h186h47v-151h75zM545 139c19 0 35 13 35 36c0 22 -16 35 -35 35h-64v-71h64z" />
    <glyph glyph-name="uni045A" unicode="&#x45a;" horiz-adv-x="758" 
d="M556 349c107 0 186 -65 186 -174c0 -110 -81 -175 -186 -175h-206h-34v197h-112v-197h-166v500h166v-151h112v151h166v-151h74zM546 139c18 0 34 13 34 36c0 22 -16 35 -34 35h-64v-71h64z" />
    <glyph glyph-name="uni0455" unicode="&#x455;" horiz-adv-x="483" 
d="M197 351c0 -70 258 -3 258 -201c0 -118 -102 -164 -213 -164s-214 49 -214 178h164c0 -29 16 -45 50 -45c33 0 47 11 47 30c0 67 -257 6 -257 201c0 115 103 164 209 164c103 0 204 -54 204 -178h-162c0 29 -16 45 -42 45c-28 0 -44 -11 -44 -30z" />
    <glyph glyph-name="uni0454" unicode="&#x454;" horiz-adv-x="556" 
d="M285 132c54 0 89 28 99 67h162c-18 -124 -125 -213 -256 -213c-154 0 -266 115 -266 264s112 264 266 264c131 0 238 -89 256 -213h-163c-10 36 -44 67 -98 67c-42 0 -74 -19 -92 -50h137v-136h-137c18 -31 50 -50 92 -50z" />
    <glyph glyph-name="uni044D" unicode="&#x44d;" horiz-adv-x="556" 
d="M266 514c155 0 266 -115 266 -264s-111 -264 -266 -264c-131 0 -238 89 -256 213h162c10 -39 45 -67 99 -67c42 0 74 19 92 50h-137v136h137c-18 31 -50 50 -92 50c-54 0 -88 -31 -98 -67h-163c18 124 126 213 256 213z" />
    <glyph glyph-name="uni0456" unicode="&#x456;" horiz-adv-x="262" 
d="M48 555v145h166v-145h-166zM48 0v500h166v-500h-166z" />
    <glyph glyph-name="uni0457" unicode="&#x457;" horiz-adv-x="262" 
d="M-34 550v140h139v-140h-139zM155 550v140h140v-140h-140zM48 0v500h166v-500h-166z" />
    <glyph glyph-name="uni0458" unicode="&#x458;" horiz-adv-x="277" 
d="M63 700h166v-145h-166v145zM63 0v500h166v-500c0 -157 -75 -224 -239 -215v154c50 -3 73 15 73 61z" />
    <glyph glyph-name="uni045B" unicode="&#x45b;" horiz-adv-x="546" 
d="M347 502c93 0 160 -71 160 -196v-306h-166v288c0 38 -22 58 -56 58c-40 0 -61 -25 -61 -70v-276h-166v539h-58v106h58v55h166v-55h135v-106h-135v-93c25 34 66 56 123 56z" />
    <glyph glyph-name="uni044E" unicode="&#x44e;" horiz-adv-x="807" 
d="M516 514c148 0 267 -115 267 -264s-119 -264 -267 -264c-121 0 -218 76 -249 186h-53v-172h-166v500h166v-172h53c31 110 128 186 249 186zM516 146c57 0 100 42 100 104s-43 104 -100 104c-58 0 -101 -42 -101 -104s43 -104 101 -104z" />
    <glyph glyph-name="uni044F" unicode="&#x44f;" horiz-adv-x="535" 
d="M487 500v-500h-164v142h-29l-105 -142h-189l129 169c-55 32 -86 90 -86 150c0 100 69 181 190 181h254zM251 360c-28 0 -46 -16 -46 -44c0 -27 18 -42 46 -42h72v86h-72z" />
    <glyph glyph-name="uni0452" unicode="&#x452;" horiz-adv-x="535" 
d="M347 502c93 0 160 -71 160 -196v-306c0 -157 -75 -224 -239 -215v154c50 -3 73 15 73 61v288c0 38 -22 58 -56 58c-40 0 -61 -25 -61 -70v-276h-166v539h-58v106h58v55h166v-55h135v-106h-135v-93c25 34 66 56 123 56z" />
    <glyph glyph-name="uni0432.loclBGR" horiz-adv-x="562" 
d="M432 409c66 -32 105 -97 105 -191c0 -145 -93 -232 -247 -232c-145 0 -242 95 -242 242v239c0 150 93 247 235 247c123 0 204 -70 204 -181c0 -46 -18 -86 -55 -124zM278 560c-39 0 -64 -33 -64 -86v-55l20 4c16 3 32 6 47 7c33 28 44 52 44 78c0 33 -17 52 -47 52z
M293 144c49 0 78 28 78 74c0 58 -48 80 -123 64l-34 -6v-48c0 -51 31 -84 79 -84z" />
    <glyph glyph-name="uni0433.loclBGR" horiz-adv-x="463" 
d="M281 164h164c0 -129 -102 -178 -212 -178c-112 0 -215 45 -215 163c0 198 257 133 256 202c0 20 -15 30 -42 30c-26 0 -44 -16 -44 -45h-161c0 124 101 178 205 178c105 0 208 -48 208 -164c0 -194 -257 -135 -256 -202c0 -19 14 -29 48 -29c32 0 49 16 49 45z" />
    <glyph glyph-name="uni0434.loclBGR" horiz-adv-x="616" 
d="M406 500h164v-480c0 -167 -134 -235 -259 -235c-131 0 -257 60 -257 207h166c0 -39 36 -62 91 -62c54 0 95 28 95 90v38c-32 -32 -78 -52 -139 -52c-134 0 -239 114 -239 254s105 254 239 254c61 0 107 -20 139 -52v38zM300 158c63 0 106 42 106 102s-43 102 -106 102
s-106 -42 -106 -102s43 -102 106 -102z" />
    <glyph glyph-name="uni0436.loclBGR" horiz-adv-x="779" 
d="M774 0h-183l-119 205v-205h-165v205l-119 -205h-183l156 250l-146 250h183l109 -201v401h165v-401l109 201h183l-146 -250z" />
    <glyph glyph-name="uni0438.loclBGR" 
d="M322 500h166v-500h-166v42c-25 -33 -66 -56 -123 -56c-93 0 -160 71 -160 196v318h166v-299c0 -39 22 -58 55 -58c41 0 62 25 62 70v287z" />
    <glyph glyph-name="uni0439.loclBGR" 
d="M432 694v-140h-323v140h323zM322 500h166v-500h-166v42c-25 -33 -66 -56 -123 -56c-93 0 -160 71 -160 196v318h166v-299c0 -39 22 -58 55 -58c41 0 62 25 62 70v287z" />
    <glyph glyph-name="uni043A.loclBGR" horiz-adv-x="537" 
d="M537 0h-187l-136 211v-211h-166v700h166v-408l126 208h187l-160 -250z" />
    <glyph glyph-name="uni043B.loclBGR" horiz-adv-x="533" 
d="M533 0h-176l-90 283l-91 -283h-176l182 500h154h15z" />
    <glyph glyph-name="uni043F.loclBGR" 
d="M337 514c93 0 160 -71 160 -196v-318h-166v299c0 39 -22 58 -55 58c-41 0 -62 -25 -62 -70v-287h-166v500h166v-42c25 33 66 56 123 56z" />
    <glyph glyph-name="uni0442.loclBGR" horiz-adv-x="768" 
d="M572 514c98 0 158 -63 158 -183v-331h-167v312c0 33 -19 45 -42 45c-30 0 -49 -19 -49 -59v-298h-166v312c0 33 -20 45 -43 45c-30 0 -49 -19 -49 -59v-298h-166v500h166v-42c25 33 65 56 115 56s89 -20 114 -60c32 36 74 60 129 60z" />
    <glyph glyph-name="uni0446.loclBGR" horiz-adv-x="576" 
d="M518 152h45v-152v-130h-157v144c-22 9 -39 22 -53 39c-29 -39 -78 -67 -146 -67c-99 0 -168 71 -168 196v318h166v-299c0 -39 22 -58 55 -58c41 0 62 25 62 70v287h166v-318c0 -19 11 -30 30 -30z" />
    <glyph glyph-name="uni0448.loclBGR" horiz-adv-x="769" 
d="M554 500h166v-500h-166v42c-25 -33 -64 -56 -115 -56c-50 0 -89 20 -114 59c-31 -35 -73 -59 -129 -59c-98 0 -157 63 -157 183v331h166v-312c0 -33 19 -45 43 -45c30 0 48 19 48 59v298h167v-312c0 -33 19 -45 42 -45c30 0 49 19 49 59v298z" />
    <glyph glyph-name="uni0449.loclBGR" horiz-adv-x="808" 
d="M750 152h45v-152v-130h-157v144c-21 8 -38 21 -51 37c-31 -37 -78 -65 -143 -65c-49 0 -90 20 -115 58c-32 -34 -75 -58 -133 -58c-98 0 -157 63 -157 183v331h166v-312c0 -33 19 -45 43 -45c30 0 48 19 48 59v298h167v-312c0 -33 19 -45 42 -45c30 0 49 19 49 59v298
h166v-318c0 -19 11 -30 30 -30z" />
    <glyph glyph-name="uni044C.loclBGR" horiz-adv-x="493" 
d="M268 373c140 0 210 -76 210 -192c0 -112 -84 -196 -220 -196c-142 0 -219 79 -219 206v309h162v-127h67zM258 137c36 0 58 22 58 48c0 29 -17 48 -52 48h-63v-40c0 -34 20 -56 57 -56z" />
    <glyph glyph-name="uni044A.loclBGR" horiz-adv-x="578" 
d="M353 373c140 0 210 -76 210 -192c0 -112 -84 -196 -220 -196c-142 0 -220 79 -220 206v155h-123v154h175h110v-127h68zM343 137c36 0 58 22 58 48c0 29 -17 48 -53 48h-63v-40c0 -34 21 -56 58 -56z" />
    <glyph glyph-name="uni044E.loclBGR" horiz-adv-x="807" 
d="M516 514c148 0 267 -115 267 -264s-119 -264 -267 -264c-121 0 -218 76 -249 186h-53v-172h-166v700h166v-372h53c31 110 128 186 249 186zM516 146c57 0 100 42 100 104s-43 104 -100 104c-58 0 -101 -42 -101 -104s43 -104 101 -104z" />
    <glyph glyph-name="uni0430.ss01" horiz-adv-x="615" 
d="M401 500h166v-500h-166v37c-32 -32 -77 -51 -138 -51c-133 0 -239 114 -239 264s106 264 239 264c61 0 106 -19 138 -51v37zM296 143c62 0 105 42 105 107s-43 107 -105 107s-105 -42 -105 -107s43 -107 105 -107z" />
    <glyph glyph-name="uni0443.ss01" 
d="M322 500h166v-516c0 -140 -105 -199 -217 -199s-215 59 -215 181h159c0 -22 15 -40 53 -40s54 20 54 58v67c-25 -33 -66 -56 -123 -56c-93 0 -160 71 -160 196v309h166v-290c0 -39 22 -58 55 -58c41 0 62 25 62 70v278z" />
    <glyph glyph-name="uni0394" unicode="&#x394;" horiz-adv-x="660" 
d="M437 700l228 -700h-194h-326h-150l228 700h214zM233 155h194l-97 342z" />
    <glyph glyph-name="uni03A9" unicode="&#x3a9;" horiz-adv-x="775" 
d="M755 370c0 -80 -31 -150 -83 -202h68v-168h-281v168v5c70 26 117 92 117 177c0 112 -82 190 -189 190s-188 -78 -188 -190c0 -85 47 -151 117 -177v-102v-71h-281v168h68c-52 52 -83 122 -83 202c0 201 163 345 367 345s368 -144 368 -345z" />
    <glyph glyph-name="pi" unicode="&#x3c0;" horiz-adv-x="659" 
d="M629 500v-157h-74v-343h-166v343h-117v-343h-166v343h-77v157h243h283h74z" />
    <glyph glyph-name="zero" unicode="0" horiz-adv-x="630" 
d="M315 -15c-186 0 -290 148 -290 365s104 365 290 365s290 -148 290 -365s-104 -365 -290 -365zM315 159c75 0 111 64 111 191s-36 191 -111 191s-111 -64 -111 -191s36 -191 111 -191z" />
    <glyph glyph-name="one" unicode="1" horiz-adv-x="409" 
d="M165 700h179v-700h-179v518l-160 -87v182z" />
    <glyph glyph-name="two" unicode="2" horiz-adv-x="541" 
d="M25 0v130l233 241c39 40 69 77 69 113c0 35 -19 57 -58 57c-41 0 -65 -21 -65 -65h-179c0 169 121 239 238 239c122 0 242 -70 242 -230c0 -77 -48 -152 -108 -213l-100 -99h218v-173h-490z" />
    <glyph glyph-name="three" unicode="3" horiz-adv-x="548" 
d="M372 415c87 -27 150 -94 150 -195c0 -158 -120 -235 -257 -235s-257 81 -257 239h178c0 -39 25 -65 79 -65s79 27 79 66s-25 65 -79 65h-101v110l105 129h-237v171h455v-141z" />
    <glyph glyph-name="four" unicode="4" horiz-adv-x="588" 
d="M580 270v-163h-70v-107h-178v107h-317v163l214 430h198l-215 -430h120v131h178v-131h70z" />
    <glyph glyph-name="five" unicode="5" horiz-adv-x="555" 
d="M288 452c137 0 247 -73 247 -232c0 -154 -120 -234 -257 -234c-135 0 -258 80 -258 236h179c0 -37 27 -62 79 -62c51 0 78 25 78 62c0 39 -29 64 -78 64h-229l29 414h420v-171h-253l-6 -77h49z" />
    <glyph glyph-name="six" unicode="6" horiz-adv-x="560" 
d="M321 477c136 -16 224 -113 224 -245c0 -145 -106 -247 -265 -247c-160 0 -265 102 -265 247c0 53 14 101 40 139l211 329h203zM280 149c48 0 86 29 86 83c0 55 -38 84 -86 84s-86 -29 -86 -84s38 -83 86 -83z" />
    <glyph glyph-name="seven" unicode="7" horiz-adv-x="490" 
d="M1 700h474v-148l-219 -552h-193l208 527h-270v173z" />
    <glyph glyph-name="eight" unicode="8" horiz-adv-x="569" 
d="M453 366c61 -38 93 -99 93 -169c0 -128 -92 -211 -261 -211c-170 0 -262 83 -262 211c0 70 32 131 93 169c-43 32 -69 79 -69 140c0 134 104 208 238 208c133 0 237 -74 237 -208c0 -61 -26 -108 -69 -140zM285 552c-43 0 -69 -24 -69 -60c0 -37 26 -60 69 -60
c40 0 68 23 68 60c0 36 -28 60 -68 60zM285 150c49 0 83 27 83 72c0 46 -34 73 -83 73c-50 0 -83 -27 -83 -73c0 -45 33 -72 83 -72z" />
    <glyph glyph-name="nine" unicode="9" horiz-adv-x="560" 
d="M545 468c0 -53 -14 -101 -40 -139l-211 -329h-203l148 223c-136 16 -224 113 -224 245c0 145 106 247 265 247c160 0 265 -102 265 -247zM194 468c0 -55 38 -84 86 -84s86 29 86 84s-38 83 -86 83s-86 -29 -86 -83z" />
    <glyph glyph-name="zero.sinf" horiz-adv-x="409" 
d="M204 -174c-111 0 -186 81 -186 214s75 214 186 214s187 -81 187 -214s-76 -214 -187 -214zM204 -43c34 0 51 31 51 83s-17 83 -51 83c-33 0 -51 -31 -51 -83s18 -83 51 -83z" />
    <glyph glyph-name="one.sinf" horiz-adv-x="276" 
d="M107 240h131v-400h-131v269l-97 -51v129z" />
    <glyph glyph-name="two.sinf" horiz-adv-x="356" 
d="M28 -160v89l142 139c18 18 30 32 30 48c0 13 -6 22 -22 22c-17 0 -25 -10 -25 -32h-130c0 103 71 148 154 148s153 -41 153 -133c0 -45 -28 -85 -70 -124l-42 -40h116v-117h-306z" />
    <glyph glyph-name="three.sinf" horiz-adv-x="335" 
d="M237 77c51 -18 83 -56 83 -112c0 -92 -65 -139 -156 -139c-92 0 -156 47 -156 139h126c0 -16 10 -26 30 -26s29 10 29 26s-9 25 -29 25h-74v71l51 63h-117v116h274v-87z" />
    <glyph glyph-name="four.sinf" horiz-adv-x="362" 
d="M349 11v-115h-35v-56h-122v56h-184v115l116 229h138l-111 -229h41v63h122v-63h35z" />
    <glyph glyph-name="five.sinf" horiz-adv-x="331" 
d="M169 91c83 0 144 -38 144 -133c0 -90 -67 -132 -149 -132s-151 42 -151 135h120c0 -15 10 -26 31 -26c19 0 29 11 29 26c0 17 -11 28 -29 28h-141l17 251h255v-116h-143l-2 -33h19z" />
    <glyph glyph-name="six.sinf" horiz-adv-x="343" 
d="M206 113c78 -13 124 -68 124 -142c0 -85 -61 -145 -159 -145c-97 0 -158 60 -158 145c0 29 7 55 20 77l117 192h134zM171 -66c23 0 38 12 38 37s-15 36 -38 36c-22 0 -37 -11 -37 -36s15 -37 37 -37z" />
    <glyph glyph-name="seven.sinf" horiz-adv-x="302" 
d="M0 240h289v-99l-113 -301h-135l107 284h-148v116z" />
    <glyph glyph-name="eight.sinf" horiz-adv-x="349" 
d="M276 49c38 -22 58 -58 58 -99c0 -75 -58 -124 -159 -124s-160 49 -160 124c0 41 20 77 58 99c-27 20 -44 48 -44 83c0 76 64 122 146 122s145 -46 145 -122c0 -35 -16 -63 -44 -83zM175 148c-21 0 -34 -9 -34 -28c0 -18 13 -27 34 -27c18 0 33 9 33 27
c0 19 -15 28 -33 28zM175 -67c24 0 38 14 38 34c0 19 -14 33 -38 33c-25 0 -38 -14 -38 -33c0 -20 13 -34 38 -34z" />
    <glyph glyph-name="nine.sinf" horiz-adv-x="343" 
d="M330 109c0 -29 -7 -55 -20 -77l-117 -192h-134l78 127c-78 13 -124 68 -124 142c0 85 61 145 158 145c98 0 159 -60 159 -145zM171 146c-22 0 -37 -12 -37 -37s15 -36 37 -36c23 0 38 11 38 36s-15 37 -38 37z" />
    <glyph glyph-name="zero.tf" horiz-adv-x="589" 
d="M295 -15c-186 0 -290 148 -290 365s104 365 290 365c185 0 289 -148 289 -365s-104 -365 -289 -365zM295 159c74 0 111 64 111 191s-37 191 -111 191c-75 0 -111 -64 -111 -191s36 -191 111 -191z" />
    <glyph glyph-name="one.tf" horiz-adv-x="589" 
d="M402 173h172v-173h-350h-199v173h199v345l-161 -87v179l161 90h178v-527z" />
    <glyph glyph-name="two.tf" horiz-adv-x="589" 
d="M34 0v130l261 236c41 37 72 71 72 109c0 36 -28 66 -75 66c-53 0 -82 -30 -82 -78h-179c0 173 135 252 261 252c122 0 254 -79 254 -239c0 -77 -44 -147 -121 -211l-110 -92h243v-173h-524z" />
    <glyph glyph-name="three.tf" horiz-adv-x="589" 
d="M407 421c94 -27 157 -94 157 -198c0 -158 -120 -238 -274 -238c-155 0 -275 84 -275 241h179c0 -41 29 -67 96 -67c66 0 96 27 96 68c0 42 -30 68 -96 68h-101v111l111 123h-258v171h485v-141z" />
    <glyph glyph-name="four.tf" horiz-adv-x="589" 
d="M574 270v-163h-70v-107h-178v107h-321v163l218 430h198l-218 -430h123v131h178v-131h70z" />
    <glyph glyph-name="five.tf" horiz-adv-x="589" 
d="M305 452c152 0 262 -73 262 -232c0 -154 -120 -234 -272 -234s-272 80 -272 236h178c0 -37 27 -62 94 -62c66 0 93 25 93 62c0 39 -29 64 -93 64h-241l29 414h444v-171h-278l-5 -77h61z" />
    <glyph glyph-name="six.tf" horiz-adv-x="589" 
d="M334 487c150 -15 240 -114 240 -250c0 -148 -106 -252 -279 -252c-175 0 -280 104 -280 252c0 58 16 109 46 150l219 313h203zM295 149c61 0 101 31 101 88s-40 89 -101 89c-62 0 -101 -32 -101 -89s39 -88 101 -88z" />
    <glyph glyph-name="seven.tf" horiz-adv-x="589" 
d="M20 700h539v-148l-248 -552h-194l236 527h-333v173z" />
    <glyph glyph-name="eight.tf" horiz-adv-x="589" 
d="M475 365c65 -38 99 -99 99 -168c0 -128 -100 -211 -279 -211c-180 0 -280 83 -280 211c0 69 35 130 99 168c-46 32 -75 79 -75 141c0 134 112 208 256 208c143 0 255 -74 255 -208c0 -62 -28 -109 -75 -141zM295 552c-56 0 -86 -24 -86 -60c0 -37 30 -60 86 -60
c54 0 86 23 86 60c0 36 -32 60 -86 60zM295 150c67 0 100 27 100 72s-33 73 -100 73s-101 -28 -101 -73s34 -72 101 -72z" />
    <glyph glyph-name="nine.tf" horiz-adv-x="589" 
d="M574 463c0 -58 -16 -109 -46 -150l-219 -313h-203l149 213c-150 15 -240 114 -240 250c0 148 106 252 280 252s279 -104 279 -252zM194 463c0 -57 40 -89 101 -89s101 32 101 89s-40 88 -101 88s-101 -31 -101 -88z" />
    <glyph glyph-name="fraction" unicode="&#x2044;" horiz-adv-x="180" 
d="M-55 0h-114l404 700h114z" />
    <glyph glyph-name="onehalf" unicode="&#xbd;" horiz-adv-x="813" 
d="M107 300v269l-97 -51v129l97 53h131v-400h-131zM511 700h114l-404 -700h-114zM674 117h116v-117h-306v89l142 139c18 18 30 32 30 48c0 13 -6 22 -22 22c-17 0 -25 -10 -25 -32h-130c0 103 71 148 154 148s153 -41 153 -133c0 -45 -28 -85 -70 -124z" />
    <glyph glyph-name="onequarter" unicode="&#xbc;" horiz-adv-x="818" 
d="M107 300v269l-97 -51v129l97 53h131v-400h-131zM511 700h114l-404 -700h-114zM805 171v-115h-35v-56h-122v56h-184v115l116 229h138l-111 -229h41v63h122v-63h35z" />
    <glyph glyph-name="threequarters" unicode="&#xbe;" horiz-adv-x="877" 
d="M320 425c0 -92 -65 -139 -156 -139c-92 0 -156 47 -156 139h126c0 -16 10 -26 30 -26s29 10 29 26s-9 25 -29 25h-74v71l50 63h-116v116h274v-87l-60 -76c50 -18 82 -56 82 -112zM570 700h114l-404 -700h-114zM864 171v-115h-35v-56h-122v56h-184v115l116 229h138
l-111 -229h41v63h122v-63h35z" />
    <glyph glyph-name="oneeighth" unicode="&#x215b;" horiz-adv-x="806" 
d="M107 300v269l-97 -51v129l97 53h131v-400h-131zM511 700h114l-404 -700h-114zM733 209c37 -22 57 -58 57 -99c0 -75 -58 -124 -159 -124s-160 49 -160 124c0 41 20 77 58 99c-27 20 -44 48 -44 83c0 76 64 122 146 122s145 -46 145 -122c0 -35 -16 -63 -43 -83zM631 308
c-21 0 -34 -9 -34 -28c0 -18 13 -27 34 -27c18 0 33 9 33 27c0 19 -15 28 -33 28zM631 93c24 0 38 14 38 34c0 19 -14 33 -38 33c-25 0 -38 -14 -38 -33c0 -20 13 -34 38 -34z" />
    <glyph glyph-name="threeeighths" unicode="&#x215c;" horiz-adv-x="865" 
d="M320 425c0 -92 -65 -139 -156 -139c-92 0 -156 47 -156 139h126c0 -16 10 -26 30 -26s29 10 29 26s-9 25 -29 25h-74v71l50 63h-116v116h274v-87l-60 -76c50 -18 82 -56 82 -112zM570 700h114l-404 -700h-114zM792 209c37 -22 57 -58 57 -99c0 -75 -58 -124 -159 -124
s-160 49 -160 124c0 41 20 77 58 99c-27 20 -44 48 -44 83c0 76 64 122 146 122s145 -46 145 -122c0 -35 -16 -63 -43 -83zM690 308c-21 0 -34 -9 -34 -28c0 -18 13 -27 34 -27c18 0 33 9 33 27c0 19 -15 28 -33 28zM690 93c24 0 38 14 38 34c0 19 -14 33 -38 33
c-25 0 -38 -14 -38 -33c0 -20 13 -34 38 -34z" />
    <glyph glyph-name="fiveeighths" unicode="&#x215d;" horiz-adv-x="860" 
d="M313 418c0 -90 -67 -132 -149 -132s-151 42 -151 135h120c0 -15 10 -26 31 -26c19 0 29 11 29 26c0 17 -11 28 -29 28h-141l17 251h255v-116h-142l-3 -33h19c83 0 144 -38 144 -133zM566 700h114l-404 -700h-114zM788 209c37 -22 57 -58 57 -99c0 -75 -58 -124 -159 -124
s-160 49 -160 124c0 41 20 77 58 99c-27 20 -44 48 -44 83c0 76 64 122 146 122s145 -46 145 -122c0 -35 -16 -63 -43 -83zM686 308c-21 0 -34 -9 -34 -28c0 -18 13 -27 34 -27c18 0 33 9 33 27c0 19 -15 28 -33 28zM686 93c24 0 38 14 38 34c0 19 -14 33 -38 33
c-25 0 -38 -14 -38 -33c0 -20 13 -34 38 -34z" />
    <glyph glyph-name="seveneighths" unicode="&#x215e;" horiz-adv-x="831" 
d="M176 300h-135l107 284h-148v116h289v-99zM537 700h114l-404 -700h-114zM759 209c37 -22 57 -58 57 -99c0 -75 -58 -124 -159 -124s-160 49 -160 124c0 41 20 77 58 99c-27 20 -44 48 -44 83c0 76 64 122 146 122s145 -46 145 -122c0 -35 -16 -63 -43 -83zM657 308
c-21 0 -34 -9 -34 -28c0 -18 13 -27 34 -27c18 0 33 9 33 27c0 19 -15 28 -33 28zM657 93c24 0 38 14 38 34c0 19 -14 33 -38 33c-25 0 -38 -14 -38 -33c0 -20 13 -34 38 -34z" />
    <glyph glyph-name="zero.dnom" horiz-adv-x="409" 
d="M204 -14c-111 0 -186 81 -186 214s75 214 186 214s187 -81 187 -214s-76 -214 -187 -214zM204 117c34 0 51 31 51 83s-17 83 -51 83c-33 0 -51 -31 -51 -83s18 -83 51 -83z" />
    <glyph glyph-name="one.dnom" horiz-adv-x="276" 
d="M107 400h131v-400h-131v269l-97 -51v129z" />
    <glyph glyph-name="two.dnom" horiz-adv-x="356" 
d="M28 0v89l142 139c18 18 30 32 30 48c0 13 -6 22 -22 22c-17 0 -25 -10 -25 -32h-130c0 103 71 148 154 148s153 -41 153 -133c0 -45 -28 -85 -70 -124l-42 -40h116v-117h-306z" />
    <glyph glyph-name="three.dnom" horiz-adv-x="335" 
d="M238 237c50 -18 82 -56 82 -112c0 -92 -65 -139 -156 -139c-92 0 -156 47 -156 139h126c0 -16 10 -26 30 -26s29 10 29 26s-9 25 -29 25h-74v71l50 63h-116v116h274v-87z" />
    <glyph glyph-name="four.dnom" horiz-adv-x="362" 
d="M349 171v-115h-35v-56h-122v56h-184v115l116 229h138l-111 -229h41v63h122v-63h35z" />
    <glyph glyph-name="five.dnom" horiz-adv-x="331" 
d="M169 251c83 0 144 -38 144 -133c0 -90 -67 -132 -149 -132s-151 42 -151 135h120c0 -15 10 -26 31 -26c19 0 29 11 29 26c0 17 -11 28 -29 28h-141l17 251h255v-116h-142l-3 -33h19z" />
    <glyph glyph-name="six.dnom" horiz-adv-x="343" 
d="M207 273c77 -13 123 -68 123 -142c0 -85 -61 -145 -159 -145c-97 0 -158 60 -158 145c0 29 7 55 20 77l117 192h134zM171 94c23 0 38 12 38 37s-15 36 -38 36c-22 0 -37 -11 -37 -36s15 -37 37 -37z" />
    <glyph glyph-name="seven.dnom" horiz-adv-x="302" 
d="M0 400h289v-99l-113 -301h-135l107 284h-148v116z" />
    <glyph glyph-name="eight.dnom" horiz-adv-x="349" 
d="M277 209c37 -22 57 -58 57 -99c0 -75 -58 -124 -159 -124s-160 49 -160 124c0 41 20 77 58 99c-27 20 -44 48 -44 83c0 76 64 122 146 122s145 -46 145 -122c0 -35 -16 -63 -43 -83zM175 308c-21 0 -34 -9 -34 -28c0 -18 13 -27 34 -27c18 0 33 9 33 27
c0 19 -15 28 -33 28zM175 93c24 0 38 14 38 34c0 19 -14 33 -38 33c-25 0 -38 -14 -38 -33c0 -20 13 -34 38 -34z" />
    <glyph glyph-name="nine.dnom" horiz-adv-x="343" 
d="M328 269c0 -29 -7 -55 -20 -77l-117 -192h-135l78 127c-77 12 -124 68 -124 142c0 85 61 145 159 145s159 -60 159 -145zM169 306c-22 0 -38 -12 -38 -37s16 -36 38 -36s38 11 38 36s-16 37 -38 37z" />
    <glyph glyph-name="zero.numr" horiz-adv-x="409" 
d="M204 286c-111 0 -186 81 -186 214s75 214 186 214s187 -81 187 -214s-76 -214 -187 -214zM204 417c34 0 51 31 51 83s-17 83 -51 83c-33 0 -51 -31 -51 -83s18 -83 51 -83z" />
    <glyph glyph-name="one.numr" horiz-adv-x="276" 
d="M107 700h131v-400h-131v269l-97 -51v129z" />
    <glyph glyph-name="two.numr" horiz-adv-x="356" 
d="M28 300v89l142 139c18 18 30 32 30 48c0 13 -6 22 -22 22c-17 0 -25 -10 -25 -32h-130c0 103 71 148 154 148s153 -41 153 -133c0 -45 -28 -85 -70 -124l-42 -40h116v-117h-306z" />
    <glyph glyph-name="three.numr" horiz-adv-x="335" 
d="M238 537c50 -18 82 -56 82 -112c0 -92 -65 -139 -156 -139c-92 0 -156 47 -156 139h126c0 -16 10 -26 30 -26s29 10 29 26s-9 25 -29 25h-74v71l50 63h-116v116h274v-87z" />
    <glyph glyph-name="four.numr" horiz-adv-x="362" 
d="M349 471v-115h-35v-56h-122v56h-184v115l116 229h138l-111 -229h41v63h122v-63h35z" />
    <glyph glyph-name="five.numr" horiz-adv-x="331" 
d="M169 551c83 0 144 -38 144 -133c0 -90 -67 -132 -149 -132s-151 42 -151 135h120c0 -15 10 -26 31 -26c19 0 29 11 29 26c0 17 -11 28 -29 28h-141l17 251h255v-116h-142l-3 -33h19z" />
    <glyph glyph-name="six.numr" horiz-adv-x="343" 
d="M207 573c77 -13 123 -68 123 -142c0 -85 -61 -145 -159 -145c-97 0 -158 60 -158 145c0 29 7 55 20 77l117 192h134zM171 394c23 0 38 12 38 37s-15 36 -38 36c-22 0 -37 -11 -37 -36s15 -37 37 -37z" />
    <glyph glyph-name="seven.numr" horiz-adv-x="302" 
d="M0 700h289v-99l-113 -301h-135l107 284h-148v116z" />
    <glyph glyph-name="eight.numr" horiz-adv-x="349" 
d="M277 509c37 -22 57 -58 57 -99c0 -75 -58 -124 -159 -124s-160 49 -160 124c0 41 20 77 58 99c-27 20 -44 48 -44 83c0 76 64 122 146 122s145 -46 145 -122c0 -35 -16 -63 -43 -83zM175 608c-21 0 -34 -9 -34 -28c0 -18 13 -27 34 -27c18 0 33 9 33 27
c0 19 -15 28 -33 28zM175 393c24 0 38 14 38 34c0 19 -14 33 -38 33c-25 0 -38 -14 -38 -33c0 -20 13 -34 38 -34z" />
    <glyph glyph-name="nine.numr" horiz-adv-x="343" 
d="M328 569c0 -29 -7 -55 -20 -77l-117 -192h-135l78 127c-77 12 -124 68 -124 142c0 85 61 145 159 145s159 -60 159 -145zM169 606c-22 0 -38 -12 -38 -37s16 -36 38 -36s38 11 38 36s-16 37 -38 37z" />
    <glyph glyph-name="zero.sups" horiz-adv-x="409" 
d="M204 446c-111 0 -186 81 -186 214s75 214 186 214s187 -81 187 -214s-76 -214 -187 -214zM204 577c34 0 51 31 51 83s-17 83 -51 83c-33 0 -51 -31 -51 -83s18 -83 51 -83z" />
    <glyph glyph-name="one.sups" horiz-adv-x="276" 
d="M107 860h131v-400h-131v269l-97 -51v129z" />
    <glyph glyph-name="two.sups" horiz-adv-x="356" 
d="M28 460v89l142 139c18 18 30 32 30 48c0 13 -6 22 -22 22c-17 0 -25 -10 -25 -32h-130c0 103 71 148 154 148s153 -41 153 -133c0 -45 -28 -85 -70 -124l-42 -40h116v-117h-306z" />
    <glyph glyph-name="three.sups" horiz-adv-x="335" 
d="M238 697c50 -18 82 -56 82 -112c0 -92 -65 -139 -156 -139c-92 0 -156 47 -156 139h126c0 -16 10 -26 30 -26s29 10 29 26s-9 25 -29 25h-74v71l50 63h-116v116h274v-87z" />
    <glyph glyph-name="four.sups" horiz-adv-x="362" 
d="M349 631v-115h-35v-56h-122v56h-184v115l116 229h138l-111 -229h41v63h122v-63h35z" />
    <glyph glyph-name="five.sups" horiz-adv-x="331" 
d="M169 711c83 0 144 -38 144 -133c0 -90 -67 -132 -149 -132s-151 42 -151 135h120c0 -15 10 -26 31 -26c19 0 29 11 29 26c0 17 -11 28 -29 28h-141l17 251h255v-116h-142l-3 -33h19z" />
    <glyph glyph-name="six.sups" horiz-adv-x="343" 
d="M207 733c77 -13 123 -68 123 -142c0 -85 -61 -145 -159 -145c-97 0 -158 60 -158 145c0 29 7 55 20 77l117 192h134zM171 554c23 0 38 12 38 37s-15 36 -38 36c-22 0 -37 -11 -37 -36s15 -37 37 -37z" />
    <glyph glyph-name="seven.sups" horiz-adv-x="302" 
d="M0 860h289v-99l-113 -301h-135l107 284h-148v116z" />
    <glyph glyph-name="eight.sups" horiz-adv-x="349" 
d="M277 669c37 -22 57 -58 57 -99c0 -75 -58 -124 -159 -124s-160 49 -160 124c0 41 20 77 58 99c-27 20 -44 48 -44 83c0 76 64 122 146 122s145 -46 145 -122c0 -35 -16 -63 -43 -83zM175 768c-21 0 -34 -9 -34 -28c0 -18 13 -27 34 -27c18 0 33 9 33 27
c0 19 -15 28 -33 28zM175 553c24 0 38 14 38 34c0 19 -14 33 -38 33c-25 0 -38 -14 -38 -33c0 -20 13 -34 38 -34z" />
    <glyph glyph-name="nine.sups" horiz-adv-x="343" 
d="M328 729c0 -29 -7 -55 -20 -77l-117 -192h-135l78 127c-77 12 -124 68 -124 142c0 85 61 145 159 145s159 -60 159 -145zM169 766c-22 0 -38 -12 -38 -37s16 -36 38 -36s38 11 38 36s-16 37 -38 37z" />
    <glyph glyph-name="asterisk" unicode="*" horiz-adv-x="405" 
d="M359 605v-96l-91 10l57 -70l-80 -50l-43 82l-42 -82l-80 50l56 70l-91 -10v96l91 -10l-56 70l80 50l42 -82l43 82l80 -50l-57 -70z" />
    <glyph glyph-name="backslash" unicode="\" horiz-adv-x="520" 
d="M425 -100l-400 900h70l400 -900h-70z" />
    <glyph glyph-name="periodcentered" unicode="&#xb7;" horiz-adv-x="289" 
d="M55 260v179h179v-179h-179z" />
    <glyph glyph-name="bullet" unicode="&#x2022;" horiz-adv-x="399" 
d="M201 186c-92 0 -166 74 -166 166c0 89 74 162 166 162c90 0 162 -73 162 -162c0 -92 -72 -166 -162 -166z" />
    <glyph glyph-name="colon" unicode=":" horiz-adv-x="289" 
d="M55 321v179h179v-179h-179zM55 0v179h179v-179h-179z" />
    <glyph glyph-name="comma" unicode="," horiz-adv-x="289" 
d="M55 179h179v-179c0 -94 -64 -156 -179 -156v68c64 0 88 30 88 88h-88v179z" />
    <glyph glyph-name="ellipsis" unicode="&#x2026;" horiz-adv-x="788" 
d="M305 0v179h178v-179h-178zM554 0v179h179v-179h-179zM55 0v179h179v-179h-179z" />
    <glyph glyph-name="exclam" unicode="!" horiz-adv-x="294" 
d="M78 255l-33 245v200h204v-200l-33 -245h-138zM58 0v179h178v-179h-178z" />
    <glyph glyph-name="exclamdown" unicode="&#xa1;" horiz-adv-x="294" 
d="M58 500h178v-179h-178v179zM78 245h138l33 -245v-200h-204v200z" />
    <glyph glyph-name="numbersign" unicode="#" horiz-adv-x="631" 
d="M592 385h-101l-11 -70h101l-19 -120h-102l-25 -145h-128l25 145h-83l-24 -145h-128l24 145h-101l19 120h102l12 70h-102l19 120h103l24 145h128l-24 -145h82l24 145h128l-24 -145h100zM352 315l11 70h-82l-12 -70h83z" />
    <glyph glyph-name="period" unicode="." horiz-adv-x="289" 
d="M55 0v179h179v-179h-179z" />
    <glyph glyph-name="question" unicode="?" horiz-adv-x="551" 
d="M178 255c0 121 153 165 153 243c0 28 -20 47 -63 47c-49 0 -73 -25 -73 -64h-174c0 157 117 234 254 234c123 0 235 -70 235 -202c0 -148 -162 -191 -162 -258h-170zM174 0v179h178v-179h-178z" />
    <glyph glyph-name="questiondown" unicode="&#xbf;" horiz-adv-x="545" 
d="M372 500v-179h-179v179h179zM367 245c0 -121 -153 -165 -153 -243c0 -28 21 -47 64 -47c48 0 73 25 73 64h174c0 -157 -118 -234 -255 -234c-123 0 -235 70 -235 202c0 148 163 191 163 258h169z" />
    <glyph glyph-name="quotedbl" unicode="&#x22;" horiz-adv-x="442" 
d="M65 441l-20 259h154l-20 -259h-114zM263 441l-20 259h154l-20 -259h-114z" />
    <glyph glyph-name="quotesingle" unicode="'" horiz-adv-x="243" 
d="M65 441l-20 259h154l-20 -259h-114z" />
    <glyph glyph-name="semicolon" unicode=";" horiz-adv-x="289" 
d="M55 500h179v-179h-179v179zM55 0v179h179v-179c0 -94 -64 -156 -179 -156v68c64 0 88 30 88 88h-88z" />
    <glyph glyph-name="slash" unicode="/" horiz-adv-x="520" 
d="M95 -100h-70l400 900h70z" />
    <glyph glyph-name="underscore" unicode="_" horiz-adv-x="515" 
d="M25 -186v158h465v-158h-465z" />
    <glyph glyph-name="braceleft" unicode="{" horiz-adv-x="348" 
d="M342 -107c-157 -10 -229 65 -229 195v134c0 45 -27 55 -72 50v159c45 -5 72 5 72 50v134c0 130 72 205 229 195v-154c-40 4 -63 -5 -63 -41v-134c0 -62 -22 -105 -67 -129c45 -25 67 -68 67 -130v-134c0 -36 23 -45 63 -41v-154z" />
    <glyph glyph-name="braceright" unicode="}" horiz-adv-x="348" 
d="M5 -107v154c41 -4 63 5 63 41v134c0 62 22 105 67 130c-45 24 -67 67 -67 129v134c0 36 -22 45 -63 41v154c158 10 230 -65 230 -195v-134c0 -45 27 -55 72 -50v-159c-45 5 -72 -5 -72 -50v-134c0 -130 -72 -205 -230 -195z" />
    <glyph glyph-name="bracketleft" unicode="[" horiz-adv-x="309" 
d="M309 641h-97v-582h97v-159h-194h-70v900h167h97v-159z" />
    <glyph glyph-name="bracketright" unicode="]" horiz-adv-x="309" 
d="M264 800v-900h-166h-98v159h98v582h-98v159h264z" />
    <glyph glyph-name="parenleft" unicode="(" horiz-adv-x="327" 
d="M155 -100c-70 140 -110 290 -110 450s40 310 110 450h167c-70 -140 -110 -290 -110 -450s40 -310 110 -450h-167z" />
    <glyph glyph-name="parenright" unicode=")" horiz-adv-x="327" 
d="M172 -100h-167c70 140 110 290 110 450s-40 310 -110 450h167c70 -140 110 -290 110 -450s-40 -310 -110 -450z" />
    <glyph glyph-name="emdash" unicode="&#x2014;" horiz-adv-x="740" 
d="M55 222v158h630v-158h-630z" />
    <glyph glyph-name="endash" unicode="&#x2013;" horiz-adv-x="640" 
d="M55 222v158h530v-158h-530z" />
    <glyph glyph-name="hyphen" unicode="-" horiz-adv-x="500" 
d="M55 222v158h390v-158h-390z" />
    <glyph glyph-name="guillemotleft" unicode="&#xab;" horiz-adv-x="569" 
d="M309 504l-112 -195l112 -195h-141l-113 195l113 195h141zM514 504l-113 -195l113 -195h-142l-112 195l112 195h142z" />
    <glyph glyph-name="guillemotright" unicode="&#xbb;" horiz-adv-x="569" 
d="M197 504l112 -195l-112 -195h-142l113 195l-113 195h142zM401 504l113 -195l-113 -195h-141l112 195l-112 195h141z" />
    <glyph glyph-name="guilsinglleft" unicode="&#x2039;" horiz-adv-x="364" 
d="M309 504l-112 -195l112 -195h-141l-113 195l113 195h141z" />
    <glyph glyph-name="guilsinglright" unicode="&#x203a;" horiz-adv-x="364" 
d="M197 504l112 -195l-112 -195h-142l113 195l-113 195h142z" />
    <glyph glyph-name="quotedblbase" unicode="&#x201e;" horiz-adv-x="513" 
d="M279 179h178v-179c0 -94 -63 -156 -178 -156v68c64 0 88 30 88 88h-88v179zM55 0v179h179v-179c0 -94 -64 -156 -179 -156v68c64 0 88 30 88 88h-88z" />
    <glyph glyph-name="quotedblleft" unicode="&#x201c;" horiz-adv-x="513" 
d="M56 551c0 94 63 156 178 156v-68c-64 0 -88 -30 -88 -88h88v-179h-178v179zM457 639c-64 0 -88 -30 -88 -88h88v-179h-178v179c0 94 63 155 178 155v-67z" />
    <glyph glyph-name="quotedblright" unicode="&#x201d;" horiz-adv-x="513" 
d="M55 521v179h179v-179c0 -93 -64 -155 -179 -155v68c64 0 88 29 88 87h-88zM279 700h178v-179c0 -94 -63 -156 -178 -156v68c64 0 88 30 88 88h-88v179z" />
    <glyph glyph-name="quoteleft" unicode="&#x2018;" horiz-adv-x="289" 
d="M234 639c-64 0 -88 -30 -88 -88h88v-179h-179v179c0 94 64 155 179 155v-67z" />
    <glyph glyph-name="quoteright" unicode="&#x2019;" horiz-adv-x="289" 
d="M55 700h179v-179c0 -93 -64 -155 -179 -155v68c64 0 88 29 88 87h-88v179z" />
    <glyph glyph-name="quotesinglbase" unicode="&#x201a;" horiz-adv-x="289" 
d="M55 179h179v-179c0 -94 -64 -156 -179 -156v68c64 0 88 30 88 88h-88v179z" />
    <glyph glyph-name="space" unicode=" " horiz-adv-x="227" 
 />
    <glyph glyph-name="cent" unicode="&#xa2;" horiz-adv-x="556" 
d="M290 248c39 0 72 20 83 51h173c-18 -124 -125 -213 -256 -213c-23 0 -45 3 -65 7l-30 -93h-63l37 113c-88 43 -145 131 -145 237c0 149 114 264 266 264c13 0 27 -1 40 -3l28 89h63l-34 -103c84 -32 146 -105 159 -196h-173c-7 17 -19 31 -36 40l-62 -192
c5 -1 10 -1 15 -1zM191 350c0 -31 11 -57 30 -75l57 176c-50 -5 -87 -45 -87 -101z" />
    <glyph glyph-name="currency" unicode="&#xa4;" horiz-adv-x="533" 
d="M483 350c0 -49 -17 -94 -45 -129l70 -70l-43 -42l-70 71c-36 -25 -80 -40 -128 -40c-49 0 -93 14 -128 39l-71 -70l-43 42l70 70c-28 35 -44 80 -44 129s16 94 44 129l-70 70l43 42l71 -70c35 25 80 39 128 39s92 -14 128 -39l70 70l43 -42l-69 -70
c27 -35 44 -80 44 -129zM267 294c34 0 56 22 56 56s-22 56 -56 56c-35 0 -56 -22 -56 -56s21 -56 56 -56z" />
    <glyph glyph-name="dollar" unicode="$" horiz-adv-x="551" 
d="M536 200c0 -133 -100 -204 -225 -214v-86h-70v87c-127 12 -226 84 -226 237h177c0 -42 16 -63 49 -72v125c-96 33 -215 78 -215 223c0 131 95 203 215 214v86h70v-87c116 -13 211 -84 211 -232h-170c0 35 -12 57 -41 66v-122c2 -1 4 -1 6 -2c97 -34 219 -75 219 -223z
M202 504c0 -24 16 -39 39 -52v97c-28 -7 -39 -24 -39 -45zM311 151c32 6 47 24 47 45c0 27 -19 43 -47 55v-100z" />
    <glyph glyph-name="Euro" unicode="&#x20ac;" horiz-adv-x="656" 
d="M458 263h181c-15 -169 -114 -278 -274 -278c-156 0 -254 104 -282 265h-68v84h61c-1 5 -1 11 -1 16c0 6 0 13 1 19h-61v84h69c29 159 127 262 281 262c157 0 255 -106 272 -270h-180c-5 64 -39 96 -92 96c-51 0 -84 -29 -100 -88h159v-84h-170v-19v-16h170v-84h-159
c15 -60 48 -91 100 -91c55 0 89 35 93 104z" />
    <glyph glyph-name="florin" unicode="&#x192;" horiz-adv-x="461" 
d="M189 537c27 157 142 199 272 169v-164c-39 18 -91 4 -100 -52l-10 -59h74v-159h-101l-52 -303c-27 -157 -143 -199 -272 -169v164c39 -18 90 -4 100 52l44 256h-68v159h95z" />
    <glyph glyph-name="uni20BD" unicode="&#x20bd;" horiz-adv-x="610" 
d="M347 231h-93v-40h205v-99h-205v-92h-179v92h-65v99h65v40h-65v159h65v310h179h93c140 0 250 -96 250 -235c0 -149 -110 -234 -250 -234zM254 530v-140h93c40 0 71 26 71 70s-31 70 -71 70h-93z" />
    <glyph glyph-name="sterling" unicode="&#xa3;" horiz-adv-x="583" 
d="M266 173h304v-173h-545v173h62v79h-52v140h52v99c0 154 121 224 232 224s232 -70 232 -224v-50h-179v50c0 31 -19 53 -53 53s-53 -22 -53 -53v-99h178v-140h-178v-79z" />
    <glyph glyph-name="yen" unicode="&#xa5;" horiz-adv-x="631" 
d="M631 700l-188 -328h114v-94h-152v-41h152v-93h-152v-144h-179v144h-153v93h153v41h-153v94h115l-188 328h201l114 -225l115 225h201z" />
    <glyph glyph-name="cent.tf" horiz-adv-x="589" 
d="M310 248c39 0 72 20 83 51h173c-18 -124 -125 -213 -256 -213c-23 0 -45 3 -65 7l-30 -93h-63l37 113c-88 43 -145 131 -145 237c0 149 114 264 266 264c13 0 27 -1 40 -3l28 89h63l-34 -103c84 -32 146 -105 159 -196h-173c-7 17 -19 31 -36 40l-62 -192
c5 -1 10 -1 15 -1zM211 350c0 -31 11 -57 30 -75l57 176c-50 -5 -87 -45 -87 -101z" />
    <glyph glyph-name="dollar.tf" horiz-adv-x="589" 
d="M564 202c0 -133 -100 -207 -233 -216v-86h-70v87c-136 11 -236 83 -236 237h177c0 -44 17 -65 59 -73v126c-105 33 -228 75 -228 221c0 132 98 207 228 216v86h70v-87c121 -13 217 -84 217 -232h-170c0 36 -13 58 -47 67v-122l10 -3c101 -34 223 -72 223 -221zM210 502
c0 -25 21 -41 51 -53v101c-39 -7 -51 -26 -51 -48zM331 150c39 7 55 26 55 49c0 28 -23 43 -55 55v-104z" />
    <glyph glyph-name="Euro.tf" horiz-adv-x="589" 
d="M404 263h176c-10 -169 -109 -278 -259 -278c-145 0 -236 104 -262 265h-54v84h47v16v19h-47v84h55c26 159 117 262 261 262c147 0 245 -106 257 -270h-175c-6 64 -39 96 -82 96c-42 0 -69 -29 -81 -88h129v-84h-138v-19v-16h138v-84h-130c12 -60 39 -91 82 -91
c45 0 79 35 83 104z" />
    <glyph glyph-name="florin.tf" horiz-adv-x="589" 
d="M574 542c-63 18 -114 3 -128 -52l-15 -59h108v-159h-150l-78 -303c-40 -155 -166 -199 -296 -169v164c64 -18 110 -2 124 52l68 256h-106v159h149l28 106c41 154 167 199 296 169v-164z" />
    <glyph glyph-name="uni20BD.tf" horiz-adv-x="589" 
d="M324 231h-72v-40h184v-99h-184v-92h-179v92h-63v99h63v40h-63v159h63v310h179h72c140 0 250 -96 250 -235c0 -149 -110 -234 -250 -234zM252 530v-140h72c40 0 71 26 71 70s-31 70 -71 70h-72z" />
    <glyph glyph-name="sterling.tf" horiz-adv-x="589" 
d="M250 173h319v-173h-559v173h62v79h-52v140h52v99c0 154 120 224 239 224s239 -70 239 -224v-50h-178v45c0 36 -22 58 -61 58s-61 -22 -61 -58v-94h193v-140h-193v-79z" />
    <glyph glyph-name="yen.tf" horiz-adv-x="589" 
d="M589 700l-173 -328h121v-94h-153v-41h153v-93h-153v-144h-179v144h-152v93h152v41h-152v94h120l-173 328h201l94 -211l94 211h200z" />
    <glyph glyph-name="approxequal" unicode="&#x2248;" horiz-adv-x="568" 
d="M290 371c-96 42 -131 28 -175 2l-80 38c34 148 125 188 243 138c86 -37 114 -42 130 18l125 -58c-28 -143 -125 -189 -243 -138zM160 131l-125 58c29 143 125 189 243 138c96 -41 132 -28 176 -1l79 -39c-34 -148 -125 -188 -243 -138c-86 37 -114 42 -130 -18z" />
    <glyph glyph-name="asciitilde" unicode="~" horiz-adv-x="606" 
d="M439 461l131 -61c-35 -151 -143 -198 -261 -145c-97 42 -121 45 -142 -20l-132 61c35 151 144 198 262 145c96 -42 119 -44 142 20z" />
    <glyph glyph-name="divide" unicode="&#xf7;" horiz-adv-x="551" 
d="M275 459c-53 0 -94 41 -94 95s41 95 94 95c54 0 95 -41 95 -95s-41 -95 -95 -95zM35 271v158h480v-158h-480zM275 51c-53 0 -94 41 -94 95s41 95 94 95c54 0 95 -41 95 -95s-41 -95 -95 -95z" />
    <glyph glyph-name="emptyset" unicode="&#x2205;" horiz-adv-x="804" 
d="M660 604c64 -66 104 -155 104 -254c0 -200 -162 -362 -362 -362c-64 0 -124 17 -177 46l-41 -54h-129l89 116c-64 66 -104 155 -104 254c0 200 162 362 362 362c64 0 124 -17 177 -46l41 54h129zM154 350c0 -62 22 -119 59 -163l297 389c-33 15 -69 24 -108 24
c-138 0 -248 -111 -248 -250zM402 100c138 0 248 111 248 250c0 62 -22 119 -59 163l-297 -389c33 -15 69 -24 108 -24z" />
    <glyph glyph-name="equal" unicode="=" horiz-adv-x="511" 
d="M35 380v159h440v-159h-440zM35 161v159h440v-159h-440z" />
    <glyph glyph-name="greater" unicode="&#x3e;" horiz-adv-x="521" 
d="M35 619l450 -195v-148l-450 -195v172l271 97l-271 97v172z" />
    <glyph glyph-name="greaterequal" unicode="&#x2265;" horiz-adv-x="521" 
d="M35 684l450 -158v-168l-450 -158v173l280 69l-280 69v173zM35 21v159h450v-159h-450z" />
    <glyph glyph-name="infinity" unicode="&#x221e;" horiz-adv-x="819" 
d="M584 542c111 0 195 -77 195 -192s-84 -192 -195 -192c-72 0 -130 41 -174 86c-45 -45 -103 -86 -174 -86c-112 0 -195 77 -195 192s83 192 195 192c71 0 129 -41 174 -86c44 45 102 86 174 86zM252 310c22 0 46 13 69 40c-23 27 -47 40 -69 40c-23 0 -43 -15 -43 -40
s20 -40 43 -40zM568 310c23 0 42 15 42 40s-19 40 -42 40c-22 0 -46 -13 -69 -40c23 -27 47 -40 69 -40z" />
    <glyph glyph-name="integral" unicode="&#x222b;" horiz-adv-x="461" 
d="M0 -204v164c39 -18 90 -4 100 52l89 521c27 157 142 199 272 169v-164c-39 18 -91 4 -100 -52l-89 -521c-27 -157 -143 -199 -272 -169z" />
    <glyph glyph-name="less" unicode="&#x3c;" horiz-adv-x="521" 
d="M485 619v-172l-270 -97l270 -97v-172l-450 195v148z" />
    <glyph glyph-name="lessequal" unicode="&#x2264;" horiz-adv-x="521" 
d="M485 684v-173l-280 -69l280 -69v-173l-450 158v168zM35 21v159h450v-159h-450z" />
    <glyph glyph-name="logicalnot" unicode="&#xac;" horiz-adv-x="569" 
d="M35 429h499v-158v-120h-169v120h-330v158z" />
    <glyph glyph-name="uni00B5" unicode="&#xb5;" horiz-adv-x="568" 
d="M527 149h26v-149h-72c-48 0 -86 14 -111 41c-27 -34 -64 -55 -120 -55c-12 0 -24 1 -36 3v-189h-166v700h166v-299c0 -39 22 -58 56 -58c40 0 61 25 61 70v287h166v-321c0 -19 11 -30 30 -30z" />
    <glyph glyph-name="minus" unicode="&#x2212;" horiz-adv-x="560" 
d="M41 271v158h478v-158h-478z" />
    <glyph glyph-name="multiply" unicode="&#xd7;" horiz-adv-x="538" 
d="M497 466l-116 -116l116 -116l-112 -112l-116 116l-116 -116l-112 112l116 116l-116 116l112 112l116 -116l116 116z" />
    <glyph glyph-name="notequal" unicode="&#x2260;" horiz-adv-x="511" 
d="M475 380h-164l-26 -60h190v-159h-261l-49 -111h-85l49 111h-94v159h164l27 60h-191v159h261l49 111h86l-49 -111h93v-159z" />
    <glyph glyph-name="partialdiff" unicode="&#x2202;" horiz-adv-x="584" 
d="M240 715c161 0 304 -142 304 -365c0 -244 -125 -365 -290 -365c-142 0 -223 97 -223 215c0 135 87 235 228 235c42 0 79 -10 111 -26c-16 101 -71 148 -151 150c-41 1 -78 -10 -115 -31v151c39 25 82 36 136 36zM264 139c58 0 93 48 106 128c-28 17 -59 24 -89 24
c-47 0 -84 -31 -84 -84c0 -42 30 -68 67 -68z" />
    <glyph glyph-name="percent" unicode="%" horiz-adv-x="863" 
d="M219 356c-105 0 -184 80 -184 180c0 99 79 179 184 179c104 0 182 -79 182 -179s-78 -180 -182 -180zM105 0l505 700h147l-506 -700h-146zM218 488c28 0 47 22 47 48s-19 48 -47 48c-27 0 -46 -22 -46 -48c0 -27 19 -48 46 -48zM645 -14c-106 0 -184 80 -184 179
c0 100 78 180 184 180c104 0 182 -80 182 -180c0 -99 -78 -179 -182 -179zM644 117c28 0 47 23 47 48c0 27 -19 48 -47 48c-27 0 -46 -21 -46 -48c0 -26 19 -48 46 -48z" />
    <glyph glyph-name="perthousand" unicode="&#x2030;" horiz-adv-x="1258" 
d="M219 356c-105 0 -184 80 -184 180c0 99 79 179 184 179c104 0 182 -80 182 -179c0 -100 -78 -180 -182 -180zM105 0l505 700h147l-506 -700h-146zM218 488c28 0 47 22 47 48s-19 48 -47 48c-27 0 -46 -22 -46 -48c0 -27 19 -48 46 -48zM645 -14c-106 0 -184 80 -184 179
c0 100 78 180 184 180c104 0 182 -80 182 -180c0 -99 -78 -179 -182 -179zM1046 -14c-106 0 -184 80 -184 179c0 100 78 180 184 180c104 0 182 -80 182 -180c0 -99 -78 -179 -182 -179zM644 117c28 0 47 23 47 48c0 27 -19 48 -47 48c-27 0 -46 -21 -46 -48
c0 -26 19 -48 46 -48zM1045 117c28 0 47 23 47 48c0 27 -19 48 -47 48c-27 0 -46 -21 -46 -48c0 -26 19 -48 46 -48z" />
    <glyph glyph-name="plus" unicode="+" horiz-adv-x="560" 
d="M519 429v-158h-160v-160h-158v160h-160v158h160v160h158v-160h160z" />
    <glyph glyph-name="plusminus" unicode="&#xb1;" horiz-adv-x="560" 
d="M359 529h160v-158h-160v-136h-158v136h-160v158h160v136h158v-136zM41 21v159h478v-159h-478z" />
    <glyph glyph-name="product" unicode="&#x220f;" horiz-adv-x="631" 
d="M55 -200v900h520v-900h-166v741h-187v-741h-167z" />
    <glyph glyph-name="radical" unicode="&#x221a;" horiz-adv-x="693" 
d="M253 0l-113 179h-109v158h204l84 -146l204 609h170l-280 -800h-160z" />
    <glyph glyph-name="summation" unicode="&#x2211;" horiz-adv-x="561" 
d="M25 -200v139l196 321l-181 300v140h470v-163h-266l166 -277l-180 -297h295v-163h-500z" />
    <glyph glyph-name="arrowup" unicode="&#x2191;" horiz-adv-x="671" 
d="M635 400v-217l-216 217v-400h-167v400l-217 -217v217l300 300z" />
    <glyph glyph-name="uni2197" unicode="&#x2197;" horiz-adv-x="652" 
d="M193 627h424v-424l-153 -153v308l-314 -313l-115 115l314 314h-309z" />
    <glyph glyph-name="arrowright" unicode="&#x2192;" horiz-adv-x="785" 
d="M450 650l300 -300l-300 -300h-217l221 221h-419v158h419l-221 221h217z" />
    <glyph glyph-name="uni2198" unicode="&#x2198;" horiz-adv-x="652" 
d="M464 642l153 -153v-424h-424l-153 153h309l-314 313l115 115l314 -313v309z" />
    <glyph glyph-name="arrowdown" unicode="&#x2193;" horiz-adv-x="671" 
d="M419 300l216 217v-217l-300 -300l-300 300v217l217 -217v400h167v-400z" />
    <glyph glyph-name="uni2199" unicode="&#x2199;" horiz-adv-x="652" 
d="M617 531l-314 -313h309l-153 -153h-424v424l153 153v-309l314 313z" />
    <glyph glyph-name="arrowleft" unicode="&#x2190;" horiz-adv-x="785" 
d="M750 429v-158h-419l221 -221h-217l-300 300l300 300h217l-221 -221h419z" />
    <glyph glyph-name="uni2196" unicode="&#x2196;" horiz-adv-x="652" 
d="M617 160l-115 -115l-314 313v-308l-153 153v424h424l153 -153h-309z" />
    <glyph glyph-name="arrowboth" unicode="&#x2194;" horiz-adv-x="1137" 
d="M817 635l285 -285l-285 -285h-214l203 206h-477l206 -206h-215l-285 285l285 285h215l-206 -206h479l-205 206h214z" />
    <glyph glyph-name="arrowupdn" unicode="&#x2195;" horiz-adv-x="640" 
d="M605 379l-202 202v-462l202 202v-215l-285 -285l-285 285v215l202 -202v462l-202 -202v215l285 285l285 -285v-215z" />
    <glyph glyph-name="lozenge" unicode="&#x25ca;" horiz-adv-x="588" 
d="M221 0l-186 350l186 350h146l186 -350l-186 -350h-146zM294 207l76 143l-76 143l-76 -143z" />
    <glyph glyph-name="bar" unicode="|" horiz-adv-x="277" 
d="M55 -200v920h167v-920h-167z" />
    <glyph glyph-name="brokenbar" unicode="&#xa6;" horiz-adv-x="277" 
d="M55 350v370h167v-370h-167zM55 -200v370h167v-370h-167z" />
    <glyph glyph-name="at" unicode="@" horiz-adv-x="769" 
d="M392 612c223 0 350 -177 350 -342c0 -143 -61 -224 -166 -224c-73 0 -121 33 -141 82c-23 -27 -56 -43 -95 -43c-89 0 -147 70 -147 165s58 165 147 165c34 0 64 -12 86 -33v21h136v-236c0 -40 14 -63 50 -63c47 0 85 47 85 166c0 169 -133 301 -305 301
c-180 0 -320 -140 -320 -321c0 -186 142 -321 338 -321c59 0 107 7 151 22v-43c-42 -13 -91 -20 -151 -20c-218 0 -382 152 -382 362c0 200 156 362 364 362zM378 198c29 0 47 22 47 52c0 31 -18 52 -47 52s-48 -21 -48 -52c0 -30 19 -52 48 -52z" />
    <glyph glyph-name="ampersand" unicode="&#x26;" horiz-adv-x="742" 
d="M737 0h-210l-36 34c-52 -30 -116 -49 -191 -49c-159 0 -265 88 -265 214c0 75 35 141 104 187c-23 34 -39 73 -39 119c0 124 100 210 242 210c131 0 248 -70 248 -234h-179c0 40 -26 64 -69 64c-35 0 -63 -19 -63 -52c0 -30 29 -59 60 -91l139 -141c9 26 14 56 14 88h179
c0 -71 -23 -148 -69 -213zM312 140c21 0 41 4 59 10l-129 125c-19 -18 -26 -40 -26 -60c0 -42 32 -75 96 -75z" />
    <glyph glyph-name="paragraph" unicode="&#xb6;" horiz-adv-x="727" 
d="M692 700v-160h-67v-740h-158v740h-64v-740h-158v451c-125 0 -225 101 -225 224c0 125 100 225 225 225h158h222h67z" />
    <glyph glyph-name="copyright" unicode="&#xa9;" horiz-adv-x="779" 
d="M390 -12c-200 0 -362 162 -362 362s162 362 362 362s362 -162 362 -362s-162 -362 -362 -362zM390 29c175 0 317 143 317 321s-142 321 -317 321c-176 0 -318 -143 -318 -321s142 -321 318 -321zM393 153c-109 0 -199 90 -199 197s90 197 199 197c91 0 174 -63 193 -166
h-143c-9 14 -25 30 -54 30c-37 0 -60 -30 -60 -61s23 -61 60 -61c29 0 45 16 54 30h143c-19 -103 -102 -166 -193 -166z" />
    <glyph glyph-name="registered" unicode="&#xae;" horiz-adv-x="779" 
d="M390 712c200 0 362 -162 362 -362s-162 -362 -362 -362s-362 162 -362 362s162 362 362 362zM390 29c175 0 317 143 317 321s-142 321 -317 321c-176 0 -318 -143 -318 -321s142 -321 318 -321zM563 406c0 -48 -19 -88 -49 -115l84 -126h-140l-61 92h-26v-92h-131v370
h131h52c74 0 140 -52 140 -129zM395 420h-24v-58h24c22 0 37 8 37 29s-15 29 -37 29z" />
    <glyph glyph-name="section" unicode="&#xa7;" horiz-adv-x="557" 
d="M522 291c0 -55 -24 -100 -61 -130c18 -26 29 -58 29 -101c0 -124 -103 -172 -214 -172c-110 0 -213 49 -213 187h164c0 -37 16 -54 49 -54c34 0 48 15 48 38c0 39 -67 55 -136 83c-74 31 -153 76 -153 178c0 55 24 97 61 126c-18 26 -29 59 -29 102
c0 117 103 167 209 167c103 0 204 -54 204 -184h-162c0 33 -17 51 -43 51c-28 0 -43 -13 -43 -33c0 -40 69 -57 139 -86c74 -30 151 -74 151 -172zM199 332c0 -30 29 -47 68 -62c25 -10 54 -19 82 -30c6 10 9 21 9 33c0 31 -29 47 -69 62c-24 10 -53 19 -81 31
c-6 -10 -9 -22 -9 -34z" />
    <glyph glyph-name="trademark" unicode="&#x2122;" horiz-adv-x="471" 
d="M195 700v-69h-46v-131h-73v131h-46v69h165zM441 700v-200h-72v89l-30 -53h-26l-30 54v-90h-70v200h70h3l41 -80l40 80h74z" />
    <glyph glyph-name="degree" unicode="&#xb0;" horiz-adv-x="415" 
d="M208 461c-103 0 -178 79 -178 174c0 97 75 175 178 175c102 0 177 -78 177 -175c0 -95 -73 -174 -177 -174zM208 590c27 0 44 18 44 45s-18 46 -44 46c-27 0 -45 -19 -45 -46c0 -26 18 -45 45 -45z" />
    <glyph glyph-name="estimated" unicode="&#x212e;" horiz-adv-x="780" 
d="M390 710c221 0 370 -161 370 -360c0 -10 -5 -15 -15 -15h-560c-10 0 -15 -5 -15 -15v-192c0 -8 2 -13 7 -19c54 -57 128 -89 233 -89c99 0 177 36 231 97c5 6 10 9 18 9h37c13 0 18 -9 9 -19c-67 -72 -168 -117 -295 -117c-241 0 -390 161 -390 360s149 360 370 360z
M610 572c0 8 -2 13 -7 19c-54 57 -128 89 -213 89s-159 -32 -213 -89c-5 -6 -7 -11 -7 -19v-192c0 -10 5 -15 15 -15h410c10 0 15 5 15 15v192z" />
    <glyph glyph-name="uni2116" unicode="&#x2116;" horiz-adv-x="1021" 
d="M818 366c-103 0 -178 79 -178 174c0 97 75 175 178 175c102 0 177 -78 177 -175c0 -95 -73 -174 -177 -174zM421 700h178v-700h-138l-227 362v-362h-179v700h139l227 -362v362zM818 495c27 0 44 18 44 45c0 26 -18 46 -44 46c-27 0 -45 -20 -45 -46s18 -45 45 -45z
M655 166v159h328v-159h-328z" />
    <glyph glyph-name="asciicircum" unicode="^" horiz-adv-x="580" 
d="M349 700l200 -354h-178l-81 158l-81 -158h-178l200 354h118z" />
    <glyph glyph-name="dagger" unicode="&#x2020;" horiz-adv-x="471" 
d="M435 582v-158h-116v-424h-167v424h-117v158h117v118h167v-118h116z" />
    <glyph glyph-name="daggerdbl" unicode="&#x2021;" horiz-adv-x="471" 
d="M435 424h-116v-148h116v-158h-116v-118h-167v118h-117v158h117v148h-117v158h117v118h167v-118h116v-158z" />
    <glyph glyph-name="uni0308" unicode="&#x308;" horiz-adv-x="0" 
d="M-349 550v140h139v-140h-139zM-160 550v140h140v-140h-140z" />
    <glyph glyph-name="uni0307" unicode="&#x307;" horiz-adv-x="0" 
d="M-179 548v154h159v-154h-159z" />
    <glyph glyph-name="gravecomb" unicode="&#x300;" horiz-adv-x="0" 
d="M-20 555l-80 145h-194l116 -145h158z" />
    <glyph glyph-name="acutecomb" unicode="&#x301;" horiz-adv-x="0" 
d="M-280 555h158l116 145h-194z" />
    <glyph glyph-name="uni030B" unicode="&#x30b;" horiz-adv-x="0" 
d="M-466 545h157l86 150h-163zM-274 545h158l96 150h-164z" />
    <glyph glyph-name="uni0302" unicode="&#x302;" horiz-adv-x="0" 
d="M-20 545h-150l-40 57l-39 -57h-150l106 155h153h14z" />
    <glyph glyph-name="uni030C" unicode="&#x30c;" horiz-adv-x="0" 
d="M-170 700h150l-106 -155h-153h-14l-106 155h150l39 -56z" />
    <glyph glyph-name="uni0306" unicode="&#x306;" horiz-adv-x="0" 
d="M-205 537c-115 0 -179 56 -179 160h140c0 -28 13 -44 39 -44s40 16 40 44h140c0 -104 -64 -160 -180 -160z" />
    <glyph glyph-name="uni030A" unicode="&#x30a;" horiz-adv-x="0" 
d="M-163 533c-82 0 -140 56 -140 132c0 75 58 132 140 132c85 0 141 -57 141 -132c0 -76 -56 -132 -141 -132zM-163 633c23 0 34 14 34 32s-11 32 -34 32c-21 0 -33 -14 -33 -32s12 -32 33 -32z" />
    <glyph glyph-name="tildecomb" unicode="&#x303;" horiz-adv-x="0" 
d="M-373 548c0 169 104 188 190 143c32 -18 49 -26 49 19h120c0 -171 -104 -188 -191 -142c-32 17 -48 25 -48 -20h-120z" />
    <glyph glyph-name="uni0304" unicode="&#x304;" horiz-adv-x="0" 
d="M-329 554v130h309v-130h-309z" />
    <glyph glyph-name="uni0312" unicode="&#x312;" horiz-adv-x="0" 
d="M-149 985l-35 -220h154l10 220h-129z" />
    <glyph glyph-name="uni0326" unicode="&#x326;" horiz-adv-x="0" 
d="M-55 -277l35 220h-154l-10 -220h129z" />
    <glyph glyph-name="uni0327" unicode="&#x327;" horiz-adv-x="0" 
d="M-78 -46c22 -7 58 -29 58 -77c0 -68 -66 -108 -234 -98v109c65 -5 95 1 95 14c0 12 -21 17 -53 20v78h134v-46z" />
    <glyph glyph-name="uni0328" unicode="&#x328;" horiz-adv-x="0" 
d="M-113 -214c-58 0 -105 28 -105 91c0 38 24 83 62 123h131c-29 -31 -43 -59 -43 -78c-1 -15 7 -23 22 -23c6 -1 13 1 21 3v-99c-27 -11 -53 -17 -88 -17z" />
    <glyph glyph-name="acute" unicode="&#xb4;" horiz-adv-x="314" 
d="M20 555h158l116 145h-194z" />
    <glyph glyph-name="breve" unicode="&#x2d8;" horiz-adv-x="399" 
d="M200 537c-116 0 -180 56 -180 160h140c0 -28 14 -44 40 -44s39 16 39 44h140c0 -104 -64 -160 -179 -160z" />
    <glyph glyph-name="caron" unicode="&#x2c7;" horiz-adv-x="419" 
d="M249 700h150l-106 -155h-153h-14l-106 155h150l39 -56z" />
    <glyph glyph-name="cedilla" unicode="&#xb8;" horiz-adv-x="274" 
d="M196 -46c22 -7 58 -29 58 -77c0 -68 -66 -108 -234 -98v109c65 -5 95 1 95 14c0 12 -21 17 -53 20v78h134v-46z" />
    <glyph glyph-name="circumflex" unicode="&#x2c6;" horiz-adv-x="419" 
d="M399 545h-150l-40 57l-39 -57h-150l106 155h153h14z" />
    <glyph glyph-name="dieresis" unicode="&#xa8;" horiz-adv-x="369" 
d="M20 550v140h139v-140h-139zM209 550v140h140v-140h-140z" />
    <glyph glyph-name="dotaccent" unicode="&#x2d9;" horiz-adv-x="199" 
d="M20 548v154h159v-154h-159z" />
    <glyph glyph-name="grave" unicode="`" horiz-adv-x="314" 
d="M294 555l-80 145h-194l116 -145h158z" />
    <glyph glyph-name="hungarumlaut" unicode="&#x2dd;" horiz-adv-x="486" 
d="M20 545h157l86 150h-163zM212 545h158l96 150h-164z" />
    <glyph glyph-name="macron" unicode="&#xaf;" horiz-adv-x="349" 
d="M20 554v130h309v-130h-309z" />
    <glyph glyph-name="ogonek" unicode="&#x2db;" horiz-adv-x="233" 
d="M125 -214c-58 0 -105 28 -105 91c0 38 24 83 62 123h131c-29 -31 -43 -59 -43 -78c-1 -15 7 -23 22 -23c6 -1 13 1 21 3v-99c-27 -11 -53 -17 -88 -17z" />
    <glyph glyph-name="ring" unicode="&#x2da;" horiz-adv-x="321" 
d="M160 533c-82 0 -140 56 -140 132c0 75 58 132 140 132c85 0 141 -57 141 -132c0 -76 -56 -132 -141 -132zM160 633c23 0 35 14 35 32s-12 32 -35 32c-21 0 -33 -14 -33 -32s12 -32 33 -32z" />
    <glyph glyph-name="tilde" unicode="&#x2dc;" horiz-adv-x="399" 
d="M20 548c0 169 104 188 190 143c33 -18 49 -26 49 19h120c0 -171 -104 -188 -190 -142c-33 17 -49 25 -49 -20h-120z" />
    <glyph glyph-name="brevecy" horiz-adv-x="403" 
d="M40 554v140h323v-140h-323z" />
    </font>
</defs>
</svg>
