<?xml version="1.0" standalone="no"?>
<!DOCTYPE svg PUBLIC "-//W3C//DTD SVG 1.1//EN" "http://www.w3.org/Graphics/SVG/1.1/DTD/svg11.dtd" >
<svg>
<metadata>
Created by FontForge 20120731 at Wed Nov 30 10:53:45 2016
 By Apache
Copyright \(c\) 2015 by Radomir Tinkov. All rights reserved.
</metadata>
<defs>
<font id="Qanelas-UltraLight" horiz-adv-x="653" >
  <font-face 
    font-family="Qanelas UltraLight"
    font-weight="250"
    font-stretch="normal"
    units-per-em="1000"
    panose-1="0 0 3 0 0 0 0 0 0 0"
    ascent="800"
    descent="-200"
    x-height="500"
    cap-height="700"
    bbox="-287 -240 1062 960"
    underline-thickness="50"
    underline-position="-50"
    unicode-range="U+0020-FB02"
  />
<missing-glyph horiz-adv-x="500" 
d="M410 800v-1000h-317v1000h317zM333 733h-165v-33h65v-37h-66v-33h166v33h-66v37h66v33zM267 604h-100v-104h166v34h-66v70zM233 570v-36h-33v36h33zM333 473h-166v-33h66v-37h-66v-33h100v70h66v33zM333 413h-33v-66h-133v-34h166v100zM333 291h-100v-56h34v23h33v-47
h-100v80h-33v-113h166v113zM333 118h-166v-113h166v113zM300 85v-47h-100v47h100zM333 -18h-166v-33h70l-70 -47v-33h166v33h-102l70 47h32v33z" />
    <glyph glyph-name="f_f" unicode="ff" horiz-adv-x="567" 
d="M567 687c-108 9 -154 -45 -154 -144v-43h154v-33h-154v-467h-35v467h-89h-145v-467h-36v467h-88v33h88v33c0 117 62 188 190 178v-34c-108 9 -154 -45 -154 -144v-33h154h80v43c0 117 61 188 189 178v-34z" />
    <glyph glyph-name="f_f_i" unicode="ffi" horiz-adv-x="766" 
d="M682 500v-500h-35v467h-234v-467h-35v467h-89h-145v-467h-36v467h-88v33h88v33c0 117 62 188 190 178v-34c-108 9 -154 -45 -154 -144v-33h154h80v43c0 117 61 178 189 178c35 0 67 -4 99 -11v-32c-31 6 -63 9 -99 9c-108 0 -154 -45 -154 -144v-43h269z" />
    <glyph glyph-name="f_f_l" unicode="ffl" horiz-adv-x="766" 
d="M567 721c44 0 77 -4 115 -11v-710h-35v683c-25 4 -52 6 -80 6c-108 0 -154 -47 -154 -146v-43h124v-33h-124v-467h-35v467h-89h-145v-467h-36v467h-88v33h88v33c0 117 62 188 190 178v-34c-108 9 -154 -45 -154 -144v-33h154h80v43c0 117 61 178 189 178z" />
    <glyph glyph-name="fi" unicode="fi" horiz-adv-x="496" 
d="M413 500v-500h-35v467h-234v-467h-36v467h-88v33h88v33c0 117 62 178 190 178c35 0 67 -4 98 -11v-32c-31 6 -63 9 -98 9c-108 0 -154 -45 -154 -144v-33h269z" />
    <glyph glyph-name="fl" unicode="fl" horiz-adv-x="496" 
d="M298 711c44 0 77 -4 115 -11v-700h-35v673c-26 4 -52 6 -80 6c-108 0 -154 -47 -154 -146v-33h124v-33h-124v-467h-36v467h-88v33h88v33c0 117 62 178 190 178z" />
    <glyph glyph-name=".notdef" horiz-adv-x="500" 
d="M410 800v-1000h-317v1000h317zM333 733h-165v-33h65v-37h-66v-33h166v33h-66v37h66v33zM267 604h-100v-104h166v34h-66v70zM233 570v-36h-33v36h33zM333 473h-166v-33h66v-37h-66v-33h100v70h66v33zM333 413h-33v-66h-133v-34h166v100zM333 291h-100v-56h34v23h33v-47
h-100v80h-33v-113h166v113zM333 118h-166v-113h166v113zM300 85v-47h-100v47h100zM333 -18h-166v-33h70l-70 -47v-33h166v33h-102l70 47h32v33z" />
    <glyph glyph-name="A" unicode="A" horiz-adv-x="629" 
d="M570 0l-72 185h-367l-72 -185h-39l274 700h40l275 -700h-39zM144 219h341l-171 438z" />
    <glyph glyph-name="Aacute" unicode="&#xc1;" horiz-adv-x="629" 
d="M402 893l-88 -123h-33l80 123h41zM570 0l-72 185h-367l-72 -185h-39l274 700h40l275 -700h-39zM144 219h341l-171 438z" />
    <glyph glyph-name="Abreve" unicode="&#x102;" horiz-adv-x="629" 
d="M315 769c-76 0 -127 43 -127 113h34c0 -53 36 -83 93 -83s93 30 93 83h34c0 -70 -50 -113 -127 -113zM570 0l-72 185h-367l-72 -185h-39l274 700h40l275 -700h-39zM144 219h341l-171 438z" />
    <glyph glyph-name="Acircumflex" unicode="&#xc2;" horiz-adv-x="629" 
d="M313 872l-90 -102h-40l110 123h39h2l110 -123h-40zM570 0l-72 185h-367l-72 -185h-39l274 700h40l275 -700h-39zM144 219h341l-171 438z" />
    <glyph glyph-name="Adieresis" unicode="&#xc4;" horiz-adv-x="629" 
d="M241 847v-67h-40v67h40zM428 847v-67h-40v67h40zM570 0l-72 185h-367l-72 -185h-39l274 700h40l275 -700h-39zM144 219h341l-171 438z" />
    <glyph glyph-name="Agrave" unicode="&#xc0;" horiz-adv-x="629" 
d="M345 770h-33l-88 123h41zM570 0l-72 185h-367l-72 -185h-39l274 700h40l275 -700h-39zM144 219h341l-171 438z" />
    <glyph glyph-name="Amacron" unicode="&#x100;" horiz-adv-x="629" 
d="M438 824v-30h-247v30h247zM570 0l-72 185h-367l-72 -185h-39l274 700h40l275 -700h-39zM144 219h341l-171 438z" />
    <glyph glyph-name="Aogonek" unicode="&#x104;" horiz-adv-x="629" 
d="M519 -137c0 -28 19 -44 46 -44c19 0 31 2 44 8v-29c-13 -6 -30 -9 -50 -9c-46 0 -74 28 -74 70c0 41 26 89 84 143l-71 183h-367l-72 -185h-39l274 700h40l275 -700c-57 -49 -90 -95 -90 -137zM144 219h341l-171 438z" />
    <glyph glyph-name="Aring" unicode="&#xc5;" horiz-adv-x="629" 
d="M315 757c-59 0 -99 40 -99 93s40 93 99 93c60 0 98 -40 98 -93s-38 -93 -98 -93zM315 916c-42 0 -69 -27 -69 -66s27 -66 69 -66s68 27 68 66s-26 66 -68 66zM570 0l-72 185h-367l-72 -185h-39l274 700h40l275 -700h-39zM144 219h341l-171 438z" />
    <glyph glyph-name="Atilde" unicode="&#xc3;" horiz-adv-x="629" 
d="M311 818c-59 58 -98 44 -98 -31h-31c0 101 65 128 136 61c58 -57 97 -44 97 31h31c0 -100 -66 -127 -135 -61zM570 0l-72 185h-367l-72 -185h-39l274 700h40l275 -700h-39zM144 219h341l-171 438z" />
    <glyph glyph-name="AE" unicode="&#xc6;" horiz-adv-x="865" 
d="M485 34h334v-34h-354h-16v193h-282l-118 -193h-42l428 700h30h20h329v-34h-329v-296h307v-34h-307v-302zM187 227h262v429z" />
    <glyph glyph-name="B" unicode="B" horiz-adv-x="682" 
d="M495 448c89 -30 148 -116 148 -218c0 -126 -94 -230 -221 -230h-319h-10v700h37h230c98 0 167 -70 167 -157c0 -35 -12 -68 -32 -95zM360 666h-230v-206h293c12 0 23 -1 33 -2c21 22 34 52 34 85c0 68 -52 123 -130 123zM419 34c110 0 188 89 188 196
c0 108 -77 196 -187 196h-290v-392h289z" />
    <glyph glyph-name="C" unicode="C" horiz-adv-x="774" 
d="M416 -11c-211 0 -363 162 -363 361s152 361 363 361c148 0 276 -90 320 -218h-39c-42 109 -154 183 -281 183c-191 0 -326 -146 -326 -326s135 -326 326 -326c128 0 239 74 281 183h40c-45 -128 -173 -218 -321 -218z" />
    <glyph glyph-name="Cacute" unicode="&#x106;" horiz-adv-x="774" 
d="M382 770h33l88 123h-41zM416 -11c-211 0 -363 162 -363 361s152 361 363 361c148 0 276 -90 320 -218h-39c-42 109 -154 183 -281 183c-191 0 -326 -146 -326 -326s135 -326 326 -326c128 0 239 74 281 183h40c-45 -128 -173 -218 -321 -218z" />
    <glyph glyph-name="Ccaron" unicode="&#x10c;" horiz-adv-x="774" 
d="M394 770l-110 123h40l90 -102l91 102h40l-110 -123h-41zM697 207h40c-45 -128 -173 -218 -321 -218c-211 0 -363 162 -363 361s152 361 363 361c148 0 276 -90 320 -218h-39c-42 109 -154 183 -281 183c-191 0 -326 -146 -326 -326s135 -326 326 -326
c128 0 239 74 281 183z" />
    <glyph glyph-name="Ccedilla" unicode="&#xc7;" horiz-adv-x="774" 
d="M737 207c-43 -123 -162 -210 -303 -217v-58c46 0 90 -23 90 -67c0 -50 -51 -85 -185 -72v29c102 -11 153 6 153 43c0 29 -29 46 -89 43v82c-204 6 -350 165 -350 360c0 199 152 361 363 361c148 0 276 -90 320 -218h-39c-42 109 -154 183 -281 183
c-191 0 -326 -146 -326 -326s135 -326 326 -326c128 0 239 74 281 183h40z" />
    <glyph glyph-name="Cdotaccent" unicode="&#x10a;" horiz-adv-x="774" 
d="M394 780v77h43v-77h-43zM416 -11c-211 0 -363 162 -363 361s152 361 363 361c148 0 276 -90 320 -218h-39c-42 109 -154 183 -281 183c-191 0 -326 -146 -326 -326s135 -326 326 -326c128 0 239 74 281 183h40c-45 -128 -173 -218 -321 -218z" />
    <glyph glyph-name="D" unicode="D" horiz-adv-x="753" 
d="M370 700c193 0 330 -157 330 -350s-137 -350 -330 -350h-260h-17v700h37h240zM370 34c174 0 294 142 294 316s-120 316 -294 316h-240v-632h240z" />
    <glyph glyph-name="Eth" unicode="&#xd0;" horiz-adv-x="773" 
d="M390 700c193 0 330 -157 330 -350s-137 -350 -330 -350h-260h-17v333h-63v34h63v333h37h240zM390 34c174 0 294 142 294 316s-120 316 -294 316h-240v-299h260v-34h-260v-299h240z" />
    <glyph glyph-name="Dcaron" unicode="&#x10e;" horiz-adv-x="753" 
d="M328 770l-110 123h40l90 -102l91 102h40l-110 -123h-41zM370 700c193 0 330 -157 330 -350s-137 -350 -330 -350h-260h-17v700h37h240zM370 34c174 0 294 142 294 316s-120 316 -294 316h-240v-632h240z" />
    <glyph glyph-name="Dcroat" unicode="&#x110;" horiz-adv-x="773" 
d="M390 700c193 0 330 -157 330 -350s-137 -350 -330 -350h-260h-17v333h-63v34h63v333h37h240zM390 34c174 0 294 142 294 316s-120 316 -294 316h-240v-299h260v-34h-260v-299h240z" />
    <glyph glyph-name="E" unicode="E" horiz-adv-x="520" 
d="M130 34h343v-34h-363h-17v700h37h338v-34h-338v-296h313v-34h-313v-302z" />
    <glyph glyph-name="Eacute" unicode="&#xc9;" horiz-adv-x="520" 
d="M365 893l-88 -123h-33l80 123h41zM130 34h343v-34h-363h-17v700h37h338v-34h-338v-296h313v-34h-313v-302z" />
    <glyph glyph-name="Ecaron" unicode="&#x11a;" horiz-adv-x="520" 
d="M256 770l-110 123h40l90 -102l91 102h40l-110 -123h-41zM130 34h343v-34h-363h-17v700h37h338v-34h-338v-296h313v-34h-313v-302z" />
    <glyph glyph-name="Ecircumflex" unicode="&#xca;" horiz-adv-x="520" 
d="M276 872l-90 -102h-40l110 123h39h2l110 -123h-40zM130 34h343v-34h-363h-17v700h37h338v-34h-338v-296h313v-34h-313v-302z" />
    <glyph glyph-name="Edieresis" unicode="&#xcb;" horiz-adv-x="520" 
d="M204 847v-67h-40v67h40zM391 847v-67h-40v67h40zM130 34h343v-34h-363h-17v700h37h338v-34h-338v-296h313v-34h-313v-302z" />
    <glyph glyph-name="Edotaccent" unicode="&#x116;" horiz-adv-x="520" 
d="M299 857v-77h-43v77h43zM130 34h343v-34h-363h-17v700h37h338v-34h-338v-296h313v-34h-313v-302z" />
    <glyph glyph-name="Egrave" unicode="&#xc8;" horiz-adv-x="520" 
d="M308 770h-33l-88 123h41zM130 34h343v-34h-363h-17v700h37h338v-34h-338v-296h313v-34h-313v-302z" />
    <glyph glyph-name="Emacron" unicode="&#x112;" horiz-adv-x="520" 
d="M401 824v-30h-247v30h247zM130 34h343v-34h-363h-17v700h37h338v-34h-338v-296h313v-34h-313v-302z" />
    <glyph glyph-name="Eogonek" unicode="&#x118;" horiz-adv-x="521" 
d="M431 -181c18 0 30 2 44 8v-29c-14 -6 -31 -9 -50 -9c-47 0 -75 28 -75 70s28 91 85 141h-325h-17v700h37h338v-34h-338v-296h313v-34h-313v-302h343v-34h1c-57 -49 -90 -95 -90 -137c0 -28 19 -44 47 -44z" />
    <glyph glyph-name="F" unicode="F" horiz-adv-x="508" 
d="M468 666h-338v-322h330v-34h-330v-310h-37v700h37h338v-34z" />
    <glyph glyph-name="G" unicode="G" horiz-adv-x="810" 
d="M425 337h310v-34v-303h-36v140c-50 -101 -163 -151 -278 -151c-219 0 -368 162 -368 361s152 361 361 361c148 0 276 -90 321 -218h-40c-42 109 -153 183 -281 183c-189 0 -324 -146 -324 -326s132 -326 331 -326c136 0 265 74 278 219v60h-274v34z" />
    <glyph glyph-name="Gbreve" unicode="&#x11e;" horiz-adv-x="810" 
d="M411 769c-76 0 -127 43 -127 113h34c0 -53 36 -83 93 -83s93 30 93 83h34c0 -70 -50 -113 -127 -113zM425 337h310v-34v-303h-36v140c-50 -101 -163 -151 -278 -151c-219 0 -368 162 -368 361s152 361 361 361c148 0 276 -90 321 -218h-40c-42 109 -153 183 -281 183
c-189 0 -324 -146 -324 -326s132 -326 331 -326c136 0 265 74 278 219v60h-274v34z" />
    <glyph glyph-name="Gcommaaccent" unicode="&#x122;" horiz-adv-x="810" 
d="M425 337h310v-34v-303h-36v140c-50 -101 -163 -151 -278 -151c-219 0 -368 162 -368 361s152 361 361 361c148 0 276 -90 321 -218h-40c-42 109 -153 183 -281 183c-189 0 -324 -146 -324 -326s132 -326 331 -326c136 0 265 74 278 219v60h-274v34zM403 -240l10 170h35
l-19 -170h-26z" />
    <glyph glyph-name="Gdotaccent" unicode="&#x120;" horiz-adv-x="810" 
d="M432 857v-77h-43v77h43zM425 337h310v-34v-303h-36v140c-50 -101 -163 -151 -278 -151c-219 0 -368 162 -368 361s152 361 361 361c148 0 276 -90 321 -218h-40c-42 109 -153 183 -281 183c-189 0 -324 -146 -324 -326s132 -326 331 -326c136 0 265 74 278 219v60h-274
v34z" />
    <glyph glyph-name="H" unicode="H" horiz-adv-x="637" 
d="M507 700h36v-700h-36v343h-377v-343h-37v700h37v-323h377v323z" />
    <glyph glyph-name="Hbar" unicode="&#x126;" horiz-adv-x="693" 
d="M640 555v-30h-68v-525h-37v343h-377v-343h-36v525h-69v30h69v145h36v-145h377v145h37v-145h68zM535 377v148h-377v-148h377z" />
    <glyph glyph-name="I" unicode="I" horiz-adv-x="223" 
d="M93 700h37v-700h-37v700z" />
    <glyph glyph-name="Iacute" unicode="&#xcd;" horiz-adv-x="223" 
d="M78 770h33l88 123h-41zM93 700h37v-700h-37v700z" />
    <glyph glyph-name="Icircumflex" unicode="&#xce;" horiz-adv-x="223" 
d="M131 893l110 -123h-40l-91 102l-90 -102h-40l110 123h39h2zM93 0v700h37v-700h-37z" />
    <glyph glyph-name="Idieresis" unicode="&#xcf;" horiz-adv-x="223" 
d="M-2 780v67h40v-67h-40zM185 780v67h40v-67h-40zM93 700h37v-700h-37v700z" />
    <glyph glyph-name="Idotaccent" unicode="&#x130;" horiz-adv-x="223" 
d="M90 780v77h43v-77h-43zM93 700h37v-700h-37v700z" />
    <glyph glyph-name="Igrave" unicode="&#xcc;" horiz-adv-x="223" 
d="M142 770l-80 123h-41l88 -123h33zM93 700h37v-700h-37v700z" />
    <glyph glyph-name="Imacron" unicode="&#x12a;" horiz-adv-x="223" 
d="M-12 794v30h247v-30h-247zM93 700h37v-700h-37v700z" />
    <glyph glyph-name="Iogonek" unicode="&#x12e;" horiz-adv-x="223" 
d="M128 -181c17 0 30 2 44 8v-29c-15 -6 -31 -9 -50 -9c-47 0 -75 28 -75 70s19 92 46 142v699h37v-700c-26 -51 -50 -92 -50 -137c0 -28 19 -44 48 -44z" />
    <glyph glyph-name="J" unicode="J" horiz-adv-x="537" 
d="M243 -11c-115 0 -210 72 -210 197v7h37v-7c0 -99 70 -162 173 -162c104 0 174 63 174 162v514h36v-514c0 -125 -95 -197 -210 -197z" />
    <glyph glyph-name="K" unicode="K" horiz-adv-x="563" 
d="M553 0h-48l-375 350v-350h-37v700h37v-330l365 330h48l-373 -340z" />
    <glyph glyph-name="Kcommaaccent" unicode="&#x136;" horiz-adv-x="563" 
d="M170 360l383 -360h-48l-375 350v-350h-37v700h37v-330l365 330h48zM288 -240l10 170h35l-19 -170h-26z" />
    <glyph glyph-name="L" unicode="L" horiz-adv-x="497" 
d="M130 34h340v-34h-377v700h37v-666z" />
    <glyph glyph-name="Lacute" unicode="&#x139;" horiz-adv-x="497" 
d="M213 893l-88 -123h-33l80 123h41zM130 34h340v-34h-377v700h37v-666z" />
    <glyph glyph-name="Lcaron" unicode="&#x13d;" horiz-adv-x="497" 
d="M130 34h340v-34h-377v700h37v-666zM315 700l-20 -170h-26l10 170h36z" />
    <glyph glyph-name="Lcommaaccent" unicode="&#x13b;" horiz-adv-x="497" 
d="M130 34h340v-34h-377v700h37v-666zM259 -240l10 170h35l-19 -170h-26z" />
    <glyph glyph-name="Lslash" unicode="&#x141;" horiz-adv-x="510" 
d="M143 34h340v-34h-376v259l-60 -39v34l60 40v406h36v-383l197 130v-34l-197 -130v-249z" />
    <glyph glyph-name="M" unicode="M" horiz-adv-x="813" 
d="M720 700v-700h-37v642l-259 -514h-35l-259 514v-642h-37v700h37h10l267 -529l266 529h47z" />
    <glyph glyph-name="N" unicode="N" horiz-adv-x="630" 
d="M500 700h37v-700h-34l-373 628v-628h-37v700h34l373 -628v628z" />
    <glyph glyph-name="Nacute" unicode="&#x143;" horiz-adv-x="630" 
d="M282 770h33l88 123h-41zM500 700h37v-700h-34l-373 628v-628h-37v700h34l373 -628v628z" />
    <glyph glyph-name="Ncaron" unicode="&#x147;" horiz-adv-x="630" 
d="M293 770l-110 123h40l90 -102l91 102h40l-110 -123h-41zM500 700h37v-700h-34l-373 628v-628h-37v700h34l373 -628v628z" />
    <glyph glyph-name="Ncommaaccent" unicode="&#x145;" horiz-adv-x="630" 
d="M500 700h37v-700h-34l-373 628v-628h-37v700h34l373 -628v628zM315 -240l19 170h-35l-10 -170h26z" />
    <glyph glyph-name="Eng" unicode="&#x14a;" horiz-adv-x="630" 
d="M500 700h37v-700c0 -149 -82 -200 -200 -200v35c107 0 163 42 163 165v6l-370 622v-628h-37v700h34l373 -628v628z" />
    <glyph glyph-name="Ntilde" unicode="&#xd1;" horiz-adv-x="630" 
d="M183 787c0 101 65 128 136 61c58 -57 97 -44 97 31h31c0 -100 -66 -127 -135 -61c-59 58 -98 44 -98 -31h-31zM500 700h37v-700h-34l-373 628v-628h-37v700h34l373 -628v628z" />
    <glyph glyph-name="O" unicode="O" horiz-adv-x="828" 
d="M414 -11c-201 0 -361 162 -361 361s160 361 361 361s361 -162 361 -361s-160 -361 -361 -361zM414 24c181 0 324 146 324 326s-143 326 -324 326s-324 -146 -324 -326s143 -326 324 -326z" />
    <glyph glyph-name="Oacute" unicode="&#xd3;" horiz-adv-x="828" 
d="M381 770h33l88 123h-41zM414 -11c-201 0 -361 162 -361 361s160 361 361 361s361 -162 361 -361s-160 -361 -361 -361zM414 24c181 0 324 146 324 326s-143 326 -324 326s-324 -146 -324 -326s143 -326 324 -326z" />
    <glyph glyph-name="Ocircumflex" unicode="&#xd4;" horiz-adv-x="828" 
d="M412 872l-90 -102h-40l110 123h39h2l110 -123h-40zM414 711c201 0 361 -162 361 -361s-160 -361 -361 -361s-361 162 -361 361s160 361 361 361zM414 24c181 0 324 146 324 326s-143 326 -324 326s-324 -146 -324 -326s143 -326 324 -326z" />
    <glyph glyph-name="Odieresis" unicode="&#xd6;" horiz-adv-x="828" 
d="M301 780v67h40v-67h-40zM488 780v67h40v-67h-40zM414 -11c-201 0 -361 162 -361 361s160 361 361 361s361 -162 361 -361s-160 -361 -361 -361zM414 24c181 0 324 146 324 326s-143 326 -324 326s-324 -146 -324 -326s143 -326 324 -326z" />
    <glyph glyph-name="Ograve" unicode="&#xd2;" horiz-adv-x="828" 
d="M444 770l-80 123h-41l88 -123h33zM414 -11c-201 0 -361 162 -361 361s160 361 361 361s361 -162 361 -361s-160 -361 -361 -361zM414 24c181 0 324 146 324 326s-143 326 -324 326s-324 -146 -324 -326s143 -326 324 -326z" />
    <glyph glyph-name="Ohungarumlaut" unicode="&#x150;" horiz-adv-x="828" 
d="M307 770h34l75 130h-39zM447 770h34l85 130h-39zM414 -11c-201 0 -361 162 -361 361s160 361 361 361s361 -162 361 -361s-160 -361 -361 -361zM414 24c181 0 324 146 324 326s-143 326 -324 326s-324 -146 -324 -326s143 -326 324 -326z" />
    <glyph glyph-name="Omacron" unicode="&#x14c;" horiz-adv-x="828" 
d="M291 794v30h247v-30h-247zM414 -11c-201 0 -361 162 -361 361s160 361 361 361s361 -162 361 -361s-160 -361 -361 -361zM414 24c181 0 324 146 324 326s-143 326 -324 326s-324 -146 -324 -326s143 -326 324 -326z" />
    <glyph glyph-name="Oslash" unicode="&#xd8;" horiz-adv-x="838" 
d="M670 615c71 -66 115 -160 115 -265c0 -199 -160 -361 -361 -361c-85 0 -162 29 -224 77l-56 -66h-39l73 85c-71 66 -115 160 -115 265c0 199 160 361 361 361c85 0 162 -29 224 -77l56 66h39zM100 350c0 -94 39 -178 101 -238l423 495c-55 43 -124 69 -200 69
c-181 0 -324 -146 -324 -326zM424 24c181 0 324 146 324 326c0 94 -39 178 -101 238l-423 -495c55 -43 124 -69 200 -69z" />
    <glyph glyph-name="Otilde" unicode="&#xd5;" horiz-adv-x="828" 
d="M282 787c0 101 65 128 136 61c58 -57 97 -44 97 31h31c0 -100 -66 -127 -135 -61c-59 58 -98 44 -98 -31h-31zM414 -11c-201 0 -361 162 -361 361s160 361 361 361s361 -162 361 -361s-160 -361 -361 -361zM414 24c181 0 324 146 324 326s-143 326 -324 326
s-324 -146 -324 -326s143 -326 324 -326z" />
    <glyph glyph-name="OE" unicode="&#x152;" horiz-adv-x="909" 
d="M536 34h326v-34h-346h-17c-28 -7 -58 -11 -95 -11c-207 0 -351 162 -351 361s144 361 351 361c37 0 67 -4 95 -11h37h321v-34h-321v-296h300v-34h-300v-302zM499 36v628c-28 8 -57 12 -95 12c-187 0 -314 -146 -314 -326s127 -326 314 -326c38 0 67 4 95 12z" />
    <glyph glyph-name="P" unicode="P" horiz-adv-x="573" 
d="M323 700c112 0 204 -91 204 -203s-92 -204 -204 -204h-193v-293h-37v700h37h193zM323 327c92 0 167 77 167 170s-75 169 -167 169h-193v-339h193z" />
    <glyph glyph-name="Thorn" unicode="&#xde;" horiz-adv-x="573" 
d="M323 553c112 0 204 -91 204 -203s-92 -203 -204 -203h-193v-147h-37v700h37v-147h193zM323 181c92 0 167 76 167 169s-75 169 -167 169h-193v-338h193z" />
    <glyph glyph-name="Q" unicode="Q" horiz-adv-x="833" 
d="M775 350c0 -105 -45 -199 -116 -265l87 -100l-26 -21l-87 99c-61 -46 -137 -74 -219 -74c-199 0 -361 162 -361 361s162 361 361 361s361 -162 361 -361zM414 24c74 0 141 24 195 66l-96 110l26 21l96 -109c63 59 103 144 103 238c0 180 -145 326 -324 326
s-324 -146 -324 -326s145 -326 324 -326z" />
    <glyph glyph-name="R" unicode="R" horiz-adv-x="623" 
d="M575 0l-259 293h-186v-293h-37v700h37h193c112 0 204 -91 204 -203c0 -100 -73 -184 -169 -201l262 -296h-45zM130 666v-339h193c92 0 167 77 167 170s-75 169 -167 169h-193z" />
    <glyph glyph-name="Racute" unicode="&#x154;" horiz-adv-x="623" 
d="M361 893l-88 -123h-33l80 123h41zM575 0l-259 293h-186v-293h-37v700h37h193c112 0 204 -91 204 -203c0 -100 -73 -184 -169 -201l262 -296h-45zM130 666v-339h193c92 0 167 77 167 170s-75 169 -167 169h-193z" />
    <glyph glyph-name="Rcaron" unicode="&#x158;" horiz-adv-x="623" 
d="M252 770l-110 123h40l90 -102l91 102h40l-110 -123h-41zM575 0l-259 293h-186v-293h-37v700h37h193c112 0 204 -91 204 -203c0 -100 -73 -184 -169 -201l262 -296h-45zM130 666v-339h193c92 0 167 77 167 170s-75 169 -167 169h-193z" />
    <glyph glyph-name="Rcommaaccent" unicode="&#x156;" horiz-adv-x="623" 
d="M358 296l262 -296h-45l-259 293h-186v-293h-37v700h37h193c112 0 204 -91 204 -203c0 -100 -73 -184 -169 -201zM130 666v-339h193c92 0 167 77 167 170s-75 169 -167 169h-193zM317 -240l10 170h35l-19 -170h-26z" />
    <glyph glyph-name="S" unicode="S" horiz-adv-x="550" 
d="M287 -11c-138 0 -240 72 -240 195h36c0 -97 77 -160 204 -160c109 0 180 61 180 145c0 100 -90 132 -183 167c-106 39 -219 72 -219 200c0 103 90 175 207 175c113 0 210 -74 210 -184h-37c0 84 -71 149 -173 149c-105 0 -170 -63 -170 -140c0 -100 91 -130 187 -166
c104 -40 214 -76 214 -201c0 -110 -96 -180 -216 -180z" />
    <glyph glyph-name="Sacute" unicode="&#x15a;" horiz-adv-x="550" 
d="M238 770h33l88 123h-41zM287 -11c-138 0 -240 72 -240 195h36c0 -97 77 -160 204 -160c109 0 180 61 180 145c0 100 -90 132 -183 167c-106 39 -219 72 -219 200c0 103 90 175 207 175c113 0 210 -74 210 -184h-37c0 84 -71 149 -173 149c-105 0 -170 -63 -170 -140
c0 -100 91 -130 187 -166c104 -40 214 -76 214 -201c0 -110 -96 -180 -216 -180z" />
    <glyph glyph-name="Scaron" unicode="&#x160;" horiz-adv-x="550" 
d="M249 770l-110 123h40l90 -102l91 102h40l-110 -123h-41zM289 370c104 -40 214 -76 214 -201c0 -110 -96 -180 -216 -180c-138 0 -240 72 -240 195h36c0 -97 77 -160 204 -160c109 0 180 61 180 145c0 100 -90 132 -183 167c-106 39 -219 72 -219 200
c0 103 90 175 207 175c113 0 210 -74 210 -184h-37c0 84 -71 149 -173 149c-105 0 -170 -63 -170 -140c0 -100 91 -130 187 -166z" />
    <glyph glyph-name="Scedilla" unicode="&#x15e;" horiz-adv-x="550" 
d="M503 169c0 -107 -91 -176 -206 -180v-57c46 0 90 -23 90 -67c0 -50 -51 -85 -185 -72v29c102 -11 153 6 153 43c0 29 -29 46 -89 43v82c-128 7 -219 77 -219 194h36c0 -97 77 -160 204 -160c109 0 180 61 180 145c0 100 -90 132 -183 167c-106 39 -219 72 -219 200
c0 103 90 175 207 175c113 0 210 -74 210 -184h-37c0 84 -71 149 -173 149c-105 0 -170 -63 -170 -140c0 -100 91 -130 187 -166c104 -40 214 -76 214 -201z" />
    <glyph glyph-name="Scommaaccent" unicode="&#x218;" horiz-adv-x="550" 
d="M287 -11c-138 0 -240 72 -240 195h36c0 -97 77 -160 204 -160c109 0 180 61 180 145c0 100 -90 132 -183 167c-106 39 -219 72 -219 200c0 103 90 175 207 175c113 0 210 -74 210 -184h-37c0 84 -71 149 -173 149c-105 0 -170 -63 -170 -140c0 -100 91 -130 187 -166
c104 -40 214 -76 214 -201c0 -110 -96 -180 -216 -180zM284 -240l19 170h-35l-10 -170h26z" />
    <glyph glyph-name="T" unicode="T" horiz-adv-x="500" 
d="M473 700v-34h-205v-666h-36v666h-205v34h241h205z" />
    <glyph glyph-name="Tbar" unicode="&#x166;" horiz-adv-x="500" 
d="M473 666h-205v-299h162v-34h-162v-333h-36v333h-162v34h162v299h-205v34h241h205v-34z" />
    <glyph glyph-name="Tcaron" unicode="&#x164;" horiz-adv-x="500" 
d="M228 770l-110 123h40l90 -102l91 102h40l-110 -123h-41zM473 700v-34h-205v-666h-36v666h-205v34h241h205z" />
    <glyph glyph-name="uni0162" unicode="&#x162;" horiz-adv-x="500" 
d="M473 700v-34h-205v-666h-36v666h-205v34h446zM224 -240l10 170h35l-19 -170h-26z" />
    <glyph glyph-name="uni021A" unicode="&#x21a;" horiz-adv-x="500" 
d="M473 700v-34h-205v-666h-36v666h-205v34h446zM224 -240l10 170h35l-19 -170h-26z" />
    <glyph glyph-name="U" unicode="U" horiz-adv-x="627" 
d="M313 -11c-131 0 -230 75 -230 207v504h37v-504c0 -106 73 -172 193 -172c121 0 194 66 194 172v504h36v-504c0 -132 -98 -207 -230 -207z" />
    <glyph glyph-name="Uacute" unicode="&#xda;" horiz-adv-x="627" 
d="M277 770h33l88 123h-41zM313 -11c-131 0 -230 75 -230 207v504h37v-504c0 -106 73 -172 193 -172c121 0 194 66 194 172v504h36v-504c0 -132 -98 -207 -230 -207z" />
    <glyph glyph-name="Ucircumflex" unicode="&#xdb;" horiz-adv-x="627" 
d="M308 872l-90 -102h-40l110 123h39h2l110 -123h-40zM507 700h36v-504c0 -132 -98 -207 -230 -207c-131 0 -230 75 -230 207v504h37v-504c0 -106 73 -172 193 -172c121 0 194 66 194 172v504z" />
    <glyph glyph-name="Udieresis" unicode="&#xdc;" horiz-adv-x="627" 
d="M197 780v67h40v-67h-40zM384 780v67h40v-67h-40zM313 -11c-131 0 -230 75 -230 207v504h37v-504c0 -106 73 -172 193 -172c121 0 194 66 194 172v504h36v-504c0 -132 -98 -207 -230 -207z" />
    <glyph glyph-name="Ugrave" unicode="&#xd9;" horiz-adv-x="627" 
d="M340 770l-80 123h-41l88 -123h33zM313 -11c-131 0 -230 75 -230 207v504h37v-504c0 -106 73 -172 193 -172c121 0 194 66 194 172v504h36v-504c0 -132 -98 -207 -230 -207z" />
    <glyph glyph-name="Uhungarumlaut" unicode="&#x170;" horiz-adv-x="627" 
d="M203 770h34l75 130h-39zM343 770h34l85 130h-39zM313 -11c-131 0 -230 75 -230 207v504h37v-504c0 -106 73 -172 193 -172c121 0 194 66 194 172v504h36v-504c0 -132 -98 -207 -230 -207z" />
    <glyph glyph-name="Umacron" unicode="&#x16a;" horiz-adv-x="627" 
d="M187 794v30h247v-30h-247zM313 -11c-131 0 -230 75 -230 207v504h37v-504c0 -106 73 -172 193 -172c121 0 194 66 194 172v504h36v-504c0 -132 -98 -207 -230 -207z" />
    <glyph glyph-name="Uogonek" unicode="&#x172;" horiz-adv-x="627" 
d="M507 700h36v-504c0 -67 -25 -120 -68 -155c-104 -90 -136 -128 -136 -178c0 -28 19 -44 47 -44c18 0 30 2 44 8v-29c-14 -6 -31 -9 -50 -9c-47 0 -75 28 -75 70c0 40 25 87 84 140c-23 -7 -49 -10 -76 -10c-131 0 -230 75 -230 207v504h37v-504c0 -106 73 -172 193 -172
c121 0 194 66 194 172v504z" />
    <glyph glyph-name="Uring" unicode="&#x16e;" horiz-adv-x="627" 
d="M310 757c-59 0 -99 40 -99 93s40 93 99 93c60 0 98 -40 98 -93s-38 -93 -98 -93zM310 784c42 0 68 27 68 66s-26 66 -68 66s-69 -27 -69 -66s27 -66 69 -66zM313 -11c-131 0 -230 75 -230 207v504h37v-504c0 -106 73 -172 193 -172c121 0 194 66 194 172v504h36v-504
c0 -132 -98 -207 -230 -207z" />
    <glyph glyph-name="V" unicode="V" horiz-adv-x="601" 
d="M281 0l-264 700h38l246 -656l245 656h39l-264 -700h-40z" />
    <glyph glyph-name="W" unicode="W" horiz-adv-x="860" 
d="M801 700h36l-226 -700h-48l-133 414l-133 -414h-48l-226 700h36l214 -662l139 432l-74 230h36l213 -662z" />
    <glyph glyph-name="Wacute" unicode="&#x1e82;" horiz-adv-x="860" 
d="M518 893l-88 -123h-33l80 123h41zM801 700h36l-226 -700h-48l-133 414l-133 -414h-48l-226 700h36l214 -662l139 432l-74 230h36l213 -662z" />
    <glyph glyph-name="Wcircumflex" unicode="&#x174;" horiz-adv-x="860" 
d="M429 872l-90 -102h-40l110 123h39h2l110 -123h-40zM801 700h36l-226 -700h-48l-133 414l-133 -414h-48l-226 700h36l214 -662l139 432l-74 230h36l213 -662z" />
    <glyph glyph-name="Wdieresis" unicode="&#x1e84;" horiz-adv-x="860" 
d="M357 847v-67h-40v67h40zM544 847v-67h-40v67h40zM801 700h36l-226 -700h-48l-133 414l-133 -414h-48l-226 700h36l214 -662l139 432l-74 230h36l213 -662z" />
    <glyph glyph-name="Wgrave" unicode="&#x1e80;" horiz-adv-x="860" 
d="M461 770h-33l-88 123h41zM801 700h36l-226 -700h-48l-133 414l-133 -414h-48l-226 700h36l214 -662l139 432l-74 230h36l213 -662z" />
    <glyph glyph-name="X" unicode="X" horiz-adv-x="563" 
d="M537 0h-41l-214 328l-215 -328h-40l235 358l-224 342h40l204 -311l203 311h41l-224 -342z" />
    <glyph glyph-name="Y" unicode="Y" horiz-adv-x="565" 
d="M548 700l-247 -372v-328h-37v329l-247 371h41l225 -338l224 338h41z" />
    <glyph glyph-name="Yacute" unicode="&#xdd;" horiz-adv-x="565" 
d="M369 893l-88 -123h-33l80 123h41zM548 700l-247 -372v-328h-37v329l-247 371h41l225 -338l224 338h41z" />
    <glyph glyph-name="Ycircumflex" unicode="&#x176;" horiz-adv-x="565" 
d="M280 872l-90 -102h-40l110 123h39h2l110 -123h-40zM548 700l-247 -372v-328h-37v329l-247 371h41l225 -338l224 338h41z" />
    <glyph glyph-name="Ydieresis" unicode="&#x178;" horiz-adv-x="565" 
d="M208 847v-67h-40v67h40zM395 847v-67h-40v67h40zM548 700l-247 -372v-328h-37v329l-247 371h41l225 -338l224 338h41z" />
    <glyph glyph-name="Ygrave" unicode="&#x1ef2;" horiz-adv-x="565" 
d="M312 770h-33l-88 123h41zM548 700l-247 -372v-328h-37v329l-247 371h41l225 -338l224 338h41z" />
    <glyph glyph-name="Z" unicode="Z" horiz-adv-x="513" 
d="M87 34h390v-34h-430v34l380 632h-370v34h410v-34z" />
    <glyph glyph-name="Zacute" unicode="&#x179;" horiz-adv-x="513" 
d="M349 893l-88 -123h-33l80 123h41zM87 34h390v-34h-430v34l380 632h-370v34h410v-34z" />
    <glyph glyph-name="Zcaron" unicode="&#x17d;" horiz-adv-x="513" 
d="M240 770l-110 123h40l90 -102l91 102h40l-110 -123h-41zM87 34h390v-34h-430v34l380 632h-370v34h410v-34z" />
    <glyph glyph-name="Zdotaccent" unicode="&#x17b;" horiz-adv-x="513" 
d="M283 857v-77h-43v77h43zM87 34h390v-34h-430v34l380 632h-370v34h410v-34z" />
    <glyph glyph-name="a" unicode="a" horiz-adv-x="499" 
d="M250 511c101 0 180 -63 180 -179v-332h-35v65c-31 -54 -94 -76 -166 -76c-95 0 -179 53 -179 155c0 101 84 154 179 154c73 0 135 -26 166 -75v109c0 96 -64 145 -145 145s-145 -45 -145 -125h-35c0 93 73 159 180 159zM234 22c87 0 161 36 161 122
c0 87 -77 121 -161 121c-93 0 -149 -49 -149 -121c0 -73 56 -122 149 -122z" />
    <glyph glyph-name="aacute" unicode="&#xe1;" horiz-adv-x="499" 
d="M338 693l-88 -123h-33l80 123h41zM250 511c101 0 180 -63 180 -179v-332h-35v65c-31 -54 -94 -76 -166 -76c-95 0 -179 53 -179 155c0 101 84 154 179 154c73 0 135 -26 166 -75v109c0 96 -64 145 -145 145s-145 -45 -145 -125h-35c0 93 73 159 180 159zM234 22
c87 0 161 36 161 122c0 87 -77 121 -161 121c-93 0 -149 -49 -149 -121c0 -73 56 -122 149 -122z" />
    <glyph glyph-name="abreve" unicode="&#x103;" horiz-adv-x="499" 
d="M251 569c-76 0 -127 43 -127 113h34c0 -53 36 -83 93 -83s93 30 93 83h34c0 -70 -50 -113 -127 -113zM250 511c101 0 180 -63 180 -179v-332h-35v65c-31 -54 -94 -76 -166 -76c-95 0 -179 53 -179 155c0 101 84 154 179 154c73 0 135 -26 166 -75v109
c0 96 -64 145 -145 145s-145 -45 -145 -125h-35c0 93 73 159 180 159zM234 22c87 0 161 36 161 122c0 87 -77 121 -161 121c-93 0 -149 -49 -149 -121c0 -73 56 -122 149 -122z" />
    <glyph glyph-name="acircumflex" unicode="&#xe2;" horiz-adv-x="499" 
d="M249 672l-90 -102h-40l110 123h39h2l110 -123h-40zM250 511c101 0 180 -63 180 -179v-332h-35v65c-31 -54 -94 -76 -166 -76c-95 0 -179 53 -179 155c0 101 84 154 179 154c73 0 135 -26 166 -75v109c0 96 -64 145 -145 145s-145 -45 -145 -125h-35c0 93 73 159 180 159z
M234 22c87 0 161 36 161 122c0 87 -77 121 -161 121c-93 0 -149 -49 -149 -121c0 -73 56 -122 149 -122z" />
    <glyph glyph-name="adieresis" unicode="&#xe4;" horiz-adv-x="499" 
d="M177 647v-67h-40v67h40zM364 647v-67h-40v67h40zM250 511c101 0 180 -63 180 -179v-332h-35v65c-31 -54 -94 -76 -166 -76c-95 0 -179 53 -179 155c0 101 84 154 179 154c73 0 135 -26 166 -75v109c0 96 -64 145 -145 145s-145 -45 -145 -125h-35c0 93 73 159 180 159z
M234 22c87 0 161 36 161 122c0 87 -77 121 -161 121c-93 0 -149 -49 -149 -121c0 -73 56 -122 149 -122z" />
    <glyph glyph-name="agrave" unicode="&#xe0;" horiz-adv-x="499" 
d="M281 570h-33l-88 123h41zM250 511c101 0 180 -63 180 -179v-332h-35v65c-31 -54 -94 -76 -166 -76c-95 0 -179 53 -179 155c0 101 84 154 179 154c73 0 135 -26 166 -75v109c0 96 -64 145 -145 145s-145 -45 -145 -125h-35c0 93 73 159 180 159zM234 22
c87 0 161 36 161 122c0 87 -77 121 -161 121c-93 0 -149 -49 -149 -121c0 -73 56 -122 149 -122z" />
    <glyph glyph-name="amacron" unicode="&#x101;" horiz-adv-x="499" 
d="M374 624v-30h-247v30h247zM250 511c101 0 180 -63 180 -179v-332h-35v65c-31 -54 -94 -76 -166 -76c-95 0 -179 53 -179 155c0 101 84 154 179 154c73 0 135 -26 166 -75v109c0 96 -64 145 -145 145s-145 -45 -145 -125h-35c0 93 73 159 180 159zM234 22
c87 0 161 36 161 122c0 87 -77 121 -161 121c-93 0 -149 -49 -149 -121c0 -73 56 -122 149 -122z" />
    <glyph glyph-name="aogonek" unicode="&#x105;" horiz-adv-x="499" 
d="M430 0c-57 -49 -90 -95 -90 -137c0 -28 19 -44 46 -44c18 0 30 2 44 8v-29c-14 -6 -31 -9 -50 -9c-46 0 -74 28 -74 70c0 41 27 92 89 149v57c-31 -54 -94 -76 -166 -76c-95 0 -179 53 -179 155c0 101 84 154 179 154c73 0 135 -26 166 -75v109c0 96 -64 145 -145 145
s-145 -45 -145 -125h-35c0 93 73 159 180 159c101 0 180 -63 180 -179v-332zM234 22c87 0 161 36 161 122c0 87 -77 121 -161 121c-93 0 -149 -49 -149 -121c0 -73 56 -122 149 -122z" />
    <glyph glyph-name="aring" unicode="&#xe5;" horiz-adv-x="499" 
d="M251 557c-59 0 -99 40 -99 93s40 93 99 93c60 0 98 -40 98 -93s-38 -93 -98 -93zM251 716c-42 0 -69 -27 -69 -66s27 -66 69 -66s68 27 68 66s-26 66 -68 66zM250 511c101 0 180 -63 180 -179v-332h-35v65c-31 -54 -94 -76 -166 -76c-95 0 -179 53 -179 155
c0 101 84 154 179 154c73 0 135 -26 166 -75v109c0 96 -64 145 -145 145s-145 -45 -145 -125h-35c0 93 73 159 180 159zM234 22c87 0 161 36 161 122c0 87 -77 121 -161 121c-93 0 -149 -49 -149 -121c0 -73 56 -122 149 -122z" />
    <glyph glyph-name="atilde" unicode="&#xe3;" horiz-adv-x="499" 
d="M248 618c-59 58 -98 44 -98 -31h-31c0 101 65 128 136 61c58 -57 97 -44 97 31h31c0 -100 -66 -127 -135 -61zM250 511c101 0 180 -63 180 -179v-332h-35v65c-31 -54 -94 -76 -166 -76c-95 0 -179 53 -179 155c0 101 84 154 179 154c73 0 135 -26 166 -75v109
c0 96 -64 145 -145 145s-145 -45 -145 -125h-35c0 93 73 159 180 159zM234 22c87 0 161 36 161 122c0 87 -77 121 -161 121c-93 0 -149 -49 -149 -121c0 -73 56 -122 149 -122z" />
    <glyph glyph-name="ae" unicode="&#xe6;" horiz-adv-x="849" 
d="M608 511c134 0 205 -125 205 -263l-1 -17h-33h-350c6 -125 70 -208 181 -208c74 0 131 41 149 109h38c-22 -88 -94 -143 -188 -143c-91 0 -155 50 -187 129c-16 -83 -95 -129 -184 -129c-104 0 -188 53 -188 155c0 101 84 154 179 154c73 0 135 -26 166 -71v105
c0 96 -64 145 -145 145s-145 -45 -145 -125h-35c0 93 73 159 178 159c84 0 154 -46 174 -130c31 78 93 130 186 130zM609 477c-114 0 -176 -88 -180 -213h350c-6 132 -75 213 -170 213zM239 22c91 0 156 49 156 122c0 87 -77 121 -161 121c-93 0 -149 -49 -149 -121
c0 -73 57 -122 154 -122z" />
    <glyph glyph-name="b" unicode="b" 
d="M347 511c143 0 260 -114 260 -261s-117 -261 -260 -261c-104 0 -189 58 -228 145v-134h-36v700h36v-334c39 87 124 145 228 145zM345 23c127 0 226 99 226 227s-99 227 -226 227s-226 -99 -226 -227s99 -227 226 -227z" />
    <glyph glyph-name="c" unicode="c" horiz-adv-x="578" 
d="M542 147c-30 -94 -122 -158 -234 -158c-149 0 -261 114 -261 261s112 261 261 261c112 0 204 -64 234 -158h-37c-28 75 -104 124 -197 124c-129 0 -226 -99 -226 -227s97 -227 226 -227c93 0 169 50 197 124h37z" />
    <glyph glyph-name="cacute" unicode="&#x107;" horiz-adv-x="578" 
d="M272 570h33l88 123h-41zM542 147c-30 -94 -122 -158 -234 -158c-149 0 -261 114 -261 261s112 261 261 261c112 0 204 -64 234 -158h-37c-28 75 -104 124 -197 124c-129 0 -226 -99 -226 -227s97 -227 226 -227c93 0 169 50 197 124h37z" />
    <glyph glyph-name="ccaron" unicode="&#x10d;" horiz-adv-x="578" 
d="M284 570l-110 123h40l90 -102l91 102h40l-110 -123h-41zM308 23c93 0 169 50 197 124h37c-30 -94 -122 -158 -234 -158c-149 0 -261 114 -261 261s112 261 261 261c112 0 204 -64 234 -158h-37c-28 75 -104 124 -197 124c-129 0 -226 -99 -226 -227s97 -227 226 -227z
" />
    <glyph glyph-name="ccedilla" unicode="&#xe7;" horiz-adv-x="578" 
d="M308 23c93 0 169 50 197 124h37c-28 -89 -111 -150 -214 -157v-58c46 0 90 -23 90 -67c0 -50 -51 -85 -185 -72v29c102 -11 153 6 153 43c0 29 -29 46 -89 43v82c-144 5 -250 116 -250 260c0 147 112 261 261 261c112 0 204 -64 234 -158h-37c-28 75 -104 124 -197 124
c-129 0 -226 -99 -226 -227s97 -227 226 -227z" />
    <glyph glyph-name="cdotaccent" unicode="&#x10b;" horiz-adv-x="578" 
d="M284 580v77h43v-77h-43zM542 147c-30 -94 -122 -158 -234 -158c-149 0 -261 114 -261 261s112 261 261 261c112 0 204 -64 234 -158h-37c-28 75 -104 124 -197 124c-129 0 -226 -99 -226 -227s97 -227 226 -227c93 0 169 50 197 124h37z" />
    <glyph glyph-name="d" unicode="d" horiz-adv-x="654" 
d="M535 700h35v-700h-35v135c-39 -87 -124 -146 -228 -146c-144 0 -260 114 -260 261s116 261 260 261c104 0 189 -59 228 -146v335zM308 23c127 0 227 99 227 227s-100 227 -227 227s-226 -99 -226 -227s99 -227 226 -227z" />
    <glyph glyph-name="eth" unicode="&#xf0;" horiz-adv-x="589" 
d="M496 370c28 -38 46 -85 46 -140c0 -148 -118 -241 -246 -241c-130 0 -249 93 -249 241c0 140 117 233 241 233c49 0 87 -10 120 -29l-117 157l-126 -78v34l109 67l-64 86h40l52 -69l110 68v-34l-93 -57zM296 23c117 0 211 85 211 207c0 46 -11 86 -37 120
c-44 59 -102 81 -178 81c-118 0 -210 -86 -210 -201c0 -122 95 -207 214 -207z" />
    <glyph glyph-name="dcaron" unicode="&#x10f;" horiz-adv-x="691" 
d="M535 365v335h35v-700h-35v135c-39 -87 -124 -146 -228 -146c-144 0 -260 114 -260 261s116 261 260 261c104 0 189 -59 228 -146zM659 700h36l-20 -170h-26zM308 23c127 0 227 99 227 227s-100 227 -227 227s-226 -99 -226 -227s99 -227 226 -227z" />
    <glyph glyph-name="dcroat" unicode="&#x111;" horiz-adv-x="659" 
d="M636 618v-29h-66v-589h-35v134c-40 -87 -124 -145 -228 -145c-144 0 -260 114 -260 261s116 261 260 261c104 0 188 -58 228 -145v223h-219v29h219v82h35v-82h66zM308 23c127 0 227 99 227 227s-100 227 -227 227s-226 -99 -226 -227s99 -227 226 -227z" />
    <glyph glyph-name="e" unicode="e" horiz-adv-x="576" 
d="M297 511c152 0 242 -126 242 -263c0 -5 0 -12 -1 -17h-34h-421c8 -125 97 -208 217 -208c89 0 158 44 183 109h39c-29 -85 -114 -143 -222 -143c-150 0 -253 110 -253 261c0 147 100 261 250 261zM297 477c-122 0 -208 -88 -215 -213h422c-9 132 -97 213 -207 213z" />
    <glyph glyph-name="eacute" unicode="&#xe9;" horiz-adv-x="576" 
d="M384 693l-88 -123h-33l80 123h41zM297 511c152 0 242 -126 242 -263c0 -5 0 -12 -1 -17h-34h-421c8 -125 97 -208 217 -208c89 0 158 44 183 109h39c-29 -85 -114 -143 -222 -143c-150 0 -253 110 -253 261c0 147 100 261 250 261zM297 477c-122 0 -208 -88 -215 -213
h422c-9 132 -97 213 -207 213z" />
    <glyph glyph-name="ecaron" unicode="&#x11b;" horiz-adv-x="576" 
d="M275 570l-110 123h40l90 -102l91 102h40l-110 -123h-41zM297 511c152 0 242 -126 242 -263c0 -5 0 -12 -1 -17h-34h-421c8 -125 97 -208 217 -208c89 0 158 44 183 109h39c-29 -85 -114 -143 -222 -143c-150 0 -253 110 -253 261c0 147 100 261 250 261zM297 477
c-122 0 -208 -88 -215 -213h422c-9 132 -97 213 -207 213z" />
    <glyph glyph-name="ecircumflex" unicode="&#xea;" horiz-adv-x="576" 
d="M295 672l-90 -102h-40l110 123h39h2l110 -123h-40zM297 511c152 0 242 -126 242 -263c0 -5 0 -12 -1 -17h-34h-421c8 -125 97 -208 217 -208c89 0 158 44 183 109h39c-29 -85 -114 -143 -222 -143c-150 0 -253 110 -253 261c0 147 100 261 250 261zM297 477
c-122 0 -208 -88 -215 -213h422c-9 132 -97 213 -207 213z" />
    <glyph glyph-name="edieresis" unicode="&#xeb;" horiz-adv-x="576" 
d="M223 647v-67h-40v67h40zM410 647v-67h-40v67h40zM297 511c152 0 242 -126 242 -263c0 -5 0 -12 -1 -17h-34h-421c8 -125 97 -208 217 -208c89 0 158 44 183 109h39c-29 -85 -114 -143 -222 -143c-150 0 -253 110 -253 261c0 147 100 261 250 261zM297 477
c-122 0 -208 -88 -215 -213h422c-9 132 -97 213 -207 213z" />
    <glyph glyph-name="edotaccent" unicode="&#x117;" horiz-adv-x="576" 
d="M318 657v-77h-43v77h43zM297 511c152 0 242 -126 242 -263c0 -5 0 -12 -1 -17h-34h-421c8 -125 97 -208 217 -208c89 0 158 44 183 109h39c-29 -85 -114 -143 -222 -143c-150 0 -253 110 -253 261c0 147 100 261 250 261zM297 477c-122 0 -208 -88 -215 -213h422
c-9 132 -97 213 -207 213z" />
    <glyph glyph-name="egrave" unicode="&#xe8;" horiz-adv-x="576" 
d="M327 570h-33l-88 123h41zM297 511c152 0 242 -126 242 -263c0 -5 0 -12 -1 -17h-34h-421c8 -125 97 -208 217 -208c89 0 158 44 183 109h39c-29 -85 -114 -143 -222 -143c-150 0 -253 110 -253 261c0 147 100 261 250 261zM297 477c-122 0 -208 -88 -215 -213h422
c-9 132 -97 213 -207 213z" />
    <glyph glyph-name="emacron" unicode="&#x113;" horiz-adv-x="576" 
d="M420 624v-30h-247v30h247zM297 511c152 0 242 -126 242 -263c0 -5 0 -12 -1 -17h-34h-421c8 -125 97 -208 217 -208c89 0 158 44 183 109h39c-29 -85 -114 -143 -222 -143c-150 0 -253 110 -253 261c0 147 100 261 250 261zM297 477c-122 0 -208 -88 -215 -213h422
c-9 132 -97 213 -207 213z" />
    <glyph glyph-name="eogonek" unicode="&#x119;" horiz-adv-x="576" 
d="M297 511c152 0 242 -126 242 -263c0 -5 0 -12 -1 -17h-34h-421c8 -125 97 -208 217 -208c89 0 158 44 183 109h39c-11 -33 -31 -62 -57 -85c-89 -99 -123 -145 -123 -184c0 -28 19 -44 47 -44c18 0 30 2 44 8v-29c-14 -6 -30 -9 -49 -9c-48 0 -76 28 -76 70
c0 36 26 86 83 145c-27 -9 -58 -15 -91 -15c-150 0 -253 110 -253 261c0 147 100 261 250 261zM297 477c-122 0 -208 -88 -215 -213h422c-9 132 -97 213 -207 213z" />
    <glyph glyph-name="f" unicode="f" horiz-adv-x="298" 
d="M298 677c-108 9 -154 -45 -154 -144v-33h154v-33h-154v-467h-36v467h-88v33h88v33c0 117 62 188 190 178v-34z" />
    <glyph glyph-name="g" unicode="g" horiz-adv-x="660" 
d="M541 500h36v-473c0 -148 -99 -238 -248 -238c-135 0 -237 87 -237 177h35c0 -65 78 -143 202 -143c136 0 212 80 212 204v107c-39 -87 -124 -145 -228 -145c-143 0 -260 114 -260 261s117 261 260 261c104 0 189 -58 228 -145v134zM315 23c127 0 226 99 226 227
s-99 227 -226 227s-226 -99 -226 -227s99 -227 226 -227z" />
    <glyph glyph-name="gbreve" unicode="&#x11f;" horiz-adv-x="660" 
d="M322 569c-76 0 -127 43 -127 113h34c0 -53 36 -83 93 -83s93 30 93 83h34c0 -70 -50 -113 -127 -113zM541 500h36v-473c0 -148 -99 -238 -248 -238c-135 0 -237 87 -237 177h35c0 -65 78 -143 202 -143c136 0 212 80 212 204v107c-39 -87 -124 -145 -228 -145
c-143 0 -260 114 -260 261s117 261 260 261c104 0 189 -58 228 -145v134zM315 23c127 0 226 99 226 227s-99 227 -226 227s-226 -99 -226 -227s99 -227 226 -227z" />
    <glyph glyph-name="gcommaaccent" unicode="&#x123;" horiz-adv-x="660" 
d="M341 760l-10 -170h-35l19 170h26zM541 500h36v-473c0 -148 -99 -238 -248 -238c-135 0 -237 87 -237 177h35c0 -65 78 -143 202 -143c136 0 212 80 212 204v107c-39 -87 -124 -145 -228 -145c-143 0 -260 114 -260 261s117 261 260 261c104 0 189 -58 228 -145v134z
M315 23c127 0 226 99 226 227s-99 227 -226 227s-226 -99 -226 -227s99 -227 226 -227z" />
    <glyph glyph-name="gdotaccent" unicode="&#x121;" horiz-adv-x="660" 
d="M343 657v-77h-43v77h43zM541 500h36v-473c0 -148 -99 -238 -248 -238c-135 0 -237 87 -237 177h35c0 -65 78 -143 202 -143c136 0 212 80 212 204v107c-39 -87 -124 -145 -228 -145c-143 0 -260 114 -260 261s117 261 260 261c104 0 189 -58 228 -145v134zM315 23
c127 0 226 99 226 227s-99 227 -226 227s-226 -99 -226 -227s99 -227 226 -227z" />
    <glyph glyph-name="h" unicode="h" horiz-adv-x="529" 
d="M293 511c93 0 167 -62 167 -177v-334h-35v334c0 91 -56 143 -136 143c-88 0 -170 -63 -170 -195v-282h-36v700h36v-300c35 80 106 111 174 111z" />
    <glyph glyph-name="hbar" unicode="&#x127;" horiz-adv-x="546" 
d="M310 511c93 0 167 -62 167 -177v-334h-36v334c0 91 -55 143 -135 143c-88 0 -171 -63 -171 -195v-282h-35v589h-77v29h77v82h35v-82h168v-29h-168v-190c35 81 106 112 175 112z" />
    <glyph glyph-name="i" unicode="i" horiz-adv-x="202" 
d="M83 600v100h36v-100h-36zM83 0v500h36v-500h-36z" />
    <glyph glyph-name="dotlessi" unicode="&#x131;" horiz-adv-x="202" 
d="M83 0v500h36v-500h-36z" />
    <glyph glyph-name="iacute" unicode="&#xed;" horiz-adv-x="202" 
d="M78 570h33l67 123h-40zM83 0v500h36v-500h-36z" />
    <glyph glyph-name="icircumflex" unicode="&#xee;" horiz-adv-x="202" 
d="M121 693l84 -123h-40l-64 95l-64 -95h-40l84 123h39h1zM83 0v500h36v-500h-36z" />
    <glyph glyph-name="idieresis" unicode="&#xef;" horiz-adv-x="202" 
d="M18 580v67h40v-67h-40zM144 580v67h40v-67h-40zM83 0v500h36v-500h-36z" />
    <glyph glyph-name="i.loclTRK" horiz-adv-x="202" 
d="M79 580v77h43v-77h-43zM83 0v500h36v-500h-36z" />
    <glyph glyph-name="igrave" unicode="&#xec;" horiz-adv-x="202" 
d="M122 570l-60 123h-41l68 -123h33zM119 0h-36v500h36v-500z" />
    <glyph glyph-name="imacron" unicode="&#x12b;" horiz-adv-x="202" 
d="M14 594v30h174v-30h-174zM83 0v500h36v-500h-36z" />
    <glyph glyph-name="iogonek" unicode="&#x12f;" horiz-adv-x="202" 
d="M119 700v-100h-36v100h36zM118 -181c17 0 30 2 44 8v-29c-15 -6 -31 -9 -50 -9c-47 0 -75 34 -75 76c0 38 14 82 46 140v495h36v-500c-30 -53 -49 -89 -49 -131c0 -28 19 -50 48 -50z" />
    <glyph glyph-name="j" unicode="j" horiz-adv-x="223" 
d="M97 700h36v-100h-36v100zM97 -73v573h36v-573c0 -94 -52 -148 -153 -138v34c81 -9 117 28 117 104z" />
    <glyph glyph-name="k" unicode="k" horiz-adv-x="472" 
d="M445 0h-48l-278 250v-250h-36v700h36v-430l268 230h48l-280 -240z" />
    <glyph glyph-name="kcommaaccent" unicode="&#x137;" horiz-adv-x="472" 
d="M155 260l290 -260h-48l-278 250v-250h-36v700h36v-430l268 230h48zM232 -240l10 170h35l-19 -170h-26z" />
    <glyph glyph-name="l" unicode="l" horiz-adv-x="202" 
d="M83 0v720h36v-720h-36z" />
    <glyph glyph-name="lacute" unicode="&#x13a;" horiz-adv-x="202" 
d="M83 770h33l88 123h-41zM83 0v720h36v-720h-36z" />
    <glyph glyph-name="lcaron" unicode="&#x13e;" horiz-adv-x="241" 
d="M83 0v720h36v-720h-36zM225 550l20 170h-36l-10 -170h26z" />
    <glyph glyph-name="lcommaaccent" unicode="&#x13c;" horiz-adv-x="202" 
d="M83 0v720h36v-720h-36zM100 -240l19 170h-35l-10 -170h26z" />
    <glyph glyph-name="lslash" unicode="&#x142;" horiz-adv-x="240" 
d="M220 447v-35l-82 -57v-355h-36v331l-82 -56v35l82 56v354h36v-330z" />
    <glyph glyph-name="m" unicode="m" horiz-adv-x="786" 
d="M564 511c83 0 153 -52 153 -167v-344h-36v344c0 91 -51 133 -119 133c-69 0 -144 -53 -144 -175v-302h-36v344c0 91 -51 133 -119 133c-69 0 -144 -53 -144 -175v-302h-36v500h36v-85c33 71 95 96 148 96c65 0 123 -34 143 -106c32 79 97 106 154 106z" />
    <glyph glyph-name="n" unicode="n" horiz-adv-x="529" 
d="M293 511c93 0 167 -62 167 -177v-334h-35v334c0 91 -56 143 -136 143c-88 0 -170 -63 -170 -195v-282h-36v500h36v-100c35 80 106 111 174 111z" />
    <glyph glyph-name="nacute" unicode="&#x144;" horiz-adv-x="529" 
d="M359 693l-88 -123h-33l80 123h41zM293 511c93 0 167 -62 167 -177v-334h-35v334c0 91 -56 143 -136 143c-88 0 -170 -63 -170 -195v-282h-36v500h36v-100c35 80 106 111 174 111z" />
    <glyph glyph-name="ncaron" unicode="&#x148;" horiz-adv-x="529" 
d="M250 570l-110 123h40l90 -102l91 102h40l-110 -123h-41zM293 511c93 0 167 -62 167 -177v-334h-35v334c0 91 -56 143 -136 143c-88 0 -170 -63 -170 -195v-282h-36v500h36v-100c35 80 106 111 174 111z" />
    <glyph glyph-name="ncommaaccent" unicode="&#x146;" horiz-adv-x="529" 
d="M293 511c93 0 167 -62 167 -177v-334h-35v334c0 91 -56 143 -136 143c-88 0 -170 -63 -170 -195v-282h-36v500h36v-100c35 80 106 111 174 111zM249 -240l10 170h35l-19 -170h-26z" />
    <glyph glyph-name="eng" unicode="&#x14b;" horiz-adv-x="529" 
d="M293 511c93 0 167 -62 167 -177v-407c0 -94 -52 -148 -153 -138v34c81 -9 118 28 118 104v407c0 91 -56 143 -136 143c-88 0 -170 -63 -170 -195v-282h-36v500h36v-101c34 81 105 112 174 112z" />
    <glyph glyph-name="ntilde" unicode="&#xf1;" horiz-adv-x="529" 
d="M269 618c-59 58 -98 44 -98 -31h-31c0 101 65 128 136 61c58 -57 97 -44 97 31h31c0 -100 -66 -127 -135 -61zM293 511c93 0 167 -62 167 -177v-334h-35v334c0 91 -56 143 -136 143c-88 0 -170 -63 -170 -195v-282h-36v500h36v-100c35 80 106 111 174 111z" />
    <glyph glyph-name="o" unicode="o" horiz-adv-x="617" 
d="M308 -11c-145 0 -261 114 -261 261s116 261 261 261c146 0 262 -114 262 -261s-116 -261 -262 -261zM308 23c127 0 227 99 227 227s-100 227 -227 227s-226 -99 -226 -227s99 -227 226 -227z" />
    <glyph glyph-name="oacute" unicode="&#xf3;" horiz-adv-x="617" 
d="M270 570h33l88 123h-41zM308 -11c-145 0 -261 114 -261 261s116 261 261 261c146 0 262 -114 262 -261s-116 -261 -262 -261zM308 23c127 0 227 99 227 227s-100 227 -227 227s-226 -99 -226 -227s99 -227 226 -227z" />
    <glyph glyph-name="ocircumflex" unicode="&#xf4;" horiz-adv-x="617" 
d="M301 672l-90 -102h-40l110 123h39h2l110 -123h-40zM308 511c146 0 262 -114 262 -261s-116 -261 -262 -261c-145 0 -261 114 -261 261s116 261 261 261zM308 23c127 0 227 99 227 227s-100 227 -227 227s-226 -99 -226 -227s99 -227 226 -227z" />
    <glyph glyph-name="odieresis" unicode="&#xf6;" horiz-adv-x="617" 
d="M190 580v67h40v-67h-40zM377 580v67h40v-67h-40zM308 -11c-145 0 -261 114 -261 261s116 261 261 261c146 0 262 -114 262 -261s-116 -261 -262 -261zM308 23c127 0 227 99 227 227s-100 227 -227 227s-226 -99 -226 -227s99 -227 226 -227z" />
    <glyph glyph-name="ograve" unicode="&#xf2;" horiz-adv-x="617" 
d="M333 570l-80 123h-41l88 -123h33zM308 -11c-145 0 -261 114 -261 261s116 261 261 261c146 0 262 -114 262 -261s-116 -261 -262 -261zM308 23c127 0 227 99 227 227s-100 227 -227 227s-226 -99 -226 -227s99 -227 226 -227z" />
    <glyph glyph-name="ohungarumlaut" unicode="&#x151;" horiz-adv-x="617" 
d="M196 570h34l75 130h-39zM336 570h34l85 130h-39zM308 -11c-145 0 -261 114 -261 261s116 261 261 261c146 0 262 -114 262 -261s-116 -261 -262 -261zM308 23c127 0 227 99 227 227s-100 227 -227 227s-226 -99 -226 -227s99 -227 226 -227z" />
    <glyph glyph-name="omacron" unicode="&#x14d;" horiz-adv-x="617" 
d="M180 594v30h247v-30h-247zM308 -11c-145 0 -261 114 -261 261s116 261 261 261c146 0 262 -114 262 -261s-116 -261 -262 -261zM308 23c127 0 227 99 227 227s-100 227 -227 227s-226 -99 -226 -227s99 -227 226 -227z" />
    <glyph glyph-name="oslash" unicode="&#xf8;" horiz-adv-x="617" 
d="M493 436c48 -47 77 -112 77 -186c0 -147 -116 -261 -262 -261c-62 0 -120 21 -165 57l-41 -46h-36l58 64c-48 47 -77 112 -77 186c0 147 116 261 261 261c63 0 120 -21 165 -57l42 46h35zM82 250c0 -63 24 -120 65 -161l304 339c-39 31 -88 49 -143 49
c-127 0 -226 -99 -226 -227zM308 23c127 0 227 99 227 227c0 63 -25 120 -65 161l-304 -339c39 -31 88 -49 142 -49z" />
    <glyph glyph-name="otilde" unicode="&#xf5;" horiz-adv-x="617" 
d="M171 587c0 101 65 128 136 61c58 -57 97 -44 97 31h31c0 -100 -66 -127 -135 -61c-59 58 -98 44 -98 -31h-31zM308 -11c-145 0 -261 114 -261 261s116 261 261 261c146 0 262 -114 262 -261s-116 -261 -262 -261zM308 23c127 0 227 99 227 227s-100 227 -227 227
s-226 -99 -226 -227s99 -227 226 -227z" />
    <glyph glyph-name="oe" unicode="&#x153;" horiz-adv-x="1060" 
d="M783 511c151 0 241 -126 241 -263l-1 -17h-34h-422c9 -125 99 -208 219 -208c89 0 157 44 182 109h38c-28 -85 -112 -143 -221 -143c-118 0 -206 69 -237 173c-33 -102 -125 -173 -240 -173c-147 0 -261 114 -261 261s114 261 261 261c115 0 207 -71 240 -174
c31 103 116 174 235 174zM308 23c127 0 223 99 223 227s-96 227 -223 227c-129 0 -226 -99 -226 -227s97 -227 226 -227zM783 477c-122 0 -210 -88 -216 -213h422c-9 132 -96 213 -206 213z" />
    <glyph glyph-name="p" unicode="p" 
d="M347 511c143 0 260 -114 260 -261s-117 -261 -260 -261c-104 0 -188 58 -228 144v-333h-36v700h36v-133c40 86 124 144 228 144zM345 23c127 0 226 99 226 227s-99 227 -226 227c-123 0 -220 -93 -226 -215v-24c6 -122 103 -215 226 -215z" />
    <glyph glyph-name="thorn" unicode="&#xfe;" 
d="M347 511c143 0 260 -114 260 -261s-117 -261 -260 -261c-104 0 -189 58 -228 145v-334h-36v900h36v-334c39 87 124 145 228 145zM345 23c127 0 226 99 226 227s-99 227 -226 227s-226 -99 -226 -227s99 -227 226 -227z" />
    <glyph glyph-name="q" unicode="q" horiz-adv-x="654" 
d="M535 500h35v-700h-35v335c-39 -87 -124 -146 -228 -146c-144 0 -260 114 -260 261s116 261 260 261c104 0 189 -59 228 -146v135zM308 23c127 0 227 99 227 227s-100 227 -227 227s-226 -99 -226 -227s99 -227 226 -227z" />
    <glyph glyph-name="r" unicode="r" horiz-adv-x="321" 
d="M119 391c33 84 106 116 176 116v-34c-92 0 -176 -63 -176 -195v-278h-36v500h36v-109z" />
    <glyph glyph-name="racute" unicode="&#x155;" horiz-adv-x="321" 
d="M276 693l-88 -123h-33l80 123h41zM119 391c33 84 106 116 176 116v-34c-92 0 -176 -63 -176 -195v-278h-36v500h36v-109z" />
    <glyph glyph-name="rcaron" unicode="&#x159;" horiz-adv-x="321" 
d="M167 570l-110 123h40l90 -102l91 102h40l-110 -123h-41zM119 391c33 84 106 116 176 116v-34c-92 0 -176 -63 -176 -195v-278h-36v500h36v-109z" />
    <glyph glyph-name="rcommaaccent" unicode="&#x157;" horiz-adv-x="321" 
d="M119 391c33 84 106 116 176 116v-34c-92 0 -176 -63 -176 -195v-278h-36v500h36v-109zM74 -240l10 170h35l-19 -170h-26z" />
    <glyph glyph-name="s" unicode="s" horiz-adv-x="467" 
d="M97 376c0 -157 318 -59 318 -252c0 -79 -71 -135 -182 -135c-110 0 -181 59 -181 143h35c0 -71 62 -109 146 -109c85 0 147 35 147 101c0 160 -318 63 -318 252c0 79 68 135 171 135c101 0 169 -59 169 -143h-35c0 71 -59 109 -134 109c-77 0 -136 -35 -136 -101z" />
    <glyph glyph-name="sacute" unicode="&#x15b;" horiz-adv-x="467" 
d="M318 693l-88 -123h-33l80 123h41zM97 376c0 -157 318 -59 318 -252c0 -79 -71 -135 -182 -135c-110 0 -181 59 -181 143h35c0 -71 62 -109 146 -109c85 0 147 35 147 101c0 160 -318 63 -318 252c0 79 68 135 171 135c101 0 169 -59 169 -143h-35c0 71 -59 109 -134 109
c-77 0 -136 -35 -136 -101z" />
    <glyph glyph-name="scaron" unicode="&#x161;" horiz-adv-x="467" 
d="M208 570l-110 123h40l90 -102l91 102h40l-110 -123h-41zM97 376c0 -157 318 -59 318 -252c0 -79 -71 -135 -182 -135c-110 0 -181 59 -181 143h35c0 -71 62 -109 146 -109c85 0 147 35 147 101c0 160 -318 63 -318 252c0 79 68 135 171 135c101 0 169 -59 169 -143h-35
c0 71 -59 109 -134 109c-77 0 -136 -35 -136 -101z" />
    <glyph glyph-name="scedilla" unicode="&#x15f;" horiz-adv-x="467" 
d="M415 124c0 -74 -62 -127 -160 -134v-58c46 0 90 -23 90 -67c0 -50 -51 -85 -185 -72v29c102 -11 153 6 153 43c0 29 -29 46 -89 43v81c-105 4 -172 62 -172 143h35c0 -71 62 -109 146 -109c85 0 147 35 147 101c0 160 -318 63 -318 252c0 79 68 135 171 135
c101 0 169 -59 169 -143h-35c0 71 -59 109 -134 109c-77 0 -136 -35 -136 -101c0 -157 318 -59 318 -252z" />
    <glyph glyph-name="scommaaccent" unicode="&#x219;" horiz-adv-x="467" 
d="M97 376c0 -157 318 -59 318 -252c0 -79 -71 -135 -182 -135c-110 0 -181 59 -181 143h35c0 -71 62 -109 146 -109c85 0 147 35 147 101c0 160 -318 63 -318 252c0 79 68 135 171 135c101 0 169 -59 169 -143h-35c0 71 -59 109 -134 109c-77 0 -136 -35 -136 -101z
M216 -240l10 170h35l-19 -170h-26z" />
    <glyph glyph-name="germandbls" unicode="&#xdf;" horiz-adv-x="496" 
d="M280 -4v32c93 -5 154 37 154 113c0 104 -149 166 -149 248c0 63 93 102 93 183c0 66 -49 105 -118 105c-82 0 -141 -50 -141 -152v-525h-36v525c0 123 76 186 177 186c94 0 153 -60 153 -139c0 -93 -94 -134 -94 -183c0 -67 150 -128 150 -248c0 -92 -74 -152 -189 -145z
" />
    <glyph glyph-name="t" unicode="t" horiz-adv-x="318" 
d="M292 500v-33h-115v-467h-35v467h-115v33h115v160h35v-160h115z" />
    <glyph glyph-name="tbar" unicode="&#x167;" horiz-adv-x="318" 
d="M292 467h-115v-152h86v-29h-86v-286h-35v286h-86v29h86v152h-115v33h115v160h35v-160h115v-33z" />
    <glyph glyph-name="tcaron" unicode="&#x165;" horiz-adv-x="321" 
d="M285 720l-20 -153h-26l10 153h36zM292 500v-33h-115v-467h-35v467h-115v33h115v160h35v-160h115z" />
    <glyph glyph-name="uni0163" unicode="&#x163;" horiz-adv-x="318" 
d="M292 500v-33h-115v-467h-35v467h-115v33h115v160h35v-160h115zM131 -240l10 170h35l-19 -170h-26z" />
    <glyph glyph-name="uni021B" unicode="&#x21b;" horiz-adv-x="318" 
d="M292 500v-33h-115v-467h-35v467h-115v33h115v160h35v-160h115zM131 -240l10 170h35l-19 -170h-26z" />
    <glyph glyph-name="u" unicode="u" horiz-adv-x="530" 
d="M411 500h35v-500h-35v101c-36 -81 -106 -112 -175 -112c-93 0 -167 62 -167 177v334h36v-334c0 -91 55 -143 135 -143c88 0 171 63 171 195v282z" />
    <glyph glyph-name="uacute" unicode="&#xfa;" horiz-adv-x="530" 
d="M343 693l-88 -123h-33l80 123h41zM411 500h35v-500h-35v101c-36 -81 -106 -112 -175 -112c-93 0 -167 62 -167 177v334h36v-334c0 -91 55 -143 135 -143c88 0 171 63 171 195v282z" />
    <glyph glyph-name="ucircumflex" unicode="&#xfb;" horiz-adv-x="530" 
d="M254 672l-90 -102h-40l110 123h39h2l110 -123h-40zM411 500h35v-500h-35v101c-36 -81 -106 -112 -175 -112c-93 0 -167 62 -167 177v334h36v-334c0 -91 55 -143 135 -143c88 0 171 63 171 195v282z" />
    <glyph glyph-name="udieresis" unicode="&#xfc;" horiz-adv-x="530" 
d="M182 647v-67h-40v67h40zM369 647v-67h-40v67h40zM411 500h35v-500h-35v101c-36 -81 -106 -112 -175 -112c-93 0 -167 62 -167 177v334h36v-334c0 -91 55 -143 135 -143c88 0 171 63 171 195v282z" />
    <glyph glyph-name="ugrave" unicode="&#xf9;" horiz-adv-x="530" 
d="M286 570h-33l-88 123h41zM411 500h35v-500h-35v101c-36 -81 -106 -112 -175 -112c-93 0 -167 62 -167 177v334h36v-334c0 -91 55 -143 135 -143c88 0 171 63 171 195v282z" />
    <glyph glyph-name="uhungarumlaut" unicode="&#x171;" horiz-adv-x="530" 
d="M258 700l-75 -130h-34l70 130h39zM408 700l-85 -130h-34l80 130h39zM411 500h35v-500h-35v101c-36 -81 -106 -112 -175 -112c-93 0 -167 62 -167 177v334h36v-334c0 -91 55 -143 135 -143c88 0 171 63 171 195v282z" />
    <glyph glyph-name="umacron" unicode="&#x16b;" horiz-adv-x="530" 
d="M379 624v-30h-247v30h247zM411 500h35v-500h-35v101c-36 -81 -106 -112 -175 -112c-93 0 -167 62 -167 177v334h36v-334c0 -91 55 -143 135 -143c88 0 171 63 171 195v282z" />
    <glyph glyph-name="uogonek" unicode="&#x173;" horiz-adv-x="529" 
d="M446 0c-57 -49 -90 -95 -90 -137c0 -28 19 -44 46 -44c18 0 30 2 44 8v-29c-14 -6 -31 -9 -50 -9c-46 0 -74 28 -74 70c0 41 27 88 89 148v94c-36 -81 -106 -112 -175 -112c-93 0 -167 62 -167 177v334h36v-334c0 -91 55 -143 135 -143c88 0 171 63 171 195v282h35v-500z
" />
    <glyph glyph-name="uring" unicode="&#x16f;" horiz-adv-x="530" 
d="M256 557c-59 0 -99 40 -99 93s40 93 99 93c60 0 98 -40 98 -93s-38 -93 -98 -93zM256 716c-42 0 -69 -27 -69 -66s27 -66 69 -66s68 27 68 66s-26 66 -68 66zM411 500h35v-500h-35v101c-36 -81 -106 -112 -175 -112c-93 0 -167 62 -167 177v334h36v-334
c0 -91 55 -143 135 -143c88 0 171 63 171 195v282z" />
    <glyph glyph-name="v" unicode="v" horiz-adv-x="485" 
d="M431 500h37l-205 -500h-36h-5l-205 500h37l188 -462z" />
    <glyph glyph-name="w" unicode="w" horiz-adv-x="673" 
d="M619 500h38l-181 -500h-35h-4l-100 278l-101 -278h-35h-4l-180 500h37l163 -457l102 284l-62 173h37l163 -457z" />
    <glyph glyph-name="wacute" unicode="&#x1e83;" horiz-adv-x="673" 
d="M428 693l-88 -123h-33l80 123h41zM619 500h38l-181 -500h-35h-4l-100 278l-101 -278h-35h-4l-180 500h37l163 -457l102 284l-62 173h37l163 -457z" />
    <glyph glyph-name="wcircumflex" unicode="&#x175;" horiz-adv-x="673" 
d="M338 672l-90 -102h-40l110 123h39h2l110 -123h-40zM619 500h38l-181 -500h-35h-4l-100 278l-101 -278h-35h-4l-180 500h37l163 -457l102 284l-62 173h37l163 -457z" />
    <glyph glyph-name="wdieresis" unicode="&#x1e85;" horiz-adv-x="673" 
d="M267 647v-67h-40v67h40zM454 647v-67h-40v67h40zM619 500h38l-181 -500h-35h-4l-100 278l-101 -278h-35h-4l-180 500h37l163 -457l102 284l-62 173h37l163 -457z" />
    <glyph glyph-name="wgrave" unicode="&#x1e81;" horiz-adv-x="673" 
d="M370 570h-33l-88 123h41zM619 500h38l-181 -500h-35h-4l-100 278l-101 -278h-35h-4l-180 500h37l163 -457l102 284l-62 173h37l163 -457z" />
    <glyph glyph-name="x" unicode="x" horiz-adv-x="451" 
d="M423 0h-38l-160 230l-160 -230h-38l179 258l-168 242h38l149 -214l149 214h38l-168 -242z" />
    <glyph glyph-name="y" unicode="y" horiz-adv-x="470" 
d="M416 500h37l-264 -700h-37l76 201l-211 499h37l191 -451z" />
    <glyph glyph-name="yacute" unicode="&#xfd;" horiz-adv-x="470" 
d="M202 570h33l88 123h-41zM416 500h37l-264 -700h-37l76 201l-211 499h37l191 -451z" />
    <glyph glyph-name="ycircumflex" unicode="&#x177;" horiz-adv-x="470" 
d="M233 672l-90 -102h-40l110 123h39h2l110 -123h-40zM416 500h37l-264 -700h-37l76 201l-211 499h37l191 -451z" />
    <glyph glyph-name="ydieresis" unicode="&#xff;" horiz-adv-x="470" 
d="M122 580v67h40v-67h-40zM309 580v67h40v-67h-40zM416 500h37l-264 -700h-37l76 201l-211 499h37l191 -451z" />
    <glyph glyph-name="ygrave" unicode="&#x1ef3;" horiz-adv-x="470" 
d="M265 570l-80 123h-41l88 -123h33zM416 500h37l-264 -700h-37l76 201l-211 499h37l191 -451z" />
    <glyph glyph-name="z" unicode="z" horiz-adv-x="463" 
d="M102 33h318v-33h-367v22l308 445h-298v33h347v-22z" />
    <glyph glyph-name="zacute" unicode="&#x17a;" horiz-adv-x="463" 
d="M325 693l-88 -123h-33l80 123h41zM102 33h318v-33h-367v22l308 445h-298v33h347v-22z" />
    <glyph glyph-name="zcaron" unicode="&#x17e;" horiz-adv-x="463" 
d="M216 570l-110 123h40l90 -102l91 102h40l-110 -123h-41zM102 33h318v-33h-367v22l308 445h-298v33h347v-22z" />
    <glyph glyph-name="zdotaccent" unicode="&#x17c;" horiz-adv-x="463" 
d="M259 657v-77h-43v77h43zM102 33h318v-33h-367v22l308 445h-298v33h347v-22z" />
    <glyph glyph-name="a.ss01" 
d="M535 500h35v-500h-35v132c-41 -86 -125 -143 -228 -143c-144 0 -260 114 -260 261s116 261 260 261c103 0 187 -57 228 -143v132zM308 23c127 0 227 99 227 227s-100 227 -227 227s-226 -99 -226 -227s99 -227 226 -227z" />
    <glyph glyph-name="aacute.ss01" 
d="M394 693l-88 -123h-33l80 123h41zM535 500h35v-500h-35v132c-41 -86 -125 -143 -228 -143c-144 0 -260 114 -260 261s116 261 260 261c103 0 187 -57 228 -143v132zM308 23c127 0 227 99 227 227s-100 227 -227 227s-226 -99 -226 -227s99 -227 226 -227z" />
    <glyph glyph-name="abreve.ss01" 
d="M307 569c-76 0 -127 43 -127 113h34c0 -53 36 -83 93 -83s93 30 93 83h34c0 -70 -50 -113 -127 -113zM535 500h35v-500h-35v132c-41 -86 -125 -143 -228 -143c-144 0 -260 114 -260 261s116 261 260 261c103 0 187 -57 228 -143v132zM308 23c127 0 227 99 227 227
s-100 227 -227 227s-226 -99 -226 -227s99 -227 226 -227z" />
    <glyph glyph-name="acircumflex.ss01" 
d="M305 672l-90 -102h-40l110 123h39h2l110 -123h-40zM535 500h35v-500h-35v132c-41 -86 -125 -143 -228 -143c-144 0 -260 114 -260 261s116 261 260 261c103 0 187 -57 228 -143v132zM308 23c127 0 227 99 227 227s-100 227 -227 227s-226 -99 -226 -227s99 -227 226 -227
z" />
    <glyph glyph-name="adieresis.ss01" 
d="M233 647v-67h-40v67h40zM420 647v-67h-40v67h40zM535 500h35v-500h-35v132c-41 -86 -125 -143 -228 -143c-144 0 -260 114 -260 261s116 261 260 261c103 0 187 -57 228 -143v132zM308 23c127 0 227 99 227 227s-100 227 -227 227s-226 -99 -226 -227s99 -227 226 -227z
" />
    <glyph glyph-name="agrave.ss01" 
d="M337 570h-33l-88 123h41zM535 500h35v-500h-35v132c-41 -86 -125 -143 -228 -143c-144 0 -260 114 -260 261s116 261 260 261c103 0 187 -57 228 -143v132zM308 23c127 0 227 99 227 227s-100 227 -227 227s-226 -99 -226 -227s99 -227 226 -227z" />
    <glyph glyph-name="amacron.ss01" 
d="M430 624v-30h-247v30h247zM535 500h35v-500h-35v132c-41 -86 -125 -143 -228 -143c-144 0 -260 114 -260 261s116 261 260 261c103 0 187 -57 228 -143v132zM308 23c127 0 227 99 227 227s-100 227 -227 227s-226 -99 -226 -227s99 -227 226 -227z" />
    <glyph glyph-name="aogonek.ss01" 
d="M570 0c-57 -49 -90 -95 -90 -137c0 -28 19 -44 46 -44c18 0 30 2 44 8v-29c-14 -6 -31 -9 -50 -9c-46 0 -74 28 -74 70c0 41 27 92 89 149v124c-41 -86 -125 -143 -228 -143c-144 0 -260 114 -260 261s116 261 260 261c103 0 187 -57 228 -143v132h35v-500zM308 23
c127 0 227 99 227 227s-100 227 -227 227s-226 -99 -226 -227s99 -227 226 -227z" />
    <glyph glyph-name="aring.ss01" 
d="M307 557c-59 0 -99 40 -99 93s40 93 99 93c60 0 98 -40 98 -93s-38 -93 -98 -93zM307 716c-42 0 -69 -27 -69 -66s27 -66 69 -66s68 27 68 66s-26 66 -68 66zM535 500h35v-500h-35v132c-41 -86 -125 -143 -228 -143c-144 0 -260 114 -260 261s116 261 260 261
c103 0 187 -57 228 -143v132zM308 23c127 0 227 99 227 227s-100 227 -227 227s-226 -99 -226 -227s99 -227 226 -227z" />
    <glyph glyph-name="atilde.ss01" 
d="M304 618c-59 58 -98 44 -98 -31h-31c0 101 65 128 136 61c58 -57 97 -44 97 31h31c0 -100 -66 -127 -135 -61zM535 500h35v-500h-35v132c-41 -86 -125 -143 -228 -143c-144 0 -260 114 -260 261s116 261 260 261c103 0 187 -57 228 -143v132zM308 23
c127 0 227 99 227 227s-100 227 -227 227s-226 -99 -226 -227s99 -227 226 -227z" />
    <glyph glyph-name="ae.ss01" horiz-adv-x="1064" 
d="M788 511c151 0 239 -126 239 -263c0 -5 0 -12 -1 -17h-34h-421c8 -125 98 -208 219 -208c88 0 156 44 181 109h39c-29 -85 -110 -143 -218 -143c-107 0 -186 56 -223 143v-132h-34v132c-41 -86 -125 -143 -228 -143c-144 0 -260 114 -260 261s116 261 260 261
c103 0 187 -57 228 -143v132h34v-133c36 86 114 144 219 144zM308 23c127 0 227 99 227 227s-100 227 -227 227s-226 -99 -226 -227s99 -227 226 -227zM787 477c-122 0 -210 -88 -217 -213h422c-9 132 -95 213 -205 213z" />
    <glyph glyph-name="y.ss01" horiz-adv-x="529" 
d="M411 500h35v-532c0 -116 -79 -179 -180 -179c-107 0 -180 66 -180 159h35c0 -80 64 -125 145 -125s145 49 145 145v133c-35 -81 -106 -112 -175 -112c-93 0 -167 62 -167 177v334h36v-334c0 -91 55 -143 135 -143c88 0 171 63 171 195v282z" />
    <glyph glyph-name="yacute.ss01" horiz-adv-x="529" 
d="M345 693l-88 -123h-33l80 123h41zM411 500h35v-532c0 -116 -79 -179 -180 -179c-107 0 -180 66 -180 159h35c0 -80 64 -125 145 -125s145 49 145 145v133c-35 -81 -106 -112 -175 -112c-93 0 -167 62 -167 177v334h36v-334c0 -91 55 -143 135 -143c88 0 171 63 171 195
v282z" />
    <glyph glyph-name="ycircumflex.ss01" horiz-adv-x="529" 
d="M256 672l-90 -102h-40l110 123h39h2l110 -123h-40zM411 500h35v-532c0 -116 -79 -179 -180 -179c-107 0 -180 66 -180 159h35c0 -80 64 -125 145 -125s145 49 145 145v133c-35 -81 -106 -112 -175 -112c-93 0 -167 62 -167 177v334h36v-334c0 -91 55 -143 135 -143
c88 0 171 63 171 195v282z" />
    <glyph glyph-name="ydieresis.ss01" horiz-adv-x="529" 
d="M184 647v-67h-40v67h40zM371 647v-67h-40v67h40zM411 500h35v-532c0 -116 -79 -179 -180 -179c-107 0 -180 66 -180 159h35c0 -80 64 -125 145 -125s145 49 145 145v133c-35 -81 -106 -112 -175 -112c-93 0 -167 62 -167 177v334h36v-334c0 -91 55 -143 135 -143
c88 0 171 63 171 195v282z" />
    <glyph glyph-name="ygrave.ss01" horiz-adv-x="529" 
d="M288 570h-33l-88 123h41zM411 500h35v-532c0 -116 -79 -179 -180 -179c-107 0 -180 66 -180 159h35c0 -80 64 -125 145 -125s145 49 145 145v133c-35 -81 -106 -112 -175 -112c-93 0 -167 62 -167 177v334h36v-334c0 -91 55 -143 135 -143c88 0 171 63 171 195v282z" />
    <glyph glyph-name="f_f_j" horiz-adv-x="766" 
d="M682 500v-573c0 -94 -51 -148 -152 -138v34c81 -9 117 28 117 104v540h-234v-467h-35v467h-89h-145v-467h-36v467h-88v33h88v33c0 117 62 188 190 178v-34c-108 9 -154 -45 -154 -144v-33h154h80v43c0 117 61 178 189 178c35 0 67 -4 99 -11v-32c-31 6 -63 9 -99 9
c-108 0 -154 -45 -154 -144v-43h269z" />
    <glyph glyph-name="f_j" horiz-adv-x="496" 
d="M413 500v-573c0 -94 -52 -148 -153 -138v34c81 -9 118 28 118 104v540h-234v-467h-36v467h-88v33h88v33c0 117 62 178 190 178c35 0 67 -4 98 -11v-32c-31 6 -63 9 -98 9c-108 0 -154 -45 -154 -144v-33h269z" />
    <glyph glyph-name="ordfeminine" unicode="&#xaa;" horiz-adv-x="277" 
d="M139 711c52 0 91 -32 91 -89v-167h-28v26c-16 -22 -44 -31 -77 -31c-47 0 -88 28 -88 78c0 49 41 76 88 76c33 0 60 -10 77 -31v49c0 38 -24 62 -63 62c-40 0 -64 -20 -64 -52h-28c0 47 36 79 92 79zM129 475c34 0 73 12 73 53c0 40 -40 52 -73 52c-39 0 -64 -21 -64 -52
c0 -33 25 -53 64 -53z" />
    <glyph glyph-name="ordmasculine" unicode="&#xba;" horiz-adv-x="335" 
d="M168 450c-74 0 -131 57 -131 130c0 74 57 131 131 131c73 0 130 -57 130 -131c0 -73 -57 -130 -130 -130zM168 477c58 0 102 44 102 103c0 60 -44 104 -102 104c-59 0 -103 -44 -103 -104c0 -59 44 -103 103 -103z" />
    <glyph glyph-name="uni0410" unicode="&#x410;" horiz-adv-x="629" 
d="M570 0l-72 185h-367l-72 -185h-39l274 700h40l275 -700h-39zM144 219h341l-171 438z" />
    <glyph glyph-name="uni0411" unicode="&#x411;" horiz-adv-x="585" 
d="M340 407c112 0 203 -92 203 -204s-91 -203 -203 -203h-230h-17v700h37h360v-34h-360v-259h210zM340 34c92 0 167 76 167 169s-75 170 -167 170h-210v-339h210z" />
    <glyph glyph-name="uni0412" unicode="&#x412;" horiz-adv-x="682" 
d="M495 448c89 -30 148 -116 148 -218c0 -126 -94 -230 -221 -230h-319h-10v700h37h230c98 0 167 -70 167 -157c0 -35 -12 -68 -32 -95zM360 666h-230v-206h293c12 0 23 -1 33 -2c21 22 34 52 34 85c0 68 -52 123 -130 123zM419 34c110 0 188 89 188 196
c0 108 -77 196 -187 196h-290v-392h289z" />
    <glyph glyph-name="uni0413" unicode="&#x413;" horiz-adv-x="497" 
d="M470 700v-34h-340v-666h-37v700h377z" />
    <glyph glyph-name="uni0403" unicode="&#x403;" horiz-adv-x="497" 
d="M364 892l-88 -123h-33l80 123h41zM470 700v-34h-340v-666h-37v700h377z" />
    <glyph glyph-name="uni0490" unicode="&#x490;" horiz-adv-x="497" 
d="M433 820h37v-137v-17h-340v-666h-37v700h340v120z" />
    <glyph glyph-name="uni0414" unicode="&#x414;" 
d="M540 34h72v-34v-144h-37v144h-517v-144h-36v167v11h54c38 42 74 116 74 253v413h390v-666zM187 286c0 -118 -26 -199 -66 -252h382v632h-316v-380z" />
    <glyph glyph-name="uni0415" unicode="&#x415;" horiz-adv-x="520" 
d="M130 34h343v-34h-363h-17v700h37h338v-34h-338v-296h313v-34h-313v-302z" />
    <glyph glyph-name="uni0401" unicode="&#x401;" horiz-adv-x="520" 
d="M204 847v-67h-40v67h40zM391 847v-67h-40v67h40zM130 34h343v-34h-363h-17v700h37h338v-34h-338v-296h313v-34h-313v-302z" />
    <glyph glyph-name="uni0416" unicode="&#x416;" horiz-adv-x="822" 
d="M802 0h-44l-329 351v-351h-36v351l-329 -351h-44l335 360l-325 340h44l319 -331v331h36v-331l319 331h44l-325 -340z" />
    <glyph glyph-name="uni0417" unicode="&#x417;" horiz-adv-x="530" 
d="M390 410c70 -39 113 -112 113 -194c0 -126 -89 -227 -235 -227c-149 0 -241 98 -241 224h36c0 -110 79 -190 205 -190c121 0 199 82 199 193c0 107 -82 190 -194 190h-36v33h36c30 0 57 -5 81 -13c37 27 56 71 56 114c0 80 -56 137 -148 137c-94 0 -154 -58 -154 -137
h-37c0 94 73 171 191 171c117 0 185 -77 185 -171c0 -45 -18 -94 -57 -130z" />
    <glyph glyph-name="uni0418" unicode="&#x418;" horiz-adv-x="630" 
d="M500 0v628l-373 -628h-34v700h37v-628l373 628h34v-700h-37z" />
    <glyph glyph-name="uni0419" unicode="&#x419;" horiz-adv-x="630" 
d="M202 794v30h247v-30h-247zM500 0v628l-373 -628h-34v700h37v-628l373 628h34v-700h-37z" />
    <glyph glyph-name="uni041A" unicode="&#x41a;" horiz-adv-x="563" 
d="M553 0h-48l-375 350v-350h-37v700h37v-330l365 330h48l-373 -340z" />
    <glyph glyph-name="uni040C" unicode="&#x40c;" horiz-adv-x="563" 
d="M374 892l-88 -123h-33l80 123h41zM553 0h-48l-375 350v-350h-37v700h37v-330l365 330h48l-373 -340z" />
    <glyph glyph-name="uni041B" unicode="&#x41b;" horiz-adv-x="645" 
d="M22 -2v33c91 -9 155 50 155 253v416h375v-700h-37v666h-301v-383c0 -206 -65 -294 -192 -285z" />
    <glyph glyph-name="uni041C" unicode="&#x41c;" horiz-adv-x="813" 
d="M720 700v-700h-37v642l-259 -514h-35l-259 514v-642h-37v700h37h10l267 -529l266 529h47z" />
    <glyph glyph-name="uni041D" unicode="&#x41d;" horiz-adv-x="637" 
d="M507 700h36v-700h-36v343h-377v-343h-37v700h37v-323h377v323z" />
    <glyph glyph-name="uni041E" unicode="&#x41e;" horiz-adv-x="828" 
d="M414 -11c-201 0 -361 162 -361 361s160 361 361 361s361 -162 361 -361s-160 -361 -361 -361zM414 24c181 0 324 146 324 326s-143 326 -324 326s-324 -146 -324 -326s143 -326 324 -326z" />
    <glyph glyph-name="uni041F" unicode="&#x41f;" horiz-adv-x="637" 
d="M543 700v-700h-36v666h-377v-666h-37v700h37h413z" />
    <glyph glyph-name="uni0420" unicode="&#x420;" horiz-adv-x="573" 
d="M323 700c112 0 204 -91 204 -203s-92 -204 -204 -204h-193v-293h-37v700h37h193zM323 327c92 0 167 77 167 170s-75 169 -167 169h-193v-339h193z" />
    <glyph glyph-name="uni0421" unicode="&#x421;" horiz-adv-x="774" 
d="M416 -11c-211 0 -363 162 -363 361s152 361 363 361c148 0 276 -90 320 -218h-39c-42 109 -154 183 -281 183c-191 0 -326 -146 -326 -326s135 -326 326 -326c128 0 239 74 281 183h40c-45 -128 -173 -218 -321 -218z" />
    <glyph glyph-name="uni0422" unicode="&#x422;" horiz-adv-x="500" 
d="M473 700v-34h-205v-666h-36v666h-205v34h241h205z" />
    <glyph glyph-name="uni0423" unicode="&#x423;" horiz-adv-x="563" 
d="M509 700h37l-233 -547c-51 -119 -120 -159 -203 -153v33c75 -6 128 33 168 127l10 23l-251 517h37l231 -476z" />
    <glyph glyph-name="uni040E" unicode="&#x40e;" horiz-adv-x="563" 
d="M410 823v-30h-247v30h247zM509 700h37l-233 -547c-51 -119 -120 -159 -203 -153v33c75 -6 128 33 168 127l10 23l-251 517h37l231 -476z" />
    <glyph glyph-name="uni0424" unicode="&#x424;" horiz-adv-x="804" 
d="M767 350c0 -175 -148 -266 -347 -272v-78h-36v78c-199 6 -347 97 -347 272s148 266 347 272v78h36v-78c199 -6 347 -97 347 -272zM73 350c0 -148 122 -233 311 -238v476c-189 -5 -311 -90 -311 -238zM420 112c189 5 311 90 311 238s-122 233 -311 238v-476z" />
    <glyph glyph-name="uni0425" unicode="&#x425;" horiz-adv-x="563" 
d="M537 0h-41l-214 328l-215 -328h-40l235 358l-224 342h40l204 -311l203 311h41l-224 -342z" />
    <glyph glyph-name="uni0427" unicode="&#x427;" horiz-adv-x="615" 
d="M485 700h37v-700h-37v307c-65 -31 -122 -44 -190 -44c-143 0 -220 85 -220 194v243h37v-243c0 -94 65 -160 183 -160c67 0 123 14 190 45v358z" />
    <glyph glyph-name="uni0426" unicode="&#x426;" 
d="M543 34h72v-178h-37v144h-485v700h37v-666h377v666h36v-666z" />
    <glyph glyph-name="uni0428" unicode="&#x428;" horiz-adv-x="923" 
d="M793 700h37v-700h-737v700h37v-666h313v666h37v-666h313v666z" />
    <glyph glyph-name="uni0429" unicode="&#x429;" horiz-adv-x="940" 
d="M830 34h72v-178h-37v144h-772v700h37v-666h313v666h37v-666h313v666h37v-666z" />
    <glyph glyph-name="uni040F" unicode="&#x40f;" horiz-adv-x="637" 
d="M507 700h36v-700h-36h-170v-144h-37v144h-187h-20v700h37v-666h377v666z" />
    <glyph glyph-name="uni042C" unicode="&#x42c;" horiz-adv-x="573" 
d="M323 407c112 0 204 -92 204 -204s-92 -203 -204 -203h-213h-17v700h37v-293h193zM323 34c92 0 167 76 167 169s-75 170 -167 170h-193v-339h193z" />
    <glyph glyph-name="uni042A" unicode="&#x42a;" horiz-adv-x="677" 
d="M197 0v666h-197v34h233v-293h194c112 0 203 -92 203 -204s-91 -203 -203 -203h-230zM233 34h194c91 0 166 76 166 169s-75 170 -166 170h-194v-339z" />
    <glyph glyph-name="uni042B" unicode="&#x42b;" horiz-adv-x="742" 
d="M93 0v700h37v-293h193c112 0 204 -92 204 -204s-92 -203 -204 -203h-230zM612 0v700h36v-700h-36zM130 34h193c92 0 167 76 167 169s-75 170 -167 170h-193v-339z" />
    <glyph glyph-name="uni0409" unicode="&#x409;" horiz-adv-x="955" 
d="M705 387c112 0 203 -82 203 -194s-91 -193 -203 -193h-193h-17v666h-281v-383c0 -206 -65 -294 -192 -285v33c91 -9 155 50 155 253v416h355v-313h173zM705 34c92 0 167 66 167 159s-75 160 -167 160h-173v-319h173z" />
    <glyph glyph-name="uni040A" unicode="&#x40a;" horiz-adv-x="947" 
d="M697 387c112 0 203 -82 203 -194s-91 -193 -203 -193h-194h-16v353h-357v-353h-37v700h37v-313h357v313h36v-313h174zM697 34c91 0 166 66 166 159s-75 160 -166 160h-174v-319h174z" />
    <glyph glyph-name="uni0405" unicode="&#x405;" horiz-adv-x="550" 
d="M287 -11c-138 0 -240 72 -240 195h36c0 -97 77 -160 204 -160c109 0 180 61 180 145c0 100 -90 132 -183 167c-106 39 -219 72 -219 200c0 103 90 175 207 175c113 0 210 -74 210 -184h-37c0 84 -71 149 -173 149c-105 0 -170 -63 -170 -140c0 -100 91 -130 187 -166
c104 -40 214 -76 214 -201c0 -110 -96 -180 -216 -180z" />
    <glyph glyph-name="uni0404" unicode="&#x404;" horiz-adv-x="777" 
d="M694 207h40c-46 -128 -166 -218 -327 -218c-209 0 -354 162 -354 361s145 361 354 361c160 0 281 -90 326 -218h-39c-43 109 -147 183 -287 183c-183 0 -309 -137 -317 -309h407v-34h-407c8 -172 134 -309 317 -309c140 0 244 74 287 183z" />
    <glyph glyph-name="uni042D" unicode="&#x42d;" horiz-adv-x="777" 
d="M370 711c209 0 354 -162 354 -361s-145 -361 -354 -361c-161 0 -281 90 -327 218h40c43 -109 147 -183 287 -183c183 0 309 137 317 309h-407v34h407c-8 172 -134 309 -317 309c-140 0 -244 -74 -287 -183h-39c45 128 166 218 326 218z" />
    <glyph glyph-name="uni0406" unicode="&#x406;" horiz-adv-x="223" 
d="M93 700h37v-700h-37v700z" />
    <glyph glyph-name="uni0407" unicode="&#x407;" horiz-adv-x="223" 
d="M-2 780v67h40v-67h-40zM185 780v67h40v-67h-40zM93 700h37v-700h-37v700z" />
    <glyph glyph-name="uni0408" unicode="&#x408;" horiz-adv-x="537" 
d="M243 -11c-115 0 -210 72 -210 197v7h37v-7c0 -99 70 -162 173 -162c104 0 174 63 174 162v514h36v-514c0 -125 -95 -197 -210 -197z" />
    <glyph glyph-name="uni040B" unicode="&#x40b;" horiz-adv-x="674" 
d="M421 471c98 0 180 -60 180 -179v-292h-37v292c0 95 -62 145 -142 145c-60 0 -112 -18 -164 -46v-391h-36v666h-195v34h231h242v-34h-242v-241c51 28 100 46 163 46z" />
    <glyph glyph-name="uni042E" unicode="&#x42e;" horiz-adv-x="1053" 
d="M639 711c201 0 361 -162 361 -361s-160 -361 -361 -361c-198 0 -355 158 -359 354h-150v-343h-37v700h37v-323h151c14 187 167 334 358 334zM639 24c181 0 324 146 324 326s-143 326 -324 326c-180 0 -324 -146 -324 -326s144 -326 324 -326z" />
    <glyph glyph-name="uni042F" unicode="&#x42f;" horiz-adv-x="613" 
d="M520 700v-700h-37v293h-146l-258 -293h-46l259 293h-2c-112 0 -203 92 -203 204s91 203 203 203h230zM290 327h193v339h-193c-92 0 -167 -76 -167 -169s75 -170 167 -170z" />
    <glyph glyph-name="uni0402" unicode="&#x402;" horiz-adv-x="666" 
d="M421 471c98 0 180 -60 180 -179v-161c0 -93 -52 -147 -153 -137v33c81 -8 116 29 116 104v161c0 95 -62 145 -142 145c-60 0 -112 -18 -164 -46v-391h-36v666h-195v34h231h242v-34h-242v-241c51 28 100 46 163 46z" />
    <glyph glyph-name="uni0414.loclBGR" horiz-adv-x="707" 
d="M615 34h63v-34v-144h-36v144h-53h-510h-14v-144h-37v162v16h64l241 666h40zM130 34h446l-223 623z" />
    <glyph glyph-name="uni041B.loclBGR" horiz-adv-x="601" 
d="M281 700h40l264 -700h-39l-245 656l-246 -656h-38z" />
    <glyph glyph-name="uni0424.loclBGR" horiz-adv-x="857" 
d="M804 350c0 -214 -149 -353 -357 -360v-90h-37v90c-207 7 -357 146 -357 360s150 353 357 360v90h37v-90c208 -7 357 -146 357 -360zM90 350c0 -187 122 -319 320 -327v654c-198 -8 -320 -140 -320 -327zM447 23c198 8 320 140 320 327s-122 319 -320 327v-654z" />
    <glyph glyph-name="uni0414.ss01" 
d="M540 34h72v-34h-590v34h54c38 42 74 116 74 253v413h390v-666zM187 286c0 -118 -26 -199 -66 -252h382v632h-316v-380z" />
    <glyph glyph-name="uni0426.ss01" 
d="M543 34h72v-34h-522v700h37v-666h377v666h36v-666z" />
    <glyph glyph-name="uni0429.ss01" horiz-adv-x="940" 
d="M830 34h72v-34h-809v700h37v-666h313v666h37v-666h313v666h37v-666z" />
    <glyph glyph-name="uni0414.loclBGR.ss01" horiz-adv-x="707" 
d="M615 34h63v-34h-89h-510h-51v34h64l241 666h40zM130 34h446l-223 623z" />
    <glyph glyph-name="uni0430" unicode="&#x430;" horiz-adv-x="499" 
d="M250 511c101 0 180 -63 180 -179v-332h-35v65c-31 -54 -94 -76 -166 -76c-95 0 -179 53 -179 155c0 101 84 154 179 154c73 0 135 -26 166 -75v109c0 96 -64 145 -145 145s-145 -45 -145 -125h-35c0 93 73 159 180 159zM234 22c87 0 161 36 161 122
c0 87 -77 121 -161 121c-93 0 -149 -49 -149 -121c0 -73 56 -122 149 -122z" />
    <glyph glyph-name="uni0431" unicode="&#x431;" horiz-adv-x="576" 
d="M296 -11c-140 0 -249 100 -249 258c0 305 384 342 384 452h36c0 -130 -307 -153 -373 -365c47 78 128 120 207 120c133 0 238 -97 238 -233c0 -135 -99 -232 -243 -232zM296 23c123 0 208 81 208 198c0 116 -88 200 -206 200c-101 0 -197 -72 -215 -182
c0 -127 90 -216 213 -216z" />
    <glyph glyph-name="uni0432" unicode="&#x432;" horiz-adv-x="528" 
d="M412 298c58 -26 88 -77 88 -138c0 -88 -59 -160 -180 -160h-223h-14v500h187c99 0 160 -60 160 -139c0 -23 -7 -44 -18 -63zM270 467h-151v-152h201c21 0 41 -2 58 -6c10 15 17 32 17 52c0 67 -51 107 -125 106zM320 33c91 0 145 48 145 127c0 76 -55 123 -145 123h-201
v-250h201z" />
    <glyph glyph-name="uni0433" unicode="&#x433;" horiz-adv-x="378" 
d="M370 500v-33h-251v-467h-36v500h287z" />
    <glyph glyph-name="uni0453" unicode="&#x453;" horiz-adv-x="378" 
d="M290 693l-88 -123h-33l80 123h41zM370 500v-33h-251v-467h-36v500h287z" />
    <glyph glyph-name="uni0491" unicode="&#x491;" horiz-adv-x="378" 
d="M335 604h35v-137h-251v-467h-36v500h252v104z" />
    <glyph glyph-name="uni0434" unicode="&#x434;" horiz-adv-x="570" 
d="M463 33h70v-33v-144h-35v144h-70h-366v-144h-35v162v15h55c39 55 57 115 57 213v254h36h267h21v-467zM125 33h303v434h-253v-221c0 -96 -18 -160 -50 -213z" />
    <glyph glyph-name="uni0435" unicode="&#x435;" horiz-adv-x="576" 
d="M297 511c152 0 242 -126 242 -263c0 -5 0 -12 -1 -17h-34h-421c8 -125 97 -208 217 -208c89 0 158 44 183 109h39c-29 -85 -114 -143 -222 -143c-150 0 -253 110 -253 261c0 147 100 261 250 261zM297 477c-122 0 -208 -88 -215 -213h422c-9 132 -97 213 -207 213z" />
    <glyph glyph-name="uni0451" unicode="&#x451;" horiz-adv-x="576" 
d="M223 647v-67h-40v67h40zM410 647v-67h-40v67h40zM297 511c152 0 242 -126 242 -263c0 -5 0 -12 -1 -17h-34h-421c8 -125 97 -208 217 -208c89 0 158 44 183 109h39c-29 -85 -114 -143 -222 -143c-150 0 -253 110 -253 261c0 147 100 261 250 261zM297 477
c-122 0 -208 -88 -215 -213h422c-9 132 -97 213 -207 213z" />
    <glyph glyph-name="uni0436" unicode="&#x436;" 
d="M626 0h-44l-238 250v-250h-35v250l-238 -250h-44l248 260l-238 240h44l228 -230v230h35v-230l228 230h44l-239 -240z" />
    <glyph glyph-name="uni0437" unicode="&#x437;" horiz-adv-x="427" 
d="M326 279c48 -27 74 -75 74 -130c0 -85 -68 -160 -184 -160c-122 0 -189 74 -189 160h35c0 -77 62 -126 154 -126c86 0 149 50 149 126c0 77 -59 124 -145 124h-28v32h28c27 0 52 -4 73 -11c22 19 37 44 37 74c0 66 -53 109 -120 109c-73 0 -124 -41 -124 -111h-35
c0 84 61 145 159 145c94 0 155 -65 155 -143c0 -34 -14 -65 -39 -89z" />
    <glyph glyph-name="uni0438" unicode="&#x438;" horiz-adv-x="543" 
d="M428 500h32v-500h-35v437l-310 -437h-32v500h36v-437z" />
    <glyph glyph-name="uni0439" unicode="&#x439;" horiz-adv-x="543" 
d="M148 594v30h247v-30h-247zM428 500h32v-500h-35v437l-310 -437h-32v500h36v-437z" />
    <glyph glyph-name="uni043A" unicode="&#x43a;" horiz-adv-x="472" 
d="M445 0h-48l-278 250v-250h-36v500h36v-230l268 230h48l-280 -240z" />
    <glyph glyph-name="uni045C" unicode="&#x45c;" horiz-adv-x="472" 
d="M327 693l-88 -123h-33l80 123h41zM445 0h-48l-278 250v-250h-36v500h36v-230l268 230h48l-280 -240z" />
    <glyph glyph-name="uni043B" unicode="&#x43b;" horiz-adv-x="537" 
d="M453 500v-500h-35v467h-243v-261c0 -171 -72 -213 -158 -206v33c81 -7 122 42 122 173v294h36h278z" />
    <glyph glyph-name="uni043C" unicode="&#x43c;" horiz-adv-x="643" 
d="M560 500v-500h-35v447l-189 -343h-28l-189 343v-447h-36v500h36h8l195 -354l195 354h43z" />
    <glyph glyph-name="uni043D" unicode="&#x43d;" horiz-adv-x="544" 
d="M425 500h35v-500h-35v233h-306v-233h-36v500h36v-233h306v233z" />
    <glyph glyph-name="uni043E" unicode="&#x43e;" horiz-adv-x="617" 
d="M308 -11c-145 0 -261 114 -261 261s116 261 261 261c146 0 262 -114 262 -261s-116 -261 -262 -261zM308 23c127 0 227 99 227 227s-100 227 -227 227s-226 -99 -226 -227s99 -227 226 -227z" />
    <glyph glyph-name="uni043F" unicode="&#x43f;" horiz-adv-x="543" 
d="M460 500v-500h-35v467h-306v-467h-36v500h36h341z" />
    <glyph glyph-name="uni0440" unicode="&#x440;" 
d="M347 511c143 0 260 -114 260 -261s-117 -261 -260 -261c-104 0 -188 58 -228 144v-333h-36v700h36v-133c40 86 124 144 228 144zM345 23c127 0 226 99 226 227s-99 227 -226 227c-123 0 -220 -93 -226 -215v-24c6 -122 103 -215 226 -215z" />
    <glyph glyph-name="uni0441" unicode="&#x441;" horiz-adv-x="578" 
d="M542 147c-30 -94 -122 -158 -234 -158c-149 0 -261 114 -261 261s112 261 261 261c112 0 204 -64 234 -158h-37c-28 75 -104 124 -197 124c-129 0 -226 -99 -226 -227s97 -227 226 -227c93 0 169 50 197 124h37z" />
    <glyph glyph-name="uni0442" unicode="&#x442;" horiz-adv-x="400" 
d="M383 500v-33h-165v-467h-36v467h-165v33h201h165z" />
    <glyph glyph-name="uni0443" unicode="&#x443;" horiz-adv-x="487" 
d="M437 500h36l-197 -546c-36 -98 -112 -161 -195 -154v33c69 -7 131 46 161 129l9 23l-214 515h36l195 -467z" />
    <glyph glyph-name="uni045E" unicode="&#x45e;" horiz-adv-x="487" 
d="M377 624v-30h-247v30h247zM437 500h36l-197 -546c-36 -98 -112 -161 -195 -154v33c69 -7 131 46 161 129l9 23l-214 515h36l195 -467z" />
    <glyph glyph-name="uni0444" unicode="&#x444;" horiz-adv-x="670" 
d="M623 250c0 -143 -109 -254 -270 -262v-188h-36v188c-161 8 -270 119 -270 262s109 254 270 262v188h36v-188c161 -8 270 -119 270 -262zM82 250c0 -126 95 -221 235 -228v456c-140 -7 -235 -102 -235 -228zM353 22c140 7 235 102 235 228s-95 221 -235 228v-456z" />
    <glyph glyph-name="uni0445" unicode="&#x445;" horiz-adv-x="451" 
d="M423 0h-38l-160 230l-160 -230h-38l179 258l-168 242h38l149 -214l149 214h38l-168 -242z" />
    <glyph glyph-name="uni0447" unicode="&#x447;" horiz-adv-x="513" 
d="M395 500h35v-500h-35v202c-48 -23 -99 -35 -149 -35c-112 0 -183 60 -183 163v170h36v-170c0 -83 53 -131 147 -131c48 0 99 13 149 36v265z" />
    <glyph glyph-name="uni0446" unicode="&#x446;" horiz-adv-x="567" 
d="M450 33h80v-177h-35v144h-412v500h36v-467h296v467h35v-467z" />
    <glyph glyph-name="uni0448" unicode="&#x448;" horiz-adv-x="763" 
d="M645 500h35v-500h-35h-281h-258h-23v500h36v-467h245v467h35v-467h246v467z" />
    <glyph glyph-name="uni0449" unicode="&#x449;" horiz-adv-x="787" 
d="M680 33h70v-33v-144h-35v144h-70h-281h-258h-23v500h36v-467h245v467h35v-467h246v467h35v-467z" />
    <glyph glyph-name="uni045F" unicode="&#x45f;" horiz-adv-x="543" 
d="M425 500h35v-500h-35h-136v-144h-35v144h-151h-20v500h36v-467h306v467z" />
    <glyph glyph-name="uni044C" unicode="&#x44c;" horiz-adv-x="477" 
d="M276 302c88 0 164 -58 164 -150s-76 -152 -164 -152h-172h-21v500h36v-198h157zM276 33c73 0 129 49 129 119c0 69 -56 117 -129 117h-157v-236h157z" />
    <glyph glyph-name="uni044A" unicode="&#x44a;" horiz-adv-x="540" 
d="M340 302c87 0 163 -58 163 -150s-76 -152 -163 -152h-173h-20v467h-147v33h167h15v-198h158zM340 33c72 0 128 49 128 119c0 69 -56 117 -128 117h-158v-236h158z" />
    <glyph glyph-name="uni044B" unicode="&#x44b;" horiz-adv-x="642" 
d="M276 302c88 0 164 -58 164 -150s-76 -152 -164 -152h-172h-21v500h36v-198h157zM523 500h36v-500h-36v500zM276 33c73 0 129 49 129 119c0 69 -56 117 -129 117h-157v-236h157z" />
    <glyph glyph-name="uni0459" unicode="&#x459;" horiz-adv-x="780" 
d="M589 282c83 0 154 -48 154 -140s-71 -142 -154 -142h-160h-21v467h-233v-261c0 -171 -72 -213 -158 -206v33c81 -7 122 42 122 173v294h36h246h22v-218h146zM589 33c68 0 119 39 119 109c0 69 -51 107 -119 107h-146v-216h146z" />
    <glyph glyph-name="uni045A" unicode="&#x45a;" horiz-adv-x="773" 
d="M583 282c82 0 153 -48 153 -140s-71 -142 -153 -142h-161h-21v249h-289v-249h-35v500h35v-218h289v218h36v-218h146zM583 33c67 0 118 39 118 109c0 69 -51 107 -118 107h-146v-216h146z" />
    <glyph glyph-name="uni0455" unicode="&#x455;" horiz-adv-x="467" 
d="M97 376c0 -157 318 -59 318 -252c0 -79 -71 -135 -182 -135c-110 0 -181 59 -181 143h35c0 -71 62 -109 146 -109c85 0 147 35 147 101c0 160 -318 63 -318 252c0 79 68 135 171 135c101 0 169 -59 169 -143h-35c0 71 -59 109 -134 109c-77 0 -136 -35 -136 -101z" />
    <glyph glyph-name="uni0454" unicode="&#x454;" horiz-adv-x="577" 
d="M302 23c97 0 170 50 202 124h36c-32 -94 -122 -158 -238 -158c-149 0 -255 114 -255 261s106 261 255 261c116 0 205 -64 238 -158h-36c-32 75 -105 124 -202 124c-123 0 -212 -90 -219 -210h268v-34h-268c7 -120 96 -210 219 -210z" />
    <glyph glyph-name="uni044D" unicode="&#x44d;" horiz-adv-x="577" 
d="M275 511c149 0 255 -114 255 -261s-106 -261 -255 -261c-116 0 -206 64 -238 158h36c32 -74 105 -124 202 -124c123 0 212 91 219 210h-268v34h268c-7 119 -96 210 -219 210c-97 0 -170 -49 -202 -124h-36c33 94 122 158 238 158z" />
    <glyph glyph-name="uni0456" unicode="&#x456;" horiz-adv-x="202" 
d="M83 600v100h36v-100h-36zM83 0v500h36v-500h-36z" />
    <glyph glyph-name="uni0457" unicode="&#x457;" horiz-adv-x="202" 
d="M-12 580v67h40v-67h-40zM175 580v67h40v-67h-40zM83 0v500h36v-500h-36z" />
    <glyph glyph-name="uni0458" unicode="&#x458;" horiz-adv-x="223" 
d="M97 700h36v-100h-36v100zM97 -73v573h36v-573c0 -94 -52 -148 -153 -138v34c81 -9 117 28 117 104z" />
    <glyph glyph-name="uni045B" unicode="&#x45b;" horiz-adv-x="546" 
d="M310 511c93 0 167 -62 167 -177v-334h-36v334c0 91 -55 143 -135 143c-88 0 -171 -63 -171 -195v-282h-35v589h-77v29h77v82h35v-82h168v-29h-168v-190c35 81 106 112 175 112z" />
    <glyph glyph-name="uni044E" unicode="&#x44e;" horiz-adv-x="807" 
d="M498 511c146 0 262 -114 262 -261s-116 -261 -262 -261c-139 0 -251 105 -260 244h-119v-233h-36v500h36v-233h119c9 139 121 244 260 244zM498 23c127 0 227 99 227 227s-100 227 -227 227s-226 -99 -226 -227s99 -227 226 -227z" />
    <glyph glyph-name="uni044F" unicode="&#x44f;" horiz-adv-x="500" 
d="M417 500v-500h-36v199h-132l-177 -199h-45l180 199c-80 7 -147 63 -147 149c0 92 76 152 164 152h193zM224 231h157v236h-157c-73 0 -129 -49 -129 -119c0 -69 56 -117 129 -117z" />
    <glyph glyph-name="uni0452" unicode="&#x452;" horiz-adv-x="542" 
d="M310 511c93 0 167 -62 167 -177v-407c0 -94 -52 -148 -153 -138v34c81 -9 117 28 117 104v407c0 91 -55 143 -135 143c-88 0 -171 -63 -171 -195v-282h-35v589h-77v29h77v82h35v-82h168v-29h-168v-190c35 81 106 112 175 112z" />
    <glyph glyph-name="uni0432.loclBGR" horiz-adv-x="577" 
d="M377 403c100 -20 153 -95 153 -203c0 -132 -83 -211 -223 -211c-141 0 -224 90 -224 241v242c0 149 78 239 210 239c109 0 170 -72 170 -157c0 -53 -28 -110 -86 -151zM293 677c-111 0 -174 -76 -174 -205v-95l127 24c30 6 58 8 84 8c65 39 98 94 98 145
c0 64 -47 123 -135 123zM307 23c118 0 188 65 188 177c0 126 -85 199 -249 168l-127 -25v-113c0 -131 69 -207 188 -207z" />
    <glyph glyph-name="uni0433.loclBGR" horiz-adv-x="457" 
d="M375 132h35c0 -84 -72 -143 -182 -143c-112 0 -181 50 -181 132c0 193 316 100 316 257c0 66 -57 99 -132 99c-78 0 -138 -40 -138 -111h-36c0 84 70 145 174 145c101 0 167 -54 167 -133c0 -189 -316 -97 -316 -257c0 -69 60 -98 146 -98c84 0 147 38 147 109z" />
    <glyph glyph-name="uni0434.loclBGR" horiz-adv-x="660" 
d="M541 500h36v-473c0 -148 -99 -238 -248 -238c-135 0 -237 87 -237 177h35c0 -65 78 -143 202 -143c136 0 212 80 212 204v107c-39 -87 -124 -145 -228 -145c-143 0 -260 114 -260 261s117 261 260 261c104 0 189 -58 228 -145v134zM315 23c127 0 226 99 226 227
s-99 227 -226 227s-226 -99 -226 -227s99 -227 226 -227z" />
    <glyph glyph-name="uni0436.loclBGR" 
d="M626 0h-44l-238 249v-249h-35v249l-238 -249h-44l248 260l-238 240h44l228 -229v429h35v-429l228 229h44l-239 -240z" />
    <glyph glyph-name="uni0438.loclBGR" horiz-adv-x="530" 
d="M411 500h35v-500h-35v101c-36 -81 -106 -112 -175 -112c-93 0 -167 62 -167 177v334h36v-334c0 -91 55 -143 135 -143c88 0 171 63 171 195v282z" />
    <glyph glyph-name="uni0439.loclBGR" horiz-adv-x="530" 
d="M379 624v-30h-247v30h247zM411 500h35v-500h-35v101c-36 -81 -106 -112 -175 -112c-93 0 -167 62 -167 177v334h36v-334c0 -91 55 -143 135 -143c88 0 171 63 171 195v282z" />
    <glyph glyph-name="uni043A.loclBGR" horiz-adv-x="472" 
d="M445 0h-48l-278 250v-250h-36v700h36v-430l268 230h48l-280 -240z" />
    <glyph glyph-name="uni043B.loclBGR" horiz-adv-x="485" 
d="M468 0h-37l-188 462l-189 -462h-37l205 500h36h5z" />
    <glyph glyph-name="uni043F.loclBGR" horiz-adv-x="529" 
d="M293 511c93 0 167 -62 167 -177v-334h-35v334c0 91 -56 143 -136 143c-88 0 -170 -63 -170 -195v-282h-36v500h36v-100c35 80 106 111 174 111z" />
    <glyph glyph-name="uni0442.loclBGR" horiz-adv-x="786" 
d="M564 511c83 0 153 -52 153 -167v-344h-36v344c0 91 -51 133 -119 133c-69 0 -144 -53 -144 -175v-302h-36v344c0 91 -51 133 -119 133c-69 0 -144 -53 -144 -175v-302h-36v500h36v-85c33 71 95 96 148 96c65 0 123 -34 143 -106c32 79 97 106 154 106z" />
    <glyph glyph-name="uni0446.loclBGR" horiz-adv-x="555" 
d="M492 33h26v-33v-144h-35v144c-45 3 -72 33 -72 80v19c-35 -80 -106 -110 -175 -110c-93 0 -167 62 -167 177v334h36v-334c0 -91 55 -143 135 -143c88 0 171 63 171 195v282h35v-420c0 -29 18 -47 46 -47z" />
    <glyph glyph-name="uni0448.loclBGR" horiz-adv-x="786" 
d="M667 500h36v-500h-36v84c-34 -70 -95 -95 -148 -95c-65 0 -123 33 -143 106c-33 -79 -98 -106 -154 -106c-83 0 -153 52 -153 167v344h36v-344c0 -91 51 -133 119 -133c69 0 144 53 144 175v302h36v-344c0 -91 51 -133 119 -133c69 0 144 53 144 175v302z" />
    <glyph glyph-name="uni0449.loclBGR" horiz-adv-x="811" 
d="M748 33h27v-33v-144h-36v144c-44 3 -72 33 -72 80v5c-32 -72 -95 -96 -148 -96c-65 0 -123 34 -143 107c-32 -80 -97 -107 -154 -107c-83 0 -153 52 -153 167v344h36v-344c0 -91 51 -133 119 -133c69 0 144 53 144 175v302h36v-344c0 -91 51 -133 119 -133
c69 0 144 53 144 175v302h36v-420c0 -29 17 -47 45 -47z" />
    <glyph glyph-name="uni044C.loclBGR" horiz-adv-x="483" 
d="M258 326c115 0 188 -64 188 -163c0 -96 -75 -174 -188 -174c-125 0 -189 74 -189 174v337h36v-174h153zM258 23c91 0 153 64 153 140c0 79 -60 130 -153 130h-153v-130c0 -78 51 -140 153 -140z" />
    <glyph glyph-name="uni044A.loclBGR" horiz-adv-x="567" 
d="M342 326c115 0 188 -64 188 -163c0 -96 -75 -174 -188 -174c-125 0 -189 74 -189 174v304h-153v33h173h16v-174h153zM342 23c91 0 153 64 153 140c0 79 -60 130 -153 130h-153v-130c0 -78 51 -140 153 -140z" />
    <glyph glyph-name="uni044E.loclBGR" horiz-adv-x="807" 
d="M498 511c146 0 262 -114 262 -261s-116 -261 -262 -261c-139 0 -251 105 -260 244h-119v-233h-36v700h36v-433h119c9 139 121 244 260 244zM498 23c127 0 227 99 227 227s-100 227 -227 227s-226 -99 -226 -227s99 -227 226 -227z" />
    <glyph glyph-name="uni0430.ss01" 
d="M535 500h35v-500h-35v132c-41 -86 -125 -143 -228 -143c-144 0 -260 114 -260 261s116 261 260 261c103 0 187 -57 228 -143v132zM308 23c127 0 227 99 227 227s-100 227 -227 227s-226 -99 -226 -227s99 -227 226 -227z" />
    <glyph glyph-name="uni0443.ss01" horiz-adv-x="529" 
d="M411 500h35v-532c0 -116 -79 -179 -180 -179c-107 0 -180 66 -180 159h35c0 -80 64 -125 145 -125s145 49 145 145v133c-35 -81 -106 -112 -175 -112c-93 0 -167 62 -167 177v334h36v-334c0 -91 55 -143 135 -143c88 0 171 63 171 195v282z" />
    <glyph glyph-name="uni0394" unicode="&#x394;" horiz-adv-x="622" 
d="M331 700l274 -700h-38h-523h-27l274 700h40zM69 34h484l-242 623z" />
    <glyph glyph-name="uni03A9" unicode="&#x3a9;" horiz-adv-x="828" 
d="M775 350c0 -141 -81 -261 -199 -316h188v-34h-270v34c141 36 244 163 244 316c0 180 -143 326 -324 326s-324 -146 -324 -326c0 -153 103 -280 244 -316v-34h-270v34h188c-118 55 -199 175 -199 316c0 199 160 361 361 361s361 -162 361 -361z" />
    <glyph glyph-name="pi" unicode="&#x3c0;" horiz-adv-x="620" 
d="M583 500v-33h-83v-467h-35v467h-306v-467h-35v467h-87v33h122h341h83z" />
    <glyph glyph-name="zero" unicode="0" horiz-adv-x="630" 
d="M315 -11c-164 0 -258 145 -258 361s94 361 258 361s258 -145 258 -361s-94 -361 -258 -361zM315 24c137 0 222 122 222 326s-85 326 -222 326s-222 -122 -222 -326s85 -326 222 -326z" />
    <glyph glyph-name="one" unicode="1" horiz-adv-x="323" 
d="M193 700h37v-700h-37v660l-175 -94v40z" />
    <glyph glyph-name="two" unicode="2" horiz-adv-x="528" 
d="M47 0v33l261 267c64 67 119 138 119 207c0 107 -67 169 -171 169c-100 0 -173 -63 -173 -165h-36c0 128 98 200 209 200c116 0 207 -71 207 -204c0 -80 -60 -160 -130 -232l-236 -240h385v-35h-435z" />
    <glyph glyph-name="three" unicode="3" horiz-adv-x="550" 
d="M286 410c119 -8 211 -86 211 -209c0 -130 -104 -212 -232 -212s-232 82 -232 212h37c0 -104 78 -177 195 -177s195 73 195 177s-78 177 -195 177h-26v23l180 265h-356v34h397v-34z" />
    <glyph glyph-name="four" unicode="4" horiz-adv-x="563" 
d="M542 187v-34h-90v-153h-37v153h-383v34l270 513h41l-271 -513h343v226h37v-226h90z" />
    <glyph glyph-name="five" unicode="5" horiz-adv-x="550" 
d="M275 413c128 0 232 -82 232 -212s-104 -212 -232 -212s-232 82 -232 212h37c0 -104 78 -177 195 -177s195 73 195 177s-78 177 -195 177h-194l22 322h375v-34h-341l-17 -253h155z" />
    <glyph glyph-name="six" unicode="6" horiz-adv-x="543" 
d="M272 450c136 0 235 -94 235 -230c0 -137 -99 -231 -235 -231s-235 94 -235 231c0 54 15 101 43 139l239 341h41l-188 -269c30 12 63 19 100 19zM272 24c123 0 198 84 198 196c0 111 -75 195 -198 195s-199 -84 -199 -195c0 -112 76 -196 199 -196z" />
    <glyph glyph-name="seven" unicode="7" horiz-adv-x="490" 
d="M27 700h416v-34l-279 -666h-38l280 666h-379v34z" />
    <glyph glyph-name="eight" unicode="8" horiz-adv-x="552" 
d="M368 362c84 -27 137 -91 137 -179c0 -121 -95 -194 -229 -194s-229 73 -229 194c0 88 53 152 137 179c-69 27 -115 86 -115 165c0 115 92 184 207 184s207 -69 207 -184c0 -79 -46 -138 -115 -165zM106 527c0 -87 66 -150 170 -150s170 63 170 150c0 89 -66 149 -170 149
s-170 -60 -170 -149zM276 24c123 0 193 64 193 159c0 96 -70 160 -193 160s-193 -64 -193 -160c0 -95 70 -159 193 -159z" />
    <glyph glyph-name="nine" unicode="9" horiz-adv-x="543" 
d="M507 480c0 -54 -16 -101 -43 -139l-240 -341h-41l189 269c-30 -12 -64 -19 -100 -19c-136 0 -235 94 -235 230c0 137 99 231 235 231s235 -94 235 -231zM73 480c0 -111 76 -195 199 -195s198 84 198 195c0 112 -75 196 -198 196s-199 -84 -199 -196z" />
    <glyph glyph-name="zero.sinf" horiz-adv-x="410" 
d="M205 -172c-104 0 -168 86 -168 212s64 212 168 212s168 -86 168 -212s-64 -212 -168 -212zM205 -140c83 0 134 68 134 180s-51 180 -134 180s-134 -68 -134 -180s51 -180 134 -180z" />
    <glyph glyph-name="one.sinf" horiz-adv-x="246" 
d="M145 240h34v-400h-34v364l-118 -64v36z" />
    <glyph glyph-name="two.sinf" horiz-adv-x="344" 
d="M37 -160v27l181 171c31 29 47 65 47 98c0 44 -35 84 -92 84c-61 0 -98 -37 -98 -88h-34c0 71 53 120 132 120c78 0 126 -55 126 -115c0 -46 -19 -83 -58 -120l-154 -145h220v-32h-270z" />
    <glyph glyph-name="three.sinf" horiz-adv-x="346" 
d="M191 75c75 -8 117 -58 117 -121c0 -71 -50 -126 -138 -126s-138 55 -138 126h34c0 -51 33 -94 104 -94c70 0 104 43 104 94s-35 93 -104 93h-19v26l103 135h-207v32h245v-32z" />
    <glyph glyph-name="four.sinf" horiz-adv-x="357" 
d="M331 -44v-31h-59v-85h-34v85h-220v31l153 284h35l-151 -284h183v113h34v-113h59z" />
    <glyph glyph-name="five.sinf" horiz-adv-x="338" 
d="M165 81c82 0 136 -53 136 -127s-53 -126 -136 -126c-84 0 -137 52 -137 126h34c0 -58 41 -94 103 -94s102 36 102 94s-40 95 -102 95h-115l15 191h220v-31h-190l-10 -128h80z" />
    <glyph glyph-name="six.sinf" horiz-adv-x="335" 
d="M167 94c80 0 141 -56 141 -133s-61 -133 -141 -133c-79 0 -140 56 -140 133c0 26 6 49 18 68l136 211h40l-102 -154c15 5 31 8 48 8zM167 -140c62 0 107 41 107 101s-45 101 -107 101c-61 0 -106 -41 -106 -101s45 -101 106 -101z" />
    <glyph glyph-name="seven.sinf" horiz-adv-x="323" 
d="M23 240h266v-27l-161 -373h-37l161 368h-229v32z" />
    <glyph glyph-name="eight.sinf" horiz-adv-x="348" 
d="M237 50c46 -18 77 -56 77 -107c0 -70 -58 -115 -139 -115c-83 0 -140 45 -140 115c0 51 30 89 76 107c-36 17 -63 49 -63 91c0 71 58 111 127 111c68 0 126 -40 126 -111c0 -42 -27 -74 -64 -91zM82 141c0 -47 42 -76 93 -76c50 0 92 29 92 76c0 51 -40 80 -92 80
c-53 0 -93 -29 -93 -80zM175 -140c62 0 105 33 105 85c0 55 -45 88 -105 88c-63 0 -106 -33 -106 -88c0 -52 42 -85 106 -85z" />
    <glyph glyph-name="nine.sinf" horiz-adv-x="335" 
d="M308 119c0 -26 -6 -49 -18 -68l-136 -211h-40l102 154c-15 -5 -31 -8 -48 -8c-80 0 -141 56 -141 133s61 133 141 133c79 0 140 -56 140 -133zM61 119c0 -60 45 -101 107 -101c61 0 106 41 106 101s-45 101 -106 101c-62 0 -107 -41 -107 -101z" />
    <glyph glyph-name="zero.tf" horiz-adv-x="570" 
d="M285 -11c-164 0 -258 145 -258 361s94 361 258 361s258 -145 258 -361s-94 -361 -258 -361zM285 24c137 0 222 122 222 326s-85 326 -222 326s-222 -122 -222 -326s85 -326 222 -326z" />
    <glyph glyph-name="one.tf" horiz-adv-x="570" 
d="M337 35h206v-35h-243h-257v35h257v625l-211 -114v39l211 115h37v-665z" />
    <glyph glyph-name="two.tf" horiz-adv-x="570" 
d="M55 0v33l282 249c75 67 138 136 138 215c0 107 -71 179 -190 179c-109 0 -193 -73 -193 -175h-37c0 128 110 210 230 210c130 0 227 -81 227 -214c0 -90 -68 -169 -151 -240l-255 -222h424v-35h-475z" />
    <glyph glyph-name="three.tf" horiz-adv-x="570" 
d="M308 410c133 -8 225 -86 225 -209c0 -130 -103 -212 -248 -212s-248 82 -248 212h36c0 -104 78 -177 212 -177s212 73 212 177s-78 177 -212 177h-26v23l196 265h-388v34h430v-34z" />
    <glyph glyph-name="four.tf" horiz-adv-x="570" 
d="M537 187v-34h-90v-153h-37v153h-383v34l270 513h40l-270 -513h343v220h37v-220h90z" />
    <glyph glyph-name="five.tf" horiz-adv-x="570" 
d="M285 413c138 0 242 -82 242 -212s-104 -212 -242 -212s-242 82 -242 212h37c0 -104 78 -177 205 -177s205 73 205 177s-78 177 -205 177h-204l22 322h395v-34h-361l-17 -253h165z" />
    <glyph glyph-name="six.tf" horiz-adv-x="570" 
d="M282 450c149 0 248 -94 248 -230c0 -137 -99 -231 -248 -231c-150 0 -249 94 -249 231c0 55 17 103 46 141l249 339h42l-197 -269c32 12 69 19 109 19zM282 24c136 0 211 84 211 196c0 111 -75 195 -211 195c-137 0 -212 -84 -212 -195c0 -112 75 -196 212 -196z" />
    <glyph glyph-name="seven.tf" horiz-adv-x="570" 
d="M40 700h477v-34l-307 -666h-37l306 666h-439v34z" />
    <glyph glyph-name="eight.tf" horiz-adv-x="570" 
d="M387 362c88 -27 141 -92 141 -179c0 -120 -95 -194 -243 -194s-243 74 -243 194c0 87 53 152 141 179c-73 28 -119 87 -119 165c0 113 92 184 221 184s221 -71 221 -184c0 -78 -46 -137 -119 -165zM101 527c0 -86 66 -150 184 -150s184 64 184 150c0 87 -66 149 -184 149
s-184 -62 -184 -149zM285 24c137 0 207 66 207 159c0 94 -70 160 -207 160s-207 -66 -207 -160c0 -93 70 -159 207 -159z" />
    <glyph glyph-name="nine.tf" horiz-adv-x="570" 
d="M537 480c0 -55 -17 -103 -46 -141l-249 -339h-42l197 269c-32 -12 -69 -19 -109 -19c-149 0 -248 94 -248 230c0 137 99 231 248 231c150 0 249 -94 249 -231zM77 480c0 -111 75 -195 211 -195c137 0 212 84 212 195c0 112 -75 196 -212 196c-136 0 -211 -84 -211 -196z
" />
    <glyph glyph-name="fraction" unicode="&#x2044;" horiz-adv-x="233" 
d="M-73 0h-34l414 700h33z" />
    <glyph glyph-name="onehalf" unicode="&#xbd;" horiz-adv-x="823" 
d="M145 300v364l-118 -64v36l118 64h34v-400h-34zM553 700h33l-413 -700h-34zM566 32h220v-32h-270v27l181 171c31 29 47 65 47 98c0 44 -35 84 -92 84c-61 0 -98 -37 -98 -88h-34c0 71 53 120 132 120c78 0 126 -55 126 -115c0 -46 -19 -83 -58 -120z" />
    <glyph glyph-name="onequarter" unicode="&#xbc;" horiz-adv-x="836" 
d="M145 300v364l-118 -64v36l118 64h34v-400h-34zM553 700h33l-413 -700h-34zM810 116v-31h-59v-85h-34v85h-220v31l153 284h35l-152 -284h184v113h34v-113h59z" />
    <glyph glyph-name="threequarters" unicode="&#xbe;" horiz-adv-x="937" 
d="M308 414c0 -71 -50 -126 -138 -126s-138 55 -138 126h34c0 -51 33 -94 104 -94c70 0 104 43 104 94s-35 93 -104 93h-19v26l102 135h-206v32h245v-32l-101 -133c75 -8 117 -59 117 -121zM653 700h33l-413 -700h-34zM910 116v-31h-59v-85h-34v85h-220v31l153 284h35
l-152 -284h184v113h34v-113h59z" />
    <glyph glyph-name="oneeighth" unicode="&#x215b;" horiz-adv-x="827" 
d="M145 300v364l-118 -64v36l118 64h34v-400h-34zM553 700h33l-413 -700h-34zM716 210c46 -18 77 -56 77 -107c0 -70 -58 -115 -139 -115c-83 0 -140 45 -140 115c0 51 31 89 77 107c-37 16 -64 48 -64 91c0 71 58 111 127 111c68 0 126 -40 126 -111c0 -43 -27 -74 -64 -91
zM561 301c0 -47 42 -76 93 -76c50 0 92 29 92 76c0 51 -40 80 -92 80c-53 0 -93 -29 -93 -80zM654 20c62 0 105 33 105 85c0 55 -45 88 -105 88c-63 0 -106 -33 -106 -88c0 -52 42 -85 106 -85z" />
    <glyph glyph-name="threeeighths" unicode="&#x215c;" horiz-adv-x="928" 
d="M308 414c0 -71 -50 -126 -138 -126s-138 55 -138 126h34c0 -51 33 -94 104 -94c70 0 104 43 104 94s-35 93 -104 93h-19v26l102 135h-206v32h245v-32l-101 -133c75 -8 117 -59 117 -121zM653 700h33l-413 -700h-34zM816 210c46 -18 77 -56 77 -107
c0 -70 -58 -115 -139 -115c-83 0 -140 45 -140 115c0 51 31 89 77 107c-37 16 -64 48 -64 91c0 71 58 111 127 111c68 0 126 -40 126 -111c0 -43 -27 -74 -64 -91zM661 301c0 -47 42 -76 93 -76c50 0 92 29 92 76c0 51 -40 80 -92 80c-53 0 -93 -29 -93 -80zM754 20
c62 0 105 33 105 85c0 55 -45 88 -105 88c-63 0 -106 -33 -106 -88c0 -52 42 -85 106 -85z" />
    <glyph glyph-name="fiveeighths" unicode="&#x215d;" horiz-adv-x="919" 
d="M299 414c0 -74 -53 -126 -136 -126c-84 0 -137 52 -137 126h34c0 -58 41 -94 103 -94s102 36 102 94s-40 95 -102 95h-115l15 191h220v-31h-190l-10 -128h80c82 0 136 -53 136 -127zM645 700h33l-413 -700h-34zM808 210c46 -18 77 -56 77 -107c0 -70 -58 -115 -139 -115
c-83 0 -140 45 -140 115c0 51 31 89 77 107c-37 16 -64 48 -64 91c0 71 58 111 127 111c68 0 126 -40 126 -111c0 -43 -27 -74 -64 -91zM653 301c0 -47 42 -76 93 -76c50 0 92 29 92 76c0 51 -40 80 -92 80c-53 0 -93 -29 -93 -80zM746 20c62 0 105 33 105 85
c0 55 -45 88 -105 88c-63 0 -106 -33 -106 -88c0 -52 42 -85 106 -85z" />
    <glyph glyph-name="seveneighths" unicode="&#x215e;" horiz-adv-x="904" 
d="M289 700v-27l-161 -373h-37l160 368h-228v32h266zM630 700h33l-413 -700h-34zM793 210c46 -18 77 -56 77 -107c0 -70 -58 -115 -139 -115c-83 0 -140 45 -140 115c0 51 31 89 77 107c-37 16 -64 48 -64 91c0 71 58 111 127 111c68 0 126 -40 126 -111
c0 -43 -27 -74 -64 -91zM638 301c0 -47 42 -76 93 -76c50 0 92 29 92 76c0 51 -40 80 -92 80c-53 0 -93 -29 -93 -80zM731 20c62 0 105 33 105 85c0 55 -45 88 -105 88c-63 0 -106 -33 -106 -88c0 -52 42 -85 106 -85z" />
    <glyph glyph-name="zero.dnom" horiz-adv-x="410" 
d="M205 -12c-104 0 -168 86 -168 212s64 212 168 212s168 -86 168 -212s-64 -212 -168 -212zM205 20c83 0 134 68 134 180s-51 180 -134 180s-134 -68 -134 -180s51 -180 134 -180z" />
    <glyph glyph-name="one.dnom" horiz-adv-x="246" 
d="M145 400h34v-400h-34v364l-118 -64v36z" />
    <glyph glyph-name="two.dnom" horiz-adv-x="344" 
d="M37 0v27l181 171c31 29 47 65 47 98c0 44 -35 84 -92 84c-61 0 -98 -37 -98 -88h-34c0 71 53 120 132 120c78 0 126 -55 126 -115c0 -46 -19 -83 -58 -120l-154 -145h220v-32h-270z" />
    <glyph glyph-name="three.dnom" horiz-adv-x="346" 
d="M191 235c75 -8 117 -59 117 -121c0 -71 -50 -126 -138 -126s-138 55 -138 126h34c0 -51 33 -94 104 -94c70 0 104 43 104 94s-35 93 -104 93h-19v26l102 135h-206v32h245v-32z" />
    <glyph glyph-name="four.dnom" horiz-adv-x="357" 
d="M331 116v-31h-59v-85h-34v85h-220v31l153 284h35l-152 -284h184v113h34v-113h59z" />
    <glyph glyph-name="five.dnom" horiz-adv-x="338" 
d="M164 241c81 0 135 -53 135 -127s-53 -126 -136 -126s-136 52 -136 126h34c0 -58 40 -94 102 -94s102 36 102 94s-40 95 -102 95h-115l15 191h220v-31h-190l-10 -128h81z" />
    <glyph glyph-name="six.dnom" horiz-adv-x="335" 
d="M167 254c80 0 141 -56 141 -133s-61 -133 -141 -133c-79 0 -140 56 -140 133c0 25 7 48 18 68l136 211h40l-102 -153c15 4 31 7 48 7zM167 20c62 0 107 41 107 101s-45 101 -107 101c-61 0 -106 -41 -106 -101s45 -101 106 -101z" />
    <glyph glyph-name="seven.dnom" horiz-adv-x="323" 
d="M23 400h266v-27l-161 -373h-37l160 368h-228v32z" />
    <glyph glyph-name="eight.dnom" horiz-adv-x="348" 
d="M237 210c46 -18 77 -56 77 -107c0 -70 -58 -115 -139 -115c-83 0 -140 45 -140 115c0 51 31 89 77 107c-37 16 -64 48 -64 91c0 71 58 111 127 111c68 0 126 -40 126 -111c0 -43 -27 -74 -64 -91zM82 301c0 -47 42 -76 93 -76c50 0 92 29 92 76c0 51 -40 80 -92 80
c-53 0 -93 -29 -93 -80zM175 20c62 0 105 33 105 85c0 55 -45 88 -105 88c-63 0 -106 -33 -106 -88c0 -52 42 -85 106 -85z" />
    <glyph glyph-name="nine.dnom" horiz-adv-x="335" 
d="M308 279c0 -25 -7 -48 -18 -68l-136 -211h-40l102 153c-15 -4 -31 -7 -48 -7c-80 0 -141 56 -141 133s61 133 141 133c79 0 140 -56 140 -133zM61 279c0 -60 45 -101 107 -101c61 0 106 41 106 101s-45 101 -106 101c-62 0 -107 -41 -107 -101z" />
    <glyph glyph-name="zero.numr" horiz-adv-x="410" 
d="M205 288c-104 0 -168 86 -168 212s64 212 168 212s168 -86 168 -212s-64 -212 -168 -212zM205 320c83 0 134 68 134 180s-51 180 -134 180s-134 -68 -134 -180s51 -180 134 -180z" />
    <glyph glyph-name="one.numr" horiz-adv-x="246" 
d="M145 700h34v-400h-34v364l-118 -64v36z" />
    <glyph glyph-name="two.numr" horiz-adv-x="344" 
d="M37 300v27l181 171c31 29 47 65 47 98c0 44 -35 84 -92 84c-61 0 -98 -37 -98 -88h-34c0 71 53 120 132 120c78 0 126 -55 126 -115c0 -46 -19 -83 -58 -120l-154 -145h220v-32h-270z" />
    <glyph glyph-name="three.numr" horiz-adv-x="346" 
d="M191 535c75 -8 117 -59 117 -121c0 -71 -50 -126 -138 -126s-138 55 -138 126h34c0 -51 33 -94 104 -94c70 0 104 43 104 94s-35 93 -104 93h-19v26l102 135h-206v32h245v-32z" />
    <glyph glyph-name="four.numr" horiz-adv-x="357" 
d="M331 416v-31h-59v-85h-34v85h-220v31l153 284h35l-152 -284h184v113h34v-113h59z" />
    <glyph glyph-name="five.numr" horiz-adv-x="338" 
d="M164 541c81 0 135 -53 135 -127s-53 -126 -136 -126s-136 52 -136 126h34c0 -58 40 -94 102 -94s102 36 102 94s-40 95 -102 95h-115l15 191h220v-31h-190l-10 -128h81z" />
    <glyph glyph-name="six.numr" horiz-adv-x="335" 
d="M167 554c80 0 141 -56 141 -133s-61 -133 -141 -133c-79 0 -140 56 -140 133c0 25 7 48 18 68l136 211h40l-102 -153c15 4 31 7 48 7zM167 320c62 0 107 41 107 101s-45 101 -107 101c-61 0 -106 -41 -106 -101s45 -101 106 -101z" />
    <glyph glyph-name="seven.numr" horiz-adv-x="323" 
d="M23 700h266v-27l-161 -373h-37l160 368h-228v32z" />
    <glyph glyph-name="eight.numr" horiz-adv-x="348" 
d="M237 510c46 -18 77 -56 77 -107c0 -70 -58 -115 -139 -115c-83 0 -140 45 -140 115c0 51 31 89 77 107c-37 16 -64 48 -64 91c0 71 58 111 127 111c68 0 126 -40 126 -111c0 -43 -27 -74 -64 -91zM82 601c0 -47 42 -76 93 -76c50 0 92 29 92 76c0 51 -40 80 -92 80
c-53 0 -93 -29 -93 -80zM175 320c62 0 105 33 105 85c0 55 -45 88 -105 88c-63 0 -106 -33 -106 -88c0 -52 42 -85 106 -85z" />
    <glyph glyph-name="nine.numr" horiz-adv-x="335" 
d="M308 579c0 -25 -7 -48 -18 -68l-136 -211h-40l102 153c-15 -4 -31 -7 -48 -7c-80 0 -141 56 -141 133s61 133 141 133c79 0 140 -56 140 -133zM61 579c0 -60 45 -101 107 -101c61 0 106 41 106 101s-45 101 -106 101c-62 0 -107 -41 -107 -101z" />
    <glyph glyph-name="zero.sups" horiz-adv-x="410" 
d="M205 448c-104 0 -168 86 -168 212s64 212 168 212s168 -86 168 -212s-64 -212 -168 -212zM205 480c83 0 134 68 134 180s-51 180 -134 180s-134 -68 -134 -180s51 -180 134 -180z" />
    <glyph glyph-name="one.sups" horiz-adv-x="246" 
d="M145 860h34v-400h-34v364l-118 -64v36z" />
    <glyph glyph-name="two.sups" horiz-adv-x="344" 
d="M37 460v27l181 171c31 29 47 65 47 98c0 44 -35 84 -92 84c-61 0 -98 -37 -98 -88h-34c0 71 53 120 132 120c78 0 126 -55 126 -115c0 -46 -19 -83 -58 -120l-154 -145h220v-32h-270z" />
    <glyph glyph-name="three.sups" horiz-adv-x="346" 
d="M191 695c75 -8 117 -59 117 -121c0 -71 -50 -126 -138 -126s-138 55 -138 126h34c0 -51 33 -94 104 -94c70 0 104 43 104 94s-35 93 -104 93h-19v26l102 135h-206v32h245v-32z" />
    <glyph glyph-name="four.sups" horiz-adv-x="357" 
d="M331 576v-31h-59v-85h-34v85h-220v31l153 284h35l-152 -284h184v113h34v-113h59z" />
    <glyph glyph-name="five.sups" horiz-adv-x="338" 
d="M164 701c81 0 135 -53 135 -127s-53 -126 -136 -126s-136 52 -136 126h34c0 -58 40 -94 102 -94s102 36 102 94s-40 95 -102 95h-115l15 191h220v-31h-190l-10 -128h81z" />
    <glyph glyph-name="six.sups" horiz-adv-x="335" 
d="M167 714c80 0 141 -56 141 -133s-61 -133 -141 -133c-79 0 -140 56 -140 133c0 25 7 48 18 68l136 211h40l-102 -153c15 4 31 7 48 7zM167 480c62 0 107 41 107 101s-45 101 -107 101c-61 0 -106 -41 -106 -101s45 -101 106 -101z" />
    <glyph glyph-name="seven.sups" horiz-adv-x="323" 
d="M23 860h266v-27l-161 -373h-37l160 368h-228v32z" />
    <glyph glyph-name="eight.sups" horiz-adv-x="348" 
d="M237 670c46 -18 77 -56 77 -107c0 -70 -58 -115 -139 -115c-83 0 -140 45 -140 115c0 51 31 89 77 107c-37 16 -64 48 -64 91c0 71 58 111 127 111c68 0 126 -40 126 -111c0 -43 -27 -74 -64 -91zM82 761c0 -47 42 -76 93 -76c50 0 92 29 92 76c0 51 -40 80 -92 80
c-53 0 -93 -29 -93 -80zM175 480c62 0 105 33 105 85c0 55 -45 88 -105 88c-63 0 -106 -33 -106 -88c0 -52 42 -85 106 -85z" />
    <glyph glyph-name="nine.sups" horiz-adv-x="335" 
d="M308 739c0 -25 -7 -48 -18 -68l-136 -211h-40l102 153c-15 -4 -31 -7 -48 -7c-80 0 -141 56 -141 133s61 133 141 133c79 0 140 -56 140 -133zM61 739c0 -60 45 -101 107 -101c61 0 106 41 106 101s-45 101 -106 101c-62 0 -107 -41 -107 -101z" />
    <glyph glyph-name="asterisk" unicode="*" horiz-adv-x="381" 
d="M315 613v-31l-99 2l54 -83l-28 -17l-51 86l-52 -86l-27 17l54 83l-99 -2v31l99 -2l-54 83l27 17l52 -87l51 87l28 -17l-54 -83z" />
    <glyph glyph-name="backslash" unicode="\" horiz-adv-x="523" 
d="M447 -100l-400 900h30l400 -900h-30z" />
    <glyph glyph-name="periodcentered" unicode="&#xb7;" horiz-adv-x="197" 
d="M77 315v70h43v-70h-43z" />
    <glyph glyph-name="bullet" unicode="&#x2022;" horiz-adv-x="260" 
d="M131 277c-41 0 -74 33 -74 74c0 40 33 72 74 72c40 0 72 -32 72 -72c0 -41 -32 -74 -72 -74z" />
    <glyph glyph-name="colon" unicode=":" horiz-adv-x="197" 
d="M77 430v70h43v-70h-43zM77 0v70h43v-70h-43z" />
    <glyph glyph-name="comma" unicode="," horiz-adv-x="210" 
d="M90 70h43v-97c0 -56 -20 -86 -56 -95v25c18 9 28 28 28 70h-15v97z" />
    <glyph glyph-name="ellipsis" unicode="&#x2026;" horiz-adv-x="577" 
d="M77 0v70h43v-70h-43zM267 0v70h43v-70h-43zM457 0v70h43v-70h-43z" />
    <glyph glyph-name="exclam" unicode="!" horiz-adv-x="210" 
d="M90 170l-5 330v200h40v-200l-5 -330h-30zM83 0v70h44v-70h-44z" />
    <glyph glyph-name="exclamdown" unicode="&#xa1;" horiz-adv-x="210" 
d="M83 500h44v-70h-44v70zM90 330h30l5 -330v-200h-40v200z" />
    <glyph glyph-name="numbersign" unicode="#" horiz-adv-x="608" 
d="M559 423h-119l-25 -146h120l-6 -34h-119l-33 -193h-34l32 193h-177l-33 -193h-34l32 193h-120l6 34h119l25 146h-121l6 34h120l33 193h34l-32 -193h177l33 193h34l-32 -193h119zM380 277l25 146h-177l-25 -146h177z" />
    <glyph glyph-name="period" unicode="." horiz-adv-x="197" 
d="M77 0v70h43v-70h-43z" />
    <glyph glyph-name="question" unicode="?" horiz-adv-x="528" 
d="M224 170c0 175 201 230 201 366c0 85 -59 140 -164 140c-101 0 -178 -63 -178 -149h-36c0 112 101 184 214 184c116 0 201 -64 201 -175c0 -149 -202 -205 -202 -366h-36zM220 0v70h44v-70h-44z" />
    <glyph glyph-name="questiondown" unicode="&#xbf;" horiz-adv-x="522" 
d="M301 500v-70h-43v70h43zM298 330c0 -175 -201 -230 -201 -366c0 -85 59 -140 163 -140c102 0 178 63 178 149h37c0 -112 -102 -184 -215 -184c-115 0 -200 64 -200 175c0 149 201 205 201 366h37z" />
    <glyph glyph-name="quotedbl" unicode="&#x22;" horiz-adv-x="277" 
d="M60 527l-3 173h36l-3 -173h-30zM187 527l-4 173h37l-3 -173h-30z" />
    <glyph glyph-name="quotesingle" unicode="'" horiz-adv-x="143" 
d="M60 527l-3 173h36l-3 -173h-30z" />
    <glyph glyph-name="semicolon" unicode=";" horiz-adv-x="210" 
d="M133 500v-70h-43v70h43zM90 70h43v-97c0 -56 -20 -86 -56 -95v25c18 9 28 28 28 70h-15v97z" />
    <glyph glyph-name="slash" unicode="/" horiz-adv-x="523" 
d="M77 -100h-30l400 900h30z" />
    <glyph glyph-name="underscore" unicode="_" horiz-adv-x="493" 
d="M40 -126v34h413v-34h-413z" />
    <glyph glyph-name="braceleft" unicode="{" horiz-adv-x="350" 
d="M323 -109c-101 -10 -152 41 -152 134v209c0 75 -37 100 -114 100v34c77 0 114 25 114 100v208c0 93 51 144 152 134v-33c-81 8 -117 -26 -117 -101v-208c0 -67 -27 -106 -81 -118c54 -11 81 -49 81 -116v-209c0 -75 36 -109 117 -100v-34z" />
    <glyph glyph-name="braceright" unicode="}" horiz-adv-x="350" 
d="M27 -109v34c81 -9 117 25 117 100v209c0 67 27 105 81 116c-54 12 -81 51 -81 118v208c0 75 -36 109 -117 101v33c101 10 152 -41 152 -134v-208c0 -75 37 -100 114 -100v-34c-77 0 -114 -25 -114 -100v-209c0 -93 -51 -144 -152 -134z" />
    <glyph glyph-name="bracketleft" unicode="[" horiz-adv-x="260" 
d="M253 766h-151v-832h151v-34h-176h-10v900h35h151v-34z" />
    <glyph glyph-name="bracketright" unicode="]" horiz-adv-x="260" 
d="M193 800v-900h-35h-151v34h151v832h-151v34h186z" />
    <glyph glyph-name="parenleft" unicode="(" horiz-adv-x="255" 
d="M170 -100c-70 140 -110 290 -110 450s40 310 110 450h35c-70 -140 -110 -290 -110 -450s40 -310 110 -450h-35z" />
    <glyph glyph-name="parenright" unicode=")" horiz-adv-x="255" 
d="M85 -100h-35c70 140 110 290 110 450s-40 310 -110 450h35c70 -140 110 -290 110 -450s-40 -310 -110 -450z" />
    <glyph glyph-name="emdash" unicode="&#x2014;" horiz-adv-x="787" 
d="M93 292v34h600v-34h-600z" />
    <glyph glyph-name="endash" unicode="&#x2013;" horiz-adv-x="687" 
d="M93 292v34h500v-34h-500z" />
    <glyph glyph-name="hyphen" unicode="-" horiz-adv-x="547" 
d="M93 292v34h360v-34h-360z" />
    <glyph glyph-name="guillemotleft" unicode="&#xab;" horiz-adv-x="447" 
d="M235 476l-103 -167l103 -167h-42l-103 167l103 167h42zM357 476l-104 -167l104 -167h-42l-104 167l104 167h42z" />
    <glyph glyph-name="guillemotright" unicode="&#xbb;" horiz-adv-x="447" 
d="M132 476l103 -167l-103 -167h-42l103 167l-103 167h42zM253 476l104 -167l-104 -167h-42l104 167l-104 167h42z" />
    <glyph glyph-name="guilsinglleft" unicode="&#x2039;" horiz-adv-x="325" 
d="M235 476l-103 -167l103 -167h-42l-103 167l103 167h42z" />
    <glyph glyph-name="guilsinglright" unicode="&#x203a;" horiz-adv-x="325" 
d="M132 476l103 -167l-103 -167h-42l103 167l-103 167h42z" />
    <glyph glyph-name="quotedblbase" unicode="&#x201e;" horiz-adv-x="323" 
d="M90 -27v97h43v-97c0 -56 -20 -86 -56 -95v25c18 9 28 28 28 70h-15zM203 70h44v-97c0 -56 -21 -86 -57 -95v25c19 9 28 28 28 70h-15v97z" />
    <glyph glyph-name="quotedblleft" unicode="&#x201c;" horiz-adv-x="323" 
d="M76 610c0 56 21 86 57 95v-25c-19 -9 -28 -28 -28 -70h15v-97h-44v97zM190 610c0 56 21 86 57 95v-25c-19 -9 -29 -28 -29 -70h15v-97h-43v97z" />
    <glyph glyph-name="quotedblright" unicode="&#x201d;" horiz-adv-x="323" 
d="M90 603v97h43v-97c0 -56 -20 -86 -56 -95v25c18 9 28 28 28 70h-15zM203 700h44v-97c0 -56 -21 -86 -57 -95v25c19 9 28 28 28 70h-15v97z" />
    <glyph glyph-name="quoteleft" unicode="&#x2018;" horiz-adv-x="210" 
d="M77 610c0 56 20 86 56 95v-25c-18 -9 -28 -28 -28 -70h15v-97h-43v97z" />
    <glyph glyph-name="quoteright" unicode="&#x2019;" horiz-adv-x="210" 
d="M90 700h43v-97c0 -56 -20 -86 -56 -95v25c18 9 28 28 28 70h-15v97z" />
    <glyph glyph-name="quotesinglbase" unicode="&#x201a;" horiz-adv-x="210" 
d="M90 70h43v-97c0 -56 -20 -86 -56 -95v25c18 9 28 28 28 70h-15v97z" />
    <glyph glyph-name="space" unicode=" " horiz-adv-x="283" 
 />
    <glyph glyph-name="cent" unicode="&#xa2;" horiz-adv-x="578" 
d="M308 123c93 0 169 50 197 124h37c-30 -94 -122 -158 -234 -158c-27 0 -54 4 -78 11l-33 -100h-30l36 110c-94 39 -156 130 -156 240c0 147 112 261 261 261c21 0 41 -2 60 -6l31 95h30l-34 -103c71 -24 125 -76 147 -144h-37c-20 53 -64 93 -121 112l-143 -432
c21 -7 43 -10 67 -10zM82 350c0 -94 53 -173 132 -208l143 430c-16 3 -32 5 -49 5c-129 0 -226 -99 -226 -227z" />
    <glyph glyph-name="currency" unicode="&#xa4;" horiz-adv-x="553" 
d="M488 350c0 -54 -19 -103 -52 -140l71 -71l-20 -18l-71 69c-37 -32 -86 -51 -139 -51c-54 0 -103 19 -140 52l-70 -70l-20 18l70 71c-32 37 -52 85 -52 140s20 103 52 140l-70 71l20 18l70 -69c37 32 86 51 140 51c53 0 102 -20 140 -52l70 70l20 -18l-71 -71
c33 -37 52 -86 52 -140zM100 350c0 -100 78 -177 177 -177s176 77 176 177s-77 177 -176 177s-177 -77 -177 -177z" />
    <glyph glyph-name="dollar" unicode="$" horiz-adv-x="550" 
d="M503 164c0 -109 -93 -173 -211 -175v-89h-34v90c-123 10 -211 77 -211 191h36c0 -89 66 -147 175 -156v320c-97 37 -194 81 -194 200c0 98 84 161 194 165v90h34v-90c104 -8 192 -79 192 -183h-37c0 79 -64 141 -155 148v-306c103 -40 211 -81 211 -205zM100 545
c0 -90 74 -130 158 -163v294c-97 -5 -158 -58 -158 -131zM292 24c106 1 175 57 175 140c0 97 -85 135 -175 169v-309z" />
    <glyph glyph-name="Euro" unicode="&#x20ac;" horiz-adv-x="621" 
d="M548 211h37c-23 -137 -107 -222 -233 -222c-143 0 -233 110 -254 281h-88v31h85c-1 16 -2 32 -2 49c0 18 1 35 2 51h-85v32h88c22 169 111 278 254 278c125 0 209 -84 232 -220h-37c-21 118 -94 185 -195 185c-118 0 -197 -89 -217 -243h282v-32h-285
c-1 -16 -2 -33 -2 -51c0 -17 1 -33 2 -49h285v-31h-282c19 -156 99 -246 217 -246c102 0 175 68 196 187z" />
    <glyph glyph-name="florin" unicode="&#x192;" horiz-adv-x="434" 
d="M256 584c18 102 94 147 178 118v-34c-70 29 -129 -6 -142 -87l-37 -213h126v-34h-132l-72 -420c-17 -102 -93 -147 -177 -118v34c69 -29 128 6 142 87l71 417h-119v34h125z" />
    <glyph glyph-name="uni20BD" unicode="&#x20bd;" horiz-adv-x="563" 
d="M327 293h-194v-112h274v-32h-274v-149h-36v149h-90v32h90v112h-90v34h90v373h36h194c112 0 203 -91 203 -203s-91 -204 -203 -204zM133 666v-339h194c91 0 166 77 166 170s-75 169 -166 169h-194z" />
    <glyph glyph-name="sterling" unicode="&#xa3;" horiz-adv-x="595" 
d="M188 35h389v-35h-530v35h104v259h-84v32h84v191c0 122 91 194 199 194c106 0 198 -72 198 -194v-24h-37v24c0 96 -67 159 -161 159c-97 0 -162 -63 -162 -159v-191h250v-32h-250v-259z" />
    <glyph glyph-name="yen" unicode="&#xa5;" horiz-adv-x="565" 
d="M548 700l-239 -360h183v-31h-191v-93h191v-32h-191v-184h-37v184h-189v32h189v93h-189v31h181l-239 360h41l225 -338l224 338h41z" />
    <glyph glyph-name="cent.tf" horiz-adv-x="570" 
d="M304 123c93 0 169 50 197 124h37c-30 -94 -122 -158 -234 -158c-27 0 -54 4 -78 11l-33 -100h-30l36 110c-94 39 -156 130 -156 240c0 147 112 261 261 261c21 0 41 -2 60 -6l31 95h30l-34 -103c71 -24 125 -76 147 -144h-37c-20 53 -64 93 -121 112l-143 -432
c21 -7 43 -10 67 -10zM78 350c0 -94 53 -173 132 -208l143 430c-16 3 -32 5 -49 5c-129 0 -226 -99 -226 -227z" />
    <glyph glyph-name="dollar.tf" horiz-adv-x="570" 
d="M523 171c0 -109 -93 -180 -221 -182v-89h-34v90c-132 9 -221 76 -221 191h36c0 -90 67 -148 185 -156v318c-106 35 -204 76 -204 195c0 99 85 167 204 172v90h34v-90c113 -7 202 -78 202 -183h-37c0 79 -65 141 -165 148v-305c113 -38 221 -75 221 -199zM100 538
c0 -92 75 -125 168 -157v295c-107 -5 -168 -64 -168 -138zM302 24c116 1 185 64 185 147c0 97 -84 128 -185 161v-308z" />
    <glyph glyph-name="Euro.tf" horiz-adv-x="570" 
d="M501 211h37c-12 -137 -102 -222 -218 -222c-134 0 -219 110 -239 281h-69v31h67c-1 16 -2 32 -2 49c0 18 1 35 2 51h-67v32h70c20 169 105 278 238 278c116 0 205 -84 218 -220h-37c-12 118 -89 185 -181 185c-108 0 -183 -89 -202 -243h272v-32h-275
c-1 -16 -1 -33 -1 -51c0 -17 0 -33 1 -49h275v-31h-272c19 -156 93 -246 202 -246c93 0 171 68 181 187z" />
    <glyph glyph-name="florin.tf" horiz-adv-x="570" 
d="M533 668c-79 29 -133 -8 -151 -87l-51 -213h156v-34h-164l-99 -420c-24 -100 -93 -147 -187 -118v34c79 -29 133 8 152 87l98 417h-153v34h161l51 216c24 100 93 147 187 118v-34z" />
    <glyph glyph-name="uni20BD.tf" horiz-adv-x="570" 
d="M337 293h-200v-112h280v-32h-280v-149h-37v149h-90v32h90v112h-90v34h90v373h37h200c112 0 203 -91 203 -203s-91 -204 -203 -204zM137 666v-339h200c91 0 166 77 166 170s-75 169 -166 169h-200z" />
    <glyph glyph-name="sterling.tf" horiz-adv-x="570" 
d="M141 35h389v-35h-530v35h105v259h-85v32h85v191c0 122 90 194 198 194c106 0 198 -72 198 -194v-24h-36v24c0 96 -67 159 -162 159c-96 0 -162 -63 -162 -159v-191h251v-32h-251v-259z" />
    <glyph glyph-name="yen.tf" horiz-adv-x="570" 
d="M551 700l-240 -360h183v-31h-191v-93h191v-32h-191v-184h-36v184h-189v32h189v93h-189v31h181l-240 360h41l225 -339l226 339h40z" />
    <glyph glyph-name="approxequal" unicode="&#x2248;" horiz-adv-x="579" 
d="M281 415c-127 87 -169 10 -182 -42l-32 14c17 63 83 160 231 58c127 -88 169 -10 183 42l32 -14c-18 -63 -82 -159 -232 -58zM99 213l-32 14c17 63 83 160 231 58c127 -88 169 -10 183 42l32 -14c-18 -63 -82 -159 -232 -58c-127 87 -169 10 -182 -42z" />
    <glyph glyph-name="asciitilde" unicode="~" horiz-adv-x="579" 
d="M481 407l32 -14c-18 -63 -82 -160 -232 -58c-126 87 -169 10 -182 -42l-32 14c17 63 82 159 231 58c128 -88 169 -10 183 42z" />
    <glyph glyph-name="divide" unicode="&#xf7;" horiz-adv-x="580" 
d="M290 502c-20 0 -35 15 -35 35s15 35 35 35s35 -15 35 -35s-15 -35 -35 -35zM67 333v34h446v-34h-446zM290 128c-20 0 -35 15 -35 35s15 35 35 35s35 -15 35 -35s-15 -35 -35 -35z" />
    <glyph glyph-name="emptyset" unicode="&#x2205;" horiz-adv-x="831" 
d="M658 618c73 -66 119 -161 119 -268c0 -200 -162 -361 -362 -361c-82 0 -158 28 -219 73l-68 -82h-39l84 102c-73 66 -120 161 -120 268c0 200 162 361 362 361c83 0 158 -28 219 -73l69 82h39zM87 350c0 -97 41 -184 107 -244l420 507c-55 42 -124 66 -199 66
c-182 0 -328 -146 -328 -329zM415 21c182 0 329 146 329 329c0 97 -41 184 -107 244l-420 -507c55 -42 124 -66 198 -66z" />
    <glyph glyph-name="equal" unicode="=" horiz-adv-x="533" 
d="M67 433v34h400v-34h-400zM67 233v34h400v-34h-400z" />
    <glyph glyph-name="greater" unicode="&#x3e;" horiz-adv-x="533" 
d="M67 548l400 -180v-36l-400 -180v38l360 160l-360 160v38z" />
    <glyph glyph-name="greaterequal" unicode="&#x2265;" horiz-adv-x="533" 
d="M67 587l400 -161v-34l-400 -161v38l357 140l-357 140v38zM67 113v34h400v-34h-400z" />
    <glyph glyph-name="infinity" unicode="&#x221e;" horiz-adv-x="813" 
d="M597 503c86 0 151 -62 151 -153s-65 -153 -151 -153c-91 0 -148 69 -190 125c-43 -56 -100 -125 -191 -125c-86 0 -151 62 -151 153s65 153 151 153c91 0 148 -69 191 -125c42 56 99 125 190 125zM216 229c77 0 128 64 170 121c-42 57 -93 121 -170 121
c-68 0 -116 -49 -116 -121s48 -121 116 -121zM597 229c68 0 116 49 116 121s-48 121 -116 121c-77 0 -128 -64 -169 -121c41 -57 92 -121 169 -121z" />
    <glyph glyph-name="integral" unicode="&#x222b;" horiz-adv-x="434" 
d="M0 -203v34c69 -29 122 6 136 87l114 667c18 104 88 147 184 118v-34c-81 28 -134 -6 -148 -87l-115 -667c-18 -102 -87 -147 -171 -118z" />
    <glyph glyph-name="less" unicode="&#x3c;" horiz-adv-x="533" 
d="M467 548v-38l-361 -160l361 -160v-38l-400 180v36z" />
    <glyph glyph-name="lessequal" unicode="&#x2264;" horiz-adv-x="533" 
d="M467 587v-38l-358 -140l358 -140v-38l-400 161v34zM67 113v34h400v-34h-400z" />
    <glyph glyph-name="logicalnot" unicode="&#xac;" horiz-adv-x="520" 
d="M67 382h386v-33v-134h-35v134h-351v33z" />
    <glyph glyph-name="uni00B5" unicode="&#xb5;" horiz-adv-x="569" 
d="M506 33h26v-33h-29c-48 0 -78 31 -78 80v19c-35 -80 -105 -110 -174 -110c-57 0 -105 24 -132 70v-259h-36v700h36v-334c0 -91 55 -143 135 -143c88 0 171 63 171 195v282h35v-420c0 -29 18 -47 46 -47z" />
    <glyph glyph-name="minus" unicode="&#x2212;" horiz-adv-x="540" 
d="M67 333v34h406v-34h-406z" />
    <glyph glyph-name="multiply" unicode="&#xd7;" horiz-adv-x="466" 
d="M403 497l-147 -147l147 -147l-24 -22l-146 146l-145 -146l-25 22l147 147l-147 147l25 22l145 -146l146 146z" />
    <glyph glyph-name="notequal" unicode="&#x2260;" horiz-adv-x="533" 
d="M467 433h-143l-77 -166h220v-34h-235l-74 -160h-30l74 160h-135v34h150l77 166h-227v34h242l74 160h30l-74 -160h128v-34z" />
    <glyph glyph-name="partialdiff" unicode="&#x2202;" horiz-adv-x="579" 
d="M235 711c154 0 277 -140 277 -361c0 -234 -109 -361 -252 -361c-127 0 -203 93 -203 211c0 135 84 230 225 230c71 0 137 -19 194 -58c-6 171 -97 305 -241 305c-47 0 -87 -10 -124 -34l-7 32c39 25 82 36 131 36zM260 23c128 0 211 117 216 311c-59 44 -124 63 -194 63
c-115 0 -190 -75 -190 -197c0 -103 64 -177 168 -177z" />
    <glyph glyph-name="percent" unicode="%" horiz-adv-x="762" 
d="M220 413c-88 0 -153 66 -153 149s65 149 153 149s153 -66 153 -149s-63 -149 -153 -149zM115 0l491 700h41l-492 -700h-40zM220 445c69 0 118 50 118 117c0 66 -50 117 -118 117c-69 0 -119 -51 -119 -117s50 -117 119 -117zM543 -11c-88 0 -153 66 -153 149
s65 149 153 149s153 -66 153 -149s-65 -149 -153 -149zM543 21c68 0 118 51 118 117s-50 117 -118 117c-69 0 -119 -51 -119 -117s50 -117 119 -117z" />
    <glyph glyph-name="perthousand" unicode="&#x2030;" horiz-adv-x="1116" 
d="M220 413c-88 0 -153 66 -153 149s65 149 153 149s153 -66 153 -149s-63 -149 -153 -149zM115 0l491 700h41l-492 -700h-40zM220 445c69 0 118 50 118 117c0 66 -50 117 -118 117c-69 0 -119 -51 -119 -117s50 -117 119 -117zM543 -11c-88 0 -153 66 -153 149
s65 149 153 149s153 -66 153 -149s-65 -149 -153 -149zM909 -11c-88 0 -153 66 -153 149s65 149 153 149s153 -66 153 -149s-65 -149 -153 -149zM543 21c68 0 118 51 118 117s-50 117 -118 117c-69 0 -119 -51 -119 -117s50 -117 119 -117zM909 21c69 0 119 51 119 117
s-50 117 -119 117c-68 0 -118 -51 -118 -117s50 -117 118 -117z" />
    <glyph glyph-name="plus" unicode="+" horiz-adv-x="527" 
d="M460 367v-34h-179v-180h-35v180h-179v34h179v180h35v-180h179z" />
    <glyph glyph-name="plusminus" unicode="&#xb1;" horiz-adv-x="527" 
d="M281 428h179v-33h-179v-175h-35v175h-179v33h179v175h35v-175zM67 97v33h393v-33h-393z" />
    <glyph glyph-name="product" unicode="&#x220f;" horiz-adv-x="640" 
d="M93 -200v900h454v-900h-36v867h-382v-867h-36z" />
    <glyph glyph-name="radical" unicode="&#x221a;" horiz-adv-x="634" 
d="M304 0l-157 267h-80v33h99l154 -260l251 760h36l-265 -800h-38z" />
    <glyph glyph-name="summation" unicode="&#x2211;" horiz-adv-x="541" 
d="M63 -200v33l266 427l-252 407v33h413v-33h-373l253 -407l-267 -427h402v-33h-442z" />
    <glyph glyph-name="arrowup" unicode="&#x2191;" horiz-adv-x="733" 
d="M667 400v-48l-283 282v-634h-35v634l-282 -282v48l300 300z" />
    <glyph glyph-name="uni2197" unicode="&#x2197;" horiz-adv-x="641" 
d="M150 587h424v-424l-34 -34v399l-448 -448l-25 25l448 448h-399z" />
    <glyph glyph-name="arrowright" unicode="&#x2192;" horiz-adv-x="833" 
d="M467 650l300 -300l-300 -300h-48l283 283h-635v34h635l-283 283h48z" />
    <glyph glyph-name="uni2198" unicode="&#x2198;" horiz-adv-x="641" 
d="M540 547l34 -34v-424h-424l-34 34h399l-448 448l25 25l448 -448v399z" />
    <glyph glyph-name="arrowdown" unicode="&#x2193;" horiz-adv-x="733" 
d="M384 66l283 282v-48l-300 -300l-300 300v48l282 -282v634h35v-634z" />
    <glyph glyph-name="uni2199" unicode="&#x2199;" horiz-adv-x="641" 
d="M574 571l-449 -448h399l-33 -34h-424v424l33 34v-399l448 448z" />
    <glyph glyph-name="arrowleft" unicode="&#x2190;" horiz-adv-x="833" 
d="M767 367v-34h-636l284 -283h-48l-300 300l300 300h48l-284 -283h636z" />
    <glyph glyph-name="uni2196" unicode="&#x2196;" horiz-adv-x="641" 
d="M574 105l-26 -25l-448 448v-399l-33 34v424h424l33 -34h-399z" />
    <glyph glyph-name="arrowboth" unicode="&#x2194;" horiz-adv-x="1027" 
d="M717 593l243 -243l-243 -243h-48l226 226h-764l227 -226h-48l-243 243l243 243h48l-227 -226h764l-226 226h48z" />
    <glyph glyph-name="arrowupdn" unicode="&#x2195;" horiz-adv-x="633" 
d="M560 506l-226 225v-762l226 225v-48l-243 -243l-244 243v48l226 -225v762l-226 -225v48l244 243l243 -243v-48z" />
    <glyph glyph-name="lozenge" unicode="&#x25ca;" horiz-adv-x="536" 
d="M250 0l-187 350l187 350h36l187 -350l-187 -350h-36zM268 39l166 311l-166 311l-166 -311z" />
    <glyph glyph-name="bar" unicode="|" horiz-adv-x="222" 
d="M93 -200v920h36v-920h-36z" />
    <glyph glyph-name="brokenbar" unicode="&#xa6;" horiz-adv-x="222" 
d="M93 350v370h36v-370h-36zM93 -200v370h36v-370h-36z" />
    <glyph glyph-name="at" unicode="@" horiz-adv-x="821" 
d="M417 612c223 0 350 -177 350 -342c0 -153 -69 -205 -134 -205c-62 0 -95 41 -98 99c-26 -45 -72 -74 -131 -74c-93 0 -162 70 -162 160s69 160 162 160c58 0 105 -29 130 -73v66h34v-229c0 -51 22 -86 68 -86c64 0 108 60 108 182c0 181 -142 321 -327 321
c-190 0 -340 -148 -340 -341c0 -197 152 -341 358 -341c67 0 122 9 170 27l4 -21c-47 -17 -103 -27 -174 -27c-218 0 -382 152 -382 362c0 200 156 362 364 362zM406 122c72 0 128 54 128 128s-56 128 -128 128c-73 0 -130 -54 -130 -128s57 -128 130 -128z" />
    <glyph glyph-name="ampersand" unicode="&#x26;" horiz-adv-x="658" 
d="M631 0h-49l-76 75c-47 -51 -117 -86 -221 -86c-130 0 -228 80 -228 199c0 90 52 163 129 202c-37 41 -61 83 -61 144c0 106 88 177 199 177c109 0 201 -72 201 -184h-37c0 86 -66 149 -164 149c-99 0 -163 -62 -163 -142c0 -66 37 -109 89 -159l251 -247
c31 45 47 105 47 176h37c0 -66 -16 -141 -58 -202zM285 24c83 0 150 27 195 76l-256 251l-13 13c-78 -37 -118 -105 -118 -176c0 -102 85 -164 192 -164z" />
    <glyph glyph-name="paragraph" unicode="&#xb6;" horiz-adv-x="560" 
d="M513 700v-33h-60v-867h-34v867h-151v-867h-35v527c-103 0 -186 84 -186 186c0 104 83 187 186 187h35h185h60z" />
    <glyph glyph-name="copyright" unicode="&#xa9;" horiz-adv-x="831" 
d="M415 -11c-200 0 -362 161 -362 361s162 361 362 361s362 -161 362 -361s-162 -361 -362 -361zM415 11c187 0 339 151 339 339s-152 339 -339 339s-338 -151 -338 -339s151 -339 338 -339zM418 158c-111 0 -194 85 -194 192s83 192 194 192c88 0 158 -54 178 -130h-37
c-18 61 -74 97 -141 97c-94 0 -159 -72 -159 -159s65 -159 159 -159c67 0 123 36 141 97h37c-20 -76 -90 -130 -178 -130z" />
    <glyph glyph-name="registered" unicode="&#xae;" horiz-adv-x="831" 
d="M415 711c200 0 362 -161 362 -361s-162 -361 -362 -361s-362 161 -362 361s162 361 362 361zM415 11c187 0 339 151 339 339s-152 339 -339 339s-338 -151 -338 -339s151 -339 338 -339zM553 423c0 -52 -25 -91 -80 -106l118 -152h-39l-113 146c-6 0 -13 -1 -20 -1h-73
v-145h-34v370h34h73c93 0 134 -57 134 -112zM346 342h75c68 0 98 32 98 81c0 45 -34 80 -98 80h-75v-161z" />
    <glyph glyph-name="section" unicode="&#xa7;" horiz-adv-x="530" 
d="M397 135c30 -27 50 -60 50 -104c0 -82 -69 -143 -180 -143s-190 61 -190 160h35c0 -81 64 -127 155 -127c85 0 144 41 144 110c0 77 -85 115 -172 152c-80 36 -176 75 -176 163c0 49 28 91 72 119c-29 26 -48 59 -48 104c0 82 70 142 171 142s179 -60 179 -159h-36
c0 80 -61 125 -143 125c-77 0 -136 -41 -136 -108c0 -80 83 -115 169 -152c80 -37 176 -76 176 -165c0 -48 -27 -90 -70 -117zM99 346c0 -69 79 -100 154 -133c40 -17 82 -35 116 -57c41 22 62 58 62 96c0 70 -79 102 -155 135c-39 17 -80 34 -114 57
c-42 -23 -63 -59 -63 -98z" />
    <glyph glyph-name="trademark" unicode="&#x2122;" horiz-adv-x="493" 
d="M206 700v-25h-60v-175h-27v175h-59v25h146zM433 700v-200h-27v162l-59 -119h-25l-59 119v-162h-27v200h27h9l62 -126l63 126h36z" />
    <glyph glyph-name="degree" unicode="&#xb0;" horiz-adv-x="386" 
d="M193 523c-84 0 -146 65 -146 144s62 143 146 143s146 -64 146 -143s-60 -144 -146 -144zM193 555c64 0 112 48 112 112c0 62 -48 111 -112 111s-112 -49 -112 -111c0 -63 48 -112 112 -112z" />
    <glyph glyph-name="estimated" unicode="&#x212e;" horiz-adv-x="847" 
d="M423 710c221 0 370 -161 370 -360c0 -10 -5 -15 -15 -15h-560c-10 0 -15 -5 -15 -15v-192c0 -8 2 -13 7 -19c54 -57 128 -89 233 -89c99 0 177 36 231 97c5 6 10 9 18 9h37c13 0 18 -9 9 -19c-67 -72 -168 -117 -295 -117c-241 0 -390 161 -390 360s149 360 370 360z
M643 572c0 8 -2 13 -7 19c-54 57 -128 89 -213 89s-159 -32 -213 -89c-5 -6 -7 -11 -7 -19v-192c0 -10 5 -15 15 -15h410c10 0 15 5 15 15v192z" />
    <glyph glyph-name="uni2116" unicode="&#x2116;" horiz-adv-x="966" 
d="M766 424c-84 0 -146 64 -146 143s62 144 146 144s147 -65 147 -144s-61 -143 -147 -143zM500 700h37v-700h-34l-373 628v-628h-37v700h34l373 -628v628zM766 456c65 0 112 48 112 111s-48 112 -112 112c-63 0 -111 -49 -111 -112c0 -62 48 -111 111 -111zM631 302v33h271
v-33h-271z" />
    <glyph glyph-name="asciicircum" unicode="^" horiz-adv-x="504" 
d="M269 700l175 -300h-40l-152 260l-152 -260h-40l175 300h34z" />
    <glyph glyph-name="dagger" unicode="&#x2020;" horiz-adv-x="467" 
d="M400 520v-34h-149v-486h-35v486h-149v34h149v180h35v-180h149z" />
    <glyph glyph-name="daggerdbl" unicode="&#x2021;" horiz-adv-x="467" 
d="M400 486h-149v-272h149v-34h-149v-180h-35v180h-149v34h149v272h-149v34h149v180h35v-180h149v-34z" />
    <glyph glyph-name="uni0308" unicode="&#x308;" horiz-adv-x="0" 
d="M-247 580v67h40v-67h-40zM-60 580v67h40v-67h-40z" />
    <glyph glyph-name="uni0307" unicode="&#x307;" horiz-adv-x="0" 
d="M-65 580v77h43v-77h-43z" />
    <glyph glyph-name="gravecomb" unicode="&#x300;" horiz-adv-x="0" 
d="M-20 570l-80 123h-41l88 -123h33z" />
    <glyph glyph-name="acutecomb" unicode="&#x301;" horiz-adv-x="0" 
d="M-141 570h33l88 123h-41z" />
    <glyph glyph-name="uni030B" unicode="&#x30b;" horiz-adv-x="0" 
d="M-272 570h34l75 130h-39zM-132 570h34l85 130h-39z" />
    <glyph glyph-name="uni0302" unicode="&#x302;" horiz-adv-x="0" 
d="M-20 570h-40l-91 102l-90 -102h-40l110 123h39h2z" />
    <glyph glyph-name="uni030C" unicode="&#x30c;" horiz-adv-x="0" 
d="M-60 693h40l-110 -123h-40h-1l-110 123h40l90 -102z" />
    <glyph glyph-name="uni0306" unicode="&#x306;" horiz-adv-x="0" 
d="M-160 569c-76 0 -127 43 -127 113h34c0 -53 36 -83 93 -83s93 30 93 83h34c0 -70 -50 -113 -127 -113z" />
    <glyph glyph-name="uni030A" unicode="&#x30a;" horiz-adv-x="0" 
d="M-118 557c-59 0 -99 40 -99 93s40 93 99 93c60 0 98 -40 98 -93s-38 -93 -98 -93zM-118 584c42 0 68 27 68 66s-26 66 -68 66s-69 -27 -69 -66s27 -66 69 -66z" />
    <glyph glyph-name="tildecomb" unicode="&#x303;" horiz-adv-x="0" 
d="M-284 587c0 101 65 128 136 61c58 -57 97 -44 97 31h31c0 -100 -66 -127 -135 -61c-59 58 -98 44 -98 -31h-31z" />
    <glyph glyph-name="uni0304" unicode="&#x304;" horiz-adv-x="0" 
d="M-267 594v30h247v-30h-247z" />
    <glyph glyph-name="uni0312" unicode="&#x312;" horiz-adv-x="0" 
d="M-46 960l-19 -170h35l10 170h-26z" />
    <glyph glyph-name="uni0326" unicode="&#x326;" horiz-adv-x="0" 
d="M-39 -240l19 170h-35l-10 -170h26z" />
    <glyph glyph-name="uni0327" unicode="&#x327;" horiz-adv-x="0" 
d="M-110 -68c46 0 90 -23 90 -67c0 -50 -51 -85 -185 -72v29c102 -11 153 6 153 43c0 29 -29 46 -89 43v92h31v-68z" />
    <glyph glyph-name="uni0328" unicode="&#x328;" horiz-adv-x="0" 
d="M-70 -211c-47 0 -75 28 -75 70s28 91 85 141h39c-57 -49 -90 -95 -90 -137c0 -28 19 -44 47 -44c18 0 30 2 44 8v-29c-14 -6 -31 -9 -50 -9z" />
    <glyph glyph-name="acute" unicode="&#xb4;" horiz-adv-x="161" 
d="M20 570h33l88 123h-41z" />
    <glyph glyph-name="breve" unicode="&#x2d8;" horiz-adv-x="293" 
d="M147 569c-76 0 -127 43 -127 113h33c0 -53 37 -83 94 -83s93 30 93 83h33c0 -70 -50 -113 -126 -113z" />
    <glyph glyph-name="caron" unicode="&#x2c7;" horiz-adv-x="301" 
d="M241 693h40l-110 -123h-40h-1l-110 123h40l90 -102z" />
    <glyph glyph-name="cedilla" unicode="&#xb8;" horiz-adv-x="212" 
d="M109 -68c45 0 89 -23 89 -67c0 -50 -50 -85 -185 -72v29c103 -11 154 6 154 43c0 29 -30 46 -90 43v92h32v-68z" />
    <glyph glyph-name="circumflex" unicode="&#x2c6;" horiz-adv-x="301" 
d="M281 570h-40l-91 102l-90 -102h-40l110 123h39h2z" />
    <glyph glyph-name="dieresis" unicode="&#xa8;" horiz-adv-x="267" 
d="M20 580v67h40v-67h-40zM207 580v67h40v-67h-40z" />
    <glyph glyph-name="dotaccent" unicode="&#x2d9;" horiz-adv-x="83" 
d="M20 580v77h43v-77h-43z" />
    <glyph glyph-name="grave" unicode="`" horiz-adv-x="161" 
d="M141 570l-80 123h-41l88 -123h33z" />
    <glyph glyph-name="hungarumlaut" unicode="&#x2dd;" horiz-adv-x="299" 
d="M20 570h34l75 130h-39zM160 570h34l85 130h-39z" />
    <glyph glyph-name="macron" unicode="&#xaf;" horiz-adv-x="287" 
d="M20 594v30h247v-30h-247z" />
    <glyph glyph-name="ogonek" unicode="&#x2db;" horiz-adv-x="165" 
d="M95 -211c-47 0 -75 28 -75 70s28 91 85 141h39c-57 -49 -90 -95 -90 -137c0 -28 19 -44 47 -44c18 0 30 2 44 8v-29c-14 -6 -31 -9 -50 -9z" />
    <glyph glyph-name="ring" unicode="&#x2da;" horiz-adv-x="237" 
d="M119 557c-59 0 -99 40 -99 93s40 93 99 93c60 0 98 -40 98 -93s-38 -93 -98 -93zM119 584c42 0 68 27 68 66s-26 66 -68 66s-69 -27 -69 -66s27 -66 69 -66z" />
    <glyph glyph-name="tilde" unicode="&#x2dc;" horiz-adv-x="304" 
d="M20 587c0 101 65 128 136 61c58 -57 97 -44 97 31h31c0 -100 -66 -127 -135 -61c-59 58 -98 44 -98 -31h-31z" />
    <glyph glyph-name="brevecy" horiz-adv-x="287" 
d="M20 594v30h247v-30h-247z" />
    </font>
</defs>
</svg>
