<?xml version="1.0" standalone="no"?>
<!DOCTYPE svg PUBLIC "-//W3C//DTD SVG 1.1//EN" "http://www.w3.org/Graphics/SVG/1.1/DTD/svg11.dtd" >
<svg>
<metadata>
Created by FontForge 20120731 at Mon Nov 14 13:41:48 2016
 By Apache
Copyright \(c\) 2015 by Radomir Tinkov. All rights reserved.
</metadata>
<defs>
<font id="Qanelas-Light" horiz-adv-x="524" >
  <font-face 
    font-family="Qanelas Light"
    font-weight="300"
    font-stretch="normal"
    units-per-em="1000"
    panose-1="0 0 4 0 0 0 0 0 0 0"
    ascent="800"
    descent="-200"
    x-height="500"
    cap-height="700"
    bbox="-295 -240 1056 960"
    underline-thickness="50"
    underline-position="-50"
    unicode-range="U+0020-FB02"
  />
<missing-glyph horiz-adv-x="500" 
d="M410 800v-1000h-317v1000h317zM333 733h-165v-33h65v-37h-66v-33h166v33h-66v37h66v33zM267 604h-100v-104h166v34h-66v70zM233 570v-36h-33v36h33zM333 473h-166v-33h66v-37h-66v-33h100v70h66v33zM333 413h-33v-66h-133v-34h166v100zM333 291h-100v-56h34v23h33v-47
h-100v80h-33v-113h166v113zM333 118h-166v-113h166v113zM300 85v-47h-100v47h100zM333 -18h-166v-33h70l-70 -47v-33h166v33h-102l70 47h32v33z" />
    <glyph glyph-name="f_f" unicode="ff" horiz-adv-x="576" 
d="M576 673c-102 8 -149 -39 -149 -136v-37h149v-49h-149v-451h-51v451h-86h-133v-451h-50v451h-87v49h87v27c0 123 68 194 199 184v-48c-102 8 -149 -39 -149 -136v-27h149h70v37c0 123 69 194 200 184v-48z" />
    <glyph glyph-name="f_f_i" unicode="ffi" horiz-adv-x="773" 
d="M697 500v-500h-51v451h-219v-451h-51v451h-86h-133v-451h-50v451h-87v49h87v27c0 123 68 194 199 184v-48c-102 8 -149 -39 -149 -136v-27h149h70v37c0 123 69 184 200 184c33 0 64 -4 97 -11v-46c-33 6 -64 9 -97 9c-102 0 -149 -39 -149 -136v-37h270z" />
    <glyph glyph-name="f_f_l" unicode="ffl" horiz-adv-x="773" 
d="M576 721c43 0 79 -4 121 -11v-710h-51v671c-23 3 -46 4 -70 4c-102 0 -149 -41 -149 -138v-37h119v-49h-119v-451h-51v451h-86h-133v-451h-50v451h-87v49h87v27c0 123 68 194 199 184v-48c-102 8 -149 -39 -149 -136v-27h149h70v37c0 123 69 184 200 184z" />
    <glyph glyph-name="fi" unicode="fi" horiz-adv-x="504" 
d="M427 500v-500h-51v451h-219v-451h-50v451h-87v49h87v27c0 123 68 184 199 184c33 0 64 -4 98 -11v-46c-33 6 -64 9 -98 9c-102 0 -149 -39 -149 -136v-27h270z" />
    <glyph glyph-name="fl" unicode="fl" horiz-adv-x="504" 
d="M306 711c43 0 79 -4 121 -11v-700h-51v661c-23 3 -46 4 -70 4c-102 0 -149 -41 -149 -138v-27h119v-49h-119v-451h-50v451h-87v49h87v27c0 123 68 184 199 184z" />
    <glyph glyph-name=".notdef" horiz-adv-x="500" 
d="M410 800v-1000h-317v1000h317zM333 733h-165v-33h65v-37h-66v-33h166v33h-66v37h66v33zM267 604h-100v-104h166v34h-66v70zM233 570v-36h-33v36h33zM333 473h-166v-33h66v-37h-66v-33h100v70h66v33zM333 413h-33v-66h-133v-34h166v100zM333 291h-100v-56h34v23h33v-47
h-100v80h-33v-113h166v113zM333 118h-166v-113h166v113zM300 85v-47h-100v47h100zM333 -18h-166v-33h70l-70 -47v-33h166v33h-102l70 47h32v33z" />
    <glyph glyph-name="A" unicode="A" horiz-adv-x="629" 
d="M558 0l-68 178h-350l-69 -178h-56l272 700h56l271 -700h-56zM159 228h312l-156 407z" />
    <glyph glyph-name="Aacute" unicode="&#xc1;" horiz-adv-x="629" 
d="M413 897l-91 -127h-49l80 127h60zM558 0l-68 178h-350l-69 -178h-56l272 700h56l271 -700h-56zM159 228h312l-156 407z" />
    <glyph glyph-name="Abreve" unicode="&#x102;" horiz-adv-x="629" 
d="M314 765c-80 0 -133 46 -133 122h48c0 -52 32 -78 85 -78s85 26 85 78h48c0 -76 -52 -122 -133 -122zM558 0l-68 178h-350l-69 -178h-56l272 700h56l271 -700h-56zM159 228h312l-156 407z" />
    <glyph glyph-name="Acircumflex" unicode="&#xc2;" horiz-adv-x="629" 
d="M314 865l-81 -95h-57l108 127h57h2l108 -127h-57zM558 0l-68 178h-350l-69 -178h-56l272 700h56l271 -700h-56zM159 228h312l-156 407z" />
    <glyph glyph-name="Adieresis" unicode="&#xc4;" horiz-adv-x="629" 
d="M248 853v-73h-60v73h60zM441 853v-73h-60v73h60zM558 0l-68 178h-350l-69 -178h-56l272 700h56l271 -700h-56zM159 228h312l-156 407z" />
    <glyph glyph-name="Agrave" unicode="&#xc0;" horiz-adv-x="629" 
d="M349 770h-48l-92 127h60zM558 0l-68 178h-350l-69 -178h-56l272 700h56l271 -700h-56zM159 228h312l-156 407z" />
    <glyph glyph-name="Amacron" unicode="&#x100;" horiz-adv-x="629" 
d="M441 831v-44h-253v44h253zM558 0l-68 178h-350l-69 -178h-56l272 700h56l271 -700h-56zM159 228h312l-156 407z" />
    <glyph glyph-name="Aogonek" unicode="&#x104;" horiz-adv-x="629" 
d="M531 -131c0 -25 16 -37 40 -37c17 0 30 3 43 9v-42c-15 -7 -32 -10 -54 -10c-50 0 -78 29 -78 72c0 41 25 89 77 139h-1l-68 178h-350l-69 -178h-56l272 700h56l271 -700c-51 -46 -83 -93 -83 -131zM159 228h312l-156 407z" />
    <glyph glyph-name="Aring" unicode="&#xc5;" horiz-adv-x="629" 
d="M314 753c-61 0 -102 42 -102 97s41 97 102 97c62 0 103 -42 103 -97s-41 -97 -103 -97zM314 907c-37 0 -59 -24 -59 -57s22 -57 59 -57c38 0 61 24 61 57s-23 57 -61 57zM558 0l-68 178h-350l-69 -178h-56l272 700h56l271 -700h-56zM159 228h312l-156 407z" />
    <glyph glyph-name="Atilde" unicode="&#xc3;" horiz-adv-x="629" 
d="M313 811c-56 48 -90 50 -90 -28h-44c0 113 69 134 138 74c56 -48 90 -49 90 28h44c0 -112 -69 -134 -138 -74zM558 0l-68 178h-350l-69 -178h-56l272 700h56l271 -700h-56zM159 228h312l-156 407z" />
    <glyph glyph-name="AE" unicode="&#xc6;" horiz-adv-x="873" 
d="M503 50h326v-50h-356h-24v183h-273l-112 -183h-61l429 700h41h30h321v-50h-321v-272h303v-50h-303v-278zM206 233h243v398z" />
    <glyph glyph-name="B" unicode="B" horiz-adv-x="683" 
d="M506 445c85 -32 141 -116 141 -215c0 -126 -94 -230 -221 -230h-329h-10v700h53h219c105 0 174 -74 174 -164c0 -33 -10 -65 -27 -91zM359 650h-219v-190h287c8 0 16 0 24 -1c18 20 29 48 29 77c0 63 -46 114 -121 114zM419 50c104 0 174 81 174 180
c0 100 -69 180 -173 180h-280v-360h279z" />
    <glyph glyph-name="C" unicode="C" horiz-adv-x="769" 
d="M411 -11c-213 0 -364 161 -364 361s151 361 364 361c151 0 281 -92 325 -224h-58c-40 102 -145 173 -267 173c-184 0 -311 -138 -311 -310s127 -310 311 -310c122 0 227 71 267 173h58c-44 -132 -173 -224 -325 -224z" />
    <glyph glyph-name="Cacute" unicode="&#x106;" horiz-adv-x="769" 
d="M370 770h49l91 127h-60zM411 -11c-213 0 -364 161 -364 361s151 361 364 361c151 0 281 -92 325 -224h-58c-40 102 -145 173 -267 173c-184 0 -311 -138 -311 -310s127 -310 311 -310c122 0 227 71 267 173h58c-44 -132 -173 -224 -325 -224z" />
    <glyph glyph-name="Ccaron" unicode="&#x10c;" horiz-adv-x="769" 
d="M381 770l-108 127h57l81 -95l80 95h57l-108 -127h-59zM678 213h58c-44 -132 -173 -224 -325 -224c-213 0 -364 161 -364 361s151 361 364 361c151 0 281 -92 325 -224h-58c-40 102 -145 173 -267 173c-184 0 -311 -138 -311 -310s127 -310 311 -310c122 0 227 71 267 173
z" />
    <glyph glyph-name="Ccedilla" unicode="&#xc7;" horiz-adv-x="769" 
d="M736 213c-42 -125 -161 -215 -303 -224v-45c51 -6 91 -32 91 -75c0 -49 -43 -92 -195 -80v41c101 -10 151 7 151 39c0 29 -33 43 -92 43v77c-201 12 -341 169 -341 361c0 200 151 361 364 361c151 0 281 -92 325 -224h-58c-40 102 -145 173 -267 173
c-184 0 -311 -138 -311 -310s127 -310 311 -310c122 0 227 71 267 173h58z" />
    <glyph glyph-name="Cdotaccent" unicode="&#x10a;" horiz-adv-x="769" 
d="M378 780v83h67v-83h-67zM411 -11c-213 0 -364 161 -364 361s151 361 364 361c151 0 281 -92 325 -224h-58c-40 102 -145 173 -267 173c-184 0 -311 -138 -311 -310s127 -310 311 -310c122 0 227 71 267 173h58c-44 -132 -173 -224 -325 -224z" />
    <glyph glyph-name="D" unicode="D" horiz-adv-x="747" 
d="M370 700c193 0 330 -157 330 -350s-137 -350 -330 -350h-260h-23v700h53h230zM370 50c165 0 278 134 278 300s-113 300 -278 300h-230v-600h230z" />
    <glyph glyph-name="Eth" unicode="&#xd0;" horiz-adv-x="767" 
d="M390 700c193 0 330 -157 330 -350s-137 -350 -330 -350h-260h-23v326h-67v48h67v326h53h230zM390 50c165 0 278 134 278 300s-113 300 -278 300h-230v-276h240v-48h-240v-276h230z" />
    <glyph glyph-name="Dcaron" unicode="&#x10e;" horiz-adv-x="747" 
d="M320 770l-108 127h57l81 -95l80 95h57l-108 -127h-59zM370 700c193 0 330 -157 330 -350s-137 -350 -330 -350h-260h-23v700h53h230zM370 50c165 0 278 134 278 300s-113 300 -278 300h-230v-600h230z" />
    <glyph glyph-name="Dcroat" unicode="&#x110;" horiz-adv-x="767" 
d="M390 700c193 0 330 -157 330 -350s-137 -350 -330 -350h-260h-23v326h-67v48h67v326h53h230zM390 50c165 0 278 134 278 300s-113 300 -278 300h-230v-276h240v-48h-240v-276h230z" />
    <glyph glyph-name="E" unicode="E" horiz-adv-x="520" 
d="M140 50h337v-50h-367h-23v700h53h332v-50h-332v-272h307v-50h-307v-278z" />
    <glyph glyph-name="Eacute" unicode="&#xc9;" horiz-adv-x="520" 
d="M376 897l-91 -127h-49l80 127h60zM140 50h337v-50h-367h-23v700h53h332v-50h-332v-272h307v-50h-307v-278z" />
    <glyph glyph-name="Ecaron" unicode="&#x11a;" horiz-adv-x="520" 
d="M247 770l-108 127h57l81 -95l80 95h57l-108 -127h-59zM140 50h337v-50h-367h-23v700h53h332v-50h-332v-272h307v-50h-307v-278z" />
    <glyph glyph-name="Ecircumflex" unicode="&#xca;" horiz-adv-x="520" 
d="M277 865l-81 -95h-57l108 127h57h2l108 -127h-57zM140 50h337v-50h-367h-23v700h53h332v-50h-332v-272h307v-50h-307v-278z" />
    <glyph glyph-name="Edieresis" unicode="&#xcb;" horiz-adv-x="520" 
d="M211 853v-73h-60v73h60zM404 853v-73h-60v73h60zM140 50h337v-50h-367h-23v700h53h332v-50h-332v-272h307v-50h-307v-278z" />
    <glyph glyph-name="Edotaccent" unicode="&#x116;" horiz-adv-x="520" 
d="M311 863v-83h-67v83h67zM140 50h337v-50h-367h-23v700h53h332v-50h-332v-272h307v-50h-307v-278z" />
    <glyph glyph-name="Egrave" unicode="&#xc8;" horiz-adv-x="520" 
d="M312 770h-48l-92 127h60zM140 50h337v-50h-367h-23v700h53h332v-50h-332v-272h307v-50h-307v-278z" />
    <glyph glyph-name="Emacron" unicode="&#x112;" horiz-adv-x="520" 
d="M404 831v-44h-253v44h253zM140 50h337v-50h-367h-23v700h53h332v-50h-332v-272h307v-50h-307v-278z" />
    <glyph glyph-name="Eogonek" unicode="&#x118;" horiz-adv-x="521" 
d="M434 -168c16 0 29 3 43 9v-42c-16 -7 -33 -10 -54 -10c-51 0 -79 29 -79 72c0 41 26 91 79 139h-313h-23v700h53h332v-50h-332v-272h307v-50h-307v-278h337v-50h-1c-51 -46 -83 -93 -83 -131c0 -25 16 -37 41 -37z" />
    <glyph glyph-name="F" unicode="F" horiz-adv-x="502" 
d="M472 650h-332v-300h320v-50h-320v-300h-53v700h53h332v-50z" />
    <glyph glyph-name="G" unicode="G" horiz-adv-x="803" 
d="M423 345h310v-50v-295h-54v123c-52 -91 -158 -134 -268 -134c-214 0 -364 161 -364 361s151 361 361 361c151 0 281 -92 324 -224h-57c-40 102 -146 173 -267 173c-181 0 -308 -138 -308 -310s126 -310 311 -310c138 0 262 75 268 217v38h-256v50z" />
    <glyph glyph-name="Gbreve" unicode="&#x11e;" horiz-adv-x="803" 
d="M401 765c-80 0 -133 46 -133 122h48c0 -52 32 -78 85 -78s85 26 85 78h48c0 -76 -52 -122 -133 -122zM423 345h310v-50v-295h-54v123c-52 -91 -158 -134 -268 -134c-214 0 -364 161 -364 361s151 361 361 361c151 0 281 -92 324 -224h-57c-40 102 -146 173 -267 173
c-181 0 -308 -138 -308 -310s126 -310 311 -310c138 0 262 75 268 217v38h-256v50z" />
    <glyph glyph-name="Gcommaaccent" unicode="&#x122;" horiz-adv-x="803" 
d="M423 345h310v-50v-295h-54v123c-52 -91 -158 -134 -268 -134c-214 0 -364 161 -364 361s151 361 361 361c151 0 281 -92 324 -224h-57c-40 102 -146 173 -267 173c-181 0 -308 -138 -308 -310s126 -310 311 -310c138 0 262 75 268 217v38h-256v50zM394 -240l10 170h51
l-25 -170h-36z" />
    <glyph glyph-name="Gdotaccent" unicode="&#x120;" horiz-adv-x="803" 
d="M435 863v-83h-67v83h67zM423 345h310v-50v-295h-54v123c-52 -91 -158 -134 -268 -134c-214 0 -364 161 -364 361s151 361 361 361c151 0 281 -92 324 -224h-57c-40 102 -146 173 -267 173c-181 0 -308 -138 -308 -310s126 -310 311 -310c138 0 262 75 268 217v38h-256v50
z" />
    <glyph glyph-name="H" unicode="H" horiz-adv-x="633" 
d="M493 700h54v-700h-54v335h-353v-335h-53v700h53v-315h353v315z" />
    <glyph glyph-name="Hbar" unicode="&#x126;" horiz-adv-x="687" 
d="M640 562v-44h-67v-518h-53v335h-353v-335h-54v518h-66v44h66v138h54v-138h353v138h53v-138h67zM520 385v133h-353v-133h353z" />
    <glyph glyph-name="I" unicode="I" horiz-adv-x="227" 
d="M87 700h53v-700h-53v700z" />
    <glyph glyph-name="Iacute" unicode="&#xcd;" horiz-adv-x="227" 
d="M72 770h49l91 127h-60zM87 700h53v-700h-53v700z" />
    <glyph glyph-name="Icircumflex" unicode="&#xce;" horiz-adv-x="227" 
d="M142 897l108 -127h-57l-80 95l-81 -95h-57l108 127h57h2zM87 0v700h53v-700h-53z" />
    <glyph glyph-name="Idieresis" unicode="&#xcf;" horiz-adv-x="227" 
d="M-13 780v73h60v-73h-60zM180 780v73h60v-73h-60zM87 700h53v-700h-53v700z" />
    <glyph glyph-name="Idotaccent" unicode="&#x130;" horiz-adv-x="227" 
d="M80 780v83h67v-83h-67zM87 700h53v-700h-53v700z" />
    <glyph glyph-name="Igrave" unicode="&#xcc;" horiz-adv-x="227" 
d="M148 770l-80 127h-60l92 -127h48zM87 700h53v-700h-53v700z" />
    <glyph glyph-name="Imacron" unicode="&#x12a;" horiz-adv-x="227" 
d="M-13 787v44h253v-44h-253zM87 700h53v-700h-53v700z" />
    <glyph glyph-name="Iogonek" unicode="&#x12e;" horiz-adv-x="227" 
d="M133 -168c17 0 29 3 43 9v-42c-15 -7 -33 -10 -54 -10c-51 0 -79 29 -79 72s20 94 44 140v699h53v-700c-26 -48 -47 -86 -47 -131c0 -25 16 -37 40 -37z" />
    <glyph glyph-name="J" unicode="J" horiz-adv-x="533" 
d="M242 -11c-114 0 -215 69 -215 203v8h53v-8c0 -100 69 -152 162 -152c92 0 161 52 161 152v508h54v-508c0 -134 -101 -203 -215 -203z" />
    <glyph glyph-name="K" unicode="K" horiz-adv-x="572" 
d="M562 0h-71l-351 345v-345h-53v700h53v-325l341 325h71l-354 -340z" />
    <glyph glyph-name="Kcommaaccent" unicode="&#x136;" horiz-adv-x="572" 
d="M198 360l364 -360h-71l-351 345v-345h-53v700h53v-325l341 325h71zM276 -240l10 170h51l-25 -170h-36z" />
    <glyph glyph-name="L" unicode="L" horiz-adv-x="493" 
d="M140 50h330v-50h-383v700h53v-650z" />
    <glyph glyph-name="Lacute" unicode="&#x139;" horiz-adv-x="493" 
d="M227 897l-91 -127h-49l80 127h60zM140 50h330v-50h-383v700h53v-650z" />
    <glyph glyph-name="Lcaron" unicode="&#x13d;" horiz-adv-x="493" 
d="M140 50h330v-50h-383v700h53v-650zM323 700l-24 -170h-36l10 170h50z" />
    <glyph glyph-name="Lcommaaccent" unicode="&#x13b;" horiz-adv-x="493" 
d="M140 50h330v-50h-383v700h53v-650zM251 -240l10 170h51l-25 -170h-36z" />
    <glyph glyph-name="Lslash" unicode="&#x141;" horiz-adv-x="510" 
d="M157 50h330v-50h-384v254l-60 -40v49l60 39v398h54v-362l183 120v-49l-183 -120v-239z" />
    <glyph glyph-name="M" unicode="M" horiz-adv-x="807" 
d="M720 700v-700h-53v613l-237 -489h-53l-237 489v-613h-53v700h53h14l249 -515l250 515h67z" />
    <glyph glyph-name="N" unicode="N" horiz-adv-x="630" 
d="M490 700h53v-700h-46l-357 594v-594h-53v700h46l357 -594v594z" />
    <glyph glyph-name="Nacute" unicode="&#x143;" horiz-adv-x="630" 
d="M273 770h49l91 127h-60zM490 700h53v-700h-46l-357 594v-594h-53v700h46l357 -594v594z" />
    <glyph glyph-name="Ncaron" unicode="&#x147;" horiz-adv-x="630" 
d="M285 770l-108 127h57l81 -95l80 95h57l-108 -127h-59zM490 700h53v-700h-46l-357 594v-594h-53v700h46l357 -594v594z" />
    <glyph glyph-name="Ncommaaccent" unicode="&#x145;" horiz-adv-x="630" 
d="M490 700h53v-700h-46l-357 594v-594h-53v700h46l357 -594v594zM317 -240l25 170h-51l-10 -170h36z" />
    <glyph glyph-name="Eng" unicode="&#x14a;" horiz-adv-x="630" 
d="M490 700h53v-700c0 -152 -89 -200 -205 -200v51c94 0 152 31 152 149v11l-350 583v-594h-53v700h46l357 -594v594z" />
    <glyph glyph-name="Ntilde" unicode="&#xd1;" horiz-adv-x="630" 
d="M179 783c0 113 69 134 138 74c56 -48 90 -49 90 28h44c0 -112 -69 -134 -138 -74c-56 48 -90 50 -90 -28h-44zM490 700h53v-700h-46l-357 594v-594h-53v700h46l357 -594v594z" />
    <glyph glyph-name="O" unicode="O" horiz-adv-x="816" 
d="M408 -11c-202 0 -361 161 -361 361s159 361 361 361s361 -161 361 -361s-159 -361 -361 -361zM408 40c173 0 308 138 308 310s-135 310 -308 310s-308 -138 -308 -310s135 -310 308 -310z" />
    <glyph glyph-name="Oacute" unicode="&#xd3;" horiz-adv-x="816" 
d="M366 770h49l91 127h-60zM408 -11c-202 0 -361 161 -361 361s159 361 361 361s361 -161 361 -361s-159 -361 -361 -361zM408 40c173 0 308 138 308 310s-135 310 -308 310s-308 -138 -308 -310s135 -310 308 -310z" />
    <glyph glyph-name="Ocircumflex" unicode="&#xd4;" horiz-adv-x="816" 
d="M408 865l-81 -95h-57l108 127h57h2l108 -127h-57zM408 711c202 0 361 -161 361 -361s-159 -361 -361 -361s-361 161 -361 361s159 361 361 361zM408 40c173 0 308 138 308 310s-135 310 -308 310s-308 -138 -308 -310s135 -310 308 -310z" />
    <glyph glyph-name="Odieresis" unicode="&#xd6;" horiz-adv-x="816" 
d="M281 780v73h60v-73h-60zM474 780v73h60v-73h-60zM408 -11c-202 0 -361 161 -361 361s159 361 361 361s361 -161 361 -361s-159 -361 -361 -361zM408 40c173 0 308 138 308 310s-135 310 -308 310s-308 -138 -308 -310s135 -310 308 -310z" />
    <glyph glyph-name="Ograve" unicode="&#xd2;" horiz-adv-x="816" 
d="M443 770l-80 127h-60l92 -127h48zM408 -11c-202 0 -361 161 -361 361s159 361 361 361s361 -161 361 -361s-159 -361 -361 -361zM408 40c173 0 308 138 308 310s-135 310 -308 310s-308 -138 -308 -310s135 -310 308 -310z" />
    <glyph glyph-name="Ohungarumlaut" unicode="&#x150;" horiz-adv-x="816" 
d="M295 770h51l75 130h-56zM437 770h51l85 130h-56zM408 -11c-202 0 -361 161 -361 361s159 361 361 361s361 -161 361 -361s-159 -361 -361 -361zM408 40c173 0 308 138 308 310s-135 310 -308 310s-308 -138 -308 -310s135 -310 308 -310z" />
    <glyph glyph-name="Omacron" unicode="&#x14c;" horiz-adv-x="816" 
d="M281 787v44h253v-44h-253zM408 -11c-202 0 -361 161 -361 361s159 361 361 361s361 -161 361 -361s-159 -361 -361 -361zM408 40c173 0 308 138 308 310s-135 310 -308 310s-308 -138 -308 -310s135 -310 308 -310z" />
    <glyph glyph-name="Oslash" unicode="&#xd8;" horiz-adv-x="826" 
d="M668 612c69 -66 111 -159 111 -262c0 -200 -159 -361 -361 -361c-83 0 -158 27 -219 73l-52 -62h-54l75 88c-69 66 -111 159 -111 262c0 200 159 361 361 361c83 0 158 -27 219 -73l52 62h54zM110 350c0 -87 35 -166 92 -222l401 471c-51 38 -115 61 -185 61
c-173 0 -308 -138 -308 -310zM418 40c173 0 308 138 308 310c0 87 -35 166 -92 222l-401 -471c51 -38 115 -61 185 -61z" />
    <glyph glyph-name="Otilde" unicode="&#xd5;" horiz-adv-x="816" 
d="M272 783c0 113 69 134 138 74c56 -48 90 -49 90 28h44c0 -112 -69 -134 -138 -74c-56 48 -90 50 -90 -28h-44zM408 -11c-202 0 -361 161 -361 361s159 361 361 361s361 -161 361 -361s-159 -361 -361 -361zM408 40c173 0 308 138 308 310s-135 310 -308 310
s-308 -138 -308 -310s135 -310 308 -310z" />
    <glyph glyph-name="OE" unicode="&#x152;" horiz-adv-x="912" 
d="M545 50h324v-50h-354h-23c-28 -7 -59 -11 -94 -11c-206 0 -351 161 -351 361s145 361 351 361c35 0 66 -4 94 -11h53h319v-50h-319v-272h300v-50h-300v-278zM492 54v592c-28 9 -59 14 -94 14c-177 0 -298 -138 -298 -310s121 -310 298 -310c35 0 66 5 94 14z" />
    <glyph glyph-name="P" unicode="P" horiz-adv-x="577" 
d="M327 700c114 0 206 -93 206 -207c0 -113 -92 -206 -206 -206h-187v-287h-53v700h53h187zM327 337c84 0 153 70 153 156c0 87 -69 157 -153 157h-187v-313h187z" />
    <glyph glyph-name="Thorn" unicode="&#xde;" horiz-adv-x="577" 
d="M327 557c114 0 206 -93 206 -207c0 -113 -92 -207 -206 -207h-187v-143h-53v700h53v-143h187zM327 193c84 0 153 71 153 157c0 87 -69 157 -153 157h-187v-314h187z" />
    <glyph glyph-name="Q" unicode="Q" horiz-adv-x="821" 
d="M769 350c0 -102 -42 -194 -110 -260l91 -102l-38 -31l-90 102c-60 -44 -134 -70 -214 -70c-200 0 -361 161 -361 361s161 361 361 361s361 -161 361 -361zM408 40c67 0 129 21 180 58l-99 111l38 31l98 -111c56 57 91 135 91 221c0 172 -137 310 -308 310
s-308 -138 -308 -310s137 -310 308 -310z" />
    <glyph glyph-name="R" unicode="R" horiz-adv-x="627" 
d="M563 0l-252 287h-171v-287h-53v700h53h187c114 0 206 -93 206 -207c0 -97 -69 -180 -161 -201l258 -292h-67zM140 650v-313h187c84 0 153 70 153 156c0 87 -69 157 -153 157h-187z" />
    <glyph glyph-name="Racute" unicode="&#x154;" horiz-adv-x="627" 
d="M375 897l-91 -127h-49l80 127h60zM563 0l-252 287h-171v-287h-53v700h53h187c114 0 206 -93 206 -207c0 -97 -69 -180 -161 -201l258 -292h-67zM140 650v-313h187c84 0 153 70 153 156c0 87 -69 157 -153 157h-187z" />
    <glyph glyph-name="Rcaron" unicode="&#x158;" horiz-adv-x="627" 
d="M246 770l-108 127h57l81 -95l80 95h57l-108 -127h-59zM563 0l-252 287h-171v-287h-53v700h53h187c114 0 206 -93 206 -207c0 -97 -69 -180 -161 -201l258 -292h-67zM140 650v-313h187c84 0 153 70 153 156c0 87 -69 157 -153 157h-187z" />
    <glyph glyph-name="Rcommaaccent" unicode="&#x156;" horiz-adv-x="627" 
d="M372 292l258 -292h-67l-252 287h-171v-287h-53v700h53h187c114 0 206 -93 206 -207c0 -97 -69 -180 -161 -201zM140 650v-313h187c84 0 153 70 153 156c0 87 -69 157 -153 157h-187zM313 -240l10 170h51l-25 -170h-36z" />
    <glyph glyph-name="S" unicode="S" horiz-adv-x="550" 
d="M286 -11c-136 0 -243 74 -243 205h54c0 -97 75 -154 189 -154c97 0 167 54 167 133c0 88 -81 120 -170 153c-105 40 -220 74 -220 207c0 109 96 178 209 178c115 0 214 -72 214 -191h-53c0 85 -68 140 -161 140c-92 0 -156 -52 -156 -127c0 -91 81 -121 171 -155
c105 -41 220 -78 220 -205c0 -113 -102 -184 -221 -184z" />
    <glyph glyph-name="Sacute" unicode="&#x15a;" horiz-adv-x="550" 
d="M229 770h49l91 127h-60zM286 -11c-136 0 -243 74 -243 205h54c0 -97 75 -154 189 -154c97 0 167 54 167 133c0 88 -81 120 -170 153c-105 40 -220 74 -220 207c0 109 96 178 209 178c115 0 214 -72 214 -191h-53c0 85 -68 140 -161 140c-92 0 -156 -52 -156 -127
c0 -91 81 -121 171 -155c105 -41 220 -78 220 -205c0 -113 -102 -184 -221 -184z" />
    <glyph glyph-name="Scaron" unicode="&#x160;" horiz-adv-x="550" 
d="M241 770l-108 127h57l81 -95l80 95h57l-108 -127h-59zM287 378c105 -41 220 -78 220 -205c0 -113 -102 -184 -221 -184c-136 0 -243 74 -243 205h54c0 -97 75 -154 189 -154c97 0 167 54 167 133c0 88 -81 120 -170 153c-105 40 -220 74 -220 207c0 109 96 178 209 178
c115 0 214 -72 214 -191h-53c0 85 -68 140 -161 140c-92 0 -156 -52 -156 -127c0 -91 81 -121 171 -155z" />
    <glyph glyph-name="Scedilla" unicode="&#x15e;" horiz-adv-x="550" 
d="M507 173c0 -109 -94 -178 -206 -184v-45c51 -6 91 -32 91 -75c0 -49 -43 -92 -195 -80v41c101 -10 151 7 151 39c0 29 -33 43 -92 43v78c-121 10 -213 83 -213 204h54c0 -97 75 -154 189 -154c97 0 167 54 167 133c0 88 -81 120 -170 153c-105 40 -220 74 -220 207
c0 109 96 178 209 178c115 0 214 -72 214 -191h-53c0 85 -68 140 -161 140c-92 0 -156 -52 -156 -127c0 -91 81 -121 171 -155c105 -41 220 -78 220 -205z" />
    <glyph glyph-name="Scommaaccent" unicode="&#x218;" horiz-adv-x="550" 
d="M286 -11c-136 0 -243 74 -243 205h54c0 -97 75 -154 189 -154c97 0 167 54 167 133c0 88 -81 120 -170 153c-105 40 -220 74 -220 207c0 109 96 178 209 178c115 0 214 -72 214 -191h-53c0 85 -68 140 -161 140c-92 0 -156 -52 -156 -127c0 -91 81 -121 171 -155
c105 -41 220 -78 220 -205c0 -113 -102 -184 -221 -184zM291 -240l25 170h-51l-10 -170h36z" />
    <glyph glyph-name="T" unicode="T" horiz-adv-x="500" 
d="M477 700v-50h-200v-650h-54v650h-200v50h254h200z" />
    <glyph glyph-name="Tbar" unicode="&#x166;" horiz-adv-x="500" 
d="M477 650h-200v-276h153v-48h-153v-326h-54v326h-153v48h153v276h-200v50h254h200v-50z" />
    <glyph glyph-name="Tcaron" unicode="&#x164;" horiz-adv-x="500" 
d="M220 770l-108 127h57l81 -95l80 95h57l-108 -127h-59zM477 700v-50h-200v-650h-54v650h-200v50h254h200z" />
    <glyph glyph-name="uni0162" unicode="&#x162;" horiz-adv-x="500" 
d="M477 700v-50h-200v-650h-54v650h-200v50h454zM216 -240l10 170h51l-25 -170h-36z" />
    <glyph glyph-name="uni021A" unicode="&#x21a;" horiz-adv-x="500" 
d="M477 700v-50h-200v-650h-54v650h-200v50h454zM216 -240l10 170h51l-25 -170h-36z" />
    <glyph glyph-name="U" unicode="U" horiz-adv-x="623" 
d="M312 -11c-133 0 -235 76 -235 213v498h53v-498c0 -103 71 -162 182 -162c110 0 181 59 181 162v498h54v-498c0 -137 -103 -213 -235 -213z" />
    <glyph glyph-name="Uacute" unicode="&#xda;" horiz-adv-x="623" 
d="M268 770h49l91 127h-60zM312 -11c-133 0 -235 76 -235 213v498h53v-498c0 -103 71 -162 182 -162c110 0 181 59 181 162v498h54v-498c0 -137 -103 -213 -235 -213z" />
    <glyph glyph-name="Ucircumflex" unicode="&#xdb;" horiz-adv-x="623" 
d="M310 865l-81 -95h-57l108 127h57h2l108 -127h-57zM493 700h54v-498c0 -137 -103 -213 -235 -213c-133 0 -235 76 -235 213v498h53v-498c0 -103 71 -162 182 -162c110 0 181 59 181 162v498z" />
    <glyph glyph-name="Udieresis" unicode="&#xdc;" horiz-adv-x="623" 
d="M183 780v73h60v-73h-60zM376 780v73h60v-73h-60zM312 -11c-133 0 -235 76 -235 213v498h53v-498c0 -103 71 -162 182 -162c110 0 181 59 181 162v498h54v-498c0 -137 -103 -213 -235 -213z" />
    <glyph glyph-name="Ugrave" unicode="&#xd9;" horiz-adv-x="623" 
d="M345 770l-80 127h-60l92 -127h48zM312 -11c-133 0 -235 76 -235 213v498h53v-498c0 -103 71 -162 182 -162c110 0 181 59 181 162v498h54v-498c0 -137 -103 -213 -235 -213z" />
    <glyph glyph-name="Uhungarumlaut" unicode="&#x170;" horiz-adv-x="623" 
d="M197 770h51l75 130h-56zM339 770h51l85 130h-56zM312 -11c-133 0 -235 76 -235 213v498h53v-498c0 -103 71 -162 182 -162c110 0 181 59 181 162v498h54v-498c0 -137 -103 -213 -235 -213z" />
    <glyph glyph-name="Umacron" unicode="&#x16a;" horiz-adv-x="623" 
d="M183 787v44h253v-44h-253zM312 -11c-133 0 -235 76 -235 213v498h53v-498c0 -103 71 -162 182 -162c110 0 181 59 181 162v498h54v-498c0 -137 -103 -213 -235 -213z" />
    <glyph glyph-name="Uogonek" unicode="&#x172;" horiz-adv-x="623" 
d="M493 700h54v-498c0 -70 -27 -124 -71 -160c-94 -85 -129 -125 -129 -173c0 -25 16 -37 41 -37c16 0 29 3 43 9v-42c-16 -7 -33 -10 -54 -10c-51 0 -79 29 -79 72c0 39 23 85 73 133c-19 -4 -39 -5 -59 -5c-133 0 -235 76 -235 213v498h53v-498c0 -103 71 -162 182 -162
c110 0 181 59 181 162v498z" />
    <glyph glyph-name="Uring" unicode="&#x16e;" horiz-adv-x="623" 
d="M310 753c-61 0 -102 42 -102 97s41 97 102 97c62 0 103 -42 103 -97s-41 -97 -103 -97zM310 793c38 0 61 24 61 57s-23 57 -61 57c-37 0 -59 -24 -59 -57s22 -57 59 -57zM312 -11c-133 0 -235 76 -235 213v498h53v-498c0 -103 71 -162 182 -162c110 0 181 59 181 162v498
h54v-498c0 -137 -103 -213 -235 -213z" />
    <glyph glyph-name="V" unicode="V" horiz-adv-x="605" 
d="M274 0l-261 700h57l232 -635l233 635h56l-261 -700h-56z" />
    <glyph glyph-name="W" unicode="W" horiz-adv-x="860" 
d="M791 700h52l-221 -700h-70l-122 384l-122 -384h-70l-221 700h52l204 -645l131 411l-74 234h52l205 -645z" />
    <glyph glyph-name="Wacute" unicode="&#x1e82;" horiz-adv-x="860" 
d="M529 897l-91 -127h-49l80 127h60zM791 700h52l-221 -700h-70l-122 384l-122 -384h-70l-221 700h52l204 -645l131 411l-74 234h52l205 -645z" />
    <glyph glyph-name="Wcircumflex" unicode="&#x174;" horiz-adv-x="860" 
d="M430 865l-81 -95h-57l108 127h57h2l108 -127h-57zM791 700h52l-221 -700h-70l-122 384l-122 -384h-70l-221 700h52l204 -645l131 411l-74 234h52l205 -645z" />
    <glyph glyph-name="Wdieresis" unicode="&#x1e84;" horiz-adv-x="860" 
d="M364 853v-73h-60v73h60zM557 853v-73h-60v73h60zM791 700h52l-221 -700h-70l-122 384l-122 -384h-70l-221 700h52l204 -645l131 411l-74 234h52l205 -645z" />
    <glyph glyph-name="Wgrave" unicode="&#x1e80;" horiz-adv-x="860" 
d="M465 770h-48l-92 127h60zM791 700h52l-221 -700h-70l-122 384l-122 -384h-70l-221 700h52l204 -645l131 411l-74 234h52l205 -645z" />
    <glyph glyph-name="X" unicode="X" horiz-adv-x="567" 
d="M543 0h-58l-202 314l-201 -314h-59l231 360l-218 340h59l188 -294l189 294h58l-217 -340z" />
    <glyph glyph-name="Y" unicode="Y" horiz-adv-x="570" 
d="M557 700l-246 -373v-327h-53v328l-245 372h60l212 -322l212 322h60z" />
    <glyph glyph-name="Yacute" unicode="&#xdd;" horiz-adv-x="570" 
d="M381 897l-91 -127h-49l80 127h60zM557 700l-246 -373v-327h-53v328l-245 372h60l212 -322l212 322h60z" />
    <glyph glyph-name="Ycircumflex" unicode="&#x176;" horiz-adv-x="570" 
d="M282 865l-81 -95h-57l108 127h57h2l108 -127h-57zM557 700l-246 -373v-327h-53v328l-245 372h60l212 -322l212 322h60z" />
    <glyph glyph-name="Ydieresis" unicode="&#x178;" horiz-adv-x="570" 
d="M216 853v-73h-60v73h60zM409 853v-73h-60v73h60zM557 700l-246 -373v-327h-53v328l-245 372h60l212 -322l212 322h60z" />
    <glyph glyph-name="Ygrave" unicode="&#x1ef2;" horiz-adv-x="570" 
d="M317 770h-48l-92 127h60zM557 700l-246 -373v-327h-53v328l-245 372h60l212 -322l212 322h60z" />
    <glyph glyph-name="Z" unicode="Z" horiz-adv-x="517" 
d="M102 50h381v-50h-440v50l372 600h-362v50h420v-50z" />
    <glyph glyph-name="Zacute" unicode="&#x179;" horiz-adv-x="517" 
d="M362 897l-91 -127h-49l80 127h60zM102 50h381v-50h-440v50l372 600h-362v50h420v-50z" />
    <glyph glyph-name="Zcaron" unicode="&#x17d;" horiz-adv-x="517" 
d="M233 770l-108 127h57l81 -95l80 95h57l-108 -127h-59zM102 50h381v-50h-440v50l372 600h-362v50h420v-50z" />
    <glyph glyph-name="Zdotaccent" unicode="&#x17b;" horiz-adv-x="517" 
d="M297 863v-83h-67v83h67zM102 50h381v-50h-440v50l372 600h-362v50h420v-50z" />
    <glyph glyph-name="a" unicode="a" horiz-adv-x="499" 
d="M250 511c106 0 185 -67 185 -183v-328h-51v60c-32 -51 -92 -71 -160 -71c-93 0 -179 53 -179 157c0 105 86 158 179 158c68 0 128 -24 160 -70v94c0 94 -62 135 -134 135c-73 0 -134 -39 -134 -115h-51c0 95 75 163 185 163zM235 36c83 0 149 39 149 110
c0 74 -68 111 -149 111c-92 0 -139 -46 -139 -111c0 -64 47 -110 139 -110z" />
    <glyph glyph-name="aacute" unicode="&#xe1;" horiz-adv-x="499" 
d="M350 697l-91 -127h-49l80 127h60zM250 511c106 0 185 -67 185 -183v-328h-51v60c-32 -51 -92 -71 -160 -71c-93 0 -179 53 -179 157c0 105 86 158 179 158c68 0 128 -24 160 -70v94c0 94 -62 135 -134 135c-73 0 -134 -39 -134 -115h-51c0 95 75 163 185 163zM235 36
c83 0 149 39 149 110c0 74 -68 111 -149 111c-92 0 -139 -46 -139 -111c0 -64 47 -110 139 -110z" />
    <glyph glyph-name="abreve" unicode="&#x103;" horiz-adv-x="499" 
d="M251 565c-80 0 -133 46 -133 122h48c0 -52 32 -78 85 -78s85 26 85 78h48c0 -76 -52 -122 -133 -122zM250 511c106 0 185 -67 185 -183v-328h-51v60c-32 -51 -92 -71 -160 -71c-93 0 -179 53 -179 157c0 105 86 158 179 158c68 0 128 -24 160 -70v94
c0 94 -62 135 -134 135c-73 0 -134 -39 -134 -115h-51c0 95 75 163 185 163zM235 36c83 0 149 39 149 110c0 74 -68 111 -149 111c-92 0 -139 -46 -139 -111c0 -64 47 -110 139 -110z" />
    <glyph glyph-name="acircumflex" unicode="&#xe2;" horiz-adv-x="499" 
d="M251 665l-81 -95h-57l108 127h57h2l108 -127h-57zM250 511c106 0 185 -67 185 -183v-328h-51v60c-32 -51 -92 -71 -160 -71c-93 0 -179 53 -179 157c0 105 86 158 179 158c68 0 128 -24 160 -70v94c0 94 -62 135 -134 135c-73 0 -134 -39 -134 -115h-51
c0 95 75 163 185 163zM235 36c83 0 149 39 149 110c0 74 -68 111 -149 111c-92 0 -139 -46 -139 -111c0 -64 47 -110 139 -110z" />
    <glyph glyph-name="adieresis" unicode="&#xe4;" horiz-adv-x="499" 
d="M185 653v-73h-60v73h60zM378 653v-73h-60v73h60zM250 511c106 0 185 -67 185 -183v-328h-51v60c-32 -51 -92 -71 -160 -71c-93 0 -179 53 -179 157c0 105 86 158 179 158c68 0 128 -24 160 -70v94c0 94 -62 135 -134 135c-73 0 -134 -39 -134 -115h-51
c0 95 75 163 185 163zM235 36c83 0 149 39 149 110c0 74 -68 111 -149 111c-92 0 -139 -46 -139 -111c0 -64 47 -110 139 -110z" />
    <glyph glyph-name="agrave" unicode="&#xe0;" horiz-adv-x="499" 
d="M286 570h-48l-92 127h60zM250 511c106 0 185 -67 185 -183v-328h-51v60c-32 -51 -92 -71 -160 -71c-93 0 -179 53 -179 157c0 105 86 158 179 158c68 0 128 -24 160 -70v94c0 94 -62 135 -134 135c-73 0 -134 -39 -134 -115h-51c0 95 75 163 185 163zM235 36
c83 0 149 39 149 110c0 74 -68 111 -149 111c-92 0 -139 -46 -139 -111c0 -64 47 -110 139 -110z" />
    <glyph glyph-name="amacron" unicode="&#x101;" horiz-adv-x="499" 
d="M378 631v-44h-253v44h253zM250 511c106 0 185 -67 185 -183v-328h-51v60c-32 -51 -92 -71 -160 -71c-93 0 -179 53 -179 157c0 105 86 158 179 158c68 0 128 -24 160 -70v94c0 94 -62 135 -134 135c-73 0 -134 -39 -134 -115h-51c0 95 75 163 185 163zM235 36
c83 0 149 39 149 110c0 74 -68 111 -149 111c-92 0 -139 -46 -139 -111c0 -64 47 -110 139 -110z" />
    <glyph glyph-name="aogonek" unicode="&#x105;" horiz-adv-x="499" 
d="M435 0c-51 -46 -83 -93 -83 -131c0 -25 16 -37 40 -37c16 0 29 3 43 9v-42c-16 -7 -33 -10 -54 -10c-50 0 -78 29 -78 72c0 40 24 92 81 149v50c-32 -51 -92 -71 -160 -71c-93 0 -179 53 -179 157c0 105 86 158 179 158c68 0 128 -24 160 -70v94c0 94 -62 135 -134 135
c-73 0 -134 -39 -134 -115h-51c0 95 75 163 185 163c106 0 185 -67 185 -183v-328zM235 36c83 0 149 39 149 110c0 74 -68 111 -149 111c-92 0 -139 -46 -139 -111c0 -64 47 -110 139 -110z" />
    <glyph glyph-name="aring" unicode="&#xe5;" horiz-adv-x="499" 
d="M251 553c-61 0 -102 42 -102 97s41 97 102 97c62 0 103 -42 103 -97s-41 -97 -103 -97zM251 707c-37 0 -59 -24 -59 -57s22 -57 59 -57c38 0 61 24 61 57s-23 57 -61 57zM250 511c106 0 185 -67 185 -183v-328h-51v60c-32 -51 -92 -71 -160 -71c-93 0 -179 53 -179 157
c0 105 86 158 179 158c68 0 128 -24 160 -70v94c0 94 -62 135 -134 135c-73 0 -134 -39 -134 -115h-51c0 95 75 163 185 163zM235 36c83 0 149 39 149 110c0 74 -68 111 -149 111c-92 0 -139 -46 -139 -111c0 -64 47 -110 139 -110z" />
    <glyph glyph-name="atilde" unicode="&#xe3;" horiz-adv-x="499" 
d="M249 611c-56 48 -90 50 -90 -28h-44c0 113 69 134 138 74c56 -48 90 -49 90 28h44c0 -112 -69 -134 -138 -74zM250 511c106 0 185 -67 185 -183v-328h-51v60c-32 -51 -92 -71 -160 -71c-93 0 -179 53 -179 157c0 105 86 158 179 158c68 0 128 -24 160 -70v94
c0 94 -62 135 -134 135c-73 0 -134 -39 -134 -115h-51c0 95 75 163 185 163zM235 36c83 0 149 39 149 110c0 74 -68 111 -149 111c-92 0 -139 -46 -139 -111c0 -64 47 -110 139 -110z" />
    <glyph glyph-name="ae" unicode="&#xe6;" horiz-adv-x="845" 
d="M603 511c140 0 208 -126 208 -263c0 -8 0 -16 -1 -24h-50h-325c8 -114 67 -187 169 -187c71 0 120 40 135 97h55c-19 -87 -91 -145 -190 -145c-89 0 -151 43 -184 113c-23 -73 -96 -113 -184 -113c-104 0 -191 53 -191 157c0 105 86 158 179 158c68 0 128 -24 160 -63v87
c0 94 -62 135 -134 135c-73 0 -134 -39 -134 -115h-51c0 95 75 163 182 163c82 0 149 -40 174 -113c34 69 95 113 182 113zM435 273h326c-6 121 -70 190 -157 190c-107 0 -163 -79 -169 -190zM239 36c88 0 145 46 145 110c0 74 -68 111 -149 111c-92 0 -139 -46 -139 -111
c0 -64 51 -110 143 -110z" />
    <glyph glyph-name="b" unicode="b" horiz-adv-x="645" 
d="M342 511c143 0 259 -113 259 -261s-116 -261 -259 -261c-96 0 -173 50 -215 126v-115h-50v700h50v-315c42 76 119 126 215 126zM339 37c119 0 212 94 212 213s-93 213 -212 213s-212 -94 -212 -213s93 -213 212 -213z" />
    <glyph glyph-name="c" unicode="c" horiz-adv-x="576" 
d="M542 153c-28 -98 -123 -164 -236 -164c-151 0 -263 113 -263 261s112 261 263 261c113 0 207 -66 236 -164h-53c-27 69 -98 116 -183 116c-121 0 -212 -94 -212 -213s91 -213 212 -213c85 0 156 47 183 116h53z" />
    <glyph glyph-name="cacute" unicode="&#x107;" horiz-adv-x="576" 
d="M257 570h49l91 127h-60zM542 153c-28 -98 -123 -164 -236 -164c-151 0 -263 113 -263 261s112 261 263 261c113 0 207 -66 236 -164h-53c-27 69 -98 116 -183 116c-121 0 -212 -94 -212 -213s91 -213 212 -213c85 0 156 47 183 116h53z" />
    <glyph glyph-name="ccaron" unicode="&#x10d;" horiz-adv-x="576" 
d="M268 570l-108 127h57l81 -95l80 95h57l-108 -127h-59zM306 37c85 0 156 47 183 116h53c-28 -98 -123 -164 -236 -164c-151 0 -263 113 -263 261s112 261 263 261c113 0 207 -66 236 -164h-53c-27 69 -98 116 -183 116c-121 0 -212 -94 -212 -213s91 -213 212 -213z" />
    <glyph glyph-name="ccedilla" unicode="&#xe7;" horiz-adv-x="576" 
d="M306 37c85 0 156 47 183 116h53c-26 -91 -111 -155 -214 -163v-46c51 -6 91 -32 91 -75c0 -49 -43 -92 -195 -80v41c101 -10 151 7 151 39c0 29 -33 43 -92 43v78c-139 10 -240 120 -240 260c0 148 112 261 263 261c113 0 207 -66 236 -164h-53c-27 69 -98 116 -183 116
c-121 0 -212 -94 -212 -213s91 -213 212 -213z" />
    <glyph glyph-name="cdotaccent" unicode="&#x10b;" horiz-adv-x="576" 
d="M265 580v83h67v-83h-67zM542 153c-28 -98 -123 -164 -236 -164c-151 0 -263 113 -263 261s112 261 263 261c113 0 207 -66 236 -164h-53c-27 69 -98 116 -183 116c-121 0 -212 -94 -212 -213s91 -213 212 -213c85 0 156 47 183 116h53z" />
    <glyph glyph-name="d" unicode="d" horiz-adv-x="645" 
d="M518 700h50v-700h-50v116c-41 -77 -118 -127 -215 -127c-143 0 -259 113 -259 261s116 261 259 261c97 0 174 -50 215 -127v316zM306 37c119 0 212 94 212 213s-93 213 -212 213s-212 -94 -212 -213s93 -213 212 -213z" />
    <glyph glyph-name="eth" unicode="&#xf0;" horiz-adv-x="587" 
d="M498 370c28 -38 46 -85 46 -140c0 -148 -118 -241 -250 -241s-251 93 -251 241c0 142 117 235 243 235c39 0 71 -8 99 -23l-102 138l-120 -73v46l96 59l-66 88h59l47 -63l111 68v-46l-87 -54zM294 37c109 0 199 77 199 193c0 43 -10 81 -33 112c-34 45 -85 75 -166 75
c-113 0 -200 -77 -200 -187c0 -116 91 -193 200 -193z" />
    <glyph glyph-name="dcaron" unicode="&#x10f;" horiz-adv-x="697" 
d="M518 384v316h50v-700h-50v116c-41 -77 -118 -127 -215 -127c-143 0 -259 113 -259 261s116 261 259 261c97 0 174 -50 215 -127zM653 700h50l-24 -170h-36zM306 37c119 0 212 94 212 213s-93 213 -212 213s-212 -94 -212 -213s93 -213 212 -213z" />
    <glyph glyph-name="dcroat" unicode="&#x111;" horiz-adv-x="653" 
d="M636 624v-42h-68v-582h-51v115c-41 -76 -118 -126 -215 -126c-142 0 -259 113 -259 261s117 261 259 261c97 0 174 -50 215 -126v197h-201v42h201v76h51v-76h68zM306 37c119 0 211 94 211 213s-92 213 -211 213s-212 -94 -212 -213s93 -213 212 -213z" />
    <glyph glyph-name="e" unicode="e" horiz-adv-x="572" 
d="M297 511c152 0 242 -126 242 -263c0 -8 -1 -16 -1 -24h-50h-393c11 -114 93 -187 204 -187c81 0 143 41 167 97h55c-28 -86 -113 -145 -223 -145c-151 0 -255 110 -255 261c0 147 101 261 254 261zM297 463c-114 0 -193 -79 -202 -190h392c-10 121 -93 190 -190 190z" />
    <glyph glyph-name="eacute" unicode="&#xe9;" horiz-adv-x="572" 
d="M394 697l-91 -127h-49l80 127h60zM297 511c152 0 242 -126 242 -263c0 -8 -1 -16 -1 -24h-50h-393c11 -114 93 -187 204 -187c81 0 143 41 167 97h55c-28 -86 -113 -145 -223 -145c-151 0 -255 110 -255 261c0 147 101 261 254 261zM297 463c-114 0 -193 -79 -202 -190
h392c-10 121 -93 190 -190 190z" />
    <glyph glyph-name="ecaron" unicode="&#x11b;" horiz-adv-x="572" 
d="M265 570l-108 127h57l81 -95l80 95h57l-108 -127h-59zM297 511c152 0 242 -126 242 -263c0 -8 -1 -16 -1 -24h-50h-393c11 -114 93 -187 204 -187c81 0 143 41 167 97h55c-28 -86 -113 -145 -223 -145c-151 0 -255 110 -255 261c0 147 101 261 254 261zM297 463
c-114 0 -193 -79 -202 -190h392c-10 121 -93 190 -190 190z" />
    <glyph glyph-name="ecircumflex" unicode="&#xea;" horiz-adv-x="572" 
d="M295 665l-81 -95h-57l108 127h57h2l108 -127h-57zM297 511c152 0 242 -126 242 -263c0 -8 -1 -16 -1 -24h-50h-393c11 -114 93 -187 204 -187c81 0 143 41 167 97h55c-28 -86 -113 -145 -223 -145c-151 0 -255 110 -255 261c0 147 101 261 254 261zM297 463
c-114 0 -193 -79 -202 -190h392c-10 121 -93 190 -190 190z" />
    <glyph glyph-name="edieresis" unicode="&#xeb;" horiz-adv-x="572" 
d="M229 653v-73h-60v73h60zM422 653v-73h-60v73h60zM297 511c152 0 242 -126 242 -263c0 -8 -1 -16 -1 -24h-50h-393c11 -114 93 -187 204 -187c81 0 143 41 167 97h55c-28 -86 -113 -145 -223 -145c-151 0 -255 110 -255 261c0 147 101 261 254 261zM297 463
c-114 0 -193 -79 -202 -190h392c-10 121 -93 190 -190 190z" />
    <glyph glyph-name="edotaccent" unicode="&#x117;" horiz-adv-x="572" 
d="M329 663v-83h-67v83h67zM297 511c152 0 242 -126 242 -263c0 -8 -1 -16 -1 -24h-50h-393c11 -114 93 -187 204 -187c81 0 143 41 167 97h55c-28 -86 -113 -145 -223 -145c-151 0 -255 110 -255 261c0 147 101 261 254 261zM297 463c-114 0 -193 -79 -202 -190h392
c-10 121 -93 190 -190 190z" />
    <glyph glyph-name="egrave" unicode="&#xe8;" horiz-adv-x="572" 
d="M330 570h-48l-92 127h60zM297 511c152 0 242 -126 242 -263c0 -8 -1 -16 -1 -24h-50h-393c11 -114 93 -187 204 -187c81 0 143 41 167 97h55c-28 -86 -113 -145 -223 -145c-151 0 -255 110 -255 261c0 147 101 261 254 261zM297 463c-114 0 -193 -79 -202 -190h392
c-10 121 -93 190 -190 190z" />
    <glyph glyph-name="emacron" unicode="&#x113;" horiz-adv-x="572" 
d="M422 631v-44h-253v44h253zM297 511c152 0 242 -126 242 -263c0 -8 -1 -16 -1 -24h-50h-393c11 -114 93 -187 204 -187c81 0 143 41 167 97h55c-28 -86 -113 -145 -223 -145c-151 0 -255 110 -255 261c0 147 101 261 254 261zM297 463c-114 0 -193 -79 -202 -190h392
c-10 121 -93 190 -190 190z" />
    <glyph glyph-name="eogonek" unicode="&#x119;" horiz-adv-x="572" 
d="M297 511c152 0 242 -126 242 -263c0 -8 -1 -16 -1 -24h-50h-393c11 -114 93 -187 204 -187c81 0 143 41 167 97h55c-12 -37 -34 -69 -65 -93c-81 -90 -110 -137 -110 -172c0 -25 16 -37 41 -37c16 0 29 3 43 9v-42c-16 -7 -34 -10 -55 -10c-50 0 -78 29 -78 72
c0 35 21 83 72 137c-22 -6 -46 -9 -71 -9c-151 0 -255 110 -255 261c0 147 101 261 254 261zM297 463c-114 0 -193 -79 -202 -190h392c-10 121 -93 190 -190 190z" />
    <glyph glyph-name="f" unicode="f" horiz-adv-x="306" 
d="M306 663c-102 8 -149 -39 -149 -136v-27h149v-49h-149v-451h-50v451h-87v49h87v27c0 123 68 194 199 184v-48z" />
    <glyph glyph-name="g" unicode="g" horiz-adv-x="648" 
d="M521 500h50v-476c0 -150 -108 -235 -249 -235c-128 0 -238 83 -238 182h51c0 -59 71 -134 187 -134c129 0 199 73 199 187v91c-42 -76 -119 -126 -215 -126c-143 0 -259 113 -259 261s116 261 259 261c96 0 173 -50 215 -126v115zM309 37c119 0 212 94 212 213
s-93 213 -212 213s-212 -94 -212 -213s93 -213 212 -213z" />
    <glyph glyph-name="gbreve" unicode="&#x11f;" horiz-adv-x="648" 
d="M314 565c-80 0 -133 46 -133 122h48c0 -52 32 -78 85 -78s85 26 85 78h48c0 -76 -52 -122 -133 -122zM521 500h50v-476c0 -150 -108 -235 -249 -235c-128 0 -238 83 -238 182h51c0 -59 71 -134 187 -134c129 0 199 73 199 187v91c-42 -76 -119 -126 -215 -126
c-143 0 -259 113 -259 261s116 261 259 261c96 0 173 -50 215 -126v115zM309 37c119 0 212 94 212 213s-93 213 -212 213s-212 -94 -212 -213s93 -213 212 -213z" />
    <glyph glyph-name="gcommaaccent" unicode="&#x123;" horiz-adv-x="648" 
d="M343 760l-10 -170h-51l25 170h36zM521 500h50v-476c0 -150 -108 -235 -249 -235c-128 0 -238 83 -238 182h51c0 -59 71 -134 187 -134c129 0 199 73 199 187v91c-42 -76 -119 -126 -215 -126c-143 0 -259 113 -259 261s116 261 259 261c96 0 173 -50 215 -126v115z
M309 37c119 0 212 94 212 213s-93 213 -212 213s-212 -94 -212 -213s93 -213 212 -213z" />
    <glyph glyph-name="gdotaccent" unicode="&#x121;" horiz-adv-x="648" 
d="M348 663v-83h-67v83h67zM521 500h50v-476c0 -150 -108 -235 -249 -235c-128 0 -238 83 -238 182h51c0 -59 71 -134 187 -134c129 0 199 73 199 187v91c-42 -76 -119 -126 -215 -126c-143 0 -259 113 -259 261s116 261 259 261c96 0 173 -50 215 -126v115zM309 37
c119 0 212 94 212 213s-93 213 -212 213s-212 -94 -212 -213s93 -213 212 -213z" />
    <glyph glyph-name="h" unicode="h" 
d="M292 511c93 0 168 -66 168 -181v-330h-51v330c0 86 -52 133 -125 133c-78 0 -157 -53 -157 -181v-282h-50v700h50v-282c39 70 101 93 165 93z" />
    <glyph glyph-name="hbar" unicode="&#x127;" horiz-adv-x="537" 
d="M305 511c93 0 168 -66 168 -181v-330h-50v330c0 86 -53 133 -126 133c-78 0 -156 -53 -156 -181v-282h-51v582h-73v42h73v76h51v-76h156v-42h-156v-164c38 69 100 93 164 93z" />
    <glyph glyph-name="i" unicode="i" horiz-adv-x="204" 
d="M77 600v100h50v-100h-50zM77 0v500h50v-500h-50z" />
    <glyph glyph-name="dotlessi" unicode="&#x131;" horiz-adv-x="204" 
d="M77 0v500h50v-500h-50z" />
    <glyph glyph-name="iacute" unicode="&#xed;" horiz-adv-x="204" 
d="M75 570h49l67 127h-61zM77 0v500h50v-500h-50z" />
    <glyph glyph-name="icircumflex" unicode="&#xee;" horiz-adv-x="204" 
d="M132 697l84 -127h-57l-57 86l-57 -86h-57l84 127h57h3zM77 0v500h50v-500h-50z" />
    <glyph glyph-name="idieresis" unicode="&#xef;" horiz-adv-x="204" 
d="M5 580v73h60v-73h-60zM139 580v73h60v-73h-60zM77 0v500h50v-500h-50z" />
    <glyph glyph-name="i.loclTRK" horiz-adv-x="204" 
d="M69 580v83h67v-83h-67zM77 0v500h50v-500h-50z" />
    <glyph glyph-name="igrave" unicode="&#xec;" horiz-adv-x="204" 
d="M128 570l-55 127h-60l66 -127h49zM127 0h-50v500h50v-500z" />
    <glyph glyph-name="imacron" unicode="&#x12b;" horiz-adv-x="204" 
d="M9 587v44h186v-44h-186zM77 0v500h50v-500h-50z" />
    <glyph glyph-name="iogonek" unicode="&#x12f;" horiz-adv-x="204" 
d="M127 700v-100h-50v100h50zM123 -168c17 0 29 3 43 9v-42c-15 -7 -33 -10 -54 -10c-51 0 -79 37 -79 80c0 37 11 75 44 136v495h50v-500c-28 -48 -44 -85 -44 -123c0 -25 16 -45 40 -45z" />
    <glyph glyph-name="j" unicode="j" horiz-adv-x="226" 
d="M96 700h50v-100h-50v100zM96 -57v557h50v-557c0 -106 -58 -164 -166 -154v48c79 -8 116 26 116 106z" />
    <glyph glyph-name="k" unicode="k" horiz-adv-x="483" 
d="M460 0h-68l-265 245v-245h-50v700h50v-426l255 226h68l-270 -240z" />
    <glyph glyph-name="kcommaaccent" unicode="&#x137;" horiz-adv-x="483" 
d="M180 260l280 -260h-68l-265 245v-245h-50v700h50v-426l255 226h68zM228 -240l10 170h51l-25 -170h-36z" />
    <glyph glyph-name="l" unicode="l" horiz-adv-x="204" 
d="M77 0v720h50v-720h-50z" />
    <glyph glyph-name="lacute" unicode="&#x13a;" horiz-adv-x="204" 
d="M77 770h49l91 127h-60zM77 0v720h50v-720h-50z" />
    <glyph glyph-name="lcaron" unicode="&#x13e;" horiz-adv-x="257" 
d="M77 0v720h50v-720h-50zM239 550l24 170h-50l-10 -170h36z" />
    <glyph glyph-name="lcommaaccent" unicode="&#x13c;" horiz-adv-x="204" 
d="M77 0v720h50v-720h-50zM104 -240l25 170h-51l-10 -170h36z" />
    <glyph glyph-name="lslash" unicode="&#x142;" horiz-adv-x="240" 
d="M220 453v-49l-75 -51v-353h-50v319l-75 -52v49l75 52v352h50v-318z" />
    <glyph glyph-name="m" unicode="m" horiz-adv-x="777" 
d="M558 511c84 0 155 -56 155 -171v-340h-50v340c0 86 -49 123 -110 123c-59 0 -133 -43 -133 -161v-302h-50v340c0 86 -49 123 -110 123c-59 0 -133 -43 -133 -161v-302h-50v500h50v-70c37 62 91 81 141 81c60 0 115 -30 139 -93c36 71 95 93 151 93z" />
    <glyph glyph-name="n" unicode="n" 
d="M292 511c93 0 168 -66 168 -181v-330h-51v330c0 86 -52 133 -125 133c-78 0 -157 -53 -157 -181v-282h-50v500h50v-82c39 70 101 93 165 93z" />
    <glyph glyph-name="nacute" unicode="&#x144;" 
d="M367 697l-91 -127h-49l80 127h60zM292 511c93 0 168 -66 168 -181v-330h-51v330c0 86 -52 133 -125 133c-78 0 -157 -53 -157 -181v-282h-50v500h50v-82c39 70 101 93 165 93z" />
    <glyph glyph-name="ncaron" unicode="&#x148;" 
d="M238 570l-108 127h57l81 -95l80 95h57l-108 -127h-59zM292 511c93 0 168 -66 168 -181v-330h-51v330c0 86 -52 133 -125 133c-78 0 -157 -53 -157 -181v-282h-50v500h50v-82c39 70 101 93 165 93z" />
    <glyph glyph-name="ncommaaccent" unicode="&#x146;" 
d="M292 511c93 0 168 -66 168 -181v-330h-51v330c0 86 -52 133 -125 133c-78 0 -157 -53 -157 -181v-282h-50v500h50v-82c39 70 101 93 165 93zM237 -240l10 170h51l-25 -170h-36z" />
    <glyph glyph-name="eng" unicode="&#x14b;" 
d="M292 511c93 0 168 -66 168 -181v-387c0 -106 -58 -164 -166 -154v48c79 -8 115 26 115 106v387c0 86 -52 133 -125 133c-78 0 -157 -53 -157 -181v-282h-50v500h50v-82c39 69 101 93 165 93z" />
    <glyph glyph-name="ntilde" unicode="&#xf1;" 
d="M266 611c-56 48 -90 50 -90 -28h-44c0 113 69 134 138 74c56 -48 90 -49 90 28h44c0 -112 -69 -134 -138 -74zM292 511c93 0 168 -66 168 -181v-330h-51v330c0 86 -52 133 -125 133c-78 0 -157 -53 -157 -181v-282h-50v500h50v-82c39 70 101 93 165 93z" />
    <glyph glyph-name="o" unicode="o" horiz-adv-x="611" 
d="M306 -11c-146 0 -263 113 -263 261s117 261 263 261c145 0 262 -113 262 -261s-117 -261 -262 -261zM306 37c119 0 211 94 211 213s-92 213 -211 213s-212 -94 -212 -213s93 -213 212 -213z" />
    <glyph glyph-name="oacute" unicode="&#xf3;" horiz-adv-x="611" 
d="M261 570h49l91 127h-60zM306 -11c-146 0 -263 113 -263 261s117 261 263 261c145 0 262 -113 262 -261s-117 -261 -262 -261zM306 37c119 0 211 94 211 213s-92 213 -211 213s-212 -94 -212 -213s93 -213 212 -213z" />
    <glyph glyph-name="ocircumflex" unicode="&#xf4;" horiz-adv-x="611" 
d="M303 665l-81 -95h-57l108 127h57h2l108 -127h-57zM306 511c145 0 262 -113 262 -261s-117 -261 -262 -261c-146 0 -263 113 -263 261s117 261 263 261zM306 37c119 0 211 94 211 213s-92 213 -211 213s-212 -94 -212 -213s93 -213 212 -213z" />
    <glyph glyph-name="odieresis" unicode="&#xf6;" horiz-adv-x="611" 
d="M176 580v73h60v-73h-60zM369 580v73h60v-73h-60zM306 -11c-146 0 -263 113 -263 261s117 261 263 261c145 0 262 -113 262 -261s-117 -261 -262 -261zM306 37c119 0 211 94 211 213s-92 213 -211 213s-212 -94 -212 -213s93 -213 212 -213z" />
    <glyph glyph-name="ograve" unicode="&#xf2;" horiz-adv-x="611" 
d="M338 570l-80 127h-60l92 -127h48zM306 -11c-146 0 -263 113 -263 261s117 261 263 261c145 0 262 -113 262 -261s-117 -261 -262 -261zM306 37c119 0 211 94 211 213s-92 213 -211 213s-212 -94 -212 -213s93 -213 212 -213z" />
    <glyph glyph-name="ohungarumlaut" unicode="&#x151;" horiz-adv-x="611" 
d="M190 570h51l75 130h-56zM332 570h51l85 130h-56zM306 -11c-146 0 -263 113 -263 261s117 261 263 261c145 0 262 -113 262 -261s-117 -261 -262 -261zM306 37c119 0 211 94 211 213s-92 213 -211 213s-212 -94 -212 -213s93 -213 212 -213z" />
    <glyph glyph-name="omacron" unicode="&#x14d;" horiz-adv-x="611" 
d="M176 587v44h253v-44h-253zM306 -11c-146 0 -263 113 -263 261s117 261 263 261c145 0 262 -113 262 -261s-117 -261 -262 -261zM306 37c119 0 211 94 211 213s-92 213 -211 213s-212 -94 -212 -213s93 -213 212 -213z" />
    <glyph glyph-name="oslash" unicode="&#xf8;" horiz-adv-x="611" 
d="M492 436c47 -47 76 -112 76 -186c0 -148 -117 -261 -262 -261c-60 0 -115 19 -159 52l-36 -41h-47l56 64c-48 47 -77 112 -77 186c0 148 117 261 263 261c60 0 114 -19 158 -52l36 41h48zM94 250c0 -58 22 -110 58 -148l280 320c-35 26 -79 41 -126 41
c-119 0 -212 -94 -212 -213zM306 37c119 0 211 94 211 213c0 58 -22 110 -58 148l-280 -320c35 -26 79 -41 127 -41z" />
    <glyph glyph-name="otilde" unicode="&#xf5;" horiz-adv-x="611" 
d="M167 583c0 113 69 134 138 74c56 -48 90 -49 90 28h44c0 -112 -69 -134 -138 -74c-56 48 -90 50 -90 -28h-44zM306 -11c-146 0 -263 113 -263 261s117 261 263 261c145 0 262 -113 262 -261s-117 -261 -262 -261zM306 37c119 0 211 94 211 213s-92 213 -211 213
s-212 -94 -212 -213s93 -213 212 -213z" />
    <glyph glyph-name="oe" unicode="&#x153;" horiz-adv-x="1045" 
d="M768 511c153 0 243 -126 243 -263c0 -8 0 -16 -1 -24h-50h-392c10 -114 93 -187 204 -187c81 0 142 41 166 97h56c-29 -86 -115 -145 -224 -145c-114 0 -197 62 -230 158c-37 -94 -125 -158 -234 -158c-150 0 -263 113 -263 261s113 261 263 261c109 0 197 -64 234 -158
c33 94 114 158 228 158zM306 37c119 0 210 94 210 213s-91 213 -210 213c-123 0 -212 -94 -212 -213s89 -213 212 -213zM770 463c-114 0 -193 -79 -203 -190h393c-11 121 -93 190 -190 190z" />
    <glyph glyph-name="p" unicode="p" horiz-adv-x="645" 
d="M342 511c143 0 259 -113 259 -261s-116 -261 -259 -261c-96 0 -174 50 -215 127v-316h-50v700h50v-116c41 77 119 127 215 127zM339 37c119 0 212 94 212 213s-93 213 -212 213s-212 -94 -212 -213s93 -213 212 -213z" />
    <glyph glyph-name="thorn" unicode="&#xfe;" horiz-adv-x="645" 
d="M342 511c143 0 259 -113 259 -261s-116 -261 -259 -261c-96 0 -173 50 -215 126v-315h-50v900h50v-315c42 76 119 126 215 126zM339 37c119 0 212 94 212 213s-93 213 -212 213s-212 -94 -212 -213s93 -213 212 -213z" />
    <glyph glyph-name="q" unicode="q" horiz-adv-x="645" 
d="M518 500h50v-700h-50v316c-41 -77 -118 -127 -215 -127c-143 0 -259 113 -259 261s116 261 259 261c97 0 174 -50 215 -127v116zM306 37c119 0 212 94 212 213s-93 213 -212 213s-212 -94 -212 -213s93 -213 212 -213z" />
    <glyph glyph-name="r" unicode="r" horiz-adv-x="318" 
d="M127 409c38 73 102 98 167 98v-48c-86 0 -167 -53 -167 -181v-278h-50v500h50v-91z" />
    <glyph glyph-name="racute" unicode="&#x155;" horiz-adv-x="318" 
d="M284 697l-91 -127h-49l80 127h60zM127 409c38 73 102 98 167 98v-48c-86 0 -167 -53 -167 -181v-278h-50v500h50v-91z" />
    <glyph glyph-name="rcaron" unicode="&#x159;" horiz-adv-x="318" 
d="M155 570l-108 127h57l81 -95l80 95h57l-108 -127h-59zM127 409c38 73 102 98 167 98v-48c-86 0 -167 -53 -167 -181v-278h-50v500h50v-91z" />
    <glyph glyph-name="rcommaaccent" unicode="&#x157;" horiz-adv-x="318" 
d="M127 409c38 73 102 98 167 98v-48c-86 0 -167 -53 -167 -181v-278h-50v500h50v-91zM67 -240l10 170h51l-25 -170h-36z" />
    <glyph glyph-name="s" unicode="s" horiz-adv-x="463" 
d="M109 373c0 -142 306 -56 306 -246c0 -80 -73 -138 -183 -138c-111 0 -184 60 -184 149h51c0 -70 59 -101 133 -101c73 0 132 29 132 90c0 144 -306 57 -306 246c0 80 71 138 174 138c101 0 172 -60 172 -149h-51c0 70 -57 101 -121 101c-66 0 -123 -29 -123 -90z" />
    <glyph glyph-name="sacute" unicode="&#x15b;" horiz-adv-x="463" 
d="M328 697l-91 -127h-49l80 127h60zM109 373c0 -142 306 -56 306 -246c0 -80 -73 -138 -183 -138c-111 0 -184 60 -184 149h51c0 -70 59 -101 133 -101c73 0 132 29 132 90c0 144 -306 57 -306 246c0 80 71 138 174 138c101 0 172 -60 172 -149h-51c0 70 -57 101 -121 101
c-66 0 -123 -29 -123 -90z" />
    <glyph glyph-name="scaron" unicode="&#x161;" horiz-adv-x="463" 
d="M200 570l-108 127h57l81 -95l80 95h57l-108 -127h-59zM109 373c0 -142 306 -56 306 -246c0 -80 -73 -138 -183 -138c-111 0 -184 60 -184 149h51c0 -70 59 -101 133 -101c73 0 132 29 132 90c0 144 -306 57 -306 246c0 80 71 138 174 138c101 0 172 -60 172 -149h-51
c0 70 -57 101 -121 101c-66 0 -123 -29 -123 -90z" />
    <glyph glyph-name="scedilla" unicode="&#x15f;" horiz-adv-x="463" 
d="M415 127c0 -74 -62 -129 -158 -137v-46c51 -6 91 -32 91 -75c0 -49 -43 -92 -195 -80v41c101 -10 151 7 151 39c0 29 -33 43 -92 43v77c-100 7 -164 65 -164 149h51c0 -70 59 -101 133 -101c73 0 132 29 132 90c0 144 -306 57 -306 246c0 80 71 138 174 138
c101 0 172 -60 172 -149h-51c0 70 -57 101 -121 101c-66 0 -123 -29 -123 -90c0 -142 306 -56 306 -246z" />
    <glyph glyph-name="scommaaccent" unicode="&#x219;" horiz-adv-x="463" 
d="M109 373c0 -142 306 -56 306 -246c0 -80 -73 -138 -183 -138c-111 0 -184 60 -184 149h51c0 -70 59 -101 133 -101c73 0 132 29 132 90c0 144 -306 57 -306 246c0 80 71 138 174 138c101 0 172 -60 172 -149h-51c0 70 -57 101 -121 101c-66 0 -123 -29 -123 -90z
M211 -240l10 170h51l-25 -170h-36z" />
    <glyph glyph-name="germandbls" unicode="&#xdf;" horiz-adv-x="496" 
d="M280 -4v46c83 -5 142 28 142 99c0 100 -147 164 -147 248c0 62 91 99 91 179c0 63 -48 95 -108 95c-68 0 -131 -37 -131 -138v-525h-50v525c0 124 80 186 181 186c97 0 159 -60 159 -143c0 -94 -92 -134 -92 -179c0 -67 148 -124 148 -248c0 -92 -74 -152 -193 -145z" />
    <glyph glyph-name="t" unicode="t" horiz-adv-x="317" 
d="M293 500v-49h-109v-451h-51v451h-110v49h110v160h51v-160h109z" />
    <glyph glyph-name="tbar" unicode="&#x167;" horiz-adv-x="317" 
d="M293 451h-109v-130h81v-42h-81v-279h-51v279h-81v42h81v130h-110v49h110v160h51v-160h109v-49z" />
    <glyph glyph-name="tcaron" unicode="&#x165;" horiz-adv-x="321" 
d="M303 720l-24 -157h-36l10 157h50zM184 660v-160h109v-49h-109v-451h-51v451h-110v49h110v160h51z" />
    <glyph glyph-name="uni0163" unicode="&#x163;" horiz-adv-x="317" 
d="M293 500v-49h-109v-451h-51v451h-110v49h110v160h51v-160h109zM123 -240l10 170h51l-25 -170h-36z" />
    <glyph glyph-name="uni021B" unicode="&#x21b;" horiz-adv-x="317" 
d="M293 500v-49h-109v-451h-51v451h-110v49h110v160h51v-160h109zM123 -240l10 170h51l-25 -170h-36z" />
    <glyph glyph-name="u" unicode="u" 
d="M397 500h50v-500h-50v83c-39 -70 -101 -94 -165 -94c-93 0 -168 66 -168 181v330h51v-330c0 -86 52 -133 125 -133c78 0 157 53 157 181v282z" />
    <glyph glyph-name="uacute" unicode="&#xfa;" 
d="M352 697l-91 -127h-49l80 127h60zM397 500h50v-500h-50v83c-39 -70 -101 -94 -165 -94c-93 0 -168 66 -168 181v330h51v-330c0 -86 52 -133 125 -133c78 0 157 53 157 181v282z" />
    <glyph glyph-name="ucircumflex" unicode="&#xfb;" 
d="M253 665l-81 -95h-57l108 127h57h2l108 -127h-57zM397 500h50v-500h-50v83c-39 -70 -101 -94 -165 -94c-93 0 -168 66 -168 181v330h51v-330c0 -86 52 -133 125 -133c78 0 157 53 157 181v282z" />
    <glyph glyph-name="udieresis" unicode="&#xfc;" 
d="M187 653v-73h-60v73h60zM380 653v-73h-60v73h60zM397 500h50v-500h-50v83c-39 -70 -101 -94 -165 -94c-93 0 -168 66 -168 181v330h51v-330c0 -86 52 -133 125 -133c78 0 157 53 157 181v282z" />
    <glyph glyph-name="ugrave" unicode="&#xf9;" 
d="M288 570h-48l-92 127h60zM397 500h50v-500h-50v83c-39 -70 -101 -94 -165 -94c-93 0 -168 66 -168 181v330h51v-330c0 -86 52 -133 125 -133c78 0 157 53 157 181v282z" />
    <glyph glyph-name="uhungarumlaut" unicode="&#x171;" 
d="M266 700l-75 -130h-51l70 130h56zM418 700l-85 -130h-51l80 130h56zM397 500h50v-500h-50v83c-39 -70 -101 -94 -165 -94c-93 0 -168 66 -168 181v330h51v-330c0 -86 52 -133 125 -133c78 0 157 53 157 181v282z" />
    <glyph glyph-name="umacron" unicode="&#x16b;" 
d="M380 631v-44h-253v44h253zM397 500h50v-500h-50v83c-39 -70 -101 -94 -165 -94c-93 0 -168 66 -168 181v330h51v-330c0 -86 52 -133 125 -133c78 0 157 53 157 181v282z" />
    <glyph glyph-name="uogonek" unicode="&#x173;" 
d="M447 0c-51 -46 -83 -93 -83 -131c0 -25 16 -37 40 -37c16 0 29 3 43 9v-42c-16 -7 -33 -10 -54 -10c-50 0 -78 29 -78 72c0 40 25 88 82 149v73c-39 -70 -101 -94 -165 -94c-93 0 -168 66 -168 181v330h51v-330c0 -86 52 -133 125 -133c78 0 157 53 157 181v282h50v-500z
" />
    <glyph glyph-name="uring" unicode="&#x16f;" 
d="M253 553c-61 0 -102 42 -102 97s41 97 102 97c62 0 103 -42 103 -97s-41 -97 -103 -97zM253 707c-37 0 -59 -24 -59 -57s22 -57 59 -57c38 0 61 24 61 57s-23 57 -61 57zM397 500h50v-500h-50v83c-39 -70 -101 -94 -165 -94c-93 0 -168 66 -168 181v330h51v-330
c0 -86 52 -133 125 -133c78 0 157 53 157 181v282z" />
    <glyph glyph-name="v" unicode="v" horiz-adv-x="477" 
d="M410 500h54l-195 -500h-51h-10l-195 500h54l172 -446z" />
    <glyph glyph-name="w" unicode="w" horiz-adv-x="677" 
d="M610 500h53l-177 -500h-48h-7l-92 259l-93 -259h-48h-7l-178 500h54l152 -441l95 270l-61 171h54l151 -440z" />
    <glyph glyph-name="wacute" unicode="&#x1e83;" horiz-adv-x="677" 
d="M438 697l-91 -127h-49l80 127h60zM610 500h53l-177 -500h-48h-7l-92 259l-93 -259h-48h-7l-178 500h54l152 -441l95 270l-61 171h54l151 -440z" />
    <glyph glyph-name="wcircumflex" unicode="&#x175;" horiz-adv-x="677" 
d="M340 665l-81 -95h-57l108 127h57h2l108 -127h-57zM610 500h53l-177 -500h-48h-7l-92 259l-93 -259h-48h-7l-178 500h54l152 -441l95 270l-61 171h54l151 -440z" />
    <glyph glyph-name="wdieresis" unicode="&#x1e85;" horiz-adv-x="677" 
d="M273 653v-73h-60v73h60zM466 653v-73h-60v73h60zM610 500h53l-177 -500h-48h-7l-92 259l-93 -259h-48h-7l-178 500h54l152 -441l95 270l-61 171h54l151 -440z" />
    <glyph glyph-name="wgrave" unicode="&#x1e81;" horiz-adv-x="677" 
d="M375 570h-48l-92 127h60zM610 500h53l-177 -500h-48h-7l-92 259l-93 -259h-48h-7l-178 500h54l152 -441l95 270l-61 171h54l151 -440z" />
    <glyph glyph-name="x" unicode="x" horiz-adv-x="452" 
d="M427 0h-56l-146 218l-146 -218h-56l174 259l-162 241h56l134 -200l134 200h56l-162 -241z" />
    <glyph glyph-name="y" unicode="y" horiz-adv-x="470" 
d="M403 500h54l-257 -700h-54l74 203l-207 497h54l179 -427z" />
    <glyph glyph-name="yacute" unicode="&#xfd;" horiz-adv-x="470" 
d="M193 570h49l91 127h-60zM403 500h54l-257 -700h-54l74 203l-207 497h54l179 -427z" />
    <glyph glyph-name="ycircumflex" unicode="&#x177;" horiz-adv-x="470" 
d="M235 665l-81 -95h-57l108 127h57h2l108 -127h-57zM403 500h54l-257 -700h-54l74 203l-207 497h54l179 -427z" />
    <glyph glyph-name="ydieresis" unicode="&#xff;" horiz-adv-x="470" 
d="M108 580v73h60v-73h-60zM301 580v73h60v-73h-60zM403 500h54l-257 -700h-54l74 203l-207 497h54l179 -427z" />
    <glyph glyph-name="ygrave" unicode="&#x1ef3;" horiz-adv-x="470" 
d="M270 570l-80 127h-60l92 -127h48zM403 500h54l-257 -700h-54l74 203l-207 497h54l179 -427z" />
    <glyph glyph-name="z" unicode="z" horiz-adv-x="457" 
d="M117 49h303v-49h-373v33l293 418h-283v49h353v-33z" />
    <glyph glyph-name="zacute" unicode="&#x17a;" horiz-adv-x="457" 
d="M333 697l-91 -127h-49l80 127h60zM117 49h303v-49h-373v33l293 418h-283v49h353v-33z" />
    <glyph glyph-name="zcaron" unicode="&#x17e;" horiz-adv-x="457" 
d="M204 570l-108 127h57l81 -95l80 95h57l-108 -127h-59zM117 49h303v-49h-373v33l293 418h-283v49h353v-33z" />
    <glyph glyph-name="zdotaccent" unicode="&#x17c;" horiz-adv-x="457" 
d="M268 663v-83h-67v83h67zM117 49h303v-49h-373v33l293 418h-283v49h353v-33z" />
    <glyph glyph-name="a.ss01" horiz-adv-x="645" 
d="M517 500h51v-500h-51v114c-41 -76 -119 -125 -215 -125c-142 0 -259 113 -259 261s117 261 259 261c96 0 174 -49 215 -125v114zM306 37c119 0 211 94 211 213s-92 213 -211 213s-212 -94 -212 -213s93 -213 212 -213z" />
    <glyph glyph-name="aacute.ss01" horiz-adv-x="645" 
d="M402 697l-91 -127h-49l80 127h60zM517 500h51v-500h-51v114c-41 -76 -119 -125 -215 -125c-142 0 -259 113 -259 261s117 261 259 261c96 0 174 -49 215 -125v114zM306 37c119 0 211 94 211 213s-92 213 -211 213s-212 -94 -212 -213s93 -213 212 -213z" />
    <glyph glyph-name="abreve.ss01" horiz-adv-x="645" 
d="M303 565c-80 0 -133 46 -133 122h48c0 -52 32 -78 85 -78s85 26 85 78h48c0 -76 -52 -122 -133 -122zM517 500h51v-500h-51v114c-41 -76 -119 -125 -215 -125c-142 0 -259 113 -259 261s117 261 259 261c96 0 174 -49 215 -125v114zM306 37c119 0 211 94 211 213
s-92 213 -211 213s-212 -94 -212 -213s93 -213 212 -213z" />
    <glyph glyph-name="acircumflex.ss01" horiz-adv-x="645" 
d="M303 665l-81 -95h-57l108 127h57h2l108 -127h-57zM517 500h51v-500h-51v114c-41 -76 -119 -125 -215 -125c-142 0 -259 113 -259 261s117 261 259 261c96 0 174 -49 215 -125v114zM306 37c119 0 211 94 211 213s-92 213 -211 213s-212 -94 -212 -213s93 -213 212 -213z
" />
    <glyph glyph-name="adieresis.ss01" horiz-adv-x="645" 
d="M237 653v-73h-60v73h60zM430 653v-73h-60v73h60zM517 500h51v-500h-51v114c-41 -76 -119 -125 -215 -125c-142 0 -259 113 -259 261s117 261 259 261c96 0 174 -49 215 -125v114zM306 37c119 0 211 94 211 213s-92 213 -211 213s-212 -94 -212 -213s93 -213 212 -213z
" />
    <glyph glyph-name="agrave.ss01" horiz-adv-x="645" 
d="M338 570h-48l-92 127h60zM517 500h51v-500h-51v114c-41 -76 -119 -125 -215 -125c-142 0 -259 113 -259 261s117 261 259 261c96 0 174 -49 215 -125v114zM306 37c119 0 211 94 211 213s-92 213 -211 213s-212 -94 -212 -213s93 -213 212 -213z" />
    <glyph glyph-name="amacron.ss01" horiz-adv-x="645" 
d="M430 631v-44h-253v44h253zM517 500h51v-500h-51v114c-41 -76 -119 -125 -215 -125c-142 0 -259 113 -259 261s117 261 259 261c96 0 174 -49 215 -125v114zM306 37c119 0 211 94 211 213s-92 213 -211 213s-212 -94 -212 -213s93 -213 212 -213z" />
    <glyph glyph-name="aogonek.ss01" horiz-adv-x="645" 
d="M568 0c-51 -46 -83 -93 -83 -131c0 -25 16 -37 40 -37c16 0 29 3 43 9v-42c-16 -7 -33 -10 -54 -10c-50 0 -78 29 -78 72c0 40 24 92 81 149v104c-41 -76 -119 -125 -215 -125c-142 0 -259 113 -259 261s117 261 259 261c96 0 174 -49 215 -125v114h51v-500zM306 37
c119 0 211 94 211 213s-92 213 -211 213s-212 -94 -212 -213s93 -213 212 -213z" />
    <glyph glyph-name="aring.ss01" horiz-adv-x="645" 
d="M303 553c-61 0 -102 42 -102 97s41 97 102 97c62 0 103 -42 103 -97s-41 -97 -103 -97zM303 707c-37 0 -59 -24 -59 -57s22 -57 59 -57c38 0 61 24 61 57s-23 57 -61 57zM517 500h51v-500h-51v114c-41 -76 -119 -125 -215 -125c-142 0 -259 113 -259 261s117 261 259 261
c96 0 174 -49 215 -125v114zM306 37c119 0 211 94 211 213s-92 213 -211 213s-212 -94 -212 -213s93 -213 212 -213z" />
    <glyph glyph-name="atilde.ss01" horiz-adv-x="645" 
d="M301 611c-56 48 -90 50 -90 -28h-44c0 113 69 134 138 74c56 -48 90 -49 90 28h44c0 -112 -69 -134 -138 -74zM517 500h51v-500h-51v114c-41 -76 -119 -125 -215 -125c-142 0 -259 113 -259 261s117 261 259 261c96 0 174 -49 215 -125v114zM306 37c119 0 211 94 211 213
s-92 213 -211 213s-212 -94 -212 -213s93 -213 212 -213z" />
    <glyph glyph-name="ae.ss01" horiz-adv-x="1046" 
d="M773 511c153 0 240 -126 240 -263c0 -8 -1 -16 -1 -24h-50h-393c11 -114 93 -187 204 -187c82 0 143 41 167 97h55c-28 -86 -107 -145 -217 -145c-100 0 -173 48 -211 125v-114h-50v114c-41 -76 -119 -125 -215 -125c-142 0 -259 113 -259 261s117 261 259 261
c96 0 174 -49 215 -125v114h50v-115c38 76 110 126 206 126zM306 37c119 0 211 94 211 213s-92 213 -211 213s-212 -94 -212 -213s93 -213 212 -213zM771 463c-113 0 -193 -79 -202 -190h392c-10 121 -92 190 -190 190z" />
    <glyph glyph-name="y.ss01" 
d="M396 500h51v-528c0 -116 -79 -183 -185 -183c-110 0 -185 68 -185 163h51c0 -76 61 -115 134 -115c72 0 134 41 134 135v110c-38 -69 -100 -93 -164 -93c-93 0 -168 66 -168 181v330h50v-330c0 -86 53 -133 126 -133c78 0 156 53 156 181v282z" />
    <glyph glyph-name="yacute.ss01" 
d="M354 697l-91 -127h-49l80 127h60zM396 500h51v-528c0 -116 -79 -183 -185 -183c-110 0 -185 68 -185 163h51c0 -76 61 -115 134 -115c72 0 134 41 134 135v110c-38 -69 -100 -93 -164 -93c-93 0 -168 66 -168 181v330h50v-330c0 -86 53 -133 126 -133
c78 0 156 53 156 181v282z" />
    <glyph glyph-name="ycircumflex.ss01" 
d="M255 665l-81 -95h-57l108 127h57h2l108 -127h-57zM396 500h51v-528c0 -116 -79 -183 -185 -183c-110 0 -185 68 -185 163h51c0 -76 61 -115 134 -115c72 0 134 41 134 135v110c-38 -69 -100 -93 -164 -93c-93 0 -168 66 -168 181v330h50v-330c0 -86 53 -133 126 -133
c78 0 156 53 156 181v282z" />
    <glyph glyph-name="ydieresis.ss01" 
d="M189 653v-73h-60v73h60zM382 653v-73h-60v73h60zM396 500h51v-528c0 -116 -79 -183 -185 -183c-110 0 -185 68 -185 163h51c0 -76 61 -115 134 -115c72 0 134 41 134 135v110c-38 -69 -100 -93 -164 -93c-93 0 -168 66 -168 181v330h50v-330c0 -86 53 -133 126 -133
c78 0 156 53 156 181v282z" />
    <glyph glyph-name="ygrave.ss01" 
d="M290 570h-48l-92 127h60zM396 500h51v-528c0 -116 -79 -183 -185 -183c-110 0 -185 68 -185 163h51c0 -76 61 -115 134 -115c72 0 134 41 134 135v110c-38 -69 -100 -93 -164 -93c-93 0 -168 66 -168 181v330h50v-330c0 -86 53 -133 126 -133c78 0 156 53 156 181v282z
" />
    <glyph glyph-name="f_f_j" horiz-adv-x="773" 
d="M697 500v-557c0 -106 -59 -164 -167 -154v48c79 -8 116 26 116 106v508h-219v-451h-51v451h-86h-133v-451h-50v451h-87v49h87v27c0 123 68 194 199 184v-48c-102 8 -149 -39 -149 -136v-27h149h70v37c0 123 69 184 200 184c33 0 64 -4 97 -11v-46c-33 6 -64 9 -97 9
c-102 0 -149 -39 -149 -136v-37h270z" />
    <glyph glyph-name="f_j" horiz-adv-x="504" 
d="M427 500v-557c0 -106 -58 -164 -166 -154v48c79 -8 115 26 115 106v508h-219v-451h-50v451h-87v49h87v27c0 123 68 184 199 184c33 0 64 -4 98 -11v-46c-33 6 -64 9 -98 9c-102 0 -149 -39 -149 -136v-27h270z" />
    <glyph glyph-name="ordfeminine" unicode="&#xaa;" horiz-adv-x="278" 
d="M139 711c57 0 96 -34 96 -91v-164h-39v25c-17 -22 -44 -31 -76 -31c-45 0 -87 30 -87 79c0 50 42 79 87 79c32 0 59 -11 76 -30v42c0 34 -21 54 -57 54c-35 0 -57 -17 -57 -44h-39c0 49 37 81 96 81zM129 483c28 0 67 12 67 46c0 35 -40 45 -67 45c-35 0 -57 -18 -57 -45
s22 -46 57 -46z" />
    <glyph glyph-name="ordmasculine" unicode="&#xba;" horiz-adv-x="329" 
d="M165 450c-74 0 -132 57 -132 131s58 130 132 130s131 -56 131 -130s-57 -131 -131 -131zM165 487c54 0 91 39 91 94c0 54 -37 93 -91 93s-92 -39 -92 -93c0 -55 38 -94 92 -94z" />
    <glyph glyph-name="uni0410" unicode="&#x410;" horiz-adv-x="629" 
d="M558 0l-68 178h-350l-69 -178h-56l272 700h56l271 -700h-56zM159 228h312l-156 407z" />
    <glyph glyph-name="uni0411" unicode="&#x411;" horiz-adv-x="585" 
d="M340 413c114 0 207 -93 207 -206c0 -114 -93 -207 -207 -207h-230h-23v700h53h350v-50h-350v-237h200zM340 50c84 0 153 70 153 157c0 86 -69 156 -153 156h-200v-313h200z" />
    <glyph glyph-name="uni0412" unicode="&#x412;" horiz-adv-x="683" 
d="M506 445c85 -32 141 -116 141 -215c0 -126 -94 -230 -221 -230h-329h-10v700h53h219c105 0 174 -74 174 -164c0 -33 -10 -65 -27 -91zM359 650h-219v-190h287c8 0 16 0 24 -1c18 20 29 48 29 77c0 63 -46 114 -121 114zM419 50c104 0 174 81 174 180
c0 100 -69 180 -173 180h-280v-360h279z" />
    <glyph glyph-name="uni0413" unicode="&#x413;" horiz-adv-x="493" 
d="M470 700v-50h-330v-650h-53v700h383z" />
    <glyph glyph-name="uni0403" unicode="&#x403;" horiz-adv-x="493" 
d="M374 896l-91 -127h-49l80 127h60zM470 700v-50h-330v-650h-53v700h383z" />
    <glyph glyph-name="uni0490" unicode="&#x490;" horiz-adv-x="493" 
d="M417 820h53v-143v-27h-330v-650h-53v700h330v120z" />
    <glyph glyph-name="uni0414" unicode="&#x414;" horiz-adv-x="657" 
d="M545 50h73v-50v-144h-53v144h-493v-144h-54v173v21h56c39 44 72 115 72 251v399h399v-650zM199 300c0 -128 -28 -202 -62 -250h355v600h-293v-350z" />
    <glyph glyph-name="uni0415" unicode="&#x415;" horiz-adv-x="520" 
d="M140 50h337v-50h-367h-23v700h53h332v-50h-332v-272h307v-50h-307v-278z" />
    <glyph glyph-name="uni0401" unicode="&#x401;" horiz-adv-x="520" 
d="M211 853v-73h-60v73h60zM404 853v-73h-60v73h60zM140 50h337v-50h-367h-23v700h53h332v-50h-332v-272h307v-50h-307v-278z" />
    <glyph glyph-name="uni0416" unicode="&#x416;" horiz-adv-x="836" 
d="M816 0h-63l-308 347v-347h-54v347l-308 -347h-63l318 360l-308 340h63l298 -327v327h54v-327l298 327h63l-308 -340z" />
    <glyph glyph-name="uni0417" unicode="&#x417;" horiz-adv-x="530" 
d="M394 412c70 -38 113 -111 113 -195c0 -126 -91 -228 -241 -228c-151 0 -243 100 -243 226h54c0 -100 69 -176 189 -176c119 0 187 77 187 178c0 99 -71 177 -176 177h-44v47h44c22 0 43 -2 63 -7c40 30 55 70 55 106c0 69 -48 121 -135 121s-137 -52 -137 -121h-53
c0 94 71 171 190 171s188 -77 188 -171c0 -42 -16 -89 -54 -128z" />
    <glyph glyph-name="uni0418" unicode="&#x418;" horiz-adv-x="630" 
d="M490 0v594l-357 -594h-46v700h53v-594l357 594h46v-700h-53z" />
    <glyph glyph-name="uni0419" unicode="&#x419;" horiz-adv-x="630" 
d="M198 787v44h253v-44h-253zM490 0v594l-357 -594h-46v700h53v-594l357 594h46v-700h-53z" />
    <glyph glyph-name="uni041A" unicode="&#x41a;" horiz-adv-x="572" 
d="M562 0h-71l-351 345v-345h-53v700h53v-325l341 325h71l-354 -340z" />
    <glyph glyph-name="uni040C" unicode="&#x40c;" horiz-adv-x="572" 
d="M384 896l-91 -127h-49l80 127h60zM562 0h-71l-351 345v-345h-53v700h53v-325l341 325h71l-354 -340z" />
    <glyph glyph-name="uni041B" unicode="&#x41b;" horiz-adv-x="645" 
d="M18 -1v47c92 -10 151 47 151 251v403h389v-700h-53v650h-283v-354c0 -233 -75 -308 -204 -297z" />
    <glyph glyph-name="uni041C" unicode="&#x41c;" horiz-adv-x="807" 
d="M720 700v-700h-53v613l-237 -489h-53l-237 489v-613h-53v700h53h14l249 -515l250 515h67z" />
    <glyph glyph-name="uni041D" unicode="&#x41d;" horiz-adv-x="633" 
d="M493 700h54v-700h-54v335h-353v-335h-53v700h53v-315h353v315z" />
    <glyph glyph-name="uni041E" unicode="&#x41e;" horiz-adv-x="816" 
d="M408 -11c-202 0 -361 161 -361 361s159 361 361 361s361 -161 361 -361s-159 -361 -361 -361zM408 40c173 0 308 138 308 310s-135 310 -308 310s-308 -138 -308 -310s135 -310 308 -310z" />
    <glyph glyph-name="uni041F" unicode="&#x41f;" horiz-adv-x="633" 
d="M547 700v-700h-54v650h-353v-650h-53v700h53h407z" />
    <glyph glyph-name="uni0420" unicode="&#x420;" horiz-adv-x="577" 
d="M327 700c114 0 206 -93 206 -207c0 -113 -92 -206 -206 -206h-187v-287h-53v700h53h187zM327 337c84 0 153 70 153 156c0 87 -69 157 -153 157h-187v-313h187z" />
    <glyph glyph-name="uni0421" unicode="&#x421;" horiz-adv-x="769" 
d="M411 -11c-213 0 -364 161 -364 361s151 361 364 361c151 0 281 -92 325 -224h-58c-40 102 -145 173 -267 173c-184 0 -311 -138 -311 -310s127 -310 311 -310c122 0 227 71 267 173h58c-44 -132 -173 -224 -325 -224z" />
    <glyph glyph-name="uni0422" unicode="&#x422;" horiz-adv-x="500" 
d="M477 700v-50h-200v-650h-54v650h-200v50h254h200z" />
    <glyph glyph-name="uni0423" unicode="&#x423;" horiz-adv-x="566" 
d="M498 700h55l-233 -547c-49 -115 -118 -160 -213 -153v49c75 -8 124 26 160 110l12 28l-246 513h55l217 -453z" />
    <glyph glyph-name="uni040E" unicode="&#x40e;" horiz-adv-x="566" 
d="M412 830v-44h-253v44h253zM498 700h55l-233 -547c-49 -115 -118 -160 -213 -153v49c75 -8 124 26 160 110l12 28l-246 513h55l217 -453z" />
    <glyph glyph-name="uni0424" unicode="&#x424;" horiz-adv-x="804" 
d="M771 350c0 -172 -145 -264 -342 -271v-79h-54v79c-197 7 -342 99 -342 271s145 264 342 271v79h54v-79c197 -7 342 -99 342 -271zM87 350c0 -141 116 -216 288 -223v446c-172 -7 -288 -82 -288 -223zM429 127c172 7 288 82 288 223s-116 216 -288 223v-446z" />
    <glyph glyph-name="uni0425" unicode="&#x425;" horiz-adv-x="567" 
d="M543 0h-58l-202 314l-201 -314h-59l231 360l-218 340h59l188 -294l189 294h58l-217 -340z" />
    <glyph glyph-name="uni0427" unicode="&#x427;" horiz-adv-x="610" 
d="M470 700h53v-700h-53v296c-60 -27 -115 -39 -180 -39c-139 0 -220 85 -220 196v247h53v-247c0 -86 60 -146 167 -146c65 0 119 12 180 40v353z" />
    <glyph glyph-name="uni0426" unicode="&#x426;" horiz-adv-x="657" 
d="M547 50h73v-194h-53v144h-480v700h53v-650h353v650h54v-650z" />
    <glyph glyph-name="uni0428" unicode="&#x428;" horiz-adv-x="917" 
d="M777 700h53v-700h-743v700h53v-650h292v650h53v-650h292v650z" />
    <glyph glyph-name="uni0429" unicode="&#x429;" horiz-adv-x="940" 
d="M830 50h73v-194h-53v144h-763v700h53v-650h292v650h53v-650h292v650h53v-650z" />
    <glyph glyph-name="uni040F" unicode="&#x40f;" horiz-adv-x="633" 
d="M493 700h54v-700h-54h-150v-144h-53v144h-178h-25v700h53v-650h353v650z" />
    <glyph glyph-name="uni042C" unicode="&#x42c;" horiz-adv-x="577" 
d="M327 413c114 0 206 -93 206 -206c0 -114 -92 -207 -206 -207h-217h-23v700h53v-287h187zM327 50c84 0 153 70 153 157c0 86 -69 156 -153 156h-187v-313h187z" />
    <glyph glyph-name="uni042A" unicode="&#x42a;" horiz-adv-x="683" 
d="M193 0v650h-193v50h247v-287h186c114 0 207 -93 207 -206c0 -114 -93 -207 -207 -207h-240zM247 50h186c85 0 154 70 154 157c0 86 -69 156 -154 156h-186v-313z" />
    <glyph glyph-name="uni042B" unicode="&#x42b;" horiz-adv-x="753" 
d="M87 0v700h53v-287h187c114 0 206 -93 206 -206c0 -114 -92 -207 -206 -207h-240zM613 0v700h54v-700h-54zM140 50h187c84 0 153 70 153 157c0 86 -69 156 -153 156h-187v-313z" />
    <glyph glyph-name="uni0409" unicode="&#x409;" horiz-adv-x="955" 
d="M705 393c114 0 207 -83 207 -196c0 -114 -93 -197 -207 -197h-197h-23v650h-263v-354c0 -233 -75 -308 -204 -297v47c92 -10 151 47 151 251v403h369v-307h167zM705 50c84 0 153 60 153 147c0 86 -69 146 -153 146h-167v-293h167z" />
    <glyph glyph-name="uni040A" unicode="&#x40a;" horiz-adv-x="943" 
d="M693 393c114 0 207 -83 207 -196c0 -114 -93 -197 -207 -197h-196h-24v343h-333v-343h-53v700h53v-307h333v307h54v-307h166zM693 50c85 0 154 60 154 147c0 86 -69 146 -154 146h-166v-293h166z" />
    <glyph glyph-name="uni0405" unicode="&#x405;" horiz-adv-x="550" 
d="M286 -11c-136 0 -243 74 -243 205h54c0 -97 75 -154 189 -154c97 0 167 54 167 133c0 88 -81 120 -170 153c-105 40 -220 74 -220 207c0 109 96 178 209 178c115 0 214 -72 214 -191h-53c0 85 -68 140 -161 140c-92 0 -156 -52 -156 -127c0 -91 81 -121 171 -155
c105 -41 220 -78 220 -205c0 -113 -102 -184 -221 -184z" />
    <glyph glyph-name="uni0404" unicode="&#x404;" horiz-adv-x="766" 
d="M400 40c135 0 232 71 271 173h58c-43 -132 -165 -224 -329 -224c-210 0 -353 161 -353 361s143 361 353 361c164 0 286 -92 329 -224h-58c-39 102 -137 173 -271 173c-172 0 -288 -125 -299 -285h395v-50h-395c11 -160 127 -285 299 -285z" />
    <glyph glyph-name="uni042D" unicode="&#x42d;" horiz-adv-x="766" 
d="M366 711c210 0 353 -161 353 -361s-143 -361 -353 -361c-164 0 -286 92 -329 224h58c39 -102 136 -173 271 -173c172 0 288 125 299 285h-395v50h395c-11 160 -127 285 -299 285c-134 0 -232 -71 -271 -173h-58c43 132 165 224 329 224z" />
    <glyph glyph-name="uni0406" unicode="&#x406;" horiz-adv-x="227" 
d="M87 700h53v-700h-53v700z" />
    <glyph glyph-name="uni0407" unicode="&#x407;" horiz-adv-x="227" 
d="M-13 780v73h60v-73h-60zM180 780v73h60v-73h-60zM87 700h53v-700h-53v700z" />
    <glyph glyph-name="uni0408" unicode="&#x408;" horiz-adv-x="533" 
d="M242 -11c-114 0 -215 69 -215 203v8h53v-8c0 -100 69 -152 162 -152c92 0 161 52 161 152v508h54v-508c0 -134 -101 -203 -215 -203z" />
    <glyph glyph-name="uni040B" unicode="&#x40b;" horiz-adv-x="669" 
d="M418 471c102 0 184 -60 184 -184v-287h-53v287c0 93 -55 136 -131 136c-50 0 -100 -15 -151 -40v-383h-54v650h-190v50h244h233v-50h-233v-218c49 25 98 39 151 39z" />
    <glyph glyph-name="uni042E" unicode="&#x42e;" horiz-adv-x="1047" 
d="M639 711c202 0 361 -161 361 -361s-159 -361 -361 -361c-198 0 -351 153 -359 346h-140v-335h-53v700h53v-315h142c17 183 166 326 357 326zM639 40c173 0 308 138 308 310s-135 310 -308 310c-174 0 -308 -138 -308 -310s134 -310 308 -310z" />
    <glyph glyph-name="uni042F" unicode="&#x42f;" horiz-adv-x="617" 
d="M530 700v-700h-53v287h-131l-253 -287h-66l253 287c-109 5 -197 96 -197 206c0 114 93 207 207 207h240zM290 337h187v313h-187c-84 0 -153 -70 -153 -157c0 -86 69 -156 153 -156z" />
    <glyph glyph-name="uni0402" unicode="&#x402;" horiz-adv-x="662" 
d="M418 471c102 0 184 -60 184 -184v-139c0 -107 -58 -165 -166 -155v49c79 -9 113 25 113 106v139c0 93 -55 136 -131 136c-50 0 -100 -15 -151 -40v-383h-54v650h-190v50h244h233v-50h-233v-218c49 25 98 39 151 39z" />
    <glyph glyph-name="uni0414.loclBGR" horiz-adv-x="703" 
d="M613 50h64v-50v-144h-54v144h-494h-49v-144h-53v171v23h64l233 650h56zM147 50h410l-205 585z" />
    <glyph glyph-name="uni041B.loclBGR" horiz-adv-x="605" 
d="M274 700h56l261 -700h-56l-233 635l-232 -635h-57z" />
    <glyph glyph-name="uni0424.loclBGR" horiz-adv-x="851" 
d="M804 350c0 -211 -145 -350 -352 -361v-89h-53v89c-207 11 -352 150 -352 361s145 350 352 361v89h53v-89c207 -11 352 -150 352 -361zM100 350c0 -179 117 -301 299 -312v624c-182 -11 -299 -133 -299 -312zM452 38c182 11 299 133 299 312s-117 301 -299 312v-624z" />
    <glyph glyph-name="uni0414.ss01" horiz-adv-x="657" 
d="M545 50h73v-50h-600v50h56c39 44 72 115 72 251v399h399v-650zM199 300c0 -128 -28 -202 -62 -250h355v600h-293v-350z" />
    <glyph glyph-name="uni0426.ss01" horiz-adv-x="657" 
d="M547 50h73v-50h-533v700h53v-650h353v650h54v-650z" />
    <glyph glyph-name="uni0429.ss01" horiz-adv-x="940" 
d="M830 50h73v-50h-816v700h53v-650h292v650h53v-650h292v650h53v-650z" />
    <glyph glyph-name="uni0414.loclBGR.ss01" horiz-adv-x="703" 
d="M613 50h64v-50h-103h-501h-46v50h64l233 650h56zM147 50h410l-205 585z" />
    <glyph glyph-name="uni0430" unicode="&#x430;" horiz-adv-x="499" 
d="M250 511c106 0 185 -67 185 -183v-328h-51v60c-32 -51 -92 -71 -160 -71c-93 0 -179 53 -179 157c0 105 86 158 179 158c68 0 128 -24 160 -70v94c0 94 -62 135 -134 135c-73 0 -134 -39 -134 -115h-51c0 95 75 163 185 163zM235 36c83 0 149 39 149 110
c0 74 -68 111 -149 111c-92 0 -139 -46 -139 -111c0 -64 47 -110 139 -110z" />
    <glyph glyph-name="uni0431" unicode="&#x431;" horiz-adv-x="571" 
d="M294 -12c-140 0 -251 102 -251 260c0 310 372 342 372 452h52c0 -143 -280 -154 -356 -347c48 69 120 102 188 102c133 0 239 -97 239 -233c0 -135 -102 -234 -244 -234zM294 38c114 0 193 77 193 184c0 106 -82 184 -194 184c-95 0 -189 -65 -198 -172
c0 -116 86 -196 199 -196z" />
    <glyph glyph-name="uni0432" unicode="&#x432;" horiz-adv-x="527" 
d="M413 300c57 -26 87 -78 87 -139c0 -88 -59 -161 -180 -161h-237h-6v500h193c99 0 160 -60 160 -139c0 -22 -6 -43 -17 -61zM270 453h-143v-134h193c16 0 31 -2 44 -4c9 13 15 28 15 46c0 60 -47 93 -109 92zM320 47c82 0 129 44 129 114s-47 112 -129 112h-193v-226h193z
" />
    <glyph glyph-name="uni0433" unicode="&#x433;" horiz-adv-x="377" 
d="M370 500v-49h-243v-451h-50v500h293z" />
    <glyph glyph-name="uni0453" unicode="&#x453;" horiz-adv-x="377" 
d="M298 697l-91 -127h-49l80 127h60zM370 500v-49h-243v-451h-50v500h293z" />
    <glyph glyph-name="uni0491" unicode="&#x491;" horiz-adv-x="377" 
d="M319 604h51v-153h-243v-451h-50v500h242v104z" />
    <glyph glyph-name="uni0434" unicode="&#x434;" horiz-adv-x="570" 
d="M467 49h70v-49v-144h-51v144h-70h-342v-144h-51v171v22h58c35 48 55 102 55 201v250h50h246h35v-451zM144 49h272v402h-230v-201c0 -89 -15 -151 -42 -201z" />
    <glyph glyph-name="uni0435" unicode="&#x435;" horiz-adv-x="572" 
d="M297 511c152 0 242 -126 242 -263c0 -8 -1 -16 -1 -24h-50h-393c11 -114 93 -187 204 -187c81 0 143 41 167 97h55c-28 -86 -113 -145 -223 -145c-151 0 -255 110 -255 261c0 147 101 261 254 261zM297 463c-114 0 -193 -79 -202 -190h392c-10 121 -93 190 -190 190z" />
    <glyph glyph-name="uni0451" unicode="&#x451;" horiz-adv-x="572" 
d="M229 653v-73h-60v73h60zM422 653v-73h-60v73h60zM297 511c152 0 242 -126 242 -263c0 -8 -1 -16 -1 -24h-50h-393c11 -114 93 -187 204 -187c81 0 143 41 167 97h55c-28 -86 -113 -145 -223 -145c-151 0 -255 110 -255 261c0 147 101 261 254 261zM297 463
c-114 0 -193 -79 -202 -190h392c-10 121 -93 190 -190 190z" />
    <glyph glyph-name="uni0436" unicode="&#x436;" horiz-adv-x="663" 
d="M640 0h-62l-221 246v-246h-51v246l-221 -246h-62l237 260l-227 240h62l211 -226v226h51v-226l211 226h62l-226 -240z" />
    <glyph glyph-name="uni0437" unicode="&#x437;" horiz-adv-x="423" 
d="M327 280c47 -28 73 -76 73 -130c0 -86 -68 -161 -187 -161c-122 0 -190 74 -190 161h51c0 -69 56 -113 139 -113c79 0 136 44 136 113s-54 111 -134 111h-32v46h32c23 0 44 -2 63 -7c20 17 36 39 36 68c0 61 -47 95 -107 95c-62 0 -108 -33 -108 -97h-51
c0 84 61 145 159 145c97 0 158 -65 158 -143c0 -33 -14 -64 -38 -88z" />
    <glyph glyph-name="uni0438" unicode="&#x438;" horiz-adv-x="537" 
d="M416 500h44v-500h-51v409l-288 -409h-44v500h50v-409z" />
    <glyph glyph-name="uni0439" unicode="&#x439;" horiz-adv-x="537" 
d="M142 587v44h253v-44h-253zM416 500h44v-500h-51v409l-288 -409h-44v500h50v-409z" />
    <glyph glyph-name="uni043A" unicode="&#x43a;" horiz-adv-x="483" 
d="M460 0h-68l-265 245v-245h-50v500h50v-226l255 226h68l-270 -240z" />
    <glyph glyph-name="uni045C" unicode="&#x45c;" horiz-adv-x="483" 
d="M341 697l-91 -127h-49l80 127h60zM460 0h-68l-265 245v-245h-50v500h50v-226l255 226h68l-270 -240z" />
    <glyph glyph-name="uni043B" unicode="&#x43b;" horiz-adv-x="533" 
d="M457 500v-500h-51v451h-225v-241c0 -175 -74 -217 -168 -210v47c77 -7 118 34 118 163v290h50h276z" />
    <glyph glyph-name="uni043C" unicode="&#x43c;" horiz-adv-x="637" 
d="M560 500v-500h-51v419l-171 -317h-40l-171 317v-419h-50v500h50h9l182 -338l182 338h60z" />
    <glyph glyph-name="uni043D" unicode="&#x43d;" horiz-adv-x="537" 
d="M409 500h51v-500h-51v226h-282v-226h-50v500h50v-226h282v226z" />
    <glyph glyph-name="uni043E" unicode="&#x43e;" horiz-adv-x="611" 
d="M306 -11c-146 0 -263 113 -263 261s117 261 263 261c145 0 262 -113 262 -261s-117 -261 -262 -261zM306 37c119 0 211 94 211 213s-92 213 -211 213s-212 -94 -212 -213s93 -213 212 -213z" />
    <glyph glyph-name="uni043F" unicode="&#x43f;" horiz-adv-x="537" 
d="M460 500v-500h-51v451h-282v-451h-50v500h50h333z" />
    <glyph glyph-name="uni0440" unicode="&#x440;" horiz-adv-x="645" 
d="M342 511c143 0 259 -113 259 -261s-116 -261 -259 -261c-96 0 -174 50 -215 127v-316h-50v700h50v-116c41 77 119 127 215 127zM339 37c119 0 212 94 212 213s-93 213 -212 213s-212 -94 -212 -213s93 -213 212 -213z" />
    <glyph glyph-name="uni0441" unicode="&#x441;" horiz-adv-x="576" 
d="M542 153c-28 -98 -123 -164 -236 -164c-151 0 -263 113 -263 261s112 261 263 261c113 0 207 -66 236 -164h-53c-27 69 -98 116 -183 116c-121 0 -212 -94 -212 -213s91 -213 212 -213c85 0 156 47 183 116h53z" />
    <glyph glyph-name="uni0442" unicode="&#x442;" horiz-adv-x="400" 
d="M387 500v-49h-162v-451h-50v451h-162v49h212h162z" />
    <glyph glyph-name="uni0443" unicode="&#x443;" horiz-adv-x="483" 
d="M418 500h54l-196 -546c-35 -98 -112 -161 -198 -154v47c67 -6 122 42 148 117l11 30l-209 506h54l180 -436z" />
    <glyph glyph-name="uni045E" unicode="&#x45e;" horiz-adv-x="483" 
d="M374 631v-44h-253v44h253zM418 500h54l-196 -546c-35 -98 -112 -161 -198 -154v47c67 -6 122 42 148 117l11 30l-209 506h54l180 -436z" />
    <glyph glyph-name="uni0444" unicode="&#x444;" horiz-adv-x="670" 
d="M627 250c0 -141 -106 -251 -267 -261v-189h-50v189c-161 10 -267 120 -267 261s106 251 267 261v189h50v-189c161 -10 267 -120 267 -261zM94 250c0 -114 84 -202 216 -212v424c-132 -10 -216 -98 -216 -212zM360 38c132 10 216 98 216 212s-84 202 -216 212v-424z" />
    <glyph glyph-name="uni0445" unicode="&#x445;" horiz-adv-x="452" 
d="M427 0h-56l-146 218l-146 -218h-56l174 259l-162 241h56l134 -200l134 200h56l-162 -241z" />
    <glyph glyph-name="uni0447" unicode="&#x447;" horiz-adv-x="507" 
d="M379 500h51v-500h-51v196c-43 -22 -91 -33 -141 -33c-112 0 -181 60 -181 167v170h50v-170c0 -80 48 -119 131 -119c47 0 95 11 141 32v257z" />
    <glyph glyph-name="uni0446" unicode="&#x446;" horiz-adv-x="563" 
d="M450 49h80v-193h-51v144h-402v500h50v-451h272v451h51v-451z" />
    <glyph glyph-name="uni0448" unicode="&#x448;" horiz-adv-x="757" 
d="M629 500h51v-500h-51h-276h-244h-32v500h50v-451h226v451h51v-451h225v451z" />
    <glyph glyph-name="uni0449" unicode="&#x449;" horiz-adv-x="783" 
d="M680 49h70v-49v-144h-51v144h-70h-276h-244h-32v500h50v-451h226v451h51v-451h225v451h51v-451z" />
    <glyph glyph-name="uni045F" unicode="&#x45f;" horiz-adv-x="537" 
d="M409 500h51v-500h-51h-115v-144h-51v144h-135h-31v500h50v-451h282v451z" />
    <glyph glyph-name="uni044C" unicode="&#x44c;" horiz-adv-x="473" 
d="M275 306c89 0 165 -61 165 -153s-76 -153 -165 -153h-171h-27v500h50v-194h148zM275 49c63 0 114 41 114 104c0 64 -51 104 -114 104h-148v-208h148z" />
    <glyph glyph-name="uni044A" unicode="&#x44a;" horiz-adv-x="540" 
d="M341 306c90 0 166 -61 166 -153s-76 -153 -166 -153h-170h-28v451h-143v49h173h21v-194h147zM341 49c64 0 115 41 115 104c0 64 -51 104 -115 104h-147v-208h147z" />
    <glyph glyph-name="uni044B" unicode="&#x44b;" horiz-adv-x="644" 
d="M275 306c89 0 165 -61 165 -153s-76 -153 -165 -153h-171h-27v500h50v-194h148zM517 500h50v-500h-50v500zM275 49c63 0 114 41 114 104c0 64 -51 104 -114 104h-148v-208h148z" />
    <glyph glyph-name="uni0459" unicode="&#x459;" horiz-adv-x="769" 
d="M581 286c84 0 155 -51 155 -143s-71 -143 -155 -143h-158h-27v451h-215v-241c0 -175 -74 -217 -168 -210v47c77 -7 118 34 118 163v290h50h231h35v-214h134zM581 49c58 0 104 31 104 94c0 64 -46 94 -104 94h-134v-188h134z" />
    <glyph glyph-name="uni045A" unicode="&#x45a;" horiz-adv-x="766" 
d="M577 286c85 0 156 -51 156 -143s-71 -143 -156 -143h-157h-27v237h-269v-237h-51v500h51v-214h269v214h50v-214h134zM577 49c59 0 105 31 105 94c0 64 -46 94 -105 94h-134v-188h134z" />
    <glyph glyph-name="uni0455" unicode="&#x455;" horiz-adv-x="463" 
d="M109 373c0 -142 306 -56 306 -246c0 -80 -73 -138 -183 -138c-111 0 -184 60 -184 149h51c0 -70 59 -101 133 -101c73 0 132 29 132 90c0 144 -306 57 -306 246c0 80 71 138 174 138c101 0 172 -60 172 -149h-51c0 70 -57 101 -121 101c-66 0 -123 -29 -123 -90z" />
    <glyph glyph-name="uni0454" unicode="&#x454;" horiz-adv-x="574" 
d="M299 37c89 0 159 47 188 116h53c-30 -98 -125 -164 -241 -164c-149 0 -256 113 -256 261s107 261 256 261c116 0 210 -66 241 -164h-53c-29 69 -100 116 -188 116c-111 0 -193 -82 -204 -189h259v-48h-259c11 -107 93 -189 204 -189z" />
    <glyph glyph-name="uni044D" unicode="&#x44d;" horiz-adv-x="573" 
d="M274 511c149 0 256 -113 256 -261s-107 -261 -256 -261c-116 0 -210 66 -241 164h54c28 -69 99 -116 187 -116c111 0 193 81 204 189h-258v48h258c-11 108 -93 189 -204 189c-88 0 -159 -47 -187 -116h-54c31 98 125 164 241 164z" />
    <glyph glyph-name="uni0456" unicode="&#x456;" horiz-adv-x="204" 
d="M77 600v100h50v-100h-50zM77 0v500h50v-500h-50z" />
    <glyph glyph-name="uni0457" unicode="&#x457;" horiz-adv-x="204" 
d="M-25 580v73h60v-73h-60zM168 580v73h60v-73h-60zM77 0v500h50v-500h-50z" />
    <glyph glyph-name="uni0458" unicode="&#x458;" horiz-adv-x="226" 
d="M96 700h50v-100h-50v100zM96 -57v557h50v-557c0 -106 -58 -164 -166 -154v48c79 -8 116 26 116 106z" />
    <glyph glyph-name="uni045B" unicode="&#x45b;" horiz-adv-x="537" 
d="M305 511c93 0 168 -66 168 -181v-330h-50v330c0 86 -53 133 -126 133c-78 0 -156 -53 -156 -181v-282h-51v582h-73v42h73v76h51v-76h156v-42h-156v-164c38 69 100 93 164 93z" />
    <glyph glyph-name="uni044E" unicode="&#x44e;" horiz-adv-x="803" 
d="M498 511c145 0 262 -113 262 -261s-117 -261 -262 -261c-138 0 -247 101 -259 237h-112v-226h-50v500h50v-226h112c12 136 121 237 259 237zM498 37c119 0 211 94 211 213s-92 213 -211 213s-212 -94 -212 -213s93 -213 212 -213z" />
    <glyph glyph-name="uni044F" unicode="&#x44f;" horiz-adv-x="500" 
d="M423 500v-500h-50v195h-111l-174 -195h-65l178 197c-78 9 -141 66 -141 150c0 92 76 153 165 153h198zM225 243h148v208h-148c-63 0 -114 -41 -114 -104c0 -64 51 -104 114 -104z" />
    <glyph glyph-name="uni0452" unicode="&#x452;" horiz-adv-x="533" 
d="M305 511c93 0 168 -66 168 -181v-387c0 -106 -58 -164 -166 -154v48c79 -8 116 26 116 106v387c0 86 -53 133 -126 133c-78 0 -156 -53 -156 -181v-282h-51v582h-73v42h73v76h51v-76h156v-42h-156v-164c38 69 100 93 164 93z" />
    <glyph glyph-name="uni0432.loclBGR" horiz-adv-x="573" 
d="M389 402c90 -24 141 -97 141 -202c0 -133 -84 -211 -227 -211c-142 0 -226 89 -226 241v238c0 151 79 243 213 243c111 0 177 -71 177 -162c0 -52 -27 -106 -78 -147zM290 663c-102 0 -163 -75 -163 -195v-88l115 23c30 6 58 8 84 8c59 39 90 90 90 138
c0 61 -45 114 -126 114zM303 37c111 0 176 61 176 163c0 119 -87 184 -237 154l-115 -23v-101c0 -121 66 -193 176 -193z" />
    <glyph glyph-name="uni0433.loclBGR" horiz-adv-x="453" 
d="M359 138h51c0 -89 -75 -149 -184 -149c-115 0 -183 51 -183 134c0 190 304 110 304 252c0 61 -55 88 -117 88c-67 0 -127 -33 -127 -103h-50c0 89 73 151 177 151c99 0 168 -56 168 -136c0 -189 -304 -108 -304 -252c0 -64 54 -86 132 -86c72 0 133 31 133 101z" />
    <glyph glyph-name="uni0434.loclBGR" horiz-adv-x="648" 
d="M521 500h50v-476c0 -150 -108 -235 -249 -235c-128 0 -238 83 -238 182h51c0 -59 71 -134 187 -134c129 0 199 73 199 187v91c-42 -76 -119 -126 -215 -126c-143 0 -259 113 -259 261s116 261 259 261c96 0 173 -50 215 -126v115zM309 37c119 0 212 94 212 213
s-93 213 -212 213s-212 -94 -212 -213s93 -213 212 -213z" />
    <glyph glyph-name="uni0436.loclBGR" horiz-adv-x="663" 
d="M640 0h-62l-221 245v-245h-51v245l-221 -245h-62l237 260l-227 240h62l211 -226v426h51v-426l211 226h62l-226 -240z" />
    <glyph glyph-name="uni0438.loclBGR" 
d="M397 500h50v-500h-50v83c-39 -70 -101 -94 -165 -94c-93 0 -168 66 -168 181v330h51v-330c0 -86 52 -133 125 -133c78 0 157 53 157 181v282z" />
    <glyph glyph-name="uni0439.loclBGR" 
d="M381 631v-44h-253v44h253zM397 500h50v-500h-50v83c-39 -70 -101 -94 -165 -94c-93 0 -168 66 -168 181v330h51v-330c0 -86 52 -133 125 -133c78 0 157 53 157 181v282z" />
    <glyph glyph-name="uni043A.loclBGR" horiz-adv-x="483" 
d="M460 0h-68l-265 245v-245h-50v700h50v-426l255 226h68l-270 -240z" />
    <glyph glyph-name="uni043B.loclBGR" horiz-adv-x="477" 
d="M464 0h-54l-171 447l-172 -447h-54l195 500h51h10z" />
    <glyph glyph-name="uni043F.loclBGR" 
d="M292 511c93 0 168 -66 168 -181v-330h-51v330c0 86 -52 133 -125 133c-78 0 -157 -53 -157 -181v-282h-50v500h50v-82c39 70 101 93 165 93z" />
    <glyph glyph-name="uni0442.loclBGR" horiz-adv-x="777" 
d="M558 511c84 0 155 -56 155 -171v-340h-50v340c0 86 -49 123 -110 123c-59 0 -133 -43 -133 -161v-302h-50v340c0 86 -49 123 -110 123c-59 0 -133 -43 -133 -161v-302h-50v500h50v-70c37 62 91 81 141 81c60 0 115 -30 139 -93c36 71 95 93 151 93z" />
    <glyph glyph-name="uni0446.loclBGR" horiz-adv-x="554" 
d="M488 49h33v-49v-144h-51v145c-42 5 -69 34 -73 78c-38 -68 -101 -90 -165 -90c-93 0 -168 66 -168 181v330h50v-330c0 -86 53 -133 126 -133c78 0 156 53 156 181v282h51v-410c0 -26 16 -41 41 -41z" />
    <glyph glyph-name="uni0448.loclBGR" horiz-adv-x="777" 
d="M650 500h50v-500h-50v71c-36 -62 -91 -82 -141 -82c-60 0 -115 31 -139 94c-36 -72 -95 -94 -151 -94c-84 0 -155 56 -155 171v340h50v-340c0 -86 49 -123 110 -123c59 0 133 43 133 161v302h50v-340c0 -86 49 -123 110 -123c59 0 133 43 133 161v302z" />
    <glyph glyph-name="uni0449.loclBGR" horiz-adv-x="808" 
d="M742 49h32v-49v-144h-50v145c-39 4 -66 30 -73 69c-35 -63 -92 -81 -142 -81c-60 0 -115 30 -139 93c-36 -71 -95 -93 -151 -93c-84 0 -155 56 -155 171v340h50v-340c0 -86 49 -123 110 -123c59 0 133 43 133 161v302h50v-340c0 -86 49 -123 110 -123
c59 0 133 43 133 161v302h50v-410c0 -26 17 -41 42 -41z" />
    <glyph glyph-name="uni044C.loclBGR" horiz-adv-x="480" 
d="M255 332c119 0 192 -63 192 -167c0 -96 -77 -176 -192 -176c-123 0 -191 76 -191 176v335h50v-168h141zM255 37c85 0 141 61 141 128c0 73 -54 118 -141 118h-141v-118c0 -69 50 -128 141 -128z" />
    <glyph glyph-name="uni044A.loclBGR" horiz-adv-x="565" 
d="M338 332c119 0 192 -63 192 -167c0 -96 -77 -176 -192 -176c-123 0 -191 76 -191 176v286h-147v49h177h20v-168h141zM338 37c85 0 141 61 141 128c0 73 -54 118 -141 118h-141v-118c0 -69 50 -128 141 -128z" />
    <glyph glyph-name="uni044E.loclBGR" horiz-adv-x="803" 
d="M498 511c145 0 262 -113 262 -261s-117 -261 -262 -261c-138 0 -247 101 -259 237h-112v-226h-50v700h50v-426h112c12 136 121 237 259 237zM498 37c119 0 211 94 211 213s-92 213 -211 213s-212 -94 -212 -213s93 -213 212 -213z" />
    <glyph glyph-name="uni0430.ss01" horiz-adv-x="645" 
d="M517 500h51v-500h-51v114c-41 -76 -119 -125 -215 -125c-142 0 -259 113 -259 261s117 261 259 261c96 0 174 -49 215 -125v114zM306 37c119 0 211 94 211 213s-92 213 -211 213s-212 -94 -212 -213s93 -213 212 -213z" />
    <glyph glyph-name="uni0443.ss01" 
d="M396 500h51v-528c0 -116 -79 -183 -185 -183c-110 0 -185 68 -185 163h51c0 -76 61 -115 134 -115c72 0 134 41 134 135v110c-38 -69 -100 -93 -164 -93c-93 0 -168 66 -168 181v330h50v-330c0 -86 53 -133 126 -133c78 0 156 53 156 181v282z" />
    <glyph glyph-name="uni0394" unicode="&#x394;" horiz-adv-x="626" 
d="M341 700l272 -700h-57h-501h-42l272 700h56zM89 50h448l-224 585z" />
    <glyph glyph-name="uni03A9" unicode="&#x3a9;" horiz-adv-x="816" 
d="M769 350c0 -131 -69 -242 -173 -300h162v-50h-271v50c133 34 229 155 229 300c0 172 -135 310 -308 310s-308 -138 -308 -310c0 -145 95 -266 229 -300v-50h-271v50h162c-105 58 -173 169 -173 300c0 200 159 361 361 361s361 -161 361 -361z" />
    <glyph glyph-name="pi" unicode="&#x3c0;" horiz-adv-x="620" 
d="M587 500v-49h-83v-451h-51v451h-282v-451h-51v451h-87v49h138h333h83z" />
    <glyph glyph-name="zero" unicode="0" horiz-adv-x="630" 
d="M315 -11c-168 0 -262 145 -262 361s94 361 262 361s262 -145 262 -361s-94 -361 -262 -361zM315 40c130 0 208 114 208 310s-78 310 -208 310s-208 -114 -208 -310s78 -310 208 -310z" />
    <glyph glyph-name="one" unicode="1" horiz-adv-x="332" 
d="M192 700h53v-700h-53v642l-175 -94v58z" />
    <glyph glyph-name="two" unicode="2" horiz-adv-x="527" 
d="M43 0v48l257 261c62 62 113 129 113 196c0 101 -67 155 -155 155c-90 0 -161 -52 -161 -154h-54c0 136 103 205 215 205c109 0 209 -71 209 -206c0 -85 -60 -162 -131 -234l-217 -220h364v-51h-440z" />
    <glyph glyph-name="three" unicode="3" horiz-adv-x="540" 
d="M291 410c112 -12 202 -85 202 -208c0 -135 -107 -213 -233 -213s-233 78 -233 213h53c0 -101 76 -162 180 -162s180 61 180 162s-76 162 -180 162v1l-1 -1h-37v35l177 251h-342v50h403v-50z" />
    <glyph glyph-name="four" unicode="4" horiz-adv-x="567" 
d="M548 197v-50h-90v-147h-53v147h-377v50l266 503h58l-265 -503h318v220h53v-220h90z" />
    <glyph glyph-name="five" unicode="5" horiz-adv-x="550" 
d="M275 415c126 0 233 -78 233 -213s-107 -213 -233 -213s-233 78 -233 213h53c0 -101 76 -162 180 -162s180 61 180 162s-76 162 -180 162h-197l24 336h380v-50h-332l-16 -235h141z" />
    <glyph glyph-name="six" unicode="6" horiz-adv-x="537" 
d="M268 450c136 0 235 -94 235 -231c0 -136 -99 -230 -235 -230s-235 94 -235 230c0 55 16 102 43 140l235 341h60l-179 -261c23 7 49 11 76 11zM268 40c111 0 182 75 182 179c0 105 -71 180 -182 180s-181 -75 -181 -180c0 -104 70 -179 181 -179z" />
    <glyph glyph-name="seven" unicode="7" horiz-adv-x="490" 
d="M23 700h424v-50l-272 -650h-55l272 650h-369v50z" />
    <glyph glyph-name="eight" unicode="8" horiz-adv-x="550" 
d="M381 361c76 -29 126 -92 126 -174c0 -127 -101 -198 -232 -198s-232 71 -232 198c0 82 50 145 126 174c-60 30 -103 86 -103 161c0 124 99 189 209 189s209 -65 209 -189c0 -75 -43 -131 -103 -161zM119 522c0 -86 68 -137 156 -137s156 51 156 137
c0 90 -68 138 -156 138s-156 -48 -156 -138zM275 40c109 0 178 54 178 147c0 92 -69 146 -178 146s-178 -54 -178 -146c0 -93 69 -147 178 -147z" />
    <glyph glyph-name="nine" unicode="9" horiz-adv-x="537" 
d="M503 481c0 -55 -15 -102 -43 -140l-234 -341h-60l179 261c-24 -7 -49 -11 -77 -11c-136 0 -235 94 -235 231c0 136 99 230 235 230s235 -94 235 -230zM87 481c0 -105 70 -180 181 -180s182 75 182 180c0 104 -71 179 -182 179s-181 -75 -181 -179z" />
    <glyph glyph-name="zero.sinf" horiz-adv-x="410" 
d="M205 -172c-108 0 -172 86 -172 212s64 212 172 212s172 -86 172 -212s-64 -212 -172 -212zM205 -126c77 0 124 60 124 166s-47 166 -124 166s-124 -60 -124 -166s47 -166 124 -166z" />
    <glyph glyph-name="one.sinf" horiz-adv-x="246" 
d="M135 240h48v-400h-48v348l-112 -60v52z" />
    <glyph glyph-name="two.sinf" horiz-adv-x="342" 
d="M33 -160v39l175 163c29 26 45 61 45 91c0 40 -31 73 -82 73c-55 0 -88 -31 -88 -78h-48c0 75 56 124 136 124c79 0 130 -55 130 -119c0 -46 -20 -85 -60 -122l-137 -125h205v-46h-276z" />
    <glyph glyph-name="three.sinf" horiz-adv-x="349" 
d="M201 75c70 -11 111 -58 111 -120c0 -73 -54 -127 -142 -127s-142 54 -142 127h48c0 -46 32 -81 94 -81c63 0 94 35 94 81s-33 82 -94 82h-26v36l96 121h-195v46h251v-46z" />
    <glyph glyph-name="four.sinf" horiz-adv-x="356" 
d="M332 -35v-45h-54v-80h-48v80h-213v45l150 275h52l-150 -275h161v104h48v-104h54z" />
    <glyph glyph-name="five.sinf" horiz-adv-x="339" 
d="M168 85c82 0 138 -52 138 -130c0 -75 -53 -127 -140 -127c-86 0 -139 52 -139 127h48c0 -49 35 -81 91 -81c57 0 92 32 92 81c0 52 -35 84 -92 84h-120l15 201h229v-45h-186l-8 -110h72z" />
    <glyph glyph-name="six.sinf" horiz-adv-x="335" 
d="M167 100c82 0 145 -58 145 -135c0 -79 -63 -137 -145 -137c-81 0 -144 58 -144 137c0 25 7 49 19 69l133 206h57l-96 -143c10 2 20 3 31 3zM167 -126c57 0 97 37 97 91c0 53 -40 89 -97 89c-56 0 -96 -36 -96 -89c0 -54 40 -91 96 -91z" />
    <glyph glyph-name="seven.sinf" horiz-adv-x="309" 
d="M17 240h266v-39l-155 -361h-51l153 354h-213v46z" />
    <glyph glyph-name="eight.sinf" horiz-adv-x="342" 
d="M242 50c42 -19 70 -57 70 -106c0 -71 -58 -116 -141 -116s-142 45 -142 116c0 49 28 87 71 106c-34 18 -58 49 -58 90c0 72 59 112 129 112c69 0 128 -40 128 -112c0 -41 -24 -72 -57 -90zM171 207c-49 0 -81 -25 -81 -67c0 -41 33 -68 81 -68c47 0 80 27 80 68
c0 42 -32 67 -80 67zM171 -126c58 0 93 30 93 76c0 47 -39 76 -93 76c-57 0 -94 -29 -94 -76c0 -46 36 -76 94 -76z" />
    <glyph glyph-name="nine.sinf" horiz-adv-x="335" 
d="M312 115c0 -25 -7 -49 -19 -69l-133 -206h-57l96 143c-10 -2 -20 -3 -31 -3c-82 0 -145 58 -145 135c0 79 63 137 145 137c81 0 144 -58 144 -137zM71 115c0 -53 40 -89 97 -89c56 0 96 36 96 89c0 54 -40 91 -96 91c-57 0 -97 -37 -97 -91z" />
    <glyph glyph-name="zero.tf" horiz-adv-x="570" 
d="M285 -11c-168 0 -262 145 -262 361s94 361 262 361s262 -145 262 -361s-94 -361 -262 -361zM285 40c130 0 208 114 208 310s-78 310 -208 310s-208 -114 -208 -310s78 -310 208 -310z" />
    <glyph glyph-name="one.tf" horiz-adv-x="570" 
d="M343 51h199v-51h-252h-248v51h248v591l-208 -115v59l208 114h53v-649z" />
    <glyph glyph-name="two.tf" horiz-adv-x="570" 
d="M50 0v48l267 233c80 69 143 137 143 214c0 101 -68 165 -176 165c-96 0 -181 -62 -181 -164h-53c0 136 116 215 234 215c130 0 229 -81 229 -216c0 -95 -69 -175 -159 -251l-229 -193h405v-51h-480z" />
    <glyph glyph-name="three.tf" horiz-adv-x="570" 
d="M319 410c127 -11 218 -84 218 -208c0 -135 -108 -213 -252 -213s-252 78 -252 213h54c0 -101 76 -162 198 -162s198 61 198 162s-76 162 -198 162v1l-1 -1h-37v35l194 251h-378v50h440v-50z" />
    <glyph glyph-name="four.tf" horiz-adv-x="570" 
d="M543 197v-50h-90v-147h-53v147h-377v50l266 503h58l-266 -503h319v206h53v-206h90z" />
    <glyph glyph-name="five.tf" horiz-adv-x="570" 
d="M285 415c136 0 243 -78 243 -213s-107 -213 -243 -213s-243 78 -243 213h53c0 -101 76 -162 190 -162s190 61 190 162s-76 162 -190 162h-207l24 336h400v-50h-352l-16 -235h151z" />
    <glyph glyph-name="six.tf" horiz-adv-x="570" 
d="M278 450c153 0 252 -94 252 -231c0 -136 -99 -230 -252 -230c-152 0 -251 94 -251 230c0 55 16 103 44 141l247 340h63l-189 -261c27 7 55 11 86 11zM278 40c128 0 199 75 199 179c0 105 -71 180 -199 180c-127 0 -198 -75 -198 -180c0 -104 71 -179 198 -179z" />
    <glyph glyph-name="seven.tf" horiz-adv-x="570" 
d="M40 700h483v-50l-295 -650h-55l295 650h-428v50z" />
    <glyph glyph-name="eight.tf" horiz-adv-x="570" 
d="M404 362c79 -31 128 -94 128 -175c0 -126 -99 -198 -247 -198s-247 72 -247 198c0 81 49 144 128 175c-63 30 -104 87 -104 160c0 122 96 189 223 189s223 -67 223 -189c0 -73 -41 -130 -104 -160zM115 522c0 -83 65 -137 170 -137s170 54 170 137c0 88 -65 138 -170 138
s-170 -50 -170 -138zM285 40c126 0 193 57 193 147c0 89 -67 146 -193 146s-193 -57 -193 -146c0 -90 67 -147 193 -147z" />
    <glyph glyph-name="nine.tf" horiz-adv-x="570" 
d="M543 481c0 -55 -16 -103 -44 -141l-247 -340h-63l189 261c-27 -7 -55 -11 -86 -11c-153 0 -252 94 -252 231c0 136 99 230 252 230c152 0 251 -94 251 -230zM93 481c0 -105 71 -180 199 -180c127 0 198 75 198 180c0 104 -71 179 -198 179c-128 0 -199 -75 -199 -179z
" />
    <glyph glyph-name="fraction" unicode="&#x2044;" horiz-adv-x="227" 
d="M-67 0h-46l406 700h47z" />
    <glyph glyph-name="onehalf" unicode="&#xbd;" horiz-adv-x="815" 
d="M135 300v348l-112 -60v52l112 60h48v-400h-48zM539 700h47l-407 -700h-46zM577 46h205v-46h-276v39l175 163c29 26 45 61 45 91c0 40 -31 73 -82 73c-55 0 -88 -31 -88 -78h-48c0 75 56 124 136 124c79 0 130 -55 130 -119c0 -46 -20 -85 -60 -122z" />
    <glyph glyph-name="onequarter" unicode="&#xbc;" horiz-adv-x="829" 
d="M135 300v348l-112 -60v52l112 60h48v-400h-48zM539 700h47l-407 -700h-46zM805 125v-45h-54v-80h-48v80h-213v45l150 275h52l-150 -275h161v104h48v-104h54z" />
    <glyph glyph-name="threequarters" unicode="&#xbe;" horiz-adv-x="931" 
d="M312 415c0 -73 -54 -127 -142 -127s-142 54 -142 127h48c0 -46 32 -81 94 -81c63 0 94 35 94 81s-33 82 -94 82h-26v36l96 121h-195v46h251v-46l-96 -119c72 -10 112 -57 112 -120zM642 700h47l-407 -700h-46zM908 125v-45h-54v-80h-48v80h-213v45l150 275h52l-150 -275
h161v104h48v-104h54z" />
    <glyph glyph-name="oneeighth" unicode="&#x215b;" horiz-adv-x="815" 
d="M135 300v348l-112 -60v52l112 60h48v-400h-48zM539 700h47l-407 -700h-46zM715 210c42 -19 70 -57 70 -106c0 -71 -58 -116 -141 -116s-142 45 -142 116c0 49 28 87 71 106c-34 18 -58 49 -58 90c0 72 59 112 129 112c69 0 128 -40 128 -112c0 -41 -24 -72 -57 -90z
M644 367c-49 0 -81 -25 -81 -67c0 -41 33 -68 81 -68c47 0 80 27 80 68c0 42 -32 67 -80 67zM644 34c58 0 93 30 93 76c0 47 -39 76 -93 76c-57 0 -94 -29 -94 -76c0 -46 36 -76 94 -76z" />
    <glyph glyph-name="threeeighths" unicode="&#x215c;" horiz-adv-x="917" 
d="M312 415c0 -73 -54 -127 -142 -127s-142 54 -142 127h48c0 -46 32 -81 94 -81c63 0 94 35 94 81s-33 82 -94 82h-26v36l96 121h-195v46h251v-46l-96 -119c72 -10 112 -57 112 -120zM642 700h47l-407 -700h-46zM818 210c42 -19 70 -57 70 -106c0 -71 -58 -116 -141 -116
s-142 45 -142 116c0 49 28 87 71 106c-34 18 -58 49 -58 90c0 72 59 112 129 112c69 0 128 -40 128 -112c0 -41 -24 -72 -57 -90zM747 367c-49 0 -81 -25 -81 -67c0 -41 33 -68 81 -68c47 0 80 27 80 68c0 42 -32 67 -80 67zM747 34c58 0 93 30 93 76c0 47 -39 76 -93 76
c-57 0 -94 -29 -94 -76c0 -46 36 -76 94 -76z" />
    <glyph glyph-name="fiveeighths" unicode="&#x215d;" horiz-adv-x="908" 
d="M303 415c0 -75 -53 -127 -140 -127c-86 0 -139 52 -139 127h48c0 -49 35 -81 91 -81c57 0 92 32 92 81c0 52 -35 84 -92 84h-120l15 201h229v-45h-186l-8 -110h72c82 0 138 -52 138 -130zM632 700h47l-407 -700h-46zM808 210c42 -19 70 -57 70 -106
c0 -71 -58 -116 -141 -116s-142 45 -142 116c0 49 28 87 71 106c-34 18 -58 49 -58 90c0 72 59 112 129 112c69 0 128 -40 128 -112c0 -41 -24 -72 -57 -90zM737 367c-49 0 -81 -25 -81 -67c0 -41 33 -68 81 -68c47 0 80 27 80 68c0 42 -32 67 -80 67zM737 34
c58 0 93 30 93 76c0 47 -39 76 -93 76c-57 0 -94 -29 -94 -76c0 -46 36 -76 94 -76z" />
    <glyph glyph-name="seveneighths" unicode="&#x215e;" horiz-adv-x="878" 
d="M283 700v-39l-155 -361h-51l153 354h-213v46h266zM602 700h47l-407 -700h-46zM778 210c42 -19 70 -57 70 -106c0 -71 -58 -116 -141 -116s-142 45 -142 116c0 49 28 87 71 106c-34 18 -58 49 -58 90c0 72 59 112 129 112c69 0 128 -40 128 -112c0 -41 -24 -72 -57 -90z
M707 367c-49 0 -81 -25 -81 -67c0 -41 33 -68 81 -68c47 0 80 27 80 68c0 42 -32 67 -80 67zM707 34c58 0 93 30 93 76c0 47 -39 76 -93 76c-57 0 -94 -29 -94 -76c0 -46 36 -76 94 -76z" />
    <glyph glyph-name="zero.dnom" horiz-adv-x="410" 
d="M205 -12c-108 0 -172 86 -172 212s64 212 172 212s172 -86 172 -212s-64 -212 -172 -212zM205 34c77 0 124 60 124 166s-47 166 -124 166s-124 -60 -124 -166s47 -166 124 -166z" />
    <glyph glyph-name="one.dnom" horiz-adv-x="246" 
d="M135 400h48v-400h-48v348l-112 -60v52z" />
    <glyph glyph-name="two.dnom" horiz-adv-x="342" 
d="M33 0v39l175 163c29 26 45 61 45 91c0 40 -31 73 -82 73c-55 0 -88 -31 -88 -78h-48c0 75 56 124 136 124c79 0 130 -55 130 -119c0 -46 -20 -85 -60 -122l-137 -125h205v-46h-276z" />
    <glyph glyph-name="three.dnom" horiz-adv-x="349" 
d="M200 235c72 -10 112 -57 112 -120c0 -73 -54 -127 -142 -127s-142 54 -142 127h48c0 -46 32 -81 94 -81c63 0 94 35 94 81s-33 82 -94 82h-26v36l96 121h-195v46h251v-46z" />
    <glyph glyph-name="four.dnom" horiz-adv-x="356" 
d="M332 125v-45h-54v-80h-48v80h-213v45l150 275h52l-150 -275h161v104h48v-104h54z" />
    <glyph glyph-name="five.dnom" horiz-adv-x="339" 
d="M164 245c83 0 139 -52 139 -130c0 -75 -53 -127 -140 -127s-140 52 -140 127h48c0 -49 36 -81 92 -81c57 0 92 32 92 81c0 52 -35 84 -92 84h-120l15 201h229v-45h-186l-8 -110h71z" />
    <glyph glyph-name="six.dnom" horiz-adv-x="335" 
d="M167 260c82 0 145 -58 145 -135c0 -79 -63 -137 -145 -137c-81 0 -144 58 -144 137c0 26 7 49 19 69l133 206h57l-96 -143c10 2 20 3 31 3zM167 34c57 0 97 37 97 91c0 53 -40 89 -97 89c-56 0 -96 -36 -96 -89c0 -54 40 -91 96 -91z" />
    <glyph glyph-name="seven.dnom" horiz-adv-x="309" 
d="M17 400h266v-39l-155 -361h-51l153 354h-213v46z" />
    <glyph glyph-name="eight.dnom" horiz-adv-x="342" 
d="M242 210c42 -19 70 -57 70 -106c0 -71 -58 -116 -141 -116s-142 45 -142 116c0 49 28 87 71 106c-34 18 -58 49 -58 90c0 72 59 112 129 112c69 0 128 -40 128 -112c0 -41 -24 -72 -57 -90zM171 367c-49 0 -81 -25 -81 -67c0 -41 33 -68 81 -68c47 0 80 27 80 68
c0 42 -32 67 -80 67zM171 34c58 0 93 30 93 76c0 47 -39 76 -93 76c-57 0 -94 -29 -94 -76c0 -46 36 -76 94 -76z" />
    <glyph glyph-name="nine.dnom" horiz-adv-x="335" 
d="M312 275c0 -26 -7 -49 -19 -69l-133 -206h-57l96 143c-10 -2 -20 -3 -31 -3c-82 0 -145 58 -145 135c0 79 63 137 145 137c81 0 144 -58 144 -137zM71 275c0 -53 40 -89 97 -89c56 0 96 36 96 89c0 54 -40 91 -96 91c-57 0 -97 -37 -97 -91z" />
    <glyph glyph-name="zero.numr" horiz-adv-x="410" 
d="M205 288c-108 0 -172 86 -172 212s64 212 172 212s172 -86 172 -212s-64 -212 -172 -212zM205 334c77 0 124 60 124 166s-47 166 -124 166s-124 -60 -124 -166s47 -166 124 -166z" />
    <glyph glyph-name="one.numr" horiz-adv-x="246" 
d="M135 700h48v-400h-48v348l-112 -60v52z" />
    <glyph glyph-name="two.numr" horiz-adv-x="342" 
d="M33 300v39l175 163c29 26 45 61 45 91c0 40 -31 73 -82 73c-55 0 -88 -31 -88 -78h-48c0 75 56 124 136 124c79 0 130 -55 130 -119c0 -46 -20 -85 -60 -122l-137 -125h205v-46h-276z" />
    <glyph glyph-name="three.numr" horiz-adv-x="349" 
d="M200 535c72 -10 112 -57 112 -120c0 -73 -54 -127 -142 -127s-142 54 -142 127h48c0 -46 32 -81 94 -81c63 0 94 35 94 81s-33 82 -94 82h-26v36l96 121h-195v46h251v-46z" />
    <glyph glyph-name="four.numr" horiz-adv-x="356" 
d="M332 425v-45h-54v-80h-48v80h-213v45l150 275h52l-150 -275h161v104h48v-104h54z" />
    <glyph glyph-name="five.numr" horiz-adv-x="339" 
d="M164 545c83 0 139 -52 139 -130c0 -75 -53 -127 -140 -127s-140 52 -140 127h48c0 -49 36 -81 92 -81c57 0 92 32 92 81c0 52 -35 84 -92 84h-120l15 201h229v-45h-186l-8 -110h71z" />
    <glyph glyph-name="six.numr" horiz-adv-x="335" 
d="M167 560c82 0 145 -58 145 -135c0 -79 -63 -137 -145 -137c-81 0 -144 58 -144 137c0 26 7 49 19 69l133 206h57l-96 -143c10 2 20 3 31 3zM167 334c57 0 97 37 97 91c0 53 -40 89 -97 89c-56 0 -96 -36 -96 -89c0 -54 40 -91 96 -91z" />
    <glyph glyph-name="seven.numr" horiz-adv-x="309" 
d="M17 700h266v-39l-155 -361h-51l153 354h-213v46z" />
    <glyph glyph-name="eight.numr" horiz-adv-x="342" 
d="M242 510c42 -19 70 -57 70 -106c0 -71 -58 -116 -141 -116s-142 45 -142 116c0 49 28 87 71 106c-34 18 -58 49 -58 90c0 72 59 112 129 112c69 0 128 -40 128 -112c0 -41 -24 -72 -57 -90zM171 667c-49 0 -81 -25 -81 -67c0 -41 33 -68 81 -68c47 0 80 27 80 68
c0 42 -32 67 -80 67zM171 334c58 0 93 30 93 76c0 47 -39 76 -93 76c-57 0 -94 -29 -94 -76c0 -46 36 -76 94 -76z" />
    <glyph glyph-name="nine.numr" horiz-adv-x="335" 
d="M312 575c0 -26 -7 -49 -19 -69l-133 -206h-57l96 143c-10 -2 -20 -3 -31 -3c-82 0 -145 58 -145 135c0 79 63 137 145 137c81 0 144 -58 144 -137zM71 575c0 -53 40 -89 97 -89c56 0 96 36 96 89c0 54 -40 91 -96 91c-57 0 -97 -37 -97 -91z" />
    <glyph glyph-name="zero.sups" horiz-adv-x="410" 
d="M205 448c-108 0 -172 86 -172 212s64 212 172 212s172 -86 172 -212s-64 -212 -172 -212zM205 494c77 0 124 60 124 166s-47 166 -124 166s-124 -60 -124 -166s47 -166 124 -166z" />
    <glyph glyph-name="one.sups" horiz-adv-x="246" 
d="M135 860h48v-400h-48v348l-112 -60v52z" />
    <glyph glyph-name="two.sups" horiz-adv-x="342" 
d="M33 460v39l175 163c29 26 45 61 45 91c0 40 -31 73 -82 73c-55 0 -88 -31 -88 -78h-48c0 75 56 124 136 124c79 0 130 -55 130 -119c0 -46 -20 -85 -60 -122l-137 -125h205v-46h-276z" />
    <glyph glyph-name="three.sups" horiz-adv-x="349" 
d="M200 695c72 -10 112 -57 112 -120c0 -73 -54 -127 -142 -127s-142 54 -142 127h48c0 -46 32 -81 94 -81c63 0 94 35 94 81s-33 82 -94 82h-26v36l96 121h-195v46h251v-46z" />
    <glyph glyph-name="four.sups" horiz-adv-x="356" 
d="M332 585v-45h-54v-80h-48v80h-213v45l150 275h52l-150 -275h161v104h48v-104h54z" />
    <glyph glyph-name="five.sups" horiz-adv-x="339" 
d="M164 705c83 0 139 -52 139 -130c0 -75 -53 -127 -140 -127s-140 52 -140 127h48c0 -49 36 -81 92 -81c57 0 92 32 92 81c0 52 -35 84 -92 84h-120l15 201h229v-45h-186l-8 -110h71z" />
    <glyph glyph-name="six.sups" horiz-adv-x="335" 
d="M167 720c82 0 145 -58 145 -135c0 -79 -63 -137 -145 -137c-81 0 -144 58 -144 137c0 26 7 49 19 69l133 206h57l-96 -143c10 2 20 3 31 3zM167 494c57 0 97 37 97 91c0 53 -40 89 -97 89c-56 0 -96 -36 -96 -89c0 -54 40 -91 96 -91z" />
    <glyph glyph-name="seven.sups" horiz-adv-x="309" 
d="M17 860h266v-39l-155 -361h-51l153 354h-213v46z" />
    <glyph glyph-name="eight.sups" horiz-adv-x="342" 
d="M242 670c42 -19 70 -57 70 -106c0 -71 -58 -116 -141 -116s-142 45 -142 116c0 49 28 87 71 106c-34 18 -58 49 -58 90c0 72 59 112 129 112c69 0 128 -40 128 -112c0 -41 -24 -72 -57 -90zM171 827c-49 0 -81 -25 -81 -67c0 -41 33 -68 81 -68c47 0 80 27 80 68
c0 42 -32 67 -80 67zM171 494c58 0 93 30 93 76c0 47 -39 76 -93 76c-57 0 -94 -29 -94 -76c0 -46 36 -76 94 -76z" />
    <glyph glyph-name="nine.sups" horiz-adv-x="335" 
d="M312 735c0 -26 -7 -49 -19 -69l-133 -206h-57l96 143c-10 -2 -20 -3 -31 -3c-82 0 -145 58 -145 135c0 79 63 137 145 137c81 0 144 -58 144 -137zM71 735c0 -53 40 -89 97 -89c56 0 96 36 96 89c0 54 -40 91 -96 91c-57 0 -97 -37 -97 -91z" />
    <glyph glyph-name="asterisk" unicode="*" horiz-adv-x="387" 
d="M323 611v-43l-95 2l53 -79l-39 -23l-49 84l-48 -84l-40 23l53 79l-95 -2v43l95 -2l-53 79l40 23l48 -83l49 83l39 -23l-53 -79z" />
    <glyph glyph-name="backslash" unicode="\" horiz-adv-x="527" 
d="M443 -100l-400 900h40l400 -900h-40z" />
    <glyph glyph-name="periodcentered" unicode="&#xb7;" horiz-adv-x="213" 
d="M73 310v80h67v-80h-67z" />
    <glyph glyph-name="bullet" unicode="&#x2022;" horiz-adv-x="280" 
d="M141 263c-49 0 -88 39 -88 88c0 48 39 86 88 86c48 0 86 -38 86 -86c0 -49 -38 -88 -86 -88z" />
    <glyph glyph-name="colon" unicode=":" horiz-adv-x="213" 
d="M73 420v80h67v-80h-67zM73 0v80h67v-80h-67z" />
    <glyph glyph-name="comma" unicode="," horiz-adv-x="220" 
d="M80 80h67v-93c0 -65 -26 -104 -74 -113v32c22 10 37 26 37 81h-30v93z" />
    <glyph glyph-name="ellipsis" unicode="&#x2026;" horiz-adv-x="593" 
d="M73 0v80h67v-80h-67zM263 0v80h67v-80h-67zM453 0v80h67v-80h-67z" />
    <glyph glyph-name="exclam" unicode="!" horiz-adv-x="220" 
d="M90 180l-10 320v200h60v-200l-10 -320h-40zM77 0v80h66v-80h-66z" />
    <glyph glyph-name="exclamdown" unicode="&#xa1;" horiz-adv-x="220" 
d="M77 500h66v-80h-66v80zM90 320h40l10 -320v-200h-60v200z" />
    <glyph glyph-name="numbersign" unicode="#" horiz-adv-x="603" 
d="M559 417h-119l-22 -134h120l-8 -46h-120l-31 -187h-50l31 187h-154l-31 -187h-50l31 187h-119l7 46h120l22 134h-120l7 46h121l31 187h50l-31 -187h154l31 187h50l-31 -187h119zM368 283l22 134h-154l-22 -134h154z" />
    <glyph glyph-name="period" unicode="." horiz-adv-x="213" 
d="M73 0v80h67v-80h-67z" />
    <glyph glyph-name="question" unicode="?" horiz-adv-x="532" 
d="M218 180c0 176 197 218 197 351c0 84 -62 129 -152 129c-94 0 -166 -52 -166 -140h-54c0 122 105 191 220 191c112 0 205 -62 205 -180c0 -151 -196 -198 -196 -351h-54zM212 0v80h66v-80h-66z" />
    <glyph glyph-name="questiondown" unicode="&#xbf;" horiz-adv-x="528" 
d="M317 500v-80h-67v80h67zM310 320c0 -176 -197 -218 -197 -351c0 -84 62 -129 153 -129c93 0 166 52 166 140h53c0 -122 -104 -191 -219 -191c-113 0 -206 62 -206 180c0 151 197 198 197 351h53z" />
    <glyph glyph-name="quotedbl" unicode="&#x22;" horiz-adv-x="293" 
d="M60 513l-7 187h54l-7 -187h-40zM193 513l-6 187h53l-7 -187h-40z" />
    <glyph glyph-name="quotesingle" unicode="'" horiz-adv-x="157" 
d="M60 513l-7 187h54l-7 -187h-40z" />
    <glyph glyph-name="semicolon" unicode=";" horiz-adv-x="220" 
d="M80 500h67v-80h-67v80zM80 -13v93h67v-93c0 -65 -26 -104 -74 -113v32c22 10 37 26 37 81h-30z" />
    <glyph glyph-name="slash" unicode="/" horiz-adv-x="527" 
d="M83 -100h-40l400 900h40z" />
    <glyph glyph-name="underscore" unicode="_" horiz-adv-x="507" 
d="M40 -133v48h427v-48h-427z" />
    <glyph glyph-name="braceleft" unicode="{" horiz-adv-x="352" 
d="M329 -108c-108 -10 -167 41 -167 148v187c0 81 -36 100 -109 100v48c73 0 109 19 109 100v187c0 107 59 158 167 148v-49c-79 9 -116 -18 -116 -99v-187c0 -74 -28 -111 -80 -124c52 -13 80 -50 80 -124v-187c0 -81 37 -108 116 -100v-48z" />
    <glyph glyph-name="braceright" unicode="}" horiz-adv-x="352" 
d="M23 -108v48c79 -8 116 19 116 100v187c0 74 28 111 80 124c-52 13 -80 50 -80 124v187c0 81 -37 108 -116 99v49c108 10 167 -41 167 -148v-187c0 -81 36 -100 109 -100v-48c-73 0 -109 -19 -109 -100v-187c0 -107 -59 -158 -167 -148z" />
    <glyph glyph-name="bracketleft" unicode="[" horiz-adv-x="260" 
d="M257 751h-143v-802h143v-49h-184h-10v900h51h143v-49z" />
    <glyph glyph-name="bracketright" unicode="]" horiz-adv-x="260" 
d="M197 800v-900h-51h-143v49h143v802h-143v49h194z" />
    <glyph glyph-name="parenleft" unicode="(" horiz-adv-x="261" 
d="M170 -100c-70 140 -110 290 -110 450s40 310 110 450h51c-70 -140 -110 -290 -110 -450s40 -310 110 -450h-51z" />
    <glyph glyph-name="parenright" unicode=")" horiz-adv-x="261" 
d="M91 -100h-51c70 140 110 290 110 450s-40 310 -110 450h51c70 -140 110 -290 110 -450s-40 -310 -110 -450z" />
    <glyph glyph-name="emdash" unicode="&#x2014;" horiz-adv-x="773" 
d="M87 285v48h600v-48h-600z" />
    <glyph glyph-name="endash" unicode="&#x2013;" horiz-adv-x="673" 
d="M87 285v48h500v-48h-500z" />
    <glyph glyph-name="hyphen" unicode="-" horiz-adv-x="533" 
d="M87 285v48h360v-48h-360z" />
    <glyph glyph-name="guillemotleft" unicode="&#xab;" horiz-adv-x="469" 
d="M249 482l-107 -173l107 -173h-62l-107 173l107 173h62zM389 482l-106 -173l106 -173h-62l-106 173l106 173h62z" />
    <glyph glyph-name="guillemotright" unicode="&#xbb;" horiz-adv-x="469" 
d="M142 482l107 -173l-107 -173h-62l107 173l-107 173h62zM283 482l106 -173l-106 -173h-62l106 173l-106 173h62z" />
    <glyph glyph-name="guilsinglleft" unicode="&#x2039;" horiz-adv-x="329" 
d="M249 482l-107 -173l107 -173h-62l-107 173l107 173h62z" />
    <glyph glyph-name="guilsinglright" unicode="&#x203a;" horiz-adv-x="329" 
d="M142 482l107 -173l-107 -173h-62l107 173l-107 173h62z" />
    <glyph glyph-name="quotedblbase" unicode="&#x201e;" horiz-adv-x="347" 
d="M80 -13v93h67v-93c0 -65 -26 -104 -74 -113v32c22 10 37 26 37 81h-30zM207 80h66v-93c0 -65 -25 -104 -73 -113v32c21 10 37 26 37 81h-30v93z" />
    <glyph glyph-name="quotedblleft" unicode="&#x201c;" horiz-adv-x="347" 
d="M74 592c0 65 25 104 73 113v-32c-21 -10 -37 -26 -37 -81h30v-93h-66v93zM273 673c-21 -10 -36 -26 -36 -81h30v-93h-67v93c0 65 25 104 73 113v-32z" />
    <glyph glyph-name="quotedblright" unicode="&#x201d;" horiz-adv-x="347" 
d="M80 607v93h67v-93c0 -65 -26 -104 -74 -113v32c22 10 37 26 37 81h-30zM207 700h66v-93c0 -65 -25 -104 -73 -113v32c21 10 37 26 37 81h-30v93z" />
    <glyph glyph-name="quoteleft" unicode="&#x2018;" horiz-adv-x="220" 
d="M147 673c-22 -10 -37 -26 -37 -81h30v-93h-67v93c0 65 26 104 74 113v-32z" />
    <glyph glyph-name="quoteright" unicode="&#x2019;" horiz-adv-x="220" 
d="M80 700h67v-93c0 -65 -26 -104 -74 -113v32c22 10 37 26 37 81h-30v93z" />
    <glyph glyph-name="quotesinglbase" unicode="&#x201a;" horiz-adv-x="220" 
d="M80 80h67v-93c0 -65 -26 -104 -74 -113v32c22 10 37 26 37 81h-30v93z" />
    <glyph glyph-name="space" unicode=" " horiz-adv-x="267" 
 />
    <glyph glyph-name="cent" unicode="&#xa2;" horiz-adv-x="576" 
d="M306 137c85 0 156 47 183 116h53c-28 -98 -123 -164 -236 -164c-26 0 -50 3 -73 9l-33 -98h-40l37 111c-93 40 -154 130 -154 239c0 148 112 261 263 261c18 0 36 -2 53 -5l31 94h40l-34 -104c71 -25 125 -79 146 -149h-53c-19 47 -58 85 -108 103l-133 -405
c18 -5 38 -8 58 -8zM94 350c0 -85 47 -158 118 -192l132 402c-12 2 -25 3 -38 3c-121 0 -212 -94 -212 -213z" />
    <glyph glyph-name="currency" unicode="&#xa4;" horiz-adv-x="553" 
d="M489 350c0 -53 -19 -100 -50 -137l70 -70l-26 -26l-70 70c-37 -30 -84 -48 -137 -48c-52 0 -99 18 -136 48l-71 -70l-26 26l71 70c-31 36 -50 84 -50 137s19 101 50 137l-71 70l26 26l71 -70c37 30 84 48 136 48c53 0 100 -18 137 -48l70 70l26 -26l-70 -70
c31 -37 50 -84 50 -137zM115 350c0 -91 70 -163 161 -163s162 72 162 163s-71 163 -162 163s-161 -72 -161 -163z" />
    <glyph glyph-name="dollar" unicode="$" horiz-adv-x="550" 
d="M507 168c0 -110 -95 -175 -209 -179v-89h-46v90c-119 12 -209 83 -209 202h54c0 -86 60 -140 155 -150v296c-97 37 -193 82 -193 201c0 103 88 165 193 172v89h46v-90c104 -10 191 -81 191 -190h-53c0 76 -58 129 -138 138v-285c102 -39 209 -83 209 -205zM113 539
c0 -78 63 -116 139 -147v267c-81 -6 -139 -50 -139 -120zM298 40c91 4 155 52 155 128c0 83 -72 121 -155 153v-281z" />
    <glyph glyph-name="Euro" unicode="&#x20ac;" horiz-adv-x="621" 
d="M533 223h54c-20 -144 -107 -234 -239 -234c-145 0 -235 109 -256 279h-82v45h78c-1 12 -1 24 -1 37c0 15 0 29 1 43h-78v44h82c23 167 112 274 256 274c131 0 217 -88 238 -228h-54c-19 113 -86 177 -184 177c-109 0 -182 -81 -202 -223h267v-44h-272
c-1 -14 -1 -28 -1 -43c0 -13 0 -25 1 -37h272v-45h-268c20 -145 93 -228 203 -228c99 0 168 66 185 183z" />
    <glyph glyph-name="florin" unicode="&#x192;" horiz-adv-x="436" 
d="M249 577c18 112 96 155 187 126v-50c-70 29 -124 -4 -137 -77l-34 -201h120v-49h-128l-69 -403c-19 -112 -97 -155 -188 -126v50c71 -29 125 4 137 77l69 402h-115v49h123z" />
    <glyph glyph-name="uni20BD" unicode="&#x20bd;" horiz-adv-x="577" 
d="M343 287h-186v-104h266v-44h-266v-139h-54v139h-90v44h90v104h-90v50h90v363h54h186c114 0 207 -93 207 -207c0 -113 -93 -206 -207 -206zM157 650v-313h186c85 0 154 70 154 156c0 87 -69 157 -154 157h-186z" />
    <glyph glyph-name="sterling" unicode="&#xa3;" horiz-adv-x="590" 
d="M196 51h377v-51h-530v51h100v235h-80v48h80v176c0 132 97 201 201 201c101 0 202 -69 202 -201v-23h-53v23c0 98 -69 150 -149 150c-82 0 -148 -52 -148 -150v-176h241v-48h-241v-235z" />
    <glyph glyph-name="yen" unicode="&#xa5;" horiz-adv-x="570" 
d="M557 700l-235 -356h175v-45h-186v-77h186v-44h-186v-178h-53v178h-184v44h184v77h-184v45h174l-235 356h60l212 -322l212 322h60z" />
    <glyph glyph-name="cent.tf" horiz-adv-x="570" 
d="M304 137c85 0 156 47 183 116h53c-28 -98 -123 -164 -236 -164c-26 0 -50 3 -73 9l-33 -98h-40l37 111c-93 40 -154 130 -154 239c0 148 112 261 263 261c18 0 36 -2 53 -5l31 94h40l-34 -104c71 -25 125 -79 146 -149h-53c-19 47 -58 85 -108 103l-133 -405
c18 -5 38 -8 58 -8zM92 350c0 -85 47 -158 118 -192l132 402c-12 2 -25 3 -38 3c-121 0 -212 -94 -212 -213z" />
    <glyph glyph-name="dollar.tf" horiz-adv-x="570" 
d="M527 171c0 -110 -95 -178 -219 -182v-89h-46v90c-128 11 -219 82 -219 202h54c0 -87 62 -141 165 -150v294c-105 37 -203 80 -203 200c0 103 89 168 203 175v89h46v-90c113 -9 201 -80 201 -190h-53c0 77 -59 130 -148 139v-284c112 -39 219 -81 219 -204zM113 536
c0 -79 64 -113 149 -144v267c-90 -6 -149 -53 -149 -123zM308 40c101 4 165 55 165 131c0 83 -72 116 -165 149v-280z" />
    <glyph glyph-name="Euro.tf" horiz-adv-x="570" 
d="M488 223h54c-11 -144 -102 -234 -224 -234c-137 0 -222 109 -242 279h-68v45h64c-1 12 -1 24 -1 37c0 15 0 29 1 43h-64v44h68c22 167 106 274 242 274c120 0 211 -88 222 -228h-54c-8 113 -81 177 -168 177c-101 0 -169 -81 -188 -223h258v-44h-262
c-1 -14 -2 -28 -2 -43c0 -13 1 -25 1 -37h263v-45h-259c18 -145 87 -228 189 -228c88 0 162 66 170 183z" />
    <glyph glyph-name="florin.tf" horiz-adv-x="570" 
d="M537 653c-81 29 -130 -5 -148 -77l-48 -201h153v-49h-165l-98 -403c-27 -111 -97 -155 -198 -126v50c81 -29 130 5 147 77l98 402h-152v49h164l49 202c27 111 97 155 198 126v-50z" />
    <glyph glyph-name="uni20BD.tf" horiz-adv-x="570" 
d="M333 287h-180v-104h260v-44h-260v-139h-53v139h-90v44h90v104h-90v50h90v363h53h180c114 0 207 -93 207 -207c0 -113 -93 -206 -207 -206zM153 650v-313h180c85 0 154 70 154 156c0 87 -69 157 -154 157h-180z" />
    <glyph glyph-name="sterling.tf" horiz-adv-x="570" 
d="M153 51h377v-51h-530v51h99v235h-79v48h79v176c0 132 98 201 202 201c101 0 202 -69 202 -201v-23h-54v23c0 98 -69 150 -148 150c-83 0 -148 -52 -148 -150v-176h240v-48h-240v-235z" />
    <glyph glyph-name="yen.tf" horiz-adv-x="570" 
d="M557 700l-234 -356h175v-45h-186v-77h186v-44h-186v-178h-54v178h-184v44h184v77h-184v45h174l-234 356h58l213 -324l213 324h59z" />
    <glyph glyph-name="approxequal" unicode="&#x2248;" horiz-adv-x="587" 
d="M282 409c-114 74 -156 23 -173 -40l-46 22c26 85 102 152 242 60c115 -75 156 -23 172 40l46 -22c-25 -85 -99 -153 -241 -60zM109 209l-46 22c26 85 102 152 242 60c115 -75 156 -23 172 40l46 -22c-25 -85 -99 -153 -241 -60c-114 74 -156 23 -173 -40z" />
    <glyph glyph-name="asciitilde" unicode="~" horiz-adv-x="587" 
d="M477 411l46 -22c-25 -85 -100 -153 -241 -60c-114 75 -156 23 -173 -40l-46 22c26 85 102 152 242 60c115 -75 156 -23 172 40z" />
    <glyph glyph-name="divide" unicode="&#xf7;" horiz-adv-x="580" 
d="M290 492c-25 0 -45 20 -45 45s20 45 45 45s45 -20 45 -45s-20 -45 -45 -45zM63 326v48h454v-48h-454zM290 118c-25 0 -45 20 -45 45s20 45 45 45s45 -20 45 -45s-20 -45 -45 -45z" />
    <glyph glyph-name="emptyset" unicode="&#x2205;" horiz-adv-x="817" 
d="M655 615c71 -66 116 -160 116 -265c0 -200 -162 -361 -362 -361c-81 0 -155 26 -215 70l-65 -79h-55l88 105c-71 66 -115 160 -115 265c0 200 162 361 362 361c80 0 154 -26 214 -70l65 79h55zM93 350c0 -91 38 -172 98 -230l403 487c-52 37 -116 60 -185 60
c-175 0 -316 -141 -316 -317zM409 33c175 0 315 141 315 317c0 91 -37 172 -97 230l-404 -487c52 -37 116 -60 186 -60z" />
    <glyph glyph-name="equal" unicode="=" horiz-adv-x="537" 
d="M63 426v48h410v-48h-410zM63 226v48h410v-48h-410z" />
    <glyph glyph-name="greater" unicode="&#x3e;" horiz-adv-x="527" 
d="M63 554l400 -178v-52l-400 -178v56l343 148l-343 148v56z" />
    <glyph glyph-name="greaterequal" unicode="&#x2265;" horiz-adv-x="527" 
d="M63 593l400 -158v-50l-400 -158v56l338 127l-338 127v56zM63 107v48h400v-48h-400z" />
    <glyph glyph-name="infinity" unicode="&#x221e;" horiz-adv-x="806" 
d="M590 507c89 0 156 -66 156 -157s-67 -157 -156 -157c-87 0 -144 63 -186 118c-43 -55 -101 -118 -188 -118c-89 0 -156 66 -156 157s67 157 156 157c87 0 145 -63 188 -118c42 55 99 118 186 118zM217 239c68 0 117 56 157 111c-40 55 -89 111 -157 111
c-63 0 -107 -46 -107 -111s44 -111 107 -111zM590 239c63 0 107 46 107 111s-44 111 -107 111c-67 0 -116 -56 -157 -111c41 -55 90 -111 157 -111z" />
    <glyph glyph-name="integral" unicode="&#x222b;" horiz-adv-x="436" 
d="M0 -203v50c71 -29 118 4 131 77l112 653c19 112 90 155 193 125v-49c-82 29 -130 -3 -143 -77l-111 -653c-19 -112 -91 -155 -182 -126z" />
    <glyph glyph-name="less" unicode="&#x3c;" horiz-adv-x="527" 
d="M463 554v-56l-342 -148l342 -148v-56l-400 178v52z" />
    <glyph glyph-name="lessequal" unicode="&#x2264;" horiz-adv-x="527" 
d="M463 593v-56l-337 -127l337 -127v-56l-400 158v50zM63 107v48h400v-48h-400z" />
    <glyph glyph-name="logicalnot" unicode="&#xac;" horiz-adv-x="520" 
d="M63 382h394v-49v-124h-51v124h-343v49z" />
    <glyph glyph-name="uni00B5" unicode="&#xb5;" horiz-adv-x="567" 
d="M501 49h33v-49h-38c-49 0 -82 30 -86 78c-38 -67 -99 -89 -162 -89c-50 0 -92 19 -121 56v-245h-50v700h50v-330c0 -86 53 -133 126 -133c78 0 156 53 156 181v282h51v-410c0 -26 16 -41 41 -41z" />
    <glyph glyph-name="minus" unicode="&#x2212;" horiz-adv-x="540" 
d="M63 326v48h414v-48h-414z" />
    <glyph glyph-name="multiply" unicode="&#xd7;" horiz-adv-x="469" 
d="M412 494l-144 -144l144 -144l-35 -32l-143 143l-143 -143l-34 32l144 144l-144 144l34 32l143 -143l143 143z" />
    <glyph glyph-name="notequal" unicode="&#x2260;" horiz-adv-x="537" 
d="M473 426h-149l-68 -152h217v-48h-239l-70 -154h-40l70 154h-131v48h153l68 152h-221v48h244l69 154h40l-69 -154h126v-48z" />
    <glyph glyph-name="partialdiff" unicode="&#x2202;" horiz-adv-x="577" 
d="M233 711c156 0 281 -140 281 -361c0 -234 -111 -361 -256 -361c-129 0 -205 93 -205 211c0 135 84 230 227 230c63 0 127 -18 183 -56c-7 157 -90 288 -230 288c-46 0 -87 -10 -127 -34l-4 47c39 25 82 36 131 36zM258 37c119 0 197 107 205 285c-56 43 -121 59 -183 59
c-106 0 -176 -65 -176 -181c0 -92 54 -163 154 -163z" />
    <glyph glyph-name="percent" unicode="%" horiz-adv-x="756" 
d="M216 413c-88 0 -153 66 -153 149s65 149 153 149s153 -66 153 -149s-63 -149 -153 -149zM103 0l491 700h59l-492 -700h-58zM216 459c61 0 104 45 104 103s-43 103 -104 103c-60 0 -103 -45 -103 -103s43 -103 103 -103zM539 -11c-88 0 -153 66 -153 149s65 149 153 149
s153 -66 153 -149s-65 -149 -153 -149zM539 35c61 0 104 45 104 103s-43 103 -104 103c-60 0 -103 -45 -103 -103s43 -103 103 -103z" />
    <glyph glyph-name="perthousand" unicode="&#x2030;" horiz-adv-x="1102" 
d="M216 413c-88 0 -153 66 -153 149s65 149 153 149s153 -66 153 -149s-63 -149 -153 -149zM103 0l491 700h59l-492 -700h-58zM216 459c61 0 104 45 104 103s-43 103 -104 103c-60 0 -103 -45 -103 -103s43 -103 103 -103zM539 -11c-88 0 -153 66 -153 149s65 149 153 149
s153 -66 153 -149s-65 -149 -153 -149zM903 -11c-88 0 -153 66 -153 149s65 149 153 149s153 -66 153 -149s-65 -149 -153 -149zM539 35c61 0 104 45 104 103s-43 103 -104 103c-60 0 -103 -45 -103 -103s43 -103 103 -103zM903 35c60 0 103 45 103 103s-43 103 -103 103
c-61 0 -104 -45 -104 -103s43 -103 104 -103z" />
    <glyph glyph-name="plus" unicode="+" horiz-adv-x="533" 
d="M470 374v-48h-179v-179h-49v179h-179v48h179v179h49v-179h179z" />
    <glyph glyph-name="plusminus" unicode="&#xb1;" horiz-adv-x="533" 
d="M291 438h179v-49h-179v-169h-49v169h-179v49h179v169h49v-169zM63 93v49h407v-49h-407z" />
    <glyph glyph-name="product" unicode="&#x220f;" horiz-adv-x="640" 
d="M87 -200v900h466v-900h-50v851h-366v-851h-50z" />
    <glyph glyph-name="radical" unicode="&#x221a;" horiz-adv-x="639" 
d="M295 0l-148 251h-84v49h113l140 -240l246 740h54l-267 -800h-54z" />
    <glyph glyph-name="summation" unicode="&#x2211;" horiz-adv-x="541" 
d="M57 -200v49l253 411l-239 390v50h421v-49h-364l240 -391l-253 -411h392v-49h-450z" />
    <glyph glyph-name="arrowup" unicode="&#x2191;" horiz-adv-x="727" 
d="M663 400v-69l-274 275v-606h-51v606l-275 -275v69l300 300z" />
    <glyph glyph-name="uni2197" unicode="&#x2197;" horiz-adv-x="639" 
d="M152 587h424v-424l-48 -48v388l-428 -429l-37 37l429 428h-388z" />
    <glyph glyph-name="arrowright" unicode="&#x2192;" horiz-adv-x="827" 
d="M463 650l300 -300l-300 -300h-69l276 276h-607v48h607l-276 276h69z" />
    <glyph glyph-name="uni2198" unicode="&#x2198;" horiz-adv-x="639" 
d="M528 561l48 -48v-424h-424l-48 48h388l-429 428l37 37l428 -429v388z" />
    <glyph glyph-name="arrowdown" unicode="&#x2193;" horiz-adv-x="727" 
d="M389 94l274 275v-69l-300 -300l-300 300v69l275 -275v606h51v-606z" />
    <glyph glyph-name="uni2199" unicode="&#x2199;" horiz-adv-x="639" 
d="M576 565l-428 -428h388l-49 -48h-424v424l49 48v-388l428 429z" />
    <glyph glyph-name="arrowleft" unicode="&#x2190;" horiz-adv-x="827" 
d="M763 374v-48h-606l275 -276h-69l-300 300l300 300h69l-275 -276h606z" />
    <glyph glyph-name="uni2196" unicode="&#x2196;" horiz-adv-x="639" 
d="M576 111l-36 -37l-428 429v-388l-49 48v424h424l49 -48h-388z" />
    <glyph glyph-name="arrowboth" unicode="&#x2194;" horiz-adv-x="1033" 
d="M724 597l246 -247l-246 -247h-69l222 223h-720l221 -223h-69l-246 247l246 247h69l-221 -223h720l-222 223h69z" />
    <glyph glyph-name="arrowupdn" unicode="&#x2195;" horiz-adv-x="627" 
d="M560 488l-221 221v-718l221 221v-69l-247 -246l-246 246v69l221 -221v718l-221 -221v69l246 246l247 -246v-69z" />
    <glyph glyph-name="lozenge" unicode="&#x25ca;" horiz-adv-x="538" 
d="M243 0l-186 350l186 350h52l186 -350l-186 -350h-52zM269 55l158 295l-158 295l-158 -295z" />
    <glyph glyph-name="bar" unicode="|" horiz-adv-x="224" 
d="M87 -200v920h50v-920h-50z" />
    <glyph glyph-name="brokenbar" unicode="&#xa6;" horiz-adv-x="224" 
d="M87 350v370h50v-370h-50zM87 -200v370h50v-370h-50z" />
    <glyph glyph-name="at" unicode="@" horiz-adv-x="807" 
d="M411 612c223 0 350 -177 350 -342c0 -153 -73 -209 -140 -209c-56 0 -96 33 -105 92c-26 -39 -69 -63 -120 -63c-93 0 -162 70 -162 160s69 160 162 160c50 0 91 -23 118 -60v53h48v-223c0 -49 17 -91 66 -91c58 0 106 55 106 181c0 180 -141 317 -323 317
c-187 0 -338 -145 -338 -337c0 -195 151 -337 356 -337c67 0 123 9 171 28l3 -26c-47 -17 -103 -27 -174 -27c-218 0 -382 152 -382 362c0 200 156 362 364 362zM398 136c64 0 116 46 116 114s-52 114 -116 114s-116 -46 -116 -114s52 -114 116 -114z" />
    <glyph glyph-name="ampersand" unicode="&#x26;" horiz-adv-x="656" 
d="M633 0h-72l-63 63c-47 -45 -114 -74 -211 -74c-134 0 -234 79 -234 201c0 85 47 155 121 197c-34 39 -58 80 -58 141c0 113 94 183 203 183s207 -69 207 -191h-53c0 88 -67 140 -154 140c-88 0 -149 -53 -149 -132c0 -56 32 -97 76 -140l247 -248c29 44 43 103 43 174h53
c0 -70 -14 -149 -58 -212zM287 40c74 0 132 21 174 60l-250 249c-71 -36 -104 -96 -104 -159c0 -91 77 -150 180 -150z" />
    <glyph glyph-name="paragraph" unicode="&#xb6;" horiz-adv-x="570" 
d="M527 700v-47h-60v-853h-50v853h-131v-853h-49v513c-108 0 -194 87 -194 194s86 193 194 193h49h181h60z" />
    <glyph glyph-name="copyright" unicode="&#xa9;" horiz-adv-x="817" 
d="M409 -11c-200 0 -362 161 -362 361s162 361 362 361s362 -161 362 -361s-162 -361 -362 -361zM409 13c185 0 335 150 335 337s-150 337 -335 337s-336 -150 -336 -337s151 -337 336 -337zM412 158c-111 0 -194 85 -194 192s83 192 194 192c89 0 161 -56 180 -136h-52
c-16 57 -70 89 -128 89c-87 0 -144 -68 -144 -145s57 -145 144 -145c58 0 112 32 128 89h52c-19 -80 -91 -136 -180 -136z" />
    <glyph glyph-name="registered" unicode="&#xae;" horiz-adv-x="817" 
d="M409 711c200 0 362 -161 362 -361s-162 -361 -362 -361s-362 161 -362 361s162 361 362 361zM409 13c185 0 335 150 335 337s-150 337 -335 337s-336 -150 -336 -337s151 -337 336 -337zM549 419c0 -52 -24 -91 -75 -107l114 -147h-55l-108 139h-12h-63v-139h-48v370h48
h63c93 0 136 -57 136 -116zM350 350h65c59 0 86 27 86 69c0 41 -29 70 -86 70h-65v-139z" />
    <glyph glyph-name="section" unicode="&#xa7;" horiz-adv-x="520" 
d="M395 135c29 -26 48 -59 48 -104c0 -82 -69 -143 -180 -143s-190 61 -190 164h51c0 -81 62 -115 139 -115c74 0 130 32 130 94c0 71 -86 105 -170 144c-80 37 -166 79 -166 168c0 50 28 93 72 122c-27 27 -46 59 -46 104c0 82 70 142 171 142s179 -60 179 -163h-50
c0 80 -61 115 -129 115c-65 0 -120 -33 -120 -94c0 -71 80 -105 163 -143c79 -37 166 -79 166 -169c0 -50 -27 -93 -68 -122zM107 343c0 -62 66 -94 135 -125c38 -16 78 -33 113 -54c39 24 58 58 58 93c0 63 -68 94 -137 126c-37 16 -75 33 -108 53c-41 -23 -61 -58 -61 -93
z" />
    <glyph glyph-name="trademark" unicode="&#x2122;" horiz-adv-x="478" 
d="M201 700v-31h-59v-169h-33v169h-59v31h151zM428 700v-200h-33v146l-51 -102h-32l-51 102v-146h-33v200h33h8l59 -121l60 121h40z" />
    <glyph glyph-name="degree" unicode="&#xb0;" horiz-adv-x="386" 
d="M193 517c-86 0 -150 65 -150 146s64 147 150 147s150 -66 150 -147s-62 -146 -150 -146zM193 563c59 0 100 44 100 100c0 57 -42 101 -100 101s-100 -44 -100 -101c0 -56 42 -100 100 -100z" />
    <glyph glyph-name="estimated" unicode="&#x212e;" horiz-adv-x="833" 
d="M417 710c221 0 370 -161 370 -360c0 -10 -5 -15 -15 -15h-560c-10 0 -15 -5 -15 -15v-192c0 -8 2 -13 7 -19c54 -57 128 -89 233 -89c99 0 177 36 231 97c5 6 10 9 18 9h37c13 0 18 -9 9 -19c-67 -72 -168 -117 -295 -117c-241 0 -390 161 -390 360s149 360 370 360z
M637 572c0 8 -2 13 -7 19c-54 57 -128 89 -213 89s-159 -32 -213 -89c-5 -6 -7 -11 -7 -19v-192c0 -10 5 -15 15 -15h410c10 0 15 5 15 15v192z" />
    <glyph glyph-name="uni2116" unicode="&#x2116;" horiz-adv-x="966" 
d="M770 418c-86 0 -150 66 -150 147s64 146 150 146s149 -65 149 -146s-61 -147 -149 -147zM490 700h53v-700h-46l-357 594v-594h-53v700h46l357 -594v594zM770 464c58 0 100 44 100 101c0 56 -42 100 -100 100c-59 0 -101 -44 -101 -100c0 -57 42 -101 101 -101zM631 290
v49h277v-49h-277z" />
    <glyph glyph-name="asciicircum" unicode="^" horiz-adv-x="502" 
d="M276 700l176 -300h-59l-142 243l-142 -243h-59l176 300h50z" />
    <glyph glyph-name="dagger" unicode="&#x2020;" horiz-adv-x="473" 
d="M410 527v-48h-148v-479h-51v479h-148v48h148v173h51v-173h148z" />
    <glyph glyph-name="daggerdbl" unicode="&#x2021;" horiz-adv-x="473" 
d="M410 479h-148v-258h148v-48h-148v-173h-51v173h-148v48h148v258h-148v48h148v173h51v-173h148v-48z" />
    <glyph glyph-name="uni0308" unicode="&#x308;" horiz-adv-x="0" 
d="M-273 580v73h60v-73h-60zM-80 580v73h60v-73h-60z" />
    <glyph glyph-name="uni0307" unicode="&#x307;" horiz-adv-x="0" 
d="M-90 580v83h67v-83h-67z" />
    <glyph glyph-name="gravecomb" unicode="&#x300;" horiz-adv-x="0" 
d="M-20 570l-80 127h-60l92 -127h48z" />
    <glyph glyph-name="acutecomb" unicode="&#x301;" horiz-adv-x="0" 
d="M-160 570h49l91 127h-60z" />
    <glyph glyph-name="uni030B" unicode="&#x30b;" horiz-adv-x="0" 
d="M-295 570h51l75 130h-56zM-153 570h51l85 130h-56z" />
    <glyph glyph-name="uni0302" unicode="&#x302;" horiz-adv-x="0" 
d="M-20 570h-57l-80 95l-81 -95h-57l108 127h57h2z" />
    <glyph glyph-name="uni030C" unicode="&#x30c;" horiz-adv-x="0" 
d="M-77 697h57l-108 -127h-56h-3l-108 127h57l81 -95z" />
    <glyph glyph-name="uni0306" unicode="&#x306;" horiz-adv-x="0" 
d="M-160 565c-80 0 -133 46 -133 122h48c0 -52 32 -78 85 -78s85 26 85 78h48c0 -76 -52 -122 -133 -122z" />
    <glyph glyph-name="uni030A" unicode="&#x30a;" horiz-adv-x="0" 
d="M-123 553c-61 0 -102 42 -102 97s41 97 102 97c62 0 103 -42 103 -97s-41 -97 -103 -97zM-123 593c38 0 61 24 61 57s-23 57 -61 57c-37 0 -59 -24 -59 -57s22 -57 59 -57z" />
    <glyph glyph-name="tildecomb" unicode="&#x303;" horiz-adv-x="0" 
d="M-292 583c0 113 69 134 138 74c56 -48 90 -49 90 28h44c0 -112 -69 -134 -138 -74c-56 48 -90 50 -90 -28h-44z" />
    <glyph glyph-name="uni0304" unicode="&#x304;" horiz-adv-x="0" 
d="M-273 587v44h253v-44h-253z" />
    <glyph glyph-name="uni0312" unicode="&#x312;" horiz-adv-x="0" 
d="M-56 960l-25 -170h51l10 170h-36z" />
    <glyph glyph-name="uni0326" unicode="&#x326;" horiz-adv-x="0" 
d="M-45 -240l25 170h-51l-10 -170h36z" />
    <glyph glyph-name="uni0327" unicode="&#x327;" horiz-adv-x="0" 
d="M-111 -56c51 -6 91 -32 91 -75c0 -49 -43 -92 -195 -80v41c101 -10 151 7 151 39c0 29 -33 43 -92 43v88h45v-56z" />
    <glyph glyph-name="uni0328" unicode="&#x328;" horiz-adv-x="0" 
d="M-74 -211c-51 0 -79 29 -79 72c0 41 26 91 79 139h53c-51 -46 -83 -93 -83 -131c0 -25 16 -37 41 -37c16 0 29 3 43 9v-42c-16 -7 -33 -10 -54 -10z" />
    <glyph glyph-name="acute" unicode="&#xb4;" horiz-adv-x="180" 
d="M20 570h49l91 127h-60z" />
    <glyph glyph-name="breve" unicode="&#x2d8;" horiz-adv-x="307" 
d="M153 565c-80 0 -133 46 -133 122h49c0 -52 31 -78 84 -78s85 26 85 78h49c0 -76 -52 -122 -134 -122z" />
    <glyph glyph-name="caron" unicode="&#x2c7;" horiz-adv-x="315" 
d="M238 697h57l-108 -127h-56h-3l-108 127h57l81 -95z" />
    <glyph glyph-name="cedilla" unicode="&#xb8;" horiz-adv-x="228" 
d="M120 -56c52 -6 92 -32 92 -75c0 -49 -44 -92 -195 -80v41c100 -10 150 7 150 39c0 29 -32 43 -91 43v88h44v-56z" />
    <glyph glyph-name="circumflex" unicode="&#x2c6;" horiz-adv-x="315" 
d="M295 570h-57l-80 95l-81 -95h-57l108 127h57h2z" />
    <glyph glyph-name="dieresis" unicode="&#xa8;" horiz-adv-x="293" 
d="M20 580v73h60v-73h-60zM213 580v73h60v-73h-60z" />
    <glyph glyph-name="dotaccent" unicode="&#x2d9;" horiz-adv-x="107" 
d="M20 580v83h67v-83h-67z" />
    <glyph glyph-name="grave" unicode="`" horiz-adv-x="180" 
d="M160 570l-80 127h-60l92 -127h48z" />
    <glyph glyph-name="hungarumlaut" unicode="&#x2dd;" horiz-adv-x="318" 
d="M20 570h51l75 130h-56zM162 570h51l85 130h-56z" />
    <glyph glyph-name="macron" unicode="&#xaf;" horiz-adv-x="293" 
d="M20 587v44h253v-44h-253z" />
    <glyph glyph-name="ogonek" unicode="&#x2db;" horiz-adv-x="173" 
d="M99 -211c-51 0 -79 29 -79 72c0 41 26 91 79 139h53c-51 -46 -83 -93 -83 -131c0 -25 16 -37 41 -37c16 0 29 3 43 9v-42c-16 -7 -33 -10 -54 -10z" />
    <glyph glyph-name="ring" unicode="&#x2da;" horiz-adv-x="245" 
d="M122 553c-61 0 -102 42 -102 97s41 97 102 97c62 0 103 -42 103 -97s-41 -97 -103 -97zM122 593c38 0 61 24 61 57s-23 57 -61 57c-37 0 -59 -24 -59 -57s22 -57 59 -57z" />
    <glyph glyph-name="tilde" unicode="&#x2dc;" horiz-adv-x="312" 
d="M20 583c0 113 69 134 138 74c56 -48 90 -49 90 28h44c0 -112 -69 -134 -138 -74c-56 48 -90 50 -90 -28h-44z" />
    <glyph glyph-name="brevecy" horiz-adv-x="293" 
d="M20 587v44h253v-44h-253z" />
    </font>
</defs>
</svg>
