<?xml version="1.0" encoding="UTF-8" standalone="no"?>
<svg xmlns:rdf="http://www.w3.org/1999/02/22-rdf-syntax-ns#" xmlns="http://www.w3.org/2000/svg" height="82.548" width="81.355" version="1.1" xmlns:cc="http://creativecommons.org/ns#" xmlns:dc="http://purl.org/dc/elements/1.1/" viewBox="0 0 81.35513 82.547878">
<defs>
<linearGradient id="a" gradientUnits="userSpaceOnUse" x2="0" y2="82.548" gradientTransform="matrix(-1 0 0 1 81.55 -.69336)">
<stop stop-color="#fbec1c" offset="0"/>
<stop stop-color="#f7a91f" offset="1"/>
</linearGradient>
<linearGradient id="b" x1="42" gradientUnits="userSpaceOnUse" x2="42" gradientTransform="matrix(-1 0 0 1 81.55 -.69336)" y1="-1" y2="81">
<stop stop-color="#f3bb2b" offset="0"/>
<stop stop-color="#f6ec29" offset="1"/>
</linearGradient>
</defs>
<path fill="url(#a)" d="m22.155 0.0058629c0.89-0.01308 1.784-0.00359 2.68 0.01953 7.171 0.18494 14.975 1.7274 22.524 4.0098 7.548 2.2822 14.782 5.2964 20.679 8.7654 5.8808 3.459 11.1 6.672 12.877 13.656 0.95128 3.5748 0.19978 6.3708-0.73047 9.1152-0.93827 2.7681-2.3206 5.5308-4.0312 8.418-3.4213 5.7743-8.1894 11.991-13.576 17.805-5.3868 5.8133-11.338 11.186-17.396 15.08-6.0581 3.8944-12.42 7.016-19.682 5.0859h-0.002c-7.116-1.891-11.215-7.543-14.664-13.802-3.449-6.26-6.084-13.759-7.945-21.44-1.862-7.681-2.929-15.49-2.887-22.435 0.042-6.946 0.431-13.265 5.41-18.37 4.549-4.662 10.519-5.8162 16.744-5.9078z"/>
<path fill="url(#b)" d="m27.296 75.197c15.138 4.023 49.639-36.789 46.852-46.983-3.006-11.979-52.591-28.825-63.725-17.412-9.314 9.546 1.736 60.371 16.873 64.395z"/>
<path fill="#d09c11" d="m51.547 36.306c0 0.0051 0.0027 0.0087 0.0027 0.01382 0 0.05786-0.02758 0.10752-0.03273 0.16487-0.01728 0.18022-0.04131 0.35891-0.10506 0.52839-0.02094 0.05274-0.05688 0.0937-0.08228 0.14388-0.06947 0.14541-0.13298 0.29492-0.23918 0.41779l-9.6343 11.182c-0.61283 0.71168-1.6063 0.71168-2.2189 0-0.61249-0.71066-0.61249-1.8637 0-2.5749l6.9-8.0088h-23.764c-1.0072 0-1.8236-0.82996-1.8236-1.8535s0.81642-1.854 1.8236-1.854h23.819s-6.9549-8.0728-6.9549-8.0728c-0.6126-0.71117-0.6126-1.8642 0-2.5754 0.6126-0.71117 1.6061-0.71117 2.2189 0l9.6342 11.183c0.30636 0.35533 0.45925 0.82125 0.45925 1.2872 0 0.0061-0.003 0.01229-0.003 0.01843z"/>
</svg>
