<?xml version="1.0" encoding="UTF-8" standalone="no"?>
<svg xmlns:rdf="http://www.w3.org/1999/02/22-rdf-syntax-ns#" xmlns="http://www.w3.org/2000/svg" height="338.02" width="971.39" version="1.1" xmlns:cc="http://creativecommons.org/ns#" xmlns:dc="http://purl.org/dc/elements/1.1/" viewBox="0 0 971.38586 338.01672">
<path fill="#f3f3f3" d="m140 20.006c120.46-20.91 131.33-20 272.81-20 165.19-0.0001658 201.69 23.47 344.19 20 100.2-2.44 70.3 54.16 99 81 27.1 25.32 60.6-0.49 80 22 33.1 49.24 94.9 203.51-108 214-150.7 7.79-147-32-218-32-70.8 0-288.54 0.31-271 0-73.72 1.32-61.51 18.91-213 24-124.23 4.18-126-35.59-126-135 0-99.414 19.54-153.09 140-174z"/>
</svg>
